G04 (created by PCBNEW-RS274X (2010-03-14)-final) date Thu 06 Dec 2012 03:29:54 AM EST*
G01*
G70*
G90*
%MOIN*%
G04 Gerber Fmt 3.4, Leading zero omitted, Abs format*
%FSLAX34Y34*%
G04 APERTURE LIST*
%ADD10C,0.006000*%
%ADD11C,0.001000*%
%ADD12R,0.070900X0.062900*%
%ADD13R,0.015000X0.080000*%
%ADD14R,0.080000X0.015000*%
%ADD15R,0.016000X0.050000*%
%ADD16C,0.145000*%
%ADD17R,0.060000X0.060000*%
%ADD18C,0.060000*%
%ADD19C,0.035000*%
%ADD20R,0.240000X0.039500*%
%ADD21R,0.275000X0.039500*%
%ADD22O,0.118700X0.059300*%
%ADD23C,0.027500*%
%ADD24C,0.008000*%
%ADD25C,0.015000*%
%ADD26C,0.040000*%
%ADD27C,0.010000*%
G04 APERTURE END LIST*
G54D10*
G54D11*
X59035Y-37118D02*
X59035Y-34165D01*
X46153Y-23929D02*
X50299Y-23929D01*
X44083Y-38173D02*
X44083Y-26000D01*
X44083Y-38174D02*
X44083Y-38173D01*
X46153Y-40244D02*
X44083Y-38174D01*
X47543Y-40244D02*
X46153Y-40244D01*
X44083Y-25999D02*
X44083Y-26000D01*
X46153Y-23929D02*
X44083Y-25999D01*
X53209Y-40244D02*
X47543Y-40244D01*
X56201Y-37252D02*
X53209Y-40244D01*
X58898Y-37252D02*
X56201Y-37252D01*
X58901Y-37252D02*
X58898Y-37252D01*
X59035Y-37118D02*
X58901Y-37252D01*
X58901Y-38346D02*
X58898Y-38346D01*
X58901Y-26921D02*
X58677Y-26921D01*
X59035Y-27055D02*
X58901Y-26921D01*
X59035Y-29260D02*
X59035Y-27055D01*
X59035Y-30016D02*
X59035Y-29260D01*
X59035Y-30016D02*
X59035Y-30020D01*
X56201Y-26921D02*
X58677Y-26921D01*
X53209Y-23929D02*
X56201Y-26921D01*
X50295Y-23929D02*
X53209Y-23929D01*
X59370Y-34165D02*
X59035Y-34165D01*
X63437Y-30016D02*
X59035Y-30016D01*
X63437Y-34165D02*
X59370Y-34165D01*
X63437Y-30016D02*
X63437Y-34165D01*
G54D12*
X56953Y-28543D03*
X56953Y-29661D03*
X56051Y-28543D03*
X56051Y-29661D03*
X53547Y-37945D03*
X53547Y-39063D03*
G54D13*
X53502Y-27797D03*
X53247Y-27797D03*
X52992Y-27797D03*
X52737Y-27797D03*
X52482Y-27797D03*
X52222Y-27797D03*
X51967Y-27797D03*
X51712Y-27797D03*
X51457Y-27797D03*
X51202Y-27797D03*
X50942Y-27797D03*
X50687Y-27797D03*
X50432Y-27797D03*
X50177Y-27797D03*
X49917Y-27797D03*
X49662Y-27797D03*
X49407Y-27797D03*
X49152Y-27797D03*
X48892Y-27797D03*
X48637Y-27797D03*
X48382Y-27797D03*
X48127Y-27797D03*
X47872Y-27797D03*
X47612Y-27797D03*
X47357Y-27797D03*
X47102Y-27797D03*
X46847Y-27797D03*
X46592Y-27797D03*
G54D14*
X45722Y-28667D03*
X45722Y-28922D03*
X45722Y-29177D03*
X45722Y-29432D03*
X45722Y-29687D03*
X45722Y-29947D03*
X45722Y-30202D03*
X45722Y-30457D03*
X45722Y-30712D03*
X45722Y-30967D03*
X45722Y-31227D03*
X45722Y-31482D03*
X45722Y-31737D03*
X45722Y-31992D03*
X45722Y-32252D03*
X45722Y-32507D03*
X45722Y-32762D03*
X45722Y-33017D03*
X45722Y-33277D03*
X45722Y-33532D03*
X45722Y-33787D03*
X45722Y-34042D03*
X45722Y-34297D03*
X45722Y-34557D03*
X45722Y-34812D03*
X45722Y-35067D03*
X45722Y-35322D03*
X45722Y-35577D03*
G54D13*
X46592Y-36447D03*
X46847Y-36447D03*
X47102Y-36447D03*
X47357Y-36447D03*
X47612Y-36447D03*
X47872Y-36447D03*
X48127Y-36447D03*
X48382Y-36447D03*
X48637Y-36447D03*
X48892Y-36447D03*
X49152Y-36447D03*
X49407Y-36447D03*
X49662Y-36447D03*
X49917Y-36447D03*
X50177Y-36447D03*
X50432Y-36447D03*
X50687Y-36447D03*
X50942Y-36447D03*
X51202Y-36447D03*
X51457Y-36447D03*
X51712Y-36447D03*
X51967Y-36447D03*
X52222Y-36447D03*
X52482Y-36447D03*
X52737Y-36447D03*
X52992Y-36447D03*
X53247Y-36447D03*
X53502Y-36447D03*
G54D14*
X54372Y-35577D03*
X54372Y-35322D03*
X54372Y-35067D03*
X54372Y-34812D03*
X54372Y-34557D03*
X54372Y-34297D03*
X54372Y-34042D03*
X54372Y-33787D03*
X54372Y-33532D03*
X54372Y-33277D03*
X54372Y-33017D03*
X54372Y-32762D03*
X54372Y-32507D03*
X54372Y-32252D03*
X54372Y-31992D03*
X54372Y-31737D03*
X54372Y-31482D03*
X54372Y-31227D03*
X54372Y-30967D03*
X54372Y-30712D03*
X54372Y-30457D03*
X54372Y-30202D03*
X54372Y-29947D03*
X54372Y-29687D03*
X54372Y-29432D03*
X54372Y-29177D03*
X54372Y-28922D03*
X54372Y-28667D03*
G54D15*
X55318Y-33534D03*
X55568Y-33534D03*
X55828Y-33534D03*
X56088Y-33534D03*
X56338Y-33534D03*
X56598Y-33534D03*
X56858Y-33534D03*
X57108Y-33534D03*
X57368Y-33534D03*
X57618Y-33534D03*
X57878Y-33534D03*
X58138Y-33534D03*
X58388Y-33534D03*
X58648Y-33534D03*
X58648Y-30734D03*
X58388Y-30734D03*
X58148Y-30734D03*
X57878Y-30734D03*
X57618Y-30734D03*
X57368Y-30734D03*
X57108Y-30734D03*
X56858Y-30734D03*
X56598Y-30734D03*
X56338Y-30734D03*
X56088Y-30734D03*
X55828Y-30734D03*
X55568Y-30734D03*
X55318Y-30734D03*
G54D16*
X46602Y-38976D03*
G54D17*
X47471Y-24618D03*
G54D18*
X48521Y-24618D03*
X47521Y-25618D03*
X48471Y-25618D03*
X47471Y-26618D03*
X48521Y-26618D03*
G54D19*
X44890Y-35496D03*
X44894Y-34496D03*
X44890Y-36496D03*
X44882Y-37500D03*
G54D20*
X61831Y-31671D03*
X61831Y-32471D03*
G54D21*
X62006Y-30671D03*
X62006Y-33471D03*
G54D22*
X50631Y-26917D03*
X50631Y-24359D03*
X52401Y-26917D03*
X52401Y-24359D03*
X52401Y-37308D03*
X52401Y-39866D03*
X50631Y-37308D03*
X50631Y-39866D03*
G54D23*
X56252Y-36776D03*
X50039Y-38153D03*
X54461Y-36315D03*
X53358Y-25114D03*
X51504Y-26394D03*
X47539Y-38102D03*
X58220Y-36677D03*
X55653Y-31866D03*
X49390Y-24299D03*
X46941Y-29209D03*
X52453Y-30346D03*
X52850Y-28728D03*
X55342Y-26736D03*
X52114Y-33051D03*
X45256Y-38594D03*
X44484Y-34976D03*
X49142Y-39709D03*
X54461Y-38405D03*
X56075Y-34035D03*
X57378Y-31323D03*
X53500Y-37405D03*
X58256Y-27618D03*
X56461Y-32492D03*
X54783Y-27465D03*
X53449Y-29646D03*
X46665Y-31531D03*
X47953Y-28689D03*
X58594Y-31543D03*
X59382Y-31669D03*
X48838Y-28866D03*
X55319Y-34559D03*
X55319Y-34035D03*
X58815Y-30185D03*
X56295Y-34841D03*
X57649Y-32791D03*
X49562Y-35567D03*
X49583Y-28886D03*
X55362Y-35323D03*
X54665Y-37437D03*
X58201Y-28472D03*
X53476Y-30567D03*
X46685Y-30398D03*
X52823Y-34693D03*
X57012Y-34705D03*
X46763Y-33532D03*
X47681Y-31665D03*
X49346Y-38748D03*
X49469Y-30213D03*
X50374Y-31886D03*
X50291Y-34295D03*
X48405Y-35551D03*
X48134Y-37362D03*
X44760Y-33642D03*
X50681Y-28913D03*
X46598Y-32283D03*
X44571Y-32417D03*
X44579Y-26358D03*
X45685Y-27874D03*
X44850Y-29866D03*
X50197Y-30677D03*
X49555Y-30642D03*
X49154Y-29984D03*
X58307Y-29713D03*
X56079Y-27650D03*
X56941Y-27642D03*
G54D24*
X45661Y-39457D02*
X45661Y-39472D01*
X45661Y-39472D02*
X46114Y-39925D01*
G54D25*
X50039Y-38153D02*
X50039Y-38150D01*
X54461Y-36299D02*
X54461Y-36315D01*
X53358Y-25114D02*
X53358Y-25146D01*
X47594Y-38094D02*
X47547Y-38094D01*
X47547Y-38094D02*
X47539Y-38102D01*
X58342Y-36677D02*
X58220Y-36677D01*
X49366Y-24279D02*
X49370Y-24279D01*
X49370Y-24279D02*
X49390Y-24299D01*
X46933Y-29256D02*
X46933Y-29217D01*
X46933Y-29217D02*
X46941Y-29209D01*
X52453Y-30346D02*
X52413Y-30346D01*
X52791Y-28709D02*
X52831Y-28709D01*
X52831Y-28709D02*
X52850Y-28728D01*
X55303Y-26697D02*
X55303Y-26677D01*
X55342Y-26736D02*
X55303Y-26697D01*
X52067Y-33020D02*
X52083Y-33020D01*
X52083Y-33020D02*
X52114Y-33051D01*
X45213Y-38551D02*
X45213Y-38539D01*
X45256Y-38594D02*
X45213Y-38551D01*
X44464Y-34957D02*
X44465Y-34957D01*
X44465Y-34957D02*
X44484Y-34976D01*
X49110Y-39689D02*
X49122Y-39689D01*
X49122Y-39689D02*
X49142Y-39709D01*
X57368Y-30234D02*
X57583Y-30019D01*
G54D24*
X53502Y-37403D02*
X53500Y-37405D01*
X56088Y-32829D02*
X56088Y-33534D01*
X53381Y-37405D02*
X53500Y-37405D01*
X53247Y-37271D02*
X53381Y-37405D01*
X56088Y-34022D02*
X56075Y-34035D01*
X56088Y-33534D02*
X56088Y-32793D01*
G54D25*
X53557Y-29947D02*
X54372Y-29947D01*
G54D24*
X56088Y-32793D02*
X56389Y-32492D01*
X57378Y-31323D02*
X57368Y-31313D01*
X53557Y-29947D02*
X53449Y-29839D01*
G54D25*
X53449Y-29839D02*
X53557Y-29947D01*
G54D24*
X45722Y-31737D02*
X46459Y-31737D01*
G54D25*
X53449Y-29646D02*
X53449Y-29839D01*
G54D24*
X53547Y-37452D02*
X53500Y-37405D01*
G54D25*
X53502Y-36447D02*
X53502Y-37403D01*
G54D24*
X54372Y-29947D02*
X53557Y-29947D01*
G54D25*
X54783Y-27465D02*
X54783Y-27511D01*
G54D24*
X54372Y-29947D02*
X54994Y-29947D01*
G54D25*
X57583Y-30019D02*
X57583Y-28189D01*
X57583Y-28189D02*
X58154Y-27618D01*
X58154Y-27618D02*
X58256Y-27618D01*
X55138Y-27866D02*
X55138Y-29803D01*
X55138Y-29803D02*
X54994Y-29947D01*
G54D24*
X55766Y-32507D02*
X56088Y-32829D01*
G54D25*
X53247Y-37271D02*
X53381Y-37405D01*
X53547Y-37945D02*
X53547Y-37452D01*
X53547Y-37452D02*
X53500Y-37405D01*
X53247Y-36447D02*
X53247Y-37271D01*
X46459Y-31737D02*
X45722Y-31737D01*
X46665Y-31531D02*
X46459Y-31737D01*
X57368Y-31313D02*
X57378Y-31323D01*
X57368Y-30734D02*
X57368Y-31313D01*
X56461Y-32492D02*
X56389Y-32492D01*
X53381Y-37405D02*
X53500Y-37405D01*
X53502Y-37403D02*
X53500Y-37405D01*
X55766Y-32507D02*
X56088Y-32829D01*
X57287Y-27291D02*
X54957Y-27291D01*
X58256Y-27618D02*
X58000Y-27362D01*
X56088Y-32793D02*
X56088Y-33534D01*
X54994Y-29947D02*
X54372Y-29947D01*
X54783Y-27511D02*
X55138Y-27866D01*
X54372Y-32507D02*
X55766Y-32507D01*
X58000Y-27362D02*
X57358Y-27362D01*
X56389Y-32492D02*
X56088Y-32793D01*
X57368Y-30734D02*
X57368Y-30234D01*
X56088Y-34022D02*
X56075Y-34035D01*
X56088Y-33534D02*
X56088Y-34022D01*
X56088Y-32829D02*
X56088Y-33534D01*
X54957Y-27291D02*
X54783Y-27465D01*
X57358Y-27362D02*
X57287Y-27291D01*
G54D24*
X47872Y-27298D02*
X47720Y-27146D01*
X47720Y-27146D02*
X46925Y-27146D01*
X47872Y-27797D02*
X47872Y-27298D01*
X46925Y-27146D02*
X46787Y-27008D01*
X47872Y-27298D02*
X47720Y-27146D01*
X47720Y-27146D02*
X46925Y-27146D01*
X47872Y-28608D02*
X47953Y-28689D01*
X46787Y-27008D02*
X46787Y-24918D01*
X47087Y-24618D02*
X47471Y-24618D01*
X47872Y-27797D02*
X47872Y-28608D01*
X46787Y-24918D02*
X47087Y-24618D01*
G54D25*
X58648Y-30734D02*
X58648Y-31038D01*
X58945Y-31985D02*
X58910Y-32020D01*
X58945Y-31335D02*
X58945Y-31985D01*
X58648Y-31038D02*
X58945Y-31335D01*
G54D26*
X61831Y-32471D02*
X59361Y-32471D01*
X58910Y-32020D02*
X58909Y-32020D01*
X59361Y-32471D02*
X58910Y-32020D01*
G54D25*
X58388Y-30734D02*
X58388Y-31337D01*
X58388Y-31337D02*
X58594Y-31543D01*
G54D26*
X61831Y-31671D02*
X59384Y-31671D01*
X59384Y-31671D02*
X59382Y-31669D01*
G54D24*
X48838Y-31815D02*
X48838Y-28866D01*
X48661Y-31992D02*
X48838Y-31815D01*
X45722Y-31992D02*
X48661Y-31992D01*
X55318Y-34034D02*
X55319Y-34035D01*
X55319Y-34559D02*
X55317Y-34557D01*
X55317Y-34557D02*
X54372Y-34557D01*
X55318Y-33534D02*
X55318Y-34034D01*
X56297Y-34297D02*
X54372Y-34297D01*
X56338Y-34256D02*
X56297Y-34297D01*
X56338Y-33534D02*
X56338Y-34256D01*
G54D26*
X62006Y-30671D02*
X59478Y-30671D01*
X58992Y-30185D02*
X58815Y-30185D01*
X59478Y-30671D02*
X58992Y-30185D01*
G54D25*
X48892Y-36447D02*
X48892Y-37490D01*
X47233Y-38976D02*
X46602Y-38976D01*
X48126Y-38083D02*
X47233Y-38976D01*
X48299Y-38083D02*
X48126Y-38083D01*
X48892Y-37490D02*
X48299Y-38083D01*
X56279Y-34825D02*
X56279Y-34803D01*
X56295Y-34841D02*
X56279Y-34825D01*
X57740Y-32835D02*
X57693Y-32835D01*
X57693Y-32835D02*
X57649Y-32791D01*
X50177Y-27797D02*
X50177Y-28469D01*
X49760Y-28886D02*
X49583Y-28886D01*
X50177Y-28469D02*
X49760Y-28886D01*
X49562Y-35567D02*
X49562Y-35058D01*
X49562Y-35058D02*
X49224Y-34720D01*
X48892Y-36447D02*
X48892Y-35927D01*
X49342Y-35787D02*
X49562Y-35567D01*
X49032Y-35787D02*
X49342Y-35787D01*
X48892Y-35927D02*
X49032Y-35787D01*
X49224Y-34720D02*
X49386Y-34882D01*
X49386Y-34882D02*
X49390Y-34882D01*
X49390Y-34882D02*
X50047Y-35539D01*
X50047Y-35539D02*
X50047Y-35567D01*
X49019Y-28536D02*
X49233Y-28536D01*
X49233Y-28536D02*
X49583Y-28886D01*
G54D24*
X55273Y-35577D02*
X55362Y-35488D01*
G54D25*
X57421Y-32531D02*
X57421Y-32835D01*
G54D24*
X57878Y-28795D02*
X58201Y-28472D01*
X53582Y-30202D02*
X53476Y-30308D01*
X56567Y-34567D02*
X55768Y-34567D01*
G54D25*
X53582Y-30202D02*
X53476Y-30308D01*
X52951Y-35577D02*
X54372Y-35577D01*
X55362Y-36740D02*
X55362Y-35323D01*
X54372Y-35322D02*
X55361Y-35322D01*
X54372Y-30202D02*
X55757Y-30202D01*
G54D24*
X55362Y-34973D02*
X55362Y-35323D01*
X47681Y-31504D02*
X47681Y-31665D01*
X53476Y-30308D02*
X53476Y-30567D01*
X55757Y-30202D02*
X55828Y-30273D01*
G54D25*
X50047Y-35567D02*
X50220Y-35567D01*
X50220Y-35567D02*
X52941Y-35567D01*
X52941Y-35567D02*
X52951Y-35577D01*
X56858Y-34551D02*
X57012Y-34705D01*
G54D24*
X46238Y-31482D02*
X46685Y-31035D01*
X56858Y-34551D02*
X57012Y-34705D01*
X46685Y-31035D02*
X46685Y-30846D01*
X45139Y-32762D02*
X45098Y-32803D01*
X45722Y-31482D02*
X46238Y-31482D01*
X45098Y-33507D02*
X45123Y-33532D01*
X49146Y-33532D02*
X49224Y-33610D01*
X46685Y-30846D02*
X46685Y-30398D01*
X46685Y-30846D02*
X47023Y-30846D01*
X47023Y-30846D02*
X47681Y-31504D01*
G54D26*
X57421Y-32835D02*
X57114Y-32835D01*
G54D24*
X45098Y-32803D02*
X45098Y-33507D01*
G54D26*
X58827Y-32835D02*
X58752Y-32835D01*
X58752Y-32835D02*
X57740Y-32835D01*
X57740Y-32835D02*
X57421Y-32835D01*
G54D24*
X45123Y-33532D02*
X45722Y-33532D01*
G54D25*
X57878Y-28795D02*
X58201Y-28472D01*
G54D24*
X55361Y-35322D02*
X55362Y-35323D01*
X55362Y-35488D02*
X55362Y-35323D01*
G54D25*
X55768Y-34567D02*
X55362Y-34973D01*
G54D26*
X57114Y-32835D02*
X57035Y-32835D01*
X59463Y-33471D02*
X58827Y-32835D01*
G54D25*
X55361Y-35322D02*
X55362Y-35323D01*
G54D26*
X62006Y-33471D02*
X59463Y-33471D01*
G54D25*
X56858Y-34276D02*
X56567Y-34567D01*
X55362Y-34973D02*
X55362Y-35323D01*
G54D24*
X55828Y-30273D02*
X55828Y-30734D01*
G54D25*
X57087Y-32205D02*
X57177Y-32295D01*
X57087Y-31161D02*
X57087Y-32205D01*
X45098Y-33154D02*
X45098Y-33507D01*
X56858Y-33534D02*
X56858Y-34276D01*
X57108Y-31140D02*
X57087Y-31161D01*
X56567Y-34567D02*
X55768Y-34567D01*
X57878Y-30734D02*
X57878Y-28795D01*
X45722Y-33532D02*
X46763Y-33532D01*
X56858Y-33534D02*
X56858Y-34551D01*
X45098Y-33507D02*
X45123Y-33532D01*
X49146Y-33532D02*
X49224Y-33610D01*
X46763Y-33532D02*
X49146Y-33532D01*
X45139Y-32762D02*
X45098Y-32803D01*
X57878Y-30734D02*
X57878Y-32378D01*
X45098Y-32803D02*
X45098Y-33154D01*
X57878Y-32378D02*
X57421Y-32835D01*
X45123Y-33532D02*
X45722Y-33532D01*
X54665Y-37437D02*
X55362Y-36740D01*
X45722Y-32762D02*
X45139Y-32762D01*
X55273Y-35577D02*
X55362Y-35488D01*
X52823Y-34693D02*
X52823Y-35449D01*
X55828Y-30734D02*
X55828Y-31383D01*
X52823Y-35449D02*
X52951Y-35577D01*
X56858Y-33091D02*
X57114Y-32835D01*
X54372Y-35577D02*
X55273Y-35577D01*
X57177Y-32295D02*
X57177Y-32287D01*
X55362Y-35488D02*
X55362Y-35323D01*
X57177Y-32287D02*
X57421Y-32531D01*
X49224Y-33610D02*
X49224Y-34720D01*
X56858Y-33534D02*
X56858Y-33091D01*
X48665Y-28536D02*
X49019Y-28536D01*
X46803Y-30398D02*
X48665Y-28536D01*
X46685Y-30398D02*
X46803Y-30398D01*
X55828Y-30273D02*
X55828Y-30734D01*
X54372Y-30202D02*
X53582Y-30202D01*
X57108Y-30734D02*
X57108Y-31140D01*
X53476Y-30308D02*
X53476Y-30567D01*
X55828Y-31383D02*
X57114Y-32669D01*
X55757Y-30202D02*
X55828Y-30273D01*
X57114Y-32669D02*
X57114Y-32835D01*
X56088Y-30734D02*
X56088Y-31198D01*
X56088Y-31198D02*
X57177Y-32287D01*
G54D24*
X53547Y-39063D02*
X49661Y-39063D01*
X49661Y-39063D02*
X49346Y-38748D01*
X50942Y-27797D02*
X50942Y-28285D01*
X49651Y-30031D02*
X49469Y-30213D01*
X51264Y-30031D02*
X49651Y-30031D01*
X51468Y-29827D02*
X51264Y-30031D01*
X51468Y-28811D02*
X51468Y-29827D01*
X50942Y-28285D02*
X51468Y-28811D01*
X49480Y-32197D02*
X49791Y-31886D01*
X45722Y-33017D02*
X49211Y-33017D01*
X49791Y-31886D02*
X50374Y-31886D01*
X49211Y-33017D02*
X49480Y-32748D01*
X49480Y-32748D02*
X49480Y-32197D01*
X45722Y-33277D02*
X49223Y-33277D01*
X49223Y-33277D02*
X49473Y-33527D01*
X49473Y-33527D02*
X49473Y-33965D01*
X49473Y-33965D02*
X49803Y-34295D01*
X49803Y-34295D02*
X50291Y-34295D01*
X48637Y-36447D02*
X48637Y-35778D01*
X48410Y-35551D02*
X48405Y-35551D01*
X48637Y-35778D02*
X48410Y-35551D01*
X48127Y-36447D02*
X48127Y-37355D01*
X48127Y-37355D02*
X48134Y-37362D01*
X44760Y-32759D02*
X44760Y-33642D01*
X45012Y-32507D02*
X44760Y-32759D01*
X45722Y-32507D02*
X45012Y-32507D01*
X50432Y-27797D02*
X50432Y-28664D01*
X50432Y-28664D02*
X50681Y-28913D01*
X46567Y-32252D02*
X46598Y-32283D01*
X45722Y-32252D02*
X44736Y-32252D01*
X44736Y-32252D02*
X44571Y-32417D01*
X45722Y-32252D02*
X46567Y-32252D01*
X44805Y-30967D02*
X44362Y-30524D01*
X44362Y-26575D02*
X44579Y-26358D01*
X44362Y-30524D02*
X44362Y-26575D01*
X45722Y-30967D02*
X44805Y-30967D01*
X45722Y-30457D02*
X46271Y-30457D01*
X46394Y-28414D02*
X45854Y-27874D01*
X45854Y-27874D02*
X45685Y-27874D01*
X46394Y-30334D02*
X46394Y-28414D01*
X46271Y-30457D02*
X46394Y-30334D01*
X45173Y-30712D02*
X44984Y-30523D01*
X44984Y-30523D02*
X44984Y-30000D01*
X45722Y-30712D02*
X45173Y-30712D01*
X44984Y-30000D02*
X44850Y-29866D01*
X56598Y-30734D02*
X56598Y-30243D01*
X56051Y-30079D02*
X56051Y-29661D01*
X56106Y-30134D02*
X56051Y-30079D01*
X56598Y-30243D02*
X56489Y-30134D01*
X56489Y-30134D02*
X56106Y-30134D01*
X56858Y-30734D02*
X56858Y-29756D01*
X56858Y-29756D02*
X56953Y-29661D01*
X51457Y-27797D02*
X51457Y-28264D01*
X51437Y-30673D02*
X50201Y-30673D01*
X51921Y-30189D02*
X51437Y-30673D01*
X51921Y-28586D02*
X51921Y-30189D01*
X51796Y-28461D02*
X51921Y-28586D01*
X51654Y-28461D02*
X51796Y-28461D01*
X51457Y-28264D02*
X51654Y-28461D01*
X50201Y-30673D02*
X50197Y-30677D01*
X50197Y-30677D02*
X50201Y-30673D01*
X51202Y-27797D02*
X51202Y-28265D01*
X49847Y-30350D02*
X49555Y-30642D01*
X51417Y-30350D02*
X49847Y-30350D01*
X51736Y-30031D02*
X51417Y-30350D01*
X51736Y-28744D02*
X51736Y-30031D01*
X51653Y-28661D02*
X51736Y-28744D01*
X51598Y-28661D02*
X51653Y-28661D01*
X51202Y-28265D02*
X51598Y-28661D01*
X50687Y-27797D02*
X50687Y-28313D01*
X49398Y-29740D02*
X49154Y-29984D01*
X51067Y-29740D02*
X49398Y-29740D01*
X51224Y-29583D02*
X51067Y-29740D01*
X51224Y-28850D02*
X51224Y-29583D01*
X50687Y-28313D02*
X51224Y-28850D01*
X58307Y-30075D02*
X58307Y-29713D01*
X58148Y-30234D02*
X58307Y-30075D01*
X58148Y-30734D02*
X58148Y-30234D01*
X56051Y-28543D02*
X56051Y-27678D01*
X56051Y-27678D02*
X56079Y-27650D01*
X56953Y-27654D02*
X56941Y-27642D01*
X56953Y-28543D02*
X56953Y-27654D01*
G54D27*
X47939Y-24134D02*
X48142Y-24134D01*
X48899Y-24134D02*
X49040Y-24134D01*
X49739Y-24134D02*
X49831Y-24134D01*
X51431Y-24134D02*
X51601Y-24134D01*
X47998Y-24214D02*
X48134Y-24214D01*
X48908Y-24214D02*
X49008Y-24214D01*
X49773Y-24214D02*
X49798Y-24214D01*
X51464Y-24214D02*
X51568Y-24214D01*
X48180Y-24294D02*
X48214Y-24294D01*
X48828Y-24294D02*
X48862Y-24294D01*
X49776Y-24294D02*
X49782Y-24294D01*
X51480Y-24294D02*
X51552Y-24294D01*
X53250Y-24294D02*
X53284Y-24294D01*
X48260Y-24374D02*
X48294Y-24374D01*
X48748Y-24374D02*
X48782Y-24374D01*
X49776Y-24374D02*
X49782Y-24374D01*
X51480Y-24374D02*
X51552Y-24374D01*
X53250Y-24374D02*
X53364Y-24374D01*
X48340Y-24454D02*
X48374Y-24454D01*
X48668Y-24454D02*
X48702Y-24454D01*
X49743Y-24454D02*
X49782Y-24454D01*
X51480Y-24454D02*
X51552Y-24454D01*
X53250Y-24454D02*
X53444Y-24454D01*
X48420Y-24534D02*
X48454Y-24534D01*
X48588Y-24534D02*
X48622Y-24534D01*
X49700Y-24534D02*
X49810Y-24534D01*
X51451Y-24534D02*
X51580Y-24534D01*
X53221Y-24534D02*
X53524Y-24534D01*
X48500Y-24614D02*
X48542Y-24614D01*
X49156Y-24614D02*
X49159Y-24614D01*
X49620Y-24614D02*
X49843Y-24614D01*
X51418Y-24614D02*
X51613Y-24614D01*
X53188Y-24614D02*
X53604Y-24614D01*
X48428Y-24694D02*
X48462Y-24694D01*
X48580Y-24694D02*
X48614Y-24694D01*
X49155Y-24694D02*
X49895Y-24694D01*
X51367Y-24694D02*
X51665Y-24694D01*
X53137Y-24694D02*
X53684Y-24694D01*
X48348Y-24774D02*
X48382Y-24774D01*
X48660Y-24774D02*
X48694Y-24774D01*
X49147Y-24774D02*
X49975Y-24774D01*
X51287Y-24774D02*
X51745Y-24774D01*
X53057Y-24774D02*
X53171Y-24774D01*
X53545Y-24774D02*
X53764Y-24774D01*
X48268Y-24854D02*
X48302Y-24854D01*
X48740Y-24854D02*
X48774Y-24854D01*
X49112Y-24854D02*
X50112Y-24854D01*
X51149Y-24854D02*
X51882Y-24854D01*
X52919Y-24854D02*
X53073Y-24854D01*
X53644Y-24854D02*
X53844Y-24854D01*
X48188Y-24934D02*
X48222Y-24934D01*
X48820Y-24934D02*
X48854Y-24934D01*
X49077Y-24934D02*
X53016Y-24934D01*
X53702Y-24934D02*
X53924Y-24934D01*
X48000Y-25014D02*
X48142Y-25014D01*
X48900Y-25014D02*
X52982Y-25014D01*
X53735Y-25014D02*
X54004Y-25014D01*
X47947Y-25094D02*
X48141Y-25094D01*
X48900Y-25094D02*
X52972Y-25094D01*
X53744Y-25094D02*
X54084Y-25094D01*
X47853Y-25174D02*
X48139Y-25174D01*
X48846Y-25174D02*
X52972Y-25174D01*
X53744Y-25174D02*
X54164Y-25174D01*
X47933Y-25254D02*
X48059Y-25254D01*
X48883Y-25254D02*
X52998Y-25254D01*
X53717Y-25254D02*
X54244Y-25254D01*
X48948Y-25334D02*
X53032Y-25334D01*
X53683Y-25334D02*
X54324Y-25334D01*
X48981Y-25414D02*
X53112Y-25414D01*
X53603Y-25414D02*
X54404Y-25414D01*
X49014Y-25494D02*
X53266Y-25494D01*
X53449Y-25494D02*
X54484Y-25494D01*
X49020Y-25574D02*
X54564Y-25574D01*
X49020Y-25654D02*
X54644Y-25654D01*
X49017Y-25734D02*
X54724Y-25734D01*
X48983Y-25814D02*
X54804Y-25814D01*
X48950Y-25894D02*
X54884Y-25894D01*
X48891Y-25974D02*
X54964Y-25974D01*
X48811Y-26054D02*
X51317Y-26054D01*
X51691Y-26054D02*
X55044Y-26054D01*
X48787Y-26134D02*
X51219Y-26134D01*
X51790Y-26134D02*
X55124Y-26134D01*
X48893Y-26214D02*
X51162Y-26214D01*
X51848Y-26214D02*
X55204Y-26214D01*
X48973Y-26294D02*
X51128Y-26294D01*
X51881Y-26294D02*
X51914Y-26294D01*
X52389Y-26294D02*
X52413Y-26294D01*
X52888Y-26294D02*
X55284Y-26294D01*
X49014Y-26374D02*
X51118Y-26374D01*
X52389Y-26374D02*
X52413Y-26374D01*
X53073Y-26374D02*
X55193Y-26374D01*
X49048Y-26454D02*
X50035Y-26454D01*
X52389Y-26454D02*
X52413Y-26454D01*
X53152Y-26454D02*
X55069Y-26454D01*
X49070Y-26534D02*
X49943Y-26534D01*
X52389Y-26534D02*
X52413Y-26534D01*
X53230Y-26534D02*
X55009Y-26534D01*
X49070Y-26614D02*
X49864Y-26614D01*
X52389Y-26614D02*
X52413Y-26614D01*
X53271Y-26614D02*
X54975Y-26614D01*
X49070Y-26694D02*
X49831Y-26694D01*
X52389Y-26694D02*
X52413Y-26694D01*
X53297Y-26694D02*
X54956Y-26694D01*
X49050Y-26774D02*
X49797Y-26774D01*
X52389Y-26774D02*
X52413Y-26774D01*
X53324Y-26774D02*
X54956Y-26774D01*
X49017Y-26854D02*
X49782Y-26854D01*
X52389Y-26854D02*
X52413Y-26854D01*
X53294Y-26854D02*
X54973Y-26854D01*
X48981Y-26934D02*
X49782Y-26934D01*
X53260Y-26934D02*
X55006Y-26934D01*
X48901Y-27014D02*
X49782Y-27014D01*
X53321Y-27014D02*
X54798Y-27014D01*
X48805Y-27094D02*
X49810Y-27094D01*
X53311Y-27094D02*
X54670Y-27094D01*
X53690Y-27174D02*
X54529Y-27174D01*
X53786Y-27254D02*
X54454Y-27254D01*
X53821Y-27334D02*
X54420Y-27334D01*
X53826Y-27414D02*
X54397Y-27414D01*
X53826Y-27494D02*
X54397Y-27494D01*
X53826Y-27574D02*
X54410Y-27574D01*
X53826Y-27654D02*
X54443Y-27654D01*
X53826Y-27734D02*
X54506Y-27734D01*
X53826Y-27814D02*
X54617Y-27814D01*
X53826Y-27894D02*
X54706Y-27894D01*
X53826Y-27974D02*
X54786Y-27974D01*
X53826Y-28054D02*
X54813Y-28054D01*
X53826Y-28134D02*
X54813Y-28134D01*
X53826Y-28214D02*
X54813Y-28214D01*
X53806Y-28294D02*
X54813Y-28294D01*
X53752Y-28374D02*
X53848Y-28374D01*
X52175Y-28454D02*
X52579Y-28454D01*
X53122Y-28454D02*
X53760Y-28454D01*
X52201Y-28534D02*
X52513Y-28534D01*
X53188Y-28534D02*
X53727Y-28534D01*
X52211Y-28614D02*
X52480Y-28614D01*
X53221Y-28614D02*
X53723Y-28614D01*
X52211Y-28694D02*
X52464Y-28694D01*
X53236Y-28694D02*
X53723Y-28694D01*
X52211Y-28774D02*
X52464Y-28774D01*
X53236Y-28774D02*
X53723Y-28774D01*
X52211Y-28854D02*
X52484Y-28854D01*
X53215Y-28854D02*
X53723Y-28854D01*
X52211Y-28934D02*
X52517Y-28934D01*
X53182Y-28934D02*
X53723Y-28934D01*
X52211Y-29014D02*
X52590Y-29014D01*
X53109Y-29014D02*
X53723Y-29014D01*
X52211Y-29094D02*
X52725Y-29094D01*
X52975Y-29094D02*
X53723Y-29094D01*
X52211Y-29174D02*
X53723Y-29174D01*
X52211Y-29254D02*
X53723Y-29254D01*
X52211Y-29334D02*
X53216Y-29334D01*
X53683Y-29334D02*
X53723Y-29334D01*
X52211Y-29414D02*
X53136Y-29414D01*
X52211Y-29494D02*
X53095Y-29494D01*
X52211Y-29574D02*
X53063Y-29574D01*
X52211Y-29654D02*
X53063Y-29654D01*
X52211Y-29734D02*
X53067Y-29734D01*
X52211Y-29814D02*
X53100Y-29814D01*
X52211Y-29894D02*
X53135Y-29894D01*
X52211Y-29974D02*
X52343Y-29974D01*
X52564Y-29974D02*
X53156Y-29974D01*
X52707Y-30054D02*
X53209Y-30054D01*
X52783Y-30134D02*
X53284Y-30134D01*
X52817Y-30214D02*
X53383Y-30214D01*
X52839Y-30294D02*
X53622Y-30294D01*
X53623Y-30294D02*
X53629Y-30294D01*
X52839Y-30374D02*
X53634Y-30374D01*
X49128Y-30454D02*
X49164Y-30454D01*
X52065Y-30454D02*
X52079Y-30454D01*
X52826Y-30454D02*
X53667Y-30454D01*
X49128Y-30534D02*
X49182Y-30534D01*
X51985Y-30534D02*
X52112Y-30534D01*
X52792Y-30534D02*
X53723Y-30534D01*
X49128Y-30614D02*
X49169Y-30614D01*
X51905Y-30614D02*
X52175Y-30614D01*
X52730Y-30614D02*
X53723Y-30614D01*
X49128Y-30694D02*
X49169Y-30694D01*
X51825Y-30694D02*
X52285Y-30694D01*
X52621Y-30694D02*
X53723Y-30694D01*
X49128Y-30774D02*
X49191Y-30774D01*
X51745Y-30774D02*
X53723Y-30774D01*
X49128Y-30854D02*
X49225Y-30854D01*
X51665Y-30854D02*
X53723Y-30854D01*
X49128Y-30934D02*
X49301Y-30934D01*
X49808Y-30934D02*
X49908Y-30934D01*
X51558Y-30934D02*
X53723Y-30934D01*
X49128Y-31014D02*
X49444Y-31014D01*
X49665Y-31014D02*
X50002Y-31014D01*
X50391Y-31014D02*
X53723Y-31014D01*
X49128Y-31094D02*
X53724Y-31094D01*
X49128Y-31174D02*
X53723Y-31174D01*
X49128Y-31254D02*
X53723Y-31254D01*
X49128Y-31334D02*
X53723Y-31334D01*
X49128Y-31414D02*
X53723Y-31414D01*
X49128Y-31494D02*
X53723Y-31494D01*
X49128Y-31574D02*
X50140Y-31574D01*
X50608Y-31574D02*
X53723Y-31574D01*
X49128Y-31654D02*
X49627Y-31654D01*
X50688Y-31654D02*
X53723Y-31654D01*
X49128Y-31734D02*
X49533Y-31734D01*
X50729Y-31734D02*
X53723Y-31734D01*
X49128Y-31814D02*
X49453Y-31814D01*
X50760Y-31814D02*
X53723Y-31814D01*
X49112Y-31894D02*
X49373Y-31894D01*
X50760Y-31894D02*
X53723Y-31894D01*
X49073Y-31974D02*
X49293Y-31974D01*
X50755Y-31974D02*
X53723Y-31974D01*
X49009Y-32054D02*
X49234Y-32054D01*
X50721Y-32054D02*
X53723Y-32054D01*
X48929Y-32134D02*
X49203Y-32134D01*
X50671Y-32134D02*
X53723Y-32134D01*
X48840Y-32214D02*
X49190Y-32214D01*
X49872Y-32214D02*
X50158Y-32214D01*
X50590Y-32214D02*
X53723Y-32214D01*
X46984Y-32294D02*
X49190Y-32294D01*
X49792Y-32294D02*
X53723Y-32294D01*
X46978Y-32374D02*
X49190Y-32374D01*
X49770Y-32374D02*
X53723Y-32374D01*
X46944Y-32454D02*
X49190Y-32454D01*
X49770Y-32454D02*
X53723Y-32454D01*
X46892Y-32534D02*
X49190Y-32534D01*
X49770Y-32534D02*
X53723Y-32534D01*
X46807Y-32614D02*
X49190Y-32614D01*
X49770Y-32614D02*
X53723Y-32614D01*
X46441Y-32694D02*
X46471Y-32694D01*
X46471Y-32694D02*
X49124Y-32694D01*
X49770Y-32694D02*
X51968Y-32694D01*
X52261Y-32694D02*
X53723Y-32694D01*
X49764Y-32774D02*
X51846Y-32774D01*
X52383Y-32774D02*
X53723Y-32774D01*
X49748Y-32854D02*
X51779Y-32854D01*
X52451Y-32854D02*
X53723Y-32854D01*
X49697Y-32934D02*
X51745Y-32934D01*
X52484Y-32934D02*
X53723Y-32934D01*
X49623Y-33014D02*
X51728Y-33014D01*
X52500Y-33014D02*
X53723Y-33014D01*
X49542Y-33094D02*
X51728Y-33094D01*
X52500Y-33094D02*
X53723Y-33094D01*
X49530Y-33174D02*
X51747Y-33174D01*
X52480Y-33174D02*
X53723Y-33174D01*
X49610Y-33254D02*
X51780Y-33254D01*
X52447Y-33254D02*
X53723Y-33254D01*
X49687Y-33334D02*
X51851Y-33334D01*
X52376Y-33334D02*
X53723Y-33334D01*
X49740Y-33414D02*
X51982Y-33414D01*
X52246Y-33414D02*
X53723Y-33414D01*
X49757Y-33494D02*
X53723Y-33494D01*
X46415Y-33574D02*
X46471Y-33574D01*
X46472Y-33574D02*
X49109Y-33574D01*
X49763Y-33574D02*
X53723Y-33574D01*
X46471Y-33654D02*
X49183Y-33654D01*
X49763Y-33654D02*
X53723Y-33654D01*
X46447Y-33734D02*
X49183Y-33734D01*
X49763Y-33734D02*
X53723Y-33734D01*
X46408Y-33814D02*
X49183Y-33814D01*
X49763Y-33814D02*
X53723Y-33814D01*
X46371Y-33894D02*
X49183Y-33894D01*
X49813Y-33894D02*
X53723Y-33894D01*
X46371Y-33974D02*
X49184Y-33974D01*
X49893Y-33974D02*
X50066Y-33974D01*
X50516Y-33974D02*
X53723Y-33974D01*
X46371Y-34054D02*
X49200Y-34054D01*
X50596Y-34054D02*
X53723Y-34054D01*
X46371Y-34134D02*
X49243Y-34134D01*
X50643Y-34134D02*
X53723Y-34134D01*
X46371Y-34214D02*
X49311Y-34214D01*
X50676Y-34214D02*
X53723Y-34214D01*
X46371Y-34294D02*
X49391Y-34294D01*
X50677Y-34294D02*
X53723Y-34294D01*
X46371Y-34374D02*
X49471Y-34374D01*
X50676Y-34374D02*
X53723Y-34374D01*
X46371Y-34454D02*
X49551Y-34454D01*
X50642Y-34454D02*
X53723Y-34454D01*
X46371Y-34534D02*
X49647Y-34534D01*
X50597Y-34534D02*
X53723Y-34534D01*
X46371Y-34614D02*
X50064Y-34614D01*
X50517Y-34614D02*
X53723Y-34614D01*
X46371Y-34694D02*
X53723Y-34694D01*
X46371Y-34774D02*
X53723Y-34774D01*
X46371Y-34854D02*
X53723Y-34854D01*
X46371Y-34934D02*
X53723Y-34934D01*
X46371Y-35014D02*
X53711Y-35014D01*
X46371Y-35094D02*
X53658Y-35094D01*
X46371Y-35174D02*
X48307Y-35174D01*
X48504Y-35174D02*
X53625Y-35174D01*
X46371Y-35254D02*
X48157Y-35254D01*
X48654Y-35254D02*
X53622Y-35254D01*
X53623Y-35254D02*
X53653Y-35254D01*
X44288Y-35334D02*
X44340Y-35334D01*
X46371Y-35334D02*
X48078Y-35334D01*
X48733Y-35334D02*
X53623Y-35334D01*
X53623Y-35334D02*
X53664Y-35334D01*
X44288Y-35414D02*
X44465Y-35414D01*
X46371Y-35414D02*
X48045Y-35414D01*
X48767Y-35414D02*
X53623Y-35414D01*
X53623Y-35414D02*
X53629Y-35414D01*
X44288Y-35494D02*
X44465Y-35494D01*
X46371Y-35494D02*
X48019Y-35494D01*
X48791Y-35494D02*
X53622Y-35494D01*
X53623Y-35494D02*
X53633Y-35494D01*
X44288Y-35574D02*
X44465Y-35574D01*
X46371Y-35574D02*
X48019Y-35574D01*
X48843Y-35574D02*
X53667Y-35574D01*
X44288Y-35654D02*
X44495Y-35654D01*
X46371Y-35654D02*
X48029Y-35654D01*
X48897Y-35654D02*
X53623Y-35654D01*
X53623Y-35654D02*
X53644Y-35654D01*
X44288Y-35734D02*
X44528Y-35734D01*
X46357Y-35734D02*
X48063Y-35734D01*
X48919Y-35734D02*
X48953Y-35734D01*
X49124Y-35734D02*
X53627Y-35734D01*
X44288Y-35814D02*
X44607Y-35814D01*
X46312Y-35814D02*
X46430Y-35814D01*
X44288Y-35894D02*
X44740Y-35894D01*
X45039Y-35894D02*
X45255Y-35894D01*
X46187Y-35894D02*
X46318Y-35894D01*
X44288Y-35974D02*
X46278Y-35974D01*
X44288Y-36054D02*
X46268Y-36054D01*
X44288Y-36134D02*
X44653Y-36134D01*
X45127Y-36134D02*
X46268Y-36134D01*
X44288Y-36214D02*
X44571Y-36214D01*
X45209Y-36214D02*
X46268Y-36214D01*
X44288Y-36294D02*
X44514Y-36294D01*
X45267Y-36294D02*
X46268Y-36294D01*
X44288Y-36374D02*
X44481Y-36374D01*
X45300Y-36374D02*
X46268Y-36374D01*
X44288Y-36454D02*
X44465Y-36454D01*
X45315Y-36454D02*
X46268Y-36454D01*
X44288Y-36534D02*
X44465Y-36534D01*
X45315Y-36534D02*
X46268Y-36534D01*
X44288Y-36614D02*
X44478Y-36614D01*
X45301Y-36614D02*
X46268Y-36614D01*
X44288Y-36694D02*
X44511Y-36694D01*
X45267Y-36694D02*
X46268Y-36694D01*
X44288Y-36774D02*
X44567Y-36774D01*
X45213Y-36774D02*
X46268Y-36774D01*
X44288Y-36854D02*
X44647Y-36854D01*
X45133Y-36854D02*
X46268Y-36854D01*
X44288Y-36934D02*
X46283Y-36934D01*
X44288Y-37014D02*
X46332Y-37014D01*
X44288Y-37094D02*
X44752Y-37094D01*
X45013Y-37094D02*
X46462Y-37094D01*
X46719Y-37094D02*
X46719Y-37094D01*
X46974Y-37094D02*
X46974Y-37094D01*
X47229Y-37094D02*
X47229Y-37094D01*
X47484Y-37094D02*
X47484Y-37094D01*
X47739Y-37094D02*
X47743Y-37094D01*
X48509Y-37094D02*
X48509Y-37094D01*
X48880Y-37094D02*
X48904Y-37094D01*
X49279Y-37094D02*
X49279Y-37094D01*
X49534Y-37094D02*
X49534Y-37094D01*
X49789Y-37094D02*
X49789Y-37094D01*
X44288Y-37174D02*
X44607Y-37174D01*
X45157Y-37174D02*
X47795Y-37174D01*
X48474Y-37174D02*
X48693Y-37174D01*
X48816Y-37174D02*
X48967Y-37174D01*
X49090Y-37174D02*
X49794Y-37174D01*
X52389Y-37174D02*
X52413Y-37174D01*
X44288Y-37254D02*
X44527Y-37254D01*
X45237Y-37254D02*
X47761Y-37254D01*
X48508Y-37254D02*
X49782Y-37254D01*
X51480Y-37254D02*
X51514Y-37254D01*
X52389Y-37254D02*
X52413Y-37254D01*
X44288Y-37334D02*
X44491Y-37334D01*
X45274Y-37334D02*
X47748Y-37334D01*
X48520Y-37334D02*
X49782Y-37334D01*
X51480Y-37334D02*
X51536Y-37334D01*
X52389Y-37334D02*
X52413Y-37334D01*
X44288Y-37414D02*
X44458Y-37414D01*
X45307Y-37414D02*
X47748Y-37414D01*
X48520Y-37414D02*
X49782Y-37414D01*
X52389Y-37414D02*
X52413Y-37414D01*
X44288Y-37494D02*
X44457Y-37494D01*
X45307Y-37494D02*
X47770Y-37494D01*
X48496Y-37494D02*
X49814Y-37494D01*
X51446Y-37494D02*
X51492Y-37494D01*
X52389Y-37494D02*
X52413Y-37494D01*
X44288Y-37574D02*
X44457Y-37574D01*
X45307Y-37574D02*
X47804Y-37574D01*
X48463Y-37574D02*
X49847Y-37574D01*
X51413Y-37574D02*
X51519Y-37574D01*
X52389Y-37574D02*
X52413Y-37574D01*
X44288Y-37654D02*
X44485Y-37654D01*
X45278Y-37654D02*
X47880Y-37654D01*
X48387Y-37654D02*
X49906Y-37654D01*
X51356Y-37654D02*
X51546Y-37654D01*
X52389Y-37654D02*
X52413Y-37654D01*
X44288Y-37734D02*
X44518Y-37734D01*
X45244Y-37734D02*
X47419Y-37734D01*
X47660Y-37734D02*
X48023Y-37734D01*
X48244Y-37734D02*
X49986Y-37734D01*
X51276Y-37734D02*
X51614Y-37734D01*
X52389Y-37734D02*
X52413Y-37734D01*
X44288Y-37814D02*
X44595Y-37814D01*
X45169Y-37814D02*
X47282Y-37814D01*
X47797Y-37814D02*
X49849Y-37814D01*
X51122Y-37814D02*
X51692Y-37814D01*
X52389Y-37814D02*
X52413Y-37814D01*
X44288Y-37894D02*
X44722Y-37894D01*
X45041Y-37894D02*
X47208Y-37894D01*
X47871Y-37894D02*
X49753Y-37894D01*
X50326Y-37894D02*
X51827Y-37894D01*
X52389Y-37894D02*
X52413Y-37894D01*
X44288Y-37974D02*
X46271Y-37974D01*
X46944Y-37974D02*
X47175Y-37974D01*
X47904Y-37974D02*
X49696Y-37974D01*
X50383Y-37974D02*
X52944Y-37974D01*
X44288Y-38054D02*
X46062Y-38054D01*
X47122Y-38054D02*
X47153Y-38054D01*
X47925Y-38054D02*
X49663Y-38054D01*
X50416Y-38054D02*
X52944Y-38054D01*
X44333Y-38134D02*
X45967Y-38134D01*
X47925Y-38134D02*
X49653Y-38134D01*
X50425Y-38134D02*
X52944Y-38134D01*
X44413Y-38214D02*
X45164Y-38214D01*
X45348Y-38214D02*
X45936Y-38214D01*
X47910Y-38214D02*
X49653Y-38214D01*
X50425Y-38214D02*
X52944Y-38214D01*
X44493Y-38294D02*
X45005Y-38294D01*
X45502Y-38294D02*
X45879Y-38294D01*
X45903Y-38294D02*
X45937Y-38294D01*
X47876Y-38294D02*
X49679Y-38294D01*
X50398Y-38294D02*
X52944Y-38294D01*
X44573Y-38374D02*
X44931Y-38374D01*
X45582Y-38374D02*
X45718Y-38374D01*
X45983Y-38374D02*
X46017Y-38374D01*
X47812Y-38374D02*
X49241Y-38374D01*
X49452Y-38374D02*
X49714Y-38374D01*
X50363Y-38374D02*
X52971Y-38374D01*
X44653Y-38454D02*
X44897Y-38454D01*
X45616Y-38454D02*
X45682Y-38454D01*
X46063Y-38454D02*
X46097Y-38454D01*
X47697Y-38454D02*
X49095Y-38454D01*
X49598Y-38454D02*
X49794Y-38454D01*
X50283Y-38454D02*
X53036Y-38454D01*
X44733Y-38534D02*
X44870Y-38534D01*
X45642Y-38534D02*
X45646Y-38534D01*
X46143Y-38534D02*
X46177Y-38534D01*
X47562Y-38534D02*
X49018Y-38534D01*
X49676Y-38534D02*
X49950Y-38534D01*
X50128Y-38534D02*
X53062Y-38534D01*
X44813Y-38614D02*
X44870Y-38614D01*
X46223Y-38614D02*
X46257Y-38614D01*
X47593Y-38614D02*
X48984Y-38614D01*
X49709Y-38614D02*
X52980Y-38614D01*
X46303Y-38694D02*
X46337Y-38694D01*
X47623Y-38694D02*
X48960Y-38694D01*
X49732Y-38694D02*
X52947Y-38694D01*
X46383Y-38774D02*
X46417Y-38774D01*
X47654Y-38774D02*
X48960Y-38774D01*
X46463Y-38854D02*
X46497Y-38854D01*
X47660Y-38854D02*
X48972Y-38854D01*
X46543Y-38934D02*
X46577Y-38934D01*
X47658Y-38934D02*
X49005Y-38934D01*
X46546Y-39014D02*
X46547Y-39014D01*
X46623Y-39014D02*
X46657Y-39014D01*
X47655Y-39014D02*
X49066Y-39014D01*
X46466Y-39094D02*
X46467Y-39094D01*
X46703Y-39094D02*
X46737Y-39094D01*
X47653Y-39094D02*
X49173Y-39094D01*
X46386Y-39174D02*
X46387Y-39174D01*
X46783Y-39174D02*
X46817Y-39174D01*
X47651Y-39174D02*
X49361Y-39174D01*
X46306Y-39254D02*
X46307Y-39254D01*
X46863Y-39254D02*
X46897Y-39254D01*
X47632Y-39254D02*
X49441Y-39254D01*
X46226Y-39334D02*
X46227Y-39334D01*
X46943Y-39334D02*
X46977Y-39334D01*
X47596Y-39334D02*
X49039Y-39334D01*
X49246Y-39334D02*
X49565Y-39334D01*
X46146Y-39414D02*
X46147Y-39414D01*
X47023Y-39414D02*
X47057Y-39414D01*
X47560Y-39414D02*
X48892Y-39414D01*
X49393Y-39414D02*
X50012Y-39414D01*
X47103Y-39494D02*
X47137Y-39494D01*
X47524Y-39494D02*
X48814Y-39494D01*
X49471Y-39494D02*
X49932Y-39494D01*
X47183Y-39574D02*
X47217Y-39574D01*
X47488Y-39574D02*
X48781Y-39574D01*
X49504Y-39574D02*
X49860Y-39574D01*
X47263Y-39654D02*
X47297Y-39654D01*
X47335Y-39654D02*
X48756Y-39654D01*
X49528Y-39654D02*
X49826Y-39654D01*
X47270Y-39734D02*
X48756Y-39734D01*
X49528Y-39734D02*
X49793Y-39734D01*
X47238Y-39814D02*
X48767Y-39814D01*
X49516Y-39814D02*
X49782Y-39814D01*
X47153Y-39894D02*
X48800Y-39894D01*
X49482Y-39894D02*
X49782Y-39894D01*
X46944Y-39974D02*
X48861Y-39974D01*
X49422Y-39974D02*
X49782Y-39974D01*
X55021Y-31110D02*
X55021Y-31110D01*
X55021Y-31190D02*
X55092Y-31190D01*
X57866Y-31190D02*
X57890Y-31190D01*
X55021Y-31270D02*
X55540Y-31270D01*
X55792Y-31270D02*
X55800Y-31270D01*
X56115Y-31270D02*
X56123Y-31270D01*
X56375Y-31270D02*
X56820Y-31270D01*
X57843Y-31270D02*
X57913Y-31270D01*
X55021Y-31350D02*
X56992Y-31350D01*
X57764Y-31350D02*
X58065Y-31350D01*
X55021Y-31430D02*
X57004Y-31430D01*
X57751Y-31430D02*
X58081Y-31430D01*
X55021Y-31510D02*
X55504Y-31510D01*
X55802Y-31510D02*
X57037Y-31510D01*
X57717Y-31510D02*
X58120Y-31510D01*
X55021Y-31590D02*
X55384Y-31590D01*
X55923Y-31590D02*
X57099Y-31590D01*
X57656Y-31590D02*
X58181Y-31590D01*
X55021Y-31670D02*
X55317Y-31670D01*
X55990Y-31670D02*
X57207Y-31670D01*
X57548Y-31670D02*
X58228Y-31670D01*
X55021Y-31750D02*
X55284Y-31750D01*
X56023Y-31750D02*
X58262Y-31750D01*
X55021Y-31830D02*
X55267Y-31830D01*
X56039Y-31830D02*
X58335Y-31830D01*
X55021Y-31910D02*
X55267Y-31910D01*
X56039Y-31910D02*
X58472Y-31910D01*
X55021Y-31990D02*
X55286Y-31990D01*
X56019Y-31990D02*
X58465Y-31990D01*
X55021Y-32070D02*
X55319Y-32070D01*
X55985Y-32070D02*
X58468Y-32070D01*
X55021Y-32150D02*
X55391Y-32150D01*
X55914Y-32150D02*
X56279Y-32150D01*
X56644Y-32150D02*
X58484Y-32150D01*
X55925Y-32230D02*
X56178Y-32230D01*
X56745Y-32230D02*
X58518Y-32230D01*
X56029Y-32310D02*
X56111Y-32310D01*
X56804Y-32310D02*
X58572Y-32310D01*
X56837Y-32390D02*
X58644Y-32390D01*
X56847Y-32470D02*
X58724Y-32470D01*
X56847Y-32550D02*
X58804Y-32550D01*
X56821Y-32630D02*
X58884Y-32630D01*
X56788Y-32710D02*
X58964Y-32710D01*
X56708Y-32790D02*
X58985Y-32790D01*
X56557Y-32870D02*
X58985Y-32870D01*
X56413Y-32950D02*
X56673Y-32950D01*
X56775Y-32950D02*
X56941Y-32950D01*
X57044Y-32950D02*
X58985Y-32950D01*
X56413Y-33030D02*
X56539Y-33030D01*
X56846Y-33030D02*
X56870Y-33030D01*
X57177Y-33030D02*
X58985Y-33030D01*
X58906Y-33110D02*
X58985Y-33110D01*
X58959Y-33190D02*
X58985Y-33190D01*
X58977Y-33270D02*
X58985Y-33270D01*
X58977Y-33350D02*
X58985Y-33350D01*
X58977Y-33430D02*
X58985Y-33430D01*
X58977Y-33510D02*
X58985Y-33510D01*
X58977Y-33590D02*
X58985Y-33590D01*
X58977Y-33670D02*
X58985Y-33670D01*
X58977Y-33750D02*
X58985Y-33750D01*
X58977Y-33830D02*
X58985Y-33830D01*
X58945Y-33910D02*
X58985Y-33910D01*
X56846Y-33990D02*
X56870Y-33990D01*
X58874Y-33990D02*
X58936Y-33990D01*
X56823Y-34070D02*
X56893Y-34070D01*
X57145Y-34070D02*
X58858Y-34070D01*
X56628Y-34150D02*
X58834Y-34150D01*
X56628Y-34230D02*
X58830Y-34230D01*
X56617Y-34310D02*
X58830Y-34310D01*
X56590Y-34390D02*
X58830Y-34390D01*
X56534Y-34470D02*
X58830Y-34470D01*
X56430Y-34550D02*
X58830Y-34550D01*
X55705Y-34630D02*
X58830Y-34630D01*
X55674Y-34710D02*
X58830Y-34710D01*
X55633Y-34790D02*
X58830Y-34790D01*
X55021Y-34870D02*
X55084Y-34870D01*
X55553Y-34870D02*
X58830Y-34870D01*
X55021Y-34950D02*
X58830Y-34950D01*
X55049Y-35030D02*
X58830Y-35030D01*
X55094Y-35110D02*
X58830Y-35110D01*
X55121Y-35190D02*
X58830Y-35190D01*
X55074Y-35270D02*
X55121Y-35270D01*
X55121Y-35270D02*
X58830Y-35270D01*
X55087Y-35350D02*
X55121Y-35350D01*
X55122Y-35350D02*
X58830Y-35350D01*
X55121Y-35430D02*
X58830Y-35430D01*
X55102Y-35510D02*
X55121Y-35510D01*
X55121Y-35510D02*
X58830Y-35510D01*
X55070Y-35590D02*
X55121Y-35590D01*
X55122Y-35590D02*
X58830Y-35590D01*
X55116Y-35670D02*
X55121Y-35670D01*
X55122Y-35670D02*
X58830Y-35670D01*
X55109Y-35750D02*
X58830Y-35750D01*
X55076Y-35830D02*
X58830Y-35830D01*
X55007Y-35910D02*
X58830Y-35910D01*
X53823Y-35990D02*
X53876Y-35990D01*
X54867Y-35990D02*
X58830Y-35990D01*
X53826Y-36070D02*
X54161Y-36070D01*
X54762Y-36070D02*
X58830Y-36070D01*
X53826Y-36150D02*
X54112Y-36150D01*
X54811Y-36150D02*
X58830Y-36150D01*
X53826Y-36230D02*
X54079Y-36230D01*
X54844Y-36230D02*
X58830Y-36230D01*
X53826Y-36310D02*
X54075Y-36310D01*
X54847Y-36310D02*
X58098Y-36310D01*
X58343Y-36310D02*
X58830Y-36310D01*
X53826Y-36390D02*
X54075Y-36390D01*
X54847Y-36390D02*
X56175Y-36390D01*
X56329Y-36390D02*
X57962Y-36390D01*
X58486Y-36390D02*
X58830Y-36390D01*
X53827Y-36470D02*
X54107Y-36470D01*
X54814Y-36470D02*
X56013Y-36470D01*
X56492Y-36470D02*
X57889Y-36470D01*
X58588Y-36470D02*
X58830Y-36470D01*
X53827Y-36550D02*
X54150Y-36550D01*
X54771Y-36550D02*
X55933Y-36550D01*
X56572Y-36550D02*
X57855Y-36550D01*
X58641Y-36550D02*
X58830Y-36550D01*
X53827Y-36630D02*
X54230Y-36630D01*
X54691Y-36630D02*
X55895Y-36630D01*
X56610Y-36630D02*
X57834Y-36630D01*
X58658Y-36630D02*
X58830Y-36630D01*
X53827Y-36710D02*
X55866Y-36710D01*
X56638Y-36710D02*
X57834Y-36710D01*
X58660Y-36710D02*
X58830Y-36710D01*
X53827Y-36790D02*
X55866Y-36790D01*
X56638Y-36790D02*
X57848Y-36790D01*
X58644Y-36790D02*
X58830Y-36790D01*
X53827Y-36870D02*
X55873Y-36870D01*
X56630Y-36870D02*
X57882Y-36870D01*
X58596Y-36870D02*
X58830Y-36870D01*
X53827Y-36950D02*
X55906Y-36950D01*
X56597Y-36950D02*
X57947Y-36950D01*
X58506Y-36950D02*
X58830Y-36950D01*
X53827Y-37030D02*
X55960Y-37030D01*
X56543Y-37030D02*
X58065Y-37030D01*
X58376Y-37030D02*
X58830Y-37030D01*
X53827Y-37110D02*
X56052Y-37110D01*
X53829Y-37190D02*
X55972Y-37190D01*
X53862Y-37270D02*
X55892Y-37270D01*
X53886Y-37350D02*
X55812Y-37350D01*
X54052Y-37430D02*
X55732Y-37430D01*
X54121Y-37510D02*
X55652Y-37510D01*
X54150Y-37590D02*
X55572Y-37590D01*
X54150Y-37670D02*
X55492Y-37670D01*
X54150Y-37750D02*
X55412Y-37750D01*
X54150Y-37830D02*
X55332Y-37830D01*
X54150Y-37910D02*
X55252Y-37910D01*
X54150Y-37990D02*
X55172Y-37990D01*
X54150Y-38070D02*
X54262Y-38070D01*
X54660Y-38070D02*
X55092Y-38070D01*
X54150Y-38150D02*
X54170Y-38150D01*
X54752Y-38150D02*
X55012Y-38150D01*
X54807Y-38230D02*
X54932Y-38230D01*
X54840Y-38310D02*
X54852Y-38310D01*
X54360Y-35565D02*
X54384Y-35565D01*
X49021Y-28443D02*
X49021Y-28443D01*
X46684Y-28523D02*
X47582Y-28523D01*
X48303Y-28523D02*
X48658Y-28523D01*
X49018Y-28523D02*
X49976Y-28523D01*
X50102Y-28523D02*
X50142Y-28523D01*
X46684Y-28603D02*
X47571Y-28603D01*
X48336Y-28603D02*
X48556Y-28603D01*
X49121Y-28603D02*
X50142Y-28603D01*
X46684Y-28683D02*
X47567Y-28683D01*
X48339Y-28683D02*
X48497Y-28683D01*
X49180Y-28683D02*
X50145Y-28683D01*
X46684Y-28763D02*
X47567Y-28763D01*
X48339Y-28763D02*
X48463Y-28763D01*
X49214Y-28763D02*
X50161Y-28763D01*
X46684Y-28843D02*
X46816Y-28843D01*
X47066Y-28843D02*
X47598Y-28843D01*
X48306Y-28843D02*
X48452Y-28843D01*
X49224Y-28843D02*
X50209Y-28843D01*
X47201Y-28923D02*
X47641Y-28923D01*
X48264Y-28923D02*
X48452Y-28923D01*
X49224Y-28923D02*
X50281Y-28923D01*
X47274Y-29003D02*
X47721Y-29003D01*
X48184Y-29003D02*
X48476Y-29003D01*
X49198Y-29003D02*
X50300Y-29003D01*
X47307Y-29083D02*
X48510Y-29083D01*
X49165Y-29083D02*
X50333Y-29083D01*
X47327Y-29163D02*
X48548Y-29163D01*
X49128Y-29163D02*
X50385Y-29163D01*
X47327Y-29243D02*
X48548Y-29243D01*
X49128Y-29243D02*
X50470Y-29243D01*
X50892Y-29243D02*
X50934Y-29243D01*
X47311Y-29323D02*
X48548Y-29323D01*
X49128Y-29323D02*
X50934Y-29323D01*
X47278Y-29403D02*
X48548Y-29403D01*
X49128Y-29403D02*
X50934Y-29403D01*
X47212Y-29483D02*
X48548Y-29483D01*
X49128Y-29483D02*
X49271Y-29483D01*
X46684Y-29563D02*
X46787Y-29563D01*
X47095Y-29563D02*
X48548Y-29563D01*
X49128Y-29563D02*
X49165Y-29563D01*
X46684Y-29643D02*
X48548Y-29643D01*
X46684Y-29723D02*
X48548Y-29723D01*
X46684Y-29803D02*
X48548Y-29803D01*
X46684Y-29883D02*
X48548Y-29883D01*
X46684Y-29963D02*
X48548Y-29963D01*
X46684Y-30043D02*
X48548Y-30043D01*
X46684Y-30123D02*
X48548Y-30123D01*
X46684Y-30203D02*
X48548Y-30203D01*
X46684Y-30283D02*
X48548Y-30283D01*
X46678Y-30363D02*
X48548Y-30363D01*
X46662Y-30443D02*
X48548Y-30443D01*
X46609Y-30523D02*
X48548Y-30523D01*
X46535Y-30603D02*
X48548Y-30603D01*
X46444Y-30683D02*
X48548Y-30683D01*
X46371Y-30763D02*
X48548Y-30763D01*
X46371Y-30843D02*
X48548Y-30843D01*
X46371Y-30923D02*
X48548Y-30923D01*
X46371Y-31003D02*
X48548Y-31003D01*
X46371Y-31083D02*
X48548Y-31083D01*
X46372Y-31163D02*
X46545Y-31163D01*
X46786Y-31163D02*
X48548Y-31163D01*
X46923Y-31243D02*
X48548Y-31243D01*
X46997Y-31323D02*
X48548Y-31323D01*
X47030Y-31403D02*
X48548Y-31403D01*
X47051Y-31483D02*
X48548Y-31483D01*
X47051Y-31563D02*
X48548Y-31563D01*
X47036Y-31643D02*
X48548Y-31643D01*
X58220Y-27126D02*
X58816Y-27126D01*
X58304Y-27206D02*
X58830Y-27206D01*
X58463Y-27286D02*
X58830Y-27286D01*
X58550Y-27366D02*
X58830Y-27366D01*
X58603Y-27446D02*
X58830Y-27446D01*
X58636Y-27526D02*
X58830Y-27526D01*
X58642Y-27606D02*
X58830Y-27606D01*
X58642Y-27686D02*
X58830Y-27686D01*
X58612Y-27766D02*
X58830Y-27766D01*
X58573Y-27846D02*
X58830Y-27846D01*
X58493Y-27926D02*
X58830Y-27926D01*
X58225Y-28006D02*
X58830Y-28006D01*
X58145Y-28086D02*
X58830Y-28086D01*
X58065Y-28166D02*
X58830Y-28166D01*
X57985Y-28246D02*
X58830Y-28246D01*
X57908Y-28326D02*
X58830Y-28326D01*
X57908Y-28406D02*
X58830Y-28406D01*
X57908Y-28486D02*
X58830Y-28486D01*
X57908Y-28566D02*
X58830Y-28566D01*
X57908Y-28646D02*
X58830Y-28646D01*
X57908Y-28726D02*
X58830Y-28726D01*
X57908Y-28806D02*
X58830Y-28806D01*
X57908Y-28886D02*
X58830Y-28886D01*
X57908Y-28966D02*
X58830Y-28966D01*
X57908Y-29046D02*
X58830Y-29046D01*
X57908Y-29126D02*
X58830Y-29126D01*
X57908Y-29206D02*
X58830Y-29206D01*
X57908Y-29286D02*
X58830Y-29286D01*
X57908Y-29366D02*
X58137Y-29366D01*
X58478Y-29366D02*
X58830Y-29366D01*
X57908Y-29446D02*
X58029Y-29446D01*
X58586Y-29446D02*
X58830Y-29446D01*
X57908Y-29526D02*
X57968Y-29526D01*
X58648Y-29526D02*
X58830Y-29526D01*
X57908Y-29606D02*
X57934Y-29606D01*
X58681Y-29606D02*
X58830Y-29606D01*
X57908Y-29686D02*
X57921Y-29686D01*
X58693Y-29686D02*
X58830Y-29686D01*
X57908Y-29766D02*
X57921Y-29766D01*
X57908Y-29846D02*
X57944Y-29846D01*
X57908Y-29926D02*
X57977Y-29926D01*
X57908Y-30006D02*
X57966Y-30006D01*
X57894Y-30086D02*
X57905Y-30086D01*
X49809Y-40039D02*
X49782Y-39972D01*
X49782Y-39759D01*
X49864Y-39562D01*
X50015Y-39411D01*
X50156Y-39353D01*
X49661Y-39353D01*
X49550Y-39331D01*
X49455Y-39267D01*
X49321Y-39134D01*
X49269Y-39134D01*
X49128Y-39075D01*
X49019Y-38967D01*
X48960Y-38825D01*
X48960Y-38671D01*
X48991Y-38596D01*
X48991Y-37197D01*
X48898Y-37196D01*
X48989Y-37196D01*
X48991Y-37197D01*
X48991Y-38596D01*
X49019Y-38530D01*
X49127Y-38421D01*
X49269Y-38362D01*
X49423Y-38362D01*
X49564Y-38421D01*
X49673Y-38529D01*
X49732Y-38671D01*
X49732Y-38724D01*
X49781Y-38773D01*
X52944Y-38773D01*
X52944Y-38699D01*
X52982Y-38608D01*
X53052Y-38538D01*
X53133Y-38504D01*
X53052Y-38470D01*
X52982Y-38400D01*
X52944Y-38308D01*
X52944Y-37907D01*
X52834Y-37954D01*
X52413Y-37954D01*
X52413Y-37320D01*
X52931Y-37320D01*
X52927Y-37296D01*
X52413Y-37296D01*
X52413Y-37096D01*
X52389Y-37096D01*
X52389Y-37296D01*
X51546Y-37296D01*
X51480Y-37209D01*
X51480Y-37406D01*
X51546Y-37320D01*
X52389Y-37320D01*
X52389Y-37954D01*
X51968Y-37954D01*
X51731Y-37853D01*
X51551Y-37669D01*
X51472Y-37432D01*
X51398Y-37612D01*
X51247Y-37763D01*
X51050Y-37844D01*
X50275Y-37844D01*
X50366Y-37934D01*
X50425Y-38076D01*
X50425Y-38230D01*
X50366Y-38371D01*
X50258Y-38480D01*
X50116Y-38539D01*
X49962Y-38539D01*
X49821Y-38480D01*
X49712Y-38372D01*
X49653Y-38230D01*
X49653Y-38076D01*
X49712Y-37935D01*
X49820Y-37826D01*
X49962Y-37767D01*
X50026Y-37767D01*
X50014Y-37762D01*
X49863Y-37611D01*
X49782Y-37414D01*
X49782Y-37201D01*
X49825Y-37096D01*
X49792Y-37096D01*
X49789Y-37094D01*
X49786Y-37096D01*
X49537Y-37096D01*
X49534Y-37094D01*
X49531Y-37096D01*
X49282Y-37096D01*
X49279Y-37094D01*
X49276Y-37096D01*
X49211Y-37096D01*
X49165Y-37143D01*
X49037Y-37196D01*
X48989Y-37196D01*
X48904Y-37110D01*
X48904Y-37026D01*
X48894Y-37016D01*
X48880Y-37030D01*
X48880Y-37110D01*
X48794Y-37196D01*
X48886Y-37196D01*
X48793Y-37197D01*
X48794Y-37196D01*
X48747Y-37196D01*
X48619Y-37143D01*
X48572Y-37096D01*
X48512Y-37096D01*
X48509Y-37094D01*
X48506Y-37096D01*
X48417Y-37096D01*
X48417Y-37099D01*
X48461Y-37143D01*
X48520Y-37285D01*
X48520Y-37439D01*
X48461Y-37580D01*
X48353Y-37689D01*
X48211Y-37748D01*
X48057Y-37748D01*
X47916Y-37689D01*
X47807Y-37581D01*
X47748Y-37439D01*
X47748Y-37285D01*
X47807Y-37144D01*
X47837Y-37113D01*
X47837Y-37096D01*
X47747Y-37096D01*
X47741Y-37093D01*
X47736Y-37096D01*
X47487Y-37096D01*
X47484Y-37094D01*
X47481Y-37096D01*
X47232Y-37096D01*
X47229Y-37094D01*
X47226Y-37096D01*
X46977Y-37096D01*
X46974Y-37094D01*
X46971Y-37096D01*
X46722Y-37096D01*
X46719Y-37094D01*
X46716Y-37096D01*
X46467Y-37096D01*
X46376Y-37058D01*
X46306Y-36988D01*
X46268Y-36896D01*
X46268Y-35997D01*
X46306Y-35906D01*
X46376Y-35836D01*
X46468Y-35798D01*
X46472Y-35798D01*
X46472Y-33631D01*
X46471Y-33630D01*
X46471Y-33567D01*
X46472Y-33631D01*
X46472Y-35798D01*
X46717Y-35798D01*
X46719Y-35799D01*
X46723Y-35798D01*
X46972Y-35798D01*
X46974Y-35799D01*
X46978Y-35798D01*
X47227Y-35798D01*
X47229Y-35799D01*
X47233Y-35798D01*
X47482Y-35798D01*
X47484Y-35799D01*
X47488Y-35798D01*
X47737Y-35798D01*
X47742Y-35800D01*
X47748Y-35798D01*
X47997Y-35798D01*
X47999Y-35799D01*
X48003Y-35798D01*
X48106Y-35798D01*
X48078Y-35770D01*
X48019Y-35628D01*
X48019Y-35474D01*
X48078Y-35333D01*
X48186Y-35224D01*
X48328Y-35165D01*
X48482Y-35165D01*
X48623Y-35224D01*
X48732Y-35332D01*
X48791Y-35474D01*
X48791Y-35522D01*
X48842Y-35573D01*
X48905Y-35667D01*
X48911Y-35697D01*
X48991Y-35697D01*
X48989Y-35698D01*
X48911Y-35698D01*
X48924Y-35763D01*
X48989Y-35698D01*
X49037Y-35698D01*
X49165Y-35751D01*
X49211Y-35798D01*
X49277Y-35798D01*
X49279Y-35799D01*
X49283Y-35798D01*
X49532Y-35798D01*
X49534Y-35799D01*
X49538Y-35798D01*
X49787Y-35798D01*
X49789Y-35799D01*
X49793Y-35798D01*
X50042Y-35798D01*
X50047Y-35800D01*
X50053Y-35798D01*
X50302Y-35798D01*
X50304Y-35799D01*
X50308Y-35798D01*
X50557Y-35798D01*
X50559Y-35799D01*
X50563Y-35798D01*
X50812Y-35798D01*
X50814Y-35799D01*
X50818Y-35798D01*
X51067Y-35798D01*
X51072Y-35800D01*
X51078Y-35798D01*
X51327Y-35798D01*
X51329Y-35799D01*
X51333Y-35798D01*
X51582Y-35798D01*
X51584Y-35799D01*
X51588Y-35798D01*
X51837Y-35798D01*
X51839Y-35799D01*
X51843Y-35798D01*
X52037Y-35798D01*
X52037Y-33437D01*
X51896Y-33378D01*
X51787Y-33270D01*
X51728Y-33128D01*
X51728Y-32974D01*
X51787Y-32833D01*
X51895Y-32724D01*
X52037Y-32665D01*
X52191Y-32665D01*
X52332Y-32724D01*
X52441Y-32832D01*
X52500Y-32974D01*
X52500Y-33128D01*
X52441Y-33269D01*
X52333Y-33378D01*
X52191Y-33437D01*
X52037Y-33437D01*
X52037Y-35798D01*
X52092Y-35798D01*
X52094Y-35799D01*
X52098Y-35798D01*
X52347Y-35798D01*
X52352Y-35800D01*
X52358Y-35798D01*
X52607Y-35798D01*
X52609Y-35799D01*
X52613Y-35798D01*
X52862Y-35798D01*
X52864Y-35799D01*
X52868Y-35798D01*
X53117Y-35798D01*
X53119Y-35799D01*
X53123Y-35798D01*
X53372Y-35798D01*
X53374Y-35799D01*
X53378Y-35798D01*
X53622Y-35798D01*
X53622Y-35676D01*
X53623Y-35583D01*
X53623Y-35675D01*
X53622Y-35676D01*
X53622Y-35798D01*
X53627Y-35798D01*
X53660Y-35811D01*
X53623Y-35722D01*
X53623Y-35675D01*
X53623Y-35571D01*
X53622Y-35478D01*
X53622Y-35421D01*
X53623Y-35328D01*
X53623Y-35420D01*
X53622Y-35421D01*
X53622Y-35478D01*
X53623Y-35479D01*
X53623Y-35571D01*
X53623Y-35675D01*
X53689Y-35608D01*
X53676Y-35595D01*
X53631Y-35487D01*
X53623Y-35479D01*
X53623Y-35420D01*
X53623Y-35316D01*
X53622Y-35223D01*
X53623Y-35224D01*
X53623Y-35316D01*
X53623Y-35420D01*
X53631Y-35411D01*
X53676Y-35304D01*
X53689Y-35290D01*
X53623Y-35224D01*
X53623Y-35177D01*
X53676Y-35049D01*
X53723Y-35002D01*
X53723Y-34942D01*
X53724Y-34939D01*
X53723Y-34936D01*
X53723Y-34687D01*
X53724Y-34684D01*
X53723Y-34681D01*
X53723Y-34432D01*
X53725Y-34426D01*
X53723Y-34421D01*
X53723Y-34172D01*
X53724Y-34169D01*
X53723Y-34166D01*
X53723Y-33917D01*
X53724Y-33914D01*
X53723Y-33911D01*
X53723Y-33662D01*
X53724Y-33659D01*
X53723Y-33656D01*
X53723Y-33407D01*
X53724Y-33404D01*
X53723Y-33401D01*
X53723Y-33152D01*
X53725Y-33146D01*
X53723Y-33141D01*
X53723Y-32892D01*
X53724Y-32889D01*
X53723Y-32886D01*
X53723Y-32637D01*
X53724Y-32634D01*
X53723Y-32631D01*
X53723Y-32382D01*
X53724Y-32379D01*
X53723Y-32376D01*
X53723Y-32127D01*
X53725Y-32121D01*
X53723Y-32116D01*
X53723Y-31867D01*
X53724Y-31864D01*
X53723Y-31861D01*
X53723Y-31612D01*
X53724Y-31609D01*
X53723Y-31606D01*
X53723Y-31357D01*
X53724Y-31354D01*
X53723Y-31351D01*
X53723Y-31102D01*
X53725Y-31096D01*
X53723Y-31091D01*
X53723Y-30842D01*
X53724Y-30839D01*
X53723Y-30836D01*
X53723Y-30587D01*
X53724Y-30584D01*
X53723Y-30581D01*
X53723Y-30521D01*
X53676Y-30475D01*
X53623Y-30347D01*
X53623Y-30300D01*
X53651Y-30272D01*
X53623Y-30272D01*
X53623Y-30300D01*
X53622Y-30301D01*
X53622Y-30272D01*
X53557Y-30272D01*
X53556Y-30271D01*
X53556Y-30272D01*
X53531Y-30266D01*
X53433Y-30247D01*
X53327Y-30177D01*
X53325Y-30174D01*
X53219Y-30069D01*
X53149Y-29963D01*
X53131Y-29873D01*
X53122Y-29865D01*
X53063Y-29723D01*
X53063Y-29569D01*
X53122Y-29428D01*
X53230Y-29319D01*
X53372Y-29260D01*
X53526Y-29260D01*
X53667Y-29319D01*
X53723Y-29374D01*
X53723Y-29307D01*
X53724Y-29304D01*
X53723Y-29301D01*
X53723Y-29052D01*
X53724Y-29049D01*
X53723Y-29046D01*
X53723Y-28797D01*
X53724Y-28794D01*
X53723Y-28791D01*
X53723Y-28542D01*
X53761Y-28451D01*
X53831Y-28381D01*
X53923Y-28343D01*
X54813Y-28343D01*
X54813Y-28001D01*
X54632Y-27820D01*
X54565Y-27792D01*
X54456Y-27684D01*
X54397Y-27542D01*
X54397Y-27388D01*
X54456Y-27247D01*
X54564Y-27138D01*
X54706Y-27079D01*
X54708Y-27079D01*
X54727Y-27061D01*
X54832Y-26991D01*
X54957Y-26966D01*
X55026Y-26966D01*
X55015Y-26955D01*
X54956Y-26813D01*
X54956Y-26659D01*
X55015Y-26518D01*
X55048Y-26484D01*
X55073Y-26447D01*
X55108Y-26423D01*
X55123Y-26409D01*
X55143Y-26400D01*
X55179Y-26377D01*
X55219Y-26368D01*
X55265Y-26350D01*
X55340Y-26350D01*
X53250Y-24260D01*
X53250Y-24466D01*
X53168Y-24663D01*
X53017Y-24814D01*
X52820Y-24895D01*
X51981Y-24895D01*
X51784Y-24813D01*
X51633Y-24662D01*
X51552Y-24465D01*
X51552Y-24252D01*
X51601Y-24134D01*
X51431Y-24134D01*
X51480Y-24253D01*
X51480Y-24466D01*
X51398Y-24663D01*
X51247Y-24814D01*
X51050Y-24895D01*
X50211Y-24895D01*
X50014Y-24813D01*
X49863Y-24662D01*
X49782Y-24465D01*
X49782Y-24252D01*
X49831Y-24134D01*
X49739Y-24134D01*
X49776Y-24222D01*
X49776Y-24376D01*
X49717Y-24517D01*
X49609Y-24626D01*
X49467Y-24685D01*
X49313Y-24685D01*
X49172Y-24626D01*
X49157Y-24612D01*
X49155Y-24758D01*
X49053Y-24990D01*
X48927Y-25007D01*
X48538Y-24618D01*
X48927Y-24229D01*
X49004Y-24239D01*
X49004Y-24222D01*
X49040Y-24134D01*
X48899Y-24134D01*
X48910Y-24212D01*
X48521Y-24601D01*
X48132Y-24212D01*
X48142Y-24134D01*
X47939Y-24134D01*
X47982Y-24177D01*
X48009Y-24243D01*
X48115Y-24229D01*
X48504Y-24618D01*
X48115Y-25007D01*
X48009Y-24992D01*
X47982Y-25059D01*
X47912Y-25129D01*
X47838Y-25159D01*
X47986Y-25307D01*
X47996Y-25331D01*
X48006Y-25307D01*
X48158Y-25154D01*
X48149Y-25150D01*
X48132Y-25024D01*
X48521Y-24635D01*
X48910Y-25024D01*
X48893Y-25150D01*
X48870Y-25165D01*
X48815Y-25186D01*
X48936Y-25307D01*
X49020Y-25509D01*
X49020Y-25727D01*
X48936Y-25929D01*
X48782Y-26083D01*
X48722Y-26107D01*
X48832Y-26153D01*
X48986Y-26307D01*
X49070Y-26509D01*
X49070Y-26727D01*
X48986Y-26929D01*
X48832Y-27083D01*
X48675Y-27148D01*
X48762Y-27148D01*
X48764Y-27149D01*
X48768Y-27148D01*
X49017Y-27148D01*
X49022Y-27150D01*
X49028Y-27148D01*
X49277Y-27148D01*
X49279Y-27149D01*
X49283Y-27148D01*
X49532Y-27148D01*
X49534Y-27149D01*
X49538Y-27148D01*
X49787Y-27148D01*
X49789Y-27149D01*
X49793Y-27148D01*
X49833Y-27148D01*
X49782Y-27023D01*
X49782Y-26810D01*
X49864Y-26613D01*
X50015Y-26462D01*
X50212Y-26381D01*
X51051Y-26381D01*
X51118Y-26408D01*
X51118Y-26317D01*
X51177Y-26176D01*
X51285Y-26067D01*
X51427Y-26008D01*
X51581Y-26008D01*
X51722Y-26067D01*
X51831Y-26175D01*
X51885Y-26306D01*
X51968Y-26271D01*
X52389Y-26271D01*
X52389Y-26905D01*
X52389Y-26929D01*
X52413Y-26929D01*
X52413Y-26905D01*
X52413Y-26271D01*
X52834Y-26271D01*
X53071Y-26372D01*
X53251Y-26556D01*
X53281Y-26646D01*
X53281Y-25500D01*
X53140Y-25441D01*
X53031Y-25333D01*
X52972Y-25191D01*
X52972Y-25037D01*
X53031Y-24896D01*
X53139Y-24787D01*
X53281Y-24728D01*
X53435Y-24728D01*
X53576Y-24787D01*
X53685Y-24895D01*
X53744Y-25037D01*
X53744Y-25191D01*
X53685Y-25332D01*
X53577Y-25441D01*
X53435Y-25500D01*
X53281Y-25500D01*
X53281Y-26646D01*
X53333Y-26804D01*
X53281Y-26872D01*
X53256Y-26905D01*
X52413Y-26905D01*
X52413Y-26929D01*
X53256Y-26929D01*
X53281Y-26961D01*
X53333Y-27030D01*
X53293Y-27148D01*
X53372Y-27148D01*
X53374Y-27149D01*
X53378Y-27148D01*
X53627Y-27148D01*
X53718Y-27186D01*
X53788Y-27256D01*
X53826Y-27348D01*
X53826Y-28247D01*
X53788Y-28338D01*
X53718Y-28408D01*
X53626Y-28446D01*
X53377Y-28446D01*
X53374Y-28444D01*
X53371Y-28446D01*
X53122Y-28446D01*
X53119Y-28444D01*
X53116Y-28446D01*
X53113Y-28446D01*
X53177Y-28509D01*
X53236Y-28651D01*
X53236Y-28805D01*
X53177Y-28946D01*
X53069Y-29055D01*
X52927Y-29114D01*
X52773Y-29114D01*
X52632Y-29055D01*
X52523Y-28947D01*
X52464Y-28805D01*
X52464Y-28651D01*
X52490Y-28587D01*
X52491Y-28585D01*
X52492Y-28582D01*
X52523Y-28510D01*
X52586Y-28446D01*
X52357Y-28446D01*
X52351Y-28443D01*
X52346Y-28446D01*
X52169Y-28446D01*
X52189Y-28475D01*
X52211Y-28586D01*
X52211Y-30042D01*
X52234Y-30019D01*
X52376Y-29960D01*
X52530Y-29960D01*
X52671Y-30019D01*
X52780Y-30127D01*
X52839Y-30269D01*
X52839Y-30423D01*
X52780Y-30564D01*
X52672Y-30673D01*
X52530Y-30732D01*
X52376Y-30732D01*
X52235Y-30673D01*
X52126Y-30565D01*
X52075Y-30444D01*
X51642Y-30878D01*
X51548Y-30941D01*
X51437Y-30963D01*
X50456Y-30963D01*
X50416Y-31004D01*
X50274Y-31063D01*
X50120Y-31063D01*
X49979Y-31004D01*
X49870Y-30896D01*
X49863Y-30879D01*
X49774Y-30969D01*
X49632Y-31028D01*
X49478Y-31028D01*
X49337Y-30969D01*
X49228Y-30861D01*
X49169Y-30719D01*
X49169Y-30565D01*
X49200Y-30489D01*
X49142Y-30432D01*
X49128Y-30398D01*
X49128Y-31815D01*
X49106Y-31926D01*
X49043Y-32020D01*
X48866Y-32197D01*
X48772Y-32260D01*
X48661Y-32282D01*
X46984Y-32282D01*
X46984Y-32360D01*
X46925Y-32501D01*
X46817Y-32610D01*
X46675Y-32669D01*
X46521Y-32669D01*
X46471Y-32648D01*
X46471Y-32664D01*
X46472Y-32663D01*
X46471Y-32727D01*
X46471Y-32664D01*
X46408Y-32727D01*
X46471Y-32727D01*
X49090Y-32727D01*
X49190Y-32628D01*
X49190Y-32197D01*
X49212Y-32086D01*
X49275Y-31992D01*
X49585Y-31682D01*
X49585Y-31681D01*
X49586Y-31681D01*
X49680Y-31618D01*
X49791Y-31596D01*
X50118Y-31596D01*
X50155Y-31559D01*
X50297Y-31500D01*
X50451Y-31500D01*
X50592Y-31559D01*
X50701Y-31667D01*
X50760Y-31809D01*
X50760Y-31963D01*
X50701Y-32104D01*
X50593Y-32213D01*
X50451Y-32272D01*
X50297Y-32272D01*
X50156Y-32213D01*
X50118Y-32176D01*
X49910Y-32176D01*
X49770Y-32317D01*
X49770Y-32748D01*
X49748Y-32859D01*
X49685Y-32953D01*
X49496Y-33140D01*
X49678Y-33322D01*
X49741Y-33416D01*
X49763Y-33527D01*
X49763Y-33844D01*
X49923Y-34005D01*
X50035Y-34005D01*
X50072Y-33968D01*
X50214Y-33909D01*
X50368Y-33909D01*
X50509Y-33968D01*
X50618Y-34076D01*
X50677Y-34218D01*
X50677Y-34372D01*
X50618Y-34513D01*
X50510Y-34622D01*
X50368Y-34681D01*
X50214Y-34681D01*
X50073Y-34622D01*
X50035Y-34585D01*
X49803Y-34585D01*
X49709Y-34566D01*
X49691Y-34563D01*
X49597Y-34500D01*
X49268Y-34170D01*
X49205Y-34076D01*
X49183Y-33965D01*
X49183Y-33647D01*
X49102Y-33567D01*
X46471Y-33567D01*
X46407Y-33567D01*
X46471Y-33630D01*
X46471Y-33677D01*
X46418Y-33805D01*
X46371Y-33851D01*
X46371Y-33912D01*
X46369Y-33914D01*
X46371Y-33918D01*
X46371Y-34167D01*
X46369Y-34169D01*
X46371Y-34173D01*
X46371Y-34422D01*
X46368Y-34427D01*
X46371Y-34433D01*
X46371Y-34682D01*
X46369Y-34684D01*
X46371Y-34688D01*
X46371Y-34937D01*
X46369Y-34939D01*
X46371Y-34943D01*
X46371Y-35192D01*
X46369Y-35194D01*
X46371Y-35198D01*
X46371Y-35447D01*
X46369Y-35449D01*
X46371Y-35453D01*
X46371Y-35702D01*
X46333Y-35793D01*
X46263Y-35863D01*
X46171Y-35901D01*
X45272Y-35901D01*
X45181Y-35863D01*
X45152Y-35834D01*
X45130Y-35857D01*
X44974Y-35921D01*
X44805Y-35921D01*
X44649Y-35856D01*
X44529Y-35736D01*
X44465Y-35580D01*
X44465Y-35411D01*
X44485Y-35362D01*
X44407Y-35362D01*
X44288Y-35312D01*
X44288Y-38089D01*
X44797Y-38598D01*
X44797Y-37925D01*
X44641Y-37860D01*
X44521Y-37740D01*
X44457Y-37584D01*
X44457Y-37415D01*
X44522Y-37259D01*
X44642Y-37139D01*
X44798Y-37075D01*
X44805Y-37075D01*
X44805Y-36921D01*
X44649Y-36856D01*
X44529Y-36736D01*
X44465Y-36580D01*
X44465Y-36411D01*
X44530Y-36255D01*
X44650Y-36135D01*
X44806Y-36071D01*
X44975Y-36071D01*
X45131Y-36136D01*
X45251Y-36256D01*
X45315Y-36412D01*
X45315Y-36581D01*
X45250Y-36737D01*
X45130Y-36857D01*
X44974Y-36921D01*
X44805Y-36921D01*
X44805Y-37075D01*
X44967Y-37075D01*
X45123Y-37140D01*
X45243Y-37260D01*
X45307Y-37416D01*
X45307Y-37585D01*
X45242Y-37741D01*
X45122Y-37861D01*
X44966Y-37925D01*
X44797Y-37925D01*
X44797Y-38598D01*
X44870Y-38671D01*
X44870Y-38517D01*
X44929Y-38376D01*
X44958Y-38346D01*
X44983Y-38309D01*
X45018Y-38285D01*
X45037Y-38267D01*
X45062Y-38256D01*
X45089Y-38239D01*
X45118Y-38232D01*
X45179Y-38208D01*
X45333Y-38208D01*
X45474Y-38267D01*
X45583Y-38375D01*
X45642Y-38517D01*
X45642Y-38541D01*
X45726Y-38354D01*
X45896Y-38287D01*
X46585Y-38976D01*
X46080Y-39480D01*
X46080Y-39480D01*
X46585Y-38976D01*
X46602Y-38993D01*
X47291Y-39682D01*
X47224Y-39852D01*
X47174Y-39886D01*
X46782Y-40036D01*
X46384Y-40024D01*
X46382Y-40036D01*
X46379Y-40038D01*
X47308Y-40038D01*
X47308Y-39665D01*
X46619Y-38976D01*
X46602Y-38959D01*
X45913Y-38270D01*
X45980Y-38100D01*
X46030Y-38066D01*
X46422Y-37916D01*
X46841Y-37928D01*
X47153Y-38068D01*
X47153Y-38025D01*
X47212Y-37884D01*
X47320Y-37775D01*
X47462Y-37716D01*
X47616Y-37716D01*
X47757Y-37775D01*
X47866Y-37883D01*
X47925Y-38025D01*
X47925Y-38179D01*
X47866Y-38320D01*
X47758Y-38429D01*
X47616Y-38488D01*
X47544Y-38488D01*
X47662Y-38796D01*
X47650Y-39215D01*
X47478Y-39598D01*
X47462Y-39604D01*
X47308Y-39665D01*
X47308Y-40038D01*
X47462Y-40038D01*
X47543Y-40039D01*
X48931Y-40039D01*
X48924Y-40036D01*
X48815Y-39928D01*
X48756Y-39786D01*
X48756Y-39632D01*
X48793Y-39543D01*
X48793Y-37197D01*
X48793Y-39543D01*
X48815Y-39491D01*
X48923Y-39382D01*
X49065Y-39323D01*
X49219Y-39323D01*
X49360Y-39382D01*
X49469Y-39490D01*
X49528Y-39632D01*
X49528Y-39786D01*
X49469Y-39927D01*
X49361Y-40036D01*
X49353Y-40038D01*
X49809Y-40039D01*
X47939Y-24134D02*
X48142Y-24134D01*
X48899Y-24134D02*
X49040Y-24134D01*
X49739Y-24134D02*
X49831Y-24134D01*
X51431Y-24134D02*
X51601Y-24134D01*
X47998Y-24214D02*
X48134Y-24214D01*
X48908Y-24214D02*
X49008Y-24214D01*
X49773Y-24214D02*
X49798Y-24214D01*
X51464Y-24214D02*
X51568Y-24214D01*
X48180Y-24294D02*
X48214Y-24294D01*
X48828Y-24294D02*
X48862Y-24294D01*
X49776Y-24294D02*
X49782Y-24294D01*
X51480Y-24294D02*
X51552Y-24294D01*
X53250Y-24294D02*
X53284Y-24294D01*
X48260Y-24374D02*
X48294Y-24374D01*
X48748Y-24374D02*
X48782Y-24374D01*
X49776Y-24374D02*
X49782Y-24374D01*
X51480Y-24374D02*
X51552Y-24374D01*
X53250Y-24374D02*
X53364Y-24374D01*
X48340Y-24454D02*
X48374Y-24454D01*
X48668Y-24454D02*
X48702Y-24454D01*
X49743Y-24454D02*
X49782Y-24454D01*
X51480Y-24454D02*
X51552Y-24454D01*
X53250Y-24454D02*
X53444Y-24454D01*
X48420Y-24534D02*
X48454Y-24534D01*
X48588Y-24534D02*
X48622Y-24534D01*
X49700Y-24534D02*
X49810Y-24534D01*
X51451Y-24534D02*
X51580Y-24534D01*
X53221Y-24534D02*
X53524Y-24534D01*
X48500Y-24614D02*
X48542Y-24614D01*
X49156Y-24614D02*
X49159Y-24614D01*
X49620Y-24614D02*
X49843Y-24614D01*
X51418Y-24614D02*
X51613Y-24614D01*
X53188Y-24614D02*
X53604Y-24614D01*
X48428Y-24694D02*
X48462Y-24694D01*
X48580Y-24694D02*
X48614Y-24694D01*
X49155Y-24694D02*
X49895Y-24694D01*
X51367Y-24694D02*
X51665Y-24694D01*
X53137Y-24694D02*
X53684Y-24694D01*
X48348Y-24774D02*
X48382Y-24774D01*
X48660Y-24774D02*
X48694Y-24774D01*
X49147Y-24774D02*
X49975Y-24774D01*
X51287Y-24774D02*
X51745Y-24774D01*
X53057Y-24774D02*
X53171Y-24774D01*
X53545Y-24774D02*
X53764Y-24774D01*
X48268Y-24854D02*
X48302Y-24854D01*
X48740Y-24854D02*
X48774Y-24854D01*
X49112Y-24854D02*
X50112Y-24854D01*
X51149Y-24854D02*
X51882Y-24854D01*
X52919Y-24854D02*
X53073Y-24854D01*
X53644Y-24854D02*
X53844Y-24854D01*
X48188Y-24934D02*
X48222Y-24934D01*
X48820Y-24934D02*
X48854Y-24934D01*
X49077Y-24934D02*
X53016Y-24934D01*
X53702Y-24934D02*
X53924Y-24934D01*
X48000Y-25014D02*
X48142Y-25014D01*
X48900Y-25014D02*
X52982Y-25014D01*
X53735Y-25014D02*
X54004Y-25014D01*
X47947Y-25094D02*
X48141Y-25094D01*
X48900Y-25094D02*
X52972Y-25094D01*
X53744Y-25094D02*
X54084Y-25094D01*
X47853Y-25174D02*
X48139Y-25174D01*
X48846Y-25174D02*
X52972Y-25174D01*
X53744Y-25174D02*
X54164Y-25174D01*
X47933Y-25254D02*
X48059Y-25254D01*
X48883Y-25254D02*
X52998Y-25254D01*
X53717Y-25254D02*
X54244Y-25254D01*
X48948Y-25334D02*
X53032Y-25334D01*
X53683Y-25334D02*
X54324Y-25334D01*
X48981Y-25414D02*
X53112Y-25414D01*
X53603Y-25414D02*
X54404Y-25414D01*
X49014Y-25494D02*
X53266Y-25494D01*
X53449Y-25494D02*
X54484Y-25494D01*
X49020Y-25574D02*
X54564Y-25574D01*
X49020Y-25654D02*
X54644Y-25654D01*
X49017Y-25734D02*
X54724Y-25734D01*
X48983Y-25814D02*
X54804Y-25814D01*
X48950Y-25894D02*
X54884Y-25894D01*
X48891Y-25974D02*
X54964Y-25974D01*
X48811Y-26054D02*
X51317Y-26054D01*
X51691Y-26054D02*
X55044Y-26054D01*
X48787Y-26134D02*
X51219Y-26134D01*
X51790Y-26134D02*
X55124Y-26134D01*
X48893Y-26214D02*
X51162Y-26214D01*
X51848Y-26214D02*
X55204Y-26214D01*
X48973Y-26294D02*
X51128Y-26294D01*
X51881Y-26294D02*
X51914Y-26294D01*
X52389Y-26294D02*
X52413Y-26294D01*
X52888Y-26294D02*
X55284Y-26294D01*
X49014Y-26374D02*
X51118Y-26374D01*
X52389Y-26374D02*
X52413Y-26374D01*
X53073Y-26374D02*
X55193Y-26374D01*
X49048Y-26454D02*
X50035Y-26454D01*
X52389Y-26454D02*
X52413Y-26454D01*
X53152Y-26454D02*
X55069Y-26454D01*
X49070Y-26534D02*
X49943Y-26534D01*
X52389Y-26534D02*
X52413Y-26534D01*
X53230Y-26534D02*
X55009Y-26534D01*
X49070Y-26614D02*
X49864Y-26614D01*
X52389Y-26614D02*
X52413Y-26614D01*
X53271Y-26614D02*
X54975Y-26614D01*
X49070Y-26694D02*
X49831Y-26694D01*
X52389Y-26694D02*
X52413Y-26694D01*
X53297Y-26694D02*
X54956Y-26694D01*
X49050Y-26774D02*
X49797Y-26774D01*
X52389Y-26774D02*
X52413Y-26774D01*
X53324Y-26774D02*
X54956Y-26774D01*
X49017Y-26854D02*
X49782Y-26854D01*
X52389Y-26854D02*
X52413Y-26854D01*
X53294Y-26854D02*
X54973Y-26854D01*
X48981Y-26934D02*
X49782Y-26934D01*
X53260Y-26934D02*
X55006Y-26934D01*
X48901Y-27014D02*
X49782Y-27014D01*
X53321Y-27014D02*
X54798Y-27014D01*
X48805Y-27094D02*
X49810Y-27094D01*
X53311Y-27094D02*
X54670Y-27094D01*
X53690Y-27174D02*
X54529Y-27174D01*
X53786Y-27254D02*
X54454Y-27254D01*
X53821Y-27334D02*
X54420Y-27334D01*
X53826Y-27414D02*
X54397Y-27414D01*
X53826Y-27494D02*
X54397Y-27494D01*
X53826Y-27574D02*
X54410Y-27574D01*
X53826Y-27654D02*
X54443Y-27654D01*
X53826Y-27734D02*
X54506Y-27734D01*
X53826Y-27814D02*
X54617Y-27814D01*
X53826Y-27894D02*
X54706Y-27894D01*
X53826Y-27974D02*
X54786Y-27974D01*
X53826Y-28054D02*
X54813Y-28054D01*
X53826Y-28134D02*
X54813Y-28134D01*
X53826Y-28214D02*
X54813Y-28214D01*
X53806Y-28294D02*
X54813Y-28294D01*
X53752Y-28374D02*
X53848Y-28374D01*
X52175Y-28454D02*
X52579Y-28454D01*
X53122Y-28454D02*
X53760Y-28454D01*
X52201Y-28534D02*
X52513Y-28534D01*
X53188Y-28534D02*
X53727Y-28534D01*
X52211Y-28614D02*
X52480Y-28614D01*
X53221Y-28614D02*
X53723Y-28614D01*
X52211Y-28694D02*
X52464Y-28694D01*
X53236Y-28694D02*
X53723Y-28694D01*
X52211Y-28774D02*
X52464Y-28774D01*
X53236Y-28774D02*
X53723Y-28774D01*
X52211Y-28854D02*
X52484Y-28854D01*
X53215Y-28854D02*
X53723Y-28854D01*
X52211Y-28934D02*
X52517Y-28934D01*
X53182Y-28934D02*
X53723Y-28934D01*
X52211Y-29014D02*
X52590Y-29014D01*
X53109Y-29014D02*
X53723Y-29014D01*
X52211Y-29094D02*
X52725Y-29094D01*
X52975Y-29094D02*
X53723Y-29094D01*
X52211Y-29174D02*
X53723Y-29174D01*
X52211Y-29254D02*
X53723Y-29254D01*
X52211Y-29334D02*
X53216Y-29334D01*
X53683Y-29334D02*
X53723Y-29334D01*
X52211Y-29414D02*
X53136Y-29414D01*
X52211Y-29494D02*
X53095Y-29494D01*
X52211Y-29574D02*
X53063Y-29574D01*
X52211Y-29654D02*
X53063Y-29654D01*
X52211Y-29734D02*
X53067Y-29734D01*
X52211Y-29814D02*
X53100Y-29814D01*
X52211Y-29894D02*
X53135Y-29894D01*
X52211Y-29974D02*
X52343Y-29974D01*
X52564Y-29974D02*
X53156Y-29974D01*
X52707Y-30054D02*
X53209Y-30054D01*
X52783Y-30134D02*
X53284Y-30134D01*
X52817Y-30214D02*
X53383Y-30214D01*
X52839Y-30294D02*
X53622Y-30294D01*
X53623Y-30294D02*
X53629Y-30294D01*
X52839Y-30374D02*
X53634Y-30374D01*
X49128Y-30454D02*
X49164Y-30454D01*
X52065Y-30454D02*
X52079Y-30454D01*
X52826Y-30454D02*
X53667Y-30454D01*
X49128Y-30534D02*
X49182Y-30534D01*
X51985Y-30534D02*
X52112Y-30534D01*
X52792Y-30534D02*
X53723Y-30534D01*
X49128Y-30614D02*
X49169Y-30614D01*
X51905Y-30614D02*
X52175Y-30614D01*
X52730Y-30614D02*
X53723Y-30614D01*
X49128Y-30694D02*
X49169Y-30694D01*
X51825Y-30694D02*
X52285Y-30694D01*
X52621Y-30694D02*
X53723Y-30694D01*
X49128Y-30774D02*
X49191Y-30774D01*
X51745Y-30774D02*
X53723Y-30774D01*
X49128Y-30854D02*
X49225Y-30854D01*
X51665Y-30854D02*
X53723Y-30854D01*
X49128Y-30934D02*
X49301Y-30934D01*
X49808Y-30934D02*
X49908Y-30934D01*
X51558Y-30934D02*
X53723Y-30934D01*
X49128Y-31014D02*
X49444Y-31014D01*
X49665Y-31014D02*
X50002Y-31014D01*
X50391Y-31014D02*
X53723Y-31014D01*
X49128Y-31094D02*
X53724Y-31094D01*
X49128Y-31174D02*
X53723Y-31174D01*
X49128Y-31254D02*
X53723Y-31254D01*
X49128Y-31334D02*
X53723Y-31334D01*
X49128Y-31414D02*
X53723Y-31414D01*
X49128Y-31494D02*
X53723Y-31494D01*
X49128Y-31574D02*
X50140Y-31574D01*
X50608Y-31574D02*
X53723Y-31574D01*
X49128Y-31654D02*
X49627Y-31654D01*
X50688Y-31654D02*
X53723Y-31654D01*
X49128Y-31734D02*
X49533Y-31734D01*
X50729Y-31734D02*
X53723Y-31734D01*
X49128Y-31814D02*
X49453Y-31814D01*
X50760Y-31814D02*
X53723Y-31814D01*
X49112Y-31894D02*
X49373Y-31894D01*
X50760Y-31894D02*
X53723Y-31894D01*
X49073Y-31974D02*
X49293Y-31974D01*
X50755Y-31974D02*
X53723Y-31974D01*
X49009Y-32054D02*
X49234Y-32054D01*
X50721Y-32054D02*
X53723Y-32054D01*
X48929Y-32134D02*
X49203Y-32134D01*
X50671Y-32134D02*
X53723Y-32134D01*
X48840Y-32214D02*
X49190Y-32214D01*
X49872Y-32214D02*
X50158Y-32214D01*
X50590Y-32214D02*
X53723Y-32214D01*
X46984Y-32294D02*
X49190Y-32294D01*
X49792Y-32294D02*
X53723Y-32294D01*
X46978Y-32374D02*
X49190Y-32374D01*
X49770Y-32374D02*
X53723Y-32374D01*
X46944Y-32454D02*
X49190Y-32454D01*
X49770Y-32454D02*
X53723Y-32454D01*
X46892Y-32534D02*
X49190Y-32534D01*
X49770Y-32534D02*
X53723Y-32534D01*
X46807Y-32614D02*
X49190Y-32614D01*
X49770Y-32614D02*
X53723Y-32614D01*
X46441Y-32694D02*
X46471Y-32694D01*
X46471Y-32694D02*
X49124Y-32694D01*
X49770Y-32694D02*
X51968Y-32694D01*
X52261Y-32694D02*
X53723Y-32694D01*
X49764Y-32774D02*
X51846Y-32774D01*
X52383Y-32774D02*
X53723Y-32774D01*
X49748Y-32854D02*
X51779Y-32854D01*
X52451Y-32854D02*
X53723Y-32854D01*
X49697Y-32934D02*
X51745Y-32934D01*
X52484Y-32934D02*
X53723Y-32934D01*
X49623Y-33014D02*
X51728Y-33014D01*
X52500Y-33014D02*
X53723Y-33014D01*
X49542Y-33094D02*
X51728Y-33094D01*
X52500Y-33094D02*
X53723Y-33094D01*
X49530Y-33174D02*
X51747Y-33174D01*
X52480Y-33174D02*
X53723Y-33174D01*
X49610Y-33254D02*
X51780Y-33254D01*
X52447Y-33254D02*
X53723Y-33254D01*
X49687Y-33334D02*
X51851Y-33334D01*
X52376Y-33334D02*
X53723Y-33334D01*
X49740Y-33414D02*
X51982Y-33414D01*
X52246Y-33414D02*
X53723Y-33414D01*
X49757Y-33494D02*
X53723Y-33494D01*
X46415Y-33574D02*
X46471Y-33574D01*
X46472Y-33574D02*
X49109Y-33574D01*
X49763Y-33574D02*
X53723Y-33574D01*
X46471Y-33654D02*
X49183Y-33654D01*
X49763Y-33654D02*
X53723Y-33654D01*
X46447Y-33734D02*
X49183Y-33734D01*
X49763Y-33734D02*
X53723Y-33734D01*
X46408Y-33814D02*
X49183Y-33814D01*
X49763Y-33814D02*
X53723Y-33814D01*
X46371Y-33894D02*
X49183Y-33894D01*
X49813Y-33894D02*
X53723Y-33894D01*
X46371Y-33974D02*
X49184Y-33974D01*
X49893Y-33974D02*
X50066Y-33974D01*
X50516Y-33974D02*
X53723Y-33974D01*
X46371Y-34054D02*
X49200Y-34054D01*
X50596Y-34054D02*
X53723Y-34054D01*
X46371Y-34134D02*
X49243Y-34134D01*
X50643Y-34134D02*
X53723Y-34134D01*
X46371Y-34214D02*
X49311Y-34214D01*
X50676Y-34214D02*
X53723Y-34214D01*
X46371Y-34294D02*
X49391Y-34294D01*
X50677Y-34294D02*
X53723Y-34294D01*
X46371Y-34374D02*
X49471Y-34374D01*
X50676Y-34374D02*
X53723Y-34374D01*
X46371Y-34454D02*
X49551Y-34454D01*
X50642Y-34454D02*
X53723Y-34454D01*
X46371Y-34534D02*
X49647Y-34534D01*
X50597Y-34534D02*
X53723Y-34534D01*
X46371Y-34614D02*
X50064Y-34614D01*
X50517Y-34614D02*
X53723Y-34614D01*
X46371Y-34694D02*
X53723Y-34694D01*
X46371Y-34774D02*
X53723Y-34774D01*
X46371Y-34854D02*
X53723Y-34854D01*
X46371Y-34934D02*
X53723Y-34934D01*
X46371Y-35014D02*
X53711Y-35014D01*
X46371Y-35094D02*
X53658Y-35094D01*
X46371Y-35174D02*
X48307Y-35174D01*
X48504Y-35174D02*
X53625Y-35174D01*
X46371Y-35254D02*
X48157Y-35254D01*
X48654Y-35254D02*
X53622Y-35254D01*
X53623Y-35254D02*
X53653Y-35254D01*
X44288Y-35334D02*
X44340Y-35334D01*
X46371Y-35334D02*
X48078Y-35334D01*
X48733Y-35334D02*
X53623Y-35334D01*
X53623Y-35334D02*
X53664Y-35334D01*
X44288Y-35414D02*
X44465Y-35414D01*
X46371Y-35414D02*
X48045Y-35414D01*
X48767Y-35414D02*
X53623Y-35414D01*
X53623Y-35414D02*
X53629Y-35414D01*
X44288Y-35494D02*
X44465Y-35494D01*
X46371Y-35494D02*
X48019Y-35494D01*
X48791Y-35494D02*
X53622Y-35494D01*
X53623Y-35494D02*
X53633Y-35494D01*
X44288Y-35574D02*
X44465Y-35574D01*
X46371Y-35574D02*
X48019Y-35574D01*
X48843Y-35574D02*
X53667Y-35574D01*
X44288Y-35654D02*
X44495Y-35654D01*
X46371Y-35654D02*
X48029Y-35654D01*
X48897Y-35654D02*
X53623Y-35654D01*
X53623Y-35654D02*
X53644Y-35654D01*
X44288Y-35734D02*
X44528Y-35734D01*
X46357Y-35734D02*
X48063Y-35734D01*
X48919Y-35734D02*
X48953Y-35734D01*
X49124Y-35734D02*
X53627Y-35734D01*
X44288Y-35814D02*
X44607Y-35814D01*
X46312Y-35814D02*
X46430Y-35814D01*
X44288Y-35894D02*
X44740Y-35894D01*
X45039Y-35894D02*
X45255Y-35894D01*
X46187Y-35894D02*
X46318Y-35894D01*
X44288Y-35974D02*
X46278Y-35974D01*
X44288Y-36054D02*
X46268Y-36054D01*
X44288Y-36134D02*
X44653Y-36134D01*
X45127Y-36134D02*
X46268Y-36134D01*
X44288Y-36214D02*
X44571Y-36214D01*
X45209Y-36214D02*
X46268Y-36214D01*
X44288Y-36294D02*
X44514Y-36294D01*
X45267Y-36294D02*
X46268Y-36294D01*
X44288Y-36374D02*
X44481Y-36374D01*
X45300Y-36374D02*
X46268Y-36374D01*
X44288Y-36454D02*
X44465Y-36454D01*
X45315Y-36454D02*
X46268Y-36454D01*
X44288Y-36534D02*
X44465Y-36534D01*
X45315Y-36534D02*
X46268Y-36534D01*
X44288Y-36614D02*
X44478Y-36614D01*
X45301Y-36614D02*
X46268Y-36614D01*
X44288Y-36694D02*
X44511Y-36694D01*
X45267Y-36694D02*
X46268Y-36694D01*
X44288Y-36774D02*
X44567Y-36774D01*
X45213Y-36774D02*
X46268Y-36774D01*
X44288Y-36854D02*
X44647Y-36854D01*
X45133Y-36854D02*
X46268Y-36854D01*
X44288Y-36934D02*
X46283Y-36934D01*
X44288Y-37014D02*
X46332Y-37014D01*
X44288Y-37094D02*
X44752Y-37094D01*
X45013Y-37094D02*
X46462Y-37094D01*
X46719Y-37094D02*
X46719Y-37094D01*
X46974Y-37094D02*
X46974Y-37094D01*
X47229Y-37094D02*
X47229Y-37094D01*
X47484Y-37094D02*
X47484Y-37094D01*
X47739Y-37094D02*
X47743Y-37094D01*
X48509Y-37094D02*
X48509Y-37094D01*
X48880Y-37094D02*
X48904Y-37094D01*
X49279Y-37094D02*
X49279Y-37094D01*
X49534Y-37094D02*
X49534Y-37094D01*
X49789Y-37094D02*
X49789Y-37094D01*
X44288Y-37174D02*
X44607Y-37174D01*
X45157Y-37174D02*
X47795Y-37174D01*
X48474Y-37174D02*
X48693Y-37174D01*
X48816Y-37174D02*
X48967Y-37174D01*
X49090Y-37174D02*
X49794Y-37174D01*
X52389Y-37174D02*
X52413Y-37174D01*
X44288Y-37254D02*
X44527Y-37254D01*
X45237Y-37254D02*
X47761Y-37254D01*
X48508Y-37254D02*
X49782Y-37254D01*
X51480Y-37254D02*
X51514Y-37254D01*
X52389Y-37254D02*
X52413Y-37254D01*
X44288Y-37334D02*
X44491Y-37334D01*
X45274Y-37334D02*
X47748Y-37334D01*
X48520Y-37334D02*
X49782Y-37334D01*
X51480Y-37334D02*
X51536Y-37334D01*
X52389Y-37334D02*
X52413Y-37334D01*
X44288Y-37414D02*
X44458Y-37414D01*
X45307Y-37414D02*
X47748Y-37414D01*
X48520Y-37414D02*
X49782Y-37414D01*
X52389Y-37414D02*
X52413Y-37414D01*
X44288Y-37494D02*
X44457Y-37494D01*
X45307Y-37494D02*
X47770Y-37494D01*
X48496Y-37494D02*
X49814Y-37494D01*
X51446Y-37494D02*
X51492Y-37494D01*
X52389Y-37494D02*
X52413Y-37494D01*
X44288Y-37574D02*
X44457Y-37574D01*
X45307Y-37574D02*
X47804Y-37574D01*
X48463Y-37574D02*
X49847Y-37574D01*
X51413Y-37574D02*
X51519Y-37574D01*
X52389Y-37574D02*
X52413Y-37574D01*
X44288Y-37654D02*
X44485Y-37654D01*
X45278Y-37654D02*
X47880Y-37654D01*
X48387Y-37654D02*
X49906Y-37654D01*
X51356Y-37654D02*
X51546Y-37654D01*
X52389Y-37654D02*
X52413Y-37654D01*
X44288Y-37734D02*
X44518Y-37734D01*
X45244Y-37734D02*
X47419Y-37734D01*
X47660Y-37734D02*
X48023Y-37734D01*
X48244Y-37734D02*
X49986Y-37734D01*
X51276Y-37734D02*
X51614Y-37734D01*
X52389Y-37734D02*
X52413Y-37734D01*
X44288Y-37814D02*
X44595Y-37814D01*
X45169Y-37814D02*
X47282Y-37814D01*
X47797Y-37814D02*
X49849Y-37814D01*
X51122Y-37814D02*
X51692Y-37814D01*
X52389Y-37814D02*
X52413Y-37814D01*
X44288Y-37894D02*
X44722Y-37894D01*
X45041Y-37894D02*
X47208Y-37894D01*
X47871Y-37894D02*
X49753Y-37894D01*
X50326Y-37894D02*
X51827Y-37894D01*
X52389Y-37894D02*
X52413Y-37894D01*
X44288Y-37974D02*
X46271Y-37974D01*
X46944Y-37974D02*
X47175Y-37974D01*
X47904Y-37974D02*
X49696Y-37974D01*
X50383Y-37974D02*
X52944Y-37974D01*
X44288Y-38054D02*
X46062Y-38054D01*
X47122Y-38054D02*
X47153Y-38054D01*
X47925Y-38054D02*
X49663Y-38054D01*
X50416Y-38054D02*
X52944Y-38054D01*
X44333Y-38134D02*
X45967Y-38134D01*
X47925Y-38134D02*
X49653Y-38134D01*
X50425Y-38134D02*
X52944Y-38134D01*
X44413Y-38214D02*
X45164Y-38214D01*
X45348Y-38214D02*
X45936Y-38214D01*
X47910Y-38214D02*
X49653Y-38214D01*
X50425Y-38214D02*
X52944Y-38214D01*
X44493Y-38294D02*
X45005Y-38294D01*
X45502Y-38294D02*
X45879Y-38294D01*
X45903Y-38294D02*
X45937Y-38294D01*
X47876Y-38294D02*
X49679Y-38294D01*
X50398Y-38294D02*
X52944Y-38294D01*
X44573Y-38374D02*
X44931Y-38374D01*
X45582Y-38374D02*
X45718Y-38374D01*
X45983Y-38374D02*
X46017Y-38374D01*
X47812Y-38374D02*
X49241Y-38374D01*
X49452Y-38374D02*
X49714Y-38374D01*
X50363Y-38374D02*
X52971Y-38374D01*
X44653Y-38454D02*
X44897Y-38454D01*
X45616Y-38454D02*
X45682Y-38454D01*
X46063Y-38454D02*
X46097Y-38454D01*
X47697Y-38454D02*
X49095Y-38454D01*
X49598Y-38454D02*
X49794Y-38454D01*
X50283Y-38454D02*
X53036Y-38454D01*
X44733Y-38534D02*
X44870Y-38534D01*
X45642Y-38534D02*
X45646Y-38534D01*
X46143Y-38534D02*
X46177Y-38534D01*
X47562Y-38534D02*
X49018Y-38534D01*
X49676Y-38534D02*
X49950Y-38534D01*
X50128Y-38534D02*
X53062Y-38534D01*
X44813Y-38614D02*
X44870Y-38614D01*
X46223Y-38614D02*
X46257Y-38614D01*
X47593Y-38614D02*
X48984Y-38614D01*
X49709Y-38614D02*
X52980Y-38614D01*
X46303Y-38694D02*
X46337Y-38694D01*
X47623Y-38694D02*
X48960Y-38694D01*
X49732Y-38694D02*
X52947Y-38694D01*
X46383Y-38774D02*
X46417Y-38774D01*
X47654Y-38774D02*
X48960Y-38774D01*
X46463Y-38854D02*
X46497Y-38854D01*
X47660Y-38854D02*
X48972Y-38854D01*
X46543Y-38934D02*
X46577Y-38934D01*
X47658Y-38934D02*
X49005Y-38934D01*
X46546Y-39014D02*
X46547Y-39014D01*
X46623Y-39014D02*
X46657Y-39014D01*
X47655Y-39014D02*
X49066Y-39014D01*
X46466Y-39094D02*
X46467Y-39094D01*
X46703Y-39094D02*
X46737Y-39094D01*
X47653Y-39094D02*
X49173Y-39094D01*
X46386Y-39174D02*
X46387Y-39174D01*
X46783Y-39174D02*
X46817Y-39174D01*
X47651Y-39174D02*
X49361Y-39174D01*
X46306Y-39254D02*
X46307Y-39254D01*
X46863Y-39254D02*
X46897Y-39254D01*
X47632Y-39254D02*
X49441Y-39254D01*
X46226Y-39334D02*
X46227Y-39334D01*
X46943Y-39334D02*
X46977Y-39334D01*
X47596Y-39334D02*
X49039Y-39334D01*
X49246Y-39334D02*
X49565Y-39334D01*
X46146Y-39414D02*
X46147Y-39414D01*
X47023Y-39414D02*
X47057Y-39414D01*
X47560Y-39414D02*
X48892Y-39414D01*
X49393Y-39414D02*
X50012Y-39414D01*
X47103Y-39494D02*
X47137Y-39494D01*
X47524Y-39494D02*
X48814Y-39494D01*
X49471Y-39494D02*
X49932Y-39494D01*
X47183Y-39574D02*
X47217Y-39574D01*
X47488Y-39574D02*
X48781Y-39574D01*
X49504Y-39574D02*
X49860Y-39574D01*
X47263Y-39654D02*
X47297Y-39654D01*
X47335Y-39654D02*
X48756Y-39654D01*
X49528Y-39654D02*
X49826Y-39654D01*
X47270Y-39734D02*
X48756Y-39734D01*
X49528Y-39734D02*
X49793Y-39734D01*
X47238Y-39814D02*
X48767Y-39814D01*
X49516Y-39814D02*
X49782Y-39814D01*
X47153Y-39894D02*
X48800Y-39894D01*
X49482Y-39894D02*
X49782Y-39894D01*
X46944Y-39974D02*
X48861Y-39974D01*
X49422Y-39974D02*
X49782Y-39974D01*
X55021Y-31110D02*
X55021Y-31110D01*
X55021Y-31190D02*
X55092Y-31190D01*
X57866Y-31190D02*
X57890Y-31190D01*
X55021Y-31270D02*
X55540Y-31270D01*
X55792Y-31270D02*
X55800Y-31270D01*
X56115Y-31270D02*
X56123Y-31270D01*
X56375Y-31270D02*
X56820Y-31270D01*
X57843Y-31270D02*
X57913Y-31270D01*
X55021Y-31350D02*
X56992Y-31350D01*
X57764Y-31350D02*
X58065Y-31350D01*
X55021Y-31430D02*
X57004Y-31430D01*
X57751Y-31430D02*
X58081Y-31430D01*
X55021Y-31510D02*
X55504Y-31510D01*
X55802Y-31510D02*
X57037Y-31510D01*
X57717Y-31510D02*
X58120Y-31510D01*
X55021Y-31590D02*
X55384Y-31590D01*
X55923Y-31590D02*
X57099Y-31590D01*
X57656Y-31590D02*
X58181Y-31590D01*
X55021Y-31670D02*
X55317Y-31670D01*
X55990Y-31670D02*
X57207Y-31670D01*
X57548Y-31670D02*
X58228Y-31670D01*
X55021Y-31750D02*
X55284Y-31750D01*
X56023Y-31750D02*
X58262Y-31750D01*
X55021Y-31830D02*
X55267Y-31830D01*
X56039Y-31830D02*
X58335Y-31830D01*
X55021Y-31910D02*
X55267Y-31910D01*
X56039Y-31910D02*
X58472Y-31910D01*
X55021Y-31990D02*
X55286Y-31990D01*
X56019Y-31990D02*
X58465Y-31990D01*
X55021Y-32070D02*
X55319Y-32070D01*
X55985Y-32070D02*
X58468Y-32070D01*
X55021Y-32150D02*
X55391Y-32150D01*
X55914Y-32150D02*
X56279Y-32150D01*
X56644Y-32150D02*
X58484Y-32150D01*
X55925Y-32230D02*
X56178Y-32230D01*
X56745Y-32230D02*
X58518Y-32230D01*
X56029Y-32310D02*
X56111Y-32310D01*
X56804Y-32310D02*
X58572Y-32310D01*
X56837Y-32390D02*
X58644Y-32390D01*
X56847Y-32470D02*
X58724Y-32470D01*
X56847Y-32550D02*
X58804Y-32550D01*
X56821Y-32630D02*
X58884Y-32630D01*
X56788Y-32710D02*
X58964Y-32710D01*
X56708Y-32790D02*
X58985Y-32790D01*
X56557Y-32870D02*
X58985Y-32870D01*
X56413Y-32950D02*
X56673Y-32950D01*
X56775Y-32950D02*
X56941Y-32950D01*
X57044Y-32950D02*
X58985Y-32950D01*
X56413Y-33030D02*
X56539Y-33030D01*
X56846Y-33030D02*
X56870Y-33030D01*
X57177Y-33030D02*
X58985Y-33030D01*
X58906Y-33110D02*
X58985Y-33110D01*
X58959Y-33190D02*
X58985Y-33190D01*
X58977Y-33270D02*
X58985Y-33270D01*
X58977Y-33350D02*
X58985Y-33350D01*
X58977Y-33430D02*
X58985Y-33430D01*
X58977Y-33510D02*
X58985Y-33510D01*
X58977Y-33590D02*
X58985Y-33590D01*
X58977Y-33670D02*
X58985Y-33670D01*
X58977Y-33750D02*
X58985Y-33750D01*
X58977Y-33830D02*
X58985Y-33830D01*
X58945Y-33910D02*
X58985Y-33910D01*
X56846Y-33990D02*
X56870Y-33990D01*
X58874Y-33990D02*
X58936Y-33990D01*
X56823Y-34070D02*
X56893Y-34070D01*
X57145Y-34070D02*
X58858Y-34070D01*
X56628Y-34150D02*
X58834Y-34150D01*
X56628Y-34230D02*
X58830Y-34230D01*
X56617Y-34310D02*
X58830Y-34310D01*
X56590Y-34390D02*
X58830Y-34390D01*
X56534Y-34470D02*
X58830Y-34470D01*
X56430Y-34550D02*
X58830Y-34550D01*
X55705Y-34630D02*
X58830Y-34630D01*
X55674Y-34710D02*
X58830Y-34710D01*
X55633Y-34790D02*
X58830Y-34790D01*
X55021Y-34870D02*
X55084Y-34870D01*
X55553Y-34870D02*
X58830Y-34870D01*
X55021Y-34950D02*
X58830Y-34950D01*
X55049Y-35030D02*
X58830Y-35030D01*
X55094Y-35110D02*
X58830Y-35110D01*
X55121Y-35190D02*
X58830Y-35190D01*
X55074Y-35270D02*
X55121Y-35270D01*
X55121Y-35270D02*
X58830Y-35270D01*
X55087Y-35350D02*
X55121Y-35350D01*
X55122Y-35350D02*
X58830Y-35350D01*
X55121Y-35430D02*
X58830Y-35430D01*
X55102Y-35510D02*
X55121Y-35510D01*
X55121Y-35510D02*
X58830Y-35510D01*
X55070Y-35590D02*
X55121Y-35590D01*
X55122Y-35590D02*
X58830Y-35590D01*
X55116Y-35670D02*
X55121Y-35670D01*
X55122Y-35670D02*
X58830Y-35670D01*
X55109Y-35750D02*
X58830Y-35750D01*
X55076Y-35830D02*
X58830Y-35830D01*
X55007Y-35910D02*
X58830Y-35910D01*
X53823Y-35990D02*
X53876Y-35990D01*
X54867Y-35990D02*
X58830Y-35990D01*
X53826Y-36070D02*
X54161Y-36070D01*
X54762Y-36070D02*
X58830Y-36070D01*
X53826Y-36150D02*
X54112Y-36150D01*
X54811Y-36150D02*
X58830Y-36150D01*
X53826Y-36230D02*
X54079Y-36230D01*
X54844Y-36230D02*
X58830Y-36230D01*
X53826Y-36310D02*
X54075Y-36310D01*
X54847Y-36310D02*
X58098Y-36310D01*
X58343Y-36310D02*
X58830Y-36310D01*
X53826Y-36390D02*
X54075Y-36390D01*
X54847Y-36390D02*
X56175Y-36390D01*
X56329Y-36390D02*
X57962Y-36390D01*
X58486Y-36390D02*
X58830Y-36390D01*
X53827Y-36470D02*
X54107Y-36470D01*
X54814Y-36470D02*
X56013Y-36470D01*
X56492Y-36470D02*
X57889Y-36470D01*
X58588Y-36470D02*
X58830Y-36470D01*
X53827Y-36550D02*
X54150Y-36550D01*
X54771Y-36550D02*
X55933Y-36550D01*
X56572Y-36550D02*
X57855Y-36550D01*
X58641Y-36550D02*
X58830Y-36550D01*
X53827Y-36630D02*
X54230Y-36630D01*
X54691Y-36630D02*
X55895Y-36630D01*
X56610Y-36630D02*
X57834Y-36630D01*
X58658Y-36630D02*
X58830Y-36630D01*
X53827Y-36710D02*
X55866Y-36710D01*
X56638Y-36710D02*
X57834Y-36710D01*
X58660Y-36710D02*
X58830Y-36710D01*
X53827Y-36790D02*
X55866Y-36790D01*
X56638Y-36790D02*
X57848Y-36790D01*
X58644Y-36790D02*
X58830Y-36790D01*
X53827Y-36870D02*
X55873Y-36870D01*
X56630Y-36870D02*
X57882Y-36870D01*
X58596Y-36870D02*
X58830Y-36870D01*
X53827Y-36950D02*
X55906Y-36950D01*
X56597Y-36950D02*
X57947Y-36950D01*
X58506Y-36950D02*
X58830Y-36950D01*
X53827Y-37030D02*
X55960Y-37030D01*
X56543Y-37030D02*
X58065Y-37030D01*
X58376Y-37030D02*
X58830Y-37030D01*
X53827Y-37110D02*
X56052Y-37110D01*
X53829Y-37190D02*
X55972Y-37190D01*
X53862Y-37270D02*
X55892Y-37270D01*
X53886Y-37350D02*
X55812Y-37350D01*
X54052Y-37430D02*
X55732Y-37430D01*
X54121Y-37510D02*
X55652Y-37510D01*
X54150Y-37590D02*
X55572Y-37590D01*
X54150Y-37670D02*
X55492Y-37670D01*
X54150Y-37750D02*
X55412Y-37750D01*
X54150Y-37830D02*
X55332Y-37830D01*
X54150Y-37910D02*
X55252Y-37910D01*
X54150Y-37990D02*
X55172Y-37990D01*
X54150Y-38070D02*
X54262Y-38070D01*
X54660Y-38070D02*
X55092Y-38070D01*
X54150Y-38150D02*
X54170Y-38150D01*
X54752Y-38150D02*
X55012Y-38150D01*
X54807Y-38230D02*
X54932Y-38230D01*
X54840Y-38310D02*
X54852Y-38310D01*
X54360Y-35565D02*
X54384Y-35565D01*
X49021Y-28443D02*
X49021Y-28443D01*
X46684Y-28523D02*
X47582Y-28523D01*
X48303Y-28523D02*
X48658Y-28523D01*
X49018Y-28523D02*
X49976Y-28523D01*
X50102Y-28523D02*
X50142Y-28523D01*
X46684Y-28603D02*
X47571Y-28603D01*
X48336Y-28603D02*
X48556Y-28603D01*
X49121Y-28603D02*
X50142Y-28603D01*
X46684Y-28683D02*
X47567Y-28683D01*
X48339Y-28683D02*
X48497Y-28683D01*
X49180Y-28683D02*
X50145Y-28683D01*
X46684Y-28763D02*
X47567Y-28763D01*
X48339Y-28763D02*
X48463Y-28763D01*
X49214Y-28763D02*
X50161Y-28763D01*
X46684Y-28843D02*
X46816Y-28843D01*
X47066Y-28843D02*
X47598Y-28843D01*
X48306Y-28843D02*
X48452Y-28843D01*
X49224Y-28843D02*
X50209Y-28843D01*
X47201Y-28923D02*
X47641Y-28923D01*
X48264Y-28923D02*
X48452Y-28923D01*
X49224Y-28923D02*
X50281Y-28923D01*
X47274Y-29003D02*
X47721Y-29003D01*
X48184Y-29003D02*
X48476Y-29003D01*
X49198Y-29003D02*
X50300Y-29003D01*
X47307Y-29083D02*
X48510Y-29083D01*
X49165Y-29083D02*
X50333Y-29083D01*
X47327Y-29163D02*
X48548Y-29163D01*
X49128Y-29163D02*
X50385Y-29163D01*
X47327Y-29243D02*
X48548Y-29243D01*
X49128Y-29243D02*
X50470Y-29243D01*
X50892Y-29243D02*
X50934Y-29243D01*
X47311Y-29323D02*
X48548Y-29323D01*
X49128Y-29323D02*
X50934Y-29323D01*
X47278Y-29403D02*
X48548Y-29403D01*
X49128Y-29403D02*
X50934Y-29403D01*
X47212Y-29483D02*
X48548Y-29483D01*
X49128Y-29483D02*
X49271Y-29483D01*
X46684Y-29563D02*
X46787Y-29563D01*
X47095Y-29563D02*
X48548Y-29563D01*
X49128Y-29563D02*
X49165Y-29563D01*
X46684Y-29643D02*
X48548Y-29643D01*
X46684Y-29723D02*
X48548Y-29723D01*
X46684Y-29803D02*
X48548Y-29803D01*
X46684Y-29883D02*
X48548Y-29883D01*
X46684Y-29963D02*
X48548Y-29963D01*
X46684Y-30043D02*
X48548Y-30043D01*
X46684Y-30123D02*
X48548Y-30123D01*
X46684Y-30203D02*
X48548Y-30203D01*
X46684Y-30283D02*
X48548Y-30283D01*
X46678Y-30363D02*
X48548Y-30363D01*
X46662Y-30443D02*
X48548Y-30443D01*
X46609Y-30523D02*
X48548Y-30523D01*
X46535Y-30603D02*
X48548Y-30603D01*
X46444Y-30683D02*
X48548Y-30683D01*
X46371Y-30763D02*
X48548Y-30763D01*
X46371Y-30843D02*
X48548Y-30843D01*
X46371Y-30923D02*
X48548Y-30923D01*
X46371Y-31003D02*
X48548Y-31003D01*
X46371Y-31083D02*
X48548Y-31083D01*
X46372Y-31163D02*
X46545Y-31163D01*
X46786Y-31163D02*
X48548Y-31163D01*
X46923Y-31243D02*
X48548Y-31243D01*
X46997Y-31323D02*
X48548Y-31323D01*
X47030Y-31403D02*
X48548Y-31403D01*
X47051Y-31483D02*
X48548Y-31483D01*
X47051Y-31563D02*
X48548Y-31563D01*
X47036Y-31643D02*
X48548Y-31643D01*
X58220Y-27126D02*
X58816Y-27126D01*
X58304Y-27206D02*
X58830Y-27206D01*
X58463Y-27286D02*
X58830Y-27286D01*
X58550Y-27366D02*
X58830Y-27366D01*
X58603Y-27446D02*
X58830Y-27446D01*
X58636Y-27526D02*
X58830Y-27526D01*
X58642Y-27606D02*
X58830Y-27606D01*
X58642Y-27686D02*
X58830Y-27686D01*
X58612Y-27766D02*
X58830Y-27766D01*
X58573Y-27846D02*
X58830Y-27846D01*
X58493Y-27926D02*
X58830Y-27926D01*
X58225Y-28006D02*
X58830Y-28006D01*
X58145Y-28086D02*
X58830Y-28086D01*
X58065Y-28166D02*
X58830Y-28166D01*
X57985Y-28246D02*
X58830Y-28246D01*
X57908Y-28326D02*
X58830Y-28326D01*
X57908Y-28406D02*
X58830Y-28406D01*
X57908Y-28486D02*
X58830Y-28486D01*
X57908Y-28566D02*
X58830Y-28566D01*
X57908Y-28646D02*
X58830Y-28646D01*
X57908Y-28726D02*
X58830Y-28726D01*
X57908Y-28806D02*
X58830Y-28806D01*
X57908Y-28886D02*
X58830Y-28886D01*
X57908Y-28966D02*
X58830Y-28966D01*
X57908Y-29046D02*
X58830Y-29046D01*
X57908Y-29126D02*
X58830Y-29126D01*
X57908Y-29206D02*
X58830Y-29206D01*
X57908Y-29286D02*
X58830Y-29286D01*
X57908Y-29366D02*
X58137Y-29366D01*
X58478Y-29366D02*
X58830Y-29366D01*
X57908Y-29446D02*
X58029Y-29446D01*
X58586Y-29446D02*
X58830Y-29446D01*
X57908Y-29526D02*
X57968Y-29526D01*
X58648Y-29526D02*
X58830Y-29526D01*
X57908Y-29606D02*
X57934Y-29606D01*
X58681Y-29606D02*
X58830Y-29606D01*
X57908Y-29686D02*
X57921Y-29686D01*
X58693Y-29686D02*
X58830Y-29686D01*
X57908Y-29766D02*
X57921Y-29766D01*
X57908Y-29846D02*
X57944Y-29846D01*
X57908Y-29926D02*
X57977Y-29926D01*
X57908Y-30006D02*
X57966Y-30006D01*
X57894Y-30086D02*
X57905Y-30086D01*
X54843Y-38319D02*
X55122Y-38039D01*
X55122Y-35676D01*
X55121Y-35675D01*
X55121Y-35583D01*
X55121Y-35571D01*
X55121Y-35479D01*
X55122Y-35478D01*
X55121Y-35571D01*
X55121Y-35583D01*
X55122Y-35676D01*
X55122Y-35421D01*
X55121Y-35420D01*
X55121Y-35328D01*
X55121Y-35316D01*
X55121Y-35224D01*
X55122Y-35223D01*
X55121Y-35316D01*
X55121Y-35328D01*
X55122Y-35421D01*
X55122Y-35676D01*
X55122Y-38039D01*
X56052Y-37110D01*
X56034Y-37103D01*
X55925Y-36995D01*
X55866Y-36853D01*
X55866Y-36699D01*
X55925Y-36558D01*
X56033Y-36449D01*
X56175Y-36390D01*
X56329Y-36390D01*
X56470Y-36449D01*
X56579Y-36557D01*
X56638Y-36699D01*
X56638Y-36853D01*
X56579Y-36994D01*
X56526Y-37047D01*
X58104Y-37046D01*
X58002Y-37004D01*
X57893Y-36896D01*
X57834Y-36754D01*
X57834Y-36600D01*
X57893Y-36459D01*
X58001Y-36350D01*
X58143Y-36291D01*
X58297Y-36291D01*
X58438Y-36350D01*
X58465Y-36376D01*
X58466Y-36377D01*
X58572Y-36447D01*
X58642Y-36553D01*
X58667Y-36677D01*
X58642Y-36801D01*
X58572Y-36907D01*
X58466Y-36977D01*
X58465Y-36977D01*
X58439Y-37004D01*
X58335Y-37047D01*
X58815Y-37047D01*
X58830Y-37033D01*
X58830Y-34165D01*
X58846Y-34087D01*
X58890Y-34020D01*
X58957Y-33976D01*
X58985Y-33970D01*
X58985Y-32731D01*
X58594Y-32340D01*
X58591Y-32338D01*
X58493Y-32192D01*
X58459Y-32020D01*
X58480Y-31913D01*
X58376Y-31870D01*
X58267Y-31762D01*
X58208Y-31620D01*
X58208Y-31617D01*
X58158Y-31567D01*
X58088Y-31461D01*
X58063Y-31337D01*
X58063Y-31318D01*
X58027Y-31333D01*
X57977Y-31334D01*
X57890Y-31247D01*
X57890Y-31158D01*
X57882Y-31150D01*
X57866Y-31166D01*
X57866Y-31247D01*
X57779Y-31334D01*
X57764Y-31333D01*
X57764Y-31400D01*
X57705Y-31541D01*
X57597Y-31650D01*
X57455Y-31709D01*
X57301Y-31709D01*
X57160Y-31650D01*
X57051Y-31542D01*
X56992Y-31400D01*
X56992Y-31333D01*
X56959Y-31333D01*
X56831Y-31280D01*
X56783Y-31233D01*
X56728Y-31233D01*
X56727Y-31232D01*
X56727Y-31233D01*
X56468Y-31233D01*
X56467Y-31232D01*
X56467Y-31233D01*
X56412Y-31233D01*
X56365Y-31280D01*
X56237Y-31333D01*
X56187Y-31334D01*
X56119Y-31266D01*
X56105Y-31280D01*
X55999Y-31323D01*
X55989Y-31334D01*
X55958Y-31333D01*
X55927Y-31334D01*
X55916Y-31323D01*
X55811Y-31280D01*
X55796Y-31266D01*
X55729Y-31334D01*
X55679Y-31333D01*
X55551Y-31280D01*
X55503Y-31233D01*
X55188Y-31233D01*
X55097Y-31195D01*
X55027Y-31125D01*
X55021Y-31110D01*
X55021Y-31352D01*
X55019Y-31354D01*
X55021Y-31358D01*
X55021Y-31607D01*
X55019Y-31609D01*
X55021Y-31613D01*
X55021Y-31862D01*
X55019Y-31864D01*
X55021Y-31868D01*
X55021Y-32117D01*
X55018Y-32122D01*
X55021Y-32128D01*
X55021Y-32182D01*
X55423Y-32182D01*
X55326Y-32085D01*
X55267Y-31943D01*
X55267Y-31789D01*
X55326Y-31648D01*
X55434Y-31539D01*
X55576Y-31480D01*
X55730Y-31480D01*
X55871Y-31539D01*
X55980Y-31647D01*
X56039Y-31789D01*
X56039Y-31943D01*
X55980Y-32084D01*
X55872Y-32193D01*
X55855Y-32199D01*
X55890Y-32207D01*
X55996Y-32277D01*
X56070Y-32351D01*
X56124Y-32297D01*
X56134Y-32274D01*
X56242Y-32165D01*
X56384Y-32106D01*
X56538Y-32106D01*
X56679Y-32165D01*
X56788Y-32273D01*
X56847Y-32415D01*
X56847Y-32569D01*
X56788Y-32710D01*
X56680Y-32819D01*
X56538Y-32878D01*
X56462Y-32878D01*
X56413Y-32927D01*
X56413Y-33035D01*
X56533Y-33035D01*
X56581Y-32988D01*
X56709Y-32935D01*
X56759Y-32934D01*
X56846Y-33021D01*
X56846Y-33100D01*
X56852Y-33106D01*
X56870Y-33089D01*
X56870Y-33021D01*
X56957Y-32934D01*
X57007Y-32935D01*
X57135Y-32988D01*
X57182Y-33035D01*
X58778Y-33035D01*
X58869Y-33073D01*
X58939Y-33143D01*
X58977Y-33235D01*
X58977Y-33834D01*
X58939Y-33925D01*
X58869Y-33995D01*
X58777Y-34033D01*
X58518Y-34033D01*
X58517Y-34032D01*
X58517Y-34033D01*
X58008Y-34033D01*
X58007Y-34032D01*
X58007Y-34033D01*
X57748Y-34033D01*
X57747Y-34032D01*
X57747Y-34033D01*
X57238Y-34033D01*
X57237Y-34032D01*
X57237Y-34033D01*
X57182Y-34033D01*
X57135Y-34080D01*
X57007Y-34133D01*
X56957Y-34134D01*
X56870Y-34047D01*
X56870Y-33978D01*
X56852Y-33960D01*
X56846Y-33966D01*
X56846Y-34047D01*
X56759Y-34134D01*
X56709Y-34133D01*
X56628Y-34099D01*
X56628Y-34256D01*
X56606Y-34367D01*
X56543Y-34461D01*
X56542Y-34461D01*
X56542Y-34462D01*
X56502Y-34502D01*
X56408Y-34565D01*
X56297Y-34587D01*
X55705Y-34587D01*
X55705Y-34636D01*
X55646Y-34777D01*
X55538Y-34886D01*
X55396Y-34945D01*
X55242Y-34945D01*
X55101Y-34886D01*
X55061Y-34847D01*
X55021Y-34847D01*
X55021Y-34937D01*
X55019Y-34939D01*
X55021Y-34943D01*
X55021Y-35002D01*
X55068Y-35049D01*
X55121Y-35177D01*
X55121Y-35224D01*
X55054Y-35290D01*
X55068Y-35304D01*
X55112Y-35411D01*
X55121Y-35420D01*
X55121Y-35479D01*
X55112Y-35487D01*
X55068Y-35595D01*
X55054Y-35608D01*
X55121Y-35675D01*
X55121Y-35722D01*
X55068Y-35850D01*
X54969Y-35948D01*
X54841Y-36001D01*
X54692Y-36001D01*
X54788Y-36096D01*
X54847Y-36238D01*
X54847Y-36392D01*
X54788Y-36533D01*
X54680Y-36642D01*
X54538Y-36701D01*
X54384Y-36701D01*
X54243Y-36642D01*
X54134Y-36534D01*
X54075Y-36392D01*
X54075Y-36238D01*
X54134Y-36097D01*
X54228Y-36001D01*
X53903Y-36001D01*
X53811Y-35963D01*
X53826Y-35998D01*
X53826Y-36442D01*
X53827Y-36447D01*
X53827Y-37186D01*
X53886Y-37328D01*
X53886Y-37382D01*
X53951Y-37382D01*
X54042Y-37420D01*
X54112Y-37490D01*
X54150Y-37582D01*
X54150Y-38170D01*
X54242Y-38078D01*
X54384Y-38019D01*
X54538Y-38019D01*
X54679Y-38078D01*
X54788Y-38186D01*
X54843Y-38319D01*
X47939Y-24134D02*
X48142Y-24134D01*
X48899Y-24134D02*
X49040Y-24134D01*
X49739Y-24134D02*
X49831Y-24134D01*
X51431Y-24134D02*
X51601Y-24134D01*
X47998Y-24214D02*
X48134Y-24214D01*
X48908Y-24214D02*
X49008Y-24214D01*
X49773Y-24214D02*
X49798Y-24214D01*
X51464Y-24214D02*
X51568Y-24214D01*
X48180Y-24294D02*
X48214Y-24294D01*
X48828Y-24294D02*
X48862Y-24294D01*
X49776Y-24294D02*
X49782Y-24294D01*
X51480Y-24294D02*
X51552Y-24294D01*
X53250Y-24294D02*
X53284Y-24294D01*
X48260Y-24374D02*
X48294Y-24374D01*
X48748Y-24374D02*
X48782Y-24374D01*
X49776Y-24374D02*
X49782Y-24374D01*
X51480Y-24374D02*
X51552Y-24374D01*
X53250Y-24374D02*
X53364Y-24374D01*
X48340Y-24454D02*
X48374Y-24454D01*
X48668Y-24454D02*
X48702Y-24454D01*
X49743Y-24454D02*
X49782Y-24454D01*
X51480Y-24454D02*
X51552Y-24454D01*
X53250Y-24454D02*
X53444Y-24454D01*
X48420Y-24534D02*
X48454Y-24534D01*
X48588Y-24534D02*
X48622Y-24534D01*
X49700Y-24534D02*
X49810Y-24534D01*
X51451Y-24534D02*
X51580Y-24534D01*
X53221Y-24534D02*
X53524Y-24534D01*
X48500Y-24614D02*
X48542Y-24614D01*
X49156Y-24614D02*
X49159Y-24614D01*
X49620Y-24614D02*
X49843Y-24614D01*
X51418Y-24614D02*
X51613Y-24614D01*
X53188Y-24614D02*
X53604Y-24614D01*
X48428Y-24694D02*
X48462Y-24694D01*
X48580Y-24694D02*
X48614Y-24694D01*
X49155Y-24694D02*
X49895Y-24694D01*
X51367Y-24694D02*
X51665Y-24694D01*
X53137Y-24694D02*
X53684Y-24694D01*
X48348Y-24774D02*
X48382Y-24774D01*
X48660Y-24774D02*
X48694Y-24774D01*
X49147Y-24774D02*
X49975Y-24774D01*
X51287Y-24774D02*
X51745Y-24774D01*
X53057Y-24774D02*
X53171Y-24774D01*
X53545Y-24774D02*
X53764Y-24774D01*
X48268Y-24854D02*
X48302Y-24854D01*
X48740Y-24854D02*
X48774Y-24854D01*
X49112Y-24854D02*
X50112Y-24854D01*
X51149Y-24854D02*
X51882Y-24854D01*
X52919Y-24854D02*
X53073Y-24854D01*
X53644Y-24854D02*
X53844Y-24854D01*
X48188Y-24934D02*
X48222Y-24934D01*
X48820Y-24934D02*
X48854Y-24934D01*
X49077Y-24934D02*
X53016Y-24934D01*
X53702Y-24934D02*
X53924Y-24934D01*
X48000Y-25014D02*
X48142Y-25014D01*
X48900Y-25014D02*
X52982Y-25014D01*
X53735Y-25014D02*
X54004Y-25014D01*
X47947Y-25094D02*
X48141Y-25094D01*
X48900Y-25094D02*
X52972Y-25094D01*
X53744Y-25094D02*
X54084Y-25094D01*
X47853Y-25174D02*
X48139Y-25174D01*
X48846Y-25174D02*
X52972Y-25174D01*
X53744Y-25174D02*
X54164Y-25174D01*
X47933Y-25254D02*
X48059Y-25254D01*
X48883Y-25254D02*
X52998Y-25254D01*
X53717Y-25254D02*
X54244Y-25254D01*
X48948Y-25334D02*
X53032Y-25334D01*
X53683Y-25334D02*
X54324Y-25334D01*
X48981Y-25414D02*
X53112Y-25414D01*
X53603Y-25414D02*
X54404Y-25414D01*
X49014Y-25494D02*
X53266Y-25494D01*
X53449Y-25494D02*
X54484Y-25494D01*
X49020Y-25574D02*
X54564Y-25574D01*
X49020Y-25654D02*
X54644Y-25654D01*
X49017Y-25734D02*
X54724Y-25734D01*
X48983Y-25814D02*
X54804Y-25814D01*
X48950Y-25894D02*
X54884Y-25894D01*
X48891Y-25974D02*
X54964Y-25974D01*
X48811Y-26054D02*
X51317Y-26054D01*
X51691Y-26054D02*
X55044Y-26054D01*
X48787Y-26134D02*
X51219Y-26134D01*
X51790Y-26134D02*
X55124Y-26134D01*
X48893Y-26214D02*
X51162Y-26214D01*
X51848Y-26214D02*
X55204Y-26214D01*
X48973Y-26294D02*
X51128Y-26294D01*
X51881Y-26294D02*
X51914Y-26294D01*
X52389Y-26294D02*
X52413Y-26294D01*
X52888Y-26294D02*
X55284Y-26294D01*
X49014Y-26374D02*
X51118Y-26374D01*
X52389Y-26374D02*
X52413Y-26374D01*
X53073Y-26374D02*
X55193Y-26374D01*
X49048Y-26454D02*
X50035Y-26454D01*
X52389Y-26454D02*
X52413Y-26454D01*
X53152Y-26454D02*
X55069Y-26454D01*
X49070Y-26534D02*
X49943Y-26534D01*
X52389Y-26534D02*
X52413Y-26534D01*
X53230Y-26534D02*
X55009Y-26534D01*
X49070Y-26614D02*
X49864Y-26614D01*
X52389Y-26614D02*
X52413Y-26614D01*
X53271Y-26614D02*
X54975Y-26614D01*
X49070Y-26694D02*
X49831Y-26694D01*
X52389Y-26694D02*
X52413Y-26694D01*
X53297Y-26694D02*
X54956Y-26694D01*
X49050Y-26774D02*
X49797Y-26774D01*
X52389Y-26774D02*
X52413Y-26774D01*
X53324Y-26774D02*
X54956Y-26774D01*
X49017Y-26854D02*
X49782Y-26854D01*
X52389Y-26854D02*
X52413Y-26854D01*
X53294Y-26854D02*
X54973Y-26854D01*
X48981Y-26934D02*
X49782Y-26934D01*
X53260Y-26934D02*
X55006Y-26934D01*
X48901Y-27014D02*
X49782Y-27014D01*
X53321Y-27014D02*
X54798Y-27014D01*
X48805Y-27094D02*
X49810Y-27094D01*
X53311Y-27094D02*
X54670Y-27094D01*
X53690Y-27174D02*
X54529Y-27174D01*
X53786Y-27254D02*
X54454Y-27254D01*
X53821Y-27334D02*
X54420Y-27334D01*
X53826Y-27414D02*
X54397Y-27414D01*
X53826Y-27494D02*
X54397Y-27494D01*
X53826Y-27574D02*
X54410Y-27574D01*
X53826Y-27654D02*
X54443Y-27654D01*
X53826Y-27734D02*
X54506Y-27734D01*
X53826Y-27814D02*
X54617Y-27814D01*
X53826Y-27894D02*
X54706Y-27894D01*
X53826Y-27974D02*
X54786Y-27974D01*
X53826Y-28054D02*
X54813Y-28054D01*
X53826Y-28134D02*
X54813Y-28134D01*
X53826Y-28214D02*
X54813Y-28214D01*
X53806Y-28294D02*
X54813Y-28294D01*
X53752Y-28374D02*
X53848Y-28374D01*
X52175Y-28454D02*
X52579Y-28454D01*
X53122Y-28454D02*
X53760Y-28454D01*
X52201Y-28534D02*
X52513Y-28534D01*
X53188Y-28534D02*
X53727Y-28534D01*
X52211Y-28614D02*
X52480Y-28614D01*
X53221Y-28614D02*
X53723Y-28614D01*
X52211Y-28694D02*
X52464Y-28694D01*
X53236Y-28694D02*
X53723Y-28694D01*
X52211Y-28774D02*
X52464Y-28774D01*
X53236Y-28774D02*
X53723Y-28774D01*
X52211Y-28854D02*
X52484Y-28854D01*
X53215Y-28854D02*
X53723Y-28854D01*
X52211Y-28934D02*
X52517Y-28934D01*
X53182Y-28934D02*
X53723Y-28934D01*
X52211Y-29014D02*
X52590Y-29014D01*
X53109Y-29014D02*
X53723Y-29014D01*
X52211Y-29094D02*
X52725Y-29094D01*
X52975Y-29094D02*
X53723Y-29094D01*
X52211Y-29174D02*
X53723Y-29174D01*
X52211Y-29254D02*
X53723Y-29254D01*
X52211Y-29334D02*
X53216Y-29334D01*
X53683Y-29334D02*
X53723Y-29334D01*
X52211Y-29414D02*
X53136Y-29414D01*
X52211Y-29494D02*
X53095Y-29494D01*
X52211Y-29574D02*
X53063Y-29574D01*
X52211Y-29654D02*
X53063Y-29654D01*
X52211Y-29734D02*
X53067Y-29734D01*
X52211Y-29814D02*
X53100Y-29814D01*
X52211Y-29894D02*
X53135Y-29894D01*
X52211Y-29974D02*
X52343Y-29974D01*
X52564Y-29974D02*
X53156Y-29974D01*
X52707Y-30054D02*
X53209Y-30054D01*
X52783Y-30134D02*
X53284Y-30134D01*
X52817Y-30214D02*
X53383Y-30214D01*
X52839Y-30294D02*
X53622Y-30294D01*
X53623Y-30294D02*
X53629Y-30294D01*
X52839Y-30374D02*
X53634Y-30374D01*
X49128Y-30454D02*
X49164Y-30454D01*
X52065Y-30454D02*
X52079Y-30454D01*
X52826Y-30454D02*
X53667Y-30454D01*
X49128Y-30534D02*
X49182Y-30534D01*
X51985Y-30534D02*
X52112Y-30534D01*
X52792Y-30534D02*
X53723Y-30534D01*
X49128Y-30614D02*
X49169Y-30614D01*
X51905Y-30614D02*
X52175Y-30614D01*
X52730Y-30614D02*
X53723Y-30614D01*
X49128Y-30694D02*
X49169Y-30694D01*
X51825Y-30694D02*
X52285Y-30694D01*
X52621Y-30694D02*
X53723Y-30694D01*
X49128Y-30774D02*
X49191Y-30774D01*
X51745Y-30774D02*
X53723Y-30774D01*
X49128Y-30854D02*
X49225Y-30854D01*
X51665Y-30854D02*
X53723Y-30854D01*
X49128Y-30934D02*
X49301Y-30934D01*
X49808Y-30934D02*
X49908Y-30934D01*
X51558Y-30934D02*
X53723Y-30934D01*
X49128Y-31014D02*
X49444Y-31014D01*
X49665Y-31014D02*
X50002Y-31014D01*
X50391Y-31014D02*
X53723Y-31014D01*
X49128Y-31094D02*
X53724Y-31094D01*
X49128Y-31174D02*
X53723Y-31174D01*
X49128Y-31254D02*
X53723Y-31254D01*
X49128Y-31334D02*
X53723Y-31334D01*
X49128Y-31414D02*
X53723Y-31414D01*
X49128Y-31494D02*
X53723Y-31494D01*
X49128Y-31574D02*
X50140Y-31574D01*
X50608Y-31574D02*
X53723Y-31574D01*
X49128Y-31654D02*
X49627Y-31654D01*
X50688Y-31654D02*
X53723Y-31654D01*
X49128Y-31734D02*
X49533Y-31734D01*
X50729Y-31734D02*
X53723Y-31734D01*
X49128Y-31814D02*
X49453Y-31814D01*
X50760Y-31814D02*
X53723Y-31814D01*
X49112Y-31894D02*
X49373Y-31894D01*
X50760Y-31894D02*
X53723Y-31894D01*
X49073Y-31974D02*
X49293Y-31974D01*
X50755Y-31974D02*
X53723Y-31974D01*
X49009Y-32054D02*
X49234Y-32054D01*
X50721Y-32054D02*
X53723Y-32054D01*
X48929Y-32134D02*
X49203Y-32134D01*
X50671Y-32134D02*
X53723Y-32134D01*
X48840Y-32214D02*
X49190Y-32214D01*
X49872Y-32214D02*
X50158Y-32214D01*
X50590Y-32214D02*
X53723Y-32214D01*
X46984Y-32294D02*
X49190Y-32294D01*
X49792Y-32294D02*
X53723Y-32294D01*
X46978Y-32374D02*
X49190Y-32374D01*
X49770Y-32374D02*
X53723Y-32374D01*
X46944Y-32454D02*
X49190Y-32454D01*
X49770Y-32454D02*
X53723Y-32454D01*
X46892Y-32534D02*
X49190Y-32534D01*
X49770Y-32534D02*
X53723Y-32534D01*
X46807Y-32614D02*
X49190Y-32614D01*
X49770Y-32614D02*
X53723Y-32614D01*
X46441Y-32694D02*
X46471Y-32694D01*
X46471Y-32694D02*
X49124Y-32694D01*
X49770Y-32694D02*
X51968Y-32694D01*
X52261Y-32694D02*
X53723Y-32694D01*
X49764Y-32774D02*
X51846Y-32774D01*
X52383Y-32774D02*
X53723Y-32774D01*
X49748Y-32854D02*
X51779Y-32854D01*
X52451Y-32854D02*
X53723Y-32854D01*
X49697Y-32934D02*
X51745Y-32934D01*
X52484Y-32934D02*
X53723Y-32934D01*
X49623Y-33014D02*
X51728Y-33014D01*
X52500Y-33014D02*
X53723Y-33014D01*
X49542Y-33094D02*
X51728Y-33094D01*
X52500Y-33094D02*
X53723Y-33094D01*
X49530Y-33174D02*
X51747Y-33174D01*
X52480Y-33174D02*
X53723Y-33174D01*
X49610Y-33254D02*
X51780Y-33254D01*
X52447Y-33254D02*
X53723Y-33254D01*
X49687Y-33334D02*
X51851Y-33334D01*
X52376Y-33334D02*
X53723Y-33334D01*
X49740Y-33414D02*
X51982Y-33414D01*
X52246Y-33414D02*
X53723Y-33414D01*
X49757Y-33494D02*
X53723Y-33494D01*
X46415Y-33574D02*
X46471Y-33574D01*
X46472Y-33574D02*
X49109Y-33574D01*
X49763Y-33574D02*
X53723Y-33574D01*
X46471Y-33654D02*
X49183Y-33654D01*
X49763Y-33654D02*
X53723Y-33654D01*
X46447Y-33734D02*
X49183Y-33734D01*
X49763Y-33734D02*
X53723Y-33734D01*
X46408Y-33814D02*
X49183Y-33814D01*
X49763Y-33814D02*
X53723Y-33814D01*
X46371Y-33894D02*
X49183Y-33894D01*
X49813Y-33894D02*
X53723Y-33894D01*
X46371Y-33974D02*
X49184Y-33974D01*
X49893Y-33974D02*
X50066Y-33974D01*
X50516Y-33974D02*
X53723Y-33974D01*
X46371Y-34054D02*
X49200Y-34054D01*
X50596Y-34054D02*
X53723Y-34054D01*
X46371Y-34134D02*
X49243Y-34134D01*
X50643Y-34134D02*
X53723Y-34134D01*
X46371Y-34214D02*
X49311Y-34214D01*
X50676Y-34214D02*
X53723Y-34214D01*
X46371Y-34294D02*
X49391Y-34294D01*
X50677Y-34294D02*
X53723Y-34294D01*
X46371Y-34374D02*
X49471Y-34374D01*
X50676Y-34374D02*
X53723Y-34374D01*
X46371Y-34454D02*
X49551Y-34454D01*
X50642Y-34454D02*
X53723Y-34454D01*
X46371Y-34534D02*
X49647Y-34534D01*
X50597Y-34534D02*
X53723Y-34534D01*
X46371Y-34614D02*
X50064Y-34614D01*
X50517Y-34614D02*
X53723Y-34614D01*
X46371Y-34694D02*
X53723Y-34694D01*
X46371Y-34774D02*
X53723Y-34774D01*
X46371Y-34854D02*
X53723Y-34854D01*
X46371Y-34934D02*
X53723Y-34934D01*
X46371Y-35014D02*
X53711Y-35014D01*
X46371Y-35094D02*
X53658Y-35094D01*
X46371Y-35174D02*
X48307Y-35174D01*
X48504Y-35174D02*
X53625Y-35174D01*
X46371Y-35254D02*
X48157Y-35254D01*
X48654Y-35254D02*
X53622Y-35254D01*
X53623Y-35254D02*
X53653Y-35254D01*
X44288Y-35334D02*
X44340Y-35334D01*
X46371Y-35334D02*
X48078Y-35334D01*
X48733Y-35334D02*
X53623Y-35334D01*
X53623Y-35334D02*
X53664Y-35334D01*
X44288Y-35414D02*
X44465Y-35414D01*
X46371Y-35414D02*
X48045Y-35414D01*
X48767Y-35414D02*
X53623Y-35414D01*
X53623Y-35414D02*
X53629Y-35414D01*
X44288Y-35494D02*
X44465Y-35494D01*
X46371Y-35494D02*
X48019Y-35494D01*
X48791Y-35494D02*
X53622Y-35494D01*
X53623Y-35494D02*
X53633Y-35494D01*
X44288Y-35574D02*
X44465Y-35574D01*
X46371Y-35574D02*
X48019Y-35574D01*
X48843Y-35574D02*
X53667Y-35574D01*
X44288Y-35654D02*
X44495Y-35654D01*
X46371Y-35654D02*
X48029Y-35654D01*
X48897Y-35654D02*
X53623Y-35654D01*
X53623Y-35654D02*
X53644Y-35654D01*
X44288Y-35734D02*
X44528Y-35734D01*
X46357Y-35734D02*
X48063Y-35734D01*
X48919Y-35734D02*
X48953Y-35734D01*
X49124Y-35734D02*
X53627Y-35734D01*
X44288Y-35814D02*
X44607Y-35814D01*
X46312Y-35814D02*
X46430Y-35814D01*
X44288Y-35894D02*
X44740Y-35894D01*
X45039Y-35894D02*
X45255Y-35894D01*
X46187Y-35894D02*
X46318Y-35894D01*
X44288Y-35974D02*
X46278Y-35974D01*
X44288Y-36054D02*
X46268Y-36054D01*
X44288Y-36134D02*
X44653Y-36134D01*
X45127Y-36134D02*
X46268Y-36134D01*
X44288Y-36214D02*
X44571Y-36214D01*
X45209Y-36214D02*
X46268Y-36214D01*
X44288Y-36294D02*
X44514Y-36294D01*
X45267Y-36294D02*
X46268Y-36294D01*
X44288Y-36374D02*
X44481Y-36374D01*
X45300Y-36374D02*
X46268Y-36374D01*
X44288Y-36454D02*
X44465Y-36454D01*
X45315Y-36454D02*
X46268Y-36454D01*
X44288Y-36534D02*
X44465Y-36534D01*
X45315Y-36534D02*
X46268Y-36534D01*
X44288Y-36614D02*
X44478Y-36614D01*
X45301Y-36614D02*
X46268Y-36614D01*
X44288Y-36694D02*
X44511Y-36694D01*
X45267Y-36694D02*
X46268Y-36694D01*
X44288Y-36774D02*
X44567Y-36774D01*
X45213Y-36774D02*
X46268Y-36774D01*
X44288Y-36854D02*
X44647Y-36854D01*
X45133Y-36854D02*
X46268Y-36854D01*
X44288Y-36934D02*
X46283Y-36934D01*
X44288Y-37014D02*
X46332Y-37014D01*
X44288Y-37094D02*
X44752Y-37094D01*
X45013Y-37094D02*
X46462Y-37094D01*
X46719Y-37094D02*
X46719Y-37094D01*
X46974Y-37094D02*
X46974Y-37094D01*
X47229Y-37094D02*
X47229Y-37094D01*
X47484Y-37094D02*
X47484Y-37094D01*
X47739Y-37094D02*
X47743Y-37094D01*
X48509Y-37094D02*
X48509Y-37094D01*
X48880Y-37094D02*
X48904Y-37094D01*
X49279Y-37094D02*
X49279Y-37094D01*
X49534Y-37094D02*
X49534Y-37094D01*
X49789Y-37094D02*
X49789Y-37094D01*
X44288Y-37174D02*
X44607Y-37174D01*
X45157Y-37174D02*
X47795Y-37174D01*
X48474Y-37174D02*
X48693Y-37174D01*
X48816Y-37174D02*
X48967Y-37174D01*
X49090Y-37174D02*
X49794Y-37174D01*
X52389Y-37174D02*
X52413Y-37174D01*
X44288Y-37254D02*
X44527Y-37254D01*
X45237Y-37254D02*
X47761Y-37254D01*
X48508Y-37254D02*
X49782Y-37254D01*
X51480Y-37254D02*
X51514Y-37254D01*
X52389Y-37254D02*
X52413Y-37254D01*
X44288Y-37334D02*
X44491Y-37334D01*
X45274Y-37334D02*
X47748Y-37334D01*
X48520Y-37334D02*
X49782Y-37334D01*
X51480Y-37334D02*
X51536Y-37334D01*
X52389Y-37334D02*
X52413Y-37334D01*
X44288Y-37414D02*
X44458Y-37414D01*
X45307Y-37414D02*
X47748Y-37414D01*
X48520Y-37414D02*
X49782Y-37414D01*
X52389Y-37414D02*
X52413Y-37414D01*
X44288Y-37494D02*
X44457Y-37494D01*
X45307Y-37494D02*
X47770Y-37494D01*
X48496Y-37494D02*
X49814Y-37494D01*
X51446Y-37494D02*
X51492Y-37494D01*
X52389Y-37494D02*
X52413Y-37494D01*
X44288Y-37574D02*
X44457Y-37574D01*
X45307Y-37574D02*
X47804Y-37574D01*
X48463Y-37574D02*
X49847Y-37574D01*
X51413Y-37574D02*
X51519Y-37574D01*
X52389Y-37574D02*
X52413Y-37574D01*
X44288Y-37654D02*
X44485Y-37654D01*
X45278Y-37654D02*
X47880Y-37654D01*
X48387Y-37654D02*
X49906Y-37654D01*
X51356Y-37654D02*
X51546Y-37654D01*
X52389Y-37654D02*
X52413Y-37654D01*
X44288Y-37734D02*
X44518Y-37734D01*
X45244Y-37734D02*
X47419Y-37734D01*
X47660Y-37734D02*
X48023Y-37734D01*
X48244Y-37734D02*
X49986Y-37734D01*
X51276Y-37734D02*
X51614Y-37734D01*
X52389Y-37734D02*
X52413Y-37734D01*
X44288Y-37814D02*
X44595Y-37814D01*
X45169Y-37814D02*
X47282Y-37814D01*
X47797Y-37814D02*
X49849Y-37814D01*
X51122Y-37814D02*
X51692Y-37814D01*
X52389Y-37814D02*
X52413Y-37814D01*
X44288Y-37894D02*
X44722Y-37894D01*
X45041Y-37894D02*
X47208Y-37894D01*
X47871Y-37894D02*
X49753Y-37894D01*
X50326Y-37894D02*
X51827Y-37894D01*
X52389Y-37894D02*
X52413Y-37894D01*
X44288Y-37974D02*
X46271Y-37974D01*
X46944Y-37974D02*
X47175Y-37974D01*
X47904Y-37974D02*
X49696Y-37974D01*
X50383Y-37974D02*
X52944Y-37974D01*
X44288Y-38054D02*
X46062Y-38054D01*
X47122Y-38054D02*
X47153Y-38054D01*
X47925Y-38054D02*
X49663Y-38054D01*
X50416Y-38054D02*
X52944Y-38054D01*
X44333Y-38134D02*
X45967Y-38134D01*
X47925Y-38134D02*
X49653Y-38134D01*
X50425Y-38134D02*
X52944Y-38134D01*
X44413Y-38214D02*
X45164Y-38214D01*
X45348Y-38214D02*
X45936Y-38214D01*
X47910Y-38214D02*
X49653Y-38214D01*
X50425Y-38214D02*
X52944Y-38214D01*
X44493Y-38294D02*
X45005Y-38294D01*
X45502Y-38294D02*
X45879Y-38294D01*
X45903Y-38294D02*
X45937Y-38294D01*
X47876Y-38294D02*
X49679Y-38294D01*
X50398Y-38294D02*
X52944Y-38294D01*
X44573Y-38374D02*
X44931Y-38374D01*
X45582Y-38374D02*
X45718Y-38374D01*
X45983Y-38374D02*
X46017Y-38374D01*
X47812Y-38374D02*
X49241Y-38374D01*
X49452Y-38374D02*
X49714Y-38374D01*
X50363Y-38374D02*
X52971Y-38374D01*
X44653Y-38454D02*
X44897Y-38454D01*
X45616Y-38454D02*
X45682Y-38454D01*
X46063Y-38454D02*
X46097Y-38454D01*
X47697Y-38454D02*
X49095Y-38454D01*
X49598Y-38454D02*
X49794Y-38454D01*
X50283Y-38454D02*
X53036Y-38454D01*
X44733Y-38534D02*
X44870Y-38534D01*
X45642Y-38534D02*
X45646Y-38534D01*
X46143Y-38534D02*
X46177Y-38534D01*
X47562Y-38534D02*
X49018Y-38534D01*
X49676Y-38534D02*
X49950Y-38534D01*
X50128Y-38534D02*
X53062Y-38534D01*
X44813Y-38614D02*
X44870Y-38614D01*
X46223Y-38614D02*
X46257Y-38614D01*
X47593Y-38614D02*
X48984Y-38614D01*
X49709Y-38614D02*
X52980Y-38614D01*
X46303Y-38694D02*
X46337Y-38694D01*
X47623Y-38694D02*
X48960Y-38694D01*
X49732Y-38694D02*
X52947Y-38694D01*
X46383Y-38774D02*
X46417Y-38774D01*
X47654Y-38774D02*
X48960Y-38774D01*
X46463Y-38854D02*
X46497Y-38854D01*
X47660Y-38854D02*
X48972Y-38854D01*
X46543Y-38934D02*
X46577Y-38934D01*
X47658Y-38934D02*
X49005Y-38934D01*
X46546Y-39014D02*
X46547Y-39014D01*
X46623Y-39014D02*
X46657Y-39014D01*
X47655Y-39014D02*
X49066Y-39014D01*
X46466Y-39094D02*
X46467Y-39094D01*
X46703Y-39094D02*
X46737Y-39094D01*
X47653Y-39094D02*
X49173Y-39094D01*
X46386Y-39174D02*
X46387Y-39174D01*
X46783Y-39174D02*
X46817Y-39174D01*
X47651Y-39174D02*
X49361Y-39174D01*
X46306Y-39254D02*
X46307Y-39254D01*
X46863Y-39254D02*
X46897Y-39254D01*
X47632Y-39254D02*
X49441Y-39254D01*
X46226Y-39334D02*
X46227Y-39334D01*
X46943Y-39334D02*
X46977Y-39334D01*
X47596Y-39334D02*
X49039Y-39334D01*
X49246Y-39334D02*
X49565Y-39334D01*
X46146Y-39414D02*
X46147Y-39414D01*
X47023Y-39414D02*
X47057Y-39414D01*
X47560Y-39414D02*
X48892Y-39414D01*
X49393Y-39414D02*
X50012Y-39414D01*
X47103Y-39494D02*
X47137Y-39494D01*
X47524Y-39494D02*
X48814Y-39494D01*
X49471Y-39494D02*
X49932Y-39494D01*
X47183Y-39574D02*
X47217Y-39574D01*
X47488Y-39574D02*
X48781Y-39574D01*
X49504Y-39574D02*
X49860Y-39574D01*
X47263Y-39654D02*
X47297Y-39654D01*
X47335Y-39654D02*
X48756Y-39654D01*
X49528Y-39654D02*
X49826Y-39654D01*
X47270Y-39734D02*
X48756Y-39734D01*
X49528Y-39734D02*
X49793Y-39734D01*
X47238Y-39814D02*
X48767Y-39814D01*
X49516Y-39814D02*
X49782Y-39814D01*
X47153Y-39894D02*
X48800Y-39894D01*
X49482Y-39894D02*
X49782Y-39894D01*
X46944Y-39974D02*
X48861Y-39974D01*
X49422Y-39974D02*
X49782Y-39974D01*
X55021Y-31110D02*
X55021Y-31110D01*
X55021Y-31190D02*
X55092Y-31190D01*
X57866Y-31190D02*
X57890Y-31190D01*
X55021Y-31270D02*
X55540Y-31270D01*
X55792Y-31270D02*
X55800Y-31270D01*
X56115Y-31270D02*
X56123Y-31270D01*
X56375Y-31270D02*
X56820Y-31270D01*
X57843Y-31270D02*
X57913Y-31270D01*
X55021Y-31350D02*
X56992Y-31350D01*
X57764Y-31350D02*
X58065Y-31350D01*
X55021Y-31430D02*
X57004Y-31430D01*
X57751Y-31430D02*
X58081Y-31430D01*
X55021Y-31510D02*
X55504Y-31510D01*
X55802Y-31510D02*
X57037Y-31510D01*
X57717Y-31510D02*
X58120Y-31510D01*
X55021Y-31590D02*
X55384Y-31590D01*
X55923Y-31590D02*
X57099Y-31590D01*
X57656Y-31590D02*
X58181Y-31590D01*
X55021Y-31670D02*
X55317Y-31670D01*
X55990Y-31670D02*
X57207Y-31670D01*
X57548Y-31670D02*
X58228Y-31670D01*
X55021Y-31750D02*
X55284Y-31750D01*
X56023Y-31750D02*
X58262Y-31750D01*
X55021Y-31830D02*
X55267Y-31830D01*
X56039Y-31830D02*
X58335Y-31830D01*
X55021Y-31910D02*
X55267Y-31910D01*
X56039Y-31910D02*
X58472Y-31910D01*
X55021Y-31990D02*
X55286Y-31990D01*
X56019Y-31990D02*
X58465Y-31990D01*
X55021Y-32070D02*
X55319Y-32070D01*
X55985Y-32070D02*
X58468Y-32070D01*
X55021Y-32150D02*
X55391Y-32150D01*
X55914Y-32150D02*
X56279Y-32150D01*
X56644Y-32150D02*
X58484Y-32150D01*
X55925Y-32230D02*
X56178Y-32230D01*
X56745Y-32230D02*
X58518Y-32230D01*
X56029Y-32310D02*
X56111Y-32310D01*
X56804Y-32310D02*
X58572Y-32310D01*
X56837Y-32390D02*
X58644Y-32390D01*
X56847Y-32470D02*
X58724Y-32470D01*
X56847Y-32550D02*
X58804Y-32550D01*
X56821Y-32630D02*
X58884Y-32630D01*
X56788Y-32710D02*
X58964Y-32710D01*
X56708Y-32790D02*
X58985Y-32790D01*
X56557Y-32870D02*
X58985Y-32870D01*
X56413Y-32950D02*
X56673Y-32950D01*
X56775Y-32950D02*
X56941Y-32950D01*
X57044Y-32950D02*
X58985Y-32950D01*
X56413Y-33030D02*
X56539Y-33030D01*
X56846Y-33030D02*
X56870Y-33030D01*
X57177Y-33030D02*
X58985Y-33030D01*
X58906Y-33110D02*
X58985Y-33110D01*
X58959Y-33190D02*
X58985Y-33190D01*
X58977Y-33270D02*
X58985Y-33270D01*
X58977Y-33350D02*
X58985Y-33350D01*
X58977Y-33430D02*
X58985Y-33430D01*
X58977Y-33510D02*
X58985Y-33510D01*
X58977Y-33590D02*
X58985Y-33590D01*
X58977Y-33670D02*
X58985Y-33670D01*
X58977Y-33750D02*
X58985Y-33750D01*
X58977Y-33830D02*
X58985Y-33830D01*
X58945Y-33910D02*
X58985Y-33910D01*
X56846Y-33990D02*
X56870Y-33990D01*
X58874Y-33990D02*
X58936Y-33990D01*
X56823Y-34070D02*
X56893Y-34070D01*
X57145Y-34070D02*
X58858Y-34070D01*
X56628Y-34150D02*
X58834Y-34150D01*
X56628Y-34230D02*
X58830Y-34230D01*
X56617Y-34310D02*
X58830Y-34310D01*
X56590Y-34390D02*
X58830Y-34390D01*
X56534Y-34470D02*
X58830Y-34470D01*
X56430Y-34550D02*
X58830Y-34550D01*
X55705Y-34630D02*
X58830Y-34630D01*
X55674Y-34710D02*
X58830Y-34710D01*
X55633Y-34790D02*
X58830Y-34790D01*
X55021Y-34870D02*
X55084Y-34870D01*
X55553Y-34870D02*
X58830Y-34870D01*
X55021Y-34950D02*
X58830Y-34950D01*
X55049Y-35030D02*
X58830Y-35030D01*
X55094Y-35110D02*
X58830Y-35110D01*
X55121Y-35190D02*
X58830Y-35190D01*
X55074Y-35270D02*
X55121Y-35270D01*
X55121Y-35270D02*
X58830Y-35270D01*
X55087Y-35350D02*
X55121Y-35350D01*
X55122Y-35350D02*
X58830Y-35350D01*
X55121Y-35430D02*
X58830Y-35430D01*
X55102Y-35510D02*
X55121Y-35510D01*
X55121Y-35510D02*
X58830Y-35510D01*
X55070Y-35590D02*
X55121Y-35590D01*
X55122Y-35590D02*
X58830Y-35590D01*
X55116Y-35670D02*
X55121Y-35670D01*
X55122Y-35670D02*
X58830Y-35670D01*
X55109Y-35750D02*
X58830Y-35750D01*
X55076Y-35830D02*
X58830Y-35830D01*
X55007Y-35910D02*
X58830Y-35910D01*
X53823Y-35990D02*
X53876Y-35990D01*
X54867Y-35990D02*
X58830Y-35990D01*
X53826Y-36070D02*
X54161Y-36070D01*
X54762Y-36070D02*
X58830Y-36070D01*
X53826Y-36150D02*
X54112Y-36150D01*
X54811Y-36150D02*
X58830Y-36150D01*
X53826Y-36230D02*
X54079Y-36230D01*
X54844Y-36230D02*
X58830Y-36230D01*
X53826Y-36310D02*
X54075Y-36310D01*
X54847Y-36310D02*
X58098Y-36310D01*
X58343Y-36310D02*
X58830Y-36310D01*
X53826Y-36390D02*
X54075Y-36390D01*
X54847Y-36390D02*
X56175Y-36390D01*
X56329Y-36390D02*
X57962Y-36390D01*
X58486Y-36390D02*
X58830Y-36390D01*
X53827Y-36470D02*
X54107Y-36470D01*
X54814Y-36470D02*
X56013Y-36470D01*
X56492Y-36470D02*
X57889Y-36470D01*
X58588Y-36470D02*
X58830Y-36470D01*
X53827Y-36550D02*
X54150Y-36550D01*
X54771Y-36550D02*
X55933Y-36550D01*
X56572Y-36550D02*
X57855Y-36550D01*
X58641Y-36550D02*
X58830Y-36550D01*
X53827Y-36630D02*
X54230Y-36630D01*
X54691Y-36630D02*
X55895Y-36630D01*
X56610Y-36630D02*
X57834Y-36630D01*
X58658Y-36630D02*
X58830Y-36630D01*
X53827Y-36710D02*
X55866Y-36710D01*
X56638Y-36710D02*
X57834Y-36710D01*
X58660Y-36710D02*
X58830Y-36710D01*
X53827Y-36790D02*
X55866Y-36790D01*
X56638Y-36790D02*
X57848Y-36790D01*
X58644Y-36790D02*
X58830Y-36790D01*
X53827Y-36870D02*
X55873Y-36870D01*
X56630Y-36870D02*
X57882Y-36870D01*
X58596Y-36870D02*
X58830Y-36870D01*
X53827Y-36950D02*
X55906Y-36950D01*
X56597Y-36950D02*
X57947Y-36950D01*
X58506Y-36950D02*
X58830Y-36950D01*
X53827Y-37030D02*
X55960Y-37030D01*
X56543Y-37030D02*
X58065Y-37030D01*
X58376Y-37030D02*
X58830Y-37030D01*
X53827Y-37110D02*
X56052Y-37110D01*
X53829Y-37190D02*
X55972Y-37190D01*
X53862Y-37270D02*
X55892Y-37270D01*
X53886Y-37350D02*
X55812Y-37350D01*
X54052Y-37430D02*
X55732Y-37430D01*
X54121Y-37510D02*
X55652Y-37510D01*
X54150Y-37590D02*
X55572Y-37590D01*
X54150Y-37670D02*
X55492Y-37670D01*
X54150Y-37750D02*
X55412Y-37750D01*
X54150Y-37830D02*
X55332Y-37830D01*
X54150Y-37910D02*
X55252Y-37910D01*
X54150Y-37990D02*
X55172Y-37990D01*
X54150Y-38070D02*
X54262Y-38070D01*
X54660Y-38070D02*
X55092Y-38070D01*
X54150Y-38150D02*
X54170Y-38150D01*
X54752Y-38150D02*
X55012Y-38150D01*
X54807Y-38230D02*
X54932Y-38230D01*
X54840Y-38310D02*
X54852Y-38310D01*
X54360Y-35565D02*
X54384Y-35565D01*
X49021Y-28443D02*
X49021Y-28443D01*
X46684Y-28523D02*
X47582Y-28523D01*
X48303Y-28523D02*
X48658Y-28523D01*
X49018Y-28523D02*
X49976Y-28523D01*
X50102Y-28523D02*
X50142Y-28523D01*
X46684Y-28603D02*
X47571Y-28603D01*
X48336Y-28603D02*
X48556Y-28603D01*
X49121Y-28603D02*
X50142Y-28603D01*
X46684Y-28683D02*
X47567Y-28683D01*
X48339Y-28683D02*
X48497Y-28683D01*
X49180Y-28683D02*
X50145Y-28683D01*
X46684Y-28763D02*
X47567Y-28763D01*
X48339Y-28763D02*
X48463Y-28763D01*
X49214Y-28763D02*
X50161Y-28763D01*
X46684Y-28843D02*
X46816Y-28843D01*
X47066Y-28843D02*
X47598Y-28843D01*
X48306Y-28843D02*
X48452Y-28843D01*
X49224Y-28843D02*
X50209Y-28843D01*
X47201Y-28923D02*
X47641Y-28923D01*
X48264Y-28923D02*
X48452Y-28923D01*
X49224Y-28923D02*
X50281Y-28923D01*
X47274Y-29003D02*
X47721Y-29003D01*
X48184Y-29003D02*
X48476Y-29003D01*
X49198Y-29003D02*
X50300Y-29003D01*
X47307Y-29083D02*
X48510Y-29083D01*
X49165Y-29083D02*
X50333Y-29083D01*
X47327Y-29163D02*
X48548Y-29163D01*
X49128Y-29163D02*
X50385Y-29163D01*
X47327Y-29243D02*
X48548Y-29243D01*
X49128Y-29243D02*
X50470Y-29243D01*
X50892Y-29243D02*
X50934Y-29243D01*
X47311Y-29323D02*
X48548Y-29323D01*
X49128Y-29323D02*
X50934Y-29323D01*
X47278Y-29403D02*
X48548Y-29403D01*
X49128Y-29403D02*
X50934Y-29403D01*
X47212Y-29483D02*
X48548Y-29483D01*
X49128Y-29483D02*
X49271Y-29483D01*
X46684Y-29563D02*
X46787Y-29563D01*
X47095Y-29563D02*
X48548Y-29563D01*
X49128Y-29563D02*
X49165Y-29563D01*
X46684Y-29643D02*
X48548Y-29643D01*
X46684Y-29723D02*
X48548Y-29723D01*
X46684Y-29803D02*
X48548Y-29803D01*
X46684Y-29883D02*
X48548Y-29883D01*
X46684Y-29963D02*
X48548Y-29963D01*
X46684Y-30043D02*
X48548Y-30043D01*
X46684Y-30123D02*
X48548Y-30123D01*
X46684Y-30203D02*
X48548Y-30203D01*
X46684Y-30283D02*
X48548Y-30283D01*
X46678Y-30363D02*
X48548Y-30363D01*
X46662Y-30443D02*
X48548Y-30443D01*
X46609Y-30523D02*
X48548Y-30523D01*
X46535Y-30603D02*
X48548Y-30603D01*
X46444Y-30683D02*
X48548Y-30683D01*
X46371Y-30763D02*
X48548Y-30763D01*
X46371Y-30843D02*
X48548Y-30843D01*
X46371Y-30923D02*
X48548Y-30923D01*
X46371Y-31003D02*
X48548Y-31003D01*
X46371Y-31083D02*
X48548Y-31083D01*
X46372Y-31163D02*
X46545Y-31163D01*
X46786Y-31163D02*
X48548Y-31163D01*
X46923Y-31243D02*
X48548Y-31243D01*
X46997Y-31323D02*
X48548Y-31323D01*
X47030Y-31403D02*
X48548Y-31403D01*
X47051Y-31483D02*
X48548Y-31483D01*
X47051Y-31563D02*
X48548Y-31563D01*
X47036Y-31643D02*
X48548Y-31643D01*
X58220Y-27126D02*
X58816Y-27126D01*
X58304Y-27206D02*
X58830Y-27206D01*
X58463Y-27286D02*
X58830Y-27286D01*
X58550Y-27366D02*
X58830Y-27366D01*
X58603Y-27446D02*
X58830Y-27446D01*
X58636Y-27526D02*
X58830Y-27526D01*
X58642Y-27606D02*
X58830Y-27606D01*
X58642Y-27686D02*
X58830Y-27686D01*
X58612Y-27766D02*
X58830Y-27766D01*
X58573Y-27846D02*
X58830Y-27846D01*
X58493Y-27926D02*
X58830Y-27926D01*
X58225Y-28006D02*
X58830Y-28006D01*
X58145Y-28086D02*
X58830Y-28086D01*
X58065Y-28166D02*
X58830Y-28166D01*
X57985Y-28246D02*
X58830Y-28246D01*
X57908Y-28326D02*
X58830Y-28326D01*
X57908Y-28406D02*
X58830Y-28406D01*
X57908Y-28486D02*
X58830Y-28486D01*
X57908Y-28566D02*
X58830Y-28566D01*
X57908Y-28646D02*
X58830Y-28646D01*
X57908Y-28726D02*
X58830Y-28726D01*
X57908Y-28806D02*
X58830Y-28806D01*
X57908Y-28886D02*
X58830Y-28886D01*
X57908Y-28966D02*
X58830Y-28966D01*
X57908Y-29046D02*
X58830Y-29046D01*
X57908Y-29126D02*
X58830Y-29126D01*
X57908Y-29206D02*
X58830Y-29206D01*
X57908Y-29286D02*
X58830Y-29286D01*
X57908Y-29366D02*
X58137Y-29366D01*
X58478Y-29366D02*
X58830Y-29366D01*
X57908Y-29446D02*
X58029Y-29446D01*
X58586Y-29446D02*
X58830Y-29446D01*
X57908Y-29526D02*
X57968Y-29526D01*
X58648Y-29526D02*
X58830Y-29526D01*
X57908Y-29606D02*
X57934Y-29606D01*
X58681Y-29606D02*
X58830Y-29606D01*
X57908Y-29686D02*
X57921Y-29686D01*
X58693Y-29686D02*
X58830Y-29686D01*
X57908Y-29766D02*
X57921Y-29766D01*
X57908Y-29846D02*
X57944Y-29846D01*
X57908Y-29926D02*
X57977Y-29926D01*
X57908Y-30006D02*
X57966Y-30006D01*
X57894Y-30086D02*
X57905Y-30086D01*
X54384Y-35589D02*
X54384Y-35565D01*
X54360Y-35565D01*
X54360Y-35589D01*
X54384Y-35589D01*
X47939Y-24134D02*
X48142Y-24134D01*
X48899Y-24134D02*
X49040Y-24134D01*
X49739Y-24134D02*
X49831Y-24134D01*
X51431Y-24134D02*
X51601Y-24134D01*
X47998Y-24214D02*
X48134Y-24214D01*
X48908Y-24214D02*
X49008Y-24214D01*
X49773Y-24214D02*
X49798Y-24214D01*
X51464Y-24214D02*
X51568Y-24214D01*
X48180Y-24294D02*
X48214Y-24294D01*
X48828Y-24294D02*
X48862Y-24294D01*
X49776Y-24294D02*
X49782Y-24294D01*
X51480Y-24294D02*
X51552Y-24294D01*
X53250Y-24294D02*
X53284Y-24294D01*
X48260Y-24374D02*
X48294Y-24374D01*
X48748Y-24374D02*
X48782Y-24374D01*
X49776Y-24374D02*
X49782Y-24374D01*
X51480Y-24374D02*
X51552Y-24374D01*
X53250Y-24374D02*
X53364Y-24374D01*
X48340Y-24454D02*
X48374Y-24454D01*
X48668Y-24454D02*
X48702Y-24454D01*
X49743Y-24454D02*
X49782Y-24454D01*
X51480Y-24454D02*
X51552Y-24454D01*
X53250Y-24454D02*
X53444Y-24454D01*
X48420Y-24534D02*
X48454Y-24534D01*
X48588Y-24534D02*
X48622Y-24534D01*
X49700Y-24534D02*
X49810Y-24534D01*
X51451Y-24534D02*
X51580Y-24534D01*
X53221Y-24534D02*
X53524Y-24534D01*
X48500Y-24614D02*
X48542Y-24614D01*
X49156Y-24614D02*
X49159Y-24614D01*
X49620Y-24614D02*
X49843Y-24614D01*
X51418Y-24614D02*
X51613Y-24614D01*
X53188Y-24614D02*
X53604Y-24614D01*
X48428Y-24694D02*
X48462Y-24694D01*
X48580Y-24694D02*
X48614Y-24694D01*
X49155Y-24694D02*
X49895Y-24694D01*
X51367Y-24694D02*
X51665Y-24694D01*
X53137Y-24694D02*
X53684Y-24694D01*
X48348Y-24774D02*
X48382Y-24774D01*
X48660Y-24774D02*
X48694Y-24774D01*
X49147Y-24774D02*
X49975Y-24774D01*
X51287Y-24774D02*
X51745Y-24774D01*
X53057Y-24774D02*
X53171Y-24774D01*
X53545Y-24774D02*
X53764Y-24774D01*
X48268Y-24854D02*
X48302Y-24854D01*
X48740Y-24854D02*
X48774Y-24854D01*
X49112Y-24854D02*
X50112Y-24854D01*
X51149Y-24854D02*
X51882Y-24854D01*
X52919Y-24854D02*
X53073Y-24854D01*
X53644Y-24854D02*
X53844Y-24854D01*
X48188Y-24934D02*
X48222Y-24934D01*
X48820Y-24934D02*
X48854Y-24934D01*
X49077Y-24934D02*
X53016Y-24934D01*
X53702Y-24934D02*
X53924Y-24934D01*
X48000Y-25014D02*
X48142Y-25014D01*
X48900Y-25014D02*
X52982Y-25014D01*
X53735Y-25014D02*
X54004Y-25014D01*
X47947Y-25094D02*
X48141Y-25094D01*
X48900Y-25094D02*
X52972Y-25094D01*
X53744Y-25094D02*
X54084Y-25094D01*
X47853Y-25174D02*
X48139Y-25174D01*
X48846Y-25174D02*
X52972Y-25174D01*
X53744Y-25174D02*
X54164Y-25174D01*
X47933Y-25254D02*
X48059Y-25254D01*
X48883Y-25254D02*
X52998Y-25254D01*
X53717Y-25254D02*
X54244Y-25254D01*
X48948Y-25334D02*
X53032Y-25334D01*
X53683Y-25334D02*
X54324Y-25334D01*
X48981Y-25414D02*
X53112Y-25414D01*
X53603Y-25414D02*
X54404Y-25414D01*
X49014Y-25494D02*
X53266Y-25494D01*
X53449Y-25494D02*
X54484Y-25494D01*
X49020Y-25574D02*
X54564Y-25574D01*
X49020Y-25654D02*
X54644Y-25654D01*
X49017Y-25734D02*
X54724Y-25734D01*
X48983Y-25814D02*
X54804Y-25814D01*
X48950Y-25894D02*
X54884Y-25894D01*
X48891Y-25974D02*
X54964Y-25974D01*
X48811Y-26054D02*
X51317Y-26054D01*
X51691Y-26054D02*
X55044Y-26054D01*
X48787Y-26134D02*
X51219Y-26134D01*
X51790Y-26134D02*
X55124Y-26134D01*
X48893Y-26214D02*
X51162Y-26214D01*
X51848Y-26214D02*
X55204Y-26214D01*
X48973Y-26294D02*
X51128Y-26294D01*
X51881Y-26294D02*
X51914Y-26294D01*
X52389Y-26294D02*
X52413Y-26294D01*
X52888Y-26294D02*
X55284Y-26294D01*
X49014Y-26374D02*
X51118Y-26374D01*
X52389Y-26374D02*
X52413Y-26374D01*
X53073Y-26374D02*
X55193Y-26374D01*
X49048Y-26454D02*
X50035Y-26454D01*
X52389Y-26454D02*
X52413Y-26454D01*
X53152Y-26454D02*
X55069Y-26454D01*
X49070Y-26534D02*
X49943Y-26534D01*
X52389Y-26534D02*
X52413Y-26534D01*
X53230Y-26534D02*
X55009Y-26534D01*
X49070Y-26614D02*
X49864Y-26614D01*
X52389Y-26614D02*
X52413Y-26614D01*
X53271Y-26614D02*
X54975Y-26614D01*
X49070Y-26694D02*
X49831Y-26694D01*
X52389Y-26694D02*
X52413Y-26694D01*
X53297Y-26694D02*
X54956Y-26694D01*
X49050Y-26774D02*
X49797Y-26774D01*
X52389Y-26774D02*
X52413Y-26774D01*
X53324Y-26774D02*
X54956Y-26774D01*
X49017Y-26854D02*
X49782Y-26854D01*
X52389Y-26854D02*
X52413Y-26854D01*
X53294Y-26854D02*
X54973Y-26854D01*
X48981Y-26934D02*
X49782Y-26934D01*
X53260Y-26934D02*
X55006Y-26934D01*
X48901Y-27014D02*
X49782Y-27014D01*
X53321Y-27014D02*
X54798Y-27014D01*
X48805Y-27094D02*
X49810Y-27094D01*
X53311Y-27094D02*
X54670Y-27094D01*
X53690Y-27174D02*
X54529Y-27174D01*
X53786Y-27254D02*
X54454Y-27254D01*
X53821Y-27334D02*
X54420Y-27334D01*
X53826Y-27414D02*
X54397Y-27414D01*
X53826Y-27494D02*
X54397Y-27494D01*
X53826Y-27574D02*
X54410Y-27574D01*
X53826Y-27654D02*
X54443Y-27654D01*
X53826Y-27734D02*
X54506Y-27734D01*
X53826Y-27814D02*
X54617Y-27814D01*
X53826Y-27894D02*
X54706Y-27894D01*
X53826Y-27974D02*
X54786Y-27974D01*
X53826Y-28054D02*
X54813Y-28054D01*
X53826Y-28134D02*
X54813Y-28134D01*
X53826Y-28214D02*
X54813Y-28214D01*
X53806Y-28294D02*
X54813Y-28294D01*
X53752Y-28374D02*
X53848Y-28374D01*
X52175Y-28454D02*
X52579Y-28454D01*
X53122Y-28454D02*
X53760Y-28454D01*
X52201Y-28534D02*
X52513Y-28534D01*
X53188Y-28534D02*
X53727Y-28534D01*
X52211Y-28614D02*
X52480Y-28614D01*
X53221Y-28614D02*
X53723Y-28614D01*
X52211Y-28694D02*
X52464Y-28694D01*
X53236Y-28694D02*
X53723Y-28694D01*
X52211Y-28774D02*
X52464Y-28774D01*
X53236Y-28774D02*
X53723Y-28774D01*
X52211Y-28854D02*
X52484Y-28854D01*
X53215Y-28854D02*
X53723Y-28854D01*
X52211Y-28934D02*
X52517Y-28934D01*
X53182Y-28934D02*
X53723Y-28934D01*
X52211Y-29014D02*
X52590Y-29014D01*
X53109Y-29014D02*
X53723Y-29014D01*
X52211Y-29094D02*
X52725Y-29094D01*
X52975Y-29094D02*
X53723Y-29094D01*
X52211Y-29174D02*
X53723Y-29174D01*
X52211Y-29254D02*
X53723Y-29254D01*
X52211Y-29334D02*
X53216Y-29334D01*
X53683Y-29334D02*
X53723Y-29334D01*
X52211Y-29414D02*
X53136Y-29414D01*
X52211Y-29494D02*
X53095Y-29494D01*
X52211Y-29574D02*
X53063Y-29574D01*
X52211Y-29654D02*
X53063Y-29654D01*
X52211Y-29734D02*
X53067Y-29734D01*
X52211Y-29814D02*
X53100Y-29814D01*
X52211Y-29894D02*
X53135Y-29894D01*
X52211Y-29974D02*
X52343Y-29974D01*
X52564Y-29974D02*
X53156Y-29974D01*
X52707Y-30054D02*
X53209Y-30054D01*
X52783Y-30134D02*
X53284Y-30134D01*
X52817Y-30214D02*
X53383Y-30214D01*
X52839Y-30294D02*
X53622Y-30294D01*
X53623Y-30294D02*
X53629Y-30294D01*
X52839Y-30374D02*
X53634Y-30374D01*
X49128Y-30454D02*
X49164Y-30454D01*
X52065Y-30454D02*
X52079Y-30454D01*
X52826Y-30454D02*
X53667Y-30454D01*
X49128Y-30534D02*
X49182Y-30534D01*
X51985Y-30534D02*
X52112Y-30534D01*
X52792Y-30534D02*
X53723Y-30534D01*
X49128Y-30614D02*
X49169Y-30614D01*
X51905Y-30614D02*
X52175Y-30614D01*
X52730Y-30614D02*
X53723Y-30614D01*
X49128Y-30694D02*
X49169Y-30694D01*
X51825Y-30694D02*
X52285Y-30694D01*
X52621Y-30694D02*
X53723Y-30694D01*
X49128Y-30774D02*
X49191Y-30774D01*
X51745Y-30774D02*
X53723Y-30774D01*
X49128Y-30854D02*
X49225Y-30854D01*
X51665Y-30854D02*
X53723Y-30854D01*
X49128Y-30934D02*
X49301Y-30934D01*
X49808Y-30934D02*
X49908Y-30934D01*
X51558Y-30934D02*
X53723Y-30934D01*
X49128Y-31014D02*
X49444Y-31014D01*
X49665Y-31014D02*
X50002Y-31014D01*
X50391Y-31014D02*
X53723Y-31014D01*
X49128Y-31094D02*
X53724Y-31094D01*
X49128Y-31174D02*
X53723Y-31174D01*
X49128Y-31254D02*
X53723Y-31254D01*
X49128Y-31334D02*
X53723Y-31334D01*
X49128Y-31414D02*
X53723Y-31414D01*
X49128Y-31494D02*
X53723Y-31494D01*
X49128Y-31574D02*
X50140Y-31574D01*
X50608Y-31574D02*
X53723Y-31574D01*
X49128Y-31654D02*
X49627Y-31654D01*
X50688Y-31654D02*
X53723Y-31654D01*
X49128Y-31734D02*
X49533Y-31734D01*
X50729Y-31734D02*
X53723Y-31734D01*
X49128Y-31814D02*
X49453Y-31814D01*
X50760Y-31814D02*
X53723Y-31814D01*
X49112Y-31894D02*
X49373Y-31894D01*
X50760Y-31894D02*
X53723Y-31894D01*
X49073Y-31974D02*
X49293Y-31974D01*
X50755Y-31974D02*
X53723Y-31974D01*
X49009Y-32054D02*
X49234Y-32054D01*
X50721Y-32054D02*
X53723Y-32054D01*
X48929Y-32134D02*
X49203Y-32134D01*
X50671Y-32134D02*
X53723Y-32134D01*
X48840Y-32214D02*
X49190Y-32214D01*
X49872Y-32214D02*
X50158Y-32214D01*
X50590Y-32214D02*
X53723Y-32214D01*
X46984Y-32294D02*
X49190Y-32294D01*
X49792Y-32294D02*
X53723Y-32294D01*
X46978Y-32374D02*
X49190Y-32374D01*
X49770Y-32374D02*
X53723Y-32374D01*
X46944Y-32454D02*
X49190Y-32454D01*
X49770Y-32454D02*
X53723Y-32454D01*
X46892Y-32534D02*
X49190Y-32534D01*
X49770Y-32534D02*
X53723Y-32534D01*
X46807Y-32614D02*
X49190Y-32614D01*
X49770Y-32614D02*
X53723Y-32614D01*
X46441Y-32694D02*
X46471Y-32694D01*
X46471Y-32694D02*
X49124Y-32694D01*
X49770Y-32694D02*
X51968Y-32694D01*
X52261Y-32694D02*
X53723Y-32694D01*
X49764Y-32774D02*
X51846Y-32774D01*
X52383Y-32774D02*
X53723Y-32774D01*
X49748Y-32854D02*
X51779Y-32854D01*
X52451Y-32854D02*
X53723Y-32854D01*
X49697Y-32934D02*
X51745Y-32934D01*
X52484Y-32934D02*
X53723Y-32934D01*
X49623Y-33014D02*
X51728Y-33014D01*
X52500Y-33014D02*
X53723Y-33014D01*
X49542Y-33094D02*
X51728Y-33094D01*
X52500Y-33094D02*
X53723Y-33094D01*
X49530Y-33174D02*
X51747Y-33174D01*
X52480Y-33174D02*
X53723Y-33174D01*
X49610Y-33254D02*
X51780Y-33254D01*
X52447Y-33254D02*
X53723Y-33254D01*
X49687Y-33334D02*
X51851Y-33334D01*
X52376Y-33334D02*
X53723Y-33334D01*
X49740Y-33414D02*
X51982Y-33414D01*
X52246Y-33414D02*
X53723Y-33414D01*
X49757Y-33494D02*
X53723Y-33494D01*
X46415Y-33574D02*
X46471Y-33574D01*
X46472Y-33574D02*
X49109Y-33574D01*
X49763Y-33574D02*
X53723Y-33574D01*
X46471Y-33654D02*
X49183Y-33654D01*
X49763Y-33654D02*
X53723Y-33654D01*
X46447Y-33734D02*
X49183Y-33734D01*
X49763Y-33734D02*
X53723Y-33734D01*
X46408Y-33814D02*
X49183Y-33814D01*
X49763Y-33814D02*
X53723Y-33814D01*
X46371Y-33894D02*
X49183Y-33894D01*
X49813Y-33894D02*
X53723Y-33894D01*
X46371Y-33974D02*
X49184Y-33974D01*
X49893Y-33974D02*
X50066Y-33974D01*
X50516Y-33974D02*
X53723Y-33974D01*
X46371Y-34054D02*
X49200Y-34054D01*
X50596Y-34054D02*
X53723Y-34054D01*
X46371Y-34134D02*
X49243Y-34134D01*
X50643Y-34134D02*
X53723Y-34134D01*
X46371Y-34214D02*
X49311Y-34214D01*
X50676Y-34214D02*
X53723Y-34214D01*
X46371Y-34294D02*
X49391Y-34294D01*
X50677Y-34294D02*
X53723Y-34294D01*
X46371Y-34374D02*
X49471Y-34374D01*
X50676Y-34374D02*
X53723Y-34374D01*
X46371Y-34454D02*
X49551Y-34454D01*
X50642Y-34454D02*
X53723Y-34454D01*
X46371Y-34534D02*
X49647Y-34534D01*
X50597Y-34534D02*
X53723Y-34534D01*
X46371Y-34614D02*
X50064Y-34614D01*
X50517Y-34614D02*
X53723Y-34614D01*
X46371Y-34694D02*
X53723Y-34694D01*
X46371Y-34774D02*
X53723Y-34774D01*
X46371Y-34854D02*
X53723Y-34854D01*
X46371Y-34934D02*
X53723Y-34934D01*
X46371Y-35014D02*
X53711Y-35014D01*
X46371Y-35094D02*
X53658Y-35094D01*
X46371Y-35174D02*
X48307Y-35174D01*
X48504Y-35174D02*
X53625Y-35174D01*
X46371Y-35254D02*
X48157Y-35254D01*
X48654Y-35254D02*
X53622Y-35254D01*
X53623Y-35254D02*
X53653Y-35254D01*
X44288Y-35334D02*
X44340Y-35334D01*
X46371Y-35334D02*
X48078Y-35334D01*
X48733Y-35334D02*
X53623Y-35334D01*
X53623Y-35334D02*
X53664Y-35334D01*
X44288Y-35414D02*
X44465Y-35414D01*
X46371Y-35414D02*
X48045Y-35414D01*
X48767Y-35414D02*
X53623Y-35414D01*
X53623Y-35414D02*
X53629Y-35414D01*
X44288Y-35494D02*
X44465Y-35494D01*
X46371Y-35494D02*
X48019Y-35494D01*
X48791Y-35494D02*
X53622Y-35494D01*
X53623Y-35494D02*
X53633Y-35494D01*
X44288Y-35574D02*
X44465Y-35574D01*
X46371Y-35574D02*
X48019Y-35574D01*
X48843Y-35574D02*
X53667Y-35574D01*
X44288Y-35654D02*
X44495Y-35654D01*
X46371Y-35654D02*
X48029Y-35654D01*
X48897Y-35654D02*
X53623Y-35654D01*
X53623Y-35654D02*
X53644Y-35654D01*
X44288Y-35734D02*
X44528Y-35734D01*
X46357Y-35734D02*
X48063Y-35734D01*
X48919Y-35734D02*
X48953Y-35734D01*
X49124Y-35734D02*
X53627Y-35734D01*
X44288Y-35814D02*
X44607Y-35814D01*
X46312Y-35814D02*
X46430Y-35814D01*
X44288Y-35894D02*
X44740Y-35894D01*
X45039Y-35894D02*
X45255Y-35894D01*
X46187Y-35894D02*
X46318Y-35894D01*
X44288Y-35974D02*
X46278Y-35974D01*
X44288Y-36054D02*
X46268Y-36054D01*
X44288Y-36134D02*
X44653Y-36134D01*
X45127Y-36134D02*
X46268Y-36134D01*
X44288Y-36214D02*
X44571Y-36214D01*
X45209Y-36214D02*
X46268Y-36214D01*
X44288Y-36294D02*
X44514Y-36294D01*
X45267Y-36294D02*
X46268Y-36294D01*
X44288Y-36374D02*
X44481Y-36374D01*
X45300Y-36374D02*
X46268Y-36374D01*
X44288Y-36454D02*
X44465Y-36454D01*
X45315Y-36454D02*
X46268Y-36454D01*
X44288Y-36534D02*
X44465Y-36534D01*
X45315Y-36534D02*
X46268Y-36534D01*
X44288Y-36614D02*
X44478Y-36614D01*
X45301Y-36614D02*
X46268Y-36614D01*
X44288Y-36694D02*
X44511Y-36694D01*
X45267Y-36694D02*
X46268Y-36694D01*
X44288Y-36774D02*
X44567Y-36774D01*
X45213Y-36774D02*
X46268Y-36774D01*
X44288Y-36854D02*
X44647Y-36854D01*
X45133Y-36854D02*
X46268Y-36854D01*
X44288Y-36934D02*
X46283Y-36934D01*
X44288Y-37014D02*
X46332Y-37014D01*
X44288Y-37094D02*
X44752Y-37094D01*
X45013Y-37094D02*
X46462Y-37094D01*
X46719Y-37094D02*
X46719Y-37094D01*
X46974Y-37094D02*
X46974Y-37094D01*
X47229Y-37094D02*
X47229Y-37094D01*
X47484Y-37094D02*
X47484Y-37094D01*
X47739Y-37094D02*
X47743Y-37094D01*
X48509Y-37094D02*
X48509Y-37094D01*
X48880Y-37094D02*
X48904Y-37094D01*
X49279Y-37094D02*
X49279Y-37094D01*
X49534Y-37094D02*
X49534Y-37094D01*
X49789Y-37094D02*
X49789Y-37094D01*
X44288Y-37174D02*
X44607Y-37174D01*
X45157Y-37174D02*
X47795Y-37174D01*
X48474Y-37174D02*
X48693Y-37174D01*
X48816Y-37174D02*
X48967Y-37174D01*
X49090Y-37174D02*
X49794Y-37174D01*
X52389Y-37174D02*
X52413Y-37174D01*
X44288Y-37254D02*
X44527Y-37254D01*
X45237Y-37254D02*
X47761Y-37254D01*
X48508Y-37254D02*
X49782Y-37254D01*
X51480Y-37254D02*
X51514Y-37254D01*
X52389Y-37254D02*
X52413Y-37254D01*
X44288Y-37334D02*
X44491Y-37334D01*
X45274Y-37334D02*
X47748Y-37334D01*
X48520Y-37334D02*
X49782Y-37334D01*
X51480Y-37334D02*
X51536Y-37334D01*
X52389Y-37334D02*
X52413Y-37334D01*
X44288Y-37414D02*
X44458Y-37414D01*
X45307Y-37414D02*
X47748Y-37414D01*
X48520Y-37414D02*
X49782Y-37414D01*
X52389Y-37414D02*
X52413Y-37414D01*
X44288Y-37494D02*
X44457Y-37494D01*
X45307Y-37494D02*
X47770Y-37494D01*
X48496Y-37494D02*
X49814Y-37494D01*
X51446Y-37494D02*
X51492Y-37494D01*
X52389Y-37494D02*
X52413Y-37494D01*
X44288Y-37574D02*
X44457Y-37574D01*
X45307Y-37574D02*
X47804Y-37574D01*
X48463Y-37574D02*
X49847Y-37574D01*
X51413Y-37574D02*
X51519Y-37574D01*
X52389Y-37574D02*
X52413Y-37574D01*
X44288Y-37654D02*
X44485Y-37654D01*
X45278Y-37654D02*
X47880Y-37654D01*
X48387Y-37654D02*
X49906Y-37654D01*
X51356Y-37654D02*
X51546Y-37654D01*
X52389Y-37654D02*
X52413Y-37654D01*
X44288Y-37734D02*
X44518Y-37734D01*
X45244Y-37734D02*
X47419Y-37734D01*
X47660Y-37734D02*
X48023Y-37734D01*
X48244Y-37734D02*
X49986Y-37734D01*
X51276Y-37734D02*
X51614Y-37734D01*
X52389Y-37734D02*
X52413Y-37734D01*
X44288Y-37814D02*
X44595Y-37814D01*
X45169Y-37814D02*
X47282Y-37814D01*
X47797Y-37814D02*
X49849Y-37814D01*
X51122Y-37814D02*
X51692Y-37814D01*
X52389Y-37814D02*
X52413Y-37814D01*
X44288Y-37894D02*
X44722Y-37894D01*
X45041Y-37894D02*
X47208Y-37894D01*
X47871Y-37894D02*
X49753Y-37894D01*
X50326Y-37894D02*
X51827Y-37894D01*
X52389Y-37894D02*
X52413Y-37894D01*
X44288Y-37974D02*
X46271Y-37974D01*
X46944Y-37974D02*
X47175Y-37974D01*
X47904Y-37974D02*
X49696Y-37974D01*
X50383Y-37974D02*
X52944Y-37974D01*
X44288Y-38054D02*
X46062Y-38054D01*
X47122Y-38054D02*
X47153Y-38054D01*
X47925Y-38054D02*
X49663Y-38054D01*
X50416Y-38054D02*
X52944Y-38054D01*
X44333Y-38134D02*
X45967Y-38134D01*
X47925Y-38134D02*
X49653Y-38134D01*
X50425Y-38134D02*
X52944Y-38134D01*
X44413Y-38214D02*
X45164Y-38214D01*
X45348Y-38214D02*
X45936Y-38214D01*
X47910Y-38214D02*
X49653Y-38214D01*
X50425Y-38214D02*
X52944Y-38214D01*
X44493Y-38294D02*
X45005Y-38294D01*
X45502Y-38294D02*
X45879Y-38294D01*
X45903Y-38294D02*
X45937Y-38294D01*
X47876Y-38294D02*
X49679Y-38294D01*
X50398Y-38294D02*
X52944Y-38294D01*
X44573Y-38374D02*
X44931Y-38374D01*
X45582Y-38374D02*
X45718Y-38374D01*
X45983Y-38374D02*
X46017Y-38374D01*
X47812Y-38374D02*
X49241Y-38374D01*
X49452Y-38374D02*
X49714Y-38374D01*
X50363Y-38374D02*
X52971Y-38374D01*
X44653Y-38454D02*
X44897Y-38454D01*
X45616Y-38454D02*
X45682Y-38454D01*
X46063Y-38454D02*
X46097Y-38454D01*
X47697Y-38454D02*
X49095Y-38454D01*
X49598Y-38454D02*
X49794Y-38454D01*
X50283Y-38454D02*
X53036Y-38454D01*
X44733Y-38534D02*
X44870Y-38534D01*
X45642Y-38534D02*
X45646Y-38534D01*
X46143Y-38534D02*
X46177Y-38534D01*
X47562Y-38534D02*
X49018Y-38534D01*
X49676Y-38534D02*
X49950Y-38534D01*
X50128Y-38534D02*
X53062Y-38534D01*
X44813Y-38614D02*
X44870Y-38614D01*
X46223Y-38614D02*
X46257Y-38614D01*
X47593Y-38614D02*
X48984Y-38614D01*
X49709Y-38614D02*
X52980Y-38614D01*
X46303Y-38694D02*
X46337Y-38694D01*
X47623Y-38694D02*
X48960Y-38694D01*
X49732Y-38694D02*
X52947Y-38694D01*
X46383Y-38774D02*
X46417Y-38774D01*
X47654Y-38774D02*
X48960Y-38774D01*
X46463Y-38854D02*
X46497Y-38854D01*
X47660Y-38854D02*
X48972Y-38854D01*
X46543Y-38934D02*
X46577Y-38934D01*
X47658Y-38934D02*
X49005Y-38934D01*
X46546Y-39014D02*
X46547Y-39014D01*
X46623Y-39014D02*
X46657Y-39014D01*
X47655Y-39014D02*
X49066Y-39014D01*
X46466Y-39094D02*
X46467Y-39094D01*
X46703Y-39094D02*
X46737Y-39094D01*
X47653Y-39094D02*
X49173Y-39094D01*
X46386Y-39174D02*
X46387Y-39174D01*
X46783Y-39174D02*
X46817Y-39174D01*
X47651Y-39174D02*
X49361Y-39174D01*
X46306Y-39254D02*
X46307Y-39254D01*
X46863Y-39254D02*
X46897Y-39254D01*
X47632Y-39254D02*
X49441Y-39254D01*
X46226Y-39334D02*
X46227Y-39334D01*
X46943Y-39334D02*
X46977Y-39334D01*
X47596Y-39334D02*
X49039Y-39334D01*
X49246Y-39334D02*
X49565Y-39334D01*
X46146Y-39414D02*
X46147Y-39414D01*
X47023Y-39414D02*
X47057Y-39414D01*
X47560Y-39414D02*
X48892Y-39414D01*
X49393Y-39414D02*
X50012Y-39414D01*
X47103Y-39494D02*
X47137Y-39494D01*
X47524Y-39494D02*
X48814Y-39494D01*
X49471Y-39494D02*
X49932Y-39494D01*
X47183Y-39574D02*
X47217Y-39574D01*
X47488Y-39574D02*
X48781Y-39574D01*
X49504Y-39574D02*
X49860Y-39574D01*
X47263Y-39654D02*
X47297Y-39654D01*
X47335Y-39654D02*
X48756Y-39654D01*
X49528Y-39654D02*
X49826Y-39654D01*
X47270Y-39734D02*
X48756Y-39734D01*
X49528Y-39734D02*
X49793Y-39734D01*
X47238Y-39814D02*
X48767Y-39814D01*
X49516Y-39814D02*
X49782Y-39814D01*
X47153Y-39894D02*
X48800Y-39894D01*
X49482Y-39894D02*
X49782Y-39894D01*
X46944Y-39974D02*
X48861Y-39974D01*
X49422Y-39974D02*
X49782Y-39974D01*
X55021Y-31110D02*
X55021Y-31110D01*
X55021Y-31190D02*
X55092Y-31190D01*
X57866Y-31190D02*
X57890Y-31190D01*
X55021Y-31270D02*
X55540Y-31270D01*
X55792Y-31270D02*
X55800Y-31270D01*
X56115Y-31270D02*
X56123Y-31270D01*
X56375Y-31270D02*
X56820Y-31270D01*
X57843Y-31270D02*
X57913Y-31270D01*
X55021Y-31350D02*
X56992Y-31350D01*
X57764Y-31350D02*
X58065Y-31350D01*
X55021Y-31430D02*
X57004Y-31430D01*
X57751Y-31430D02*
X58081Y-31430D01*
X55021Y-31510D02*
X55504Y-31510D01*
X55802Y-31510D02*
X57037Y-31510D01*
X57717Y-31510D02*
X58120Y-31510D01*
X55021Y-31590D02*
X55384Y-31590D01*
X55923Y-31590D02*
X57099Y-31590D01*
X57656Y-31590D02*
X58181Y-31590D01*
X55021Y-31670D02*
X55317Y-31670D01*
X55990Y-31670D02*
X57207Y-31670D01*
X57548Y-31670D02*
X58228Y-31670D01*
X55021Y-31750D02*
X55284Y-31750D01*
X56023Y-31750D02*
X58262Y-31750D01*
X55021Y-31830D02*
X55267Y-31830D01*
X56039Y-31830D02*
X58335Y-31830D01*
X55021Y-31910D02*
X55267Y-31910D01*
X56039Y-31910D02*
X58472Y-31910D01*
X55021Y-31990D02*
X55286Y-31990D01*
X56019Y-31990D02*
X58465Y-31990D01*
X55021Y-32070D02*
X55319Y-32070D01*
X55985Y-32070D02*
X58468Y-32070D01*
X55021Y-32150D02*
X55391Y-32150D01*
X55914Y-32150D02*
X56279Y-32150D01*
X56644Y-32150D02*
X58484Y-32150D01*
X55925Y-32230D02*
X56178Y-32230D01*
X56745Y-32230D02*
X58518Y-32230D01*
X56029Y-32310D02*
X56111Y-32310D01*
X56804Y-32310D02*
X58572Y-32310D01*
X56837Y-32390D02*
X58644Y-32390D01*
X56847Y-32470D02*
X58724Y-32470D01*
X56847Y-32550D02*
X58804Y-32550D01*
X56821Y-32630D02*
X58884Y-32630D01*
X56788Y-32710D02*
X58964Y-32710D01*
X56708Y-32790D02*
X58985Y-32790D01*
X56557Y-32870D02*
X58985Y-32870D01*
X56413Y-32950D02*
X56673Y-32950D01*
X56775Y-32950D02*
X56941Y-32950D01*
X57044Y-32950D02*
X58985Y-32950D01*
X56413Y-33030D02*
X56539Y-33030D01*
X56846Y-33030D02*
X56870Y-33030D01*
X57177Y-33030D02*
X58985Y-33030D01*
X58906Y-33110D02*
X58985Y-33110D01*
X58959Y-33190D02*
X58985Y-33190D01*
X58977Y-33270D02*
X58985Y-33270D01*
X58977Y-33350D02*
X58985Y-33350D01*
X58977Y-33430D02*
X58985Y-33430D01*
X58977Y-33510D02*
X58985Y-33510D01*
X58977Y-33590D02*
X58985Y-33590D01*
X58977Y-33670D02*
X58985Y-33670D01*
X58977Y-33750D02*
X58985Y-33750D01*
X58977Y-33830D02*
X58985Y-33830D01*
X58945Y-33910D02*
X58985Y-33910D01*
X56846Y-33990D02*
X56870Y-33990D01*
X58874Y-33990D02*
X58936Y-33990D01*
X56823Y-34070D02*
X56893Y-34070D01*
X57145Y-34070D02*
X58858Y-34070D01*
X56628Y-34150D02*
X58834Y-34150D01*
X56628Y-34230D02*
X58830Y-34230D01*
X56617Y-34310D02*
X58830Y-34310D01*
X56590Y-34390D02*
X58830Y-34390D01*
X56534Y-34470D02*
X58830Y-34470D01*
X56430Y-34550D02*
X58830Y-34550D01*
X55705Y-34630D02*
X58830Y-34630D01*
X55674Y-34710D02*
X58830Y-34710D01*
X55633Y-34790D02*
X58830Y-34790D01*
X55021Y-34870D02*
X55084Y-34870D01*
X55553Y-34870D02*
X58830Y-34870D01*
X55021Y-34950D02*
X58830Y-34950D01*
X55049Y-35030D02*
X58830Y-35030D01*
X55094Y-35110D02*
X58830Y-35110D01*
X55121Y-35190D02*
X58830Y-35190D01*
X55074Y-35270D02*
X55121Y-35270D01*
X55121Y-35270D02*
X58830Y-35270D01*
X55087Y-35350D02*
X55121Y-35350D01*
X55122Y-35350D02*
X58830Y-35350D01*
X55121Y-35430D02*
X58830Y-35430D01*
X55102Y-35510D02*
X55121Y-35510D01*
X55121Y-35510D02*
X58830Y-35510D01*
X55070Y-35590D02*
X55121Y-35590D01*
X55122Y-35590D02*
X58830Y-35590D01*
X55116Y-35670D02*
X55121Y-35670D01*
X55122Y-35670D02*
X58830Y-35670D01*
X55109Y-35750D02*
X58830Y-35750D01*
X55076Y-35830D02*
X58830Y-35830D01*
X55007Y-35910D02*
X58830Y-35910D01*
X53823Y-35990D02*
X53876Y-35990D01*
X54867Y-35990D02*
X58830Y-35990D01*
X53826Y-36070D02*
X54161Y-36070D01*
X54762Y-36070D02*
X58830Y-36070D01*
X53826Y-36150D02*
X54112Y-36150D01*
X54811Y-36150D02*
X58830Y-36150D01*
X53826Y-36230D02*
X54079Y-36230D01*
X54844Y-36230D02*
X58830Y-36230D01*
X53826Y-36310D02*
X54075Y-36310D01*
X54847Y-36310D02*
X58098Y-36310D01*
X58343Y-36310D02*
X58830Y-36310D01*
X53826Y-36390D02*
X54075Y-36390D01*
X54847Y-36390D02*
X56175Y-36390D01*
X56329Y-36390D02*
X57962Y-36390D01*
X58486Y-36390D02*
X58830Y-36390D01*
X53827Y-36470D02*
X54107Y-36470D01*
X54814Y-36470D02*
X56013Y-36470D01*
X56492Y-36470D02*
X57889Y-36470D01*
X58588Y-36470D02*
X58830Y-36470D01*
X53827Y-36550D02*
X54150Y-36550D01*
X54771Y-36550D02*
X55933Y-36550D01*
X56572Y-36550D02*
X57855Y-36550D01*
X58641Y-36550D02*
X58830Y-36550D01*
X53827Y-36630D02*
X54230Y-36630D01*
X54691Y-36630D02*
X55895Y-36630D01*
X56610Y-36630D02*
X57834Y-36630D01*
X58658Y-36630D02*
X58830Y-36630D01*
X53827Y-36710D02*
X55866Y-36710D01*
X56638Y-36710D02*
X57834Y-36710D01*
X58660Y-36710D02*
X58830Y-36710D01*
X53827Y-36790D02*
X55866Y-36790D01*
X56638Y-36790D02*
X57848Y-36790D01*
X58644Y-36790D02*
X58830Y-36790D01*
X53827Y-36870D02*
X55873Y-36870D01*
X56630Y-36870D02*
X57882Y-36870D01*
X58596Y-36870D02*
X58830Y-36870D01*
X53827Y-36950D02*
X55906Y-36950D01*
X56597Y-36950D02*
X57947Y-36950D01*
X58506Y-36950D02*
X58830Y-36950D01*
X53827Y-37030D02*
X55960Y-37030D01*
X56543Y-37030D02*
X58065Y-37030D01*
X58376Y-37030D02*
X58830Y-37030D01*
X53827Y-37110D02*
X56052Y-37110D01*
X53829Y-37190D02*
X55972Y-37190D01*
X53862Y-37270D02*
X55892Y-37270D01*
X53886Y-37350D02*
X55812Y-37350D01*
X54052Y-37430D02*
X55732Y-37430D01*
X54121Y-37510D02*
X55652Y-37510D01*
X54150Y-37590D02*
X55572Y-37590D01*
X54150Y-37670D02*
X55492Y-37670D01*
X54150Y-37750D02*
X55412Y-37750D01*
X54150Y-37830D02*
X55332Y-37830D01*
X54150Y-37910D02*
X55252Y-37910D01*
X54150Y-37990D02*
X55172Y-37990D01*
X54150Y-38070D02*
X54262Y-38070D01*
X54660Y-38070D02*
X55092Y-38070D01*
X54150Y-38150D02*
X54170Y-38150D01*
X54752Y-38150D02*
X55012Y-38150D01*
X54807Y-38230D02*
X54932Y-38230D01*
X54840Y-38310D02*
X54852Y-38310D01*
X54360Y-35565D02*
X54384Y-35565D01*
X49021Y-28443D02*
X49021Y-28443D01*
X46684Y-28523D02*
X47582Y-28523D01*
X48303Y-28523D02*
X48658Y-28523D01*
X49018Y-28523D02*
X49976Y-28523D01*
X50102Y-28523D02*
X50142Y-28523D01*
X46684Y-28603D02*
X47571Y-28603D01*
X48336Y-28603D02*
X48556Y-28603D01*
X49121Y-28603D02*
X50142Y-28603D01*
X46684Y-28683D02*
X47567Y-28683D01*
X48339Y-28683D02*
X48497Y-28683D01*
X49180Y-28683D02*
X50145Y-28683D01*
X46684Y-28763D02*
X47567Y-28763D01*
X48339Y-28763D02*
X48463Y-28763D01*
X49214Y-28763D02*
X50161Y-28763D01*
X46684Y-28843D02*
X46816Y-28843D01*
X47066Y-28843D02*
X47598Y-28843D01*
X48306Y-28843D02*
X48452Y-28843D01*
X49224Y-28843D02*
X50209Y-28843D01*
X47201Y-28923D02*
X47641Y-28923D01*
X48264Y-28923D02*
X48452Y-28923D01*
X49224Y-28923D02*
X50281Y-28923D01*
X47274Y-29003D02*
X47721Y-29003D01*
X48184Y-29003D02*
X48476Y-29003D01*
X49198Y-29003D02*
X50300Y-29003D01*
X47307Y-29083D02*
X48510Y-29083D01*
X49165Y-29083D02*
X50333Y-29083D01*
X47327Y-29163D02*
X48548Y-29163D01*
X49128Y-29163D02*
X50385Y-29163D01*
X47327Y-29243D02*
X48548Y-29243D01*
X49128Y-29243D02*
X50470Y-29243D01*
X50892Y-29243D02*
X50934Y-29243D01*
X47311Y-29323D02*
X48548Y-29323D01*
X49128Y-29323D02*
X50934Y-29323D01*
X47278Y-29403D02*
X48548Y-29403D01*
X49128Y-29403D02*
X50934Y-29403D01*
X47212Y-29483D02*
X48548Y-29483D01*
X49128Y-29483D02*
X49271Y-29483D01*
X46684Y-29563D02*
X46787Y-29563D01*
X47095Y-29563D02*
X48548Y-29563D01*
X49128Y-29563D02*
X49165Y-29563D01*
X46684Y-29643D02*
X48548Y-29643D01*
X46684Y-29723D02*
X48548Y-29723D01*
X46684Y-29803D02*
X48548Y-29803D01*
X46684Y-29883D02*
X48548Y-29883D01*
X46684Y-29963D02*
X48548Y-29963D01*
X46684Y-30043D02*
X48548Y-30043D01*
X46684Y-30123D02*
X48548Y-30123D01*
X46684Y-30203D02*
X48548Y-30203D01*
X46684Y-30283D02*
X48548Y-30283D01*
X46678Y-30363D02*
X48548Y-30363D01*
X46662Y-30443D02*
X48548Y-30443D01*
X46609Y-30523D02*
X48548Y-30523D01*
X46535Y-30603D02*
X48548Y-30603D01*
X46444Y-30683D02*
X48548Y-30683D01*
X46371Y-30763D02*
X48548Y-30763D01*
X46371Y-30843D02*
X48548Y-30843D01*
X46371Y-30923D02*
X48548Y-30923D01*
X46371Y-31003D02*
X48548Y-31003D01*
X46371Y-31083D02*
X48548Y-31083D01*
X46372Y-31163D02*
X46545Y-31163D01*
X46786Y-31163D02*
X48548Y-31163D01*
X46923Y-31243D02*
X48548Y-31243D01*
X46997Y-31323D02*
X48548Y-31323D01*
X47030Y-31403D02*
X48548Y-31403D01*
X47051Y-31483D02*
X48548Y-31483D01*
X47051Y-31563D02*
X48548Y-31563D01*
X47036Y-31643D02*
X48548Y-31643D01*
X58220Y-27126D02*
X58816Y-27126D01*
X58304Y-27206D02*
X58830Y-27206D01*
X58463Y-27286D02*
X58830Y-27286D01*
X58550Y-27366D02*
X58830Y-27366D01*
X58603Y-27446D02*
X58830Y-27446D01*
X58636Y-27526D02*
X58830Y-27526D01*
X58642Y-27606D02*
X58830Y-27606D01*
X58642Y-27686D02*
X58830Y-27686D01*
X58612Y-27766D02*
X58830Y-27766D01*
X58573Y-27846D02*
X58830Y-27846D01*
X58493Y-27926D02*
X58830Y-27926D01*
X58225Y-28006D02*
X58830Y-28006D01*
X58145Y-28086D02*
X58830Y-28086D01*
X58065Y-28166D02*
X58830Y-28166D01*
X57985Y-28246D02*
X58830Y-28246D01*
X57908Y-28326D02*
X58830Y-28326D01*
X57908Y-28406D02*
X58830Y-28406D01*
X57908Y-28486D02*
X58830Y-28486D01*
X57908Y-28566D02*
X58830Y-28566D01*
X57908Y-28646D02*
X58830Y-28646D01*
X57908Y-28726D02*
X58830Y-28726D01*
X57908Y-28806D02*
X58830Y-28806D01*
X57908Y-28886D02*
X58830Y-28886D01*
X57908Y-28966D02*
X58830Y-28966D01*
X57908Y-29046D02*
X58830Y-29046D01*
X57908Y-29126D02*
X58830Y-29126D01*
X57908Y-29206D02*
X58830Y-29206D01*
X57908Y-29286D02*
X58830Y-29286D01*
X57908Y-29366D02*
X58137Y-29366D01*
X58478Y-29366D02*
X58830Y-29366D01*
X57908Y-29446D02*
X58029Y-29446D01*
X58586Y-29446D02*
X58830Y-29446D01*
X57908Y-29526D02*
X57968Y-29526D01*
X58648Y-29526D02*
X58830Y-29526D01*
X57908Y-29606D02*
X57934Y-29606D01*
X58681Y-29606D02*
X58830Y-29606D01*
X57908Y-29686D02*
X57921Y-29686D01*
X58693Y-29686D02*
X58830Y-29686D01*
X57908Y-29766D02*
X57921Y-29766D01*
X57908Y-29846D02*
X57944Y-29846D01*
X57908Y-29926D02*
X57977Y-29926D01*
X57908Y-30006D02*
X57966Y-30006D01*
X57894Y-30086D02*
X57905Y-30086D01*
X48540Y-31702D02*
X48548Y-31695D01*
X48548Y-29121D01*
X48511Y-29085D01*
X48452Y-28943D01*
X48452Y-28789D01*
X48511Y-28648D01*
X48619Y-28539D01*
X48761Y-28480D01*
X48915Y-28480D01*
X49056Y-28539D01*
X49165Y-28647D01*
X49224Y-28789D01*
X49224Y-28943D01*
X49165Y-29084D01*
X49128Y-29121D01*
X49128Y-29598D01*
X49130Y-29598D01*
X49192Y-29535D01*
X49287Y-29472D01*
X49398Y-29450D01*
X50078Y-29450D01*
X50078Y-28547D01*
X50079Y-28546D01*
X50142Y-28546D01*
X50078Y-28547D01*
X50078Y-29450D01*
X50934Y-29450D01*
X50934Y-29205D01*
X50900Y-29240D01*
X50758Y-29299D01*
X50604Y-29299D01*
X50463Y-29240D01*
X50354Y-29132D01*
X50295Y-28990D01*
X50295Y-28937D01*
X50227Y-28869D01*
X50164Y-28775D01*
X50142Y-28664D01*
X50142Y-28546D01*
X50142Y-28483D01*
X50079Y-28546D01*
X50032Y-28546D01*
X49904Y-28493D01*
X49857Y-28446D01*
X49792Y-28446D01*
X49789Y-28444D01*
X49786Y-28446D01*
X49537Y-28446D01*
X49534Y-28444D01*
X49531Y-28446D01*
X49282Y-28446D01*
X49279Y-28444D01*
X49276Y-28446D01*
X49027Y-28446D01*
X49021Y-28443D01*
X49016Y-28446D01*
X48767Y-28446D01*
X48764Y-28444D01*
X48761Y-28446D01*
X48512Y-28446D01*
X48509Y-28444D01*
X48506Y-28446D01*
X48257Y-28446D01*
X48254Y-28445D01*
X48280Y-28470D01*
X48339Y-28612D01*
X48339Y-28766D01*
X48280Y-28907D01*
X48172Y-29016D01*
X48030Y-29075D01*
X47876Y-29075D01*
X47735Y-29016D01*
X47626Y-28908D01*
X47567Y-28766D01*
X47567Y-28612D01*
X47582Y-28576D01*
X47582Y-28446D01*
X47487Y-28446D01*
X47484Y-28444D01*
X47481Y-28446D01*
X47232Y-28446D01*
X47229Y-28444D01*
X47226Y-28446D01*
X46977Y-28446D01*
X46974Y-28444D01*
X46971Y-28446D01*
X46722Y-28446D01*
X46719Y-28444D01*
X46716Y-28446D01*
X46684Y-28446D01*
X46684Y-28920D01*
X46722Y-28882D01*
X46864Y-28823D01*
X47018Y-28823D01*
X47159Y-28882D01*
X47268Y-28990D01*
X47327Y-29132D01*
X47327Y-29286D01*
X47268Y-29427D01*
X47160Y-29536D01*
X47018Y-29595D01*
X46864Y-29595D01*
X46723Y-29536D01*
X46684Y-29497D01*
X46684Y-30334D01*
X46662Y-30445D01*
X46599Y-30539D01*
X46598Y-30539D01*
X46598Y-30540D01*
X46476Y-30662D01*
X46382Y-30725D01*
X46371Y-30727D01*
X46371Y-30837D01*
X46369Y-30839D01*
X46371Y-30843D01*
X46371Y-31092D01*
X46368Y-31097D01*
X46371Y-31103D01*
X46371Y-31162D01*
X46418Y-31209D01*
X46424Y-31225D01*
X46446Y-31204D01*
X46588Y-31145D01*
X46742Y-31145D01*
X46883Y-31204D01*
X46992Y-31312D01*
X47051Y-31454D01*
X47051Y-31608D01*
X47011Y-31702D01*
X48540Y-31702D01*
X47939Y-24134D02*
X48142Y-24134D01*
X48899Y-24134D02*
X49040Y-24134D01*
X49739Y-24134D02*
X49831Y-24134D01*
X51431Y-24134D02*
X51601Y-24134D01*
X47998Y-24214D02*
X48134Y-24214D01*
X48908Y-24214D02*
X49008Y-24214D01*
X49773Y-24214D02*
X49798Y-24214D01*
X51464Y-24214D02*
X51568Y-24214D01*
X48180Y-24294D02*
X48214Y-24294D01*
X48828Y-24294D02*
X48862Y-24294D01*
X49776Y-24294D02*
X49782Y-24294D01*
X51480Y-24294D02*
X51552Y-24294D01*
X53250Y-24294D02*
X53284Y-24294D01*
X48260Y-24374D02*
X48294Y-24374D01*
X48748Y-24374D02*
X48782Y-24374D01*
X49776Y-24374D02*
X49782Y-24374D01*
X51480Y-24374D02*
X51552Y-24374D01*
X53250Y-24374D02*
X53364Y-24374D01*
X48340Y-24454D02*
X48374Y-24454D01*
X48668Y-24454D02*
X48702Y-24454D01*
X49743Y-24454D02*
X49782Y-24454D01*
X51480Y-24454D02*
X51552Y-24454D01*
X53250Y-24454D02*
X53444Y-24454D01*
X48420Y-24534D02*
X48454Y-24534D01*
X48588Y-24534D02*
X48622Y-24534D01*
X49700Y-24534D02*
X49810Y-24534D01*
X51451Y-24534D02*
X51580Y-24534D01*
X53221Y-24534D02*
X53524Y-24534D01*
X48500Y-24614D02*
X48542Y-24614D01*
X49156Y-24614D02*
X49159Y-24614D01*
X49620Y-24614D02*
X49843Y-24614D01*
X51418Y-24614D02*
X51613Y-24614D01*
X53188Y-24614D02*
X53604Y-24614D01*
X48428Y-24694D02*
X48462Y-24694D01*
X48580Y-24694D02*
X48614Y-24694D01*
X49155Y-24694D02*
X49895Y-24694D01*
X51367Y-24694D02*
X51665Y-24694D01*
X53137Y-24694D02*
X53684Y-24694D01*
X48348Y-24774D02*
X48382Y-24774D01*
X48660Y-24774D02*
X48694Y-24774D01*
X49147Y-24774D02*
X49975Y-24774D01*
X51287Y-24774D02*
X51745Y-24774D01*
X53057Y-24774D02*
X53171Y-24774D01*
X53545Y-24774D02*
X53764Y-24774D01*
X48268Y-24854D02*
X48302Y-24854D01*
X48740Y-24854D02*
X48774Y-24854D01*
X49112Y-24854D02*
X50112Y-24854D01*
X51149Y-24854D02*
X51882Y-24854D01*
X52919Y-24854D02*
X53073Y-24854D01*
X53644Y-24854D02*
X53844Y-24854D01*
X48188Y-24934D02*
X48222Y-24934D01*
X48820Y-24934D02*
X48854Y-24934D01*
X49077Y-24934D02*
X53016Y-24934D01*
X53702Y-24934D02*
X53924Y-24934D01*
X48000Y-25014D02*
X48142Y-25014D01*
X48900Y-25014D02*
X52982Y-25014D01*
X53735Y-25014D02*
X54004Y-25014D01*
X47947Y-25094D02*
X48141Y-25094D01*
X48900Y-25094D02*
X52972Y-25094D01*
X53744Y-25094D02*
X54084Y-25094D01*
X47853Y-25174D02*
X48139Y-25174D01*
X48846Y-25174D02*
X52972Y-25174D01*
X53744Y-25174D02*
X54164Y-25174D01*
X47933Y-25254D02*
X48059Y-25254D01*
X48883Y-25254D02*
X52998Y-25254D01*
X53717Y-25254D02*
X54244Y-25254D01*
X48948Y-25334D02*
X53032Y-25334D01*
X53683Y-25334D02*
X54324Y-25334D01*
X48981Y-25414D02*
X53112Y-25414D01*
X53603Y-25414D02*
X54404Y-25414D01*
X49014Y-25494D02*
X53266Y-25494D01*
X53449Y-25494D02*
X54484Y-25494D01*
X49020Y-25574D02*
X54564Y-25574D01*
X49020Y-25654D02*
X54644Y-25654D01*
X49017Y-25734D02*
X54724Y-25734D01*
X48983Y-25814D02*
X54804Y-25814D01*
X48950Y-25894D02*
X54884Y-25894D01*
X48891Y-25974D02*
X54964Y-25974D01*
X48811Y-26054D02*
X51317Y-26054D01*
X51691Y-26054D02*
X55044Y-26054D01*
X48787Y-26134D02*
X51219Y-26134D01*
X51790Y-26134D02*
X55124Y-26134D01*
X48893Y-26214D02*
X51162Y-26214D01*
X51848Y-26214D02*
X55204Y-26214D01*
X48973Y-26294D02*
X51128Y-26294D01*
X51881Y-26294D02*
X51914Y-26294D01*
X52389Y-26294D02*
X52413Y-26294D01*
X52888Y-26294D02*
X55284Y-26294D01*
X49014Y-26374D02*
X51118Y-26374D01*
X52389Y-26374D02*
X52413Y-26374D01*
X53073Y-26374D02*
X55193Y-26374D01*
X49048Y-26454D02*
X50035Y-26454D01*
X52389Y-26454D02*
X52413Y-26454D01*
X53152Y-26454D02*
X55069Y-26454D01*
X49070Y-26534D02*
X49943Y-26534D01*
X52389Y-26534D02*
X52413Y-26534D01*
X53230Y-26534D02*
X55009Y-26534D01*
X49070Y-26614D02*
X49864Y-26614D01*
X52389Y-26614D02*
X52413Y-26614D01*
X53271Y-26614D02*
X54975Y-26614D01*
X49070Y-26694D02*
X49831Y-26694D01*
X52389Y-26694D02*
X52413Y-26694D01*
X53297Y-26694D02*
X54956Y-26694D01*
X49050Y-26774D02*
X49797Y-26774D01*
X52389Y-26774D02*
X52413Y-26774D01*
X53324Y-26774D02*
X54956Y-26774D01*
X49017Y-26854D02*
X49782Y-26854D01*
X52389Y-26854D02*
X52413Y-26854D01*
X53294Y-26854D02*
X54973Y-26854D01*
X48981Y-26934D02*
X49782Y-26934D01*
X53260Y-26934D02*
X55006Y-26934D01*
X48901Y-27014D02*
X49782Y-27014D01*
X53321Y-27014D02*
X54798Y-27014D01*
X48805Y-27094D02*
X49810Y-27094D01*
X53311Y-27094D02*
X54670Y-27094D01*
X53690Y-27174D02*
X54529Y-27174D01*
X53786Y-27254D02*
X54454Y-27254D01*
X53821Y-27334D02*
X54420Y-27334D01*
X53826Y-27414D02*
X54397Y-27414D01*
X53826Y-27494D02*
X54397Y-27494D01*
X53826Y-27574D02*
X54410Y-27574D01*
X53826Y-27654D02*
X54443Y-27654D01*
X53826Y-27734D02*
X54506Y-27734D01*
X53826Y-27814D02*
X54617Y-27814D01*
X53826Y-27894D02*
X54706Y-27894D01*
X53826Y-27974D02*
X54786Y-27974D01*
X53826Y-28054D02*
X54813Y-28054D01*
X53826Y-28134D02*
X54813Y-28134D01*
X53826Y-28214D02*
X54813Y-28214D01*
X53806Y-28294D02*
X54813Y-28294D01*
X53752Y-28374D02*
X53848Y-28374D01*
X52175Y-28454D02*
X52579Y-28454D01*
X53122Y-28454D02*
X53760Y-28454D01*
X52201Y-28534D02*
X52513Y-28534D01*
X53188Y-28534D02*
X53727Y-28534D01*
X52211Y-28614D02*
X52480Y-28614D01*
X53221Y-28614D02*
X53723Y-28614D01*
X52211Y-28694D02*
X52464Y-28694D01*
X53236Y-28694D02*
X53723Y-28694D01*
X52211Y-28774D02*
X52464Y-28774D01*
X53236Y-28774D02*
X53723Y-28774D01*
X52211Y-28854D02*
X52484Y-28854D01*
X53215Y-28854D02*
X53723Y-28854D01*
X52211Y-28934D02*
X52517Y-28934D01*
X53182Y-28934D02*
X53723Y-28934D01*
X52211Y-29014D02*
X52590Y-29014D01*
X53109Y-29014D02*
X53723Y-29014D01*
X52211Y-29094D02*
X52725Y-29094D01*
X52975Y-29094D02*
X53723Y-29094D01*
X52211Y-29174D02*
X53723Y-29174D01*
X52211Y-29254D02*
X53723Y-29254D01*
X52211Y-29334D02*
X53216Y-29334D01*
X53683Y-29334D02*
X53723Y-29334D01*
X52211Y-29414D02*
X53136Y-29414D01*
X52211Y-29494D02*
X53095Y-29494D01*
X52211Y-29574D02*
X53063Y-29574D01*
X52211Y-29654D02*
X53063Y-29654D01*
X52211Y-29734D02*
X53067Y-29734D01*
X52211Y-29814D02*
X53100Y-29814D01*
X52211Y-29894D02*
X53135Y-29894D01*
X52211Y-29974D02*
X52343Y-29974D01*
X52564Y-29974D02*
X53156Y-29974D01*
X52707Y-30054D02*
X53209Y-30054D01*
X52783Y-30134D02*
X53284Y-30134D01*
X52817Y-30214D02*
X53383Y-30214D01*
X52839Y-30294D02*
X53622Y-30294D01*
X53623Y-30294D02*
X53629Y-30294D01*
X52839Y-30374D02*
X53634Y-30374D01*
X49128Y-30454D02*
X49164Y-30454D01*
X52065Y-30454D02*
X52079Y-30454D01*
X52826Y-30454D02*
X53667Y-30454D01*
X49128Y-30534D02*
X49182Y-30534D01*
X51985Y-30534D02*
X52112Y-30534D01*
X52792Y-30534D02*
X53723Y-30534D01*
X49128Y-30614D02*
X49169Y-30614D01*
X51905Y-30614D02*
X52175Y-30614D01*
X52730Y-30614D02*
X53723Y-30614D01*
X49128Y-30694D02*
X49169Y-30694D01*
X51825Y-30694D02*
X52285Y-30694D01*
X52621Y-30694D02*
X53723Y-30694D01*
X49128Y-30774D02*
X49191Y-30774D01*
X51745Y-30774D02*
X53723Y-30774D01*
X49128Y-30854D02*
X49225Y-30854D01*
X51665Y-30854D02*
X53723Y-30854D01*
X49128Y-30934D02*
X49301Y-30934D01*
X49808Y-30934D02*
X49908Y-30934D01*
X51558Y-30934D02*
X53723Y-30934D01*
X49128Y-31014D02*
X49444Y-31014D01*
X49665Y-31014D02*
X50002Y-31014D01*
X50391Y-31014D02*
X53723Y-31014D01*
X49128Y-31094D02*
X53724Y-31094D01*
X49128Y-31174D02*
X53723Y-31174D01*
X49128Y-31254D02*
X53723Y-31254D01*
X49128Y-31334D02*
X53723Y-31334D01*
X49128Y-31414D02*
X53723Y-31414D01*
X49128Y-31494D02*
X53723Y-31494D01*
X49128Y-31574D02*
X50140Y-31574D01*
X50608Y-31574D02*
X53723Y-31574D01*
X49128Y-31654D02*
X49627Y-31654D01*
X50688Y-31654D02*
X53723Y-31654D01*
X49128Y-31734D02*
X49533Y-31734D01*
X50729Y-31734D02*
X53723Y-31734D01*
X49128Y-31814D02*
X49453Y-31814D01*
X50760Y-31814D02*
X53723Y-31814D01*
X49112Y-31894D02*
X49373Y-31894D01*
X50760Y-31894D02*
X53723Y-31894D01*
X49073Y-31974D02*
X49293Y-31974D01*
X50755Y-31974D02*
X53723Y-31974D01*
X49009Y-32054D02*
X49234Y-32054D01*
X50721Y-32054D02*
X53723Y-32054D01*
X48929Y-32134D02*
X49203Y-32134D01*
X50671Y-32134D02*
X53723Y-32134D01*
X48840Y-32214D02*
X49190Y-32214D01*
X49872Y-32214D02*
X50158Y-32214D01*
X50590Y-32214D02*
X53723Y-32214D01*
X46984Y-32294D02*
X49190Y-32294D01*
X49792Y-32294D02*
X53723Y-32294D01*
X46978Y-32374D02*
X49190Y-32374D01*
X49770Y-32374D02*
X53723Y-32374D01*
X46944Y-32454D02*
X49190Y-32454D01*
X49770Y-32454D02*
X53723Y-32454D01*
X46892Y-32534D02*
X49190Y-32534D01*
X49770Y-32534D02*
X53723Y-32534D01*
X46807Y-32614D02*
X49190Y-32614D01*
X49770Y-32614D02*
X53723Y-32614D01*
X46441Y-32694D02*
X46471Y-32694D01*
X46471Y-32694D02*
X49124Y-32694D01*
X49770Y-32694D02*
X51968Y-32694D01*
X52261Y-32694D02*
X53723Y-32694D01*
X49764Y-32774D02*
X51846Y-32774D01*
X52383Y-32774D02*
X53723Y-32774D01*
X49748Y-32854D02*
X51779Y-32854D01*
X52451Y-32854D02*
X53723Y-32854D01*
X49697Y-32934D02*
X51745Y-32934D01*
X52484Y-32934D02*
X53723Y-32934D01*
X49623Y-33014D02*
X51728Y-33014D01*
X52500Y-33014D02*
X53723Y-33014D01*
X49542Y-33094D02*
X51728Y-33094D01*
X52500Y-33094D02*
X53723Y-33094D01*
X49530Y-33174D02*
X51747Y-33174D01*
X52480Y-33174D02*
X53723Y-33174D01*
X49610Y-33254D02*
X51780Y-33254D01*
X52447Y-33254D02*
X53723Y-33254D01*
X49687Y-33334D02*
X51851Y-33334D01*
X52376Y-33334D02*
X53723Y-33334D01*
X49740Y-33414D02*
X51982Y-33414D01*
X52246Y-33414D02*
X53723Y-33414D01*
X49757Y-33494D02*
X53723Y-33494D01*
X46415Y-33574D02*
X46471Y-33574D01*
X46472Y-33574D02*
X49109Y-33574D01*
X49763Y-33574D02*
X53723Y-33574D01*
X46471Y-33654D02*
X49183Y-33654D01*
X49763Y-33654D02*
X53723Y-33654D01*
X46447Y-33734D02*
X49183Y-33734D01*
X49763Y-33734D02*
X53723Y-33734D01*
X46408Y-33814D02*
X49183Y-33814D01*
X49763Y-33814D02*
X53723Y-33814D01*
X46371Y-33894D02*
X49183Y-33894D01*
X49813Y-33894D02*
X53723Y-33894D01*
X46371Y-33974D02*
X49184Y-33974D01*
X49893Y-33974D02*
X50066Y-33974D01*
X50516Y-33974D02*
X53723Y-33974D01*
X46371Y-34054D02*
X49200Y-34054D01*
X50596Y-34054D02*
X53723Y-34054D01*
X46371Y-34134D02*
X49243Y-34134D01*
X50643Y-34134D02*
X53723Y-34134D01*
X46371Y-34214D02*
X49311Y-34214D01*
X50676Y-34214D02*
X53723Y-34214D01*
X46371Y-34294D02*
X49391Y-34294D01*
X50677Y-34294D02*
X53723Y-34294D01*
X46371Y-34374D02*
X49471Y-34374D01*
X50676Y-34374D02*
X53723Y-34374D01*
X46371Y-34454D02*
X49551Y-34454D01*
X50642Y-34454D02*
X53723Y-34454D01*
X46371Y-34534D02*
X49647Y-34534D01*
X50597Y-34534D02*
X53723Y-34534D01*
X46371Y-34614D02*
X50064Y-34614D01*
X50517Y-34614D02*
X53723Y-34614D01*
X46371Y-34694D02*
X53723Y-34694D01*
X46371Y-34774D02*
X53723Y-34774D01*
X46371Y-34854D02*
X53723Y-34854D01*
X46371Y-34934D02*
X53723Y-34934D01*
X46371Y-35014D02*
X53711Y-35014D01*
X46371Y-35094D02*
X53658Y-35094D01*
X46371Y-35174D02*
X48307Y-35174D01*
X48504Y-35174D02*
X53625Y-35174D01*
X46371Y-35254D02*
X48157Y-35254D01*
X48654Y-35254D02*
X53622Y-35254D01*
X53623Y-35254D02*
X53653Y-35254D01*
X44288Y-35334D02*
X44340Y-35334D01*
X46371Y-35334D02*
X48078Y-35334D01*
X48733Y-35334D02*
X53623Y-35334D01*
X53623Y-35334D02*
X53664Y-35334D01*
X44288Y-35414D02*
X44465Y-35414D01*
X46371Y-35414D02*
X48045Y-35414D01*
X48767Y-35414D02*
X53623Y-35414D01*
X53623Y-35414D02*
X53629Y-35414D01*
X44288Y-35494D02*
X44465Y-35494D01*
X46371Y-35494D02*
X48019Y-35494D01*
X48791Y-35494D02*
X53622Y-35494D01*
X53623Y-35494D02*
X53633Y-35494D01*
X44288Y-35574D02*
X44465Y-35574D01*
X46371Y-35574D02*
X48019Y-35574D01*
X48843Y-35574D02*
X53667Y-35574D01*
X44288Y-35654D02*
X44495Y-35654D01*
X46371Y-35654D02*
X48029Y-35654D01*
X48897Y-35654D02*
X53623Y-35654D01*
X53623Y-35654D02*
X53644Y-35654D01*
X44288Y-35734D02*
X44528Y-35734D01*
X46357Y-35734D02*
X48063Y-35734D01*
X48919Y-35734D02*
X48953Y-35734D01*
X49124Y-35734D02*
X53627Y-35734D01*
X44288Y-35814D02*
X44607Y-35814D01*
X46312Y-35814D02*
X46430Y-35814D01*
X44288Y-35894D02*
X44740Y-35894D01*
X45039Y-35894D02*
X45255Y-35894D01*
X46187Y-35894D02*
X46318Y-35894D01*
X44288Y-35974D02*
X46278Y-35974D01*
X44288Y-36054D02*
X46268Y-36054D01*
X44288Y-36134D02*
X44653Y-36134D01*
X45127Y-36134D02*
X46268Y-36134D01*
X44288Y-36214D02*
X44571Y-36214D01*
X45209Y-36214D02*
X46268Y-36214D01*
X44288Y-36294D02*
X44514Y-36294D01*
X45267Y-36294D02*
X46268Y-36294D01*
X44288Y-36374D02*
X44481Y-36374D01*
X45300Y-36374D02*
X46268Y-36374D01*
X44288Y-36454D02*
X44465Y-36454D01*
X45315Y-36454D02*
X46268Y-36454D01*
X44288Y-36534D02*
X44465Y-36534D01*
X45315Y-36534D02*
X46268Y-36534D01*
X44288Y-36614D02*
X44478Y-36614D01*
X45301Y-36614D02*
X46268Y-36614D01*
X44288Y-36694D02*
X44511Y-36694D01*
X45267Y-36694D02*
X46268Y-36694D01*
X44288Y-36774D02*
X44567Y-36774D01*
X45213Y-36774D02*
X46268Y-36774D01*
X44288Y-36854D02*
X44647Y-36854D01*
X45133Y-36854D02*
X46268Y-36854D01*
X44288Y-36934D02*
X46283Y-36934D01*
X44288Y-37014D02*
X46332Y-37014D01*
X44288Y-37094D02*
X44752Y-37094D01*
X45013Y-37094D02*
X46462Y-37094D01*
X46719Y-37094D02*
X46719Y-37094D01*
X46974Y-37094D02*
X46974Y-37094D01*
X47229Y-37094D02*
X47229Y-37094D01*
X47484Y-37094D02*
X47484Y-37094D01*
X47739Y-37094D02*
X47743Y-37094D01*
X48509Y-37094D02*
X48509Y-37094D01*
X48880Y-37094D02*
X48904Y-37094D01*
X49279Y-37094D02*
X49279Y-37094D01*
X49534Y-37094D02*
X49534Y-37094D01*
X49789Y-37094D02*
X49789Y-37094D01*
X44288Y-37174D02*
X44607Y-37174D01*
X45157Y-37174D02*
X47795Y-37174D01*
X48474Y-37174D02*
X48693Y-37174D01*
X48816Y-37174D02*
X48967Y-37174D01*
X49090Y-37174D02*
X49794Y-37174D01*
X52389Y-37174D02*
X52413Y-37174D01*
X44288Y-37254D02*
X44527Y-37254D01*
X45237Y-37254D02*
X47761Y-37254D01*
X48508Y-37254D02*
X49782Y-37254D01*
X51480Y-37254D02*
X51514Y-37254D01*
X52389Y-37254D02*
X52413Y-37254D01*
X44288Y-37334D02*
X44491Y-37334D01*
X45274Y-37334D02*
X47748Y-37334D01*
X48520Y-37334D02*
X49782Y-37334D01*
X51480Y-37334D02*
X51536Y-37334D01*
X52389Y-37334D02*
X52413Y-37334D01*
X44288Y-37414D02*
X44458Y-37414D01*
X45307Y-37414D02*
X47748Y-37414D01*
X48520Y-37414D02*
X49782Y-37414D01*
X52389Y-37414D02*
X52413Y-37414D01*
X44288Y-37494D02*
X44457Y-37494D01*
X45307Y-37494D02*
X47770Y-37494D01*
X48496Y-37494D02*
X49814Y-37494D01*
X51446Y-37494D02*
X51492Y-37494D01*
X52389Y-37494D02*
X52413Y-37494D01*
X44288Y-37574D02*
X44457Y-37574D01*
X45307Y-37574D02*
X47804Y-37574D01*
X48463Y-37574D02*
X49847Y-37574D01*
X51413Y-37574D02*
X51519Y-37574D01*
X52389Y-37574D02*
X52413Y-37574D01*
X44288Y-37654D02*
X44485Y-37654D01*
X45278Y-37654D02*
X47880Y-37654D01*
X48387Y-37654D02*
X49906Y-37654D01*
X51356Y-37654D02*
X51546Y-37654D01*
X52389Y-37654D02*
X52413Y-37654D01*
X44288Y-37734D02*
X44518Y-37734D01*
X45244Y-37734D02*
X47419Y-37734D01*
X47660Y-37734D02*
X48023Y-37734D01*
X48244Y-37734D02*
X49986Y-37734D01*
X51276Y-37734D02*
X51614Y-37734D01*
X52389Y-37734D02*
X52413Y-37734D01*
X44288Y-37814D02*
X44595Y-37814D01*
X45169Y-37814D02*
X47282Y-37814D01*
X47797Y-37814D02*
X49849Y-37814D01*
X51122Y-37814D02*
X51692Y-37814D01*
X52389Y-37814D02*
X52413Y-37814D01*
X44288Y-37894D02*
X44722Y-37894D01*
X45041Y-37894D02*
X47208Y-37894D01*
X47871Y-37894D02*
X49753Y-37894D01*
X50326Y-37894D02*
X51827Y-37894D01*
X52389Y-37894D02*
X52413Y-37894D01*
X44288Y-37974D02*
X46271Y-37974D01*
X46944Y-37974D02*
X47175Y-37974D01*
X47904Y-37974D02*
X49696Y-37974D01*
X50383Y-37974D02*
X52944Y-37974D01*
X44288Y-38054D02*
X46062Y-38054D01*
X47122Y-38054D02*
X47153Y-38054D01*
X47925Y-38054D02*
X49663Y-38054D01*
X50416Y-38054D02*
X52944Y-38054D01*
X44333Y-38134D02*
X45967Y-38134D01*
X47925Y-38134D02*
X49653Y-38134D01*
X50425Y-38134D02*
X52944Y-38134D01*
X44413Y-38214D02*
X45164Y-38214D01*
X45348Y-38214D02*
X45936Y-38214D01*
X47910Y-38214D02*
X49653Y-38214D01*
X50425Y-38214D02*
X52944Y-38214D01*
X44493Y-38294D02*
X45005Y-38294D01*
X45502Y-38294D02*
X45879Y-38294D01*
X45903Y-38294D02*
X45937Y-38294D01*
X47876Y-38294D02*
X49679Y-38294D01*
X50398Y-38294D02*
X52944Y-38294D01*
X44573Y-38374D02*
X44931Y-38374D01*
X45582Y-38374D02*
X45718Y-38374D01*
X45983Y-38374D02*
X46017Y-38374D01*
X47812Y-38374D02*
X49241Y-38374D01*
X49452Y-38374D02*
X49714Y-38374D01*
X50363Y-38374D02*
X52971Y-38374D01*
X44653Y-38454D02*
X44897Y-38454D01*
X45616Y-38454D02*
X45682Y-38454D01*
X46063Y-38454D02*
X46097Y-38454D01*
X47697Y-38454D02*
X49095Y-38454D01*
X49598Y-38454D02*
X49794Y-38454D01*
X50283Y-38454D02*
X53036Y-38454D01*
X44733Y-38534D02*
X44870Y-38534D01*
X45642Y-38534D02*
X45646Y-38534D01*
X46143Y-38534D02*
X46177Y-38534D01*
X47562Y-38534D02*
X49018Y-38534D01*
X49676Y-38534D02*
X49950Y-38534D01*
X50128Y-38534D02*
X53062Y-38534D01*
X44813Y-38614D02*
X44870Y-38614D01*
X46223Y-38614D02*
X46257Y-38614D01*
X47593Y-38614D02*
X48984Y-38614D01*
X49709Y-38614D02*
X52980Y-38614D01*
X46303Y-38694D02*
X46337Y-38694D01*
X47623Y-38694D02*
X48960Y-38694D01*
X49732Y-38694D02*
X52947Y-38694D01*
X46383Y-38774D02*
X46417Y-38774D01*
X47654Y-38774D02*
X48960Y-38774D01*
X46463Y-38854D02*
X46497Y-38854D01*
X47660Y-38854D02*
X48972Y-38854D01*
X46543Y-38934D02*
X46577Y-38934D01*
X47658Y-38934D02*
X49005Y-38934D01*
X46546Y-39014D02*
X46547Y-39014D01*
X46623Y-39014D02*
X46657Y-39014D01*
X47655Y-39014D02*
X49066Y-39014D01*
X46466Y-39094D02*
X46467Y-39094D01*
X46703Y-39094D02*
X46737Y-39094D01*
X47653Y-39094D02*
X49173Y-39094D01*
X46386Y-39174D02*
X46387Y-39174D01*
X46783Y-39174D02*
X46817Y-39174D01*
X47651Y-39174D02*
X49361Y-39174D01*
X46306Y-39254D02*
X46307Y-39254D01*
X46863Y-39254D02*
X46897Y-39254D01*
X47632Y-39254D02*
X49441Y-39254D01*
X46226Y-39334D02*
X46227Y-39334D01*
X46943Y-39334D02*
X46977Y-39334D01*
X47596Y-39334D02*
X49039Y-39334D01*
X49246Y-39334D02*
X49565Y-39334D01*
X46146Y-39414D02*
X46147Y-39414D01*
X47023Y-39414D02*
X47057Y-39414D01*
X47560Y-39414D02*
X48892Y-39414D01*
X49393Y-39414D02*
X50012Y-39414D01*
X47103Y-39494D02*
X47137Y-39494D01*
X47524Y-39494D02*
X48814Y-39494D01*
X49471Y-39494D02*
X49932Y-39494D01*
X47183Y-39574D02*
X47217Y-39574D01*
X47488Y-39574D02*
X48781Y-39574D01*
X49504Y-39574D02*
X49860Y-39574D01*
X47263Y-39654D02*
X47297Y-39654D01*
X47335Y-39654D02*
X48756Y-39654D01*
X49528Y-39654D02*
X49826Y-39654D01*
X47270Y-39734D02*
X48756Y-39734D01*
X49528Y-39734D02*
X49793Y-39734D01*
X47238Y-39814D02*
X48767Y-39814D01*
X49516Y-39814D02*
X49782Y-39814D01*
X47153Y-39894D02*
X48800Y-39894D01*
X49482Y-39894D02*
X49782Y-39894D01*
X46944Y-39974D02*
X48861Y-39974D01*
X49422Y-39974D02*
X49782Y-39974D01*
X55021Y-31110D02*
X55021Y-31110D01*
X55021Y-31190D02*
X55092Y-31190D01*
X57866Y-31190D02*
X57890Y-31190D01*
X55021Y-31270D02*
X55540Y-31270D01*
X55792Y-31270D02*
X55800Y-31270D01*
X56115Y-31270D02*
X56123Y-31270D01*
X56375Y-31270D02*
X56820Y-31270D01*
X57843Y-31270D02*
X57913Y-31270D01*
X55021Y-31350D02*
X56992Y-31350D01*
X57764Y-31350D02*
X58065Y-31350D01*
X55021Y-31430D02*
X57004Y-31430D01*
X57751Y-31430D02*
X58081Y-31430D01*
X55021Y-31510D02*
X55504Y-31510D01*
X55802Y-31510D02*
X57037Y-31510D01*
X57717Y-31510D02*
X58120Y-31510D01*
X55021Y-31590D02*
X55384Y-31590D01*
X55923Y-31590D02*
X57099Y-31590D01*
X57656Y-31590D02*
X58181Y-31590D01*
X55021Y-31670D02*
X55317Y-31670D01*
X55990Y-31670D02*
X57207Y-31670D01*
X57548Y-31670D02*
X58228Y-31670D01*
X55021Y-31750D02*
X55284Y-31750D01*
X56023Y-31750D02*
X58262Y-31750D01*
X55021Y-31830D02*
X55267Y-31830D01*
X56039Y-31830D02*
X58335Y-31830D01*
X55021Y-31910D02*
X55267Y-31910D01*
X56039Y-31910D02*
X58472Y-31910D01*
X55021Y-31990D02*
X55286Y-31990D01*
X56019Y-31990D02*
X58465Y-31990D01*
X55021Y-32070D02*
X55319Y-32070D01*
X55985Y-32070D02*
X58468Y-32070D01*
X55021Y-32150D02*
X55391Y-32150D01*
X55914Y-32150D02*
X56279Y-32150D01*
X56644Y-32150D02*
X58484Y-32150D01*
X55925Y-32230D02*
X56178Y-32230D01*
X56745Y-32230D02*
X58518Y-32230D01*
X56029Y-32310D02*
X56111Y-32310D01*
X56804Y-32310D02*
X58572Y-32310D01*
X56837Y-32390D02*
X58644Y-32390D01*
X56847Y-32470D02*
X58724Y-32470D01*
X56847Y-32550D02*
X58804Y-32550D01*
X56821Y-32630D02*
X58884Y-32630D01*
X56788Y-32710D02*
X58964Y-32710D01*
X56708Y-32790D02*
X58985Y-32790D01*
X56557Y-32870D02*
X58985Y-32870D01*
X56413Y-32950D02*
X56673Y-32950D01*
X56775Y-32950D02*
X56941Y-32950D01*
X57044Y-32950D02*
X58985Y-32950D01*
X56413Y-33030D02*
X56539Y-33030D01*
X56846Y-33030D02*
X56870Y-33030D01*
X57177Y-33030D02*
X58985Y-33030D01*
X58906Y-33110D02*
X58985Y-33110D01*
X58959Y-33190D02*
X58985Y-33190D01*
X58977Y-33270D02*
X58985Y-33270D01*
X58977Y-33350D02*
X58985Y-33350D01*
X58977Y-33430D02*
X58985Y-33430D01*
X58977Y-33510D02*
X58985Y-33510D01*
X58977Y-33590D02*
X58985Y-33590D01*
X58977Y-33670D02*
X58985Y-33670D01*
X58977Y-33750D02*
X58985Y-33750D01*
X58977Y-33830D02*
X58985Y-33830D01*
X58945Y-33910D02*
X58985Y-33910D01*
X56846Y-33990D02*
X56870Y-33990D01*
X58874Y-33990D02*
X58936Y-33990D01*
X56823Y-34070D02*
X56893Y-34070D01*
X57145Y-34070D02*
X58858Y-34070D01*
X56628Y-34150D02*
X58834Y-34150D01*
X56628Y-34230D02*
X58830Y-34230D01*
X56617Y-34310D02*
X58830Y-34310D01*
X56590Y-34390D02*
X58830Y-34390D01*
X56534Y-34470D02*
X58830Y-34470D01*
X56430Y-34550D02*
X58830Y-34550D01*
X55705Y-34630D02*
X58830Y-34630D01*
X55674Y-34710D02*
X58830Y-34710D01*
X55633Y-34790D02*
X58830Y-34790D01*
X55021Y-34870D02*
X55084Y-34870D01*
X55553Y-34870D02*
X58830Y-34870D01*
X55021Y-34950D02*
X58830Y-34950D01*
X55049Y-35030D02*
X58830Y-35030D01*
X55094Y-35110D02*
X58830Y-35110D01*
X55121Y-35190D02*
X58830Y-35190D01*
X55074Y-35270D02*
X55121Y-35270D01*
X55121Y-35270D02*
X58830Y-35270D01*
X55087Y-35350D02*
X55121Y-35350D01*
X55122Y-35350D02*
X58830Y-35350D01*
X55121Y-35430D02*
X58830Y-35430D01*
X55102Y-35510D02*
X55121Y-35510D01*
X55121Y-35510D02*
X58830Y-35510D01*
X55070Y-35590D02*
X55121Y-35590D01*
X55122Y-35590D02*
X58830Y-35590D01*
X55116Y-35670D02*
X55121Y-35670D01*
X55122Y-35670D02*
X58830Y-35670D01*
X55109Y-35750D02*
X58830Y-35750D01*
X55076Y-35830D02*
X58830Y-35830D01*
X55007Y-35910D02*
X58830Y-35910D01*
X53823Y-35990D02*
X53876Y-35990D01*
X54867Y-35990D02*
X58830Y-35990D01*
X53826Y-36070D02*
X54161Y-36070D01*
X54762Y-36070D02*
X58830Y-36070D01*
X53826Y-36150D02*
X54112Y-36150D01*
X54811Y-36150D02*
X58830Y-36150D01*
X53826Y-36230D02*
X54079Y-36230D01*
X54844Y-36230D02*
X58830Y-36230D01*
X53826Y-36310D02*
X54075Y-36310D01*
X54847Y-36310D02*
X58098Y-36310D01*
X58343Y-36310D02*
X58830Y-36310D01*
X53826Y-36390D02*
X54075Y-36390D01*
X54847Y-36390D02*
X56175Y-36390D01*
X56329Y-36390D02*
X57962Y-36390D01*
X58486Y-36390D02*
X58830Y-36390D01*
X53827Y-36470D02*
X54107Y-36470D01*
X54814Y-36470D02*
X56013Y-36470D01*
X56492Y-36470D02*
X57889Y-36470D01*
X58588Y-36470D02*
X58830Y-36470D01*
X53827Y-36550D02*
X54150Y-36550D01*
X54771Y-36550D02*
X55933Y-36550D01*
X56572Y-36550D02*
X57855Y-36550D01*
X58641Y-36550D02*
X58830Y-36550D01*
X53827Y-36630D02*
X54230Y-36630D01*
X54691Y-36630D02*
X55895Y-36630D01*
X56610Y-36630D02*
X57834Y-36630D01*
X58658Y-36630D02*
X58830Y-36630D01*
X53827Y-36710D02*
X55866Y-36710D01*
X56638Y-36710D02*
X57834Y-36710D01*
X58660Y-36710D02*
X58830Y-36710D01*
X53827Y-36790D02*
X55866Y-36790D01*
X56638Y-36790D02*
X57848Y-36790D01*
X58644Y-36790D02*
X58830Y-36790D01*
X53827Y-36870D02*
X55873Y-36870D01*
X56630Y-36870D02*
X57882Y-36870D01*
X58596Y-36870D02*
X58830Y-36870D01*
X53827Y-36950D02*
X55906Y-36950D01*
X56597Y-36950D02*
X57947Y-36950D01*
X58506Y-36950D02*
X58830Y-36950D01*
X53827Y-37030D02*
X55960Y-37030D01*
X56543Y-37030D02*
X58065Y-37030D01*
X58376Y-37030D02*
X58830Y-37030D01*
X53827Y-37110D02*
X56052Y-37110D01*
X53829Y-37190D02*
X55972Y-37190D01*
X53862Y-37270D02*
X55892Y-37270D01*
X53886Y-37350D02*
X55812Y-37350D01*
X54052Y-37430D02*
X55732Y-37430D01*
X54121Y-37510D02*
X55652Y-37510D01*
X54150Y-37590D02*
X55572Y-37590D01*
X54150Y-37670D02*
X55492Y-37670D01*
X54150Y-37750D02*
X55412Y-37750D01*
X54150Y-37830D02*
X55332Y-37830D01*
X54150Y-37910D02*
X55252Y-37910D01*
X54150Y-37990D02*
X55172Y-37990D01*
X54150Y-38070D02*
X54262Y-38070D01*
X54660Y-38070D02*
X55092Y-38070D01*
X54150Y-38150D02*
X54170Y-38150D01*
X54752Y-38150D02*
X55012Y-38150D01*
X54807Y-38230D02*
X54932Y-38230D01*
X54840Y-38310D02*
X54852Y-38310D01*
X54360Y-35565D02*
X54384Y-35565D01*
X49021Y-28443D02*
X49021Y-28443D01*
X46684Y-28523D02*
X47582Y-28523D01*
X48303Y-28523D02*
X48658Y-28523D01*
X49018Y-28523D02*
X49976Y-28523D01*
X50102Y-28523D02*
X50142Y-28523D01*
X46684Y-28603D02*
X47571Y-28603D01*
X48336Y-28603D02*
X48556Y-28603D01*
X49121Y-28603D02*
X50142Y-28603D01*
X46684Y-28683D02*
X47567Y-28683D01*
X48339Y-28683D02*
X48497Y-28683D01*
X49180Y-28683D02*
X50145Y-28683D01*
X46684Y-28763D02*
X47567Y-28763D01*
X48339Y-28763D02*
X48463Y-28763D01*
X49214Y-28763D02*
X50161Y-28763D01*
X46684Y-28843D02*
X46816Y-28843D01*
X47066Y-28843D02*
X47598Y-28843D01*
X48306Y-28843D02*
X48452Y-28843D01*
X49224Y-28843D02*
X50209Y-28843D01*
X47201Y-28923D02*
X47641Y-28923D01*
X48264Y-28923D02*
X48452Y-28923D01*
X49224Y-28923D02*
X50281Y-28923D01*
X47274Y-29003D02*
X47721Y-29003D01*
X48184Y-29003D02*
X48476Y-29003D01*
X49198Y-29003D02*
X50300Y-29003D01*
X47307Y-29083D02*
X48510Y-29083D01*
X49165Y-29083D02*
X50333Y-29083D01*
X47327Y-29163D02*
X48548Y-29163D01*
X49128Y-29163D02*
X50385Y-29163D01*
X47327Y-29243D02*
X48548Y-29243D01*
X49128Y-29243D02*
X50470Y-29243D01*
X50892Y-29243D02*
X50934Y-29243D01*
X47311Y-29323D02*
X48548Y-29323D01*
X49128Y-29323D02*
X50934Y-29323D01*
X47278Y-29403D02*
X48548Y-29403D01*
X49128Y-29403D02*
X50934Y-29403D01*
X47212Y-29483D02*
X48548Y-29483D01*
X49128Y-29483D02*
X49271Y-29483D01*
X46684Y-29563D02*
X46787Y-29563D01*
X47095Y-29563D02*
X48548Y-29563D01*
X49128Y-29563D02*
X49165Y-29563D01*
X46684Y-29643D02*
X48548Y-29643D01*
X46684Y-29723D02*
X48548Y-29723D01*
X46684Y-29803D02*
X48548Y-29803D01*
X46684Y-29883D02*
X48548Y-29883D01*
X46684Y-29963D02*
X48548Y-29963D01*
X46684Y-30043D02*
X48548Y-30043D01*
X46684Y-30123D02*
X48548Y-30123D01*
X46684Y-30203D02*
X48548Y-30203D01*
X46684Y-30283D02*
X48548Y-30283D01*
X46678Y-30363D02*
X48548Y-30363D01*
X46662Y-30443D02*
X48548Y-30443D01*
X46609Y-30523D02*
X48548Y-30523D01*
X46535Y-30603D02*
X48548Y-30603D01*
X46444Y-30683D02*
X48548Y-30683D01*
X46371Y-30763D02*
X48548Y-30763D01*
X46371Y-30843D02*
X48548Y-30843D01*
X46371Y-30923D02*
X48548Y-30923D01*
X46371Y-31003D02*
X48548Y-31003D01*
X46371Y-31083D02*
X48548Y-31083D01*
X46372Y-31163D02*
X46545Y-31163D01*
X46786Y-31163D02*
X48548Y-31163D01*
X46923Y-31243D02*
X48548Y-31243D01*
X46997Y-31323D02*
X48548Y-31323D01*
X47030Y-31403D02*
X48548Y-31403D01*
X47051Y-31483D02*
X48548Y-31483D01*
X47051Y-31563D02*
X48548Y-31563D01*
X47036Y-31643D02*
X48548Y-31643D01*
X58220Y-27126D02*
X58816Y-27126D01*
X58304Y-27206D02*
X58830Y-27206D01*
X58463Y-27286D02*
X58830Y-27286D01*
X58550Y-27366D02*
X58830Y-27366D01*
X58603Y-27446D02*
X58830Y-27446D01*
X58636Y-27526D02*
X58830Y-27526D01*
X58642Y-27606D02*
X58830Y-27606D01*
X58642Y-27686D02*
X58830Y-27686D01*
X58612Y-27766D02*
X58830Y-27766D01*
X58573Y-27846D02*
X58830Y-27846D01*
X58493Y-27926D02*
X58830Y-27926D01*
X58225Y-28006D02*
X58830Y-28006D01*
X58145Y-28086D02*
X58830Y-28086D01*
X58065Y-28166D02*
X58830Y-28166D01*
X57985Y-28246D02*
X58830Y-28246D01*
X57908Y-28326D02*
X58830Y-28326D01*
X57908Y-28406D02*
X58830Y-28406D01*
X57908Y-28486D02*
X58830Y-28486D01*
X57908Y-28566D02*
X58830Y-28566D01*
X57908Y-28646D02*
X58830Y-28646D01*
X57908Y-28726D02*
X58830Y-28726D01*
X57908Y-28806D02*
X58830Y-28806D01*
X57908Y-28886D02*
X58830Y-28886D01*
X57908Y-28966D02*
X58830Y-28966D01*
X57908Y-29046D02*
X58830Y-29046D01*
X57908Y-29126D02*
X58830Y-29126D01*
X57908Y-29206D02*
X58830Y-29206D01*
X57908Y-29286D02*
X58830Y-29286D01*
X57908Y-29366D02*
X58137Y-29366D01*
X58478Y-29366D02*
X58830Y-29366D01*
X57908Y-29446D02*
X58029Y-29446D01*
X58586Y-29446D02*
X58830Y-29446D01*
X57908Y-29526D02*
X57968Y-29526D01*
X58648Y-29526D02*
X58830Y-29526D01*
X57908Y-29606D02*
X57934Y-29606D01*
X58681Y-29606D02*
X58830Y-29606D01*
X57908Y-29686D02*
X57921Y-29686D01*
X58693Y-29686D02*
X58830Y-29686D01*
X57908Y-29766D02*
X57921Y-29766D01*
X57908Y-29846D02*
X57944Y-29846D01*
X57908Y-29926D02*
X57977Y-29926D01*
X57908Y-30006D02*
X57966Y-30006D01*
X57894Y-30086D02*
X57905Y-30086D01*
X57890Y-30107D02*
X57943Y-30029D01*
X58010Y-29961D01*
X57980Y-29932D01*
X57921Y-29790D01*
X57921Y-29636D01*
X57980Y-29495D01*
X58088Y-29386D01*
X58230Y-29327D01*
X58384Y-29327D01*
X58525Y-29386D01*
X58634Y-29494D01*
X58693Y-29636D01*
X58693Y-29759D01*
X58815Y-29735D01*
X58830Y-29735D01*
X58830Y-27140D01*
X58816Y-27126D01*
X58220Y-27126D01*
X58230Y-27132D01*
X58329Y-27232D01*
X58333Y-27232D01*
X58474Y-27291D01*
X58583Y-27399D01*
X58642Y-27541D01*
X58642Y-27695D01*
X58583Y-27836D01*
X58475Y-27945D01*
X58333Y-28004D01*
X58227Y-28004D01*
X57908Y-28323D01*
X57908Y-30019D01*
X57890Y-30107D01*
M02*
