G04 (created by PCBNEW-RS274X (2010-03-14)-final) date Wed 05 Dec 2012 01:19:00 PM EST*
G01*
G70*
G90*
%MOIN*%
G04 Gerber Fmt 3.4, Leading zero omitted, Abs format*
%FSLAX34Y34*%
G04 APERTURE LIST*
%ADD10C,0.006000*%
%ADD11C,0.001000*%
G04 APERTURE END LIST*
G54D10*
G54D11*
X59035Y-37118D02*
X59035Y-34165D01*
X46153Y-23929D02*
X50299Y-23929D01*
X44083Y-38173D02*
X44083Y-26000D01*
X44083Y-38174D02*
X44083Y-38173D01*
X46153Y-40244D02*
X44083Y-38174D01*
X47543Y-40244D02*
X46153Y-40244D01*
X44083Y-25999D02*
X44083Y-26000D01*
X46153Y-23929D02*
X44083Y-25999D01*
X53209Y-40244D02*
X47543Y-40244D01*
X56201Y-37252D02*
X53209Y-40244D01*
X58898Y-37252D02*
X56201Y-37252D01*
X58901Y-37252D02*
X58898Y-37252D01*
X59035Y-37118D02*
X58901Y-37252D01*
X58901Y-38346D02*
X58898Y-38346D01*
X58901Y-26921D02*
X58677Y-26921D01*
X59035Y-27055D02*
X58901Y-26921D01*
X59035Y-29260D02*
X59035Y-27055D01*
X59035Y-30016D02*
X59035Y-29260D01*
X59035Y-30016D02*
X59035Y-30020D01*
X56201Y-26921D02*
X58677Y-26921D01*
X53209Y-23929D02*
X56201Y-26921D01*
X50295Y-23929D02*
X53209Y-23929D01*
X59370Y-34165D02*
X59035Y-34165D01*
X63437Y-30016D02*
X59035Y-30016D01*
X63437Y-34165D02*
X59370Y-34165D01*
X63437Y-30016D02*
X63437Y-34165D01*
M02*
