G04 (created by PCBNEW-RS274X (2010-03-14)-final) date Tue 02 Apr 2013 08:10:29 PM EDT*
G01*
G70*
G90*
%MOIN*%
G04 Gerber Fmt 3.4, Leading zero omitted, Abs format*
%FSLAX34Y34*%
G04 APERTURE LIST*
%ADD10C,0.002000*%
%ADD11C,0.001000*%
%ADD12O,0.138700X0.079300*%
%ADD13R,0.090900X0.082900*%
%ADD14R,0.027000X0.092000*%
%ADD15R,0.092000X0.027000*%
%ADD16R,0.028000X0.062000*%
%ADD17C,0.157000*%
%ADD18R,0.072000X0.072000*%
%ADD19C,0.072000*%
%ADD20C,0.080000*%
%ADD21C,0.085600*%
%ADD22C,0.084800*%
%ADD23C,0.074000*%
%ADD24O,0.157000X0.087000*%
%ADD25C,0.086000*%
G04 APERTURE END LIST*
G54D10*
G54D11*
X59035Y-35027D02*
X59035Y-37118D01*
X59035Y-29122D02*
X59035Y-27055D01*
X61579Y-29709D02*
X61579Y-29122D01*
X61579Y-35024D02*
X61579Y-29709D01*
X59035Y-35024D02*
X59035Y-35027D01*
X61579Y-35024D02*
X59035Y-35024D01*
X61579Y-29122D02*
X59035Y-29122D01*
X46153Y-23929D02*
X50299Y-23929D01*
X44083Y-38173D02*
X44083Y-26000D01*
X44083Y-38174D02*
X44083Y-38173D01*
X46153Y-40244D02*
X44083Y-38174D01*
X47543Y-40244D02*
X46153Y-40244D01*
X44083Y-25999D02*
X44083Y-26000D01*
X46153Y-23929D02*
X44083Y-25999D01*
X53209Y-40244D02*
X47543Y-40244D01*
X56201Y-37252D02*
X53209Y-40244D01*
X58898Y-37252D02*
X56201Y-37252D01*
X58901Y-37252D02*
X58898Y-37252D01*
X59035Y-37118D02*
X58901Y-37252D01*
X58901Y-38346D02*
X58898Y-38346D01*
X58901Y-26921D02*
X58677Y-26921D01*
X59035Y-27055D02*
X58901Y-26921D01*
X59035Y-30016D02*
X59035Y-30020D01*
X56201Y-26921D02*
X58677Y-26921D01*
X53209Y-23929D02*
X56201Y-26921D01*
X50295Y-23929D02*
X53209Y-23929D01*
G54D12*
X52401Y-37308D03*
X52401Y-39866D03*
X50631Y-37308D03*
X50631Y-39866D03*
X50631Y-26917D03*
X50631Y-24359D03*
X52401Y-26917D03*
X52401Y-24359D03*
G54D13*
X56953Y-28543D03*
X56953Y-29661D03*
X56051Y-28543D03*
X56051Y-29661D03*
X53547Y-37945D03*
X53547Y-39063D03*
G54D14*
X53502Y-27797D03*
X53247Y-27797D03*
X52992Y-27797D03*
X52737Y-27797D03*
X52482Y-27797D03*
X52222Y-27797D03*
X51967Y-27797D03*
X51712Y-27797D03*
X51457Y-27797D03*
X51202Y-27797D03*
X50942Y-27797D03*
X50687Y-27797D03*
X50432Y-27797D03*
X50177Y-27797D03*
X49917Y-27797D03*
X49662Y-27797D03*
X49407Y-27797D03*
X49152Y-27797D03*
X48892Y-27797D03*
X48637Y-27797D03*
X48382Y-27797D03*
X48127Y-27797D03*
X47872Y-27797D03*
X47612Y-27797D03*
X47357Y-27797D03*
X47102Y-27797D03*
X46847Y-27797D03*
X46592Y-27797D03*
G54D15*
X45722Y-28667D03*
X45722Y-28922D03*
X45722Y-29177D03*
X45722Y-29432D03*
X45722Y-29687D03*
X45722Y-29947D03*
X45722Y-30202D03*
X45722Y-30457D03*
X45722Y-30712D03*
X45722Y-30967D03*
X45722Y-31227D03*
X45722Y-31482D03*
X45722Y-31737D03*
X45722Y-31992D03*
X45722Y-32252D03*
X45722Y-32507D03*
X45722Y-32762D03*
X45722Y-33017D03*
X45722Y-33277D03*
X45722Y-33532D03*
X45722Y-33787D03*
X45722Y-34042D03*
X45722Y-34297D03*
X45722Y-34557D03*
X45722Y-34812D03*
X45722Y-35067D03*
X45722Y-35322D03*
X45722Y-35577D03*
G54D14*
X46592Y-36447D03*
X46847Y-36447D03*
X47102Y-36447D03*
X47357Y-36447D03*
X47612Y-36447D03*
X47872Y-36447D03*
X48127Y-36447D03*
X48382Y-36447D03*
X48637Y-36447D03*
X48892Y-36447D03*
X49152Y-36447D03*
X49407Y-36447D03*
X49662Y-36447D03*
X49917Y-36447D03*
X50177Y-36447D03*
X50432Y-36447D03*
X50687Y-36447D03*
X50942Y-36447D03*
X51202Y-36447D03*
X51457Y-36447D03*
X51712Y-36447D03*
X51967Y-36447D03*
X52222Y-36447D03*
X52482Y-36447D03*
X52737Y-36447D03*
X52992Y-36447D03*
X53247Y-36447D03*
X53502Y-36447D03*
G54D15*
X54372Y-35577D03*
X54372Y-35322D03*
X54372Y-35067D03*
X54372Y-34812D03*
X54372Y-34557D03*
X54372Y-34297D03*
X54372Y-34042D03*
X54372Y-33787D03*
X54372Y-33532D03*
X54372Y-33277D03*
X54372Y-33017D03*
X54372Y-32762D03*
X54372Y-32507D03*
X54372Y-32252D03*
X54372Y-31992D03*
X54372Y-31737D03*
X54372Y-31482D03*
X54372Y-31227D03*
X54372Y-30967D03*
X54372Y-30712D03*
X54372Y-30457D03*
X54372Y-30202D03*
X54372Y-29947D03*
X54372Y-29687D03*
X54372Y-29432D03*
X54372Y-29177D03*
X54372Y-28922D03*
X54372Y-28667D03*
G54D16*
X55318Y-33534D03*
X55568Y-33534D03*
X55828Y-33534D03*
X56088Y-33534D03*
X56338Y-33534D03*
X56598Y-33534D03*
X56858Y-33534D03*
X57108Y-33534D03*
X57368Y-33534D03*
X57618Y-33534D03*
X57878Y-33534D03*
X58138Y-33534D03*
X58388Y-33534D03*
X58648Y-33534D03*
X58648Y-30734D03*
X58388Y-30734D03*
X58148Y-30734D03*
X57878Y-30734D03*
X57618Y-30734D03*
X57368Y-30734D03*
X57108Y-30734D03*
X56858Y-30734D03*
X56598Y-30734D03*
X56338Y-30734D03*
X56088Y-30734D03*
X55828Y-30734D03*
X55568Y-30734D03*
X55318Y-30734D03*
G54D17*
X46602Y-38976D03*
G54D18*
X47471Y-24618D03*
G54D19*
X48521Y-24618D03*
X47521Y-25618D03*
X48471Y-25618D03*
X47471Y-26618D03*
X48521Y-26618D03*
G54D18*
X44865Y-38189D03*
G54D19*
X44805Y-37189D03*
X44865Y-36189D03*
X44805Y-35189D03*
G54D20*
X44865Y-34189D03*
G54D21*
X45791Y-24913D03*
G54D22*
X54209Y-25551D03*
X58362Y-36653D03*
G54D23*
X59602Y-33449D03*
X59602Y-32465D03*
X59602Y-31677D03*
X59602Y-30693D03*
G54D24*
X60441Y-34374D03*
X60441Y-29768D03*
G54D25*
X60441Y-31165D03*
X60441Y-32977D03*
M02*
