G04 (created by PCBNEW-RS274X (2010-03-14)-final) date Tue 02 Apr 2013 08:10:29 PM EDT*
G01*
G70*
G90*
%MOIN*%
G04 Gerber Fmt 3.4, Leading zero omitted, Abs format*
%FSLAX34Y34*%
G04 APERTURE LIST*
%ADD10C,0.002000*%
%ADD11C,0.001000*%
%ADD12C,0.005800*%
%ADD13C,0.005000*%
%ADD14C,0.006700*%
%ADD15C,0.007900*%
%ADD16C,0.008700*%
%ADD17C,0.013000*%
%ADD18C,0.010000*%
%ADD19C,0.015000*%
%ADD20C,0.003300*%
%ADD21C,0.004200*%
G04 APERTURE END LIST*
G54D10*
G54D11*
X59035Y-35027D02*
X59035Y-37118D01*
X59035Y-29122D02*
X59035Y-27055D01*
X61579Y-29709D02*
X61579Y-29122D01*
X61579Y-35024D02*
X61579Y-29709D01*
X59035Y-35024D02*
X59035Y-35027D01*
X61579Y-35024D02*
X59035Y-35024D01*
X61579Y-29122D02*
X59035Y-29122D01*
G54D12*
X53540Y-27864D02*
X53540Y-27489D01*
X53390Y-27864D02*
X53390Y-27668D01*
X53406Y-27632D01*
X53440Y-27614D01*
X53490Y-27614D01*
X53523Y-27632D01*
X53540Y-27650D01*
X53273Y-27614D02*
X53139Y-27614D01*
X53223Y-27489D02*
X53223Y-27811D01*
X53206Y-27846D01*
X53173Y-27864D01*
X53139Y-27864D01*
X53073Y-27614D02*
X52939Y-27614D01*
X53023Y-27489D02*
X53023Y-27811D01*
X53006Y-27846D01*
X52973Y-27864D01*
X52939Y-27864D01*
X52823Y-27614D02*
X52823Y-27989D01*
X52823Y-27632D02*
X52789Y-27614D01*
X52723Y-27614D01*
X52689Y-27632D01*
X52673Y-27650D01*
X52656Y-27686D01*
X52656Y-27793D01*
X52673Y-27829D01*
X52689Y-27846D01*
X52723Y-27864D01*
X52789Y-27864D01*
X52823Y-27846D01*
X52506Y-27829D02*
X52489Y-27846D01*
X52506Y-27864D01*
X52522Y-27846D01*
X52506Y-27829D01*
X52506Y-27864D01*
X52506Y-27632D02*
X52489Y-27650D01*
X52506Y-27668D01*
X52522Y-27650D01*
X52506Y-27632D01*
X52506Y-27668D01*
X52089Y-27471D02*
X52389Y-27954D01*
X51722Y-27471D02*
X52022Y-27954D01*
X51638Y-27614D02*
X51571Y-27864D01*
X51505Y-27686D01*
X51438Y-27864D01*
X51371Y-27614D01*
X51271Y-27614D02*
X51204Y-27864D01*
X51138Y-27686D01*
X51071Y-27864D01*
X51004Y-27614D01*
X50904Y-27614D02*
X50837Y-27864D01*
X50771Y-27686D01*
X50704Y-27864D01*
X50637Y-27614D01*
X50504Y-27829D02*
X50487Y-27846D01*
X50504Y-27864D01*
X50520Y-27846D01*
X50504Y-27829D01*
X50504Y-27864D01*
X50137Y-27829D02*
X50153Y-27846D01*
X50203Y-27864D01*
X50237Y-27864D01*
X50287Y-27846D01*
X50320Y-27811D01*
X50337Y-27775D01*
X50353Y-27704D01*
X50353Y-27650D01*
X50337Y-27579D01*
X50320Y-27543D01*
X50287Y-27507D01*
X50237Y-27489D01*
X50203Y-27489D01*
X50153Y-27507D01*
X50137Y-27525D01*
X49937Y-27864D02*
X49970Y-27846D01*
X49987Y-27829D01*
X50003Y-27793D01*
X50003Y-27686D01*
X49987Y-27650D01*
X49970Y-27632D01*
X49937Y-27614D01*
X49887Y-27614D01*
X49853Y-27632D01*
X49837Y-27650D01*
X49820Y-27686D01*
X49820Y-27793D01*
X49837Y-27829D01*
X49853Y-27846D01*
X49887Y-27864D01*
X49937Y-27864D01*
X49620Y-27864D02*
X49653Y-27846D01*
X49670Y-27829D01*
X49686Y-27793D01*
X49686Y-27686D01*
X49670Y-27650D01*
X49653Y-27632D01*
X49620Y-27614D01*
X49570Y-27614D01*
X49536Y-27632D01*
X49520Y-27650D01*
X49503Y-27686D01*
X49503Y-27793D01*
X49520Y-27829D01*
X49536Y-27846D01*
X49570Y-27864D01*
X49620Y-27864D01*
X49303Y-27864D02*
X49336Y-27846D01*
X49353Y-27811D01*
X49353Y-27489D01*
X49170Y-27668D02*
X49053Y-27668D01*
X49003Y-27864D02*
X49170Y-27864D01*
X49170Y-27489D01*
X49003Y-27489D01*
X48736Y-27668D02*
X48853Y-27668D01*
X48853Y-27864D02*
X48853Y-27489D01*
X48686Y-27489D01*
X48553Y-27864D02*
X48553Y-27489D01*
X48386Y-27829D02*
X48369Y-27846D01*
X48386Y-27864D01*
X48402Y-27846D01*
X48386Y-27829D01*
X48386Y-27864D01*
X48069Y-27846D02*
X48102Y-27864D01*
X48169Y-27864D01*
X48202Y-27846D01*
X48219Y-27829D01*
X48235Y-27793D01*
X48235Y-27686D01*
X48219Y-27650D01*
X48202Y-27632D01*
X48169Y-27614D01*
X48102Y-27614D01*
X48069Y-27632D01*
X47869Y-27864D02*
X47902Y-27846D01*
X47919Y-27829D01*
X47935Y-27793D01*
X47935Y-27686D01*
X47919Y-27650D01*
X47902Y-27632D01*
X47869Y-27614D01*
X47819Y-27614D01*
X47785Y-27632D01*
X47769Y-27650D01*
X47752Y-27686D01*
X47752Y-27793D01*
X47769Y-27829D01*
X47785Y-27846D01*
X47819Y-27864D01*
X47869Y-27864D01*
X47602Y-27864D02*
X47602Y-27614D01*
X47602Y-27650D02*
X47585Y-27632D01*
X47552Y-27614D01*
X47502Y-27614D01*
X47468Y-27632D01*
X47452Y-27668D01*
X47452Y-27864D01*
X47452Y-27668D02*
X47435Y-27632D01*
X47402Y-27614D01*
X47352Y-27614D01*
X47318Y-27632D01*
X47302Y-27668D01*
X47302Y-27864D01*
G54D11*
X46153Y-23929D02*
X50299Y-23929D01*
X44083Y-38173D02*
X44083Y-26000D01*
X44083Y-38174D02*
X44083Y-38173D01*
X46153Y-40244D02*
X44083Y-38174D01*
X47543Y-40244D02*
X46153Y-40244D01*
X44083Y-25999D02*
X44083Y-26000D01*
X46153Y-23929D02*
X44083Y-25999D01*
X53209Y-40244D02*
X47543Y-40244D01*
X56201Y-37252D02*
X53209Y-40244D01*
X58898Y-37252D02*
X56201Y-37252D01*
X58901Y-37252D02*
X58898Y-37252D01*
X59035Y-37118D02*
X58901Y-37252D01*
X58901Y-38346D02*
X58898Y-38346D01*
X58901Y-26921D02*
X58677Y-26921D01*
X59035Y-27055D02*
X58901Y-26921D01*
X59035Y-30016D02*
X59035Y-30020D01*
X56201Y-26921D02*
X58677Y-26921D01*
X53209Y-23929D02*
X56201Y-26921D01*
X50295Y-23929D02*
X53209Y-23929D01*
G54D12*
X58598Y-32934D02*
X58481Y-33284D01*
X58364Y-32934D01*
X58114Y-33267D02*
X58148Y-33284D01*
X58214Y-33284D01*
X58248Y-33267D01*
X58264Y-33234D01*
X58264Y-33100D01*
X58248Y-33067D01*
X58214Y-33050D01*
X58148Y-33050D01*
X58114Y-33067D01*
X58098Y-33100D01*
X58098Y-33134D01*
X58264Y-33167D01*
X57948Y-33284D02*
X57948Y-33050D01*
X57948Y-33117D02*
X57931Y-33084D01*
X57914Y-33067D01*
X57881Y-33050D01*
X57848Y-33050D01*
X57747Y-33267D02*
X57714Y-33284D01*
X57647Y-33284D01*
X57614Y-33267D01*
X57597Y-33234D01*
X57597Y-33217D01*
X57614Y-33184D01*
X57647Y-33167D01*
X57697Y-33167D01*
X57731Y-33150D01*
X57747Y-33117D01*
X57747Y-33100D01*
X57731Y-33067D01*
X57697Y-33050D01*
X57647Y-33050D01*
X57614Y-33067D01*
X57448Y-33284D02*
X57448Y-33050D01*
X57448Y-32934D02*
X57464Y-32950D01*
X57448Y-32967D01*
X57431Y-32950D01*
X57448Y-32934D01*
X57448Y-32967D01*
X57231Y-33284D02*
X57264Y-33267D01*
X57281Y-33250D01*
X57297Y-33217D01*
X57297Y-33117D01*
X57281Y-33084D01*
X57264Y-33067D01*
X57231Y-33050D01*
X57181Y-33050D01*
X57147Y-33067D01*
X57131Y-33084D01*
X57114Y-33117D01*
X57114Y-33217D01*
X57131Y-33250D01*
X57147Y-33267D01*
X57181Y-33284D01*
X57231Y-33284D01*
X56964Y-33050D02*
X56964Y-33284D01*
X56964Y-33084D02*
X56947Y-33067D01*
X56914Y-33050D01*
X56864Y-33050D01*
X56830Y-33067D01*
X56814Y-33100D01*
X56814Y-33284D01*
X56313Y-32934D02*
X56280Y-32934D01*
X56246Y-32950D01*
X56230Y-32967D01*
X56213Y-33000D01*
X56196Y-33067D01*
X56196Y-33150D01*
X56213Y-33217D01*
X56230Y-33250D01*
X56246Y-33267D01*
X56280Y-33284D01*
X56313Y-33284D01*
X56346Y-33267D01*
X56363Y-33250D01*
X56380Y-33217D01*
X56396Y-33150D01*
X56396Y-33067D01*
X56380Y-33000D01*
X56363Y-32967D01*
X56346Y-32950D01*
X56313Y-32934D01*
X56047Y-33250D02*
X56030Y-33267D01*
X56047Y-33284D01*
X56063Y-33267D01*
X56047Y-33250D01*
X56047Y-33284D01*
X55913Y-32934D02*
X55696Y-32934D01*
X55813Y-33067D01*
X55763Y-33067D01*
X55730Y-33084D01*
X55713Y-33100D01*
X55696Y-33134D01*
X55696Y-33217D01*
X55713Y-33250D01*
X55730Y-33267D01*
X55763Y-33284D01*
X55863Y-33284D01*
X55896Y-33267D01*
X55913Y-33250D01*
X55547Y-33150D02*
X55280Y-33150D01*
X54964Y-33284D02*
X54964Y-33100D01*
X54980Y-33067D01*
X55014Y-33050D01*
X55080Y-33050D01*
X55114Y-33067D01*
X54964Y-33267D02*
X54997Y-33284D01*
X55080Y-33284D01*
X55114Y-33267D01*
X55130Y-33234D01*
X55130Y-33200D01*
X55114Y-33167D01*
X55080Y-33150D01*
X54997Y-33150D01*
X54964Y-33134D01*
X54747Y-33284D02*
X54780Y-33267D01*
X54797Y-33234D01*
X54797Y-32934D01*
X54614Y-33050D02*
X54614Y-33400D01*
X54614Y-33067D02*
X54580Y-33050D01*
X54514Y-33050D01*
X54480Y-33067D01*
X54464Y-33084D01*
X54447Y-33117D01*
X54447Y-33217D01*
X54464Y-33250D01*
X54480Y-33267D01*
X54514Y-33284D01*
X54580Y-33284D01*
X54614Y-33267D01*
X54297Y-33284D02*
X54297Y-32934D01*
X54147Y-33284D02*
X54147Y-33100D01*
X54163Y-33067D01*
X54197Y-33050D01*
X54247Y-33050D01*
X54280Y-33067D01*
X54297Y-33084D01*
X53830Y-33284D02*
X53830Y-33100D01*
X53846Y-33067D01*
X53880Y-33050D01*
X53946Y-33050D01*
X53980Y-33067D01*
X53830Y-33267D02*
X53863Y-33284D01*
X53946Y-33284D01*
X53980Y-33267D01*
X53996Y-33234D01*
X53996Y-33200D01*
X53980Y-33167D01*
X53946Y-33150D01*
X53863Y-33150D01*
X53830Y-33134D01*
G54D13*
X54578Y-33610D02*
X54578Y-33853D01*
X54592Y-33882D01*
X54607Y-33896D01*
X54635Y-33910D01*
X54678Y-33910D01*
X54707Y-33896D01*
X54578Y-33796D02*
X54607Y-33810D01*
X54664Y-33810D01*
X54692Y-33796D01*
X54707Y-33782D01*
X54721Y-33753D01*
X54721Y-33668D01*
X54707Y-33639D01*
X54692Y-33625D01*
X54664Y-33610D01*
X54607Y-33610D01*
X54578Y-33625D01*
X54436Y-33810D02*
X54436Y-33610D01*
X54436Y-33510D02*
X54450Y-33525D01*
X54436Y-33539D01*
X54421Y-33525D01*
X54436Y-33510D01*
X54436Y-33539D01*
X54335Y-33610D02*
X54221Y-33610D01*
X54293Y-33510D02*
X54293Y-33768D01*
X54278Y-33796D01*
X54250Y-33810D01*
X54221Y-33810D01*
X54122Y-33782D02*
X54107Y-33796D01*
X54122Y-33810D01*
X54136Y-33796D01*
X54122Y-33782D01*
X54122Y-33810D01*
X54122Y-33625D02*
X54107Y-33639D01*
X54122Y-33653D01*
X54136Y-33639D01*
X54122Y-33625D01*
X54122Y-33653D01*
X53621Y-33810D02*
X53621Y-33653D01*
X53635Y-33625D01*
X53664Y-33610D01*
X53721Y-33610D01*
X53750Y-33625D01*
X53621Y-33796D02*
X53650Y-33810D01*
X53721Y-33810D01*
X53750Y-33796D01*
X53764Y-33768D01*
X53764Y-33739D01*
X53750Y-33710D01*
X53721Y-33696D01*
X53650Y-33696D01*
X53621Y-33682D01*
X53350Y-33510D02*
X53407Y-33510D01*
X53436Y-33525D01*
X53450Y-33539D01*
X53479Y-33582D01*
X53493Y-33639D01*
X53493Y-33753D01*
X53479Y-33782D01*
X53464Y-33796D01*
X53436Y-33810D01*
X53379Y-33810D01*
X53350Y-33796D01*
X53336Y-33782D01*
X53321Y-33753D01*
X53321Y-33682D01*
X53336Y-33653D01*
X53350Y-33639D01*
X53379Y-33625D01*
X53436Y-33625D01*
X53464Y-33639D01*
X53479Y-33653D01*
X53493Y-33682D01*
X53064Y-33610D02*
X53064Y-33810D01*
X53135Y-33496D02*
X53207Y-33710D01*
X53021Y-33710D01*
X52849Y-33510D02*
X52821Y-33510D01*
X52792Y-33525D01*
X52778Y-33539D01*
X52764Y-33568D01*
X52749Y-33625D01*
X52749Y-33696D01*
X52764Y-33753D01*
X52778Y-33782D01*
X52792Y-33796D01*
X52821Y-33810D01*
X52849Y-33810D01*
X52878Y-33796D01*
X52892Y-33782D01*
X52907Y-33753D01*
X52921Y-33696D01*
X52921Y-33625D01*
X52907Y-33568D01*
X52892Y-33539D01*
X52878Y-33525D01*
X52849Y-33510D01*
X52463Y-33810D02*
X52635Y-33810D01*
X52549Y-33810D02*
X52549Y-33510D01*
X52578Y-33553D01*
X52606Y-33582D01*
X52635Y-33596D01*
X52192Y-33510D02*
X52335Y-33510D01*
X52349Y-33653D01*
X52335Y-33639D01*
X52306Y-33625D01*
X52235Y-33625D01*
X52206Y-33639D01*
X52192Y-33653D01*
X52177Y-33682D01*
X52177Y-33753D01*
X52192Y-33782D01*
X52206Y-33796D01*
X52235Y-33810D01*
X52306Y-33810D01*
X52335Y-33796D01*
X52349Y-33782D01*
X52091Y-33610D02*
X51977Y-33610D01*
X52049Y-33810D02*
X52049Y-33553D01*
X52034Y-33525D01*
X52006Y-33510D01*
X51977Y-33510D01*
X51906Y-33510D02*
X51706Y-33510D01*
X51835Y-33810D01*
X51634Y-33610D02*
X51520Y-33610D01*
X51592Y-33810D02*
X51592Y-33553D01*
X51577Y-33525D01*
X51549Y-33510D01*
X51520Y-33510D01*
X51449Y-33510D02*
X51249Y-33510D01*
X51378Y-33810D01*
G54D14*
X52808Y-28595D02*
X52789Y-28576D01*
X52751Y-28557D01*
X52655Y-28557D01*
X52617Y-28576D01*
X52598Y-28595D01*
X52579Y-28633D01*
X52579Y-28671D01*
X52598Y-28728D01*
X52827Y-28957D01*
X52579Y-28957D01*
X52332Y-28557D02*
X52293Y-28557D01*
X52255Y-28576D01*
X52236Y-28595D01*
X52217Y-28633D01*
X52198Y-28709D01*
X52198Y-28805D01*
X52217Y-28881D01*
X52236Y-28919D01*
X52255Y-28938D01*
X52293Y-28957D01*
X52332Y-28957D01*
X52370Y-28938D01*
X52389Y-28919D01*
X52408Y-28881D01*
X52427Y-28805D01*
X52427Y-28709D01*
X52408Y-28633D01*
X52389Y-28595D01*
X52370Y-28576D01*
X52332Y-28557D01*
X51817Y-28957D02*
X52046Y-28957D01*
X51932Y-28957D02*
X51932Y-28557D01*
X51970Y-28614D01*
X52008Y-28652D01*
X52046Y-28671D01*
X51665Y-28595D02*
X51646Y-28576D01*
X51608Y-28557D01*
X51512Y-28557D01*
X51474Y-28576D01*
X51455Y-28595D01*
X51436Y-28633D01*
X51436Y-28671D01*
X51455Y-28728D01*
X51684Y-28957D01*
X51436Y-28957D01*
G54D15*
X52885Y-29851D02*
X52658Y-29851D01*
X52930Y-29987D02*
X52771Y-29512D01*
X52613Y-29987D01*
X52455Y-29670D02*
X52455Y-29987D01*
X52455Y-29715D02*
X52432Y-29693D01*
X52387Y-29670D01*
X52319Y-29670D01*
X52274Y-29693D01*
X52251Y-29738D01*
X52251Y-29987D01*
X51821Y-29987D02*
X51821Y-29512D01*
X51821Y-29964D02*
X51867Y-29987D01*
X51957Y-29987D01*
X52002Y-29964D01*
X52025Y-29942D01*
X52048Y-29896D01*
X52048Y-29761D01*
X52025Y-29715D01*
X52002Y-29693D01*
X51957Y-29670D01*
X51867Y-29670D01*
X51821Y-29693D01*
X51640Y-29670D02*
X51527Y-29987D01*
X51414Y-29670D02*
X51527Y-29987D01*
X51572Y-30100D01*
X51595Y-30122D01*
X51640Y-30145D01*
X50622Y-29534D02*
X50667Y-29512D01*
X50735Y-29512D01*
X50803Y-29534D01*
X50848Y-29580D01*
X50871Y-29625D01*
X50894Y-29715D01*
X50894Y-29783D01*
X50871Y-29874D01*
X50848Y-29919D01*
X50803Y-29964D01*
X50735Y-29987D01*
X50690Y-29987D01*
X50622Y-29964D01*
X50599Y-29942D01*
X50599Y-29783D01*
X50690Y-29783D01*
X50328Y-29987D02*
X50373Y-29964D01*
X50396Y-29942D01*
X50419Y-29896D01*
X50419Y-29761D01*
X50396Y-29715D01*
X50373Y-29693D01*
X50328Y-29670D01*
X50260Y-29670D01*
X50215Y-29693D01*
X50192Y-29715D01*
X50170Y-29761D01*
X50170Y-29896D01*
X50192Y-29942D01*
X50215Y-29964D01*
X50260Y-29987D01*
X50328Y-29987D01*
X49989Y-29964D02*
X49943Y-29987D01*
X49853Y-29987D01*
X49808Y-29964D01*
X49785Y-29919D01*
X49785Y-29896D01*
X49808Y-29851D01*
X49853Y-29828D01*
X49921Y-29828D01*
X49966Y-29806D01*
X49989Y-29761D01*
X49989Y-29738D01*
X49966Y-29693D01*
X49921Y-29670D01*
X49853Y-29670D01*
X49808Y-29693D01*
X49604Y-29964D02*
X49558Y-29987D01*
X49468Y-29987D01*
X49423Y-29964D01*
X49400Y-29919D01*
X49400Y-29896D01*
X49423Y-29851D01*
X49468Y-29828D01*
X49536Y-29828D01*
X49581Y-29806D01*
X49604Y-29761D01*
X49604Y-29738D01*
X49581Y-29693D01*
X49536Y-29670D01*
X49468Y-29670D01*
X49423Y-29693D01*
G54D16*
X58576Y-32641D02*
X58576Y-32116D01*
X58452Y-32116D01*
X58378Y-32141D01*
X58329Y-32191D01*
X58304Y-32241D01*
X58279Y-32341D01*
X58279Y-32416D01*
X58304Y-32516D01*
X58329Y-32566D01*
X58378Y-32616D01*
X58452Y-32641D01*
X58576Y-32641D01*
X57858Y-32616D02*
X57908Y-32641D01*
X58007Y-32641D01*
X58056Y-32616D01*
X58081Y-32566D01*
X58081Y-32366D01*
X58056Y-32316D01*
X58007Y-32291D01*
X57908Y-32291D01*
X57858Y-32316D01*
X57833Y-32366D01*
X57833Y-32416D01*
X58081Y-32466D01*
X57660Y-32291D02*
X57536Y-32641D01*
X57412Y-32291D01*
X57016Y-32616D02*
X57066Y-32641D01*
X57165Y-32641D01*
X57214Y-32616D01*
X57239Y-32566D01*
X57239Y-32366D01*
X57214Y-32316D01*
X57165Y-32291D01*
X57066Y-32291D01*
X57016Y-32316D01*
X56991Y-32366D01*
X56991Y-32416D01*
X57239Y-32466D01*
X56694Y-32641D02*
X56743Y-32616D01*
X56768Y-32566D01*
X56768Y-32116D01*
X56422Y-32641D02*
X56471Y-32616D01*
X56496Y-32591D01*
X56521Y-32541D01*
X56521Y-32391D01*
X56496Y-32341D01*
X56471Y-32316D01*
X56422Y-32291D01*
X56348Y-32291D01*
X56298Y-32316D01*
X56273Y-32341D01*
X56249Y-32391D01*
X56249Y-32541D01*
X56273Y-32591D01*
X56298Y-32616D01*
X56348Y-32641D01*
X56422Y-32641D01*
X56026Y-32291D02*
X56026Y-32816D01*
X56026Y-32316D02*
X55977Y-32291D01*
X55878Y-32291D01*
X55828Y-32316D01*
X55803Y-32341D01*
X55779Y-32391D01*
X55779Y-32541D01*
X55803Y-32591D01*
X55828Y-32616D01*
X55878Y-32641D01*
X55977Y-32641D01*
X56026Y-32616D01*
X55556Y-32641D02*
X55556Y-32291D01*
X55556Y-32341D02*
X55531Y-32316D01*
X55482Y-32291D01*
X55408Y-32291D01*
X55358Y-32316D01*
X55333Y-32366D01*
X55333Y-32641D01*
X55333Y-32366D02*
X55309Y-32316D01*
X55259Y-32291D01*
X55185Y-32291D01*
X55135Y-32316D01*
X55110Y-32366D01*
X55110Y-32641D01*
X54665Y-32616D02*
X54715Y-32641D01*
X54814Y-32641D01*
X54863Y-32616D01*
X54888Y-32566D01*
X54888Y-32366D01*
X54863Y-32316D01*
X54814Y-32291D01*
X54715Y-32291D01*
X54665Y-32316D01*
X54640Y-32366D01*
X54640Y-32416D01*
X54888Y-32466D01*
X54417Y-32291D02*
X54417Y-32641D01*
X54417Y-32341D02*
X54392Y-32316D01*
X54343Y-32291D01*
X54269Y-32291D01*
X54219Y-32316D01*
X54194Y-32366D01*
X54194Y-32641D01*
X54021Y-32291D02*
X53823Y-32291D01*
X53947Y-32116D02*
X53947Y-32566D01*
X53922Y-32616D01*
X53873Y-32641D01*
X53823Y-32641D01*
X53081Y-32366D02*
X53007Y-32391D01*
X52982Y-32416D01*
X52957Y-32466D01*
X52957Y-32541D01*
X52982Y-32591D01*
X53007Y-32616D01*
X53056Y-32641D01*
X53254Y-32641D01*
X53254Y-32116D01*
X53081Y-32116D01*
X53031Y-32141D01*
X53007Y-32166D01*
X52982Y-32216D01*
X52982Y-32266D01*
X53007Y-32316D01*
X53031Y-32341D01*
X53081Y-32366D01*
X53254Y-32366D01*
X52660Y-32641D02*
X52709Y-32616D01*
X52734Y-32591D01*
X52759Y-32541D01*
X52759Y-32391D01*
X52734Y-32341D01*
X52709Y-32316D01*
X52660Y-32291D01*
X52586Y-32291D01*
X52536Y-32316D01*
X52511Y-32341D01*
X52487Y-32391D01*
X52487Y-32541D01*
X52511Y-32591D01*
X52536Y-32616D01*
X52586Y-32641D01*
X52660Y-32641D01*
X52041Y-32641D02*
X52041Y-32366D01*
X52066Y-32316D01*
X52116Y-32291D01*
X52215Y-32291D01*
X52264Y-32316D01*
X52041Y-32616D02*
X52091Y-32641D01*
X52215Y-32641D01*
X52264Y-32616D01*
X52289Y-32566D01*
X52289Y-32516D01*
X52264Y-32466D01*
X52215Y-32441D01*
X52091Y-32441D01*
X52041Y-32416D01*
X51794Y-32641D02*
X51794Y-32291D01*
X51794Y-32391D02*
X51769Y-32341D01*
X51745Y-32316D01*
X51695Y-32291D01*
X51646Y-32291D01*
X51249Y-32641D02*
X51249Y-32116D01*
X51249Y-32616D02*
X51299Y-32641D01*
X51398Y-32641D01*
X51447Y-32616D01*
X51472Y-32591D01*
X51497Y-32541D01*
X51497Y-32391D01*
X51472Y-32341D01*
X51447Y-32316D01*
X51398Y-32291D01*
X51299Y-32291D01*
X51249Y-32316D01*
G54D17*
X57778Y-31802D02*
X57826Y-31849D01*
X57969Y-31897D01*
X58064Y-31897D01*
X58207Y-31849D01*
X58302Y-31754D01*
X58350Y-31659D01*
X58398Y-31468D01*
X58398Y-31325D01*
X58350Y-31135D01*
X58302Y-31040D01*
X58207Y-30944D01*
X58064Y-30897D01*
X57969Y-30897D01*
X57826Y-30944D01*
X57778Y-30992D01*
X57350Y-31897D02*
X57350Y-31230D01*
X57350Y-31421D02*
X57302Y-31325D01*
X57255Y-31278D01*
X57159Y-31230D01*
X57064Y-31230D01*
X56302Y-31230D02*
X56302Y-31897D01*
X56731Y-31230D02*
X56731Y-31754D01*
X56683Y-31849D01*
X56588Y-31897D01*
X56445Y-31897D01*
X56350Y-31849D01*
X56302Y-31802D01*
X55826Y-31897D02*
X55826Y-31230D01*
X55826Y-30897D02*
X55874Y-30944D01*
X55826Y-30992D01*
X55778Y-30944D01*
X55826Y-30897D01*
X55826Y-30992D01*
X55398Y-31849D02*
X55302Y-31897D01*
X55112Y-31897D01*
X55017Y-31849D01*
X54969Y-31754D01*
X54969Y-31706D01*
X55017Y-31611D01*
X55112Y-31563D01*
X55255Y-31563D01*
X55350Y-31516D01*
X55398Y-31421D01*
X55398Y-31373D01*
X55350Y-31278D01*
X55255Y-31230D01*
X55112Y-31230D01*
X55017Y-31278D01*
X54159Y-31849D02*
X54254Y-31897D01*
X54445Y-31897D01*
X54540Y-31849D01*
X54588Y-31754D01*
X54588Y-31373D01*
X54540Y-31278D01*
X54445Y-31230D01*
X54254Y-31230D01*
X54159Y-31278D01*
X54111Y-31373D01*
X54111Y-31468D01*
X54588Y-31563D01*
X53683Y-31897D02*
X53683Y-31230D01*
X53683Y-31421D02*
X53635Y-31325D01*
X53588Y-31278D01*
X53492Y-31230D01*
X53397Y-31230D01*
G54D13*
X44487Y-30140D02*
X45127Y-30140D01*
X45127Y-31040D02*
X44487Y-31040D01*
X45127Y-31220D02*
X44487Y-31220D01*
X44487Y-31220D02*
X44487Y-29960D01*
X44487Y-29960D02*
X45127Y-29960D01*
X45127Y-29960D02*
X45127Y-31220D01*
X52702Y-34243D02*
X52702Y-34883D01*
X51802Y-34883D02*
X51802Y-34243D01*
X51622Y-34883D02*
X51622Y-34243D01*
X51622Y-34243D02*
X52882Y-34243D01*
X52882Y-34243D02*
X52882Y-34883D01*
X52882Y-34883D02*
X51622Y-34883D01*
X49430Y-35164D02*
X49430Y-35804D01*
X48530Y-35804D02*
X48530Y-35164D01*
X48350Y-35804D02*
X48350Y-35164D01*
X48350Y-35164D02*
X49610Y-35164D01*
X49610Y-35164D02*
X49610Y-35804D01*
X49610Y-35804D02*
X48350Y-35804D01*
X54781Y-37434D02*
X54141Y-37434D01*
X54141Y-36534D02*
X54781Y-36534D01*
X54141Y-36354D02*
X54781Y-36354D01*
X54781Y-36354D02*
X54781Y-37614D01*
X54781Y-37614D02*
X54141Y-37614D01*
X54141Y-37614D02*
X54141Y-36354D01*
X47060Y-33257D02*
X46420Y-33257D01*
X46420Y-32357D02*
X47060Y-32357D01*
X46420Y-32177D02*
X47060Y-32177D01*
X47060Y-32177D02*
X47060Y-33437D01*
X47060Y-33437D02*
X46420Y-33437D01*
X46420Y-33437D02*
X46420Y-32177D01*
X55745Y-36324D02*
X55105Y-36324D01*
X55105Y-35424D02*
X55745Y-35424D01*
X55105Y-35244D02*
X55745Y-35244D01*
X55745Y-35244D02*
X55745Y-36504D01*
X55745Y-36504D02*
X55105Y-36504D01*
X55105Y-36504D02*
X55105Y-35244D01*
X46420Y-30452D02*
X47060Y-30452D01*
X47060Y-31352D02*
X46420Y-31352D01*
X47060Y-31532D02*
X46420Y-31532D01*
X46420Y-31532D02*
X46420Y-30272D01*
X46420Y-30272D02*
X47060Y-30272D01*
X47060Y-30272D02*
X47060Y-31532D01*
X53215Y-29648D02*
X53855Y-29648D01*
X53855Y-30548D02*
X53215Y-30548D01*
X53855Y-30728D02*
X53215Y-30728D01*
X53215Y-30728D02*
X53215Y-29468D01*
X53215Y-29468D02*
X53855Y-29468D01*
X53855Y-29468D02*
X53855Y-30728D01*
X49688Y-29127D02*
X49688Y-28487D01*
X50588Y-28487D02*
X50588Y-29127D01*
X50768Y-28487D02*
X50768Y-29127D01*
X50768Y-29127D02*
X49508Y-29127D01*
X49508Y-29127D02*
X49508Y-28487D01*
X49508Y-28487D02*
X50768Y-28487D01*
X58540Y-29540D02*
X57900Y-29540D01*
X57900Y-28640D02*
X58540Y-28640D01*
X57900Y-28460D02*
X58540Y-28460D01*
X58540Y-28460D02*
X58540Y-29720D01*
X58540Y-29720D02*
X57900Y-29720D01*
X57900Y-29720D02*
X57900Y-28460D01*
X57469Y-35804D02*
X56829Y-35804D01*
X56829Y-34904D02*
X57469Y-34904D01*
X56829Y-34724D02*
X57469Y-34724D01*
X57469Y-34724D02*
X57469Y-35984D01*
X57469Y-35984D02*
X56829Y-35984D01*
X56829Y-35984D02*
X56829Y-34724D01*
X49962Y-26103D02*
X49322Y-26103D01*
X49322Y-25203D02*
X49962Y-25203D01*
X49322Y-25023D02*
X49962Y-25023D01*
X49962Y-25023D02*
X49962Y-26283D01*
X49962Y-26283D02*
X49322Y-26283D01*
X49322Y-26283D02*
X49322Y-25023D01*
G54D18*
X58606Y-27074D02*
X58606Y-27974D01*
X58606Y-27974D02*
X57956Y-27974D01*
X57256Y-27074D02*
X56606Y-27074D01*
X56606Y-27074D02*
X56606Y-27974D01*
X56606Y-27974D02*
X57256Y-27974D01*
X57956Y-27074D02*
X58606Y-27074D01*
X56405Y-27078D02*
X56405Y-27978D01*
X56405Y-27978D02*
X55755Y-27978D01*
X55055Y-27078D02*
X54405Y-27078D01*
X54405Y-27078D02*
X54405Y-27978D01*
X54405Y-27978D02*
X55055Y-27978D01*
X55755Y-27078D02*
X56405Y-27078D01*
X45325Y-31130D02*
X46225Y-31130D01*
X46225Y-31130D02*
X46225Y-31780D01*
X45325Y-32480D02*
X45325Y-33130D01*
X45325Y-33130D02*
X46225Y-33130D01*
X46225Y-33130D02*
X46225Y-32480D01*
X45325Y-31780D02*
X45325Y-31130D01*
X48869Y-37110D02*
X49769Y-37110D01*
X49769Y-37110D02*
X49769Y-37760D01*
X48869Y-38460D02*
X48869Y-39110D01*
X48869Y-39110D02*
X49769Y-39110D01*
X49769Y-39110D02*
X49769Y-38460D01*
X48869Y-37760D02*
X48869Y-37110D01*
X47676Y-37106D02*
X48576Y-37106D01*
X48576Y-37106D02*
X48576Y-37756D01*
X47676Y-38456D02*
X47676Y-39106D01*
X47676Y-39106D02*
X48576Y-39106D01*
X48576Y-39106D02*
X48576Y-38456D01*
X47676Y-37756D02*
X47676Y-37106D01*
X50949Y-38737D02*
X50949Y-37837D01*
X50949Y-37837D02*
X51599Y-37837D01*
X52299Y-38737D02*
X52949Y-38737D01*
X52949Y-38737D02*
X52949Y-37837D01*
X52949Y-37837D02*
X52299Y-37837D01*
X51599Y-38737D02*
X50949Y-38737D01*
X44963Y-25453D02*
X45863Y-25453D01*
X45863Y-25453D02*
X45863Y-26103D01*
X44963Y-26803D02*
X44963Y-27453D01*
X44963Y-27453D02*
X45863Y-27453D01*
X45863Y-27453D02*
X45863Y-26803D01*
X44963Y-26103D02*
X44963Y-25453D01*
X45226Y-29543D02*
X44326Y-29543D01*
X44326Y-29543D02*
X44326Y-28893D01*
X45226Y-28193D02*
X45226Y-27543D01*
X45226Y-27543D02*
X44326Y-27543D01*
X44326Y-27543D02*
X44326Y-28193D01*
X45226Y-28893D02*
X45226Y-29543D01*
X46871Y-28169D02*
X45971Y-28169D01*
X45971Y-28169D02*
X45971Y-27519D01*
X46871Y-26819D02*
X46871Y-26169D01*
X46871Y-26169D02*
X45971Y-26169D01*
X45971Y-26169D02*
X45971Y-26819D01*
X46871Y-27519D02*
X46871Y-28169D01*
X52496Y-25215D02*
X52496Y-26115D01*
X52496Y-26115D02*
X51846Y-26115D01*
X51146Y-25215D02*
X50496Y-25215D01*
X50496Y-25215D02*
X50496Y-26115D01*
X50496Y-26115D02*
X51146Y-26115D01*
X51846Y-25215D02*
X52496Y-25215D01*
X47424Y-28405D02*
X48324Y-28405D01*
X48324Y-28405D02*
X48324Y-29055D01*
X47424Y-29755D02*
X47424Y-30405D01*
X47424Y-30405D02*
X48324Y-30405D01*
X48324Y-30405D02*
X48324Y-29755D01*
X47424Y-29055D02*
X47424Y-28405D01*
G54D13*
X52698Y-31227D02*
X52698Y-31867D01*
X51798Y-31867D02*
X51798Y-31227D01*
X51618Y-31867D02*
X51618Y-31227D01*
X51618Y-31227D02*
X52878Y-31227D01*
X52878Y-31227D02*
X52878Y-31867D01*
X52878Y-31867D02*
X51618Y-31867D01*
X45127Y-33001D02*
X44487Y-33001D01*
X44487Y-32101D02*
X45127Y-32101D01*
X44487Y-31921D02*
X45127Y-31921D01*
X45127Y-31921D02*
X45127Y-33181D01*
X45127Y-33181D02*
X44487Y-33181D01*
X44487Y-33181D02*
X44487Y-31921D01*
X56615Y-35832D02*
X55975Y-35832D01*
X55975Y-34752D02*
X56615Y-34752D01*
X56615Y-34752D02*
X56615Y-36012D01*
X56615Y-36012D02*
X55975Y-36012D01*
X55975Y-36012D02*
X55975Y-34752D01*
G54D19*
X50865Y-31210D02*
X49765Y-31210D01*
X49765Y-31210D02*
X49765Y-34860D01*
X49765Y-34860D02*
X50865Y-34860D01*
X50865Y-34860D02*
X50865Y-31235D01*
G54D18*
X47272Y-34046D02*
X47272Y-34946D01*
X47272Y-34946D02*
X46622Y-34946D01*
X45922Y-34046D02*
X45272Y-34046D01*
X45272Y-34046D02*
X45272Y-34946D01*
X45272Y-34946D02*
X45922Y-34946D01*
X46622Y-34046D02*
X47272Y-34046D01*
X47272Y-35046D02*
X47272Y-35946D01*
X47272Y-35946D02*
X46622Y-35946D01*
X45922Y-35046D02*
X45272Y-35046D01*
X45272Y-35046D02*
X45272Y-35946D01*
X45272Y-35946D02*
X45922Y-35946D01*
X46622Y-35046D02*
X47272Y-35046D01*
G54D13*
X58502Y-34652D02*
X58002Y-34652D01*
X58502Y-35152D02*
X58012Y-35152D01*
X58502Y-35302D02*
X58502Y-34502D01*
X58502Y-34502D02*
X58002Y-34502D01*
X58002Y-34502D02*
X58002Y-35302D01*
X58002Y-35302D02*
X58502Y-35302D01*
G54D18*
X47272Y-37050D02*
X47272Y-37950D01*
X47272Y-37950D02*
X46622Y-37950D01*
X45922Y-37050D02*
X45272Y-37050D01*
X45272Y-37050D02*
X45272Y-37950D01*
X45272Y-37950D02*
X45922Y-37950D01*
X46622Y-37050D02*
X47272Y-37050D01*
X47272Y-36046D02*
X47272Y-36946D01*
X47272Y-36946D02*
X46622Y-36946D01*
X45922Y-36046D02*
X45272Y-36046D01*
X45272Y-36046D02*
X45272Y-36946D01*
X45272Y-36946D02*
X45922Y-36946D01*
X46622Y-36046D02*
X47272Y-36046D01*
G54D13*
X59152Y-35021D02*
X64702Y-35021D01*
X64702Y-29121D02*
X59152Y-29121D01*
X59152Y-35021D02*
X59152Y-29121D01*
X64702Y-35021D02*
X64702Y-29121D01*
G54D20*
X44322Y-30446D02*
X44331Y-30436D01*
X44341Y-30408D01*
X44341Y-30389D01*
X44331Y-30360D01*
X44312Y-30341D01*
X44293Y-30332D01*
X44255Y-30322D01*
X44227Y-30322D01*
X44189Y-30332D01*
X44170Y-30341D01*
X44150Y-30360D01*
X44141Y-30389D01*
X44141Y-30408D01*
X44150Y-30436D01*
X44160Y-30446D01*
X44341Y-30636D02*
X44341Y-30522D01*
X44341Y-30579D02*
X44141Y-30579D01*
X44170Y-30560D01*
X44189Y-30541D01*
X44198Y-30522D01*
X44208Y-30807D02*
X44341Y-30807D01*
X44131Y-30760D02*
X44274Y-30712D01*
X44274Y-30836D01*
G54D21*
X52413Y-35404D02*
X52425Y-35416D01*
X52460Y-35428D01*
X52484Y-35428D01*
X52520Y-35416D01*
X52544Y-35392D01*
X52555Y-35369D01*
X52567Y-35321D01*
X52567Y-35285D01*
X52555Y-35238D01*
X52544Y-35214D01*
X52520Y-35190D01*
X52484Y-35178D01*
X52460Y-35178D01*
X52425Y-35190D01*
X52413Y-35202D01*
X52175Y-35428D02*
X52317Y-35428D01*
X52246Y-35428D02*
X52246Y-35178D01*
X52270Y-35214D01*
X52294Y-35238D01*
X52317Y-35250D01*
X52091Y-35178D02*
X51937Y-35178D01*
X52020Y-35273D01*
X51984Y-35273D01*
X51960Y-35285D01*
X51948Y-35297D01*
X51937Y-35321D01*
X51937Y-35381D01*
X51948Y-35404D01*
X51960Y-35416D01*
X51984Y-35428D01*
X52056Y-35428D01*
X52079Y-35416D01*
X52091Y-35404D01*
X49169Y-34931D02*
X49181Y-34943D01*
X49216Y-34955D01*
X49240Y-34955D01*
X49276Y-34943D01*
X49300Y-34919D01*
X49311Y-34896D01*
X49323Y-34848D01*
X49323Y-34812D01*
X49311Y-34765D01*
X49300Y-34741D01*
X49276Y-34717D01*
X49240Y-34705D01*
X49216Y-34705D01*
X49181Y-34717D01*
X49169Y-34729D01*
X48931Y-34955D02*
X49073Y-34955D01*
X49002Y-34955D02*
X49002Y-34705D01*
X49026Y-34741D01*
X49050Y-34765D01*
X49073Y-34777D01*
X48776Y-34705D02*
X48752Y-34705D01*
X48728Y-34717D01*
X48716Y-34729D01*
X48704Y-34753D01*
X48693Y-34800D01*
X48693Y-34860D01*
X48704Y-34908D01*
X48716Y-34931D01*
X48728Y-34943D01*
X48752Y-34955D01*
X48776Y-34955D01*
X48800Y-34943D01*
X48812Y-34931D01*
X48823Y-34908D01*
X48835Y-34860D01*
X48835Y-34800D01*
X48823Y-34753D01*
X48812Y-34729D01*
X48800Y-34717D01*
X48776Y-34705D01*
X54535Y-38266D02*
X54547Y-38278D01*
X54582Y-38290D01*
X54606Y-38290D01*
X54642Y-38278D01*
X54666Y-38254D01*
X54677Y-38231D01*
X54689Y-38183D01*
X54689Y-38147D01*
X54677Y-38100D01*
X54666Y-38076D01*
X54642Y-38052D01*
X54606Y-38040D01*
X54582Y-38040D01*
X54547Y-38052D01*
X54535Y-38064D01*
X54416Y-38290D02*
X54368Y-38290D01*
X54344Y-38278D01*
X54332Y-38266D01*
X54308Y-38231D01*
X54297Y-38183D01*
X54297Y-38088D01*
X54308Y-38064D01*
X54320Y-38052D01*
X54344Y-38040D01*
X54392Y-38040D01*
X54416Y-38052D01*
X54427Y-38064D01*
X54439Y-38088D01*
X54439Y-38147D01*
X54427Y-38171D01*
X54416Y-38183D01*
X54392Y-38195D01*
X54344Y-38195D01*
X54320Y-38183D01*
X54308Y-38171D01*
X54297Y-38147D01*
X47482Y-32730D02*
X47494Y-32718D01*
X47506Y-32683D01*
X47506Y-32659D01*
X47494Y-32623D01*
X47470Y-32599D01*
X47447Y-32588D01*
X47399Y-32576D01*
X47363Y-32576D01*
X47316Y-32588D01*
X47292Y-32599D01*
X47268Y-32623D01*
X47256Y-32659D01*
X47256Y-32683D01*
X47268Y-32718D01*
X47280Y-32730D01*
X47363Y-32873D02*
X47351Y-32849D01*
X47340Y-32838D01*
X47316Y-32826D01*
X47304Y-32826D01*
X47280Y-32838D01*
X47268Y-32849D01*
X47256Y-32873D01*
X47256Y-32921D01*
X47268Y-32945D01*
X47280Y-32957D01*
X47304Y-32968D01*
X47316Y-32968D01*
X47340Y-32957D01*
X47351Y-32945D01*
X47363Y-32921D01*
X47363Y-32873D01*
X47375Y-32849D01*
X47387Y-32838D01*
X47411Y-32826D01*
X47459Y-32826D01*
X47482Y-32838D01*
X47494Y-32849D01*
X47506Y-32873D01*
X47506Y-32921D01*
X47494Y-32945D01*
X47482Y-32957D01*
X47459Y-32968D01*
X47411Y-32968D01*
X47387Y-32957D01*
X47375Y-32945D01*
X47363Y-32921D01*
X55514Y-37132D02*
X55526Y-37144D01*
X55561Y-37156D01*
X55585Y-37156D01*
X55621Y-37144D01*
X55645Y-37120D01*
X55656Y-37097D01*
X55668Y-37049D01*
X55668Y-37013D01*
X55656Y-36966D01*
X55645Y-36942D01*
X55621Y-36918D01*
X55585Y-36906D01*
X55561Y-36906D01*
X55526Y-36918D01*
X55514Y-36930D01*
X55430Y-36906D02*
X55264Y-36906D01*
X55371Y-37156D01*
X46751Y-29817D02*
X46763Y-29829D01*
X46798Y-29841D01*
X46822Y-29841D01*
X46858Y-29829D01*
X46882Y-29805D01*
X46893Y-29782D01*
X46905Y-29734D01*
X46905Y-29698D01*
X46893Y-29651D01*
X46882Y-29627D01*
X46858Y-29603D01*
X46822Y-29591D01*
X46798Y-29591D01*
X46763Y-29603D01*
X46751Y-29615D01*
X46536Y-29591D02*
X46584Y-29591D01*
X46608Y-29603D01*
X46620Y-29615D01*
X46643Y-29651D01*
X46655Y-29698D01*
X46655Y-29794D01*
X46643Y-29817D01*
X46632Y-29829D01*
X46608Y-29841D01*
X46560Y-29841D01*
X46536Y-29829D01*
X46524Y-29817D01*
X46513Y-29794D01*
X46513Y-29734D01*
X46524Y-29710D01*
X46536Y-29698D01*
X46560Y-29686D01*
X46608Y-29686D01*
X46632Y-29698D01*
X46643Y-29710D01*
X46655Y-29734D01*
X53554Y-28998D02*
X53566Y-29010D01*
X53601Y-29022D01*
X53625Y-29022D01*
X53661Y-29010D01*
X53685Y-28986D01*
X53696Y-28963D01*
X53708Y-28915D01*
X53708Y-28879D01*
X53696Y-28832D01*
X53685Y-28808D01*
X53661Y-28784D01*
X53625Y-28772D01*
X53601Y-28772D01*
X53566Y-28784D01*
X53554Y-28796D01*
X53327Y-28772D02*
X53446Y-28772D01*
X53458Y-28891D01*
X53446Y-28879D01*
X53423Y-28867D01*
X53363Y-28867D01*
X53339Y-28879D01*
X53327Y-28891D01*
X53316Y-28915D01*
X53316Y-28975D01*
X53327Y-28998D01*
X53339Y-29010D01*
X53363Y-29022D01*
X53423Y-29022D01*
X53446Y-29010D01*
X53458Y-28998D01*
X50208Y-28317D02*
X50220Y-28329D01*
X50255Y-28341D01*
X50279Y-28341D01*
X50315Y-28329D01*
X50339Y-28305D01*
X50350Y-28282D01*
X50362Y-28234D01*
X50362Y-28198D01*
X50350Y-28151D01*
X50339Y-28127D01*
X50315Y-28103D01*
X50279Y-28091D01*
X50255Y-28091D01*
X50220Y-28103D01*
X50208Y-28115D01*
X49993Y-28175D02*
X49993Y-28341D01*
X50053Y-28079D02*
X50112Y-28258D01*
X49958Y-28258D01*
X58920Y-29052D02*
X58932Y-29040D01*
X58944Y-29005D01*
X58944Y-28981D01*
X58932Y-28945D01*
X58908Y-28921D01*
X58885Y-28910D01*
X58837Y-28898D01*
X58801Y-28898D01*
X58754Y-28910D01*
X58730Y-28921D01*
X58706Y-28945D01*
X58694Y-28981D01*
X58694Y-29005D01*
X58706Y-29040D01*
X58718Y-29052D01*
X58694Y-29136D02*
X58694Y-29290D01*
X58789Y-29207D01*
X58789Y-29243D01*
X58801Y-29267D01*
X58813Y-29279D01*
X58837Y-29290D01*
X58897Y-29290D01*
X58920Y-29279D01*
X58932Y-29267D01*
X58944Y-29243D01*
X58944Y-29171D01*
X58932Y-29148D01*
X58920Y-29136D01*
X57180Y-36612D02*
X57192Y-36624D01*
X57227Y-36636D01*
X57251Y-36636D01*
X57287Y-36624D01*
X57311Y-36600D01*
X57322Y-36577D01*
X57334Y-36529D01*
X57334Y-36493D01*
X57322Y-36446D01*
X57311Y-36422D01*
X57287Y-36398D01*
X57251Y-36386D01*
X57227Y-36386D01*
X57192Y-36398D01*
X57180Y-36410D01*
X57084Y-36410D02*
X57072Y-36398D01*
X57049Y-36386D01*
X56989Y-36386D01*
X56965Y-36398D01*
X56953Y-36410D01*
X56942Y-36434D01*
X56942Y-36458D01*
X56953Y-36493D01*
X57096Y-36636D01*
X56942Y-36636D01*
X49164Y-25608D02*
X49176Y-25596D01*
X49188Y-25561D01*
X49188Y-25537D01*
X49176Y-25501D01*
X49152Y-25477D01*
X49129Y-25466D01*
X49081Y-25454D01*
X49045Y-25454D01*
X48998Y-25466D01*
X48974Y-25477D01*
X48950Y-25501D01*
X48938Y-25537D01*
X48938Y-25561D01*
X48950Y-25596D01*
X48962Y-25608D01*
X49188Y-25846D02*
X49188Y-25704D01*
X49188Y-25775D02*
X48938Y-25775D01*
X48974Y-25751D01*
X48998Y-25727D01*
X49010Y-25704D01*
X58951Y-27378D02*
X58832Y-27295D01*
X58951Y-27236D02*
X58701Y-27236D01*
X58701Y-27331D01*
X58713Y-27355D01*
X58725Y-27366D01*
X58749Y-27378D01*
X58785Y-27378D01*
X58808Y-27366D01*
X58820Y-27355D01*
X58832Y-27331D01*
X58832Y-27236D01*
X58951Y-27616D02*
X58951Y-27474D01*
X58951Y-27545D02*
X58701Y-27545D01*
X58737Y-27521D01*
X58761Y-27497D01*
X58773Y-27474D01*
X58725Y-27712D02*
X58713Y-27724D01*
X58701Y-27747D01*
X58701Y-27807D01*
X58713Y-27831D01*
X58725Y-27843D01*
X58749Y-27854D01*
X58773Y-27854D01*
X58808Y-27843D01*
X58951Y-27700D01*
X58951Y-27854D01*
X54243Y-27355D02*
X54124Y-27272D01*
X54243Y-27213D02*
X53993Y-27213D01*
X53993Y-27308D01*
X54005Y-27332D01*
X54017Y-27343D01*
X54041Y-27355D01*
X54077Y-27355D01*
X54100Y-27343D01*
X54112Y-27332D01*
X54124Y-27308D01*
X54124Y-27213D01*
X54243Y-27593D02*
X54243Y-27451D01*
X54243Y-27522D02*
X53993Y-27522D01*
X54029Y-27498D01*
X54053Y-27474D01*
X54065Y-27451D01*
X54243Y-27831D02*
X54243Y-27689D01*
X54243Y-27760D02*
X53993Y-27760D01*
X54029Y-27736D01*
X54053Y-27712D01*
X54065Y-27689D01*
X45929Y-31026D02*
X46012Y-30907D01*
X46071Y-31026D02*
X46071Y-30776D01*
X45976Y-30776D01*
X45952Y-30788D01*
X45941Y-30800D01*
X45929Y-30824D01*
X45929Y-30860D01*
X45941Y-30883D01*
X45952Y-30895D01*
X45976Y-30907D01*
X46071Y-30907D01*
X45691Y-31026D02*
X45833Y-31026D01*
X45762Y-31026D02*
X45762Y-30776D01*
X45786Y-30812D01*
X45810Y-30836D01*
X45833Y-30848D01*
X45536Y-30776D02*
X45512Y-30776D01*
X45488Y-30788D01*
X45476Y-30800D01*
X45464Y-30824D01*
X45453Y-30871D01*
X45453Y-30931D01*
X45464Y-30979D01*
X45476Y-31002D01*
X45488Y-31014D01*
X45512Y-31026D01*
X45536Y-31026D01*
X45560Y-31014D01*
X45572Y-31002D01*
X45583Y-30979D01*
X45595Y-30931D01*
X45595Y-30871D01*
X45583Y-30824D01*
X45572Y-30800D01*
X45560Y-30788D01*
X45536Y-30776D01*
X49550Y-39510D02*
X49633Y-39391D01*
X49692Y-39510D02*
X49692Y-39260D01*
X49597Y-39260D01*
X49573Y-39272D01*
X49562Y-39284D01*
X49550Y-39308D01*
X49550Y-39344D01*
X49562Y-39367D01*
X49573Y-39379D01*
X49597Y-39391D01*
X49692Y-39391D01*
X49407Y-39367D02*
X49431Y-39355D01*
X49442Y-39344D01*
X49454Y-39320D01*
X49454Y-39308D01*
X49442Y-39284D01*
X49431Y-39272D01*
X49407Y-39260D01*
X49359Y-39260D01*
X49335Y-39272D01*
X49323Y-39284D01*
X49312Y-39308D01*
X49312Y-39320D01*
X49323Y-39344D01*
X49335Y-39355D01*
X49359Y-39367D01*
X49407Y-39367D01*
X49431Y-39379D01*
X49442Y-39391D01*
X49454Y-39415D01*
X49454Y-39463D01*
X49442Y-39486D01*
X49431Y-39498D01*
X49407Y-39510D01*
X49359Y-39510D01*
X49335Y-39498D01*
X49323Y-39486D01*
X49312Y-39463D01*
X49312Y-39415D01*
X49323Y-39391D01*
X49335Y-39379D01*
X49359Y-39367D01*
X48227Y-39514D02*
X48310Y-39395D01*
X48369Y-39514D02*
X48369Y-39264D01*
X48274Y-39264D01*
X48250Y-39276D01*
X48239Y-39288D01*
X48227Y-39312D01*
X48227Y-39348D01*
X48239Y-39371D01*
X48250Y-39383D01*
X48274Y-39395D01*
X48369Y-39395D01*
X48143Y-39264D02*
X47977Y-39264D01*
X48084Y-39514D01*
X50743Y-38265D02*
X50624Y-38182D01*
X50743Y-38123D02*
X50493Y-38123D01*
X50493Y-38218D01*
X50505Y-38242D01*
X50517Y-38253D01*
X50541Y-38265D01*
X50577Y-38265D01*
X50600Y-38253D01*
X50612Y-38242D01*
X50624Y-38218D01*
X50624Y-38123D01*
X50493Y-38480D02*
X50493Y-38432D01*
X50505Y-38408D01*
X50517Y-38396D01*
X50553Y-38373D01*
X50600Y-38361D01*
X50696Y-38361D01*
X50719Y-38373D01*
X50731Y-38384D01*
X50743Y-38408D01*
X50743Y-38456D01*
X50731Y-38480D01*
X50719Y-38492D01*
X50696Y-38503D01*
X50636Y-38503D01*
X50612Y-38492D01*
X50600Y-38480D01*
X50588Y-38456D01*
X50588Y-38408D01*
X50600Y-38384D01*
X50612Y-38373D01*
X50636Y-38361D01*
X44727Y-26399D02*
X44608Y-26316D01*
X44727Y-26257D02*
X44477Y-26257D01*
X44477Y-26352D01*
X44489Y-26376D01*
X44501Y-26387D01*
X44525Y-26399D01*
X44561Y-26399D01*
X44584Y-26387D01*
X44596Y-26376D01*
X44608Y-26352D01*
X44608Y-26257D01*
X44477Y-26626D02*
X44477Y-26507D01*
X44596Y-26495D01*
X44584Y-26507D01*
X44572Y-26530D01*
X44572Y-26590D01*
X44584Y-26614D01*
X44596Y-26626D01*
X44620Y-26637D01*
X44680Y-26637D01*
X44703Y-26626D01*
X44715Y-26614D01*
X44727Y-26590D01*
X44727Y-26530D01*
X44715Y-26507D01*
X44703Y-26495D01*
X45614Y-28493D02*
X45495Y-28410D01*
X45614Y-28351D02*
X45364Y-28351D01*
X45364Y-28446D01*
X45376Y-28470D01*
X45388Y-28481D01*
X45412Y-28493D01*
X45448Y-28493D01*
X45471Y-28481D01*
X45483Y-28470D01*
X45495Y-28446D01*
X45495Y-28351D01*
X45448Y-28708D02*
X45614Y-28708D01*
X45352Y-28648D02*
X45531Y-28589D01*
X45531Y-28743D01*
X46660Y-25990D02*
X46743Y-25871D01*
X46802Y-25990D02*
X46802Y-25740D01*
X46707Y-25740D01*
X46683Y-25752D01*
X46672Y-25764D01*
X46660Y-25788D01*
X46660Y-25824D01*
X46672Y-25847D01*
X46683Y-25859D01*
X46707Y-25871D01*
X46802Y-25871D01*
X46576Y-25740D02*
X46422Y-25740D01*
X46505Y-25835D01*
X46469Y-25835D01*
X46445Y-25847D01*
X46433Y-25859D01*
X46422Y-25883D01*
X46422Y-25943D01*
X46433Y-25966D01*
X46445Y-25978D01*
X46469Y-25990D01*
X46541Y-25990D01*
X46564Y-25978D01*
X46576Y-25966D01*
X51554Y-25058D02*
X51637Y-24939D01*
X51696Y-25058D02*
X51696Y-24808D01*
X51601Y-24808D01*
X51577Y-24820D01*
X51566Y-24832D01*
X51554Y-24856D01*
X51554Y-24892D01*
X51566Y-24915D01*
X51577Y-24927D01*
X51601Y-24939D01*
X51696Y-24939D01*
X51458Y-24832D02*
X51446Y-24820D01*
X51423Y-24808D01*
X51363Y-24808D01*
X51339Y-24820D01*
X51327Y-24832D01*
X51316Y-24856D01*
X51316Y-24880D01*
X51327Y-24915D01*
X51470Y-25058D01*
X51316Y-25058D01*
X47896Y-30837D02*
X47979Y-30718D01*
X48038Y-30837D02*
X48038Y-30587D01*
X47943Y-30587D01*
X47919Y-30599D01*
X47908Y-30611D01*
X47896Y-30635D01*
X47896Y-30671D01*
X47908Y-30694D01*
X47919Y-30706D01*
X47943Y-30718D01*
X48038Y-30718D01*
X47658Y-30837D02*
X47800Y-30837D01*
X47729Y-30837D02*
X47729Y-30587D01*
X47753Y-30623D01*
X47777Y-30647D01*
X47800Y-30659D01*
X52393Y-30908D02*
X52405Y-30920D01*
X52440Y-30932D01*
X52464Y-30932D01*
X52500Y-30920D01*
X52524Y-30896D01*
X52535Y-30873D01*
X52547Y-30825D01*
X52547Y-30789D01*
X52535Y-30742D01*
X52524Y-30718D01*
X52500Y-30694D01*
X52464Y-30682D01*
X52440Y-30682D01*
X52405Y-30694D01*
X52393Y-30706D01*
X52155Y-30932D02*
X52297Y-30932D01*
X52226Y-30932D02*
X52226Y-30682D01*
X52250Y-30718D01*
X52274Y-30742D01*
X52297Y-30754D01*
X52059Y-30706D02*
X52047Y-30694D01*
X52024Y-30682D01*
X51964Y-30682D01*
X51940Y-30694D01*
X51928Y-30706D01*
X51917Y-30730D01*
X51917Y-30754D01*
X51928Y-30789D01*
X52071Y-30932D01*
X51917Y-30932D01*
G54D20*
X44326Y-32427D02*
X44335Y-32417D01*
X44345Y-32389D01*
X44345Y-32370D01*
X44335Y-32341D01*
X44316Y-32322D01*
X44297Y-32313D01*
X44259Y-32303D01*
X44231Y-32303D01*
X44193Y-32313D01*
X44174Y-32322D01*
X44154Y-32341D01*
X44145Y-32370D01*
X44145Y-32389D01*
X44154Y-32417D01*
X44164Y-32427D01*
X44345Y-32617D02*
X44345Y-32503D01*
X44345Y-32560D02*
X44145Y-32560D01*
X44174Y-32541D01*
X44193Y-32522D01*
X44202Y-32503D01*
X44145Y-32798D02*
X44145Y-32703D01*
X44240Y-32693D01*
X44231Y-32703D01*
X44221Y-32722D01*
X44221Y-32769D01*
X44231Y-32788D01*
X44240Y-32798D01*
X44259Y-32807D01*
X44307Y-32807D01*
X44326Y-32798D01*
X44335Y-32788D01*
X44345Y-32769D01*
X44345Y-32722D01*
X44335Y-32703D01*
X44326Y-32693D01*
G54D21*
X56488Y-36695D02*
X56500Y-36707D01*
X56535Y-36719D01*
X56559Y-36719D01*
X56595Y-36707D01*
X56619Y-36683D01*
X56630Y-36660D01*
X56642Y-36612D01*
X56642Y-36576D01*
X56630Y-36529D01*
X56619Y-36505D01*
X56595Y-36481D01*
X56559Y-36469D01*
X56535Y-36469D01*
X56500Y-36481D01*
X56488Y-36493D01*
X56250Y-36719D02*
X56392Y-36719D01*
X56321Y-36719D02*
X56321Y-36469D01*
X56345Y-36505D01*
X56369Y-36529D01*
X56392Y-36541D01*
X56012Y-36719D02*
X56154Y-36719D01*
X56083Y-36719D02*
X56083Y-36469D01*
X56107Y-36505D01*
X56131Y-36529D01*
X56154Y-36541D01*
X49225Y-32869D02*
X49475Y-33035D01*
X49225Y-33035D02*
X49475Y-32869D01*
X49475Y-33261D02*
X49475Y-33119D01*
X49475Y-33190D02*
X49225Y-33190D01*
X49261Y-33166D01*
X49285Y-33142D01*
X49297Y-33119D01*
X47715Y-34315D02*
X47596Y-34232D01*
X47715Y-34173D02*
X47465Y-34173D01*
X47465Y-34268D01*
X47477Y-34292D01*
X47489Y-34303D01*
X47513Y-34315D01*
X47549Y-34315D01*
X47572Y-34303D01*
X47584Y-34292D01*
X47596Y-34268D01*
X47596Y-34173D01*
X47715Y-34553D02*
X47715Y-34411D01*
X47715Y-34482D02*
X47465Y-34482D01*
X47501Y-34458D01*
X47525Y-34434D01*
X47537Y-34411D01*
X47465Y-34637D02*
X47465Y-34791D01*
X47560Y-34708D01*
X47560Y-34744D01*
X47572Y-34768D01*
X47584Y-34780D01*
X47608Y-34791D01*
X47668Y-34791D01*
X47691Y-34780D01*
X47703Y-34768D01*
X47715Y-34744D01*
X47715Y-34672D01*
X47703Y-34649D01*
X47691Y-34637D01*
X47703Y-35288D02*
X47584Y-35205D01*
X47703Y-35146D02*
X47453Y-35146D01*
X47453Y-35241D01*
X47465Y-35265D01*
X47477Y-35276D01*
X47501Y-35288D01*
X47537Y-35288D01*
X47560Y-35276D01*
X47572Y-35265D01*
X47584Y-35241D01*
X47584Y-35146D01*
X47703Y-35526D02*
X47703Y-35384D01*
X47703Y-35455D02*
X47453Y-35455D01*
X47489Y-35431D01*
X47513Y-35407D01*
X47525Y-35384D01*
X47537Y-35741D02*
X47703Y-35741D01*
X47441Y-35681D02*
X47620Y-35622D01*
X47620Y-35776D01*
X58277Y-35991D02*
X58396Y-35991D01*
X58396Y-35741D01*
X58064Y-35991D02*
X58206Y-35991D01*
X58135Y-35991D02*
X58135Y-35741D01*
X58159Y-35777D01*
X58183Y-35801D01*
X58206Y-35813D01*
X45795Y-38333D02*
X45878Y-38214D01*
X45937Y-38333D02*
X45937Y-38083D01*
X45842Y-38083D01*
X45818Y-38095D01*
X45807Y-38107D01*
X45795Y-38131D01*
X45795Y-38167D01*
X45807Y-38190D01*
X45818Y-38202D01*
X45842Y-38214D01*
X45937Y-38214D01*
X45557Y-38333D02*
X45699Y-38333D01*
X45628Y-38333D02*
X45628Y-38083D01*
X45652Y-38119D01*
X45676Y-38143D01*
X45699Y-38155D01*
X45342Y-38083D02*
X45390Y-38083D01*
X45414Y-38095D01*
X45426Y-38107D01*
X45449Y-38143D01*
X45461Y-38190D01*
X45461Y-38286D01*
X45449Y-38309D01*
X45438Y-38321D01*
X45414Y-38333D01*
X45366Y-38333D01*
X45342Y-38321D01*
X45330Y-38309D01*
X45319Y-38286D01*
X45319Y-38226D01*
X45330Y-38202D01*
X45342Y-38190D01*
X45366Y-38178D01*
X45414Y-38178D01*
X45438Y-38190D01*
X45449Y-38202D01*
X45461Y-38226D01*
X47719Y-36339D02*
X47600Y-36256D01*
X47719Y-36197D02*
X47469Y-36197D01*
X47469Y-36292D01*
X47481Y-36316D01*
X47493Y-36327D01*
X47517Y-36339D01*
X47553Y-36339D01*
X47576Y-36327D01*
X47588Y-36316D01*
X47600Y-36292D01*
X47600Y-36197D01*
X47719Y-36577D02*
X47719Y-36435D01*
X47719Y-36506D02*
X47469Y-36506D01*
X47505Y-36482D01*
X47529Y-36458D01*
X47541Y-36435D01*
X47469Y-36804D02*
X47469Y-36685D01*
X47588Y-36673D01*
X47576Y-36685D01*
X47564Y-36708D01*
X47564Y-36768D01*
X47576Y-36792D01*
X47588Y-36804D01*
X47612Y-36815D01*
X47672Y-36815D01*
X47695Y-36804D01*
X47707Y-36792D01*
X47719Y-36768D01*
X47719Y-36708D01*
X47707Y-36685D01*
X47695Y-36673D01*
X53679Y-35676D02*
X53644Y-35688D01*
X53584Y-35688D01*
X53560Y-35676D01*
X53548Y-35664D01*
X53537Y-35641D01*
X53537Y-35617D01*
X53548Y-35593D01*
X53560Y-35581D01*
X53584Y-35569D01*
X53632Y-35557D01*
X53656Y-35545D01*
X53667Y-35533D01*
X53679Y-35510D01*
X53679Y-35486D01*
X53667Y-35462D01*
X53656Y-35450D01*
X53632Y-35438D01*
X53572Y-35438D01*
X53537Y-35450D01*
X53453Y-35438D02*
X53394Y-35688D01*
X53346Y-35510D01*
X53299Y-35688D01*
X53239Y-35438D01*
X53024Y-35438D02*
X53143Y-35438D01*
X53155Y-35557D01*
X53143Y-35545D01*
X53120Y-35533D01*
X53060Y-35533D01*
X53036Y-35545D01*
X53024Y-35557D01*
X53013Y-35581D01*
X53013Y-35641D01*
X53024Y-35664D01*
X53036Y-35676D01*
X53060Y-35688D01*
X53120Y-35688D01*
X53143Y-35676D01*
X53155Y-35664D01*
X57336Y-30427D02*
X57301Y-30439D01*
X57241Y-30439D01*
X57217Y-30427D01*
X57205Y-30415D01*
X57194Y-30392D01*
X57194Y-30368D01*
X57205Y-30344D01*
X57217Y-30332D01*
X57241Y-30320D01*
X57289Y-30308D01*
X57313Y-30296D01*
X57324Y-30284D01*
X57336Y-30261D01*
X57336Y-30237D01*
X57324Y-30213D01*
X57313Y-30201D01*
X57289Y-30189D01*
X57229Y-30189D01*
X57194Y-30201D01*
X57110Y-30189D02*
X57051Y-30439D01*
X57003Y-30261D01*
X56956Y-30439D01*
X56896Y-30189D01*
X56693Y-30273D02*
X56693Y-30439D01*
X56753Y-30177D02*
X56812Y-30356D01*
X56658Y-30356D01*
X55526Y-30424D02*
X55491Y-30436D01*
X55431Y-30436D01*
X55407Y-30424D01*
X55395Y-30412D01*
X55384Y-30389D01*
X55384Y-30365D01*
X55395Y-30341D01*
X55407Y-30329D01*
X55431Y-30317D01*
X55479Y-30305D01*
X55503Y-30293D01*
X55514Y-30281D01*
X55526Y-30258D01*
X55526Y-30234D01*
X55514Y-30210D01*
X55503Y-30198D01*
X55479Y-30186D01*
X55419Y-30186D01*
X55384Y-30198D01*
X55300Y-30186D02*
X55241Y-30436D01*
X55193Y-30258D01*
X55146Y-30436D01*
X55086Y-30186D01*
X55014Y-30186D02*
X54860Y-30186D01*
X54943Y-30281D01*
X54907Y-30281D01*
X54883Y-30293D01*
X54871Y-30305D01*
X54860Y-30329D01*
X54860Y-30389D01*
X54871Y-30412D01*
X54883Y-30424D01*
X54907Y-30436D01*
X54979Y-30436D01*
X55002Y-30424D01*
X55014Y-30412D01*
M02*
