G04 (created by PCBNEW (22-Jun-2014 BZR 4027)-stable) date Sat 19 May 2018 03:07:35 PM EDT*
%MOIN*%
G04 Gerber Fmt 3.4, Leading zero omitted, Abs format*
%FSLAX34Y34*%
G01*
G70*
G90*
G04 APERTURE LIST*
%ADD10C,0.00590551*%
%ADD11C,0.005*%
%ADD12C,0.001*%
%ADD13C,0.007*%
%ADD14C,0.006*%
%ADD15C,0.009*%
%ADD16C,0.0095*%
%ADD17C,0.0165354*%
%ADD18C,0.01*%
%ADD19C,0.015*%
G04 APERTURE END LIST*
G54D10*
G54D11*
X57147Y-30138D02*
X57004Y-30138D01*
X57075Y-30388D02*
X57075Y-30138D01*
X56944Y-30138D02*
X56778Y-30388D01*
X56778Y-30138D02*
X56944Y-30388D01*
X57498Y-30538D02*
X57450Y-30538D01*
X57426Y-30550D01*
X57403Y-30574D01*
X57391Y-30621D01*
X57391Y-30705D01*
X57403Y-30752D01*
X57426Y-30776D01*
X57450Y-30788D01*
X57498Y-30788D01*
X57522Y-30776D01*
X57545Y-30752D01*
X57557Y-30705D01*
X57557Y-30621D01*
X57545Y-30574D01*
X57522Y-30550D01*
X57498Y-30538D01*
X57284Y-30621D02*
X57284Y-30788D01*
X57284Y-30645D02*
X57272Y-30633D01*
X57248Y-30621D01*
X57212Y-30621D01*
X57188Y-30633D01*
X57176Y-30657D01*
X57176Y-30788D01*
X56879Y-30526D02*
X57093Y-30848D01*
X56748Y-30538D02*
X56700Y-30538D01*
X56676Y-30550D01*
X56653Y-30574D01*
X56641Y-30621D01*
X56641Y-30705D01*
X56653Y-30752D01*
X56676Y-30776D01*
X56700Y-30788D01*
X56748Y-30788D01*
X56772Y-30776D01*
X56795Y-30752D01*
X56807Y-30705D01*
X56807Y-30621D01*
X56795Y-30574D01*
X56772Y-30550D01*
X56748Y-30538D01*
X56569Y-30621D02*
X56474Y-30621D01*
X56534Y-30788D02*
X56534Y-30574D01*
X56522Y-30550D01*
X56498Y-30538D01*
X56474Y-30538D01*
X56426Y-30621D02*
X56331Y-30621D01*
X56391Y-30788D02*
X56391Y-30574D01*
X56379Y-30550D01*
X56355Y-30538D01*
X56331Y-30538D01*
X55203Y-30388D02*
X55286Y-30269D01*
X55345Y-30388D02*
X55345Y-30138D01*
X55250Y-30138D01*
X55226Y-30150D01*
X55214Y-30162D01*
X55203Y-30186D01*
X55203Y-30221D01*
X55214Y-30245D01*
X55226Y-30257D01*
X55250Y-30269D01*
X55345Y-30269D01*
X55119Y-30138D02*
X54953Y-30388D01*
X54953Y-30138D02*
X55119Y-30388D01*
X55703Y-30538D02*
X55655Y-30538D01*
X55631Y-30550D01*
X55607Y-30574D01*
X55595Y-30621D01*
X55595Y-30705D01*
X55607Y-30752D01*
X55631Y-30776D01*
X55655Y-30788D01*
X55703Y-30788D01*
X55726Y-30776D01*
X55750Y-30752D01*
X55762Y-30705D01*
X55762Y-30621D01*
X55750Y-30574D01*
X55726Y-30550D01*
X55703Y-30538D01*
X55488Y-30621D02*
X55488Y-30788D01*
X55488Y-30645D02*
X55476Y-30633D01*
X55453Y-30621D01*
X55417Y-30621D01*
X55393Y-30633D01*
X55381Y-30657D01*
X55381Y-30788D01*
X55084Y-30526D02*
X55298Y-30848D01*
X54953Y-30538D02*
X54905Y-30538D01*
X54881Y-30550D01*
X54857Y-30574D01*
X54845Y-30621D01*
X54845Y-30705D01*
X54857Y-30752D01*
X54881Y-30776D01*
X54905Y-30788D01*
X54953Y-30788D01*
X54976Y-30776D01*
X55000Y-30752D01*
X55012Y-30705D01*
X55012Y-30621D01*
X55000Y-30574D01*
X54976Y-30550D01*
X54953Y-30538D01*
X54774Y-30621D02*
X54679Y-30621D01*
X54738Y-30788D02*
X54738Y-30574D01*
X54726Y-30550D01*
X54703Y-30538D01*
X54679Y-30538D01*
X54631Y-30621D02*
X54536Y-30621D01*
X54595Y-30788D02*
X54595Y-30574D01*
X54584Y-30550D01*
X54560Y-30538D01*
X54536Y-30538D01*
G54D12*
X43318Y-22224D02*
X43511Y-22224D01*
X41893Y-23649D02*
X43318Y-22224D01*
X41893Y-23842D02*
X41893Y-23649D01*
X61578Y-36374D02*
X61578Y-35023D01*
X59035Y-38917D02*
X61578Y-36374D01*
X56043Y-41909D02*
X59035Y-38917D01*
X43511Y-41909D02*
X56043Y-41909D01*
X41893Y-40291D02*
X43511Y-41909D01*
X41893Y-38625D02*
X41893Y-40291D01*
X41893Y-23842D02*
X41893Y-25547D01*
X61578Y-27755D02*
X61578Y-29122D01*
X56047Y-22224D02*
X61578Y-27755D01*
X43511Y-22224D02*
X56047Y-22224D01*
G54D11*
X56248Y-37569D02*
X56260Y-37557D01*
X56272Y-37522D01*
X56272Y-37498D01*
X56260Y-37462D01*
X56236Y-37438D01*
X56212Y-37426D01*
X56165Y-37415D01*
X56129Y-37415D01*
X56081Y-37426D01*
X56058Y-37438D01*
X56034Y-37462D01*
X56022Y-37498D01*
X56022Y-37522D01*
X56034Y-37557D01*
X56046Y-37569D01*
X56141Y-37676D02*
X56141Y-37760D01*
X56272Y-37795D02*
X56272Y-37676D01*
X56022Y-37676D01*
X56022Y-37795D01*
X56272Y-38022D02*
X56272Y-37903D01*
X56022Y-37903D01*
X56422Y-37165D02*
X56422Y-37212D01*
X56434Y-37236D01*
X56458Y-37260D01*
X56505Y-37272D01*
X56589Y-37272D01*
X56636Y-37260D01*
X56660Y-37236D01*
X56672Y-37212D01*
X56672Y-37165D01*
X56660Y-37141D01*
X56636Y-37117D01*
X56589Y-37105D01*
X56505Y-37105D01*
X56458Y-37117D01*
X56434Y-37141D01*
X56422Y-37165D01*
X56505Y-37379D02*
X56672Y-37379D01*
X56529Y-37379D02*
X56517Y-37391D01*
X56505Y-37415D01*
X56505Y-37450D01*
X56517Y-37474D01*
X56541Y-37486D01*
X56672Y-37486D01*
X56410Y-37784D02*
X56731Y-37569D01*
X56422Y-37915D02*
X56422Y-37962D01*
X56434Y-37986D01*
X56458Y-38010D01*
X56505Y-38022D01*
X56589Y-38022D01*
X56636Y-38010D01*
X56660Y-37986D01*
X56672Y-37962D01*
X56672Y-37915D01*
X56660Y-37891D01*
X56636Y-37867D01*
X56589Y-37855D01*
X56505Y-37855D01*
X56458Y-37867D01*
X56434Y-37891D01*
X56422Y-37915D01*
X56505Y-38093D02*
X56505Y-38188D01*
X56672Y-38129D02*
X56458Y-38129D01*
X56434Y-38141D01*
X56422Y-38165D01*
X56422Y-38188D01*
X56505Y-38236D02*
X56505Y-38331D01*
X56672Y-38272D02*
X56458Y-38272D01*
X56434Y-38284D01*
X56422Y-38307D01*
X56422Y-38331D01*
X55864Y-34780D02*
X55721Y-34780D01*
X55793Y-35030D02*
X55793Y-34780D01*
X55638Y-35030D02*
X55638Y-34863D01*
X55638Y-34780D02*
X55650Y-34792D01*
X55638Y-34804D01*
X55626Y-34792D01*
X55638Y-34780D01*
X55638Y-34804D01*
X55424Y-35018D02*
X55448Y-35030D01*
X55495Y-35030D01*
X55519Y-35018D01*
X55531Y-34994D01*
X55531Y-34899D01*
X55519Y-34875D01*
X55495Y-34863D01*
X55448Y-34863D01*
X55424Y-34875D01*
X55412Y-34899D01*
X55412Y-34923D01*
X55531Y-34946D01*
X55114Y-34780D02*
X55114Y-34982D01*
X55102Y-35006D01*
X55090Y-35018D01*
X55067Y-35030D01*
X55019Y-35030D01*
X54995Y-35018D01*
X54983Y-35006D01*
X54971Y-34982D01*
X54971Y-34780D01*
X54864Y-35018D02*
X54829Y-35030D01*
X54769Y-35030D01*
X54745Y-35018D01*
X54733Y-35006D01*
X54721Y-34982D01*
X54721Y-34958D01*
X54733Y-34935D01*
X54745Y-34923D01*
X54769Y-34911D01*
X54817Y-34899D01*
X54840Y-34887D01*
X54852Y-34875D01*
X54864Y-34851D01*
X54864Y-34827D01*
X54852Y-34804D01*
X54840Y-34792D01*
X54817Y-34780D01*
X54757Y-34780D01*
X54721Y-34792D01*
X54531Y-34899D02*
X54495Y-34911D01*
X54483Y-34923D01*
X54471Y-34946D01*
X54471Y-34982D01*
X54483Y-35006D01*
X54495Y-35018D01*
X54519Y-35030D01*
X54614Y-35030D01*
X54614Y-34780D01*
X54531Y-34780D01*
X54507Y-34792D01*
X54495Y-34804D01*
X54483Y-34827D01*
X54483Y-34851D01*
X54495Y-34875D01*
X54507Y-34887D01*
X54531Y-34899D01*
X54614Y-34899D01*
X54364Y-34935D02*
X54174Y-34935D01*
X53936Y-34780D02*
X54055Y-34780D01*
X54067Y-34899D01*
X54055Y-34887D01*
X54031Y-34875D01*
X53971Y-34875D01*
X53948Y-34887D01*
X53936Y-34899D01*
X53924Y-34923D01*
X53924Y-34982D01*
X53936Y-35006D01*
X53948Y-35018D01*
X53971Y-35030D01*
X54031Y-35030D01*
X54055Y-35018D01*
X54067Y-35006D01*
X53840Y-34863D02*
X53781Y-35030D01*
X53721Y-34863D01*
X55793Y-35263D02*
X55698Y-35263D01*
X55757Y-35180D02*
X55757Y-35394D01*
X55745Y-35418D01*
X55721Y-35430D01*
X55698Y-35430D01*
X55579Y-35430D02*
X55602Y-35418D01*
X55614Y-35406D01*
X55626Y-35382D01*
X55626Y-35311D01*
X55614Y-35287D01*
X55602Y-35275D01*
X55579Y-35263D01*
X55543Y-35263D01*
X55519Y-35275D01*
X55507Y-35287D01*
X55495Y-35311D01*
X55495Y-35382D01*
X55507Y-35406D01*
X55519Y-35418D01*
X55543Y-35430D01*
X55579Y-35430D01*
X55055Y-35406D02*
X55067Y-35418D01*
X55102Y-35430D01*
X55126Y-35430D01*
X55162Y-35418D01*
X55186Y-35394D01*
X55198Y-35370D01*
X55210Y-35323D01*
X55210Y-35287D01*
X55198Y-35239D01*
X55186Y-35216D01*
X55162Y-35192D01*
X55126Y-35180D01*
X55102Y-35180D01*
X55067Y-35192D01*
X55055Y-35204D01*
X54948Y-35430D02*
X54948Y-35180D01*
X54852Y-35180D01*
X54829Y-35192D01*
X54817Y-35204D01*
X54805Y-35227D01*
X54805Y-35263D01*
X54817Y-35287D01*
X54829Y-35299D01*
X54852Y-35311D01*
X54948Y-35311D01*
X54698Y-35180D02*
X54698Y-35382D01*
X54686Y-35406D01*
X54674Y-35418D01*
X54650Y-35430D01*
X54602Y-35430D01*
X54579Y-35418D01*
X54567Y-35406D01*
X54555Y-35382D01*
X54555Y-35180D01*
X54436Y-35335D02*
X54245Y-35335D01*
X54007Y-35180D02*
X54126Y-35180D01*
X54138Y-35299D01*
X54126Y-35287D01*
X54102Y-35275D01*
X54043Y-35275D01*
X54019Y-35287D01*
X54007Y-35299D01*
X53995Y-35323D01*
X53995Y-35382D01*
X54007Y-35406D01*
X54019Y-35418D01*
X54043Y-35430D01*
X54102Y-35430D01*
X54126Y-35418D01*
X54138Y-35406D01*
X53912Y-35263D02*
X53852Y-35430D01*
X53793Y-35263D01*
G54D12*
X41893Y-38625D02*
X41893Y-25547D01*
G54D13*
X50997Y-29094D02*
X50997Y-28694D01*
X50997Y-28847D02*
X50959Y-28828D01*
X50883Y-28828D01*
X50845Y-28847D01*
X50826Y-28866D01*
X50807Y-28904D01*
X50807Y-29018D01*
X50826Y-29056D01*
X50845Y-29075D01*
X50883Y-29094D01*
X50959Y-29094D01*
X50997Y-29075D01*
X50674Y-28828D02*
X50578Y-29094D01*
X50483Y-28828D02*
X50578Y-29094D01*
X50616Y-29190D01*
X50636Y-29209D01*
X50674Y-29228D01*
G54D12*
X61579Y-29709D02*
X61579Y-29122D01*
X61579Y-35024D02*
X61579Y-29709D01*
G54D14*
X52018Y-27931D02*
X52018Y-27556D01*
X51868Y-27931D02*
X51868Y-27734D01*
X51884Y-27699D01*
X51918Y-27681D01*
X51968Y-27681D01*
X52001Y-27699D01*
X52018Y-27717D01*
X51751Y-27681D02*
X51618Y-27681D01*
X51701Y-27556D02*
X51701Y-27877D01*
X51684Y-27913D01*
X51651Y-27931D01*
X51618Y-27931D01*
X51551Y-27681D02*
X51418Y-27681D01*
X51501Y-27556D02*
X51501Y-27877D01*
X51484Y-27913D01*
X51451Y-27931D01*
X51418Y-27931D01*
X51301Y-27681D02*
X51301Y-28056D01*
X51301Y-27699D02*
X51268Y-27681D01*
X51201Y-27681D01*
X51168Y-27699D01*
X51151Y-27717D01*
X51134Y-27752D01*
X51134Y-27859D01*
X51151Y-27895D01*
X51168Y-27913D01*
X51201Y-27931D01*
X51268Y-27931D01*
X51301Y-27913D01*
X50984Y-27895D02*
X50968Y-27913D01*
X50984Y-27931D01*
X51001Y-27913D01*
X50984Y-27895D01*
X50984Y-27931D01*
X50984Y-27699D02*
X50968Y-27717D01*
X50984Y-27734D01*
X51001Y-27717D01*
X50984Y-27699D01*
X50984Y-27734D01*
X50568Y-27538D02*
X50868Y-28020D01*
X50201Y-27538D02*
X50501Y-28020D01*
X50118Y-27681D02*
X50051Y-27931D01*
X49984Y-27752D01*
X49918Y-27931D01*
X49851Y-27681D01*
X49751Y-27681D02*
X49684Y-27931D01*
X49618Y-27752D01*
X49551Y-27931D01*
X49484Y-27681D01*
X49384Y-27681D02*
X49318Y-27931D01*
X49251Y-27752D01*
X49184Y-27931D01*
X49118Y-27681D01*
X48984Y-27895D02*
X48968Y-27913D01*
X48984Y-27931D01*
X49001Y-27913D01*
X48984Y-27895D01*
X48984Y-27931D01*
X48618Y-27895D02*
X48634Y-27913D01*
X48684Y-27931D01*
X48718Y-27931D01*
X48768Y-27913D01*
X48801Y-27877D01*
X48818Y-27842D01*
X48834Y-27770D01*
X48834Y-27717D01*
X48818Y-27645D01*
X48801Y-27609D01*
X48768Y-27574D01*
X48718Y-27556D01*
X48684Y-27556D01*
X48634Y-27574D01*
X48618Y-27592D01*
X48418Y-27931D02*
X48451Y-27913D01*
X48468Y-27895D01*
X48484Y-27859D01*
X48484Y-27752D01*
X48468Y-27717D01*
X48451Y-27699D01*
X48418Y-27681D01*
X48368Y-27681D01*
X48334Y-27699D01*
X48318Y-27717D01*
X48301Y-27752D01*
X48301Y-27859D01*
X48318Y-27895D01*
X48334Y-27913D01*
X48368Y-27931D01*
X48418Y-27931D01*
X48101Y-27931D02*
X48134Y-27913D01*
X48151Y-27895D01*
X48168Y-27859D01*
X48168Y-27752D01*
X48151Y-27717D01*
X48134Y-27699D01*
X48101Y-27681D01*
X48051Y-27681D01*
X48018Y-27699D01*
X48001Y-27717D01*
X47984Y-27752D01*
X47984Y-27859D01*
X48001Y-27895D01*
X48018Y-27913D01*
X48051Y-27931D01*
X48101Y-27931D01*
X47784Y-27931D02*
X47818Y-27913D01*
X47834Y-27877D01*
X47834Y-27556D01*
X47651Y-27734D02*
X47534Y-27734D01*
X47484Y-27931D02*
X47651Y-27931D01*
X47651Y-27556D01*
X47484Y-27556D01*
X47218Y-27734D02*
X47334Y-27734D01*
X47334Y-27931D02*
X47334Y-27556D01*
X47168Y-27556D01*
X47034Y-27931D02*
X47034Y-27556D01*
X46868Y-27895D02*
X46851Y-27913D01*
X46868Y-27931D01*
X46884Y-27913D01*
X46868Y-27895D01*
X46868Y-27931D01*
X46551Y-27913D02*
X46584Y-27931D01*
X46651Y-27931D01*
X46684Y-27913D01*
X46701Y-27895D01*
X46718Y-27859D01*
X46718Y-27752D01*
X46701Y-27717D01*
X46684Y-27699D01*
X46651Y-27681D01*
X46584Y-27681D01*
X46551Y-27699D01*
X46351Y-27931D02*
X46384Y-27913D01*
X46401Y-27895D01*
X46418Y-27859D01*
X46418Y-27752D01*
X46401Y-27717D01*
X46384Y-27699D01*
X46351Y-27681D01*
X46301Y-27681D01*
X46268Y-27699D01*
X46251Y-27717D01*
X46234Y-27752D01*
X46234Y-27859D01*
X46251Y-27895D01*
X46268Y-27913D01*
X46301Y-27931D01*
X46351Y-27931D01*
X46084Y-27931D02*
X46084Y-27681D01*
X46084Y-27717D02*
X46068Y-27699D01*
X46034Y-27681D01*
X45984Y-27681D01*
X45951Y-27699D01*
X45934Y-27734D01*
X45934Y-27931D01*
X45934Y-27734D02*
X45918Y-27699D01*
X45884Y-27681D01*
X45834Y-27681D01*
X45801Y-27699D01*
X45784Y-27734D01*
X45784Y-27931D01*
G54D12*
X59035Y-30016D02*
X59035Y-30020D01*
G54D13*
X58589Y-32858D02*
X58472Y-33208D01*
X58355Y-32858D01*
X58105Y-33192D02*
X58139Y-33208D01*
X58205Y-33208D01*
X58239Y-33192D01*
X58255Y-33158D01*
X58255Y-33025D01*
X58239Y-32992D01*
X58205Y-32975D01*
X58139Y-32975D01*
X58105Y-32992D01*
X58089Y-33025D01*
X58089Y-33058D01*
X58255Y-33092D01*
X57939Y-33208D02*
X57939Y-32975D01*
X57939Y-33042D02*
X57922Y-33008D01*
X57905Y-32992D01*
X57872Y-32975D01*
X57839Y-32975D01*
X57739Y-33192D02*
X57705Y-33208D01*
X57639Y-33208D01*
X57605Y-33192D01*
X57589Y-33158D01*
X57589Y-33142D01*
X57605Y-33108D01*
X57639Y-33092D01*
X57689Y-33092D01*
X57722Y-33075D01*
X57739Y-33042D01*
X57739Y-33025D01*
X57722Y-32992D01*
X57689Y-32975D01*
X57639Y-32975D01*
X57605Y-32992D01*
X57439Y-33208D02*
X57439Y-32975D01*
X57439Y-32858D02*
X57455Y-32875D01*
X57439Y-32892D01*
X57422Y-32875D01*
X57439Y-32858D01*
X57439Y-32892D01*
X57222Y-33208D02*
X57255Y-33192D01*
X57272Y-33175D01*
X57289Y-33142D01*
X57289Y-33042D01*
X57272Y-33008D01*
X57255Y-32992D01*
X57222Y-32975D01*
X57172Y-32975D01*
X57139Y-32992D01*
X57122Y-33008D01*
X57105Y-33042D01*
X57105Y-33142D01*
X57122Y-33175D01*
X57139Y-33192D01*
X57172Y-33208D01*
X57222Y-33208D01*
X56955Y-32975D02*
X56955Y-33208D01*
X56955Y-33008D02*
X56939Y-32992D01*
X56905Y-32975D01*
X56855Y-32975D01*
X56822Y-32992D01*
X56805Y-33025D01*
X56805Y-33208D01*
X56306Y-32858D02*
X56272Y-32858D01*
X56239Y-32875D01*
X56222Y-32892D01*
X56206Y-32925D01*
X56189Y-32992D01*
X56189Y-33075D01*
X56206Y-33142D01*
X56222Y-33175D01*
X56239Y-33192D01*
X56272Y-33208D01*
X56306Y-33208D01*
X56339Y-33192D01*
X56356Y-33175D01*
X56372Y-33142D01*
X56389Y-33075D01*
X56389Y-32992D01*
X56372Y-32925D01*
X56356Y-32892D01*
X56339Y-32875D01*
X56306Y-32858D01*
X56039Y-33175D02*
X56022Y-33192D01*
X56039Y-33208D01*
X56056Y-33192D01*
X56039Y-33175D01*
X56039Y-33208D01*
X55722Y-32975D02*
X55722Y-33208D01*
X55806Y-32842D02*
X55889Y-33092D01*
X55672Y-33092D01*
X55539Y-33075D02*
X55272Y-33075D01*
X54955Y-33208D02*
X54955Y-33025D01*
X54972Y-32992D01*
X55005Y-32975D01*
X55072Y-32975D01*
X55105Y-32992D01*
X54955Y-33192D02*
X54989Y-33208D01*
X55072Y-33208D01*
X55105Y-33192D01*
X55122Y-33158D01*
X55122Y-33125D01*
X55105Y-33092D01*
X55072Y-33075D01*
X54989Y-33075D01*
X54955Y-33058D01*
X54739Y-33208D02*
X54772Y-33192D01*
X54789Y-33158D01*
X54789Y-32858D01*
X54605Y-32975D02*
X54605Y-33325D01*
X54605Y-32992D02*
X54572Y-32975D01*
X54505Y-32975D01*
X54472Y-32992D01*
X54455Y-33008D01*
X54439Y-33042D01*
X54439Y-33142D01*
X54455Y-33175D01*
X54472Y-33192D01*
X54505Y-33208D01*
X54572Y-33208D01*
X54605Y-33192D01*
X54289Y-33208D02*
X54289Y-32858D01*
X54139Y-33208D02*
X54139Y-33025D01*
X54156Y-32992D01*
X54189Y-32975D01*
X54239Y-32975D01*
X54272Y-32992D01*
X54289Y-33008D01*
X53822Y-33208D02*
X53822Y-33025D01*
X53839Y-32992D01*
X53872Y-32975D01*
X53939Y-32975D01*
X53972Y-32992D01*
X53822Y-33192D02*
X53856Y-33208D01*
X53939Y-33208D01*
X53972Y-33192D01*
X53989Y-33158D01*
X53989Y-33125D01*
X53972Y-33092D01*
X53939Y-33075D01*
X53856Y-33075D01*
X53822Y-33058D01*
G54D11*
X49823Y-36634D02*
X49852Y-36620D01*
X49894Y-36620D01*
X49937Y-36634D01*
X49966Y-36663D01*
X49980Y-36692D01*
X49994Y-36749D01*
X49994Y-36792D01*
X49980Y-36849D01*
X49966Y-36877D01*
X49937Y-36906D01*
X49894Y-36920D01*
X49866Y-36920D01*
X49823Y-36906D01*
X49809Y-36892D01*
X49809Y-36792D01*
X49866Y-36792D01*
X49680Y-36920D02*
X49680Y-36720D01*
X49680Y-36620D02*
X49694Y-36634D01*
X49680Y-36649D01*
X49666Y-36634D01*
X49680Y-36620D01*
X49680Y-36649D01*
X49580Y-36720D02*
X49466Y-36720D01*
X49537Y-36620D02*
X49537Y-36877D01*
X49523Y-36906D01*
X49494Y-36920D01*
X49466Y-36920D01*
X49366Y-36892D02*
X49352Y-36906D01*
X49366Y-36920D01*
X49380Y-36906D01*
X49366Y-36892D01*
X49366Y-36920D01*
X49366Y-36734D02*
X49352Y-36749D01*
X49366Y-36763D01*
X49380Y-36749D01*
X49366Y-36734D01*
X49366Y-36763D01*
X49023Y-36620D02*
X48837Y-36620D01*
X48937Y-36734D01*
X48894Y-36734D01*
X48866Y-36749D01*
X48852Y-36763D01*
X48837Y-36792D01*
X48837Y-36863D01*
X48852Y-36892D01*
X48866Y-36906D01*
X48894Y-36920D01*
X48980Y-36920D01*
X49009Y-36906D01*
X49023Y-36892D01*
X48737Y-36620D02*
X48537Y-36620D01*
X48666Y-36920D01*
X48452Y-36620D02*
X48252Y-36620D01*
X48380Y-36920D01*
X48023Y-36906D02*
X48052Y-36920D01*
X48109Y-36920D01*
X48137Y-36906D01*
X48152Y-36877D01*
X48152Y-36763D01*
X48137Y-36734D01*
X48109Y-36720D01*
X48052Y-36720D01*
X48023Y-36734D01*
X48009Y-36763D01*
X48009Y-36792D01*
X48152Y-36820D01*
X47894Y-36649D02*
X47880Y-36634D01*
X47852Y-36620D01*
X47780Y-36620D01*
X47752Y-36634D01*
X47737Y-36649D01*
X47723Y-36677D01*
X47723Y-36706D01*
X47737Y-36749D01*
X47909Y-36920D01*
X47723Y-36920D01*
X47637Y-36720D02*
X47523Y-36720D01*
X47594Y-36920D02*
X47594Y-36663D01*
X47580Y-36634D01*
X47552Y-36620D01*
X47523Y-36620D01*
X47309Y-36906D02*
X47337Y-36920D01*
X47394Y-36920D01*
X47423Y-36906D01*
X47437Y-36877D01*
X47437Y-36763D01*
X47423Y-36734D01*
X47394Y-36720D01*
X47337Y-36720D01*
X47309Y-36734D01*
X47294Y-36763D01*
X47294Y-36792D01*
X47437Y-36820D01*
X47180Y-36649D02*
X47166Y-36634D01*
X47137Y-36620D01*
X47066Y-36620D01*
X47037Y-36634D01*
X47023Y-36649D01*
X47009Y-36677D01*
X47009Y-36706D01*
X47023Y-36749D01*
X47194Y-36920D01*
X47009Y-36920D01*
X46923Y-36720D02*
X46809Y-36720D01*
X46880Y-36920D02*
X46880Y-36663D01*
X46866Y-36634D01*
X46837Y-36620D01*
X46809Y-36620D01*
X46752Y-36720D02*
X46637Y-36720D01*
X46709Y-36920D02*
X46709Y-36663D01*
X46694Y-36634D01*
X46666Y-36620D01*
X46637Y-36620D01*
G54D13*
X58595Y-33714D02*
X58610Y-33729D01*
X58652Y-33743D01*
X58681Y-33743D01*
X58724Y-33729D01*
X58752Y-33700D01*
X58767Y-33672D01*
X58781Y-33614D01*
X58781Y-33572D01*
X58767Y-33514D01*
X58752Y-33486D01*
X58724Y-33457D01*
X58681Y-33443D01*
X58652Y-33443D01*
X58610Y-33457D01*
X58595Y-33472D01*
X58424Y-33743D02*
X58452Y-33729D01*
X58467Y-33714D01*
X58481Y-33686D01*
X58481Y-33600D01*
X58467Y-33572D01*
X58452Y-33557D01*
X58424Y-33543D01*
X58381Y-33543D01*
X58352Y-33557D01*
X58338Y-33572D01*
X58324Y-33600D01*
X58324Y-33686D01*
X58338Y-33714D01*
X58352Y-33729D01*
X58381Y-33743D01*
X58424Y-33743D01*
X58195Y-33543D02*
X58195Y-33843D01*
X58195Y-33557D02*
X58167Y-33543D01*
X58110Y-33543D01*
X58081Y-33557D01*
X58067Y-33572D01*
X58052Y-33600D01*
X58052Y-33686D01*
X58067Y-33714D01*
X58081Y-33729D01*
X58110Y-33743D01*
X58167Y-33743D01*
X58195Y-33729D01*
X57952Y-33543D02*
X57881Y-33743D01*
X57810Y-33543D02*
X57881Y-33743D01*
X57910Y-33814D01*
X57924Y-33829D01*
X57952Y-33843D01*
X57695Y-33743D02*
X57695Y-33543D01*
X57695Y-33600D02*
X57681Y-33572D01*
X57667Y-33557D01*
X57638Y-33543D01*
X57610Y-33543D01*
X57510Y-33743D02*
X57510Y-33543D01*
X57510Y-33443D02*
X57524Y-33457D01*
X57510Y-33472D01*
X57495Y-33457D01*
X57510Y-33443D01*
X57510Y-33472D01*
X57238Y-33543D02*
X57238Y-33786D01*
X57252Y-33814D01*
X57267Y-33829D01*
X57295Y-33843D01*
X57338Y-33843D01*
X57367Y-33829D01*
X57238Y-33729D02*
X57267Y-33743D01*
X57324Y-33743D01*
X57352Y-33729D01*
X57367Y-33714D01*
X57381Y-33686D01*
X57381Y-33600D01*
X57367Y-33572D01*
X57352Y-33557D01*
X57324Y-33543D01*
X57267Y-33543D01*
X57238Y-33557D01*
X57095Y-33743D02*
X57095Y-33443D01*
X56967Y-33743D02*
X56967Y-33586D01*
X56981Y-33557D01*
X57010Y-33543D01*
X57052Y-33543D01*
X57081Y-33557D01*
X57095Y-33572D01*
X56867Y-33543D02*
X56752Y-33543D01*
X56824Y-33443D02*
X56824Y-33700D01*
X56810Y-33729D01*
X56781Y-33743D01*
X56752Y-33743D01*
X56438Y-33472D02*
X56424Y-33457D01*
X56395Y-33443D01*
X56324Y-33443D01*
X56295Y-33457D01*
X56281Y-33472D01*
X56267Y-33500D01*
X56267Y-33529D01*
X56281Y-33572D01*
X56452Y-33743D01*
X56267Y-33743D01*
X56081Y-33443D02*
X56052Y-33443D01*
X56024Y-33457D01*
X56010Y-33472D01*
X55995Y-33500D01*
X55981Y-33557D01*
X55981Y-33629D01*
X55995Y-33686D01*
X56010Y-33714D01*
X56024Y-33729D01*
X56052Y-33743D01*
X56081Y-33743D01*
X56110Y-33729D01*
X56124Y-33714D01*
X56138Y-33686D01*
X56152Y-33629D01*
X56152Y-33557D01*
X56138Y-33500D01*
X56124Y-33472D01*
X56110Y-33457D01*
X56081Y-33443D01*
X55695Y-33743D02*
X55867Y-33743D01*
X55781Y-33743D02*
X55781Y-33443D01*
X55810Y-33486D01*
X55838Y-33514D01*
X55867Y-33529D01*
X55581Y-33472D02*
X55567Y-33457D01*
X55538Y-33443D01*
X55467Y-33443D01*
X55438Y-33457D01*
X55424Y-33472D01*
X55410Y-33500D01*
X55410Y-33529D01*
X55424Y-33572D01*
X55595Y-33743D01*
X55410Y-33743D01*
X55281Y-33629D02*
X55052Y-33629D01*
X54924Y-33472D02*
X54910Y-33457D01*
X54881Y-33443D01*
X54810Y-33443D01*
X54781Y-33457D01*
X54767Y-33472D01*
X54752Y-33500D01*
X54752Y-33529D01*
X54767Y-33572D01*
X54938Y-33743D01*
X54752Y-33743D01*
X54567Y-33443D02*
X54538Y-33443D01*
X54510Y-33457D01*
X54495Y-33472D01*
X54481Y-33500D01*
X54467Y-33557D01*
X54467Y-33629D01*
X54481Y-33686D01*
X54495Y-33714D01*
X54510Y-33729D01*
X54538Y-33743D01*
X54567Y-33743D01*
X54595Y-33729D01*
X54610Y-33714D01*
X54624Y-33686D01*
X54638Y-33629D01*
X54638Y-33557D01*
X54624Y-33500D01*
X54610Y-33472D01*
X54595Y-33457D01*
X54567Y-33443D01*
X54181Y-33743D02*
X54352Y-33743D01*
X54267Y-33743D02*
X54267Y-33443D01*
X54295Y-33486D01*
X54324Y-33514D01*
X54352Y-33529D01*
X54010Y-33572D02*
X54038Y-33557D01*
X54052Y-33543D01*
X54067Y-33514D01*
X54067Y-33500D01*
X54052Y-33472D01*
X54038Y-33457D01*
X54010Y-33443D01*
X53952Y-33443D01*
X53924Y-33457D01*
X53910Y-33472D01*
X53895Y-33500D01*
X53895Y-33514D01*
X53910Y-33543D01*
X53924Y-33557D01*
X53952Y-33572D01*
X54010Y-33572D01*
X54038Y-33586D01*
X54052Y-33600D01*
X54067Y-33629D01*
X54067Y-33686D01*
X54052Y-33714D01*
X54038Y-33729D01*
X54010Y-33743D01*
X53952Y-33743D01*
X53924Y-33729D01*
X53910Y-33714D01*
X53895Y-33686D01*
X53895Y-33629D01*
X53910Y-33600D01*
X53924Y-33586D01*
X53952Y-33572D01*
G54D15*
X51060Y-29800D02*
X50834Y-29800D01*
X51105Y-29936D02*
X50947Y-29461D01*
X50789Y-29936D01*
X50630Y-29619D02*
X50630Y-29936D01*
X50630Y-29664D02*
X50608Y-29642D01*
X50562Y-29619D01*
X50495Y-29619D01*
X50449Y-29642D01*
X50427Y-29687D01*
X50427Y-29936D01*
X49997Y-29936D02*
X49997Y-29461D01*
X49997Y-29913D02*
X50042Y-29936D01*
X50133Y-29936D01*
X50178Y-29913D01*
X50201Y-29891D01*
X50223Y-29845D01*
X50223Y-29710D01*
X50201Y-29664D01*
X50178Y-29642D01*
X50133Y-29619D01*
X50042Y-29619D01*
X49997Y-29642D01*
X49816Y-29619D02*
X49703Y-29936D01*
X49590Y-29619D02*
X49703Y-29936D01*
X49748Y-30049D01*
X49771Y-30072D01*
X49816Y-30094D01*
X48798Y-29483D02*
X48843Y-29461D01*
X48911Y-29461D01*
X48979Y-29483D01*
X49024Y-29529D01*
X49047Y-29574D01*
X49070Y-29664D01*
X49070Y-29732D01*
X49047Y-29823D01*
X49024Y-29868D01*
X48979Y-29913D01*
X48911Y-29936D01*
X48866Y-29936D01*
X48798Y-29913D01*
X48776Y-29891D01*
X48776Y-29732D01*
X48866Y-29732D01*
X48504Y-29936D02*
X48549Y-29913D01*
X48572Y-29891D01*
X48595Y-29845D01*
X48595Y-29710D01*
X48572Y-29664D01*
X48549Y-29642D01*
X48504Y-29619D01*
X48436Y-29619D01*
X48391Y-29642D01*
X48368Y-29664D01*
X48346Y-29710D01*
X48346Y-29845D01*
X48368Y-29891D01*
X48391Y-29913D01*
X48436Y-29936D01*
X48504Y-29936D01*
X48165Y-29913D02*
X48120Y-29936D01*
X48029Y-29936D01*
X47984Y-29913D01*
X47961Y-29868D01*
X47961Y-29845D01*
X47984Y-29800D01*
X48029Y-29778D01*
X48097Y-29778D01*
X48142Y-29755D01*
X48165Y-29710D01*
X48165Y-29687D01*
X48142Y-29642D01*
X48097Y-29619D01*
X48029Y-29619D01*
X47984Y-29642D01*
X47780Y-29913D02*
X47735Y-29936D01*
X47645Y-29936D01*
X47599Y-29913D01*
X47577Y-29868D01*
X47577Y-29845D01*
X47599Y-29800D01*
X47645Y-29778D01*
X47712Y-29778D01*
X47758Y-29755D01*
X47780Y-29710D01*
X47780Y-29687D01*
X47758Y-29642D01*
X47712Y-29619D01*
X47645Y-29619D01*
X47599Y-29642D01*
G54D16*
X58577Y-32641D02*
X58577Y-32116D01*
X58453Y-32116D01*
X58379Y-32141D01*
X58330Y-32191D01*
X58305Y-32241D01*
X58280Y-32341D01*
X58280Y-32416D01*
X58305Y-32516D01*
X58330Y-32566D01*
X58379Y-32616D01*
X58453Y-32641D01*
X58577Y-32641D01*
X57859Y-32616D02*
X57909Y-32641D01*
X58008Y-32641D01*
X58057Y-32616D01*
X58082Y-32566D01*
X58082Y-32366D01*
X58057Y-32316D01*
X58008Y-32291D01*
X57909Y-32291D01*
X57859Y-32316D01*
X57834Y-32366D01*
X57834Y-32416D01*
X58082Y-32466D01*
X57661Y-32291D02*
X57537Y-32641D01*
X57413Y-32291D01*
X57017Y-32616D02*
X57067Y-32641D01*
X57166Y-32641D01*
X57215Y-32616D01*
X57240Y-32566D01*
X57240Y-32366D01*
X57215Y-32316D01*
X57166Y-32291D01*
X57067Y-32291D01*
X57017Y-32316D01*
X56993Y-32366D01*
X56993Y-32416D01*
X57240Y-32466D01*
X56695Y-32641D02*
X56745Y-32616D01*
X56770Y-32566D01*
X56770Y-32116D01*
X56423Y-32641D02*
X56473Y-32616D01*
X56497Y-32591D01*
X56522Y-32541D01*
X56522Y-32391D01*
X56497Y-32341D01*
X56473Y-32316D01*
X56423Y-32291D01*
X56349Y-32291D01*
X56299Y-32316D01*
X56274Y-32341D01*
X56250Y-32391D01*
X56250Y-32541D01*
X56274Y-32591D01*
X56299Y-32616D01*
X56349Y-32641D01*
X56423Y-32641D01*
X56027Y-32291D02*
X56027Y-32816D01*
X56027Y-32316D02*
X55977Y-32291D01*
X55878Y-32291D01*
X55829Y-32316D01*
X55804Y-32341D01*
X55779Y-32391D01*
X55779Y-32541D01*
X55804Y-32591D01*
X55829Y-32616D01*
X55878Y-32641D01*
X55977Y-32641D01*
X56027Y-32616D01*
X55556Y-32641D02*
X55556Y-32291D01*
X55556Y-32341D02*
X55532Y-32316D01*
X55482Y-32291D01*
X55408Y-32291D01*
X55358Y-32316D01*
X55333Y-32366D01*
X55333Y-32641D01*
X55333Y-32366D02*
X55309Y-32316D01*
X55259Y-32291D01*
X55185Y-32291D01*
X55135Y-32316D01*
X55111Y-32366D01*
X55111Y-32641D01*
X54665Y-32616D02*
X54714Y-32641D01*
X54813Y-32641D01*
X54863Y-32616D01*
X54888Y-32566D01*
X54888Y-32366D01*
X54863Y-32316D01*
X54813Y-32291D01*
X54714Y-32291D01*
X54665Y-32316D01*
X54640Y-32366D01*
X54640Y-32416D01*
X54888Y-32466D01*
X54417Y-32291D02*
X54417Y-32641D01*
X54417Y-32341D02*
X54393Y-32316D01*
X54343Y-32291D01*
X54269Y-32291D01*
X54219Y-32316D01*
X54194Y-32366D01*
X54194Y-32641D01*
X54021Y-32291D02*
X53823Y-32291D01*
X53947Y-32116D02*
X53947Y-32566D01*
X53922Y-32616D01*
X53873Y-32641D01*
X53823Y-32641D01*
X53080Y-32366D02*
X53006Y-32391D01*
X52981Y-32416D01*
X52956Y-32466D01*
X52956Y-32541D01*
X52981Y-32591D01*
X53006Y-32616D01*
X53055Y-32641D01*
X53253Y-32641D01*
X53253Y-32116D01*
X53080Y-32116D01*
X53031Y-32141D01*
X53006Y-32166D01*
X52981Y-32216D01*
X52981Y-32266D01*
X53006Y-32316D01*
X53031Y-32341D01*
X53080Y-32366D01*
X53253Y-32366D01*
X52659Y-32641D02*
X52709Y-32616D01*
X52733Y-32591D01*
X52758Y-32541D01*
X52758Y-32391D01*
X52733Y-32341D01*
X52709Y-32316D01*
X52659Y-32291D01*
X52585Y-32291D01*
X52535Y-32316D01*
X52511Y-32341D01*
X52486Y-32391D01*
X52486Y-32541D01*
X52511Y-32591D01*
X52535Y-32616D01*
X52585Y-32641D01*
X52659Y-32641D01*
X52040Y-32641D02*
X52040Y-32366D01*
X52065Y-32316D01*
X52114Y-32291D01*
X52213Y-32291D01*
X52263Y-32316D01*
X52040Y-32616D02*
X52090Y-32641D01*
X52213Y-32641D01*
X52263Y-32616D01*
X52288Y-32566D01*
X52288Y-32516D01*
X52263Y-32466D01*
X52213Y-32441D01*
X52090Y-32441D01*
X52040Y-32416D01*
X51792Y-32641D02*
X51792Y-32291D01*
X51792Y-32391D02*
X51768Y-32341D01*
X51743Y-32316D01*
X51693Y-32291D01*
X51644Y-32291D01*
X51248Y-32641D02*
X51248Y-32116D01*
X51248Y-32616D02*
X51297Y-32641D01*
X51396Y-32641D01*
X51446Y-32616D01*
X51471Y-32591D01*
X51495Y-32541D01*
X51495Y-32391D01*
X51471Y-32341D01*
X51446Y-32316D01*
X51396Y-32291D01*
X51297Y-32291D01*
X51248Y-32316D01*
G54D17*
X57778Y-31801D02*
X57825Y-31849D01*
X57968Y-31896D01*
X58064Y-31896D01*
X58206Y-31849D01*
X58302Y-31753D01*
X58349Y-31658D01*
X58397Y-31468D01*
X58397Y-31325D01*
X58349Y-31134D01*
X58302Y-31039D01*
X58206Y-30944D01*
X58064Y-30896D01*
X57968Y-30896D01*
X57825Y-30944D01*
X57778Y-30992D01*
X57349Y-31896D02*
X57349Y-31230D01*
X57349Y-31420D02*
X57302Y-31325D01*
X57254Y-31277D01*
X57159Y-31230D01*
X57064Y-31230D01*
X56302Y-31230D02*
X56302Y-31896D01*
X56730Y-31230D02*
X56730Y-31753D01*
X56683Y-31849D01*
X56587Y-31896D01*
X56445Y-31896D01*
X56349Y-31849D01*
X56302Y-31801D01*
X55825Y-31896D02*
X55825Y-31230D01*
X55825Y-30896D02*
X55873Y-30944D01*
X55825Y-30992D01*
X55778Y-30944D01*
X55825Y-30896D01*
X55825Y-30992D01*
X55397Y-31849D02*
X55302Y-31896D01*
X55111Y-31896D01*
X55016Y-31849D01*
X54968Y-31753D01*
X54968Y-31706D01*
X55016Y-31611D01*
X55111Y-31563D01*
X55254Y-31563D01*
X55349Y-31515D01*
X55397Y-31420D01*
X55397Y-31372D01*
X55349Y-31277D01*
X55254Y-31230D01*
X55111Y-31230D01*
X55016Y-31277D01*
X54159Y-31849D02*
X54254Y-31896D01*
X54445Y-31896D01*
X54540Y-31849D01*
X54587Y-31753D01*
X54587Y-31372D01*
X54540Y-31277D01*
X54445Y-31230D01*
X54254Y-31230D01*
X54159Y-31277D01*
X54111Y-31372D01*
X54111Y-31468D01*
X54587Y-31563D01*
X53683Y-31896D02*
X53683Y-31230D01*
X53683Y-31420D02*
X53635Y-31325D01*
X53587Y-31277D01*
X53492Y-31230D01*
X53397Y-31230D01*
G54D11*
X42168Y-34392D02*
X42808Y-34392D01*
X42808Y-35292D02*
X42168Y-35292D01*
X42808Y-35472D02*
X42168Y-35472D01*
X42168Y-35472D02*
X42168Y-34212D01*
X42168Y-34212D02*
X42808Y-34212D01*
X42808Y-34212D02*
X42808Y-35472D01*
X48971Y-33309D02*
X49611Y-33309D01*
X49611Y-34209D02*
X48971Y-34209D01*
X49611Y-34389D02*
X48971Y-34389D01*
X48971Y-34389D02*
X48971Y-33129D01*
X48971Y-33129D02*
X49611Y-33129D01*
X49611Y-33129D02*
X49611Y-34389D01*
X47993Y-35089D02*
X47993Y-35729D01*
X47093Y-35729D02*
X47093Y-35089D01*
X46913Y-35729D02*
X46913Y-35089D01*
X46913Y-35089D02*
X48173Y-35089D01*
X48173Y-35089D02*
X48173Y-35729D01*
X48173Y-35729D02*
X46913Y-35729D01*
X51868Y-33538D02*
X52508Y-33538D01*
X52508Y-34438D02*
X51868Y-34438D01*
X52508Y-34618D02*
X51868Y-34618D01*
X51868Y-34618D02*
X51868Y-33358D01*
X51868Y-33358D02*
X52508Y-33358D01*
X52508Y-33358D02*
X52508Y-34618D01*
X45918Y-33418D02*
X45278Y-33418D01*
X45278Y-32518D02*
X45918Y-32518D01*
X45278Y-32338D02*
X45918Y-32338D01*
X45918Y-32338D02*
X45918Y-33598D01*
X45918Y-33598D02*
X45278Y-33598D01*
X45278Y-33598D02*
X45278Y-32338D01*
X51520Y-34438D02*
X50880Y-34438D01*
X50880Y-33538D02*
X51520Y-33538D01*
X50880Y-33358D02*
X51520Y-33358D01*
X51520Y-33358D02*
X51520Y-34618D01*
X51520Y-34618D02*
X50880Y-34618D01*
X50880Y-34618D02*
X50880Y-33358D01*
X45278Y-30471D02*
X45918Y-30471D01*
X45918Y-31371D02*
X45278Y-31371D01*
X45918Y-31551D02*
X45278Y-31551D01*
X45278Y-31551D02*
X45278Y-30291D01*
X45278Y-30291D02*
X45918Y-30291D01*
X45918Y-30291D02*
X45918Y-31551D01*
X51802Y-29593D02*
X52442Y-29593D01*
X52442Y-30493D02*
X51802Y-30493D01*
X52442Y-30673D02*
X51802Y-30673D01*
X51802Y-30673D02*
X51802Y-29413D01*
X51802Y-29413D02*
X52442Y-29413D01*
X52442Y-29413D02*
X52442Y-30673D01*
X48612Y-29182D02*
X48612Y-28542D01*
X49512Y-28542D02*
X49512Y-29182D01*
X49692Y-28542D02*
X49692Y-29182D01*
X49692Y-29182D02*
X48432Y-29182D01*
X48432Y-29182D02*
X48432Y-28542D01*
X48432Y-28542D02*
X49692Y-28542D01*
X58540Y-29540D02*
X57900Y-29540D01*
X57900Y-28640D02*
X58540Y-28640D01*
X57900Y-28460D02*
X58540Y-28460D01*
X58540Y-28460D02*
X58540Y-29720D01*
X58540Y-29720D02*
X57900Y-29720D01*
X57900Y-29720D02*
X57900Y-28460D01*
X57469Y-35804D02*
X56829Y-35804D01*
X56829Y-34904D02*
X57469Y-34904D01*
X56829Y-34724D02*
X57469Y-34724D01*
X57469Y-34724D02*
X57469Y-35984D01*
X57469Y-35984D02*
X56829Y-35984D01*
X56829Y-35984D02*
X56829Y-34724D01*
X53882Y-24213D02*
X53242Y-24213D01*
X53242Y-23313D02*
X53882Y-23313D01*
X53242Y-23133D02*
X53882Y-23133D01*
X53882Y-23133D02*
X53882Y-24393D01*
X53882Y-24393D02*
X53242Y-24393D01*
X53242Y-24393D02*
X53242Y-23133D01*
G54D18*
X58606Y-27074D02*
X58606Y-27974D01*
X58606Y-27974D02*
X57956Y-27974D01*
X57256Y-27074D02*
X56606Y-27074D01*
X56606Y-27074D02*
X56606Y-27974D01*
X56606Y-27974D02*
X57256Y-27974D01*
X57956Y-27074D02*
X58606Y-27074D01*
X56405Y-27078D02*
X56405Y-27978D01*
X56405Y-27978D02*
X55755Y-27978D01*
X55055Y-27078D02*
X54405Y-27078D01*
X54405Y-27078D02*
X54405Y-27978D01*
X54405Y-27978D02*
X55055Y-27978D01*
X55755Y-27078D02*
X56405Y-27078D01*
X43140Y-34905D02*
X44040Y-34905D01*
X44040Y-34905D02*
X44040Y-35555D01*
X43140Y-36255D02*
X43140Y-36905D01*
X43140Y-36905D02*
X44040Y-36905D01*
X44040Y-36905D02*
X44040Y-36255D01*
X43140Y-35555D02*
X43140Y-34905D01*
X46001Y-37291D02*
X45101Y-37291D01*
X45101Y-37291D02*
X45101Y-36641D01*
X46001Y-35941D02*
X46001Y-35291D01*
X46001Y-35291D02*
X45101Y-35291D01*
X45101Y-35291D02*
X45101Y-35941D01*
X46001Y-36641D02*
X46001Y-37291D01*
X47633Y-37841D02*
X47633Y-38741D01*
X47633Y-38741D02*
X46983Y-38741D01*
X46283Y-37841D02*
X45633Y-37841D01*
X45633Y-37841D02*
X45633Y-38741D01*
X45633Y-38741D02*
X46283Y-38741D01*
X46983Y-37841D02*
X47633Y-37841D01*
X43016Y-32968D02*
X42116Y-32968D01*
X42116Y-32968D02*
X42116Y-32318D01*
X43016Y-31618D02*
X43016Y-30968D01*
X43016Y-30968D02*
X42116Y-30968D01*
X42116Y-30968D02*
X42116Y-31618D01*
X43016Y-32318D02*
X43016Y-32968D01*
X42116Y-28606D02*
X43016Y-28606D01*
X43016Y-28606D02*
X43016Y-29256D01*
X42116Y-29956D02*
X42116Y-30606D01*
X42116Y-30606D02*
X43016Y-30606D01*
X43016Y-30606D02*
X43016Y-29956D01*
X42116Y-29256D02*
X42116Y-28606D01*
X44741Y-30645D02*
X43841Y-30645D01*
X43841Y-30645D02*
X43841Y-29995D01*
X44741Y-29295D02*
X44741Y-28645D01*
X44741Y-28645D02*
X43841Y-28645D01*
X43841Y-28645D02*
X43841Y-29295D01*
X44741Y-29995D02*
X44741Y-30645D01*
X54961Y-25657D02*
X54061Y-25657D01*
X54061Y-25657D02*
X54061Y-25007D01*
X54961Y-24307D02*
X54961Y-23657D01*
X54961Y-23657D02*
X54061Y-23657D01*
X54061Y-23657D02*
X54061Y-24307D01*
X54961Y-25007D02*
X54961Y-25657D01*
X46191Y-28385D02*
X47091Y-28385D01*
X47091Y-28385D02*
X47091Y-29035D01*
X46191Y-29735D02*
X46191Y-30385D01*
X46191Y-30385D02*
X47091Y-30385D01*
X47091Y-30385D02*
X47091Y-29735D01*
X46191Y-29035D02*
X46191Y-28385D01*
G54D11*
X49611Y-32201D02*
X48971Y-32201D01*
X48971Y-31301D02*
X49611Y-31301D01*
X48971Y-31121D02*
X49611Y-31121D01*
X49611Y-31121D02*
X49611Y-32381D01*
X49611Y-32381D02*
X48971Y-32381D01*
X48971Y-32381D02*
X48971Y-31121D01*
X42808Y-37457D02*
X42168Y-37457D01*
X42168Y-36557D02*
X42808Y-36557D01*
X42168Y-36377D02*
X42808Y-36377D01*
X42808Y-36377D02*
X42808Y-37637D01*
X42808Y-37637D02*
X42168Y-37637D01*
X42168Y-37637D02*
X42168Y-36377D01*
X56615Y-35832D02*
X55975Y-35832D01*
X55975Y-34752D02*
X56615Y-34752D01*
X56615Y-34752D02*
X56615Y-36012D01*
X56615Y-36012D02*
X55975Y-36012D01*
X55975Y-36012D02*
X55975Y-34752D01*
G54D19*
X48451Y-30993D02*
X47351Y-30993D01*
X47351Y-30993D02*
X47351Y-34643D01*
X47351Y-34643D02*
X48451Y-34643D01*
X48451Y-34643D02*
X48451Y-31018D01*
G54D11*
X58502Y-34652D02*
X58002Y-34652D01*
X58502Y-35152D02*
X58012Y-35152D01*
X58502Y-35302D02*
X58502Y-34502D01*
X58502Y-34502D02*
X58002Y-34502D01*
X58002Y-34502D02*
X58002Y-35302D01*
X58002Y-35302D02*
X58502Y-35302D01*
X59152Y-35021D02*
X64702Y-35021D01*
X64702Y-29121D02*
X59152Y-29121D01*
X59152Y-35021D02*
X59152Y-29121D01*
X64702Y-35021D02*
X64702Y-29121D01*
X42672Y-33782D02*
X42684Y-33794D01*
X42720Y-33805D01*
X42743Y-33805D01*
X42779Y-33794D01*
X42803Y-33770D01*
X42815Y-33746D01*
X42827Y-33698D01*
X42827Y-33663D01*
X42815Y-33615D01*
X42803Y-33591D01*
X42779Y-33567D01*
X42743Y-33555D01*
X42720Y-33555D01*
X42684Y-33567D01*
X42672Y-33579D01*
X42434Y-33805D02*
X42577Y-33805D01*
X42505Y-33805D02*
X42505Y-33555D01*
X42529Y-33591D01*
X42553Y-33615D01*
X42577Y-33627D01*
X42220Y-33639D02*
X42220Y-33805D01*
X42279Y-33544D02*
X42339Y-33722D01*
X42184Y-33722D01*
X50038Y-33591D02*
X50049Y-33579D01*
X50061Y-33543D01*
X50061Y-33519D01*
X50049Y-33484D01*
X50026Y-33460D01*
X50002Y-33448D01*
X49954Y-33436D01*
X49918Y-33436D01*
X49871Y-33448D01*
X49847Y-33460D01*
X49823Y-33484D01*
X49811Y-33519D01*
X49811Y-33543D01*
X49823Y-33579D01*
X49835Y-33591D01*
X50061Y-33829D02*
X50061Y-33686D01*
X50061Y-33757D02*
X49811Y-33757D01*
X49847Y-33734D01*
X49871Y-33710D01*
X49883Y-33686D01*
X49811Y-33912D02*
X49811Y-34067D01*
X49907Y-33984D01*
X49907Y-34019D01*
X49918Y-34043D01*
X49930Y-34055D01*
X49954Y-34067D01*
X50014Y-34067D01*
X50038Y-34055D01*
X50049Y-34043D01*
X50061Y-34019D01*
X50061Y-33948D01*
X50049Y-33924D01*
X50038Y-33912D01*
X46471Y-35248D02*
X46482Y-35236D01*
X46494Y-35201D01*
X46494Y-35177D01*
X46482Y-35141D01*
X46459Y-35117D01*
X46435Y-35105D01*
X46387Y-35093D01*
X46352Y-35093D01*
X46304Y-35105D01*
X46280Y-35117D01*
X46256Y-35141D01*
X46244Y-35177D01*
X46244Y-35201D01*
X46256Y-35236D01*
X46268Y-35248D01*
X46494Y-35486D02*
X46494Y-35343D01*
X46494Y-35415D02*
X46244Y-35415D01*
X46280Y-35391D01*
X46304Y-35367D01*
X46316Y-35343D01*
X46244Y-35641D02*
X46244Y-35665D01*
X46256Y-35689D01*
X46268Y-35701D01*
X46292Y-35713D01*
X46340Y-35724D01*
X46399Y-35724D01*
X46447Y-35713D01*
X46471Y-35701D01*
X46482Y-35689D01*
X46494Y-35665D01*
X46494Y-35641D01*
X46482Y-35617D01*
X46471Y-35605D01*
X46447Y-35593D01*
X46399Y-35582D01*
X46340Y-35582D01*
X46292Y-35593D01*
X46268Y-35605D01*
X46256Y-35617D01*
X46244Y-35641D01*
X52959Y-33938D02*
X52971Y-33926D01*
X52983Y-33891D01*
X52983Y-33867D01*
X52971Y-33831D01*
X52947Y-33807D01*
X52923Y-33795D01*
X52875Y-33783D01*
X52840Y-33783D01*
X52792Y-33795D01*
X52768Y-33807D01*
X52744Y-33831D01*
X52733Y-33867D01*
X52733Y-33891D01*
X52744Y-33926D01*
X52756Y-33938D01*
X52983Y-34057D02*
X52983Y-34105D01*
X52971Y-34129D01*
X52959Y-34141D01*
X52923Y-34164D01*
X52875Y-34176D01*
X52780Y-34176D01*
X52756Y-34164D01*
X52744Y-34152D01*
X52733Y-34129D01*
X52733Y-34081D01*
X52744Y-34057D01*
X52756Y-34045D01*
X52780Y-34033D01*
X52840Y-34033D01*
X52864Y-34045D01*
X52875Y-34057D01*
X52887Y-34081D01*
X52887Y-34129D01*
X52875Y-34152D01*
X52864Y-34164D01*
X52840Y-34176D01*
X46340Y-32891D02*
X46352Y-32879D01*
X46364Y-32844D01*
X46364Y-32820D01*
X46352Y-32784D01*
X46328Y-32760D01*
X46305Y-32748D01*
X46257Y-32737D01*
X46221Y-32737D01*
X46174Y-32748D01*
X46150Y-32760D01*
X46126Y-32784D01*
X46114Y-32820D01*
X46114Y-32844D01*
X46126Y-32879D01*
X46138Y-32891D01*
X46221Y-33034D02*
X46209Y-33010D01*
X46197Y-32998D01*
X46174Y-32987D01*
X46162Y-32987D01*
X46138Y-32998D01*
X46126Y-33010D01*
X46114Y-33034D01*
X46114Y-33082D01*
X46126Y-33106D01*
X46138Y-33118D01*
X46162Y-33129D01*
X46174Y-33129D01*
X46197Y-33118D01*
X46209Y-33106D01*
X46221Y-33082D01*
X46221Y-33034D01*
X46233Y-33010D01*
X46245Y-32998D01*
X46269Y-32987D01*
X46316Y-32987D01*
X46340Y-32998D01*
X46352Y-33010D01*
X46364Y-33034D01*
X46364Y-33082D01*
X46352Y-33106D01*
X46340Y-33118D01*
X46316Y-33129D01*
X46269Y-33129D01*
X46245Y-33118D01*
X46233Y-33106D01*
X46221Y-33082D01*
X50636Y-33958D02*
X50648Y-33946D01*
X50660Y-33910D01*
X50660Y-33886D01*
X50648Y-33851D01*
X50624Y-33827D01*
X50600Y-33815D01*
X50553Y-33803D01*
X50517Y-33803D01*
X50469Y-33815D01*
X50445Y-33827D01*
X50422Y-33851D01*
X50410Y-33886D01*
X50410Y-33910D01*
X50422Y-33946D01*
X50434Y-33958D01*
X50410Y-34041D02*
X50410Y-34208D01*
X50660Y-34101D01*
X45609Y-29836D02*
X45620Y-29848D01*
X45656Y-29860D01*
X45680Y-29860D01*
X45716Y-29848D01*
X45740Y-29824D01*
X45751Y-29800D01*
X45763Y-29753D01*
X45763Y-29717D01*
X45751Y-29669D01*
X45740Y-29646D01*
X45716Y-29622D01*
X45680Y-29610D01*
X45656Y-29610D01*
X45620Y-29622D01*
X45609Y-29634D01*
X45394Y-29610D02*
X45442Y-29610D01*
X45466Y-29622D01*
X45478Y-29634D01*
X45501Y-29669D01*
X45513Y-29717D01*
X45513Y-29812D01*
X45501Y-29836D01*
X45490Y-29848D01*
X45466Y-29860D01*
X45418Y-29860D01*
X45394Y-29848D01*
X45382Y-29836D01*
X45370Y-29812D01*
X45370Y-29753D01*
X45382Y-29729D01*
X45394Y-29717D01*
X45418Y-29705D01*
X45466Y-29705D01*
X45490Y-29717D01*
X45501Y-29729D01*
X45513Y-29753D01*
X52140Y-28943D02*
X52152Y-28955D01*
X52188Y-28967D01*
X52212Y-28967D01*
X52247Y-28955D01*
X52271Y-28931D01*
X52283Y-28907D01*
X52295Y-28860D01*
X52295Y-28824D01*
X52283Y-28777D01*
X52271Y-28753D01*
X52247Y-28729D01*
X52212Y-28717D01*
X52188Y-28717D01*
X52152Y-28729D01*
X52140Y-28741D01*
X51914Y-28717D02*
X52033Y-28717D01*
X52045Y-28836D01*
X52033Y-28824D01*
X52009Y-28812D01*
X51950Y-28812D01*
X51926Y-28824D01*
X51914Y-28836D01*
X51902Y-28860D01*
X51902Y-28919D01*
X51914Y-28943D01*
X51926Y-28955D01*
X51950Y-28967D01*
X52009Y-28967D01*
X52033Y-28955D01*
X52045Y-28943D01*
X49132Y-28372D02*
X49144Y-28384D01*
X49180Y-28396D01*
X49204Y-28396D01*
X49239Y-28384D01*
X49263Y-28360D01*
X49275Y-28336D01*
X49287Y-28289D01*
X49287Y-28253D01*
X49275Y-28205D01*
X49263Y-28182D01*
X49239Y-28158D01*
X49204Y-28146D01*
X49180Y-28146D01*
X49144Y-28158D01*
X49132Y-28170D01*
X48918Y-28229D02*
X48918Y-28396D01*
X48977Y-28134D02*
X49037Y-28313D01*
X48882Y-28313D01*
X58920Y-29052D02*
X58932Y-29040D01*
X58944Y-29004D01*
X58944Y-28980D01*
X58932Y-28945D01*
X58908Y-28921D01*
X58884Y-28909D01*
X58837Y-28897D01*
X58801Y-28897D01*
X58753Y-28909D01*
X58729Y-28921D01*
X58706Y-28945D01*
X58694Y-28980D01*
X58694Y-29004D01*
X58706Y-29040D01*
X58718Y-29052D01*
X58694Y-29135D02*
X58694Y-29290D01*
X58789Y-29207D01*
X58789Y-29242D01*
X58801Y-29266D01*
X58813Y-29278D01*
X58837Y-29290D01*
X58896Y-29290D01*
X58920Y-29278D01*
X58932Y-29266D01*
X58944Y-29242D01*
X58944Y-29171D01*
X58932Y-29147D01*
X58920Y-29135D01*
X57179Y-36612D02*
X57191Y-36624D01*
X57227Y-36636D01*
X57251Y-36636D01*
X57286Y-36624D01*
X57310Y-36600D01*
X57322Y-36576D01*
X57334Y-36529D01*
X57334Y-36493D01*
X57322Y-36445D01*
X57310Y-36421D01*
X57286Y-36398D01*
X57251Y-36386D01*
X57227Y-36386D01*
X57191Y-36398D01*
X57179Y-36410D01*
X57084Y-36410D02*
X57072Y-36398D01*
X57048Y-36386D01*
X56989Y-36386D01*
X56965Y-36398D01*
X56953Y-36410D01*
X56941Y-36433D01*
X56941Y-36457D01*
X56953Y-36493D01*
X57096Y-36636D01*
X56941Y-36636D01*
X53608Y-22683D02*
X53620Y-22695D01*
X53656Y-22707D01*
X53680Y-22707D01*
X53715Y-22695D01*
X53739Y-22671D01*
X53751Y-22647D01*
X53763Y-22600D01*
X53763Y-22564D01*
X53751Y-22517D01*
X53739Y-22493D01*
X53715Y-22469D01*
X53680Y-22457D01*
X53656Y-22457D01*
X53620Y-22469D01*
X53608Y-22481D01*
X53370Y-22707D02*
X53513Y-22707D01*
X53441Y-22707D02*
X53441Y-22457D01*
X53465Y-22493D01*
X53489Y-22517D01*
X53513Y-22528D01*
X58951Y-27378D02*
X58832Y-27294D01*
X58951Y-27235D02*
X58701Y-27235D01*
X58701Y-27330D01*
X58713Y-27354D01*
X58725Y-27366D01*
X58748Y-27378D01*
X58784Y-27378D01*
X58808Y-27366D01*
X58820Y-27354D01*
X58832Y-27330D01*
X58832Y-27235D01*
X58951Y-27616D02*
X58951Y-27473D01*
X58951Y-27544D02*
X58701Y-27544D01*
X58736Y-27521D01*
X58760Y-27497D01*
X58772Y-27473D01*
X58725Y-27711D02*
X58713Y-27723D01*
X58701Y-27747D01*
X58701Y-27806D01*
X58713Y-27830D01*
X58725Y-27842D01*
X58748Y-27854D01*
X58772Y-27854D01*
X58808Y-27842D01*
X58951Y-27699D01*
X58951Y-27854D01*
X55459Y-26912D02*
X55543Y-26793D01*
X55602Y-26912D02*
X55602Y-26662D01*
X55507Y-26662D01*
X55483Y-26674D01*
X55471Y-26686D01*
X55459Y-26709D01*
X55459Y-26745D01*
X55471Y-26769D01*
X55483Y-26781D01*
X55507Y-26793D01*
X55602Y-26793D01*
X55221Y-26912D02*
X55364Y-26912D01*
X55293Y-26912D02*
X55293Y-26662D01*
X55317Y-26697D01*
X55340Y-26721D01*
X55364Y-26733D01*
X54983Y-26912D02*
X55126Y-26912D01*
X55055Y-26912D02*
X55055Y-26662D01*
X55078Y-26697D01*
X55102Y-26721D01*
X55126Y-26733D01*
X43731Y-34735D02*
X43814Y-34616D01*
X43874Y-34735D02*
X43874Y-34485D01*
X43779Y-34485D01*
X43755Y-34496D01*
X43743Y-34508D01*
X43731Y-34532D01*
X43731Y-34568D01*
X43743Y-34592D01*
X43755Y-34604D01*
X43779Y-34616D01*
X43874Y-34616D01*
X43493Y-34735D02*
X43636Y-34735D01*
X43564Y-34735D02*
X43564Y-34485D01*
X43588Y-34520D01*
X43612Y-34544D01*
X43636Y-34556D01*
X43338Y-34485D02*
X43314Y-34485D01*
X43291Y-34496D01*
X43279Y-34508D01*
X43267Y-34532D01*
X43255Y-34580D01*
X43255Y-34639D01*
X43267Y-34687D01*
X43279Y-34711D01*
X43291Y-34723D01*
X43314Y-34735D01*
X43338Y-34735D01*
X43362Y-34723D01*
X43374Y-34711D01*
X43386Y-34687D01*
X43398Y-34639D01*
X43398Y-34580D01*
X43386Y-34532D01*
X43374Y-34508D01*
X43362Y-34496D01*
X43338Y-34485D01*
X45533Y-35085D02*
X45617Y-34966D01*
X45676Y-35085D02*
X45676Y-34835D01*
X45581Y-34835D01*
X45557Y-34847D01*
X45545Y-34859D01*
X45533Y-34883D01*
X45533Y-34918D01*
X45545Y-34942D01*
X45557Y-34954D01*
X45581Y-34966D01*
X45676Y-34966D01*
X45450Y-34835D02*
X45283Y-34835D01*
X45390Y-35085D01*
X46663Y-37679D02*
X46747Y-37560D01*
X46806Y-37679D02*
X46806Y-37429D01*
X46711Y-37429D01*
X46687Y-37441D01*
X46675Y-37453D01*
X46663Y-37477D01*
X46663Y-37513D01*
X46675Y-37537D01*
X46687Y-37548D01*
X46711Y-37560D01*
X46806Y-37560D01*
X46449Y-37429D02*
X46497Y-37429D01*
X46520Y-37441D01*
X46532Y-37453D01*
X46556Y-37489D01*
X46568Y-37537D01*
X46568Y-37632D01*
X46556Y-37656D01*
X46544Y-37668D01*
X46520Y-37679D01*
X46473Y-37679D01*
X46449Y-37668D01*
X46437Y-37656D01*
X46425Y-37632D01*
X46425Y-37572D01*
X46437Y-37548D01*
X46449Y-37537D01*
X46473Y-37525D01*
X46520Y-37525D01*
X46544Y-37537D01*
X46556Y-37548D01*
X46568Y-37572D01*
X42588Y-33368D02*
X42672Y-33249D01*
X42731Y-33368D02*
X42731Y-33118D01*
X42636Y-33118D01*
X42612Y-33130D01*
X42600Y-33142D01*
X42588Y-33166D01*
X42588Y-33202D01*
X42600Y-33226D01*
X42612Y-33237D01*
X42636Y-33249D01*
X42731Y-33249D01*
X42362Y-33118D02*
X42481Y-33118D01*
X42493Y-33237D01*
X42481Y-33226D01*
X42457Y-33214D01*
X42398Y-33214D01*
X42374Y-33226D01*
X42362Y-33237D01*
X42350Y-33261D01*
X42350Y-33321D01*
X42362Y-33345D01*
X42374Y-33357D01*
X42398Y-33368D01*
X42457Y-33368D01*
X42481Y-33357D01*
X42493Y-33345D01*
X42427Y-28427D02*
X42510Y-28308D01*
X42570Y-28427D02*
X42570Y-28177D01*
X42475Y-28177D01*
X42451Y-28189D01*
X42439Y-28201D01*
X42427Y-28225D01*
X42427Y-28261D01*
X42439Y-28285D01*
X42451Y-28297D01*
X42475Y-28308D01*
X42570Y-28308D01*
X42213Y-28261D02*
X42213Y-28427D01*
X42272Y-28166D02*
X42332Y-28344D01*
X42177Y-28344D01*
X44624Y-28475D02*
X44707Y-28356D01*
X44767Y-28475D02*
X44767Y-28225D01*
X44671Y-28225D01*
X44648Y-28237D01*
X44636Y-28249D01*
X44624Y-28272D01*
X44624Y-28308D01*
X44636Y-28332D01*
X44648Y-28344D01*
X44671Y-28356D01*
X44767Y-28356D01*
X44541Y-28225D02*
X44386Y-28225D01*
X44469Y-28320D01*
X44433Y-28320D01*
X44410Y-28332D01*
X44398Y-28344D01*
X44386Y-28368D01*
X44386Y-28427D01*
X44398Y-28451D01*
X44410Y-28463D01*
X44433Y-28475D01*
X44505Y-28475D01*
X44529Y-28463D01*
X44541Y-28451D01*
X54545Y-23479D02*
X54628Y-23360D01*
X54688Y-23479D02*
X54688Y-23229D01*
X54593Y-23229D01*
X54569Y-23241D01*
X54557Y-23252D01*
X54545Y-23276D01*
X54545Y-23312D01*
X54557Y-23336D01*
X54569Y-23348D01*
X54593Y-23360D01*
X54688Y-23360D01*
X54450Y-23252D02*
X54438Y-23241D01*
X54414Y-23229D01*
X54355Y-23229D01*
X54331Y-23241D01*
X54319Y-23252D01*
X54307Y-23276D01*
X54307Y-23300D01*
X54319Y-23336D01*
X54462Y-23479D01*
X54307Y-23479D01*
X46663Y-30818D02*
X46746Y-30698D01*
X46806Y-30818D02*
X46806Y-30568D01*
X46711Y-30568D01*
X46687Y-30579D01*
X46675Y-30591D01*
X46663Y-30615D01*
X46663Y-30651D01*
X46675Y-30675D01*
X46687Y-30687D01*
X46711Y-30698D01*
X46806Y-30698D01*
X46425Y-30818D02*
X46568Y-30818D01*
X46496Y-30818D02*
X46496Y-30568D01*
X46520Y-30603D01*
X46544Y-30627D01*
X46568Y-30639D01*
X50038Y-31610D02*
X50049Y-31599D01*
X50061Y-31563D01*
X50061Y-31539D01*
X50049Y-31503D01*
X50026Y-31479D01*
X50002Y-31468D01*
X49954Y-31456D01*
X49918Y-31456D01*
X49871Y-31468D01*
X49847Y-31479D01*
X49823Y-31503D01*
X49811Y-31539D01*
X49811Y-31563D01*
X49823Y-31599D01*
X49835Y-31610D01*
X50061Y-31849D02*
X50061Y-31706D01*
X50061Y-31777D02*
X49811Y-31777D01*
X49847Y-31753D01*
X49871Y-31729D01*
X49883Y-31706D01*
X49835Y-31944D02*
X49823Y-31956D01*
X49811Y-31979D01*
X49811Y-32039D01*
X49823Y-32063D01*
X49835Y-32075D01*
X49859Y-32087D01*
X49883Y-32087D01*
X49918Y-32075D01*
X50061Y-31932D01*
X50061Y-32087D01*
X42648Y-38305D02*
X42660Y-38317D01*
X42696Y-38329D01*
X42720Y-38329D01*
X42756Y-38317D01*
X42779Y-38293D01*
X42791Y-38270D01*
X42803Y-38222D01*
X42803Y-38186D01*
X42791Y-38139D01*
X42779Y-38115D01*
X42756Y-38091D01*
X42720Y-38079D01*
X42696Y-38079D01*
X42660Y-38091D01*
X42648Y-38103D01*
X42410Y-38329D02*
X42553Y-38329D01*
X42482Y-38329D02*
X42482Y-38079D01*
X42506Y-38115D01*
X42529Y-38139D01*
X42553Y-38150D01*
X42184Y-38079D02*
X42303Y-38079D01*
X42315Y-38198D01*
X42303Y-38186D01*
X42279Y-38174D01*
X42220Y-38174D01*
X42196Y-38186D01*
X42184Y-38198D01*
X42172Y-38222D01*
X42172Y-38281D01*
X42184Y-38305D01*
X42196Y-38317D01*
X42220Y-38329D01*
X42279Y-38329D01*
X42303Y-38317D01*
X42315Y-38305D01*
X56479Y-36681D02*
X56491Y-36693D01*
X56527Y-36705D01*
X56551Y-36705D01*
X56586Y-36693D01*
X56610Y-36669D01*
X56622Y-36645D01*
X56634Y-36598D01*
X56634Y-36562D01*
X56622Y-36515D01*
X56610Y-36491D01*
X56586Y-36467D01*
X56551Y-36455D01*
X56527Y-36455D01*
X56491Y-36467D01*
X56479Y-36479D01*
X56241Y-36705D02*
X56384Y-36705D01*
X56312Y-36705D02*
X56312Y-36455D01*
X56336Y-36491D01*
X56360Y-36515D01*
X56384Y-36526D01*
X56003Y-36705D02*
X56146Y-36705D01*
X56074Y-36705D02*
X56074Y-36455D01*
X56098Y-36491D01*
X56122Y-36515D01*
X56146Y-36526D01*
X46811Y-32652D02*
X47061Y-32819D01*
X46811Y-32819D02*
X47061Y-32652D01*
X47061Y-33045D02*
X47061Y-32902D01*
X47061Y-32973D02*
X46811Y-32973D01*
X46847Y-32950D01*
X46871Y-32926D01*
X46883Y-32902D01*
X58277Y-35991D02*
X58396Y-35991D01*
X58396Y-35741D01*
X58063Y-35991D02*
X58206Y-35991D01*
X58134Y-35991D02*
X58134Y-35741D01*
X58158Y-35776D01*
X58182Y-35800D01*
X58206Y-35812D01*
X58101Y-37343D02*
X58113Y-37379D01*
X58113Y-37439D01*
X58101Y-37462D01*
X58089Y-37474D01*
X58065Y-37486D01*
X58041Y-37486D01*
X58017Y-37474D01*
X58005Y-37462D01*
X57993Y-37439D01*
X57982Y-37391D01*
X57970Y-37367D01*
X57958Y-37355D01*
X57934Y-37343D01*
X57910Y-37343D01*
X57886Y-37355D01*
X57874Y-37367D01*
X57863Y-37391D01*
X57863Y-37450D01*
X57874Y-37486D01*
X57863Y-37570D02*
X58113Y-37629D01*
X57934Y-37677D01*
X58113Y-37724D01*
X57863Y-37784D01*
X57863Y-37998D02*
X57863Y-37879D01*
X57982Y-37867D01*
X57970Y-37879D01*
X57958Y-37903D01*
X57958Y-37962D01*
X57970Y-37986D01*
X57982Y-37998D01*
X58005Y-38010D01*
X58065Y-38010D01*
X58089Y-37998D01*
X58101Y-37986D01*
X58113Y-37962D01*
X58113Y-37903D01*
X58101Y-37879D01*
X58089Y-37867D01*
X54010Y-35674D02*
X54022Y-35710D01*
X54022Y-35769D01*
X54010Y-35793D01*
X53998Y-35805D01*
X53974Y-35817D01*
X53951Y-35817D01*
X53927Y-35805D01*
X53915Y-35793D01*
X53903Y-35769D01*
X53891Y-35722D01*
X53879Y-35698D01*
X53867Y-35686D01*
X53843Y-35674D01*
X53820Y-35674D01*
X53796Y-35686D01*
X53784Y-35698D01*
X53772Y-35722D01*
X53772Y-35781D01*
X53784Y-35817D01*
X53772Y-35900D02*
X54022Y-35960D01*
X53843Y-36007D01*
X54022Y-36055D01*
X53772Y-36115D01*
X53772Y-36186D02*
X53772Y-36353D01*
X54022Y-36245D01*
M02*
