G04 (created by PCBNEW (22-Jun-2014 BZR 4027)-stable) date Sat 19 May 2018 03:07:35 PM EDT*
%MOIN*%
G04 Gerber Fmt 3.4, Leading zero omitted, Abs format*
%FSLAX34Y34*%
G01*
G70*
G90*
G04 APERTURE LIST*
%ADD10C,0.00590551*%
%ADD11C,0.001*%
%ADD12R,0.08X0.08*%
%ADD13C,0.08*%
%ADD14C,0.0495*%
%ADD15C,0.0476*%
%ADD16C,0.0856*%
%ADD17O,0.0793X0.102677*%
%ADD18R,0.0909X0.0829*%
%ADD19R,0.027X0.092*%
%ADD20R,0.092X0.027*%
%ADD21R,0.092X0.072*%
%ADD22R,0.028X0.062*%
%ADD23R,0.072X0.072*%
%ADD24C,0.072*%
%ADD25C,0.0848*%
%ADD26C,0.074*%
%ADD27O,0.157X0.087*%
%ADD28C,0.086*%
%ADD29C,0.110425*%
G04 APERTURE END LIST*
G54D10*
G54D11*
X43318Y-22224D02*
X43511Y-22224D01*
X41893Y-23649D02*
X43318Y-22224D01*
X41893Y-23842D02*
X41893Y-23649D01*
X61578Y-36374D02*
X61578Y-35023D01*
X59035Y-38917D02*
X61578Y-36374D01*
X56043Y-41909D02*
X59035Y-38917D01*
X43511Y-41909D02*
X56043Y-41909D01*
X41893Y-40291D02*
X43511Y-41909D01*
X41893Y-38625D02*
X41893Y-40291D01*
X41893Y-23842D02*
X41893Y-25547D01*
X61578Y-27755D02*
X61578Y-29122D01*
X56047Y-22224D02*
X61578Y-27755D01*
X43511Y-22224D02*
X56047Y-22224D01*
X41893Y-38625D02*
X41893Y-25547D01*
X61579Y-29709D02*
X61579Y-29122D01*
X61579Y-35024D02*
X61579Y-29709D01*
X59035Y-30016D02*
X59035Y-30020D01*
G54D12*
X54251Y-28791D03*
G54D13*
X54251Y-29791D03*
G54D10*
G36*
X57660Y-25627D02*
X57913Y-25879D01*
X57396Y-26396D01*
X57143Y-26144D01*
X57660Y-25627D01*
X57660Y-25627D01*
G37*
G36*
X57478Y-25445D02*
X57731Y-25698D01*
X57214Y-26214D01*
X56962Y-25962D01*
X57478Y-25445D01*
X57478Y-25445D01*
G37*
G36*
X57297Y-25264D02*
X57550Y-25517D01*
X57033Y-26033D01*
X56781Y-25781D01*
X57297Y-25264D01*
X57297Y-25264D01*
G37*
G36*
X57116Y-25083D02*
X57369Y-25336D01*
X56852Y-25852D01*
X56599Y-25600D01*
X57116Y-25083D01*
X57116Y-25083D01*
G37*
G36*
X56935Y-24902D02*
X57188Y-25155D01*
X56671Y-25671D01*
X56418Y-25419D01*
X56935Y-24902D01*
X56935Y-24902D01*
G37*
G54D14*
X57931Y-26414D02*
X57791Y-26275D01*
X56539Y-25023D02*
X56400Y-24883D01*
G54D15*
X59009Y-25753D02*
X58773Y-25990D01*
X57061Y-23805D02*
X56824Y-24041D01*
G54D10*
G36*
X58202Y-24610D02*
X58775Y-25183D01*
X58202Y-25756D01*
X57630Y-25183D01*
X58202Y-24610D01*
X58202Y-24610D01*
G37*
G36*
X57631Y-24039D02*
X58204Y-24611D01*
X57631Y-25184D01*
X57058Y-24611D01*
X57631Y-24039D01*
X57631Y-24039D01*
G37*
G54D16*
X42480Y-39933D03*
G54D17*
X55334Y-41239D03*
X52776Y-41239D03*
X55334Y-39469D03*
X52776Y-39469D03*
X52776Y-22878D03*
X55334Y-22878D03*
X52776Y-24648D03*
X55334Y-24648D03*
G54D18*
X56953Y-28543D03*
X56953Y-29661D03*
X56051Y-28543D03*
X56051Y-29661D03*
X58968Y-36122D03*
X58968Y-37240D03*
G54D19*
X52273Y-27761D03*
X52018Y-27761D03*
X51763Y-27761D03*
X51508Y-27761D03*
X51253Y-27761D03*
X50993Y-27761D03*
X50738Y-27761D03*
X50483Y-27761D03*
X50228Y-27761D03*
X49973Y-27761D03*
X49713Y-27761D03*
X49458Y-27761D03*
X49203Y-27761D03*
X48948Y-27761D03*
X48688Y-27761D03*
X48433Y-27761D03*
X48178Y-27761D03*
X47923Y-27761D03*
X47663Y-27761D03*
X47408Y-27761D03*
X47153Y-27761D03*
X46898Y-27761D03*
X46643Y-27761D03*
X46383Y-27761D03*
X46128Y-27761D03*
X45873Y-27761D03*
X45618Y-27761D03*
X45363Y-27761D03*
G54D20*
X44493Y-28631D03*
X44493Y-28886D03*
X44493Y-29141D03*
X44493Y-29396D03*
X44493Y-29651D03*
X44493Y-29911D03*
X44493Y-30166D03*
X44493Y-30421D03*
X44493Y-30676D03*
X44493Y-30931D03*
X44493Y-31191D03*
X44493Y-31446D03*
X44493Y-31701D03*
X44493Y-31956D03*
X44493Y-32216D03*
X44493Y-32471D03*
X44493Y-32726D03*
X44493Y-32981D03*
X44493Y-33241D03*
X44493Y-33496D03*
X44493Y-33751D03*
X44493Y-34006D03*
X44493Y-34261D03*
X44493Y-34521D03*
X44493Y-34776D03*
X44493Y-35031D03*
X44493Y-35286D03*
X44493Y-35541D03*
G54D19*
X45363Y-36411D03*
X45618Y-36411D03*
X45873Y-36411D03*
X46128Y-36411D03*
X46383Y-36411D03*
X46643Y-36411D03*
X46898Y-36411D03*
X47153Y-36411D03*
X47408Y-36411D03*
X47663Y-36411D03*
X47923Y-36411D03*
X48178Y-36411D03*
X48433Y-36411D03*
X48688Y-36411D03*
X48948Y-36411D03*
X49203Y-36411D03*
X49458Y-36411D03*
X49713Y-36411D03*
X49973Y-36411D03*
X50228Y-36411D03*
X50483Y-36411D03*
X50738Y-36411D03*
X50993Y-36411D03*
X51253Y-36411D03*
X51508Y-36411D03*
X51763Y-36411D03*
X52018Y-36411D03*
X52273Y-36411D03*
G54D20*
X53143Y-35541D03*
X53143Y-35286D03*
X53143Y-35031D03*
X53143Y-34776D03*
X53143Y-34521D03*
X53143Y-34261D03*
X53143Y-34006D03*
X53143Y-33751D03*
X53143Y-33496D03*
X53143Y-33241D03*
X53143Y-32981D03*
X53143Y-32726D03*
X53143Y-32471D03*
X53143Y-32216D03*
X53143Y-31956D03*
X53143Y-31701D03*
X53143Y-31446D03*
X53143Y-31191D03*
X53143Y-30931D03*
X53143Y-30676D03*
X53143Y-30421D03*
X53143Y-30166D03*
X53143Y-29911D03*
X53143Y-29651D03*
X53143Y-29396D03*
X53143Y-29141D03*
X53143Y-28886D03*
X53143Y-28631D03*
G54D21*
X56496Y-37214D03*
X56496Y-38514D03*
G54D22*
X55318Y-33534D03*
X55568Y-33534D03*
X55828Y-33534D03*
X56088Y-33534D03*
X56338Y-33534D03*
X56598Y-33534D03*
X56858Y-33534D03*
X57108Y-33534D03*
X57368Y-33534D03*
X57618Y-33534D03*
X57878Y-33534D03*
X58138Y-33534D03*
X58388Y-33534D03*
X58648Y-33534D03*
X58648Y-30734D03*
X58388Y-30734D03*
X58148Y-30734D03*
X57878Y-30734D03*
X57618Y-30734D03*
X57368Y-30734D03*
X57108Y-30734D03*
X56858Y-30734D03*
X56598Y-30734D03*
X56338Y-30734D03*
X56088Y-30734D03*
X55828Y-30734D03*
X55568Y-30734D03*
X55318Y-30734D03*
G54D23*
X42939Y-25850D03*
G54D24*
X43989Y-25850D03*
X42989Y-26850D03*
X43939Y-26850D03*
X42939Y-27850D03*
X43989Y-27850D03*
G54D16*
X42480Y-24185D03*
G54D25*
X56062Y-24185D03*
X56062Y-39933D03*
G54D26*
X59602Y-33449D03*
X59602Y-32465D03*
X59602Y-31677D03*
X59602Y-30693D03*
G54D27*
X60441Y-34374D03*
X60441Y-29768D03*
G54D28*
X60441Y-31165D03*
X60441Y-32977D03*
G54D12*
X48342Y-40893D03*
G54D13*
X48342Y-39893D03*
X49342Y-40893D03*
X49342Y-39893D03*
X50342Y-40893D03*
X50342Y-39893D03*
X51342Y-40893D03*
X51342Y-39893D03*
G54D12*
X51342Y-23240D03*
G54D13*
X51342Y-24240D03*
X50342Y-23240D03*
X50342Y-24240D03*
X49342Y-23240D03*
X49342Y-24240D03*
X48342Y-23240D03*
X48342Y-24240D03*
G54D12*
X43578Y-39893D03*
G54D13*
X44578Y-39893D03*
X45578Y-39893D03*
X46578Y-39893D03*
G54D12*
X52881Y-26141D03*
G54D13*
X53881Y-26141D03*
X54881Y-26141D03*
X55881Y-26141D03*
G54D12*
X46578Y-23240D03*
G54D13*
X46578Y-24240D03*
X45578Y-23240D03*
X45578Y-24240D03*
X44578Y-23240D03*
X44578Y-24240D03*
X43578Y-23240D03*
X43578Y-24240D03*
G54D29*
X60834Y-28133D03*
X60834Y-36007D03*
M02*
