G04 #@! TF.FileFunction,Legend,Top*
%FSLAX46Y46*%
G04 Gerber Fmt 4.6, Leading zero omitted, Abs format (unit mm)*
G04 Created by KiCad (PCBNEW 4.0.2+dfsg1-stable) date Fri 18 May 2018 22:31:55 NZST*
%MOMM*%
G01*
G04 APERTURE LIST*
%ADD10C,0.150000*%
%ADD11C,0.170000*%
%ADD12C,0.127000*%
%ADD13C,0.203200*%
%ADD14C,0.177800*%
%ADD15C,0.190000*%
%ADD16C,0.152400*%
%ADD17C,0.304800*%
%ADD18C,0.050800*%
%ADD19C,0.025400*%
%ADD20C,0.101600*%
%ADD21C,0.066040*%
%ADD22C,0.254000*%
%ADD23C,0.031750*%
G04 APERTURE END LIST*
D10*
D11*
X139590476Y-75204524D02*
X140047619Y-75204524D01*
X139819048Y-76054524D02*
X139819048Y-75204524D01*
X140238096Y-75204524D02*
X140771429Y-76054524D01*
X140771429Y-75204524D02*
X140238096Y-76054524D01*
X140066667Y-73514524D02*
X139800000Y-73109762D01*
X139609524Y-73514524D02*
X139609524Y-72664524D01*
X139914286Y-72664524D01*
X139990477Y-72705000D01*
X140028572Y-72745476D01*
X140066667Y-72826429D01*
X140066667Y-72947857D01*
X140028572Y-73028810D01*
X139990477Y-73069286D01*
X139914286Y-73109762D01*
X139609524Y-73109762D01*
X140333334Y-72664524D02*
X140866667Y-73514524D01*
X140866667Y-72664524D02*
X140333334Y-73514524D01*
X137285715Y-71353571D02*
X137247620Y-71394048D01*
X137133334Y-71434524D01*
X137057144Y-71434524D01*
X136942858Y-71394048D01*
X136866667Y-71313095D01*
X136828572Y-71232143D01*
X136790477Y-71070238D01*
X136790477Y-70948810D01*
X136828572Y-70786905D01*
X136866667Y-70705952D01*
X136942858Y-70625000D01*
X137057144Y-70584524D01*
X137133334Y-70584524D01*
X137247620Y-70625000D01*
X137285715Y-70665476D01*
X137590477Y-71191667D02*
X137971429Y-71191667D01*
X137514286Y-71434524D02*
X137780953Y-70584524D01*
X138047620Y-71434524D01*
X138314286Y-71434524D02*
X138314286Y-70584524D01*
X138771429Y-71434524D01*
X138771429Y-70584524D01*
D12*
X109903809Y-63937262D02*
X109903809Y-63302262D01*
X110145714Y-63302262D01*
X110206190Y-63332500D01*
X110236429Y-63362738D01*
X110266667Y-63423214D01*
X110266667Y-63513929D01*
X110236429Y-63574405D01*
X110206190Y-63604643D01*
X110145714Y-63634881D01*
X109903809Y-63634881D01*
X110750476Y-63604643D02*
X110841190Y-63634881D01*
X110871429Y-63665119D01*
X110901667Y-63725595D01*
X110901667Y-63816310D01*
X110871429Y-63876786D01*
X110841190Y-63907024D01*
X110780714Y-63937262D01*
X110538809Y-63937262D01*
X110538809Y-63302262D01*
X110750476Y-63302262D01*
X110810952Y-63332500D01*
X110841190Y-63362738D01*
X110871429Y-63423214D01*
X110871429Y-63483690D01*
X110841190Y-63544167D01*
X110810952Y-63574405D01*
X110750476Y-63604643D01*
X110538809Y-63604643D01*
X111113333Y-63302262D02*
X111536667Y-63302262D01*
X111264524Y-63937262D01*
X112443809Y-63937262D02*
X112443809Y-63302262D01*
X112685714Y-63302262D01*
X112746190Y-63332500D01*
X112776429Y-63362738D01*
X112806667Y-63423214D01*
X112806667Y-63513929D01*
X112776429Y-63574405D01*
X112746190Y-63604643D01*
X112685714Y-63634881D01*
X112443809Y-63634881D01*
X113290476Y-63604643D02*
X113381190Y-63634881D01*
X113411429Y-63665119D01*
X113441667Y-63725595D01*
X113441667Y-63816310D01*
X113411429Y-63876786D01*
X113381190Y-63907024D01*
X113320714Y-63937262D01*
X113078809Y-63937262D01*
X113078809Y-63302262D01*
X113290476Y-63302262D01*
X113350952Y-63332500D01*
X113381190Y-63362738D01*
X113411429Y-63423214D01*
X113411429Y-63483690D01*
X113381190Y-63544167D01*
X113350952Y-63574405D01*
X113290476Y-63604643D01*
X113078809Y-63604643D01*
X114016190Y-63302262D02*
X113713809Y-63302262D01*
X113683571Y-63604643D01*
X113713809Y-63574405D01*
X113774286Y-63544167D01*
X113925476Y-63544167D01*
X113985952Y-63574405D01*
X114016190Y-63604643D01*
X114046429Y-63665119D01*
X114046429Y-63816310D01*
X114016190Y-63876786D01*
X113985952Y-63907024D01*
X113925476Y-63937262D01*
X113774286Y-63937262D01*
X113713809Y-63907024D01*
X113683571Y-63876786D01*
X114983809Y-63937262D02*
X114983809Y-63302262D01*
X115225714Y-63302262D01*
X115286190Y-63332500D01*
X115316429Y-63362738D01*
X115346667Y-63423214D01*
X115346667Y-63513929D01*
X115316429Y-63574405D01*
X115286190Y-63604643D01*
X115225714Y-63634881D01*
X114983809Y-63634881D01*
X115830476Y-63604643D02*
X115921190Y-63634881D01*
X115951429Y-63665119D01*
X115981667Y-63725595D01*
X115981667Y-63816310D01*
X115951429Y-63876786D01*
X115921190Y-63907024D01*
X115860714Y-63937262D01*
X115618809Y-63937262D01*
X115618809Y-63302262D01*
X115830476Y-63302262D01*
X115890952Y-63332500D01*
X115921190Y-63362738D01*
X115951429Y-63423214D01*
X115951429Y-63483690D01*
X115921190Y-63544167D01*
X115890952Y-63574405D01*
X115830476Y-63604643D01*
X115618809Y-63604643D01*
X116193333Y-63302262D02*
X116586429Y-63302262D01*
X116374762Y-63544167D01*
X116465476Y-63544167D01*
X116525952Y-63574405D01*
X116556190Y-63604643D01*
X116586429Y-63665119D01*
X116586429Y-63816310D01*
X116556190Y-63876786D01*
X116525952Y-63907024D01*
X116465476Y-63937262D01*
X116284048Y-63937262D01*
X116223571Y-63907024D01*
X116193333Y-63876786D01*
X117523809Y-63937262D02*
X117523809Y-63302262D01*
X117765714Y-63302262D01*
X117826190Y-63332500D01*
X117856429Y-63362738D01*
X117886667Y-63423214D01*
X117886667Y-63513929D01*
X117856429Y-63574405D01*
X117826190Y-63604643D01*
X117765714Y-63634881D01*
X117523809Y-63634881D01*
X118370476Y-63604643D02*
X118461190Y-63634881D01*
X118491429Y-63665119D01*
X118521667Y-63725595D01*
X118521667Y-63816310D01*
X118491429Y-63876786D01*
X118461190Y-63907024D01*
X118400714Y-63937262D01*
X118158809Y-63937262D01*
X118158809Y-63302262D01*
X118370476Y-63302262D01*
X118430952Y-63332500D01*
X118461190Y-63362738D01*
X118491429Y-63423214D01*
X118491429Y-63483690D01*
X118461190Y-63544167D01*
X118430952Y-63574405D01*
X118370476Y-63604643D01*
X118158809Y-63604643D01*
X119126429Y-63937262D02*
X118763571Y-63937262D01*
X118945000Y-63937262D02*
X118945000Y-63302262D01*
X118884524Y-63392976D01*
X118824048Y-63453452D01*
X118763571Y-63483690D01*
X109903809Y-57387262D02*
X109903809Y-56752262D01*
X110145714Y-56752262D01*
X110206190Y-56782500D01*
X110236429Y-56812738D01*
X110266667Y-56873214D01*
X110266667Y-56963929D01*
X110236429Y-57024405D01*
X110206190Y-57054643D01*
X110145714Y-57084881D01*
X109903809Y-57084881D01*
X110750476Y-57054643D02*
X110841190Y-57084881D01*
X110871429Y-57115119D01*
X110901667Y-57175595D01*
X110901667Y-57266310D01*
X110871429Y-57326786D01*
X110841190Y-57357024D01*
X110780714Y-57387262D01*
X110538809Y-57387262D01*
X110538809Y-56752262D01*
X110750476Y-56752262D01*
X110810952Y-56782500D01*
X110841190Y-56812738D01*
X110871429Y-56873214D01*
X110871429Y-56933690D01*
X110841190Y-56994167D01*
X110810952Y-57024405D01*
X110750476Y-57054643D01*
X110538809Y-57054643D01*
X111445952Y-56752262D02*
X111325000Y-56752262D01*
X111264524Y-56782500D01*
X111234286Y-56812738D01*
X111173809Y-56903452D01*
X111143571Y-57024405D01*
X111143571Y-57266310D01*
X111173809Y-57326786D01*
X111204048Y-57357024D01*
X111264524Y-57387262D01*
X111385476Y-57387262D01*
X111445952Y-57357024D01*
X111476190Y-57326786D01*
X111506429Y-57266310D01*
X111506429Y-57115119D01*
X111476190Y-57054643D01*
X111445952Y-57024405D01*
X111385476Y-56994167D01*
X111264524Y-56994167D01*
X111204048Y-57024405D01*
X111173809Y-57054643D01*
X111143571Y-57115119D01*
X112443809Y-57387262D02*
X112443809Y-56752262D01*
X112685714Y-56752262D01*
X112746190Y-56782500D01*
X112776429Y-56812738D01*
X112806667Y-56873214D01*
X112806667Y-56963929D01*
X112776429Y-57024405D01*
X112746190Y-57054643D01*
X112685714Y-57084881D01*
X112443809Y-57084881D01*
X113290476Y-57054643D02*
X113381190Y-57084881D01*
X113411429Y-57115119D01*
X113441667Y-57175595D01*
X113441667Y-57266310D01*
X113411429Y-57326786D01*
X113381190Y-57357024D01*
X113320714Y-57387262D01*
X113078809Y-57387262D01*
X113078809Y-56752262D01*
X113290476Y-56752262D01*
X113350952Y-56782500D01*
X113381190Y-56812738D01*
X113411429Y-56873214D01*
X113411429Y-56933690D01*
X113381190Y-56994167D01*
X113350952Y-57024405D01*
X113290476Y-57054643D01*
X113078809Y-57054643D01*
X113985952Y-56963929D02*
X113985952Y-57387262D01*
X113834762Y-56722024D02*
X113683571Y-57175595D01*
X114076667Y-57175595D01*
X114983809Y-57387262D02*
X114983809Y-56752262D01*
X115225714Y-56752262D01*
X115286190Y-56782500D01*
X115316429Y-56812738D01*
X115346667Y-56873214D01*
X115346667Y-56963929D01*
X115316429Y-57024405D01*
X115286190Y-57054643D01*
X115225714Y-57084881D01*
X114983809Y-57084881D01*
X115830476Y-57054643D02*
X115921190Y-57084881D01*
X115951429Y-57115119D01*
X115981667Y-57175595D01*
X115981667Y-57266310D01*
X115951429Y-57326786D01*
X115921190Y-57357024D01*
X115860714Y-57387262D01*
X115618809Y-57387262D01*
X115618809Y-56752262D01*
X115830476Y-56752262D01*
X115890952Y-56782500D01*
X115921190Y-56812738D01*
X115951429Y-56873214D01*
X115951429Y-56933690D01*
X115921190Y-56994167D01*
X115890952Y-57024405D01*
X115830476Y-57054643D01*
X115618809Y-57054643D01*
X116223571Y-56812738D02*
X116253809Y-56782500D01*
X116314286Y-56752262D01*
X116465476Y-56752262D01*
X116525952Y-56782500D01*
X116556190Y-56812738D01*
X116586429Y-56873214D01*
X116586429Y-56933690D01*
X116556190Y-57024405D01*
X116193333Y-57387262D01*
X116586429Y-57387262D01*
X117523809Y-57387262D02*
X117523809Y-56752262D01*
X117765714Y-56752262D01*
X117826190Y-56782500D01*
X117856429Y-56812738D01*
X117886667Y-56873214D01*
X117886667Y-56963929D01*
X117856429Y-57024405D01*
X117826190Y-57054643D01*
X117765714Y-57084881D01*
X117523809Y-57084881D01*
X118370476Y-57054643D02*
X118461190Y-57084881D01*
X118491429Y-57115119D01*
X118521667Y-57175595D01*
X118521667Y-57266310D01*
X118491429Y-57326786D01*
X118461190Y-57357024D01*
X118400714Y-57387262D01*
X118158809Y-57387262D01*
X118158809Y-56752262D01*
X118370476Y-56752262D01*
X118430952Y-56782500D01*
X118461190Y-56812738D01*
X118491429Y-56873214D01*
X118491429Y-56933690D01*
X118461190Y-56994167D01*
X118430952Y-57024405D01*
X118370476Y-57054643D01*
X118158809Y-57054643D01*
X118914762Y-56752262D02*
X118975238Y-56752262D01*
X119035714Y-56782500D01*
X119065952Y-56812738D01*
X119096190Y-56873214D01*
X119126429Y-56994167D01*
X119126429Y-57145357D01*
X119096190Y-57266310D01*
X119065952Y-57326786D01*
X119035714Y-57357024D01*
X118975238Y-57387262D01*
X118914762Y-57387262D01*
X118854286Y-57357024D01*
X118824048Y-57326786D01*
X118793809Y-57266310D01*
X118763571Y-57145357D01*
X118763571Y-56994167D01*
X118793809Y-56873214D01*
X118824048Y-56812738D01*
X118854286Y-56782500D01*
X118914762Y-56752262D01*
D11*
X120884524Y-62052381D02*
X120034524Y-62052381D01*
X120034524Y-61747619D01*
X120075000Y-61671428D01*
X120115476Y-61633333D01*
X120196429Y-61595238D01*
X120317857Y-61595238D01*
X120398810Y-61633333D01*
X120439286Y-61671428D01*
X120479762Y-61747619D01*
X120479762Y-62052381D01*
X120884524Y-61138095D02*
X120844048Y-61214286D01*
X120803571Y-61252381D01*
X120722619Y-61290476D01*
X120479762Y-61290476D01*
X120398810Y-61252381D01*
X120358333Y-61214286D01*
X120317857Y-61138095D01*
X120317857Y-61023809D01*
X120358333Y-60947619D01*
X120398810Y-60909524D01*
X120479762Y-60871428D01*
X120722619Y-60871428D01*
X120803571Y-60909524D01*
X120844048Y-60947619D01*
X120884524Y-61023809D01*
X120884524Y-61138095D01*
X120884524Y-60528571D02*
X120317857Y-60528571D01*
X120479762Y-60528571D02*
X120398810Y-60490476D01*
X120358333Y-60452380D01*
X120317857Y-60376190D01*
X120317857Y-60299999D01*
X120317857Y-60147619D02*
X120317857Y-59842857D01*
X120034524Y-60033333D02*
X120763095Y-60033333D01*
X120844048Y-59995238D01*
X120884524Y-59919047D01*
X120884524Y-59842857D01*
X120439286Y-58699999D02*
X120479762Y-58585713D01*
X120520238Y-58547618D01*
X120601190Y-58509523D01*
X120722619Y-58509523D01*
X120803571Y-58547618D01*
X120844048Y-58585713D01*
X120884524Y-58661904D01*
X120884524Y-58966666D01*
X120034524Y-58966666D01*
X120034524Y-58699999D01*
X120075000Y-58623809D01*
X120115476Y-58585713D01*
X120196429Y-58547618D01*
X120277381Y-58547618D01*
X120358333Y-58585713D01*
X120398810Y-58623809D01*
X120439286Y-58699999D01*
X120439286Y-58966666D01*
D12*
X141143809Y-64787262D02*
X141143809Y-64152262D01*
X141385714Y-64152262D01*
X141446190Y-64182500D01*
X141476429Y-64212738D01*
X141506667Y-64273214D01*
X141506667Y-64363929D01*
X141476429Y-64424405D01*
X141446190Y-64454643D01*
X141385714Y-64484881D01*
X141143809Y-64484881D01*
X141778809Y-64787262D02*
X141778809Y-64152262D01*
X142020714Y-64152262D01*
X142081190Y-64182500D01*
X142111429Y-64212738D01*
X142141667Y-64273214D01*
X142141667Y-64363929D01*
X142111429Y-64424405D01*
X142081190Y-64454643D01*
X142020714Y-64484881D01*
X141778809Y-64484881D01*
X142353333Y-64152262D02*
X142746429Y-64152262D01*
X142534762Y-64394167D01*
X142625476Y-64394167D01*
X142685952Y-64424405D01*
X142716190Y-64454643D01*
X142746429Y-64515119D01*
X142746429Y-64666310D01*
X142716190Y-64726786D01*
X142685952Y-64757024D01*
X142625476Y-64787262D01*
X142444048Y-64787262D01*
X142383571Y-64757024D01*
X142353333Y-64726786D01*
X138603809Y-64787262D02*
X138603809Y-64152262D01*
X138845714Y-64152262D01*
X138906190Y-64182500D01*
X138936429Y-64212738D01*
X138966667Y-64273214D01*
X138966667Y-64363929D01*
X138936429Y-64424405D01*
X138906190Y-64454643D01*
X138845714Y-64484881D01*
X138603809Y-64484881D01*
X139238809Y-64787262D02*
X139238809Y-64152262D01*
X139480714Y-64152262D01*
X139541190Y-64182500D01*
X139571429Y-64212738D01*
X139601667Y-64273214D01*
X139601667Y-64363929D01*
X139571429Y-64424405D01*
X139541190Y-64454643D01*
X139480714Y-64484881D01*
X139238809Y-64484881D01*
X139843571Y-64212738D02*
X139873809Y-64182500D01*
X139934286Y-64152262D01*
X140085476Y-64152262D01*
X140145952Y-64182500D01*
X140176190Y-64212738D01*
X140206429Y-64273214D01*
X140206429Y-64333690D01*
X140176190Y-64424405D01*
X139813333Y-64787262D01*
X140206429Y-64787262D01*
X136073809Y-64787262D02*
X136073809Y-64152262D01*
X136315714Y-64152262D01*
X136376190Y-64182500D01*
X136406429Y-64212738D01*
X136436667Y-64273214D01*
X136436667Y-64363929D01*
X136406429Y-64424405D01*
X136376190Y-64454643D01*
X136315714Y-64484881D01*
X136073809Y-64484881D01*
X136708809Y-64787262D02*
X136708809Y-64152262D01*
X136950714Y-64152262D01*
X137011190Y-64182500D01*
X137041429Y-64212738D01*
X137071667Y-64273214D01*
X137071667Y-64363929D01*
X137041429Y-64424405D01*
X137011190Y-64454643D01*
X136950714Y-64484881D01*
X136708809Y-64484881D01*
X137676429Y-64787262D02*
X137313571Y-64787262D01*
X137495000Y-64787262D02*
X137495000Y-64152262D01*
X137434524Y-64242976D01*
X137374048Y-64303452D01*
X137313571Y-64333690D01*
X133533809Y-64787262D02*
X133533809Y-64152262D01*
X133775714Y-64152262D01*
X133836190Y-64182500D01*
X133866429Y-64212738D01*
X133896667Y-64273214D01*
X133896667Y-64363929D01*
X133866429Y-64424405D01*
X133836190Y-64454643D01*
X133775714Y-64484881D01*
X133533809Y-64484881D01*
X134168809Y-64787262D02*
X134168809Y-64152262D01*
X134410714Y-64152262D01*
X134471190Y-64182500D01*
X134501429Y-64212738D01*
X134531667Y-64273214D01*
X134531667Y-64363929D01*
X134501429Y-64424405D01*
X134471190Y-64454643D01*
X134410714Y-64484881D01*
X134168809Y-64484881D01*
X134924762Y-64152262D02*
X134985238Y-64152262D01*
X135045714Y-64182500D01*
X135075952Y-64212738D01*
X135106190Y-64273214D01*
X135136429Y-64394167D01*
X135136429Y-64545357D01*
X135106190Y-64666310D01*
X135075952Y-64726786D01*
X135045714Y-64757024D01*
X134985238Y-64787262D01*
X134924762Y-64787262D01*
X134864286Y-64757024D01*
X134834048Y-64726786D01*
X134803809Y-64666310D01*
X134773571Y-64545357D01*
X134773571Y-64394167D01*
X134803809Y-64273214D01*
X134834048Y-64212738D01*
X134864286Y-64182500D01*
X134924762Y-64152262D01*
D11*
X132574524Y-67752381D02*
X131724524Y-67752381D01*
X131724524Y-67447619D01*
X131765000Y-67371428D01*
X131805476Y-67333333D01*
X131886429Y-67295238D01*
X132007857Y-67295238D01*
X132088810Y-67333333D01*
X132129286Y-67371428D01*
X132169762Y-67447619D01*
X132169762Y-67752381D01*
X132574524Y-66838095D02*
X132534048Y-66914286D01*
X132493571Y-66952381D01*
X132412619Y-66990476D01*
X132169762Y-66990476D01*
X132088810Y-66952381D01*
X132048333Y-66914286D01*
X132007857Y-66838095D01*
X132007857Y-66723809D01*
X132048333Y-66647619D01*
X132088810Y-66609524D01*
X132169762Y-66571428D01*
X132412619Y-66571428D01*
X132493571Y-66609524D01*
X132534048Y-66647619D01*
X132574524Y-66723809D01*
X132574524Y-66838095D01*
X132574524Y-66228571D02*
X132007857Y-66228571D01*
X132169762Y-66228571D02*
X132088810Y-66190476D01*
X132048333Y-66152380D01*
X132007857Y-66076190D01*
X132007857Y-65999999D01*
X132007857Y-65847619D02*
X132007857Y-65542857D01*
X131724524Y-65733333D02*
X132453095Y-65733333D01*
X132534048Y-65695238D01*
X132574524Y-65619047D01*
X132574524Y-65542857D01*
X132574524Y-64666666D02*
X131724524Y-64666666D01*
X131724524Y-64361904D01*
X131765000Y-64285713D01*
X131805476Y-64247618D01*
X131886429Y-64209523D01*
X132007857Y-64209523D01*
X132088810Y-64247618D01*
X132129286Y-64285713D01*
X132169762Y-64361904D01*
X132169762Y-64666666D01*
X113871429Y-67350000D02*
X113823810Y-67464286D01*
X113776190Y-67502381D01*
X113680952Y-67540476D01*
X113538095Y-67540476D01*
X113442857Y-67502381D01*
X113395238Y-67464286D01*
X113347619Y-67388095D01*
X113347619Y-67083333D01*
X114347619Y-67083333D01*
X114347619Y-67350000D01*
X114300000Y-67426190D01*
X114252381Y-67464286D01*
X114157143Y-67502381D01*
X114061905Y-67502381D01*
X113966667Y-67464286D01*
X113919048Y-67426190D01*
X113871429Y-67350000D01*
X113871429Y-67083333D01*
X113347619Y-67883333D02*
X114347619Y-67883333D01*
X114347619Y-68073809D01*
X114300000Y-68188095D01*
X114204762Y-68264286D01*
X114109524Y-68302381D01*
X113919048Y-68340476D01*
X113776190Y-68340476D01*
X113585714Y-68302381D01*
X113490476Y-68264286D01*
X113395238Y-68188095D01*
X113347619Y-68073809D01*
X113347619Y-67883333D01*
X113347619Y-68683333D02*
X114347619Y-68683333D01*
X113633333Y-68950000D01*
X114347619Y-69216667D01*
X113347619Y-69216667D01*
X132984524Y-61957143D02*
X132134524Y-61957143D01*
X132134524Y-61652381D01*
X132175000Y-61576190D01*
X132215476Y-61538095D01*
X132296429Y-61500000D01*
X132417857Y-61500000D01*
X132498810Y-61538095D01*
X132539286Y-61576190D01*
X132579762Y-61652381D01*
X132579762Y-61957143D01*
X132984524Y-61042857D02*
X132944048Y-61119048D01*
X132903571Y-61157143D01*
X132822619Y-61195238D01*
X132579762Y-61195238D01*
X132498810Y-61157143D01*
X132458333Y-61119048D01*
X132417857Y-61042857D01*
X132417857Y-60928571D01*
X132458333Y-60852381D01*
X132498810Y-60814286D01*
X132579762Y-60776190D01*
X132822619Y-60776190D01*
X132903571Y-60814286D01*
X132944048Y-60852381D01*
X132984524Y-60928571D01*
X132984524Y-61042857D01*
X132984524Y-60433333D02*
X132417857Y-60433333D01*
X132579762Y-60433333D02*
X132498810Y-60395238D01*
X132458333Y-60357142D01*
X132417857Y-60280952D01*
X132417857Y-60204761D01*
X132417857Y-60052381D02*
X132417857Y-59747619D01*
X132134524Y-59938095D02*
X132863095Y-59938095D01*
X132944048Y-59900000D01*
X132984524Y-59823809D01*
X132984524Y-59747619D01*
X132134524Y-58985714D02*
X132134524Y-58528571D01*
X132984524Y-58757142D02*
X132134524Y-58757142D01*
D13*
X124140501Y-98419619D02*
X124140501Y-97403619D01*
X124479167Y-97403619D01*
X124563834Y-97452000D01*
X124606167Y-97500381D01*
X124648501Y-97597143D01*
X124648501Y-97742286D01*
X124606167Y-97839048D01*
X124563834Y-97887429D01*
X124479167Y-97935810D01*
X124140501Y-97935810D01*
X125156501Y-98419619D02*
X125071834Y-98371238D01*
X125029501Y-98322857D01*
X124987167Y-98226095D01*
X124987167Y-97935810D01*
X125029501Y-97839048D01*
X125071834Y-97790667D01*
X125156501Y-97742286D01*
X125283501Y-97742286D01*
X125368167Y-97790667D01*
X125410501Y-97839048D01*
X125452834Y-97935810D01*
X125452834Y-98226095D01*
X125410501Y-98322857D01*
X125368167Y-98371238D01*
X125283501Y-98419619D01*
X125156501Y-98419619D01*
X125833834Y-98419619D02*
X125833834Y-97742286D01*
X125833834Y-97935810D02*
X125876167Y-97839048D01*
X125918500Y-97790667D01*
X126003167Y-97742286D01*
X126087834Y-97742286D01*
X126257167Y-97742286D02*
X126595833Y-97742286D01*
X126384167Y-97403619D02*
X126384167Y-98274476D01*
X126426500Y-98371238D01*
X126511167Y-98419619D01*
X126595833Y-98419619D01*
X127527166Y-98129333D02*
X127950500Y-98129333D01*
X127442500Y-98419619D02*
X127738833Y-97403619D01*
X128035166Y-98419619D01*
X128331500Y-98419619D02*
X128331500Y-97403619D01*
X128839500Y-98419619D01*
X128839500Y-97403619D01*
D11*
X142607143Y-59640476D02*
X142178571Y-59907143D01*
X142607143Y-60097619D02*
X141707143Y-60097619D01*
X141707143Y-59792857D01*
X141750000Y-59716666D01*
X141792857Y-59678571D01*
X141878571Y-59640476D01*
X142007143Y-59640476D01*
X142092857Y-59678571D01*
X142135714Y-59716666D01*
X142178571Y-59792857D01*
X142178571Y-60097619D01*
X142564286Y-58992857D02*
X142607143Y-59069047D01*
X142607143Y-59221428D01*
X142564286Y-59297619D01*
X142478571Y-59335714D01*
X142135714Y-59335714D01*
X142050000Y-59297619D01*
X142007143Y-59221428D01*
X142007143Y-59069047D01*
X142050000Y-58992857D01*
X142135714Y-58954762D01*
X142221429Y-58954762D01*
X142307143Y-59335714D01*
X142564286Y-58650000D02*
X142607143Y-58573810D01*
X142607143Y-58421429D01*
X142564286Y-58345238D01*
X142478571Y-58307143D01*
X142435714Y-58307143D01*
X142350000Y-58345238D01*
X142307143Y-58421429D01*
X142307143Y-58535714D01*
X142264286Y-58611905D01*
X142178571Y-58650000D01*
X142135714Y-58650000D01*
X142050000Y-58611905D01*
X142007143Y-58535714D01*
X142007143Y-58421429D01*
X142050000Y-58345238D01*
X142564286Y-57659524D02*
X142607143Y-57735714D01*
X142607143Y-57888095D01*
X142564286Y-57964286D01*
X142478571Y-58002381D01*
X142135714Y-58002381D01*
X142050000Y-57964286D01*
X142007143Y-57888095D01*
X142007143Y-57735714D01*
X142050000Y-57659524D01*
X142135714Y-57621429D01*
X142221429Y-57621429D01*
X142307143Y-58002381D01*
X142007143Y-57392858D02*
X142007143Y-57088096D01*
X141707143Y-57278572D02*
X142478571Y-57278572D01*
X142564286Y-57240477D01*
X142607143Y-57164286D01*
X142607143Y-57088096D01*
X142607143Y-105208095D02*
X142607143Y-105589048D01*
X141707143Y-105589048D01*
X142607143Y-104827143D02*
X142564286Y-104903334D01*
X142521429Y-104941429D01*
X142435714Y-104979524D01*
X142178571Y-104979524D01*
X142092857Y-104941429D01*
X142050000Y-104903334D01*
X142007143Y-104827143D01*
X142007143Y-104712857D01*
X142050000Y-104636667D01*
X142092857Y-104598572D01*
X142178571Y-104560476D01*
X142435714Y-104560476D01*
X142521429Y-104598572D01*
X142564286Y-104636667D01*
X142607143Y-104712857D01*
X142607143Y-104827143D01*
X142607143Y-103874762D02*
X142135714Y-103874762D01*
X142050000Y-103912857D01*
X142007143Y-103989047D01*
X142007143Y-104141428D01*
X142050000Y-104217619D01*
X142564286Y-103874762D02*
X142607143Y-103950952D01*
X142607143Y-104141428D01*
X142564286Y-104217619D01*
X142478571Y-104255714D01*
X142392857Y-104255714D01*
X142307143Y-104217619D01*
X142264286Y-104141428D01*
X142264286Y-103950952D01*
X142221429Y-103874762D01*
X142607143Y-103150952D02*
X141707143Y-103150952D01*
X142564286Y-103150952D02*
X142607143Y-103227142D01*
X142607143Y-103379523D01*
X142564286Y-103455714D01*
X142521429Y-103493809D01*
X142435714Y-103531904D01*
X142178571Y-103531904D01*
X142092857Y-103493809D01*
X142050000Y-103455714D01*
X142007143Y-103379523D01*
X142007143Y-103227142D01*
X142050000Y-103150952D01*
D12*
X109933809Y-103817262D02*
X109933809Y-103182262D01*
X110175714Y-103182262D01*
X110236190Y-103212500D01*
X110266429Y-103242738D01*
X110296667Y-103303214D01*
X110296667Y-103393929D01*
X110266429Y-103454405D01*
X110236190Y-103484643D01*
X110175714Y-103514881D01*
X109933809Y-103514881D01*
X110568809Y-103817262D02*
X110568809Y-103182262D01*
X110931667Y-103817262D02*
X110659524Y-103454405D01*
X110931667Y-103182262D02*
X110568809Y-103545119D01*
X111475952Y-103393929D02*
X111475952Y-103817262D01*
X111324762Y-103152024D02*
X111173571Y-103605595D01*
X111566667Y-103605595D01*
X112686191Y-103202500D02*
X112625714Y-103172262D01*
X112535000Y-103172262D01*
X112444286Y-103202500D01*
X112383810Y-103262976D01*
X112353571Y-103323452D01*
X112323333Y-103444405D01*
X112323333Y-103535119D01*
X112353571Y-103656071D01*
X112383810Y-103716548D01*
X112444286Y-103777024D01*
X112535000Y-103807262D01*
X112595476Y-103807262D01*
X112686191Y-103777024D01*
X112716429Y-103746786D01*
X112716429Y-103535119D01*
X112595476Y-103535119D01*
X112988571Y-103807262D02*
X112988571Y-103172262D01*
X113351429Y-103807262D01*
X113351429Y-103172262D01*
X113653809Y-103807262D02*
X113653809Y-103172262D01*
X113805000Y-103172262D01*
X113895714Y-103202500D01*
X113956190Y-103262976D01*
X113986429Y-103323452D01*
X114016667Y-103444405D01*
X114016667Y-103535119D01*
X113986429Y-103656071D01*
X113956190Y-103716548D01*
X113895714Y-103777024D01*
X113805000Y-103807262D01*
X113653809Y-103807262D01*
X144326217Y-62104441D02*
X144005494Y-62425164D01*
X143919967Y-62467928D01*
X143834441Y-62467928D01*
X143748914Y-62425164D01*
X143706151Y-62382401D01*
X144475888Y-62339638D02*
X144518651Y-62339638D01*
X144582796Y-62361020D01*
X144689704Y-62467928D01*
X144711085Y-62532072D01*
X144711085Y-62574835D01*
X144689704Y-62638980D01*
X144646941Y-62681743D01*
X144561414Y-62724506D01*
X144048257Y-62724506D01*
X144326217Y-63002467D01*
X115296429Y-103218786D02*
X115266191Y-103249024D01*
X115175476Y-103279262D01*
X115115000Y-103279262D01*
X115024286Y-103249024D01*
X114963810Y-103188548D01*
X114933571Y-103128071D01*
X114903333Y-103007119D01*
X114903333Y-102916405D01*
X114933571Y-102795452D01*
X114963810Y-102734976D01*
X115024286Y-102674500D01*
X115115000Y-102644262D01*
X115175476Y-102644262D01*
X115266191Y-102674500D01*
X115296429Y-102704738D01*
X115568571Y-103279262D02*
X115568571Y-102644262D01*
X115810476Y-102644262D01*
X115870952Y-102674500D01*
X115901191Y-102704738D01*
X115931429Y-102765214D01*
X115931429Y-102855929D01*
X115901191Y-102916405D01*
X115870952Y-102946643D01*
X115810476Y-102976881D01*
X115568571Y-102976881D01*
X116203571Y-102644262D02*
X116203571Y-103158310D01*
X116233810Y-103218786D01*
X116264048Y-103249024D01*
X116324524Y-103279262D01*
X116445476Y-103279262D01*
X116505952Y-103249024D01*
X116536191Y-103218786D01*
X116566429Y-103158310D01*
X116566429Y-102644262D01*
X114963809Y-104053357D02*
X115447619Y-104053357D01*
X115205714Y-104295262D02*
X115205714Y-103811452D01*
X116052380Y-103660262D02*
X115749999Y-103660262D01*
X115719761Y-103962643D01*
X115749999Y-103932405D01*
X115810476Y-103902167D01*
X115961666Y-103902167D01*
X116022142Y-103932405D01*
X116052380Y-103962643D01*
X116082619Y-104023119D01*
X116082619Y-104174310D01*
X116052380Y-104234786D01*
X116022142Y-104265024D01*
X115961666Y-104295262D01*
X115810476Y-104295262D01*
X115749999Y-104265024D01*
X115719761Y-104234786D01*
X116294285Y-103871929D02*
X116445476Y-104295262D01*
X116596666Y-103871929D01*
X122113809Y-106055833D02*
X122416190Y-106055833D01*
X122053333Y-106237262D02*
X122265000Y-105602262D01*
X122476667Y-106237262D01*
X122688333Y-106237262D02*
X122688333Y-105602262D01*
X123051191Y-106237262D01*
X123051191Y-105602262D01*
X123686191Y-106237262D02*
X123323333Y-106237262D01*
X123504762Y-106237262D02*
X123504762Y-105602262D01*
X123444286Y-105692976D01*
X123383810Y-105753452D01*
X123323333Y-105783690D01*
X124513809Y-106055833D02*
X124816190Y-106055833D01*
X124453333Y-106237262D02*
X124665000Y-105602262D01*
X124876667Y-106237262D01*
X125088333Y-106237262D02*
X125088333Y-105602262D01*
X125451191Y-106237262D01*
X125451191Y-105602262D01*
X125693095Y-105602262D02*
X126086191Y-105602262D01*
X125874524Y-105844167D01*
X125965238Y-105844167D01*
X126025714Y-105874405D01*
X126055952Y-105904643D01*
X126086191Y-105965119D01*
X126086191Y-106116310D01*
X126055952Y-106176786D01*
X126025714Y-106207024D01*
X125965238Y-106237262D01*
X125783810Y-106237262D01*
X125723333Y-106207024D01*
X125693095Y-106176786D01*
X127013809Y-106055833D02*
X127316190Y-106055833D01*
X126953333Y-106237262D02*
X127165000Y-105602262D01*
X127376667Y-106237262D01*
X127588333Y-106237262D02*
X127588333Y-105602262D01*
X127951191Y-106237262D01*
X127951191Y-105602262D01*
X128555952Y-105602262D02*
X128253571Y-105602262D01*
X128223333Y-105904643D01*
X128253571Y-105874405D01*
X128314048Y-105844167D01*
X128465238Y-105844167D01*
X128525714Y-105874405D01*
X128555952Y-105904643D01*
X128586191Y-105965119D01*
X128586191Y-106116310D01*
X128555952Y-106176786D01*
X128525714Y-106207024D01*
X128465238Y-106237262D01*
X128314048Y-106237262D01*
X128253571Y-106207024D01*
X128223333Y-106176786D01*
X129613809Y-106055833D02*
X129916190Y-106055833D01*
X129553333Y-106237262D02*
X129765000Y-105602262D01*
X129976667Y-106237262D01*
X130188333Y-106237262D02*
X130188333Y-105602262D01*
X130551191Y-106237262D01*
X130551191Y-105602262D01*
X130793095Y-105602262D02*
X131216429Y-105602262D01*
X130944286Y-106237262D01*
X117729166Y-103807262D02*
X117729166Y-103172262D01*
X117971071Y-103172262D01*
X118031547Y-103202500D01*
X118061786Y-103232738D01*
X118092024Y-103293214D01*
X118092024Y-103383929D01*
X118061786Y-103444405D01*
X118031547Y-103474643D01*
X117971071Y-103504881D01*
X117729166Y-103504881D01*
X118333928Y-103625833D02*
X118636309Y-103625833D01*
X118273452Y-103807262D02*
X118485119Y-103172262D01*
X118696786Y-103807262D01*
X118847976Y-103172262D02*
X119271310Y-103172262D01*
X118999167Y-103807262D01*
X129689404Y-63937262D02*
X129689404Y-63302262D01*
X129931309Y-63302262D01*
X129991785Y-63332500D01*
X130022024Y-63362738D01*
X130052262Y-63423214D01*
X130052262Y-63513929D01*
X130022024Y-63574405D01*
X129991785Y-63604643D01*
X129931309Y-63634881D01*
X129689404Y-63634881D01*
X130233690Y-63302262D02*
X130596547Y-63302262D01*
X130415119Y-63937262D02*
X130415119Y-63302262D01*
X131140834Y-63937262D02*
X130777976Y-63937262D01*
X130959405Y-63937262D02*
X130959405Y-63302262D01*
X130898929Y-63392976D01*
X130838453Y-63453452D01*
X130777976Y-63483690D01*
X127089404Y-63937262D02*
X127089404Y-63302262D01*
X127331309Y-63302262D01*
X127391785Y-63332500D01*
X127422024Y-63362738D01*
X127452262Y-63423214D01*
X127452262Y-63513929D01*
X127422024Y-63574405D01*
X127391785Y-63604643D01*
X127331309Y-63634881D01*
X127089404Y-63634881D01*
X127633690Y-63302262D02*
X127996547Y-63302262D01*
X127815119Y-63937262D02*
X127815119Y-63302262D01*
X128147738Y-63302262D02*
X128540834Y-63302262D01*
X128329167Y-63544167D01*
X128419881Y-63544167D01*
X128480357Y-63574405D01*
X128510595Y-63604643D01*
X128540834Y-63665119D01*
X128540834Y-63816310D01*
X128510595Y-63876786D01*
X128480357Y-63907024D01*
X128419881Y-63937262D01*
X128238453Y-63937262D01*
X128177976Y-63907024D01*
X128147738Y-63876786D01*
X129689404Y-57387262D02*
X129689404Y-56752262D01*
X129931309Y-56752262D01*
X129991785Y-56782500D01*
X130022024Y-56812738D01*
X130052262Y-56873214D01*
X130052262Y-56963929D01*
X130022024Y-57024405D01*
X129991785Y-57054643D01*
X129931309Y-57084881D01*
X129689404Y-57084881D01*
X130233690Y-56752262D02*
X130596547Y-56752262D01*
X130415119Y-57387262D02*
X130415119Y-56752262D01*
X130929167Y-56752262D02*
X130989643Y-56752262D01*
X131050119Y-56782500D01*
X131080357Y-56812738D01*
X131110595Y-56873214D01*
X131140834Y-56994167D01*
X131140834Y-57145357D01*
X131110595Y-57266310D01*
X131080357Y-57326786D01*
X131050119Y-57357024D01*
X130989643Y-57387262D01*
X130929167Y-57387262D01*
X130868691Y-57357024D01*
X130838453Y-57326786D01*
X130808214Y-57266310D01*
X130777976Y-57145357D01*
X130777976Y-56994167D01*
X130808214Y-56873214D01*
X130838453Y-56812738D01*
X130868691Y-56782500D01*
X130929167Y-56752262D01*
X127089404Y-57387262D02*
X127089404Y-56752262D01*
X127331309Y-56752262D01*
X127391785Y-56782500D01*
X127422024Y-56812738D01*
X127452262Y-56873214D01*
X127452262Y-56963929D01*
X127422024Y-57024405D01*
X127391785Y-57054643D01*
X127331309Y-57084881D01*
X127089404Y-57084881D01*
X127633690Y-56752262D02*
X127996547Y-56752262D01*
X127815119Y-57387262D02*
X127815119Y-56752262D01*
X128177976Y-56812738D02*
X128208214Y-56782500D01*
X128268691Y-56752262D01*
X128419881Y-56752262D01*
X128480357Y-56782500D01*
X128510595Y-56812738D01*
X128540834Y-56873214D01*
X128540834Y-56933690D01*
X128510595Y-57024405D01*
X128147738Y-57387262D01*
X128540834Y-57387262D01*
X122113809Y-99455833D02*
X122416190Y-99455833D01*
X122053333Y-99637262D02*
X122265000Y-99002262D01*
X122476667Y-99637262D01*
X122688333Y-99637262D02*
X122688333Y-99002262D01*
X123051191Y-99637262D01*
X123051191Y-99002262D01*
X123474524Y-99002262D02*
X123535000Y-99002262D01*
X123595476Y-99032500D01*
X123625714Y-99062738D01*
X123655952Y-99123214D01*
X123686191Y-99244167D01*
X123686191Y-99395357D01*
X123655952Y-99516310D01*
X123625714Y-99576786D01*
X123595476Y-99607024D01*
X123535000Y-99637262D01*
X123474524Y-99637262D01*
X123414048Y-99607024D01*
X123383810Y-99576786D01*
X123353571Y-99516310D01*
X123323333Y-99395357D01*
X123323333Y-99244167D01*
X123353571Y-99123214D01*
X123383810Y-99062738D01*
X123414048Y-99032500D01*
X123474524Y-99002262D01*
X124513809Y-99455833D02*
X124816190Y-99455833D01*
X124453333Y-99637262D02*
X124665000Y-99002262D01*
X124876667Y-99637262D01*
X125088333Y-99637262D02*
X125088333Y-99002262D01*
X125451191Y-99637262D01*
X125451191Y-99002262D01*
X125723333Y-99062738D02*
X125753571Y-99032500D01*
X125814048Y-99002262D01*
X125965238Y-99002262D01*
X126025714Y-99032500D01*
X126055952Y-99062738D01*
X126086191Y-99123214D01*
X126086191Y-99183690D01*
X126055952Y-99274405D01*
X125693095Y-99637262D01*
X126086191Y-99637262D01*
X127013809Y-99455833D02*
X127316190Y-99455833D01*
X126953333Y-99637262D02*
X127165000Y-99002262D01*
X127376667Y-99637262D01*
X127588333Y-99637262D02*
X127588333Y-99002262D01*
X127951191Y-99637262D01*
X127951191Y-99002262D01*
X128525714Y-99213929D02*
X128525714Y-99637262D01*
X128374524Y-98972024D02*
X128223333Y-99425595D01*
X128616429Y-99425595D01*
X129613809Y-99455833D02*
X129916190Y-99455833D01*
X129553333Y-99637262D02*
X129765000Y-99002262D01*
X129976667Y-99637262D01*
X130188333Y-99637262D02*
X130188333Y-99002262D01*
X130551191Y-99637262D01*
X130551191Y-99002262D01*
X131125714Y-99002262D02*
X131004762Y-99002262D01*
X130944286Y-99032500D01*
X130914048Y-99062738D01*
X130853571Y-99153452D01*
X130823333Y-99274405D01*
X130823333Y-99516310D01*
X130853571Y-99576786D01*
X130883810Y-99607024D01*
X130944286Y-99637262D01*
X131065238Y-99637262D01*
X131125714Y-99607024D01*
X131155952Y-99576786D01*
X131186191Y-99516310D01*
X131186191Y-99365119D01*
X131155952Y-99304643D01*
X131125714Y-99274405D01*
X131065238Y-99244167D01*
X130944286Y-99244167D01*
X130883810Y-99274405D01*
X130853571Y-99304643D01*
X130823333Y-99365119D01*
X124489404Y-57387262D02*
X124489404Y-56752262D01*
X124731309Y-56752262D01*
X124791785Y-56782500D01*
X124822024Y-56812738D01*
X124852262Y-56873214D01*
X124852262Y-56963929D01*
X124822024Y-57024405D01*
X124791785Y-57054643D01*
X124731309Y-57084881D01*
X124489404Y-57084881D01*
X125033690Y-56752262D02*
X125396547Y-56752262D01*
X125215119Y-57387262D02*
X125215119Y-56752262D01*
X125880357Y-56963929D02*
X125880357Y-57387262D01*
X125729167Y-56722024D02*
X125577976Y-57175595D01*
X125971072Y-57175595D01*
X122089404Y-57387262D02*
X122089404Y-56752262D01*
X122331309Y-56752262D01*
X122391785Y-56782500D01*
X122422024Y-56812738D01*
X122452262Y-56873214D01*
X122452262Y-56963929D01*
X122422024Y-57024405D01*
X122391785Y-57054643D01*
X122331309Y-57084881D01*
X122089404Y-57084881D01*
X122633690Y-56752262D02*
X122996547Y-56752262D01*
X122815119Y-57387262D02*
X122815119Y-56752262D01*
X123480357Y-56752262D02*
X123359405Y-56752262D01*
X123298929Y-56782500D01*
X123268691Y-56812738D01*
X123208214Y-56903452D01*
X123177976Y-57024405D01*
X123177976Y-57266310D01*
X123208214Y-57326786D01*
X123238453Y-57357024D01*
X123298929Y-57387262D01*
X123419881Y-57387262D01*
X123480357Y-57357024D01*
X123510595Y-57326786D01*
X123540834Y-57266310D01*
X123540834Y-57115119D01*
X123510595Y-57054643D01*
X123480357Y-57024405D01*
X123419881Y-56994167D01*
X123298929Y-56994167D01*
X123238453Y-57024405D01*
X123208214Y-57054643D01*
X123177976Y-57115119D01*
X124489404Y-63937262D02*
X124489404Y-63302262D01*
X124731309Y-63302262D01*
X124791785Y-63332500D01*
X124822024Y-63362738D01*
X124852262Y-63423214D01*
X124852262Y-63513929D01*
X124822024Y-63574405D01*
X124791785Y-63604643D01*
X124731309Y-63634881D01*
X124489404Y-63634881D01*
X125033690Y-63302262D02*
X125396547Y-63302262D01*
X125215119Y-63937262D02*
X125215119Y-63302262D01*
X125910595Y-63302262D02*
X125608214Y-63302262D01*
X125577976Y-63604643D01*
X125608214Y-63574405D01*
X125668691Y-63544167D01*
X125819881Y-63544167D01*
X125880357Y-63574405D01*
X125910595Y-63604643D01*
X125940834Y-63665119D01*
X125940834Y-63816310D01*
X125910595Y-63876786D01*
X125880357Y-63907024D01*
X125819881Y-63937262D01*
X125668691Y-63937262D01*
X125608214Y-63907024D01*
X125577976Y-63876786D01*
X122089404Y-63937262D02*
X122089404Y-63302262D01*
X122331309Y-63302262D01*
X122391785Y-63332500D01*
X122422024Y-63362738D01*
X122452262Y-63423214D01*
X122452262Y-63513929D01*
X122422024Y-63574405D01*
X122391785Y-63604643D01*
X122331309Y-63634881D01*
X122089404Y-63634881D01*
X122633690Y-63302262D02*
X122996547Y-63302262D01*
X122815119Y-63937262D02*
X122815119Y-63302262D01*
X123147738Y-63302262D02*
X123571072Y-63302262D01*
X123298929Y-63937262D01*
D14*
X142121467Y-71130039D02*
X141782801Y-70646230D01*
X141540896Y-71130039D02*
X141540896Y-70114039D01*
X141927943Y-70114039D01*
X142024705Y-70162420D01*
X142073086Y-70210801D01*
X142121467Y-70307563D01*
X142121467Y-70452706D01*
X142073086Y-70549468D01*
X142024705Y-70597849D01*
X141927943Y-70646230D01*
X141540896Y-70646230D01*
X142460134Y-70114039D02*
X143137467Y-71130039D01*
X143137467Y-70114039D02*
X142460134Y-71130039D01*
X144074485Y-70154679D02*
X144655056Y-70154679D01*
X144364771Y-71170679D02*
X144364771Y-70154679D01*
X144896961Y-70154679D02*
X145574294Y-71170679D01*
X145574294Y-70154679D02*
X144896961Y-71170679D01*
D15*
X147902857Y-93866381D02*
X147951238Y-93914762D01*
X147999619Y-94059905D01*
X147999619Y-94156667D01*
X147951238Y-94301809D01*
X147854476Y-94398571D01*
X147757714Y-94446952D01*
X147564190Y-94495333D01*
X147419048Y-94495333D01*
X147225524Y-94446952D01*
X147128762Y-94398571D01*
X147032000Y-94301809D01*
X146983619Y-94156667D01*
X146983619Y-94059905D01*
X147032000Y-93914762D01*
X147080381Y-93866381D01*
X147467429Y-93430952D02*
X147467429Y-93092286D01*
X147999619Y-92947143D02*
X147999619Y-93430952D01*
X146983619Y-93430952D01*
X146983619Y-92947143D01*
X147999619Y-92027905D02*
X147999619Y-92511714D01*
X146983619Y-92511714D01*
D12*
X155012934Y-83359897D02*
X155629791Y-83359897D01*
X155702363Y-83323612D01*
X155738649Y-83287326D01*
X155774934Y-83214755D01*
X155774934Y-83069612D01*
X155738649Y-82997040D01*
X155702363Y-82960755D01*
X155629791Y-82924469D01*
X155012934Y-82924469D01*
X155738649Y-82597897D02*
X155774934Y-82489040D01*
X155774934Y-82307611D01*
X155738649Y-82235040D01*
X155702363Y-82198754D01*
X155629791Y-82162469D01*
X155557220Y-82162469D01*
X155484649Y-82198754D01*
X155448363Y-82235040D01*
X155412077Y-82307611D01*
X155375791Y-82452754D01*
X155339506Y-82525326D01*
X155303220Y-82561611D01*
X155230649Y-82597897D01*
X155158077Y-82597897D01*
X155085506Y-82561611D01*
X155049220Y-82525326D01*
X155012934Y-82452754D01*
X155012934Y-82271326D01*
X155049220Y-82162469D01*
X155375791Y-81581897D02*
X155412077Y-81473040D01*
X155448363Y-81436755D01*
X155520934Y-81400469D01*
X155629791Y-81400469D01*
X155702363Y-81436755D01*
X155738649Y-81473040D01*
X155774934Y-81545612D01*
X155774934Y-81835897D01*
X155012934Y-81835897D01*
X155012934Y-81581897D01*
X155049220Y-81509326D01*
X155085506Y-81473040D01*
X155158077Y-81436755D01*
X155230649Y-81436755D01*
X155303220Y-81473040D01*
X155339506Y-81509326D01*
X155375791Y-81581897D01*
X155375791Y-81835897D01*
X155484649Y-81073897D02*
X155484649Y-80493326D01*
X155557220Y-80166754D02*
X155557220Y-79803897D01*
X155774934Y-80239326D02*
X155012934Y-79985326D01*
X155774934Y-79731326D01*
D16*
X150248620Y-74510900D02*
X150248620Y-88409780D01*
X156349700Y-88409780D02*
X156349700Y-74510900D01*
X153520140Y-88409780D02*
X156349700Y-88409780D01*
X153509980Y-88409780D02*
X150248620Y-88409780D01*
X153520140Y-74510900D02*
X156349700Y-74510900D01*
X153520140Y-74510900D02*
X150248620Y-74510900D01*
D12*
X149211574Y-75544679D02*
X149755860Y-75544679D01*
X149864717Y-75580965D01*
X149937289Y-75653536D01*
X149973574Y-75762393D01*
X149973574Y-75834965D01*
X149973574Y-74782680D02*
X149973574Y-75218108D01*
X149973574Y-75000394D02*
X149211574Y-75000394D01*
X149320431Y-75072965D01*
X149393003Y-75145537D01*
X149429289Y-75218108D01*
D16*
X145900140Y-75318620D02*
X145900140Y-75311000D01*
X145409920Y-75318620D02*
X145900140Y-75318620D01*
X143108680Y-75328780D02*
X143908780Y-75328780D01*
X141630400Y-75338940D02*
X141170660Y-75338940D01*
X150933680Y-93680020D02*
X151355320Y-93680020D01*
X148225380Y-93690020D02*
X148334600Y-93690020D01*
X148625060Y-93690020D02*
X148355820Y-93690020D01*
X139986294Y-85503294D02*
X139550866Y-85503294D01*
X139768580Y-85503294D02*
X139768580Y-84741294D01*
X139696009Y-84850151D01*
X139623437Y-84922723D01*
X139550866Y-84959009D01*
D12*
X110637262Y-69076190D02*
X110334881Y-69287857D01*
X110637262Y-69439048D02*
X110002262Y-69439048D01*
X110002262Y-69197143D01*
X110032500Y-69136667D01*
X110062738Y-69106428D01*
X110123214Y-69076190D01*
X110213929Y-69076190D01*
X110274405Y-69106428D01*
X110304643Y-69136667D01*
X110334881Y-69197143D01*
X110334881Y-69439048D01*
X110607024Y-68562143D02*
X110637262Y-68622619D01*
X110637262Y-68743571D01*
X110607024Y-68804048D01*
X110546548Y-68834286D01*
X110304643Y-68834286D01*
X110244167Y-68804048D01*
X110213929Y-68743571D01*
X110213929Y-68622619D01*
X110244167Y-68562143D01*
X110304643Y-68531905D01*
X110365119Y-68531905D01*
X110425595Y-68834286D01*
X110607024Y-68290000D02*
X110637262Y-68229523D01*
X110637262Y-68108571D01*
X110607024Y-68048095D01*
X110546548Y-68017857D01*
X110516310Y-68017857D01*
X110455833Y-68048095D01*
X110425595Y-68108571D01*
X110425595Y-68199285D01*
X110395357Y-68259762D01*
X110334881Y-68290000D01*
X110304643Y-68290000D01*
X110244167Y-68259762D01*
X110213929Y-68199285D01*
X110213929Y-68108571D01*
X110244167Y-68048095D01*
X110607024Y-67503809D02*
X110637262Y-67564285D01*
X110637262Y-67685237D01*
X110607024Y-67745714D01*
X110546548Y-67775952D01*
X110304643Y-67775952D01*
X110244167Y-67745714D01*
X110213929Y-67685237D01*
X110213929Y-67564285D01*
X110244167Y-67503809D01*
X110304643Y-67473571D01*
X110365119Y-67473571D01*
X110425595Y-67775952D01*
X110213929Y-67292142D02*
X110213929Y-67050237D01*
X110002262Y-67201428D02*
X110546548Y-67201428D01*
X110607024Y-67171189D01*
X110637262Y-67110713D01*
X110637262Y-67050237D01*
X107274643Y-66397143D02*
X107304881Y-66306429D01*
X107335119Y-66276190D01*
X107395595Y-66245952D01*
X107486310Y-66245952D01*
X107546786Y-66276190D01*
X107577024Y-66306429D01*
X107607262Y-66366905D01*
X107607262Y-66608810D01*
X106972262Y-66608810D01*
X106972262Y-66397143D01*
X107002500Y-66336667D01*
X107032738Y-66306429D01*
X107093214Y-66276190D01*
X107153690Y-66276190D01*
X107214167Y-66306429D01*
X107244405Y-66336667D01*
X107274643Y-66397143D01*
X107274643Y-66608810D01*
X107607262Y-65973810D02*
X106972262Y-65973810D01*
X107607262Y-65610952D02*
X107244405Y-65883095D01*
X106972262Y-65610952D02*
X107335119Y-65973810D01*
X107002500Y-65006190D02*
X106972262Y-65066667D01*
X106972262Y-65157381D01*
X107002500Y-65248095D01*
X107062976Y-65308571D01*
X107123452Y-65338810D01*
X107244405Y-65369048D01*
X107335119Y-65369048D01*
X107456071Y-65338810D01*
X107516548Y-65308571D01*
X107577024Y-65248095D01*
X107607262Y-65157381D01*
X107607262Y-65096905D01*
X107577024Y-65006190D01*
X107546786Y-64975952D01*
X107335119Y-64975952D01*
X107335119Y-65096905D01*
X107607262Y-64703810D02*
X106972262Y-64703810D01*
X106972262Y-64552619D01*
X107002500Y-64461905D01*
X107062976Y-64401429D01*
X107123452Y-64371190D01*
X107244405Y-64340952D01*
X107335119Y-64340952D01*
X107456071Y-64371190D01*
X107516548Y-64401429D01*
X107577024Y-64461905D01*
X107607262Y-64552619D01*
X107607262Y-64703810D01*
X110152500Y-66093809D02*
X110122262Y-66154286D01*
X110122262Y-66245000D01*
X110152500Y-66335714D01*
X110212976Y-66396190D01*
X110273452Y-66426429D01*
X110394405Y-66456667D01*
X110485119Y-66456667D01*
X110606071Y-66426429D01*
X110666548Y-66396190D01*
X110727024Y-66335714D01*
X110757262Y-66245000D01*
X110757262Y-66184524D01*
X110727024Y-66093809D01*
X110696786Y-66063571D01*
X110485119Y-66063571D01*
X110485119Y-66184524D01*
X110757262Y-65791429D02*
X110122262Y-65791429D01*
X110757262Y-65428571D01*
X110122262Y-65428571D01*
X110757262Y-65126191D02*
X110122262Y-65126191D01*
X110122262Y-64975000D01*
X110152500Y-64884286D01*
X110212976Y-64823810D01*
X110273452Y-64793571D01*
X110394405Y-64763333D01*
X110485119Y-64763333D01*
X110606071Y-64793571D01*
X110666548Y-64823810D01*
X110727024Y-64884286D01*
X110757262Y-64975000D01*
X110757262Y-65126191D01*
X110132262Y-70840715D02*
X110132262Y-71143096D01*
X110434643Y-71173334D01*
X110404405Y-71143096D01*
X110374167Y-71082619D01*
X110374167Y-70931429D01*
X110404405Y-70870953D01*
X110434643Y-70840715D01*
X110495119Y-70810476D01*
X110646310Y-70810476D01*
X110706786Y-70840715D01*
X110737024Y-70870953D01*
X110767262Y-70931429D01*
X110767262Y-71082619D01*
X110737024Y-71143096D01*
X110706786Y-71173334D01*
X110343929Y-70598810D02*
X110767262Y-70447619D01*
X110343929Y-70296429D01*
D17*
X139070000Y-74400000D02*
X136530000Y-74400000D01*
X136530000Y-76940000D02*
X136530000Y-71860000D01*
X139070000Y-71860000D02*
X139070000Y-76940000D01*
X136530000Y-71860000D02*
X139070000Y-71860000D01*
X139070000Y-76940000D02*
X136530000Y-76940000D01*
D18*
X150432695Y-64515196D02*
X147397368Y-67550523D01*
X147397368Y-67550523D02*
X142747392Y-62900546D01*
X142747392Y-62900546D02*
X145782718Y-59865220D01*
D19*
X145782718Y-59865220D02*
X150432695Y-64515196D01*
D13*
X140398800Y-105598800D02*
X134201200Y-105598800D01*
X134201200Y-105598800D02*
X134201200Y-99401200D01*
X134201200Y-99401200D02*
X140398800Y-99401200D01*
X140398800Y-99401200D02*
X140398800Y-105598800D01*
X135801400Y-105598800D02*
X138798600Y-105598800D01*
X134201200Y-101501780D02*
X134201200Y-103498220D01*
X135801400Y-99401200D02*
X138798600Y-99401200D01*
X140398800Y-101501780D02*
X140398800Y-103498220D01*
D20*
X138535683Y-102500000D02*
G75*
G03X138535683Y-102500000I-1235683J0D01*
G01*
X138535683Y-102500000D02*
G75*
G03X138535683Y-102500000I-1235683J0D01*
G01*
D13*
X134201200Y-57261200D02*
X140398800Y-57261200D01*
X140398800Y-57261200D02*
X140398800Y-63458800D01*
X140398800Y-63458800D02*
X134201200Y-63458800D01*
X134201200Y-63458800D02*
X134201200Y-57261200D01*
X138798600Y-57261200D02*
X135801400Y-57261200D01*
X140398800Y-61358220D02*
X140398800Y-59361780D01*
X138798600Y-63458800D02*
X135801400Y-63458800D01*
X134201200Y-61358220D02*
X134201200Y-59361780D01*
D20*
X138535683Y-60360000D02*
G75*
G03X138535683Y-60360000I-1235683J0D01*
G01*
X138535683Y-60360000D02*
G75*
G03X138535683Y-60360000I-1235683J0D01*
G01*
D21*
X144561560Y-73820020D02*
X144561560Y-74018140D01*
X144561560Y-74018140D02*
X144759680Y-74018140D01*
X144759680Y-73820020D02*
X144759680Y-74018140D01*
X144561560Y-73820020D02*
X144759680Y-73820020D01*
X143962120Y-74368660D02*
X143962120Y-74716640D01*
X143962120Y-74716640D02*
X144211040Y-74716640D01*
X144211040Y-74368660D02*
X144211040Y-74716640D01*
X143962120Y-74368660D02*
X144211040Y-74368660D01*
X143962120Y-74716640D02*
X143962120Y-74818240D01*
X143962120Y-74818240D02*
X145158460Y-74818240D01*
X145158460Y-74716640D02*
X145158460Y-74818240D01*
X143962120Y-74716640D02*
X145158460Y-74716640D01*
X145209260Y-74716640D02*
X145209260Y-74818240D01*
X145209260Y-74818240D02*
X145359120Y-74818240D01*
X145359120Y-74716640D02*
X145359120Y-74818240D01*
X145209260Y-74716640D02*
X145359120Y-74716640D01*
X143962120Y-73019920D02*
X143962120Y-73121520D01*
X143962120Y-73121520D02*
X145158460Y-73121520D01*
X145158460Y-73019920D02*
X145158460Y-73121520D01*
X143962120Y-73019920D02*
X145158460Y-73019920D01*
X145209260Y-73019920D02*
X145209260Y-73121520D01*
X145209260Y-73121520D02*
X145359120Y-73121520D01*
X145359120Y-73019920D02*
X145359120Y-73121520D01*
X145209260Y-73019920D02*
X145359120Y-73019920D01*
X143962120Y-74368660D02*
X143962120Y-74518520D01*
X143962120Y-74518520D02*
X144211040Y-74518520D01*
X144211040Y-74368660D02*
X144211040Y-74518520D01*
X143962120Y-74368660D02*
X144211040Y-74368660D01*
D20*
X143911320Y-75468480D02*
X143911320Y-72369680D01*
X143911320Y-72369680D02*
X145409920Y-72369680D01*
X145409920Y-72369680D02*
X145409920Y-75468480D01*
X145409920Y-75468480D02*
X143911320Y-75468480D01*
X144161266Y-73371818D02*
G75*
G03X144162780Y-74467720I499354J-547262D01*
G01*
X145159018Y-73370947D02*
G75*
G03X144162780Y-73370440I-498398J-548133D01*
G01*
X145159974Y-74466342D02*
G75*
G03X145158460Y-73370440I-499354J547262D01*
G01*
X144162222Y-74467213D02*
G75*
G03X145158460Y-74467720I498398J548133D01*
G01*
D21*
X142270480Y-73820020D02*
X142270480Y-74018140D01*
X142270480Y-74018140D02*
X142468600Y-74018140D01*
X142468600Y-73820020D02*
X142468600Y-74018140D01*
X142270480Y-73820020D02*
X142468600Y-73820020D01*
X141671040Y-74368660D02*
X141671040Y-74716640D01*
X141671040Y-74716640D02*
X141919960Y-74716640D01*
X141919960Y-74368660D02*
X141919960Y-74716640D01*
X141671040Y-74368660D02*
X141919960Y-74368660D01*
X141671040Y-74716640D02*
X141671040Y-74818240D01*
X141671040Y-74818240D02*
X142867380Y-74818240D01*
X142867380Y-74716640D02*
X142867380Y-74818240D01*
X141671040Y-74716640D02*
X142867380Y-74716640D01*
X142918180Y-74716640D02*
X142918180Y-74818240D01*
X142918180Y-74818240D02*
X143068040Y-74818240D01*
X143068040Y-74716640D02*
X143068040Y-74818240D01*
X142918180Y-74716640D02*
X143068040Y-74716640D01*
X141671040Y-73019920D02*
X141671040Y-73121520D01*
X141671040Y-73121520D02*
X142867380Y-73121520D01*
X142867380Y-73019920D02*
X142867380Y-73121520D01*
X141671040Y-73019920D02*
X142867380Y-73019920D01*
X142918180Y-73019920D02*
X142918180Y-73121520D01*
X142918180Y-73121520D02*
X143068040Y-73121520D01*
X143068040Y-73019920D02*
X143068040Y-73121520D01*
X142918180Y-73019920D02*
X143068040Y-73019920D01*
X141671040Y-74368660D02*
X141671040Y-74518520D01*
X141671040Y-74518520D02*
X141919960Y-74518520D01*
X141919960Y-74368660D02*
X141919960Y-74518520D01*
X141671040Y-74368660D02*
X141919960Y-74368660D01*
D20*
X141620240Y-75468480D02*
X141620240Y-72369680D01*
X141620240Y-72369680D02*
X143118840Y-72369680D01*
X143118840Y-72369680D02*
X143118840Y-75468480D01*
X143118840Y-75468480D02*
X141620240Y-75468480D01*
X141870186Y-73371818D02*
G75*
G03X141871700Y-74467720I499354J-547262D01*
G01*
X142867938Y-73370947D02*
G75*
G03X141871700Y-73370440I-498398J-548133D01*
G01*
X142868894Y-74466342D02*
G75*
G03X142867380Y-73370440I-499354J547262D01*
G01*
X141871142Y-74467213D02*
G75*
G03X142867380Y-74467720I498398J548133D01*
G01*
D21*
X149680940Y-93070940D02*
X149680940Y-93269060D01*
X149680940Y-93269060D02*
X149879060Y-93269060D01*
X149879060Y-93070940D02*
X149879060Y-93269060D01*
X149680940Y-93070940D02*
X149879060Y-93070940D01*
X149081500Y-93619580D02*
X149081500Y-93967560D01*
X149081500Y-93967560D02*
X149330420Y-93967560D01*
X149330420Y-93619580D02*
X149330420Y-93967560D01*
X149081500Y-93619580D02*
X149330420Y-93619580D01*
X149081500Y-93967560D02*
X149081500Y-94069160D01*
X149081500Y-94069160D02*
X150277840Y-94069160D01*
X150277840Y-93967560D02*
X150277840Y-94069160D01*
X149081500Y-93967560D02*
X150277840Y-93967560D01*
X150328640Y-93967560D02*
X150328640Y-94069160D01*
X150328640Y-94069160D02*
X150478500Y-94069160D01*
X150478500Y-93967560D02*
X150478500Y-94069160D01*
X150328640Y-93967560D02*
X150478500Y-93967560D01*
X149081500Y-92270840D02*
X149081500Y-92372440D01*
X149081500Y-92372440D02*
X150277840Y-92372440D01*
X150277840Y-92270840D02*
X150277840Y-92372440D01*
X149081500Y-92270840D02*
X150277840Y-92270840D01*
X150328640Y-92270840D02*
X150328640Y-92372440D01*
X150328640Y-92372440D02*
X150478500Y-92372440D01*
X150478500Y-92270840D02*
X150478500Y-92372440D01*
X150328640Y-92270840D02*
X150478500Y-92270840D01*
X149081500Y-93619580D02*
X149081500Y-93769440D01*
X149081500Y-93769440D02*
X149330420Y-93769440D01*
X149330420Y-93619580D02*
X149330420Y-93769440D01*
X149081500Y-93619580D02*
X149330420Y-93619580D01*
D20*
X149030700Y-94719400D02*
X149030700Y-91620600D01*
X149030700Y-91620600D02*
X150529300Y-91620600D01*
X150529300Y-91620600D02*
X150529300Y-94719400D01*
X150529300Y-94719400D02*
X149030700Y-94719400D01*
X149280646Y-92622738D02*
G75*
G03X149282160Y-93718640I499354J-547262D01*
G01*
X150278398Y-92621867D02*
G75*
G03X149282160Y-92621360I-498398J-548133D01*
G01*
X150279354Y-93717262D02*
G75*
G03X150277840Y-92621360I-499354J547262D01*
G01*
X149281602Y-93718133D02*
G75*
G03X150277840Y-93718640I498398J548133D01*
G01*
D22*
X133398000Y-72737000D02*
G75*
G03X133398000Y-72737000I-635000J0D01*
G01*
X133969500Y-91152000D02*
X133969500Y-71848000D01*
X114030500Y-71848000D02*
X114030500Y-91152000D01*
X114348000Y-71530500D02*
X133652000Y-71530500D01*
X133652000Y-91469500D02*
X114348000Y-91469500D01*
X114030500Y-91152000D02*
X114348000Y-91469500D01*
X133969500Y-91152000D02*
X133652000Y-91469500D01*
X114030500Y-71848000D02*
X114348000Y-71530500D01*
X133969500Y-71848000D02*
X133652000Y-71530500D01*
X144643000Y-93635000D02*
X142357000Y-93635000D01*
X142357000Y-93635000D02*
X142357000Y-95286000D01*
X144643000Y-97064000D02*
X144643000Y-98715000D01*
X144643000Y-98715000D02*
X142357000Y-98715000D01*
X142357000Y-98715000D02*
X142357000Y-97064000D01*
X144643000Y-95286000D02*
X144643000Y-93635000D01*
D12*
X140485930Y-83779360D02*
G75*
G03X140485930Y-83779360I-359210J0D01*
G01*
X139618720Y-80985360D02*
X140380720Y-80985360D01*
X140380720Y-80985360D02*
X140380720Y-82255360D01*
X140380720Y-82255360D02*
X139618720Y-82255360D01*
X149905720Y-84287360D02*
X139618720Y-84287360D01*
X139618720Y-78953360D02*
X149905720Y-78953360D01*
X139618720Y-78953360D02*
X139618720Y-84287360D01*
X149905720Y-78953360D02*
X149905720Y-84287360D01*
D22*
X107860000Y-72010000D02*
X107860000Y-64390000D01*
X112940000Y-64390000D02*
X112940000Y-72010000D01*
X112940000Y-72010000D02*
X107860000Y-72010000D01*
X107860000Y-64390000D02*
X112940000Y-64390000D01*
D17*
X121520000Y-100060000D02*
X131680000Y-100060000D01*
X131680000Y-100060000D02*
X131680000Y-105140000D01*
X131680000Y-105140000D02*
X121520000Y-105140000D01*
X121520000Y-102600000D02*
X124060000Y-102600000D01*
X124060000Y-102600000D02*
X124060000Y-105140000D01*
X121520000Y-100060000D02*
X121520000Y-105140000D01*
X131680000Y-62840000D02*
X121520000Y-62840000D01*
X121520000Y-62840000D02*
X121520000Y-57760000D01*
X121520000Y-57760000D02*
X131680000Y-57760000D01*
X131680000Y-60300000D02*
X129140000Y-60300000D01*
X129140000Y-60300000D02*
X129140000Y-57760000D01*
X131680000Y-62840000D02*
X131680000Y-57760000D01*
X111960000Y-100060000D02*
X111960000Y-102600000D01*
X119580000Y-102600000D02*
X109420000Y-102600000D01*
X109420000Y-100060000D02*
X119580000Y-100060000D01*
X109420000Y-102600000D02*
X109420000Y-100060000D01*
X119580000Y-100060000D02*
X119580000Y-102600000D01*
X135590000Y-65130000D02*
X135590000Y-67670000D01*
X143210000Y-67670000D02*
X133050000Y-67670000D01*
X133050000Y-65130000D02*
X143210000Y-65130000D01*
X133050000Y-67670000D02*
X133050000Y-65130000D01*
X143210000Y-65130000D02*
X143210000Y-67670000D01*
X119580000Y-62840000D02*
X109420000Y-62840000D01*
X109420000Y-62840000D02*
X109420000Y-57760000D01*
X109420000Y-57760000D02*
X119580000Y-57760000D01*
X119580000Y-60300000D02*
X117040000Y-60300000D01*
X117040000Y-60300000D02*
X117040000Y-57760000D01*
X119580000Y-62840000D02*
X119580000Y-57760000D01*
D23*
X136595153Y-72050377D02*
X136468153Y-72050377D01*
X136468153Y-72001996D01*
X136474201Y-71989901D01*
X136480249Y-71983853D01*
X136492344Y-71977805D01*
X136510487Y-71977805D01*
X136522582Y-71983853D01*
X136528630Y-71989901D01*
X136534677Y-72001996D01*
X136534677Y-72050377D01*
X136468153Y-71935472D02*
X136468153Y-71850805D01*
X136595153Y-71905234D01*
D12*
X144191309Y-77137262D02*
X144191309Y-76502262D01*
X144342500Y-76502262D01*
X144433214Y-76532500D01*
X144493690Y-76592976D01*
X144523929Y-76653452D01*
X144554167Y-76774405D01*
X144554167Y-76865119D01*
X144523929Y-76986071D01*
X144493690Y-77046548D01*
X144433214Y-77107024D01*
X144342500Y-77137262D01*
X144191309Y-77137262D01*
X144765833Y-76502262D02*
X145158929Y-76502262D01*
X144947262Y-76744167D01*
X145037976Y-76744167D01*
X145098452Y-76774405D01*
X145128690Y-76804643D01*
X145158929Y-76865119D01*
X145158929Y-77016310D01*
X145128690Y-77076786D01*
X145098452Y-77107024D01*
X145037976Y-77137262D01*
X144856548Y-77137262D01*
X144796071Y-77107024D01*
X144765833Y-77076786D01*
X141931309Y-77147262D02*
X141931309Y-76512262D01*
X142082500Y-76512262D01*
X142173214Y-76542500D01*
X142233690Y-76602976D01*
X142263929Y-76663452D01*
X142294167Y-76784405D01*
X142294167Y-76875119D01*
X142263929Y-76996071D01*
X142233690Y-77056548D01*
X142173214Y-77117024D01*
X142082500Y-77147262D01*
X141931309Y-77147262D01*
X142536071Y-76572738D02*
X142566309Y-76542500D01*
X142626786Y-76512262D01*
X142777976Y-76512262D01*
X142838452Y-76542500D01*
X142868690Y-76572738D01*
X142898929Y-76633214D01*
X142898929Y-76693690D01*
X142868690Y-76784405D01*
X142505833Y-77147262D01*
X142898929Y-77147262D01*
X149311309Y-96557262D02*
X149311309Y-95922262D01*
X149462500Y-95922262D01*
X149553214Y-95952500D01*
X149613690Y-96012976D01*
X149643929Y-96073452D01*
X149674167Y-96194405D01*
X149674167Y-96285119D01*
X149643929Y-96406071D01*
X149613690Y-96466548D01*
X149553214Y-96527024D01*
X149462500Y-96557262D01*
X149311309Y-96557262D01*
X150278929Y-96557262D02*
X149916071Y-96557262D01*
X150097500Y-96557262D02*
X150097500Y-95922262D01*
X150037024Y-96012976D01*
X149976548Y-96073452D01*
X149916071Y-96103690D01*
X132060509Y-68382714D02*
X132060509Y-68999571D01*
X132096794Y-69072143D01*
X132133080Y-69108429D01*
X132205651Y-69144714D01*
X132350794Y-69144714D01*
X132423366Y-69108429D01*
X132459651Y-69072143D01*
X132495937Y-68999571D01*
X132495937Y-68382714D01*
X132822509Y-68455286D02*
X132858795Y-68419000D01*
X132931366Y-68382714D01*
X133112795Y-68382714D01*
X133185366Y-68419000D01*
X133221652Y-68455286D01*
X133257937Y-68527857D01*
X133257937Y-68600429D01*
X133221652Y-68709286D01*
X132786223Y-69144714D01*
X133257937Y-69144714D01*
D16*
X124701405Y-90833774D02*
X124701405Y-90071774D01*
X124955405Y-90616060D01*
X125209405Y-90071774D01*
X125209405Y-90833774D01*
X126007690Y-90761203D02*
X125971404Y-90797489D01*
X125862547Y-90833774D01*
X125789976Y-90833774D01*
X125681119Y-90797489D01*
X125608547Y-90724917D01*
X125572262Y-90652346D01*
X125535976Y-90507203D01*
X125535976Y-90398346D01*
X125572262Y-90253203D01*
X125608547Y-90180631D01*
X125681119Y-90108060D01*
X125789976Y-90071774D01*
X125862547Y-90071774D01*
X125971404Y-90108060D01*
X126007690Y-90144346D01*
X126370547Y-90833774D02*
X126515690Y-90833774D01*
X126588262Y-90797489D01*
X126624547Y-90761203D01*
X126697119Y-90652346D01*
X126733404Y-90507203D01*
X126733404Y-90216917D01*
X126697119Y-90144346D01*
X126660833Y-90108060D01*
X126588262Y-90071774D01*
X126443119Y-90071774D01*
X126370547Y-90108060D01*
X126334262Y-90144346D01*
X126297976Y-90216917D01*
X126297976Y-90398346D01*
X126334262Y-90470917D01*
X126370547Y-90507203D01*
X126443119Y-90543489D01*
X126588262Y-90543489D01*
X126660833Y-90507203D01*
X126697119Y-90470917D01*
X126733404Y-90398346D01*
X127023690Y-90797489D02*
X127132547Y-90833774D01*
X127313976Y-90833774D01*
X127386547Y-90797489D01*
X127422833Y-90761203D01*
X127459118Y-90688631D01*
X127459118Y-90616060D01*
X127422833Y-90543489D01*
X127386547Y-90507203D01*
X127313976Y-90470917D01*
X127168833Y-90434631D01*
X127096261Y-90398346D01*
X127059976Y-90362060D01*
X127023690Y-90289489D01*
X127023690Y-90216917D01*
X127059976Y-90144346D01*
X127096261Y-90108060D01*
X127168833Y-90071774D01*
X127350261Y-90071774D01*
X127459118Y-90108060D01*
X128184832Y-90833774D02*
X127749404Y-90833774D01*
X127967118Y-90833774D02*
X127967118Y-90071774D01*
X127894547Y-90180631D01*
X127821975Y-90253203D01*
X127749404Y-90289489D01*
X128475118Y-90144346D02*
X128511404Y-90108060D01*
X128583975Y-90071774D01*
X128765404Y-90071774D01*
X128837975Y-90108060D01*
X128874261Y-90144346D01*
X128910546Y-90216917D01*
X128910546Y-90289489D01*
X128874261Y-90398346D01*
X128438832Y-90833774D01*
X128910546Y-90833774D01*
X129164546Y-90071774D02*
X129672546Y-90833774D01*
X129672546Y-90071774D02*
X129164546Y-90833774D01*
X129962832Y-90833774D02*
X129962832Y-90071774D01*
X130144260Y-90071774D01*
X130253117Y-90108060D01*
X130325689Y-90180631D01*
X130361974Y-90253203D01*
X130398260Y-90398346D01*
X130398260Y-90507203D01*
X130361974Y-90652346D01*
X130325689Y-90724917D01*
X130253117Y-90797489D01*
X130144260Y-90833774D01*
X129962832Y-90833774D01*
X130724832Y-90833774D02*
X130724832Y-90071774D01*
X131015117Y-90071774D01*
X131087689Y-90108060D01*
X131123974Y-90144346D01*
X131160260Y-90216917D01*
X131160260Y-90325774D01*
X131123974Y-90398346D01*
X131087689Y-90434631D01*
X131015117Y-90470917D01*
X130724832Y-90470917D01*
X131849689Y-90071774D02*
X131486832Y-90071774D01*
X131450546Y-90434631D01*
X131486832Y-90398346D01*
X131559403Y-90362060D01*
X131740832Y-90362060D01*
X131813403Y-90398346D01*
X131849689Y-90434631D01*
X131885974Y-90507203D01*
X131885974Y-90688631D01*
X131849689Y-90761203D01*
X131813403Y-90797489D01*
X131740832Y-90833774D01*
X131559403Y-90833774D01*
X131486832Y-90797489D01*
X131450546Y-90761203D01*
X132611688Y-90833774D02*
X132176260Y-90833774D01*
X132393974Y-90833774D02*
X132393974Y-90071774D01*
X132321403Y-90180631D01*
X132248831Y-90253203D01*
X132176260Y-90289489D01*
X132901974Y-90144346D02*
X132938260Y-90108060D01*
X133010831Y-90071774D01*
X133192260Y-90071774D01*
X133264831Y-90108060D01*
X133301117Y-90144346D01*
X133337402Y-90216917D01*
X133337402Y-90289489D01*
X133301117Y-90398346D01*
X132865688Y-90833774D01*
X133337402Y-90833774D01*
X133798594Y-70714434D02*
X133363166Y-70714434D01*
X133580880Y-70714434D02*
X133580880Y-69952434D01*
X133508309Y-70061291D01*
X133435737Y-70133863D01*
X133363166Y-70170149D01*
D12*
X143494167Y-99762262D02*
X143282500Y-99459881D01*
X143131309Y-99762262D02*
X143131309Y-99127262D01*
X143373214Y-99127262D01*
X143433690Y-99157500D01*
X143463929Y-99187738D01*
X143494167Y-99248214D01*
X143494167Y-99338929D01*
X143463929Y-99399405D01*
X143433690Y-99429643D01*
X143373214Y-99459881D01*
X143131309Y-99459881D01*
X143857024Y-99399405D02*
X143796548Y-99369167D01*
X143766309Y-99338929D01*
X143736071Y-99278452D01*
X143736071Y-99248214D01*
X143766309Y-99187738D01*
X143796548Y-99157500D01*
X143857024Y-99127262D01*
X143977976Y-99127262D01*
X144038452Y-99157500D01*
X144068690Y-99187738D01*
X144098929Y-99248214D01*
X144098929Y-99278452D01*
X144068690Y-99338929D01*
X144038452Y-99369167D01*
X143977976Y-99399405D01*
X143857024Y-99399405D01*
X143796548Y-99429643D01*
X143766309Y-99459881D01*
X143736071Y-99520357D01*
X143736071Y-99641310D01*
X143766309Y-99701786D01*
X143796548Y-99732024D01*
X143857024Y-99762262D01*
X143977976Y-99762262D01*
X144038452Y-99732024D01*
X144068690Y-99701786D01*
X144098929Y-99641310D01*
X144098929Y-99520357D01*
X144068690Y-99459881D01*
X144038452Y-99429643D01*
X143977976Y-99399405D01*
D16*
X140458009Y-86293234D02*
X140458009Y-86910091D01*
X140494294Y-86982663D01*
X140530580Y-87018949D01*
X140603151Y-87055234D01*
X140748294Y-87055234D01*
X140820866Y-87018949D01*
X140857151Y-86982663D01*
X140893437Y-86910091D01*
X140893437Y-86293234D01*
X141655437Y-87055234D02*
X141220009Y-87055234D01*
X141437723Y-87055234D02*
X141437723Y-86293234D01*
X141365152Y-86402091D01*
X141292580Y-86474663D01*
X141220009Y-86510949D01*
X140219613Y-79696491D02*
X139965613Y-79696491D01*
X139965613Y-80095634D02*
X139965613Y-79333634D01*
X140328470Y-79333634D01*
X140509898Y-79333634D02*
X140945327Y-79333634D01*
X140727613Y-80095634D02*
X140727613Y-79333634D01*
X141163041Y-79406206D02*
X141199327Y-79369920D01*
X141271898Y-79333634D01*
X141453327Y-79333634D01*
X141525898Y-79369920D01*
X141562184Y-79406206D01*
X141598469Y-79478777D01*
X141598469Y-79551349D01*
X141562184Y-79660206D01*
X141126755Y-80095634D01*
X141598469Y-80095634D01*
X141852469Y-79333634D02*
X142324183Y-79333634D01*
X142070183Y-79623920D01*
X142179041Y-79623920D01*
X142251612Y-79660206D01*
X142287898Y-79696491D01*
X142324183Y-79769063D01*
X142324183Y-79950491D01*
X142287898Y-80023063D01*
X142251612Y-80059349D01*
X142179041Y-80095634D01*
X141961326Y-80095634D01*
X141888755Y-80059349D01*
X141852469Y-80023063D01*
X142614469Y-79406206D02*
X142650755Y-79369920D01*
X142723326Y-79333634D01*
X142904755Y-79333634D01*
X142977326Y-79369920D01*
X143013612Y-79406206D01*
X143049897Y-79478777D01*
X143049897Y-79551349D01*
X143013612Y-79660206D01*
X142578183Y-80095634D01*
X143049897Y-80095634D01*
X143811897Y-80095634D02*
X143557897Y-79732777D01*
X143376469Y-80095634D02*
X143376469Y-79333634D01*
X143666754Y-79333634D01*
X143739326Y-79369920D01*
X143775611Y-79406206D01*
X143811897Y-79478777D01*
X143811897Y-79587634D01*
X143775611Y-79660206D01*
X143739326Y-79696491D01*
X143666754Y-79732777D01*
X143376469Y-79732777D01*
X144501326Y-80095634D02*
X144138469Y-80095634D01*
X144138469Y-79333634D01*
M02*
