G04 (created by PCBNEW-RS274X (2010-03-14)-final) date Fri 09 Nov 2012 11:02:30 AM EST*
G01*
G70*
G90*
%MOIN*%
G04 Gerber Fmt 3.4, Leading zero omitted, Abs format*
%FSLAX34Y34*%
G04 APERTURE LIST*
%ADD10C,0.006000*%
%ADD11C,0.001000*%
%ADD12R,0.071000X0.063000*%
%ADD13R,0.063000X0.071000*%
%ADD14R,0.060000X0.080000*%
%ADD15R,0.080000X0.060000*%
%ADD16O,0.118700X0.059300*%
%ADD17R,0.059100X0.076800*%
%ADD18C,0.187500*%
%ADD19R,0.095000X0.125000*%
%ADD20R,0.060000X0.060000*%
%ADD21C,0.060000*%
%ADD22C,0.035000*%
%ADD23R,0.059000X0.051200*%
%ADD24C,0.027500*%
%ADD25C,0.008000*%
%ADD26C,0.015000*%
%ADD27C,0.010000*%
G04 APERTURE END LIST*
G54D10*
G54D11*
X59035Y-37118D02*
X59035Y-34165D01*
X46153Y-23929D02*
X50299Y-23929D01*
X44083Y-38173D02*
X44083Y-26000D01*
X44083Y-38174D02*
X44083Y-38173D01*
X46153Y-40244D02*
X44083Y-38174D01*
X47543Y-40244D02*
X46153Y-40244D01*
X44083Y-25999D02*
X44083Y-26000D01*
X46153Y-23929D02*
X44083Y-25999D01*
X53209Y-40244D02*
X47543Y-40244D01*
X56201Y-37252D02*
X53209Y-40244D01*
X58898Y-37252D02*
X56201Y-37252D01*
X58901Y-37252D02*
X58898Y-37252D01*
X59035Y-37118D02*
X58901Y-37252D01*
X58901Y-38346D02*
X58898Y-38346D01*
X58901Y-26921D02*
X58677Y-26921D01*
X59035Y-27055D02*
X58901Y-26921D01*
X59035Y-29260D02*
X59035Y-27055D01*
X59035Y-30016D02*
X59035Y-29260D01*
X59035Y-30016D02*
X59035Y-30020D01*
X56201Y-26921D02*
X58677Y-26921D01*
X53209Y-23929D02*
X56201Y-26921D01*
X50295Y-23929D02*
X53209Y-23929D01*
X59370Y-34165D02*
X59035Y-34165D01*
X63437Y-30016D02*
X59035Y-30016D01*
X63437Y-34165D02*
X59370Y-34165D01*
X63437Y-30016D02*
X63437Y-34165D01*
G54D12*
X44807Y-30639D03*
X44807Y-31739D03*
G54D13*
X52802Y-34563D03*
X51702Y-34563D03*
X49306Y-35583D03*
X48206Y-35583D03*
X54601Y-37496D03*
X53501Y-37496D03*
G54D12*
X46740Y-33357D03*
X46740Y-32257D03*
X55425Y-36424D03*
X55425Y-35324D03*
X46740Y-30352D03*
X46740Y-31452D03*
X53535Y-29548D03*
X53535Y-30648D03*
G54D13*
X49749Y-28634D03*
X50849Y-28634D03*
G54D12*
X58220Y-29640D03*
X58220Y-28540D03*
X57149Y-35904D03*
X57149Y-34804D03*
X49642Y-26203D03*
X49642Y-25103D03*
G54D14*
X58256Y-27524D03*
X56956Y-27524D03*
X56055Y-27528D03*
X54755Y-27528D03*
G54D15*
X45775Y-31480D03*
X45775Y-32780D03*
X49319Y-37460D03*
X49319Y-38760D03*
X48126Y-37456D03*
X48126Y-38756D03*
G54D14*
X51299Y-38287D03*
X52599Y-38287D03*
G54D15*
X44665Y-26338D03*
X44665Y-27638D03*
X44665Y-29776D03*
X44665Y-28476D03*
X45689Y-27839D03*
X45689Y-26539D03*
G54D14*
X52146Y-25665D03*
X50846Y-25665D03*
G54D15*
X47874Y-28755D03*
X47874Y-30055D03*
G54D16*
X50631Y-26917D03*
X50631Y-24359D03*
X52401Y-26917D03*
X52401Y-24359D03*
X50631Y-39866D03*
X50631Y-37308D03*
X52401Y-39866D03*
X52401Y-37308D03*
G54D13*
X52798Y-31547D03*
X51698Y-31547D03*
G54D12*
X44803Y-33633D03*
X44803Y-32533D03*
G54D17*
X56295Y-35923D03*
X56295Y-34841D03*
G54D18*
X46224Y-38114D03*
G54D19*
X50315Y-31910D03*
X50315Y-34160D03*
G54D20*
X47471Y-24618D03*
G54D21*
X48521Y-24618D03*
X47521Y-25618D03*
X48471Y-25618D03*
X47471Y-26618D03*
X48521Y-26618D03*
G54D22*
X44878Y-35630D03*
X44890Y-34559D03*
G54D14*
X46937Y-34563D03*
X45637Y-34563D03*
X46926Y-35646D03*
X45626Y-35646D03*
G54D23*
X58252Y-34527D03*
X58252Y-35277D03*
G54D24*
X47953Y-28689D03*
X48838Y-28866D03*
X55319Y-34559D03*
X55319Y-34035D03*
X58799Y-30181D03*
X56075Y-34035D03*
X57378Y-31323D03*
X53500Y-37405D03*
X58256Y-27618D03*
X56461Y-32492D03*
X54783Y-27465D03*
X53449Y-29646D03*
X46665Y-31531D03*
X50374Y-31886D03*
X45685Y-27874D03*
X49346Y-38748D03*
X48134Y-37362D03*
X48256Y-35551D03*
X49154Y-29984D03*
X44579Y-26358D03*
X44850Y-29866D03*
X50748Y-28827D03*
X49469Y-30213D03*
X58307Y-29713D03*
X56079Y-27650D03*
X56941Y-27642D03*
X55362Y-35323D03*
X54665Y-37437D03*
X58201Y-28472D03*
X53476Y-30567D03*
X49224Y-35567D03*
X49803Y-28626D03*
X46685Y-30398D03*
X52823Y-34693D03*
X57012Y-34705D03*
X46763Y-33532D03*
X47681Y-31665D03*
X46598Y-32283D03*
X44571Y-32417D03*
X44760Y-33642D03*
X50291Y-34295D03*
G54D25*
X47953Y-28689D02*
X47887Y-28755D01*
X47887Y-28755D02*
X47874Y-28755D01*
X50846Y-26059D02*
X50846Y-25665D01*
X50706Y-26203D02*
X50846Y-26063D01*
X49136Y-26203D02*
X49642Y-26203D01*
X50631Y-26917D02*
X50631Y-26274D01*
X50631Y-26274D02*
X50846Y-26059D01*
X49642Y-26203D02*
X50706Y-26203D01*
X50846Y-26063D02*
X50846Y-25665D01*
X48838Y-28866D02*
X49047Y-28657D01*
X48551Y-25618D02*
X49136Y-26203D01*
X48471Y-25618D02*
X48551Y-25618D01*
X49642Y-26653D02*
X49642Y-26203D01*
X49047Y-27248D02*
X49642Y-26653D01*
X49047Y-28657D02*
X49047Y-27248D01*
X55319Y-34035D02*
X55319Y-34559D01*
G54D26*
X58252Y-34527D02*
X58252Y-30728D01*
X58252Y-30728D02*
X58799Y-30181D01*
X58252Y-30728D02*
X58252Y-34535D01*
X58799Y-30181D02*
X58252Y-30728D01*
X57472Y-34035D02*
X57472Y-34039D01*
X57907Y-35277D02*
X58252Y-35277D01*
X57744Y-35114D02*
X57907Y-35277D01*
X57744Y-34311D02*
X57744Y-35114D01*
X57472Y-34039D02*
X57744Y-34311D01*
X57149Y-35904D02*
X58183Y-35904D01*
X58183Y-35904D02*
X58252Y-35835D01*
X58252Y-35835D02*
X58252Y-35277D01*
X57472Y-34035D02*
X56075Y-34035D01*
G54D25*
X52239Y-25665D02*
X52146Y-25665D01*
G54D26*
X48521Y-26618D02*
X48521Y-29861D01*
G54D25*
X47288Y-31452D02*
X47909Y-30831D01*
X53535Y-29560D02*
X53535Y-29548D01*
X47909Y-30090D02*
X47874Y-30055D01*
X53052Y-38287D02*
X53501Y-37838D01*
X58256Y-27618D02*
X58256Y-27524D01*
X47909Y-30831D02*
X47909Y-30090D01*
X48311Y-30055D02*
X47874Y-30055D01*
G54D26*
X56314Y-35904D02*
X56295Y-35923D01*
G54D25*
X54783Y-27465D02*
X54755Y-27493D01*
X54755Y-27493D02*
X54755Y-27528D01*
G54D26*
X55836Y-36424D02*
X55425Y-36424D01*
X56295Y-35923D02*
X56295Y-35965D01*
X56295Y-35965D02*
X55836Y-36424D01*
G54D25*
X54102Y-27528D02*
X52239Y-25665D01*
X53500Y-37405D02*
X53501Y-37406D01*
X54724Y-36862D02*
X54012Y-36862D01*
X55425Y-36424D02*
X55162Y-36424D01*
X54012Y-36862D02*
X53501Y-37373D01*
X55162Y-36424D02*
X54724Y-36862D01*
X53501Y-37838D02*
X53501Y-37496D01*
X57218Y-35835D02*
X57149Y-35904D01*
X46740Y-31456D02*
X46740Y-31452D01*
G54D26*
X57218Y-35835D02*
X57149Y-35904D01*
G54D25*
X56314Y-35904D02*
X56295Y-35923D01*
G54D26*
X57149Y-35904D02*
X56314Y-35904D01*
G54D25*
X53449Y-29646D02*
X53535Y-29560D01*
X53501Y-37406D02*
X53501Y-37496D01*
X46665Y-31531D02*
X46740Y-31456D01*
X48311Y-30055D02*
X47874Y-30055D01*
G54D26*
X52599Y-38287D02*
X53052Y-38287D01*
X53052Y-38287D02*
X53501Y-37838D01*
X53501Y-37838D02*
X53501Y-37496D01*
X52874Y-29386D02*
X48980Y-29386D01*
X54755Y-27528D02*
X54102Y-27528D01*
X57378Y-32224D02*
X57378Y-31323D01*
X56461Y-32492D02*
X57110Y-32492D01*
X48327Y-30055D02*
X47874Y-30055D01*
X47909Y-30831D02*
X47909Y-30090D01*
X52239Y-25665D02*
X52146Y-25665D01*
X45689Y-26539D02*
X46370Y-26539D01*
X48521Y-29861D02*
X48327Y-30055D01*
X46740Y-31452D02*
X47288Y-31452D01*
X57110Y-32492D02*
X57378Y-32224D01*
X54102Y-27528D02*
X52239Y-25665D01*
G54D25*
X53036Y-29548D02*
X52874Y-29386D01*
G54D26*
X48980Y-29386D02*
X48311Y-30055D01*
X48521Y-26959D02*
X48521Y-26618D01*
X46917Y-27086D02*
X48394Y-27086D01*
X47288Y-31452D02*
X47909Y-30831D01*
X47909Y-30090D02*
X47874Y-30055D01*
X53501Y-37496D02*
X53501Y-37373D01*
X53501Y-37373D02*
X54012Y-36862D01*
X54012Y-36862D02*
X54713Y-36862D01*
X53535Y-29548D02*
X53036Y-29548D01*
G54D25*
X48980Y-29386D02*
X48311Y-30055D01*
G54D26*
X53036Y-29548D02*
X52874Y-29386D01*
G54D25*
X52874Y-29386D02*
X48980Y-29386D01*
G54D26*
X46370Y-26539D02*
X46917Y-27086D01*
X48311Y-30055D02*
X47874Y-30055D01*
X54713Y-36862D02*
X55151Y-36424D01*
X55151Y-36424D02*
X55425Y-36424D01*
X48394Y-27086D02*
X48521Y-26959D01*
G54D25*
X50315Y-31910D02*
X50570Y-31910D01*
X50933Y-31547D02*
X51698Y-31547D01*
X50570Y-31910D02*
X50933Y-31547D01*
X50350Y-31910D02*
X50315Y-31910D01*
X50374Y-31886D02*
X50350Y-31910D01*
X45689Y-27870D02*
X45689Y-27839D01*
X45685Y-27874D02*
X45689Y-27870D01*
X48980Y-37953D02*
X49267Y-37953D01*
X48284Y-38287D02*
X48646Y-38287D01*
X48646Y-38287D02*
X48980Y-37953D01*
X48126Y-38445D02*
X48284Y-38287D01*
X49319Y-37901D02*
X49319Y-37460D01*
X48126Y-38756D02*
X48126Y-38445D01*
X50479Y-37460D02*
X50631Y-37308D01*
X51299Y-37976D02*
X50631Y-37308D01*
X49319Y-37460D02*
X50479Y-37460D01*
X51299Y-38287D02*
X51299Y-37976D01*
X49267Y-37953D02*
X49319Y-37901D01*
X49346Y-38748D02*
X49334Y-38760D01*
X49334Y-38760D02*
X49319Y-38760D01*
X45672Y-31480D02*
X44831Y-30639D01*
X44831Y-30639D02*
X44807Y-30639D01*
X45775Y-31480D02*
X45672Y-31480D01*
X48134Y-37362D02*
X48126Y-37370D01*
X48126Y-37370D02*
X48126Y-37456D01*
X48256Y-35551D02*
X48224Y-35583D01*
X48224Y-35583D02*
X48206Y-35583D01*
X48976Y-31886D02*
X48598Y-32264D01*
X48976Y-30162D02*
X48976Y-31886D01*
X49154Y-29984D02*
X48976Y-30162D01*
X48598Y-32264D02*
X48197Y-32264D01*
X47366Y-34563D02*
X46937Y-34563D01*
X48000Y-33929D02*
X47366Y-34563D01*
X48000Y-32461D02*
X48000Y-33929D01*
X48197Y-32264D02*
X48000Y-32461D01*
X44579Y-26358D02*
X44599Y-26338D01*
X44599Y-26338D02*
X44665Y-26338D01*
X44850Y-29866D02*
X44760Y-29776D01*
X44760Y-29776D02*
X44665Y-29776D01*
X50849Y-28726D02*
X50849Y-28634D01*
X50748Y-28827D02*
X50849Y-28726D01*
X47579Y-34877D02*
X47579Y-35193D01*
X48351Y-32539D02*
X48220Y-32670D01*
X47126Y-35646D02*
X46926Y-35646D01*
X49280Y-30402D02*
X49280Y-32031D01*
X49280Y-32031D02*
X48772Y-32539D01*
X48772Y-32539D02*
X48351Y-32539D01*
X49469Y-30213D02*
X49280Y-30402D01*
X48220Y-34236D02*
X47579Y-34877D01*
X48220Y-32670D02*
X48220Y-34236D01*
X47579Y-35193D02*
X47126Y-35646D01*
X44890Y-34559D02*
X45633Y-34559D01*
X45633Y-34559D02*
X45637Y-34563D01*
X44878Y-35630D02*
X45610Y-35630D01*
X45610Y-35630D02*
X45626Y-35646D01*
X58234Y-29640D02*
X58220Y-29640D01*
X58307Y-29713D02*
X58234Y-29640D01*
X56079Y-27650D02*
X56055Y-27626D01*
X56055Y-27626D02*
X56055Y-27528D01*
X56941Y-27642D02*
X56956Y-27627D01*
X56956Y-27627D02*
X56956Y-27524D01*
X54606Y-37496D02*
X54601Y-37496D01*
X54665Y-37437D02*
X54606Y-37496D01*
X53535Y-30626D02*
X53535Y-30648D01*
X55363Y-35324D02*
X55425Y-35324D01*
X49240Y-35583D02*
X49306Y-35583D01*
X53476Y-30567D02*
X53535Y-30626D01*
X55362Y-35323D02*
X55363Y-35324D01*
X53481Y-30594D02*
X53535Y-30648D01*
X49803Y-28626D02*
X49795Y-28634D01*
X46731Y-30352D02*
X46740Y-30352D01*
X49795Y-28634D02*
X49749Y-28634D01*
X49224Y-35567D02*
X49240Y-35583D01*
X46763Y-33532D02*
X46740Y-33509D01*
X57111Y-34804D02*
X57149Y-34804D01*
X52802Y-34672D02*
X52802Y-34563D01*
X46685Y-30398D02*
X46731Y-30352D01*
X57012Y-34705D02*
X57111Y-34804D01*
X47799Y-31783D02*
X47799Y-32953D01*
X47799Y-32953D02*
X47395Y-33357D01*
X47395Y-33357D02*
X46740Y-33357D01*
X52798Y-30749D02*
X52953Y-30594D01*
X52953Y-30594D02*
X53481Y-30594D01*
G54D26*
X57112Y-34841D02*
X57149Y-34804D01*
G54D25*
X46740Y-33509D02*
X46740Y-33357D01*
X58201Y-28472D02*
X58220Y-28491D01*
X47681Y-31665D02*
X47799Y-31783D01*
G54D26*
X52953Y-30594D02*
X53481Y-30594D01*
G54D25*
X52823Y-34693D02*
X52802Y-34672D01*
G54D26*
X44665Y-27638D02*
X44665Y-28476D01*
X52798Y-30749D02*
X52953Y-30594D01*
X56295Y-34841D02*
X57112Y-34841D01*
G54D25*
X58220Y-28491D02*
X58220Y-28540D01*
G54D26*
X52798Y-31547D02*
X52798Y-30749D01*
X53481Y-30594D02*
X53535Y-30648D01*
G54D25*
X44807Y-32529D02*
X44803Y-32533D01*
X44571Y-32417D02*
X44687Y-32533D01*
X44687Y-32533D02*
X44803Y-32533D01*
X46624Y-32257D02*
X46740Y-32257D01*
X46598Y-32283D02*
X46624Y-32257D01*
X44807Y-31739D02*
X44807Y-32529D01*
X44760Y-33642D02*
X44769Y-33633D01*
X44769Y-33633D02*
X44803Y-33633D01*
X45775Y-32780D02*
X45712Y-32780D01*
X44859Y-33633D02*
X44803Y-33633D01*
X45712Y-32780D02*
X44859Y-33633D01*
X50315Y-34271D02*
X50315Y-34160D01*
X50538Y-34160D02*
X50941Y-34563D01*
X50941Y-34563D02*
X51702Y-34563D01*
X50315Y-34160D02*
X50538Y-34160D01*
X50291Y-34295D02*
X50315Y-34271D01*
G54D27*
X47939Y-24134D02*
X48142Y-24134D01*
X48899Y-24134D02*
X49736Y-24134D01*
X47998Y-24214D02*
X48134Y-24214D01*
X48908Y-24214D02*
X49710Y-24214D01*
X48180Y-24294D02*
X48214Y-24294D01*
X48828Y-24294D02*
X48862Y-24294D01*
X49078Y-24294D02*
X49735Y-24294D01*
X53250Y-24294D02*
X53284Y-24294D01*
X48260Y-24374D02*
X48294Y-24374D01*
X48748Y-24374D02*
X48782Y-24374D01*
X49109Y-24374D02*
X49774Y-24374D01*
X50619Y-24374D02*
X50643Y-24374D01*
X53250Y-24374D02*
X53364Y-24374D01*
X48340Y-24454D02*
X48374Y-24454D01*
X48668Y-24454D02*
X48702Y-24454D01*
X49140Y-24454D02*
X49180Y-24454D01*
X49559Y-24454D02*
X49713Y-24454D01*
X50619Y-24454D02*
X50643Y-24454D01*
X53250Y-24454D02*
X53444Y-24454D01*
X48420Y-24534D02*
X48454Y-24534D01*
X48588Y-24534D02*
X48622Y-24534D01*
X49630Y-24534D02*
X49654Y-24534D01*
X50619Y-24534D02*
X50643Y-24534D01*
X51541Y-24534D02*
X51580Y-24534D01*
X53221Y-24534D02*
X53524Y-24534D01*
X48500Y-24614D02*
X48542Y-24614D01*
X49630Y-24614D02*
X49654Y-24614D01*
X50619Y-24614D02*
X50643Y-24614D01*
X51515Y-24614D02*
X51613Y-24614D01*
X53188Y-24614D02*
X53604Y-24614D01*
X48428Y-24694D02*
X48462Y-24694D01*
X48580Y-24694D02*
X48614Y-24694D01*
X49630Y-24694D02*
X49654Y-24694D01*
X50619Y-24694D02*
X50643Y-24694D01*
X51489Y-24694D02*
X51665Y-24694D01*
X53137Y-24694D02*
X53684Y-24694D01*
X48348Y-24774D02*
X48382Y-24774D01*
X48660Y-24774D02*
X48694Y-24774D01*
X49630Y-24774D02*
X49654Y-24774D01*
X50619Y-24774D02*
X50643Y-24774D01*
X51428Y-24774D02*
X51745Y-24774D01*
X53057Y-24774D02*
X53764Y-24774D01*
X48268Y-24854D02*
X48302Y-24854D01*
X48740Y-24854D02*
X48774Y-24854D01*
X49630Y-24854D02*
X49654Y-24854D01*
X50619Y-24854D02*
X50643Y-24854D01*
X51349Y-24854D02*
X51882Y-24854D01*
X52919Y-24854D02*
X53844Y-24854D01*
X48188Y-24934D02*
X48222Y-24934D01*
X48820Y-24934D02*
X48854Y-24934D01*
X49630Y-24934D02*
X49654Y-24934D01*
X50619Y-24934D02*
X50643Y-24934D01*
X51230Y-24934D02*
X53924Y-24934D01*
X48000Y-25014D02*
X48142Y-25014D01*
X48900Y-25014D02*
X48947Y-25014D01*
X49630Y-25014D02*
X49654Y-25014D01*
X50336Y-25014D02*
X54004Y-25014D01*
X47947Y-25094D02*
X48141Y-25094D01*
X48900Y-25094D02*
X50365Y-25094D01*
X51327Y-25094D02*
X51665Y-25094D01*
X52627Y-25094D02*
X54084Y-25094D01*
X47853Y-25174D02*
X48139Y-25174D01*
X48846Y-25174D02*
X48965Y-25174D01*
X51378Y-25174D02*
X51615Y-25174D01*
X52678Y-25174D02*
X54164Y-25174D01*
X47933Y-25254D02*
X48059Y-25254D01*
X48883Y-25254D02*
X48937Y-25254D01*
X51395Y-25254D02*
X51597Y-25254D01*
X52695Y-25254D02*
X54244Y-25254D01*
X51395Y-25334D02*
X51597Y-25334D01*
X52695Y-25334D02*
X54324Y-25334D01*
X51395Y-25414D02*
X51597Y-25414D01*
X52695Y-25414D02*
X54404Y-25414D01*
X51395Y-25494D02*
X51597Y-25494D01*
X52695Y-25494D02*
X54484Y-25494D01*
X51395Y-25574D02*
X51597Y-25574D01*
X52695Y-25574D02*
X54564Y-25574D01*
X51395Y-25654D02*
X51597Y-25654D01*
X52695Y-25654D02*
X54644Y-25654D01*
X51395Y-25734D02*
X51597Y-25734D01*
X52768Y-25734D02*
X54724Y-25734D01*
X51395Y-25814D02*
X51597Y-25814D01*
X52848Y-25814D02*
X54804Y-25814D01*
X51395Y-25894D02*
X51597Y-25894D01*
X52928Y-25894D02*
X54884Y-25894D01*
X51395Y-25974D02*
X51597Y-25974D01*
X53008Y-25974D02*
X54964Y-25974D01*
X51395Y-26054D02*
X51597Y-26054D01*
X53088Y-26054D02*
X55044Y-26054D01*
X51387Y-26134D02*
X51605Y-26134D01*
X53168Y-26134D02*
X55124Y-26134D01*
X51349Y-26214D02*
X51643Y-26214D01*
X53248Y-26214D02*
X55204Y-26214D01*
X51243Y-26294D02*
X51748Y-26294D01*
X53328Y-26294D02*
X55284Y-26294D01*
X50944Y-26374D02*
X52488Y-26374D01*
X53408Y-26374D02*
X55364Y-26374D01*
X51227Y-26454D02*
X51805Y-26454D01*
X53488Y-26454D02*
X55444Y-26454D01*
X51319Y-26534D02*
X51713Y-26534D01*
X53568Y-26534D02*
X55524Y-26534D01*
X51399Y-26614D02*
X51634Y-26614D01*
X53648Y-26614D02*
X55604Y-26614D01*
X51432Y-26694D02*
X51601Y-26694D01*
X53728Y-26694D02*
X55684Y-26694D01*
X51465Y-26774D02*
X51567Y-26774D01*
X53808Y-26774D02*
X55764Y-26774D01*
X51480Y-26854D02*
X51552Y-26854D01*
X53888Y-26854D02*
X55844Y-26854D01*
X49771Y-26934D02*
X49782Y-26934D01*
X51480Y-26934D02*
X51552Y-26934D01*
X53968Y-26934D02*
X54297Y-26934D01*
X55213Y-26934D02*
X55597Y-26934D01*
X49691Y-27014D02*
X49782Y-27014D01*
X51480Y-27014D02*
X51552Y-27014D01*
X54048Y-27014D02*
X54233Y-27014D01*
X55278Y-27014D02*
X55533Y-27014D01*
X49611Y-27094D02*
X49811Y-27094D01*
X51450Y-27094D02*
X51581Y-27094D01*
X54128Y-27094D02*
X54206Y-27094D01*
X55304Y-27094D02*
X55506Y-27094D01*
X49531Y-27174D02*
X49844Y-27174D01*
X51417Y-27174D02*
X51614Y-27174D01*
X53187Y-27174D02*
X53289Y-27174D01*
X55304Y-27174D02*
X55506Y-27174D01*
X57505Y-27174D02*
X57707Y-27174D01*
X49451Y-27254D02*
X49897Y-27254D01*
X51365Y-27254D02*
X51667Y-27254D01*
X53135Y-27254D02*
X53369Y-27254D01*
X55304Y-27254D02*
X55506Y-27254D01*
X57505Y-27254D02*
X57707Y-27254D01*
X49371Y-27334D02*
X49977Y-27334D01*
X51285Y-27334D02*
X51747Y-27334D01*
X53055Y-27334D02*
X53449Y-27334D01*
X55304Y-27334D02*
X55506Y-27334D01*
X57505Y-27334D02*
X57707Y-27334D01*
X49337Y-27414D02*
X50117Y-27414D01*
X51144Y-27414D02*
X51887Y-27414D01*
X52914Y-27414D02*
X53529Y-27414D01*
X55304Y-27414D02*
X55506Y-27414D01*
X57505Y-27414D02*
X57707Y-27414D01*
X49337Y-27494D02*
X53609Y-27494D01*
X55304Y-27494D02*
X55506Y-27494D01*
X57505Y-27494D02*
X57707Y-27494D01*
X49337Y-27574D02*
X53689Y-27574D01*
X55304Y-27574D02*
X55506Y-27574D01*
X57505Y-27574D02*
X57707Y-27574D01*
X49337Y-27654D02*
X53769Y-27654D01*
X55304Y-27654D02*
X55506Y-27654D01*
X57505Y-27654D02*
X57707Y-27654D01*
X49337Y-27734D02*
X53849Y-27734D01*
X55304Y-27734D02*
X55506Y-27734D01*
X57505Y-27734D02*
X57707Y-27734D01*
X49337Y-27814D02*
X53956Y-27814D01*
X55304Y-27814D02*
X55506Y-27814D01*
X57505Y-27814D02*
X57707Y-27814D01*
X49337Y-27894D02*
X54206Y-27894D01*
X55304Y-27894D02*
X55506Y-27894D01*
X57505Y-27894D02*
X57707Y-27894D01*
X49695Y-27974D02*
X49803Y-27974D01*
X50240Y-27974D02*
X54206Y-27974D01*
X55304Y-27974D02*
X55506Y-27974D01*
X57505Y-27974D02*
X57623Y-27974D01*
X49737Y-28054D02*
X49761Y-28054D01*
X50333Y-28054D02*
X50427Y-28054D01*
X51272Y-28054D02*
X54237Y-28054D01*
X55272Y-28054D02*
X55537Y-28054D01*
X57471Y-28054D02*
X57559Y-28054D01*
X49737Y-28134D02*
X49761Y-28134D01*
X51371Y-28134D02*
X54309Y-28134D01*
X55201Y-28134D02*
X55609Y-28134D01*
X56500Y-28134D02*
X56514Y-28134D01*
X57398Y-28134D02*
X57526Y-28134D01*
X49737Y-28214D02*
X49761Y-28214D01*
X51407Y-28214D02*
X57516Y-28214D01*
X49737Y-28294D02*
X49761Y-28294D01*
X51413Y-28294D02*
X57516Y-28294D01*
X49737Y-28374D02*
X49761Y-28374D01*
X51413Y-28374D02*
X57516Y-28374D01*
X49737Y-28454D02*
X49761Y-28454D01*
X51413Y-28454D02*
X57528Y-28454D01*
X49737Y-28534D02*
X49761Y-28534D01*
X51413Y-28534D02*
X58232Y-28534D01*
X49737Y-28614D02*
X49761Y-28614D01*
X51413Y-28614D02*
X57540Y-28614D01*
X51413Y-28694D02*
X57515Y-28694D01*
X51413Y-28774D02*
X57515Y-28774D01*
X51413Y-28854D02*
X57515Y-28854D01*
X51413Y-28934D02*
X57520Y-28934D01*
X51413Y-29014D02*
X53059Y-29014D01*
X54012Y-29014D02*
X57553Y-29014D01*
X54102Y-29094D02*
X57610Y-29094D01*
X54135Y-29174D02*
X57664Y-29174D01*
X54139Y-29254D02*
X57625Y-29254D01*
X54139Y-29334D02*
X57616Y-29334D01*
X54139Y-29414D02*
X57616Y-29414D01*
X54139Y-29494D02*
X57616Y-29494D01*
X54139Y-29574D02*
X57616Y-29574D01*
X54139Y-29654D02*
X57616Y-29654D01*
X49450Y-29734D02*
X52761Y-29734D01*
X54139Y-29734D02*
X57616Y-29734D01*
X49501Y-29814D02*
X52860Y-29814D01*
X54139Y-29814D02*
X57616Y-29814D01*
X49696Y-29894D02*
X52931Y-29894D01*
X54139Y-29894D02*
X57616Y-29894D01*
X49776Y-29974D02*
X52956Y-29974D01*
X54113Y-29974D02*
X57616Y-29974D01*
X49821Y-30054D02*
X52966Y-30054D01*
X54105Y-30054D02*
X57636Y-30054D01*
X49855Y-30134D02*
X52886Y-30134D01*
X54185Y-30134D02*
X57692Y-30134D01*
X48626Y-30214D02*
X48686Y-30214D01*
X49855Y-30214D02*
X52852Y-30214D01*
X54219Y-30214D02*
X58306Y-30214D01*
X48543Y-30294D02*
X48686Y-30294D01*
X49853Y-30294D02*
X52831Y-30294D01*
X54240Y-30294D02*
X58226Y-30294D01*
X48523Y-30374D02*
X48686Y-30374D01*
X49819Y-30374D02*
X52831Y-30374D01*
X54240Y-30374D02*
X58146Y-30374D01*
X48502Y-30454D02*
X48686Y-30454D01*
X49773Y-30454D02*
X52831Y-30454D01*
X54240Y-30454D02*
X58066Y-30454D01*
X48447Y-30534D02*
X48686Y-30534D01*
X49693Y-30534D02*
X52831Y-30534D01*
X54240Y-30534D02*
X57999Y-30534D01*
X58954Y-30534D02*
X58985Y-30534D01*
X48234Y-30614D02*
X48686Y-30614D01*
X49570Y-30614D02*
X52895Y-30614D01*
X54175Y-30614D02*
X57950Y-30614D01*
X58825Y-30614D02*
X58985Y-30614D01*
X48234Y-30694D02*
X48686Y-30694D01*
X49570Y-30694D02*
X52883Y-30694D01*
X53523Y-30694D02*
X53547Y-30694D01*
X54187Y-30694D02*
X57934Y-30694D01*
X58745Y-30694D02*
X58985Y-30694D01*
X48234Y-30774D02*
X48686Y-30774D01*
X49570Y-30774D02*
X52830Y-30774D01*
X53523Y-30774D02*
X53547Y-30774D01*
X54239Y-30774D02*
X57927Y-30774D01*
X58665Y-30774D02*
X58985Y-30774D01*
X48229Y-30854D02*
X48686Y-30854D01*
X49570Y-30854D02*
X52388Y-30854D01*
X52711Y-30854D02*
X52830Y-30854D01*
X53523Y-30854D02*
X53547Y-30854D01*
X54239Y-30854D02*
X57927Y-30854D01*
X58585Y-30854D02*
X58985Y-30854D01*
X48213Y-30934D02*
X48686Y-30934D01*
X49570Y-30934D02*
X52248Y-30934D01*
X52786Y-30934D02*
X52810Y-30934D01*
X53523Y-30934D02*
X53547Y-30934D01*
X54239Y-30934D02*
X57927Y-30934D01*
X58577Y-30934D02*
X58985Y-30934D01*
X48170Y-31014D02*
X48686Y-31014D01*
X49570Y-31014D02*
X51209Y-31014D01*
X52786Y-31014D02*
X52810Y-31014D01*
X53523Y-31014D02*
X53547Y-31014D01*
X54239Y-31014D02*
X57142Y-31014D01*
X57615Y-31014D02*
X57927Y-31014D01*
X58577Y-31014D02*
X58985Y-31014D01*
X48106Y-31094D02*
X48686Y-31094D01*
X49570Y-31094D02*
X49679Y-31094D01*
X50951Y-31094D02*
X51155Y-31094D01*
X52786Y-31094D02*
X52810Y-31094D01*
X53523Y-31094D02*
X53547Y-31094D01*
X54213Y-31094D02*
X57062Y-31094D01*
X57695Y-31094D02*
X57927Y-31094D01*
X58577Y-31094D02*
X58985Y-31094D01*
X48026Y-31174D02*
X48686Y-31174D01*
X49570Y-31174D02*
X49617Y-31174D01*
X51014Y-31174D02*
X51134Y-31174D01*
X52786Y-31174D02*
X52810Y-31174D01*
X53523Y-31174D02*
X53547Y-31174D01*
X54172Y-31174D02*
X57023Y-31174D01*
X57735Y-31174D02*
X57927Y-31174D01*
X58577Y-31174D02*
X58985Y-31174D01*
X47946Y-31254D02*
X48686Y-31254D01*
X49570Y-31254D02*
X49591Y-31254D01*
X51039Y-31254D02*
X51134Y-31254D01*
X52786Y-31254D02*
X52810Y-31254D01*
X53494Y-31254D02*
X53575Y-31254D01*
X54092Y-31254D02*
X56992Y-31254D01*
X57764Y-31254D02*
X57927Y-31254D01*
X58577Y-31254D02*
X58985Y-31254D01*
X47866Y-31334D02*
X48686Y-31334D01*
X49570Y-31334D02*
X49591Y-31334D01*
X52786Y-31334D02*
X52810Y-31334D01*
X53463Y-31334D02*
X56992Y-31334D01*
X57764Y-31334D02*
X57927Y-31334D01*
X58577Y-31334D02*
X58985Y-31334D01*
X47786Y-31414D02*
X48686Y-31414D01*
X49570Y-31414D02*
X49591Y-31414D01*
X52786Y-31414D02*
X52810Y-31414D01*
X53463Y-31414D02*
X56997Y-31414D01*
X57758Y-31414D02*
X57927Y-31414D01*
X58577Y-31414D02*
X58985Y-31414D01*
X47706Y-31494D02*
X48686Y-31494D01*
X49570Y-31494D02*
X49591Y-31494D01*
X52786Y-31494D02*
X52810Y-31494D01*
X53417Y-31494D02*
X57031Y-31494D01*
X57724Y-31494D02*
X57927Y-31494D01*
X58577Y-31494D02*
X58985Y-31494D01*
X47626Y-31574D02*
X48686Y-31574D01*
X49570Y-31574D02*
X49591Y-31574D01*
X52786Y-31574D02*
X52810Y-31574D01*
X53391Y-31574D02*
X57053Y-31574D01*
X57703Y-31574D02*
X57927Y-31574D01*
X58577Y-31574D02*
X58985Y-31574D01*
X47546Y-31654D02*
X48686Y-31654D01*
X49570Y-31654D02*
X49591Y-31654D01*
X52786Y-31654D02*
X52810Y-31654D01*
X53462Y-31654D02*
X57053Y-31654D01*
X57703Y-31654D02*
X57927Y-31654D01*
X58577Y-31654D02*
X58985Y-31654D01*
X47439Y-31734D02*
X48686Y-31734D01*
X49570Y-31734D02*
X49591Y-31734D01*
X52786Y-31734D02*
X52810Y-31734D01*
X53462Y-31734D02*
X57053Y-31734D01*
X57703Y-31734D02*
X57927Y-31734D01*
X58577Y-31734D02*
X58985Y-31734D01*
X47344Y-31814D02*
X48638Y-31814D01*
X49570Y-31814D02*
X49591Y-31814D01*
X52786Y-31814D02*
X52810Y-31814D01*
X53462Y-31814D02*
X57053Y-31814D01*
X57703Y-31814D02*
X57927Y-31814D01*
X58577Y-31814D02*
X58985Y-31814D01*
X47344Y-31894D02*
X48558Y-31894D01*
X49570Y-31894D02*
X49591Y-31894D01*
X51039Y-31894D02*
X51134Y-31894D01*
X52786Y-31894D02*
X52810Y-31894D01*
X53462Y-31894D02*
X57053Y-31894D01*
X57703Y-31894D02*
X57927Y-31894D01*
X58577Y-31894D02*
X58985Y-31894D01*
X47344Y-31974D02*
X48197Y-31974D01*
X49570Y-31974D02*
X49591Y-31974D01*
X51039Y-31974D02*
X51143Y-31974D01*
X52786Y-31974D02*
X52810Y-31974D01*
X53461Y-31974D02*
X57053Y-31974D01*
X57703Y-31974D02*
X57927Y-31974D01*
X58577Y-31974D02*
X58985Y-31974D01*
X47344Y-32054D02*
X48000Y-32054D01*
X49565Y-32054D02*
X49591Y-32054D01*
X51039Y-32054D02*
X51183Y-32054D01*
X52786Y-32054D02*
X52810Y-32054D01*
X53428Y-32054D02*
X57053Y-32054D01*
X57703Y-32054D02*
X57927Y-32054D01*
X58577Y-32054D02*
X58985Y-32054D01*
X47344Y-32134D02*
X47917Y-32134D01*
X49549Y-32134D02*
X49591Y-32134D01*
X51039Y-32134D02*
X51292Y-32134D01*
X52103Y-32134D02*
X52221Y-32134D01*
X52786Y-32134D02*
X52810Y-32134D01*
X53374Y-32134D02*
X56317Y-32134D01*
X56605Y-32134D02*
X57008Y-32134D01*
X57703Y-32134D02*
X57927Y-32134D01*
X58577Y-32134D02*
X58985Y-32134D01*
X47344Y-32214D02*
X47837Y-32214D01*
X49499Y-32214D02*
X49591Y-32214D01*
X51039Y-32214D02*
X52324Y-32214D01*
X52737Y-32214D02*
X52859Y-32214D01*
X53271Y-32214D02*
X56194Y-32214D01*
X57703Y-32214D02*
X57927Y-32214D01*
X58577Y-32214D02*
X58985Y-32214D01*
X47344Y-32294D02*
X47770Y-32294D01*
X49427Y-32294D02*
X49591Y-32294D01*
X51039Y-32294D02*
X56126Y-32294D01*
X57688Y-32294D02*
X57927Y-32294D01*
X58577Y-32294D02*
X58985Y-32294D01*
X47344Y-32374D02*
X47728Y-32374D01*
X49347Y-32374D02*
X49591Y-32374D01*
X51039Y-32374D02*
X56093Y-32374D01*
X57660Y-32374D02*
X57927Y-32374D01*
X58577Y-32374D02*
X58985Y-32374D01*
X47344Y-32454D02*
X47712Y-32454D01*
X49267Y-32454D02*
X49591Y-32454D01*
X51039Y-32454D02*
X56075Y-32454D01*
X57608Y-32454D02*
X57927Y-32454D01*
X58577Y-32454D02*
X58985Y-32454D01*
X47344Y-32534D02*
X47710Y-32534D01*
X49187Y-32534D02*
X49591Y-32534D01*
X51039Y-32534D02*
X56075Y-32534D01*
X57528Y-32534D02*
X57927Y-32534D01*
X58577Y-32534D02*
X58985Y-32534D01*
X47344Y-32614D02*
X47710Y-32614D01*
X49107Y-32614D02*
X49603Y-32614D01*
X51026Y-32614D02*
X56093Y-32614D01*
X57448Y-32614D02*
X57927Y-32614D01*
X58577Y-32614D02*
X58985Y-32614D01*
X47313Y-32694D02*
X47710Y-32694D01*
X49027Y-32694D02*
X49647Y-32694D01*
X50983Y-32694D02*
X56126Y-32694D01*
X57368Y-32694D02*
X57927Y-32694D01*
X58577Y-32694D02*
X58985Y-32694D01*
X47321Y-32774D02*
X47710Y-32774D01*
X48932Y-32774D02*
X49766Y-32774D01*
X50863Y-32774D02*
X56197Y-32774D01*
X57261Y-32774D02*
X57927Y-32774D01*
X58577Y-32774D02*
X58985Y-32774D01*
X46728Y-32854D02*
X46752Y-32854D01*
X47395Y-32854D02*
X47710Y-32854D01*
X48510Y-32854D02*
X56326Y-32854D01*
X56595Y-32854D02*
X57927Y-32854D01*
X58577Y-32854D02*
X58985Y-32854D01*
X46728Y-32934D02*
X46752Y-32934D01*
X47428Y-32934D02*
X47710Y-32934D01*
X48510Y-32934D02*
X57927Y-32934D01*
X58577Y-32934D02*
X58985Y-32934D01*
X46728Y-33014D02*
X46752Y-33014D01*
X47445Y-33014D02*
X47710Y-33014D01*
X48510Y-33014D02*
X57927Y-33014D01*
X58577Y-33014D02*
X58985Y-33014D01*
X46728Y-33094D02*
X46752Y-33094D01*
X47445Y-33094D02*
X47710Y-33094D01*
X48510Y-33094D02*
X57927Y-33094D01*
X58577Y-33094D02*
X58985Y-33094D01*
X46728Y-33174D02*
X46752Y-33174D01*
X47445Y-33174D02*
X47710Y-33174D01*
X48510Y-33174D02*
X57927Y-33174D01*
X58577Y-33174D02*
X58985Y-33174D01*
X46728Y-33254D02*
X46752Y-33254D01*
X47445Y-33254D02*
X47710Y-33254D01*
X48510Y-33254D02*
X57927Y-33254D01*
X58577Y-33254D02*
X58985Y-33254D01*
X45567Y-33334D02*
X46111Y-33334D01*
X46728Y-33334D02*
X46752Y-33334D01*
X47369Y-33334D02*
X47710Y-33334D01*
X48510Y-33334D02*
X49689Y-33334D01*
X50941Y-33334D02*
X57927Y-33334D01*
X58577Y-33334D02*
X58985Y-33334D01*
X45487Y-33414D02*
X46077Y-33414D01*
X47403Y-33414D02*
X47710Y-33414D01*
X48510Y-33414D02*
X49621Y-33414D01*
X51010Y-33414D02*
X57927Y-33414D01*
X58577Y-33414D02*
X58985Y-33414D01*
X45407Y-33494D02*
X46035Y-33494D01*
X47444Y-33494D02*
X47710Y-33494D01*
X48510Y-33494D02*
X49591Y-33494D01*
X51039Y-33494D02*
X57927Y-33494D01*
X58577Y-33494D02*
X58985Y-33494D01*
X45407Y-33574D02*
X46035Y-33574D01*
X47444Y-33574D02*
X47710Y-33574D01*
X48510Y-33574D02*
X49591Y-33574D01*
X51039Y-33574D02*
X57927Y-33574D01*
X58577Y-33574D02*
X58985Y-33574D01*
X45407Y-33654D02*
X46035Y-33654D01*
X47444Y-33654D02*
X47710Y-33654D01*
X48510Y-33654D02*
X49591Y-33654D01*
X51039Y-33654D02*
X55230Y-33654D01*
X55408Y-33654D02*
X55986Y-33654D01*
X56164Y-33654D02*
X57927Y-33654D01*
X58577Y-33654D02*
X58985Y-33654D01*
X45407Y-33734D02*
X46035Y-33734D01*
X47444Y-33734D02*
X47710Y-33734D01*
X48510Y-33734D02*
X49591Y-33734D01*
X51039Y-33734D02*
X55075Y-33734D01*
X55564Y-33734D02*
X55831Y-33734D01*
X57592Y-33734D02*
X57927Y-33734D01*
X58577Y-33734D02*
X58985Y-33734D01*
X45407Y-33814D02*
X46066Y-33814D01*
X47413Y-33814D02*
X47705Y-33814D01*
X48510Y-33814D02*
X49591Y-33814D01*
X51039Y-33814D02*
X54995Y-33814D01*
X55644Y-33814D02*
X55751Y-33814D01*
X57708Y-33814D02*
X57927Y-33814D01*
X58577Y-33814D02*
X58985Y-33814D01*
X45407Y-33894D02*
X46113Y-33894D01*
X47366Y-33894D02*
X47625Y-33894D01*
X48510Y-33894D02*
X49591Y-33894D01*
X51039Y-33894D02*
X52334Y-33894D01*
X52739Y-33894D02*
X52865Y-33894D01*
X53271Y-33894D02*
X54960Y-33894D01*
X55679Y-33894D02*
X55716Y-33894D01*
X57787Y-33894D02*
X57927Y-33894D01*
X58577Y-33894D02*
X58985Y-33894D01*
X46100Y-33974D02*
X46201Y-33974D01*
X47400Y-33974D02*
X47545Y-33974D01*
X48510Y-33974D02*
X49591Y-33974D01*
X51039Y-33974D02*
X51302Y-33974D01*
X52103Y-33974D02*
X52228Y-33974D01*
X52790Y-33974D02*
X52814Y-33974D01*
X53377Y-33974D02*
X54933Y-33974D01*
X57867Y-33974D02*
X57927Y-33974D01*
X58577Y-33974D02*
X58967Y-33974D01*
X46162Y-34054D02*
X46413Y-34054D01*
X47462Y-34054D02*
X47465Y-34054D01*
X48510Y-34054D02*
X49591Y-34054D01*
X51039Y-34054D02*
X51189Y-34054D01*
X52790Y-34054D02*
X52814Y-34054D01*
X53432Y-34054D02*
X54933Y-34054D01*
X58674Y-34054D02*
X58868Y-34054D01*
X46186Y-34134D02*
X46388Y-34134D01*
X48510Y-34134D02*
X49591Y-34134D01*
X51039Y-34134D02*
X51149Y-34134D01*
X52790Y-34134D02*
X52814Y-34134D01*
X53465Y-34134D02*
X54942Y-34134D01*
X58760Y-34134D02*
X58837Y-34134D01*
X44288Y-34214D02*
X44634Y-34214D01*
X46186Y-34214D02*
X46388Y-34214D01*
X48510Y-34214D02*
X49591Y-34214D01*
X51039Y-34214D02*
X51138Y-34214D01*
X52790Y-34214D02*
X52814Y-34214D01*
X53466Y-34214D02*
X54975Y-34214D01*
X58793Y-34214D02*
X58830Y-34214D01*
X44288Y-34294D02*
X44554Y-34294D01*
X46186Y-34294D02*
X46388Y-34294D01*
X48498Y-34294D02*
X49591Y-34294D01*
X52790Y-34294D02*
X52814Y-34294D01*
X53467Y-34294D02*
X55029Y-34294D01*
X58796Y-34294D02*
X58830Y-34294D01*
X44288Y-34374D02*
X44507Y-34374D01*
X46186Y-34374D02*
X46388Y-34374D01*
X48469Y-34374D02*
X49591Y-34374D01*
X52790Y-34374D02*
X52814Y-34374D01*
X53467Y-34374D02*
X54979Y-34374D01*
X58796Y-34374D02*
X58830Y-34374D01*
X44288Y-34454D02*
X44474Y-34454D01*
X46186Y-34454D02*
X46388Y-34454D01*
X48412Y-34454D02*
X49591Y-34454D01*
X52790Y-34454D02*
X52814Y-34454D01*
X53467Y-34454D02*
X54945Y-34454D01*
X58796Y-34454D02*
X58830Y-34454D01*
X44288Y-34534D02*
X44465Y-34534D01*
X46186Y-34534D02*
X46388Y-34534D01*
X48332Y-34534D02*
X49591Y-34534D01*
X52790Y-34534D02*
X52814Y-34534D01*
X53397Y-34534D02*
X54933Y-34534D01*
X58796Y-34534D02*
X58830Y-34534D01*
X44288Y-34614D02*
X44465Y-34614D01*
X46186Y-34614D02*
X46388Y-34614D01*
X48252Y-34614D02*
X49591Y-34614D01*
X52790Y-34614D02*
X52814Y-34614D01*
X53419Y-34614D02*
X54933Y-34614D01*
X58796Y-34614D02*
X58830Y-34614D01*
X44288Y-34694D02*
X44485Y-34694D01*
X46186Y-34694D02*
X46388Y-34694D01*
X48172Y-34694D02*
X49591Y-34694D01*
X52790Y-34694D02*
X52814Y-34694D01*
X53466Y-34694D02*
X54918Y-34694D01*
X58796Y-34694D02*
X58830Y-34694D01*
X44288Y-34774D02*
X44518Y-34774D01*
X46186Y-34774D02*
X46388Y-34774D01*
X48092Y-34774D02*
X49591Y-34774D01*
X52790Y-34774D02*
X52814Y-34774D01*
X53466Y-34774D02*
X54812Y-34774D01*
X58796Y-34774D02*
X58830Y-34774D01*
X44288Y-34854D02*
X44584Y-34854D01*
X46186Y-34854D02*
X46388Y-34854D01*
X48012Y-34854D02*
X49599Y-34854D01*
X51030Y-34854D02*
X51138Y-34854D01*
X52790Y-34854D02*
X52814Y-34854D01*
X53466Y-34854D02*
X54757Y-34854D01*
X58787Y-34854D02*
X58830Y-34854D01*
X44288Y-34934D02*
X44685Y-34934D01*
X46186Y-34934D02*
X46388Y-34934D01*
X47932Y-34934D02*
X48792Y-34934D01*
X49263Y-34934D02*
X49349Y-34934D01*
X50993Y-34934D02*
X51138Y-34934D01*
X52790Y-34934D02*
X52814Y-34934D01*
X53466Y-34934D02*
X54724Y-34934D01*
X58781Y-34934D02*
X58830Y-34934D01*
X44288Y-35014D02*
X45088Y-35014D01*
X46185Y-35014D02*
X46388Y-35014D01*
X48655Y-35014D02*
X48712Y-35014D01*
X49294Y-35014D02*
X49318Y-35014D01*
X50887Y-35014D02*
X51157Y-35014D01*
X52790Y-35014D02*
X52814Y-35014D01*
X53455Y-35014D02*
X54721Y-35014D01*
X58796Y-35014D02*
X58830Y-35014D01*
X44288Y-35094D02*
X45122Y-35094D01*
X46152Y-35094D02*
X46422Y-35094D01*
X49294Y-35094D02*
X49318Y-35094D01*
X49944Y-35094D02*
X51211Y-35094D01*
X52790Y-35094D02*
X52814Y-35094D01*
X53422Y-35094D02*
X54721Y-35094D01*
X58796Y-35094D02*
X58830Y-35094D01*
X44288Y-35174D02*
X45087Y-35174D01*
X46166Y-35174D02*
X46387Y-35174D01*
X49294Y-35174D02*
X49318Y-35174D01*
X49970Y-35174D02*
X52249Y-35174D01*
X52790Y-35174D02*
X52814Y-35174D01*
X53354Y-35174D02*
X54721Y-35174D01*
X58796Y-35174D02*
X58830Y-35174D01*
X44288Y-35254D02*
X44675Y-35254D01*
X46175Y-35254D02*
X46377Y-35254D01*
X49294Y-35254D02*
X49318Y-35254D01*
X49970Y-35254D02*
X52386Y-35254D01*
X52717Y-35254D02*
X52887Y-35254D01*
X53217Y-35254D02*
X54749Y-35254D01*
X58796Y-35254D02*
X58830Y-35254D01*
X44288Y-35334D02*
X44573Y-35334D01*
X46175Y-35334D02*
X46377Y-35334D01*
X49294Y-35334D02*
X49318Y-35334D01*
X49971Y-35334D02*
X55667Y-35334D01*
X58796Y-35334D02*
X58830Y-35334D01*
X44288Y-35414D02*
X44508Y-35414D01*
X46175Y-35414D02*
X46377Y-35414D01*
X49294Y-35414D02*
X49318Y-35414D01*
X49971Y-35414D02*
X54729Y-35414D01*
X55413Y-35414D02*
X55437Y-35414D01*
X58796Y-35414D02*
X58830Y-35414D01*
X44288Y-35494D02*
X44475Y-35494D01*
X46175Y-35494D02*
X46377Y-35494D01*
X49294Y-35494D02*
X49318Y-35494D01*
X49961Y-35494D02*
X54720Y-35494D01*
X55413Y-35494D02*
X55437Y-35494D01*
X58796Y-35494D02*
X58830Y-35494D01*
X44288Y-35574D02*
X44453Y-35574D01*
X46175Y-35574D02*
X46377Y-35574D01*
X47608Y-35574D02*
X47642Y-35574D01*
X48770Y-35574D02*
X54720Y-35574D01*
X55413Y-35574D02*
X55437Y-35574D01*
X58796Y-35574D02*
X58830Y-35574D01*
X44288Y-35654D02*
X44453Y-35654D01*
X46175Y-35654D02*
X46377Y-35654D01*
X47528Y-35654D02*
X47642Y-35654D01*
X49294Y-35654D02*
X49318Y-35654D01*
X49943Y-35654D02*
X54720Y-35654D01*
X55413Y-35654D02*
X55437Y-35654D01*
X58766Y-35654D02*
X58830Y-35654D01*
X44288Y-35734D02*
X44461Y-35734D01*
X46175Y-35734D02*
X46377Y-35734D01*
X47475Y-35734D02*
X47642Y-35734D01*
X49294Y-35734D02*
X49318Y-35734D01*
X49970Y-35734D02*
X54731Y-35734D01*
X55413Y-35734D02*
X55437Y-35734D01*
X58698Y-35734D02*
X58830Y-35734D01*
X44288Y-35814D02*
X44494Y-35814D01*
X46175Y-35814D02*
X46377Y-35814D01*
X47475Y-35814D02*
X47642Y-35814D01*
X49294Y-35814D02*
X49318Y-35814D01*
X49970Y-35814D02*
X54764Y-35814D01*
X55413Y-35814D02*
X55437Y-35814D01*
X58577Y-35814D02*
X58830Y-35814D01*
X44288Y-35894D02*
X44541Y-35894D01*
X46175Y-35894D02*
X46377Y-35894D01*
X47475Y-35894D02*
X47642Y-35894D01*
X49294Y-35894D02*
X49318Y-35894D01*
X49970Y-35894D02*
X54831Y-35894D01*
X58565Y-35894D02*
X58830Y-35894D01*
X44288Y-35974D02*
X44621Y-35974D01*
X46175Y-35974D02*
X46377Y-35974D01*
X47475Y-35974D02*
X47642Y-35974D01*
X49294Y-35974D02*
X49318Y-35974D01*
X49970Y-35974D02*
X54857Y-35974D01*
X58542Y-35974D02*
X58830Y-35974D01*
X44288Y-36054D02*
X44790Y-36054D01*
X44964Y-36054D02*
X45077Y-36054D01*
X46175Y-36054D02*
X46377Y-36054D01*
X47475Y-36054D02*
X47669Y-36054D01*
X49294Y-36054D02*
X49318Y-36054D01*
X49950Y-36054D02*
X54824Y-36054D01*
X58489Y-36054D02*
X58830Y-36054D01*
X44288Y-36134D02*
X45093Y-36134D01*
X46159Y-36134D02*
X46393Y-36134D01*
X47459Y-36134D02*
X47735Y-36134D01*
X48676Y-36134D02*
X48694Y-36134D01*
X49294Y-36134D02*
X49318Y-36134D01*
X49917Y-36134D02*
X54821Y-36134D01*
X58413Y-36134D02*
X58830Y-36134D01*
X44288Y-36214D02*
X45142Y-36214D01*
X46110Y-36214D02*
X46442Y-36214D01*
X47410Y-36214D02*
X48773Y-36214D01*
X49281Y-36214D02*
X49331Y-36214D01*
X49838Y-36214D02*
X54821Y-36214D01*
X58257Y-36214D02*
X58830Y-36214D01*
X44288Y-36294D02*
X45273Y-36294D01*
X45977Y-36294D02*
X46573Y-36294D01*
X47277Y-36294D02*
X54821Y-36294D01*
X57742Y-36294D02*
X58830Y-36294D01*
X44288Y-36374D02*
X54741Y-36374D01*
X57701Y-36374D02*
X58830Y-36374D01*
X44288Y-36454D02*
X54661Y-36454D01*
X57586Y-36454D02*
X58830Y-36454D01*
X44288Y-36534D02*
X54581Y-36534D01*
X56692Y-36534D02*
X58830Y-36534D01*
X44288Y-36614D02*
X53810Y-36614D01*
X56106Y-36614D02*
X58830Y-36614D01*
X44288Y-36694D02*
X53720Y-36694D01*
X56029Y-36694D02*
X58830Y-36694D01*
X44288Y-36774D02*
X50208Y-36774D01*
X51056Y-36774D02*
X51978Y-36774D01*
X52826Y-36774D02*
X53640Y-36774D01*
X56029Y-36774D02*
X58830Y-36774D01*
X44288Y-36854D02*
X45990Y-36854D01*
X46279Y-36854D02*
X50014Y-36854D01*
X51248Y-36854D02*
X51784Y-36854D01*
X53018Y-36854D02*
X53560Y-36854D01*
X56001Y-36854D02*
X58830Y-36854D01*
X44288Y-36934D02*
X45780Y-36934D01*
X46675Y-36934D02*
X47612Y-36934D01*
X48641Y-36934D02*
X48815Y-36934D01*
X49825Y-36934D02*
X49934Y-36934D01*
X51329Y-36934D02*
X51704Y-36934D01*
X55937Y-36934D02*
X58830Y-36934D01*
X44288Y-37014D02*
X45569Y-37014D01*
X46853Y-37014D02*
X47516Y-37014D01*
X51403Y-37014D02*
X51630Y-37014D01*
X55241Y-37014D02*
X58830Y-37014D01*
X44288Y-37094D02*
X45465Y-37094D01*
X46984Y-37094D02*
X47483Y-37094D01*
X51436Y-37094D02*
X51597Y-37094D01*
X55265Y-37094D02*
X56075Y-37094D01*
X44288Y-37174D02*
X45426Y-37174D01*
X47023Y-37174D02*
X47477Y-37174D01*
X51469Y-37174D02*
X51564Y-37174D01*
X55265Y-37174D02*
X55988Y-37174D01*
X44288Y-37254D02*
X45387Y-37254D01*
X47062Y-37254D02*
X47477Y-37254D01*
X51480Y-37254D02*
X51552Y-37254D01*
X54589Y-37254D02*
X54613Y-37254D01*
X55266Y-37254D02*
X55908Y-37254D01*
X44288Y-37334D02*
X45247Y-37334D01*
X45427Y-37334D02*
X45461Y-37334D01*
X46987Y-37334D02*
X47021Y-37334D01*
X47202Y-37334D02*
X47477Y-37334D01*
X51480Y-37334D02*
X51552Y-37334D01*
X54589Y-37334D02*
X54613Y-37334D01*
X55266Y-37334D02*
X55828Y-37334D01*
X44288Y-37414D02*
X45157Y-37414D01*
X45507Y-37414D02*
X45541Y-37414D01*
X46907Y-37414D02*
X46941Y-37414D01*
X47302Y-37414D02*
X47477Y-37414D01*
X51480Y-37414D02*
X51552Y-37414D01*
X54589Y-37414D02*
X54613Y-37414D01*
X55249Y-37414D02*
X55748Y-37414D01*
X44288Y-37494D02*
X45121Y-37494D01*
X45587Y-37494D02*
X45621Y-37494D01*
X46827Y-37494D02*
X46861Y-37494D01*
X47338Y-37494D02*
X47477Y-37494D01*
X51447Y-37494D02*
X51584Y-37494D01*
X54065Y-37494D02*
X55668Y-37494D01*
X44288Y-37574D02*
X45085Y-37574D01*
X45667Y-37574D02*
X45701Y-37574D01*
X46747Y-37574D02*
X46781Y-37574D01*
X47368Y-37574D02*
X47477Y-37574D01*
X51413Y-37574D02*
X51617Y-37574D01*
X54589Y-37574D02*
X54613Y-37574D01*
X55245Y-37574D02*
X55588Y-37574D01*
X44288Y-37654D02*
X45049Y-37654D01*
X45747Y-37654D02*
X45781Y-37654D01*
X46667Y-37654D02*
X46701Y-37654D01*
X47399Y-37654D02*
X47477Y-37654D01*
X54589Y-37654D02*
X54613Y-37654D01*
X55265Y-37654D02*
X55508Y-37654D01*
X44288Y-37734D02*
X45013Y-37734D01*
X45827Y-37734D02*
X45861Y-37734D01*
X46587Y-37734D02*
X46621Y-37734D01*
X47429Y-37734D02*
X47477Y-37734D01*
X54589Y-37734D02*
X54613Y-37734D01*
X55265Y-37734D02*
X55428Y-37734D01*
X44288Y-37814D02*
X44977Y-37814D01*
X45907Y-37814D02*
X45941Y-37814D01*
X46507Y-37814D02*
X46541Y-37814D01*
X47459Y-37814D02*
X47480Y-37814D01*
X49966Y-37814D02*
X50138Y-37814D01*
X51838Y-37814D02*
X51909Y-37814D01*
X54589Y-37814D02*
X54613Y-37814D01*
X55265Y-37814D02*
X55348Y-37814D01*
X44288Y-37894D02*
X44969Y-37894D01*
X45987Y-37894D02*
X46021Y-37894D01*
X46427Y-37894D02*
X46461Y-37894D01*
X47490Y-37894D02*
X47513Y-37894D01*
X49932Y-37894D02*
X50750Y-37894D01*
X51848Y-37894D02*
X52050Y-37894D01*
X54589Y-37894D02*
X54613Y-37894D01*
X55265Y-37894D02*
X55268Y-37894D01*
X44288Y-37974D02*
X44967Y-37974D01*
X46067Y-37974D02*
X46101Y-37974D01*
X46347Y-37974D02*
X46381Y-37974D01*
X47489Y-37974D02*
X47601Y-37974D01*
X49852Y-37974D02*
X50750Y-37974D01*
X51848Y-37974D02*
X52050Y-37974D01*
X54589Y-37974D02*
X54613Y-37974D01*
X44288Y-38054D02*
X44965Y-38054D01*
X46147Y-38054D02*
X46181Y-38054D01*
X46267Y-38054D02*
X46301Y-38054D01*
X47487Y-38054D02*
X48121Y-38054D01*
X49558Y-38054D02*
X50750Y-38054D01*
X51848Y-38054D02*
X52050Y-38054D01*
X53964Y-38054D02*
X53995Y-38054D01*
X54589Y-38054D02*
X54613Y-38054D01*
X44333Y-38134D02*
X44962Y-38134D01*
X46187Y-38134D02*
X46221Y-38134D01*
X46227Y-38134D02*
X46261Y-38134D01*
X47485Y-38134D02*
X48027Y-38134D01*
X49496Y-38134D02*
X50750Y-38134D01*
X51848Y-38134D02*
X52050Y-38134D01*
X53663Y-38134D02*
X54075Y-38134D01*
X54569Y-38134D02*
X54633Y-38134D01*
X44413Y-38214D02*
X44960Y-38214D01*
X46107Y-38214D02*
X46141Y-38214D01*
X46307Y-38214D02*
X46341Y-38214D01*
X47482Y-38214D02*
X47661Y-38214D01*
X49777Y-38214D02*
X50750Y-38214D01*
X51848Y-38214D02*
X52050Y-38214D01*
X53583Y-38214D02*
X54949Y-38214D01*
X44493Y-38294D02*
X44957Y-38294D01*
X46027Y-38294D02*
X46061Y-38294D01*
X46387Y-38294D02*
X46421Y-38294D01*
X47480Y-38294D02*
X47536Y-38294D01*
X49905Y-38294D02*
X50750Y-38294D01*
X51848Y-38294D02*
X52050Y-38294D01*
X53503Y-38294D02*
X54869Y-38294D01*
X44573Y-38374D02*
X44973Y-38374D01*
X45947Y-38374D02*
X45981Y-38374D01*
X46467Y-38374D02*
X46501Y-38374D01*
X47477Y-38374D02*
X47491Y-38374D01*
X49953Y-38374D02*
X50750Y-38374D01*
X51848Y-38374D02*
X52050Y-38374D01*
X53424Y-38374D02*
X54789Y-38374D01*
X44653Y-38454D02*
X45004Y-38454D01*
X45867Y-38454D02*
X45901Y-38454D01*
X46547Y-38454D02*
X46581Y-38454D01*
X47453Y-38454D02*
X47477Y-38454D01*
X49968Y-38454D02*
X50750Y-38454D01*
X51848Y-38454D02*
X52050Y-38454D01*
X53344Y-38454D02*
X54709Y-38454D01*
X44733Y-38534D02*
X45034Y-38534D01*
X45787Y-38534D02*
X45821Y-38534D01*
X46627Y-38534D02*
X46661Y-38534D01*
X47417Y-38534D02*
X47477Y-38534D01*
X49968Y-38534D02*
X50750Y-38534D01*
X51848Y-38534D02*
X52050Y-38534D01*
X53256Y-38534D02*
X54629Y-38534D01*
X44813Y-38614D02*
X45064Y-38614D01*
X45707Y-38614D02*
X45741Y-38614D01*
X46707Y-38614D02*
X46741Y-38614D01*
X47381Y-38614D02*
X47477Y-38614D01*
X49968Y-38614D02*
X50750Y-38614D01*
X51848Y-38614D02*
X52050Y-38614D01*
X53148Y-38614D02*
X54549Y-38614D01*
X44893Y-38694D02*
X45095Y-38694D01*
X45627Y-38694D02*
X45661Y-38694D01*
X46787Y-38694D02*
X46821Y-38694D01*
X47345Y-38694D02*
X47477Y-38694D01*
X49968Y-38694D02*
X50750Y-38694D01*
X51848Y-38694D02*
X52050Y-38694D01*
X53148Y-38694D02*
X54469Y-38694D01*
X44973Y-38774D02*
X45125Y-38774D01*
X45547Y-38774D02*
X45581Y-38774D01*
X46867Y-38774D02*
X46901Y-38774D01*
X47309Y-38774D02*
X47477Y-38774D01*
X49968Y-38774D02*
X50765Y-38774D01*
X51832Y-38774D02*
X52065Y-38774D01*
X53132Y-38774D02*
X54389Y-38774D01*
X45053Y-38854D02*
X45172Y-38854D01*
X45467Y-38854D02*
X45501Y-38854D01*
X46947Y-38854D02*
X46981Y-38854D01*
X47273Y-38854D02*
X47477Y-38854D01*
X49968Y-38854D02*
X50814Y-38854D01*
X51784Y-38854D02*
X52114Y-38854D01*
X53084Y-38854D02*
X54309Y-38854D01*
X45133Y-38934D02*
X45328Y-38934D01*
X45387Y-38934D02*
X45421Y-38934D01*
X47027Y-38934D02*
X47061Y-38934D01*
X47119Y-38934D02*
X47477Y-38934D01*
X49968Y-38934D02*
X50944Y-38934D01*
X51652Y-38934D02*
X52244Y-38934D01*
X52952Y-38934D02*
X54229Y-38934D01*
X45213Y-39014D02*
X45406Y-39014D01*
X47041Y-39014D02*
X47477Y-39014D01*
X49968Y-39014D02*
X54149Y-39014D01*
X45293Y-39094D02*
X45445Y-39094D01*
X47002Y-39094D02*
X47477Y-39094D01*
X49968Y-39094D02*
X54069Y-39094D01*
X45373Y-39174D02*
X45506Y-39174D01*
X46950Y-39174D02*
X47505Y-39174D01*
X49941Y-39174D02*
X53989Y-39174D01*
X45453Y-39254D02*
X45684Y-39254D01*
X46774Y-39254D02*
X47572Y-39254D01*
X48679Y-39254D02*
X48761Y-39254D01*
X49877Y-39254D02*
X50119Y-39254D01*
X50619Y-39254D02*
X50643Y-39254D01*
X51144Y-39254D02*
X53909Y-39254D01*
X45533Y-39334D02*
X45862Y-39334D01*
X46563Y-39334D02*
X49949Y-39334D01*
X50619Y-39334D02*
X50643Y-39334D01*
X51314Y-39334D02*
X51973Y-39334D01*
X52831Y-39334D02*
X53829Y-39334D01*
X45613Y-39414D02*
X49871Y-39414D01*
X50619Y-39414D02*
X50643Y-39414D01*
X51392Y-39414D02*
X51782Y-39414D01*
X53020Y-39414D02*
X53749Y-39414D01*
X45693Y-39494D02*
X49792Y-39494D01*
X50619Y-39494D02*
X50643Y-39494D01*
X51471Y-39494D02*
X51702Y-39494D01*
X53100Y-39494D02*
X53669Y-39494D01*
X45773Y-39574D02*
X49759Y-39574D01*
X50619Y-39574D02*
X50643Y-39574D01*
X51504Y-39574D02*
X51629Y-39574D01*
X53174Y-39574D02*
X53589Y-39574D01*
X45853Y-39654D02*
X49732Y-39654D01*
X50619Y-39654D02*
X50643Y-39654D01*
X51531Y-39654D02*
X51596Y-39654D01*
X53207Y-39654D02*
X53509Y-39654D01*
X45933Y-39734D02*
X49706Y-39734D01*
X50619Y-39734D02*
X50643Y-39734D01*
X51557Y-39734D02*
X51562Y-39734D01*
X53240Y-39734D02*
X53429Y-39734D01*
X46013Y-39814D02*
X49745Y-39814D01*
X50619Y-39814D02*
X50643Y-39814D01*
X53250Y-39814D02*
X53349Y-39814D01*
X46093Y-39894D02*
X49764Y-39894D01*
X53250Y-39894D02*
X53269Y-39894D01*
X46173Y-39974D02*
X49703Y-39974D01*
X56283Y-34829D02*
X56307Y-34829D01*
X56283Y-34909D02*
X56307Y-34909D01*
X56283Y-34989D02*
X56307Y-34989D01*
X56283Y-35069D02*
X56307Y-35069D01*
X56283Y-35149D02*
X56307Y-35149D01*
X56283Y-35229D02*
X56307Y-35229D01*
X57137Y-34792D02*
X57161Y-34792D01*
X44288Y-26887D02*
X45040Y-26887D01*
X44288Y-26967D02*
X45072Y-26967D01*
X46305Y-26967D02*
X46339Y-26967D01*
X44625Y-27047D02*
X44705Y-27047D01*
X46233Y-27047D02*
X46419Y-27047D01*
X44653Y-27127D02*
X44677Y-27127D01*
X45347Y-27127D02*
X46499Y-27127D01*
X44653Y-27207D02*
X44677Y-27207D01*
X45389Y-27207D02*
X46579Y-27207D01*
X44653Y-27287D02*
X44677Y-27287D01*
X45414Y-27287D02*
X46659Y-27287D01*
X44653Y-27367D02*
X44677Y-27367D01*
X46269Y-27367D02*
X46764Y-27367D01*
X44653Y-27447D02*
X44677Y-27447D01*
X46321Y-27447D02*
X48196Y-27447D01*
X44653Y-27527D02*
X44677Y-27527D01*
X46338Y-27527D02*
X48196Y-27527D01*
X44653Y-27607D02*
X44677Y-27607D01*
X46338Y-27607D02*
X48196Y-27607D01*
X44653Y-27687D02*
X44677Y-27687D01*
X46338Y-27687D02*
X48196Y-27687D01*
X44653Y-27767D02*
X44677Y-27767D01*
X46338Y-27767D02*
X48196Y-27767D01*
X44653Y-27847D02*
X44677Y-27847D01*
X46338Y-27847D02*
X48196Y-27847D01*
X44653Y-27927D02*
X44677Y-27927D01*
X46338Y-27927D02*
X48196Y-27927D01*
X44653Y-28007D02*
X44677Y-28007D01*
X46338Y-28007D02*
X48196Y-28007D01*
X44653Y-28087D02*
X44677Y-28087D01*
X46338Y-28087D02*
X48196Y-28087D01*
X44653Y-28167D02*
X44677Y-28167D01*
X46338Y-28167D02*
X48196Y-28167D01*
X44653Y-28247D02*
X44677Y-28247D01*
X46313Y-28247D02*
X47330Y-28247D01*
X44653Y-28327D02*
X44677Y-28327D01*
X46253Y-28327D02*
X47258Y-28327D01*
X44653Y-28407D02*
X44677Y-28407D01*
X45385Y-28407D02*
X47225Y-28407D01*
X44653Y-28487D02*
X47225Y-28487D01*
X44653Y-28567D02*
X44677Y-28567D01*
X45407Y-28567D02*
X47225Y-28567D01*
X44653Y-28647D02*
X44677Y-28647D01*
X45414Y-28647D02*
X47225Y-28647D01*
X44653Y-28727D02*
X44677Y-28727D01*
X45414Y-28727D02*
X47225Y-28727D01*
X44653Y-28807D02*
X44677Y-28807D01*
X45414Y-28807D02*
X47225Y-28807D01*
X44653Y-28887D02*
X44677Y-28887D01*
X45396Y-28887D02*
X47225Y-28887D01*
X44653Y-28967D02*
X44677Y-28967D01*
X45363Y-28967D02*
X47225Y-28967D01*
X44645Y-29047D02*
X44685Y-29047D01*
X45287Y-29047D02*
X47225Y-29047D01*
X44288Y-29127D02*
X47234Y-29127D01*
X44288Y-29207D02*
X47274Y-29207D01*
X45229Y-29287D02*
X47383Y-29287D01*
X45290Y-29367D02*
X48196Y-29367D01*
X45314Y-29447D02*
X48196Y-29447D01*
X45314Y-29527D02*
X47375Y-29527D01*
X45314Y-29607D02*
X47270Y-29607D01*
X45314Y-29687D02*
X46641Y-29687D01*
X46641Y-29687D02*
X46839Y-29687D01*
X46839Y-29687D02*
X47233Y-29687D01*
X45314Y-29767D02*
X46162Y-29767D01*
X46721Y-29767D02*
X46759Y-29767D01*
X45314Y-29847D02*
X46087Y-29847D01*
X46728Y-29847D02*
X46752Y-29847D01*
X45314Y-29927D02*
X46053Y-29927D01*
X46728Y-29927D02*
X46752Y-29927D01*
X45314Y-30007D02*
X46036Y-30007D01*
X46728Y-30007D02*
X46752Y-30007D01*
X45314Y-30087D02*
X46036Y-30087D01*
X46728Y-30087D02*
X46752Y-30087D01*
X45357Y-30167D02*
X46036Y-30167D01*
X46728Y-30167D02*
X46752Y-30167D01*
X45400Y-30247D02*
X46036Y-30247D01*
X46728Y-30247D02*
X46752Y-30247D01*
X45411Y-30327D02*
X46109Y-30327D01*
X46728Y-30327D02*
X46752Y-30327D01*
X45411Y-30407D02*
X46079Y-30407D01*
X45411Y-30487D02*
X46035Y-30487D01*
X45411Y-30567D02*
X46035Y-30567D01*
X45411Y-30647D02*
X46035Y-30647D01*
X45411Y-30727D02*
X46035Y-30727D01*
X45411Y-30807D02*
X46065Y-30807D01*
X45489Y-30887D02*
X46111Y-30887D01*
X49718Y-40039D02*
X49699Y-39979D01*
X49776Y-39878D01*
X49776Y-39854D01*
X49699Y-39753D01*
X49781Y-39505D01*
X49961Y-39321D01*
X50198Y-39220D01*
X50619Y-39220D01*
X50619Y-39854D01*
X49776Y-39854D01*
X49776Y-39878D01*
X50619Y-39878D01*
X50643Y-39878D01*
X50643Y-39854D01*
X50643Y-39220D01*
X51064Y-39220D01*
X51301Y-39321D01*
X51481Y-39505D01*
X51559Y-39741D01*
X51634Y-39562D01*
X51785Y-39411D01*
X51982Y-39330D01*
X52821Y-39330D01*
X53018Y-39412D01*
X53169Y-39563D01*
X53250Y-39760D01*
X53250Y-39913D01*
X54962Y-38200D01*
X54700Y-38201D01*
X54613Y-38114D01*
X54613Y-37508D01*
X55179Y-37508D01*
X55266Y-37595D01*
X55265Y-37782D01*
X55265Y-37897D01*
X56055Y-37107D01*
X56122Y-37063D01*
X56201Y-37047D01*
X58815Y-37047D01*
X58830Y-37033D01*
X58830Y-34165D01*
X58846Y-34087D01*
X58890Y-34020D01*
X58957Y-33976D01*
X58985Y-33970D01*
X58985Y-30521D01*
X58876Y-30567D01*
X58872Y-30567D01*
X58577Y-30862D01*
X58577Y-34022D01*
X58597Y-34022D01*
X58688Y-34060D01*
X58758Y-34130D01*
X58796Y-34222D01*
X58796Y-34833D01*
X58767Y-34902D01*
X58796Y-34972D01*
X58796Y-35583D01*
X58758Y-35674D01*
X58688Y-35744D01*
X58596Y-35782D01*
X58577Y-35782D01*
X58577Y-35835D01*
X58552Y-35959D01*
X58482Y-36065D01*
X58479Y-36066D01*
X58413Y-36134D01*
X58307Y-36204D01*
X58183Y-36229D01*
X57753Y-36229D01*
X57753Y-36269D01*
X57715Y-36360D01*
X57645Y-36430D01*
X57553Y-36468D01*
X56780Y-36468D01*
X56731Y-36518D01*
X56639Y-36556D01*
X56164Y-36556D01*
X56066Y-36654D01*
X56029Y-36678D01*
X56029Y-36789D01*
X55991Y-36880D01*
X55921Y-36950D01*
X55829Y-36988D01*
X55230Y-36988D01*
X55265Y-37071D01*
X55265Y-37210D01*
X55266Y-37397D01*
X55179Y-37484D01*
X54613Y-37484D01*
X54613Y-37187D01*
X54589Y-37187D01*
X54589Y-37484D01*
X54065Y-37484D01*
X54065Y-37508D01*
X54589Y-37508D01*
X54589Y-38114D01*
X54502Y-38201D01*
X54217Y-38200D01*
X54089Y-38147D01*
X53990Y-38049D01*
X53984Y-38034D01*
X53957Y-38062D01*
X53865Y-38100D01*
X53698Y-38099D01*
X53282Y-38517D01*
X53176Y-38587D01*
X53148Y-38592D01*
X53148Y-38737D01*
X53110Y-38828D01*
X53040Y-38898D01*
X52948Y-38936D01*
X52249Y-38936D01*
X52158Y-38898D01*
X52088Y-38828D01*
X52050Y-38736D01*
X52050Y-37844D01*
X51981Y-37844D01*
X51823Y-37778D01*
X51848Y-37838D01*
X51848Y-38737D01*
X51810Y-38828D01*
X51740Y-38898D01*
X51648Y-38936D01*
X50949Y-38936D01*
X50858Y-38898D01*
X50788Y-38828D01*
X50750Y-38736D01*
X50750Y-37844D01*
X50211Y-37844D01*
X50014Y-37762D01*
X50002Y-37750D01*
X49968Y-37750D01*
X49968Y-37810D01*
X49930Y-37901D01*
X49860Y-37971D01*
X49768Y-38009D01*
X49587Y-38009D01*
X49587Y-38012D01*
X49524Y-38106D01*
X49472Y-38158D01*
X49392Y-38211D01*
X49769Y-38211D01*
X49860Y-38249D01*
X49930Y-38319D01*
X49968Y-38411D01*
X49968Y-39110D01*
X49930Y-39201D01*
X49860Y-39271D01*
X49768Y-39309D01*
X48869Y-39309D01*
X48778Y-39271D01*
X48720Y-39213D01*
X48667Y-39267D01*
X48575Y-39305D01*
X47676Y-39305D01*
X47585Y-39267D01*
X47515Y-39197D01*
X47477Y-39105D01*
X47477Y-38406D01*
X47515Y-38315D01*
X47585Y-38245D01*
X47677Y-38207D01*
X47954Y-38207D01*
X48079Y-38082D01*
X48173Y-38019D01*
X48243Y-38005D01*
X47676Y-38005D01*
X47585Y-37967D01*
X47515Y-37897D01*
X47477Y-37805D01*
X47477Y-37106D01*
X47515Y-37015D01*
X47585Y-36945D01*
X47677Y-36907D01*
X48576Y-36907D01*
X48667Y-36945D01*
X48724Y-37002D01*
X48778Y-36949D01*
X48870Y-36911D01*
X49405Y-36911D01*
X49405Y-36288D01*
X49318Y-36201D01*
X49318Y-35595D01*
X49318Y-35571D01*
X49318Y-34965D01*
X49405Y-34878D01*
X49609Y-34878D01*
X49591Y-34834D01*
X49591Y-33485D01*
X49629Y-33394D01*
X49699Y-33324D01*
X49790Y-33286D01*
X49790Y-32784D01*
X49699Y-32746D01*
X49629Y-32676D01*
X49591Y-32584D01*
X49591Y-31235D01*
X49629Y-31144D01*
X49699Y-31074D01*
X49791Y-31036D01*
X50840Y-31036D01*
X50931Y-31074D01*
X51001Y-31144D01*
X51039Y-31236D01*
X51039Y-31257D01*
X51134Y-31257D01*
X51134Y-31142D01*
X51172Y-31051D01*
X51242Y-30981D01*
X51334Y-30943D01*
X52063Y-30943D01*
X52154Y-30981D01*
X52181Y-31008D01*
X52187Y-30994D01*
X52286Y-30896D01*
X52414Y-30843D01*
X52699Y-30842D01*
X52786Y-30929D01*
X52786Y-31535D01*
X52786Y-31559D01*
X52786Y-32165D01*
X52699Y-32252D01*
X52414Y-32251D01*
X52286Y-32198D01*
X52187Y-32100D01*
X52181Y-32085D01*
X52154Y-32113D01*
X52062Y-32151D01*
X51333Y-32151D01*
X51242Y-32113D01*
X51172Y-32043D01*
X51134Y-31951D01*
X51134Y-31837D01*
X51052Y-31837D01*
X51039Y-31851D01*
X51039Y-32585D01*
X51001Y-32676D01*
X50931Y-32746D01*
X50839Y-32784D01*
X49790Y-32784D01*
X49790Y-33286D01*
X50840Y-33286D01*
X50931Y-33324D01*
X51001Y-33394D01*
X51039Y-33486D01*
X51039Y-34251D01*
X51061Y-34273D01*
X51138Y-34273D01*
X51138Y-34158D01*
X51176Y-34067D01*
X51246Y-33997D01*
X51338Y-33959D01*
X52067Y-33959D01*
X52158Y-33997D01*
X52185Y-34024D01*
X52191Y-34010D01*
X52290Y-33912D01*
X52418Y-33859D01*
X52703Y-33858D01*
X52790Y-33945D01*
X52790Y-34551D01*
X52266Y-34551D01*
X52266Y-34575D01*
X52790Y-34575D01*
X52790Y-35181D01*
X52703Y-35268D01*
X52418Y-35267D01*
X52290Y-35214D01*
X52191Y-35116D01*
X52185Y-35101D01*
X52158Y-35129D01*
X52066Y-35167D01*
X51337Y-35167D01*
X51246Y-35129D01*
X51176Y-35059D01*
X51138Y-34967D01*
X51138Y-34853D01*
X51031Y-34853D01*
X51001Y-34926D01*
X50931Y-34996D01*
X50839Y-35034D01*
X49918Y-35034D01*
X49970Y-35158D01*
X49970Y-35297D01*
X49971Y-35484D01*
X49884Y-35571D01*
X49318Y-35571D01*
X49318Y-35595D01*
X49884Y-35595D01*
X49971Y-35682D01*
X49970Y-35869D01*
X49970Y-36008D01*
X49917Y-36136D01*
X49818Y-36234D01*
X49690Y-36287D01*
X49405Y-36288D01*
X49405Y-36911D01*
X49769Y-36911D01*
X49860Y-36949D01*
X49889Y-36978D01*
X50015Y-36853D01*
X50212Y-36772D01*
X51051Y-36772D01*
X51248Y-36854D01*
X51337Y-36942D01*
X51399Y-37005D01*
X51480Y-37202D01*
X51480Y-37415D01*
X51398Y-37612D01*
X51372Y-37638D01*
X51649Y-37638D01*
X51667Y-37645D01*
X51633Y-37611D01*
X51552Y-37414D01*
X51552Y-37201D01*
X51634Y-37004D01*
X51785Y-36853D01*
X51982Y-36772D01*
X52821Y-36772D01*
X52901Y-36805D01*
X52901Y-35268D01*
X52814Y-35181D01*
X52814Y-34575D01*
X52814Y-34551D01*
X52814Y-33945D01*
X52897Y-33862D01*
X52897Y-32252D01*
X52810Y-32165D01*
X52810Y-31559D01*
X52810Y-31535D01*
X52810Y-30929D01*
X52830Y-30908D01*
X52830Y-30747D01*
X52917Y-30660D01*
X53523Y-30660D01*
X53523Y-31226D01*
X53462Y-31286D01*
X53463Y-31448D01*
X53376Y-31535D01*
X52810Y-31535D01*
X52810Y-31559D01*
X53376Y-31559D01*
X53463Y-31646D01*
X53462Y-31833D01*
X53462Y-31972D01*
X53409Y-32100D01*
X53310Y-32198D01*
X53182Y-32251D01*
X52897Y-32252D01*
X52897Y-33862D01*
X52901Y-33858D01*
X53186Y-33859D01*
X53314Y-33912D01*
X53413Y-34010D01*
X53466Y-34138D01*
X53466Y-34277D01*
X53467Y-34464D01*
X53380Y-34551D01*
X52814Y-34551D01*
X52814Y-34575D01*
X53380Y-34575D01*
X53467Y-34662D01*
X53466Y-34849D01*
X53466Y-34988D01*
X53413Y-35116D01*
X53314Y-35214D01*
X53186Y-35267D01*
X52901Y-35268D01*
X52901Y-36805D01*
X53018Y-36854D01*
X53079Y-36915D01*
X53137Y-36892D01*
X53522Y-36892D01*
X53634Y-36779D01*
X53634Y-31313D01*
X53547Y-31226D01*
X53547Y-30660D01*
X54153Y-30660D01*
X54240Y-30747D01*
X54239Y-31032D01*
X54186Y-31160D01*
X54088Y-31259D01*
X53960Y-31312D01*
X53821Y-31312D01*
X53634Y-31313D01*
X53634Y-36779D01*
X53782Y-36632D01*
X53888Y-36562D01*
X54012Y-36537D01*
X54405Y-36537D01*
X54405Y-28177D01*
X54314Y-28139D01*
X54244Y-28069D01*
X54206Y-27977D01*
X54206Y-27853D01*
X54102Y-27853D01*
X53978Y-27828D01*
X53872Y-27758D01*
X53870Y-27755D01*
X53217Y-27102D01*
X53168Y-27221D01*
X53017Y-27372D01*
X52820Y-27453D01*
X51981Y-27453D01*
X51784Y-27371D01*
X51633Y-27220D01*
X51552Y-27023D01*
X51552Y-26810D01*
X51634Y-26613D01*
X51785Y-26462D01*
X51982Y-26381D01*
X52495Y-26381D01*
X52428Y-26314D01*
X51796Y-26314D01*
X51705Y-26276D01*
X51635Y-26206D01*
X51597Y-26114D01*
X51597Y-25215D01*
X51635Y-25124D01*
X51705Y-25054D01*
X51797Y-25016D01*
X52496Y-25016D01*
X52587Y-25054D01*
X52657Y-25124D01*
X52695Y-25216D01*
X52695Y-25661D01*
X54206Y-27172D01*
X54206Y-27078D01*
X54244Y-26987D01*
X54314Y-26917D01*
X54406Y-26879D01*
X55105Y-26879D01*
X55196Y-26917D01*
X55266Y-26987D01*
X55304Y-27079D01*
X55304Y-27978D01*
X55266Y-28069D01*
X55196Y-28139D01*
X55104Y-28177D01*
X54405Y-28177D01*
X54405Y-36537D01*
X54578Y-36537D01*
X54821Y-36294D01*
X54821Y-36059D01*
X54859Y-35968D01*
X54886Y-35940D01*
X54872Y-35935D01*
X54774Y-35836D01*
X54721Y-35708D01*
X54720Y-35423D01*
X54807Y-35336D01*
X55413Y-35336D01*
X55413Y-35860D01*
X55437Y-35860D01*
X55437Y-35336D01*
X55668Y-35336D01*
X55658Y-35312D01*
X55437Y-35312D01*
X55413Y-35312D01*
X54807Y-35312D01*
X54720Y-35225D01*
X54721Y-34940D01*
X54774Y-34812D01*
X54872Y-34713D01*
X54951Y-34680D01*
X54933Y-34636D01*
X54933Y-34482D01*
X54992Y-34341D01*
X55029Y-34303D01*
X55029Y-34290D01*
X54992Y-34254D01*
X54933Y-34112D01*
X54933Y-33958D01*
X54992Y-33817D01*
X55100Y-33708D01*
X55242Y-33649D01*
X55396Y-33649D01*
X55537Y-33708D01*
X55646Y-33816D01*
X55697Y-33938D01*
X55748Y-33817D01*
X55856Y-33708D01*
X55998Y-33649D01*
X56152Y-33649D01*
X56293Y-33708D01*
X56295Y-33710D01*
X56384Y-33710D01*
X56384Y-32878D01*
X56243Y-32819D01*
X56134Y-32711D01*
X56075Y-32569D01*
X56075Y-32415D01*
X56134Y-32274D01*
X56242Y-32165D01*
X56384Y-32106D01*
X56538Y-32106D01*
X56679Y-32165D01*
X56681Y-32167D01*
X56974Y-32167D01*
X57053Y-32089D01*
X57053Y-31543D01*
X57051Y-31542D01*
X56992Y-31400D01*
X56992Y-31246D01*
X57051Y-31105D01*
X57159Y-30996D01*
X57301Y-30937D01*
X57455Y-30937D01*
X57596Y-30996D01*
X57705Y-31104D01*
X57764Y-31246D01*
X57764Y-31400D01*
X57705Y-31541D01*
X57703Y-31543D01*
X57703Y-32224D01*
X57678Y-32348D01*
X57608Y-32454D01*
X57340Y-32722D01*
X57234Y-32792D01*
X57110Y-32817D01*
X56681Y-32817D01*
X56680Y-32819D01*
X56538Y-32878D01*
X56384Y-32878D01*
X56384Y-33710D01*
X57472Y-33710D01*
X57596Y-33735D01*
X57702Y-33805D01*
X57709Y-33816D01*
X57914Y-34022D01*
X57927Y-34022D01*
X57927Y-30728D01*
X57952Y-30604D01*
X58022Y-30498D01*
X58316Y-30204D01*
X57815Y-30204D01*
X57724Y-30166D01*
X57654Y-30096D01*
X57616Y-30004D01*
X57616Y-29275D01*
X57654Y-29184D01*
X57681Y-29156D01*
X57667Y-29151D01*
X57569Y-29052D01*
X57516Y-28924D01*
X57515Y-28639D01*
X57602Y-28552D01*
X58208Y-28552D01*
X58232Y-28552D01*
X58232Y-28528D01*
X58208Y-28528D01*
X57602Y-28528D01*
X57515Y-28441D01*
X57516Y-28156D01*
X57569Y-28028D01*
X57667Y-27929D01*
X57707Y-27912D01*
X57707Y-27126D01*
X57505Y-27126D01*
X57505Y-27974D01*
X57467Y-28065D01*
X57397Y-28135D01*
X57305Y-28173D01*
X56606Y-28173D01*
X56515Y-28135D01*
X56507Y-28127D01*
X56496Y-28139D01*
X56404Y-28177D01*
X55705Y-28177D01*
X55614Y-28139D01*
X55544Y-28069D01*
X55506Y-27977D01*
X55506Y-27078D01*
X55544Y-26987D01*
X55614Y-26917D01*
X55706Y-26879D01*
X55869Y-26879D01*
X53250Y-24260D01*
X53250Y-24466D01*
X53168Y-24663D01*
X53017Y-24814D01*
X52820Y-24895D01*
X51981Y-24895D01*
X51784Y-24813D01*
X51633Y-24662D01*
X51559Y-24482D01*
X51481Y-24720D01*
X51301Y-24904D01*
X51064Y-25005D01*
X50643Y-25005D01*
X50643Y-24371D01*
X50643Y-24347D01*
X50619Y-24347D01*
X49776Y-24347D01*
X49699Y-24246D01*
X49736Y-24134D01*
X48899Y-24134D01*
X48910Y-24212D01*
X48521Y-24601D01*
X48132Y-24212D01*
X48142Y-24134D01*
X47939Y-24134D01*
X47982Y-24177D01*
X48009Y-24243D01*
X48115Y-24229D01*
X48504Y-24618D01*
X48115Y-25007D01*
X48009Y-24992D01*
X47982Y-25059D01*
X47912Y-25129D01*
X47838Y-25159D01*
X47986Y-25307D01*
X47996Y-25331D01*
X48006Y-25307D01*
X48158Y-25154D01*
X48149Y-25150D01*
X48132Y-25024D01*
X48521Y-24635D01*
X48910Y-25024D01*
X48893Y-25150D01*
X48870Y-25165D01*
X48815Y-25186D01*
X48936Y-25307D01*
X48937Y-25310D01*
X48937Y-25202D01*
X49024Y-25115D01*
X49024Y-25091D01*
X48938Y-25005D01*
X48927Y-25007D01*
X48538Y-24618D01*
X48927Y-24229D01*
X49053Y-24246D01*
X49068Y-24269D01*
X49145Y-24468D01*
X49217Y-24439D01*
X49356Y-24439D01*
X49543Y-24438D01*
X49630Y-24525D01*
X49630Y-25091D01*
X49024Y-25091D01*
X49024Y-25115D01*
X49630Y-25115D01*
X49654Y-25115D01*
X49654Y-25091D01*
X49654Y-24525D01*
X49700Y-24478D01*
X49699Y-24472D01*
X49776Y-24371D01*
X50619Y-24371D01*
X50619Y-25005D01*
X50345Y-25005D01*
X50260Y-25091D01*
X49654Y-25091D01*
X49654Y-25115D01*
X50260Y-25115D01*
X50315Y-25170D01*
X50335Y-25124D01*
X50405Y-25054D01*
X50497Y-25016D01*
X51196Y-25016D01*
X51287Y-25054D01*
X51357Y-25124D01*
X51395Y-25216D01*
X51395Y-26115D01*
X51357Y-26206D01*
X51287Y-26276D01*
X51195Y-26314D01*
X51004Y-26314D01*
X50937Y-26381D01*
X51051Y-26381D01*
X51248Y-26463D01*
X51399Y-26614D01*
X51480Y-26811D01*
X51480Y-27024D01*
X51398Y-27221D01*
X51247Y-27372D01*
X51050Y-27453D01*
X50211Y-27453D01*
X50014Y-27371D01*
X49863Y-27220D01*
X49782Y-27023D01*
X49782Y-26923D01*
X49337Y-27368D01*
X49337Y-27941D01*
X49365Y-27930D01*
X49650Y-27929D01*
X49737Y-28016D01*
X49737Y-28622D01*
X49737Y-28646D01*
X49761Y-28646D01*
X49761Y-28622D01*
X49761Y-28016D01*
X49848Y-27929D01*
X50133Y-27930D01*
X50261Y-27983D01*
X50360Y-28081D01*
X50365Y-28095D01*
X50393Y-28068D01*
X50485Y-28030D01*
X51214Y-28030D01*
X51305Y-28068D01*
X51375Y-28138D01*
X51413Y-28230D01*
X51413Y-29039D01*
X51403Y-29061D01*
X52874Y-29061D01*
X52978Y-29082D01*
X53039Y-29022D01*
X53131Y-28984D01*
X53940Y-28984D01*
X54031Y-29022D01*
X54101Y-29092D01*
X54139Y-29184D01*
X54139Y-29913D01*
X54101Y-30004D01*
X54073Y-30031D01*
X54088Y-30037D01*
X54186Y-30136D01*
X54239Y-30264D01*
X54240Y-30549D01*
X54153Y-30636D01*
X53547Y-30636D01*
X53523Y-30636D01*
X52917Y-30636D01*
X52830Y-30549D01*
X52831Y-30264D01*
X52884Y-30136D01*
X52982Y-30037D01*
X52996Y-30031D01*
X52969Y-30004D01*
X52931Y-29912D01*
X52931Y-29852D01*
X52911Y-29848D01*
X52806Y-29778D01*
X52738Y-29711D01*
X49426Y-29711D01*
X49481Y-29765D01*
X49506Y-29827D01*
X49546Y-29827D01*
X49687Y-29886D01*
X49796Y-29994D01*
X49855Y-30136D01*
X49855Y-30290D01*
X49796Y-30431D01*
X49688Y-30540D01*
X49570Y-30589D01*
X49570Y-32031D01*
X49548Y-32142D01*
X49485Y-32236D01*
X48977Y-32744D01*
X48883Y-32807D01*
X48772Y-32829D01*
X48510Y-32829D01*
X48510Y-34236D01*
X48488Y-34347D01*
X48425Y-34441D01*
X47887Y-34979D01*
X48571Y-34979D01*
X48662Y-35017D01*
X48689Y-35044D01*
X48695Y-35030D01*
X48794Y-34932D01*
X48922Y-34879D01*
X49207Y-34878D01*
X49294Y-34965D01*
X49294Y-35571D01*
X48770Y-35571D01*
X48770Y-35595D01*
X49294Y-35595D01*
X49294Y-36201D01*
X49207Y-36288D01*
X48922Y-36287D01*
X48794Y-36234D01*
X48695Y-36136D01*
X48689Y-36121D01*
X48662Y-36149D01*
X48570Y-36187D01*
X47841Y-36187D01*
X47750Y-36149D01*
X47680Y-36079D01*
X47642Y-35987D01*
X47642Y-35540D01*
X47475Y-35707D01*
X47475Y-36096D01*
X47437Y-36187D01*
X47367Y-36257D01*
X47275Y-36295D01*
X46576Y-36295D01*
X46485Y-36257D01*
X46415Y-36187D01*
X46377Y-36095D01*
X46377Y-35196D01*
X46415Y-35105D01*
X46423Y-35096D01*
X46388Y-35012D01*
X46388Y-34113D01*
X46426Y-34022D01*
X46426Y-34021D01*
X46315Y-34021D01*
X46187Y-33968D01*
X46089Y-33869D01*
X46036Y-33741D01*
X46035Y-33456D01*
X46122Y-33369D01*
X46728Y-33369D01*
X46752Y-33369D01*
X47358Y-33369D01*
X47445Y-33456D01*
X47444Y-33741D01*
X47391Y-33869D01*
X47329Y-33931D01*
X47378Y-33952D01*
X47448Y-34022D01*
X47462Y-34056D01*
X47710Y-33809D01*
X47710Y-32461D01*
X47732Y-32350D01*
X47795Y-32256D01*
X47992Y-32059D01*
X48086Y-31996D01*
X48197Y-31974D01*
X48477Y-31974D01*
X48686Y-31766D01*
X48686Y-30153D01*
X48557Y-30285D01*
X48523Y-30307D01*
X48523Y-30405D01*
X48485Y-30496D01*
X48415Y-30566D01*
X48323Y-30604D01*
X48234Y-30604D01*
X48234Y-30831D01*
X48209Y-30956D01*
X48139Y-31061D01*
X47518Y-31682D01*
X47412Y-31752D01*
X47344Y-31765D01*
X47344Y-31817D01*
X47328Y-31854D01*
X47344Y-31893D01*
X47344Y-32622D01*
X47306Y-32713D01*
X47278Y-32740D01*
X47293Y-32746D01*
X47391Y-32845D01*
X47444Y-32973D01*
X47445Y-33258D01*
X47358Y-33345D01*
X46752Y-33345D01*
X46752Y-32821D01*
X46728Y-32821D01*
X46728Y-33345D01*
X46122Y-33345D01*
X46106Y-33329D01*
X45572Y-33329D01*
X45407Y-33495D01*
X45407Y-33914D01*
X45987Y-33914D01*
X46078Y-33952D01*
X46148Y-34022D01*
X46186Y-34114D01*
X46186Y-35013D01*
X46148Y-35104D01*
X46139Y-35112D01*
X46175Y-35197D01*
X46175Y-36096D01*
X46137Y-36187D01*
X46067Y-36257D01*
X45975Y-36295D01*
X45276Y-36295D01*
X45185Y-36257D01*
X45115Y-36187D01*
X45077Y-36095D01*
X45077Y-36007D01*
X44962Y-36055D01*
X44793Y-36055D01*
X44637Y-35990D01*
X44517Y-35870D01*
X44453Y-35714D01*
X44453Y-35545D01*
X44518Y-35389D01*
X44638Y-35269D01*
X44794Y-35205D01*
X44963Y-35205D01*
X45077Y-35252D01*
X45077Y-35196D01*
X45115Y-35105D01*
X45123Y-35096D01*
X45088Y-35012D01*
X45088Y-34937D01*
X44974Y-34984D01*
X44805Y-34984D01*
X44649Y-34919D01*
X44529Y-34799D01*
X44465Y-34643D01*
X44465Y-34474D01*
X44530Y-34318D01*
X44650Y-34198D01*
X44652Y-34197D01*
X44398Y-34197D01*
X44307Y-34159D01*
X44288Y-34140D01*
X44288Y-38089D01*
X45368Y-39169D01*
X45368Y-38953D01*
X45177Y-38860D01*
X45134Y-38796D01*
X44956Y-38327D01*
X44971Y-37826D01*
X45177Y-37368D01*
X45368Y-37275D01*
X46207Y-38114D01*
X45368Y-38953D01*
X45368Y-39169D01*
X46237Y-40038D01*
X46437Y-40038D01*
X46437Y-39382D01*
X45936Y-39367D01*
X45478Y-39161D01*
X45385Y-38970D01*
X46224Y-38131D01*
X46224Y-38097D01*
X45385Y-37258D01*
X45478Y-37067D01*
X45542Y-37024D01*
X46011Y-36846D01*
X46512Y-36861D01*
X46970Y-37067D01*
X47063Y-37258D01*
X46224Y-38097D01*
X46224Y-38131D01*
X47063Y-38970D01*
X46970Y-39161D01*
X46906Y-39204D01*
X46437Y-39382D01*
X46437Y-40038D01*
X47080Y-40038D01*
X47080Y-38953D01*
X46241Y-38114D01*
X47080Y-37275D01*
X47271Y-37368D01*
X47314Y-37432D01*
X47492Y-37901D01*
X47477Y-38402D01*
X47271Y-38860D01*
X47080Y-38953D01*
X47080Y-40038D01*
X47543Y-40039D01*
X49718Y-40039D01*
X47939Y-24134D02*
X48142Y-24134D01*
X48899Y-24134D02*
X49736Y-24134D01*
X47998Y-24214D02*
X48134Y-24214D01*
X48908Y-24214D02*
X49710Y-24214D01*
X48180Y-24294D02*
X48214Y-24294D01*
X48828Y-24294D02*
X48862Y-24294D01*
X49078Y-24294D02*
X49735Y-24294D01*
X53250Y-24294D02*
X53284Y-24294D01*
X48260Y-24374D02*
X48294Y-24374D01*
X48748Y-24374D02*
X48782Y-24374D01*
X49109Y-24374D02*
X49774Y-24374D01*
X50619Y-24374D02*
X50643Y-24374D01*
X53250Y-24374D02*
X53364Y-24374D01*
X48340Y-24454D02*
X48374Y-24454D01*
X48668Y-24454D02*
X48702Y-24454D01*
X49140Y-24454D02*
X49180Y-24454D01*
X49559Y-24454D02*
X49713Y-24454D01*
X50619Y-24454D02*
X50643Y-24454D01*
X53250Y-24454D02*
X53444Y-24454D01*
X48420Y-24534D02*
X48454Y-24534D01*
X48588Y-24534D02*
X48622Y-24534D01*
X49630Y-24534D02*
X49654Y-24534D01*
X50619Y-24534D02*
X50643Y-24534D01*
X51541Y-24534D02*
X51580Y-24534D01*
X53221Y-24534D02*
X53524Y-24534D01*
X48500Y-24614D02*
X48542Y-24614D01*
X49630Y-24614D02*
X49654Y-24614D01*
X50619Y-24614D02*
X50643Y-24614D01*
X51515Y-24614D02*
X51613Y-24614D01*
X53188Y-24614D02*
X53604Y-24614D01*
X48428Y-24694D02*
X48462Y-24694D01*
X48580Y-24694D02*
X48614Y-24694D01*
X49630Y-24694D02*
X49654Y-24694D01*
X50619Y-24694D02*
X50643Y-24694D01*
X51489Y-24694D02*
X51665Y-24694D01*
X53137Y-24694D02*
X53684Y-24694D01*
X48348Y-24774D02*
X48382Y-24774D01*
X48660Y-24774D02*
X48694Y-24774D01*
X49630Y-24774D02*
X49654Y-24774D01*
X50619Y-24774D02*
X50643Y-24774D01*
X51428Y-24774D02*
X51745Y-24774D01*
X53057Y-24774D02*
X53764Y-24774D01*
X48268Y-24854D02*
X48302Y-24854D01*
X48740Y-24854D02*
X48774Y-24854D01*
X49630Y-24854D02*
X49654Y-24854D01*
X50619Y-24854D02*
X50643Y-24854D01*
X51349Y-24854D02*
X51882Y-24854D01*
X52919Y-24854D02*
X53844Y-24854D01*
X48188Y-24934D02*
X48222Y-24934D01*
X48820Y-24934D02*
X48854Y-24934D01*
X49630Y-24934D02*
X49654Y-24934D01*
X50619Y-24934D02*
X50643Y-24934D01*
X51230Y-24934D02*
X53924Y-24934D01*
X48000Y-25014D02*
X48142Y-25014D01*
X48900Y-25014D02*
X48947Y-25014D01*
X49630Y-25014D02*
X49654Y-25014D01*
X50336Y-25014D02*
X54004Y-25014D01*
X47947Y-25094D02*
X48141Y-25094D01*
X48900Y-25094D02*
X50365Y-25094D01*
X51327Y-25094D02*
X51665Y-25094D01*
X52627Y-25094D02*
X54084Y-25094D01*
X47853Y-25174D02*
X48139Y-25174D01*
X48846Y-25174D02*
X48965Y-25174D01*
X51378Y-25174D02*
X51615Y-25174D01*
X52678Y-25174D02*
X54164Y-25174D01*
X47933Y-25254D02*
X48059Y-25254D01*
X48883Y-25254D02*
X48937Y-25254D01*
X51395Y-25254D02*
X51597Y-25254D01*
X52695Y-25254D02*
X54244Y-25254D01*
X51395Y-25334D02*
X51597Y-25334D01*
X52695Y-25334D02*
X54324Y-25334D01*
X51395Y-25414D02*
X51597Y-25414D01*
X52695Y-25414D02*
X54404Y-25414D01*
X51395Y-25494D02*
X51597Y-25494D01*
X52695Y-25494D02*
X54484Y-25494D01*
X51395Y-25574D02*
X51597Y-25574D01*
X52695Y-25574D02*
X54564Y-25574D01*
X51395Y-25654D02*
X51597Y-25654D01*
X52695Y-25654D02*
X54644Y-25654D01*
X51395Y-25734D02*
X51597Y-25734D01*
X52768Y-25734D02*
X54724Y-25734D01*
X51395Y-25814D02*
X51597Y-25814D01*
X52848Y-25814D02*
X54804Y-25814D01*
X51395Y-25894D02*
X51597Y-25894D01*
X52928Y-25894D02*
X54884Y-25894D01*
X51395Y-25974D02*
X51597Y-25974D01*
X53008Y-25974D02*
X54964Y-25974D01*
X51395Y-26054D02*
X51597Y-26054D01*
X53088Y-26054D02*
X55044Y-26054D01*
X51387Y-26134D02*
X51605Y-26134D01*
X53168Y-26134D02*
X55124Y-26134D01*
X51349Y-26214D02*
X51643Y-26214D01*
X53248Y-26214D02*
X55204Y-26214D01*
X51243Y-26294D02*
X51748Y-26294D01*
X53328Y-26294D02*
X55284Y-26294D01*
X50944Y-26374D02*
X52488Y-26374D01*
X53408Y-26374D02*
X55364Y-26374D01*
X51227Y-26454D02*
X51805Y-26454D01*
X53488Y-26454D02*
X55444Y-26454D01*
X51319Y-26534D02*
X51713Y-26534D01*
X53568Y-26534D02*
X55524Y-26534D01*
X51399Y-26614D02*
X51634Y-26614D01*
X53648Y-26614D02*
X55604Y-26614D01*
X51432Y-26694D02*
X51601Y-26694D01*
X53728Y-26694D02*
X55684Y-26694D01*
X51465Y-26774D02*
X51567Y-26774D01*
X53808Y-26774D02*
X55764Y-26774D01*
X51480Y-26854D02*
X51552Y-26854D01*
X53888Y-26854D02*
X55844Y-26854D01*
X49771Y-26934D02*
X49782Y-26934D01*
X51480Y-26934D02*
X51552Y-26934D01*
X53968Y-26934D02*
X54297Y-26934D01*
X55213Y-26934D02*
X55597Y-26934D01*
X49691Y-27014D02*
X49782Y-27014D01*
X51480Y-27014D02*
X51552Y-27014D01*
X54048Y-27014D02*
X54233Y-27014D01*
X55278Y-27014D02*
X55533Y-27014D01*
X49611Y-27094D02*
X49811Y-27094D01*
X51450Y-27094D02*
X51581Y-27094D01*
X54128Y-27094D02*
X54206Y-27094D01*
X55304Y-27094D02*
X55506Y-27094D01*
X49531Y-27174D02*
X49844Y-27174D01*
X51417Y-27174D02*
X51614Y-27174D01*
X53187Y-27174D02*
X53289Y-27174D01*
X55304Y-27174D02*
X55506Y-27174D01*
X57505Y-27174D02*
X57707Y-27174D01*
X49451Y-27254D02*
X49897Y-27254D01*
X51365Y-27254D02*
X51667Y-27254D01*
X53135Y-27254D02*
X53369Y-27254D01*
X55304Y-27254D02*
X55506Y-27254D01*
X57505Y-27254D02*
X57707Y-27254D01*
X49371Y-27334D02*
X49977Y-27334D01*
X51285Y-27334D02*
X51747Y-27334D01*
X53055Y-27334D02*
X53449Y-27334D01*
X55304Y-27334D02*
X55506Y-27334D01*
X57505Y-27334D02*
X57707Y-27334D01*
X49337Y-27414D02*
X50117Y-27414D01*
X51144Y-27414D02*
X51887Y-27414D01*
X52914Y-27414D02*
X53529Y-27414D01*
X55304Y-27414D02*
X55506Y-27414D01*
X57505Y-27414D02*
X57707Y-27414D01*
X49337Y-27494D02*
X53609Y-27494D01*
X55304Y-27494D02*
X55506Y-27494D01*
X57505Y-27494D02*
X57707Y-27494D01*
X49337Y-27574D02*
X53689Y-27574D01*
X55304Y-27574D02*
X55506Y-27574D01*
X57505Y-27574D02*
X57707Y-27574D01*
X49337Y-27654D02*
X53769Y-27654D01*
X55304Y-27654D02*
X55506Y-27654D01*
X57505Y-27654D02*
X57707Y-27654D01*
X49337Y-27734D02*
X53849Y-27734D01*
X55304Y-27734D02*
X55506Y-27734D01*
X57505Y-27734D02*
X57707Y-27734D01*
X49337Y-27814D02*
X53956Y-27814D01*
X55304Y-27814D02*
X55506Y-27814D01*
X57505Y-27814D02*
X57707Y-27814D01*
X49337Y-27894D02*
X54206Y-27894D01*
X55304Y-27894D02*
X55506Y-27894D01*
X57505Y-27894D02*
X57707Y-27894D01*
X49695Y-27974D02*
X49803Y-27974D01*
X50240Y-27974D02*
X54206Y-27974D01*
X55304Y-27974D02*
X55506Y-27974D01*
X57505Y-27974D02*
X57623Y-27974D01*
X49737Y-28054D02*
X49761Y-28054D01*
X50333Y-28054D02*
X50427Y-28054D01*
X51272Y-28054D02*
X54237Y-28054D01*
X55272Y-28054D02*
X55537Y-28054D01*
X57471Y-28054D02*
X57559Y-28054D01*
X49737Y-28134D02*
X49761Y-28134D01*
X51371Y-28134D02*
X54309Y-28134D01*
X55201Y-28134D02*
X55609Y-28134D01*
X56500Y-28134D02*
X56514Y-28134D01*
X57398Y-28134D02*
X57526Y-28134D01*
X49737Y-28214D02*
X49761Y-28214D01*
X51407Y-28214D02*
X57516Y-28214D01*
X49737Y-28294D02*
X49761Y-28294D01*
X51413Y-28294D02*
X57516Y-28294D01*
X49737Y-28374D02*
X49761Y-28374D01*
X51413Y-28374D02*
X57516Y-28374D01*
X49737Y-28454D02*
X49761Y-28454D01*
X51413Y-28454D02*
X57528Y-28454D01*
X49737Y-28534D02*
X49761Y-28534D01*
X51413Y-28534D02*
X58232Y-28534D01*
X49737Y-28614D02*
X49761Y-28614D01*
X51413Y-28614D02*
X57540Y-28614D01*
X51413Y-28694D02*
X57515Y-28694D01*
X51413Y-28774D02*
X57515Y-28774D01*
X51413Y-28854D02*
X57515Y-28854D01*
X51413Y-28934D02*
X57520Y-28934D01*
X51413Y-29014D02*
X53059Y-29014D01*
X54012Y-29014D02*
X57553Y-29014D01*
X54102Y-29094D02*
X57610Y-29094D01*
X54135Y-29174D02*
X57664Y-29174D01*
X54139Y-29254D02*
X57625Y-29254D01*
X54139Y-29334D02*
X57616Y-29334D01*
X54139Y-29414D02*
X57616Y-29414D01*
X54139Y-29494D02*
X57616Y-29494D01*
X54139Y-29574D02*
X57616Y-29574D01*
X54139Y-29654D02*
X57616Y-29654D01*
X49450Y-29734D02*
X52761Y-29734D01*
X54139Y-29734D02*
X57616Y-29734D01*
X49501Y-29814D02*
X52860Y-29814D01*
X54139Y-29814D02*
X57616Y-29814D01*
X49696Y-29894D02*
X52931Y-29894D01*
X54139Y-29894D02*
X57616Y-29894D01*
X49776Y-29974D02*
X52956Y-29974D01*
X54113Y-29974D02*
X57616Y-29974D01*
X49821Y-30054D02*
X52966Y-30054D01*
X54105Y-30054D02*
X57636Y-30054D01*
X49855Y-30134D02*
X52886Y-30134D01*
X54185Y-30134D02*
X57692Y-30134D01*
X48626Y-30214D02*
X48686Y-30214D01*
X49855Y-30214D02*
X52852Y-30214D01*
X54219Y-30214D02*
X58306Y-30214D01*
X48543Y-30294D02*
X48686Y-30294D01*
X49853Y-30294D02*
X52831Y-30294D01*
X54240Y-30294D02*
X58226Y-30294D01*
X48523Y-30374D02*
X48686Y-30374D01*
X49819Y-30374D02*
X52831Y-30374D01*
X54240Y-30374D02*
X58146Y-30374D01*
X48502Y-30454D02*
X48686Y-30454D01*
X49773Y-30454D02*
X52831Y-30454D01*
X54240Y-30454D02*
X58066Y-30454D01*
X48447Y-30534D02*
X48686Y-30534D01*
X49693Y-30534D02*
X52831Y-30534D01*
X54240Y-30534D02*
X57999Y-30534D01*
X58954Y-30534D02*
X58985Y-30534D01*
X48234Y-30614D02*
X48686Y-30614D01*
X49570Y-30614D02*
X52895Y-30614D01*
X54175Y-30614D02*
X57950Y-30614D01*
X58825Y-30614D02*
X58985Y-30614D01*
X48234Y-30694D02*
X48686Y-30694D01*
X49570Y-30694D02*
X52883Y-30694D01*
X53523Y-30694D02*
X53547Y-30694D01*
X54187Y-30694D02*
X57934Y-30694D01*
X58745Y-30694D02*
X58985Y-30694D01*
X48234Y-30774D02*
X48686Y-30774D01*
X49570Y-30774D02*
X52830Y-30774D01*
X53523Y-30774D02*
X53547Y-30774D01*
X54239Y-30774D02*
X57927Y-30774D01*
X58665Y-30774D02*
X58985Y-30774D01*
X48229Y-30854D02*
X48686Y-30854D01*
X49570Y-30854D02*
X52388Y-30854D01*
X52711Y-30854D02*
X52830Y-30854D01*
X53523Y-30854D02*
X53547Y-30854D01*
X54239Y-30854D02*
X57927Y-30854D01*
X58585Y-30854D02*
X58985Y-30854D01*
X48213Y-30934D02*
X48686Y-30934D01*
X49570Y-30934D02*
X52248Y-30934D01*
X52786Y-30934D02*
X52810Y-30934D01*
X53523Y-30934D02*
X53547Y-30934D01*
X54239Y-30934D02*
X57927Y-30934D01*
X58577Y-30934D02*
X58985Y-30934D01*
X48170Y-31014D02*
X48686Y-31014D01*
X49570Y-31014D02*
X51209Y-31014D01*
X52786Y-31014D02*
X52810Y-31014D01*
X53523Y-31014D02*
X53547Y-31014D01*
X54239Y-31014D02*
X57142Y-31014D01*
X57615Y-31014D02*
X57927Y-31014D01*
X58577Y-31014D02*
X58985Y-31014D01*
X48106Y-31094D02*
X48686Y-31094D01*
X49570Y-31094D02*
X49679Y-31094D01*
X50951Y-31094D02*
X51155Y-31094D01*
X52786Y-31094D02*
X52810Y-31094D01*
X53523Y-31094D02*
X53547Y-31094D01*
X54213Y-31094D02*
X57062Y-31094D01*
X57695Y-31094D02*
X57927Y-31094D01*
X58577Y-31094D02*
X58985Y-31094D01*
X48026Y-31174D02*
X48686Y-31174D01*
X49570Y-31174D02*
X49617Y-31174D01*
X51014Y-31174D02*
X51134Y-31174D01*
X52786Y-31174D02*
X52810Y-31174D01*
X53523Y-31174D02*
X53547Y-31174D01*
X54172Y-31174D02*
X57023Y-31174D01*
X57735Y-31174D02*
X57927Y-31174D01*
X58577Y-31174D02*
X58985Y-31174D01*
X47946Y-31254D02*
X48686Y-31254D01*
X49570Y-31254D02*
X49591Y-31254D01*
X51039Y-31254D02*
X51134Y-31254D01*
X52786Y-31254D02*
X52810Y-31254D01*
X53494Y-31254D02*
X53575Y-31254D01*
X54092Y-31254D02*
X56992Y-31254D01*
X57764Y-31254D02*
X57927Y-31254D01*
X58577Y-31254D02*
X58985Y-31254D01*
X47866Y-31334D02*
X48686Y-31334D01*
X49570Y-31334D02*
X49591Y-31334D01*
X52786Y-31334D02*
X52810Y-31334D01*
X53463Y-31334D02*
X56992Y-31334D01*
X57764Y-31334D02*
X57927Y-31334D01*
X58577Y-31334D02*
X58985Y-31334D01*
X47786Y-31414D02*
X48686Y-31414D01*
X49570Y-31414D02*
X49591Y-31414D01*
X52786Y-31414D02*
X52810Y-31414D01*
X53463Y-31414D02*
X56997Y-31414D01*
X57758Y-31414D02*
X57927Y-31414D01*
X58577Y-31414D02*
X58985Y-31414D01*
X47706Y-31494D02*
X48686Y-31494D01*
X49570Y-31494D02*
X49591Y-31494D01*
X52786Y-31494D02*
X52810Y-31494D01*
X53417Y-31494D02*
X57031Y-31494D01*
X57724Y-31494D02*
X57927Y-31494D01*
X58577Y-31494D02*
X58985Y-31494D01*
X47626Y-31574D02*
X48686Y-31574D01*
X49570Y-31574D02*
X49591Y-31574D01*
X52786Y-31574D02*
X52810Y-31574D01*
X53391Y-31574D02*
X57053Y-31574D01*
X57703Y-31574D02*
X57927Y-31574D01*
X58577Y-31574D02*
X58985Y-31574D01*
X47546Y-31654D02*
X48686Y-31654D01*
X49570Y-31654D02*
X49591Y-31654D01*
X52786Y-31654D02*
X52810Y-31654D01*
X53462Y-31654D02*
X57053Y-31654D01*
X57703Y-31654D02*
X57927Y-31654D01*
X58577Y-31654D02*
X58985Y-31654D01*
X47439Y-31734D02*
X48686Y-31734D01*
X49570Y-31734D02*
X49591Y-31734D01*
X52786Y-31734D02*
X52810Y-31734D01*
X53462Y-31734D02*
X57053Y-31734D01*
X57703Y-31734D02*
X57927Y-31734D01*
X58577Y-31734D02*
X58985Y-31734D01*
X47344Y-31814D02*
X48638Y-31814D01*
X49570Y-31814D02*
X49591Y-31814D01*
X52786Y-31814D02*
X52810Y-31814D01*
X53462Y-31814D02*
X57053Y-31814D01*
X57703Y-31814D02*
X57927Y-31814D01*
X58577Y-31814D02*
X58985Y-31814D01*
X47344Y-31894D02*
X48558Y-31894D01*
X49570Y-31894D02*
X49591Y-31894D01*
X51039Y-31894D02*
X51134Y-31894D01*
X52786Y-31894D02*
X52810Y-31894D01*
X53462Y-31894D02*
X57053Y-31894D01*
X57703Y-31894D02*
X57927Y-31894D01*
X58577Y-31894D02*
X58985Y-31894D01*
X47344Y-31974D02*
X48197Y-31974D01*
X49570Y-31974D02*
X49591Y-31974D01*
X51039Y-31974D02*
X51143Y-31974D01*
X52786Y-31974D02*
X52810Y-31974D01*
X53461Y-31974D02*
X57053Y-31974D01*
X57703Y-31974D02*
X57927Y-31974D01*
X58577Y-31974D02*
X58985Y-31974D01*
X47344Y-32054D02*
X48000Y-32054D01*
X49565Y-32054D02*
X49591Y-32054D01*
X51039Y-32054D02*
X51183Y-32054D01*
X52786Y-32054D02*
X52810Y-32054D01*
X53428Y-32054D02*
X57053Y-32054D01*
X57703Y-32054D02*
X57927Y-32054D01*
X58577Y-32054D02*
X58985Y-32054D01*
X47344Y-32134D02*
X47917Y-32134D01*
X49549Y-32134D02*
X49591Y-32134D01*
X51039Y-32134D02*
X51292Y-32134D01*
X52103Y-32134D02*
X52221Y-32134D01*
X52786Y-32134D02*
X52810Y-32134D01*
X53374Y-32134D02*
X56317Y-32134D01*
X56605Y-32134D02*
X57008Y-32134D01*
X57703Y-32134D02*
X57927Y-32134D01*
X58577Y-32134D02*
X58985Y-32134D01*
X47344Y-32214D02*
X47837Y-32214D01*
X49499Y-32214D02*
X49591Y-32214D01*
X51039Y-32214D02*
X52324Y-32214D01*
X52737Y-32214D02*
X52859Y-32214D01*
X53271Y-32214D02*
X56194Y-32214D01*
X57703Y-32214D02*
X57927Y-32214D01*
X58577Y-32214D02*
X58985Y-32214D01*
X47344Y-32294D02*
X47770Y-32294D01*
X49427Y-32294D02*
X49591Y-32294D01*
X51039Y-32294D02*
X56126Y-32294D01*
X57688Y-32294D02*
X57927Y-32294D01*
X58577Y-32294D02*
X58985Y-32294D01*
X47344Y-32374D02*
X47728Y-32374D01*
X49347Y-32374D02*
X49591Y-32374D01*
X51039Y-32374D02*
X56093Y-32374D01*
X57660Y-32374D02*
X57927Y-32374D01*
X58577Y-32374D02*
X58985Y-32374D01*
X47344Y-32454D02*
X47712Y-32454D01*
X49267Y-32454D02*
X49591Y-32454D01*
X51039Y-32454D02*
X56075Y-32454D01*
X57608Y-32454D02*
X57927Y-32454D01*
X58577Y-32454D02*
X58985Y-32454D01*
X47344Y-32534D02*
X47710Y-32534D01*
X49187Y-32534D02*
X49591Y-32534D01*
X51039Y-32534D02*
X56075Y-32534D01*
X57528Y-32534D02*
X57927Y-32534D01*
X58577Y-32534D02*
X58985Y-32534D01*
X47344Y-32614D02*
X47710Y-32614D01*
X49107Y-32614D02*
X49603Y-32614D01*
X51026Y-32614D02*
X56093Y-32614D01*
X57448Y-32614D02*
X57927Y-32614D01*
X58577Y-32614D02*
X58985Y-32614D01*
X47313Y-32694D02*
X47710Y-32694D01*
X49027Y-32694D02*
X49647Y-32694D01*
X50983Y-32694D02*
X56126Y-32694D01*
X57368Y-32694D02*
X57927Y-32694D01*
X58577Y-32694D02*
X58985Y-32694D01*
X47321Y-32774D02*
X47710Y-32774D01*
X48932Y-32774D02*
X49766Y-32774D01*
X50863Y-32774D02*
X56197Y-32774D01*
X57261Y-32774D02*
X57927Y-32774D01*
X58577Y-32774D02*
X58985Y-32774D01*
X46728Y-32854D02*
X46752Y-32854D01*
X47395Y-32854D02*
X47710Y-32854D01*
X48510Y-32854D02*
X56326Y-32854D01*
X56595Y-32854D02*
X57927Y-32854D01*
X58577Y-32854D02*
X58985Y-32854D01*
X46728Y-32934D02*
X46752Y-32934D01*
X47428Y-32934D02*
X47710Y-32934D01*
X48510Y-32934D02*
X57927Y-32934D01*
X58577Y-32934D02*
X58985Y-32934D01*
X46728Y-33014D02*
X46752Y-33014D01*
X47445Y-33014D02*
X47710Y-33014D01*
X48510Y-33014D02*
X57927Y-33014D01*
X58577Y-33014D02*
X58985Y-33014D01*
X46728Y-33094D02*
X46752Y-33094D01*
X47445Y-33094D02*
X47710Y-33094D01*
X48510Y-33094D02*
X57927Y-33094D01*
X58577Y-33094D02*
X58985Y-33094D01*
X46728Y-33174D02*
X46752Y-33174D01*
X47445Y-33174D02*
X47710Y-33174D01*
X48510Y-33174D02*
X57927Y-33174D01*
X58577Y-33174D02*
X58985Y-33174D01*
X46728Y-33254D02*
X46752Y-33254D01*
X47445Y-33254D02*
X47710Y-33254D01*
X48510Y-33254D02*
X57927Y-33254D01*
X58577Y-33254D02*
X58985Y-33254D01*
X45567Y-33334D02*
X46111Y-33334D01*
X46728Y-33334D02*
X46752Y-33334D01*
X47369Y-33334D02*
X47710Y-33334D01*
X48510Y-33334D02*
X49689Y-33334D01*
X50941Y-33334D02*
X57927Y-33334D01*
X58577Y-33334D02*
X58985Y-33334D01*
X45487Y-33414D02*
X46077Y-33414D01*
X47403Y-33414D02*
X47710Y-33414D01*
X48510Y-33414D02*
X49621Y-33414D01*
X51010Y-33414D02*
X57927Y-33414D01*
X58577Y-33414D02*
X58985Y-33414D01*
X45407Y-33494D02*
X46035Y-33494D01*
X47444Y-33494D02*
X47710Y-33494D01*
X48510Y-33494D02*
X49591Y-33494D01*
X51039Y-33494D02*
X57927Y-33494D01*
X58577Y-33494D02*
X58985Y-33494D01*
X45407Y-33574D02*
X46035Y-33574D01*
X47444Y-33574D02*
X47710Y-33574D01*
X48510Y-33574D02*
X49591Y-33574D01*
X51039Y-33574D02*
X57927Y-33574D01*
X58577Y-33574D02*
X58985Y-33574D01*
X45407Y-33654D02*
X46035Y-33654D01*
X47444Y-33654D02*
X47710Y-33654D01*
X48510Y-33654D02*
X49591Y-33654D01*
X51039Y-33654D02*
X55230Y-33654D01*
X55408Y-33654D02*
X55986Y-33654D01*
X56164Y-33654D02*
X57927Y-33654D01*
X58577Y-33654D02*
X58985Y-33654D01*
X45407Y-33734D02*
X46035Y-33734D01*
X47444Y-33734D02*
X47710Y-33734D01*
X48510Y-33734D02*
X49591Y-33734D01*
X51039Y-33734D02*
X55075Y-33734D01*
X55564Y-33734D02*
X55831Y-33734D01*
X57592Y-33734D02*
X57927Y-33734D01*
X58577Y-33734D02*
X58985Y-33734D01*
X45407Y-33814D02*
X46066Y-33814D01*
X47413Y-33814D02*
X47705Y-33814D01*
X48510Y-33814D02*
X49591Y-33814D01*
X51039Y-33814D02*
X54995Y-33814D01*
X55644Y-33814D02*
X55751Y-33814D01*
X57708Y-33814D02*
X57927Y-33814D01*
X58577Y-33814D02*
X58985Y-33814D01*
X45407Y-33894D02*
X46113Y-33894D01*
X47366Y-33894D02*
X47625Y-33894D01*
X48510Y-33894D02*
X49591Y-33894D01*
X51039Y-33894D02*
X52334Y-33894D01*
X52739Y-33894D02*
X52865Y-33894D01*
X53271Y-33894D02*
X54960Y-33894D01*
X55679Y-33894D02*
X55716Y-33894D01*
X57787Y-33894D02*
X57927Y-33894D01*
X58577Y-33894D02*
X58985Y-33894D01*
X46100Y-33974D02*
X46201Y-33974D01*
X47400Y-33974D02*
X47545Y-33974D01*
X48510Y-33974D02*
X49591Y-33974D01*
X51039Y-33974D02*
X51302Y-33974D01*
X52103Y-33974D02*
X52228Y-33974D01*
X52790Y-33974D02*
X52814Y-33974D01*
X53377Y-33974D02*
X54933Y-33974D01*
X57867Y-33974D02*
X57927Y-33974D01*
X58577Y-33974D02*
X58967Y-33974D01*
X46162Y-34054D02*
X46413Y-34054D01*
X47462Y-34054D02*
X47465Y-34054D01*
X48510Y-34054D02*
X49591Y-34054D01*
X51039Y-34054D02*
X51189Y-34054D01*
X52790Y-34054D02*
X52814Y-34054D01*
X53432Y-34054D02*
X54933Y-34054D01*
X58674Y-34054D02*
X58868Y-34054D01*
X46186Y-34134D02*
X46388Y-34134D01*
X48510Y-34134D02*
X49591Y-34134D01*
X51039Y-34134D02*
X51149Y-34134D01*
X52790Y-34134D02*
X52814Y-34134D01*
X53465Y-34134D02*
X54942Y-34134D01*
X58760Y-34134D02*
X58837Y-34134D01*
X44288Y-34214D02*
X44634Y-34214D01*
X46186Y-34214D02*
X46388Y-34214D01*
X48510Y-34214D02*
X49591Y-34214D01*
X51039Y-34214D02*
X51138Y-34214D01*
X52790Y-34214D02*
X52814Y-34214D01*
X53466Y-34214D02*
X54975Y-34214D01*
X58793Y-34214D02*
X58830Y-34214D01*
X44288Y-34294D02*
X44554Y-34294D01*
X46186Y-34294D02*
X46388Y-34294D01*
X48498Y-34294D02*
X49591Y-34294D01*
X52790Y-34294D02*
X52814Y-34294D01*
X53467Y-34294D02*
X55029Y-34294D01*
X58796Y-34294D02*
X58830Y-34294D01*
X44288Y-34374D02*
X44507Y-34374D01*
X46186Y-34374D02*
X46388Y-34374D01*
X48469Y-34374D02*
X49591Y-34374D01*
X52790Y-34374D02*
X52814Y-34374D01*
X53467Y-34374D02*
X54979Y-34374D01*
X58796Y-34374D02*
X58830Y-34374D01*
X44288Y-34454D02*
X44474Y-34454D01*
X46186Y-34454D02*
X46388Y-34454D01*
X48412Y-34454D02*
X49591Y-34454D01*
X52790Y-34454D02*
X52814Y-34454D01*
X53467Y-34454D02*
X54945Y-34454D01*
X58796Y-34454D02*
X58830Y-34454D01*
X44288Y-34534D02*
X44465Y-34534D01*
X46186Y-34534D02*
X46388Y-34534D01*
X48332Y-34534D02*
X49591Y-34534D01*
X52790Y-34534D02*
X52814Y-34534D01*
X53397Y-34534D02*
X54933Y-34534D01*
X58796Y-34534D02*
X58830Y-34534D01*
X44288Y-34614D02*
X44465Y-34614D01*
X46186Y-34614D02*
X46388Y-34614D01*
X48252Y-34614D02*
X49591Y-34614D01*
X52790Y-34614D02*
X52814Y-34614D01*
X53419Y-34614D02*
X54933Y-34614D01*
X58796Y-34614D02*
X58830Y-34614D01*
X44288Y-34694D02*
X44485Y-34694D01*
X46186Y-34694D02*
X46388Y-34694D01*
X48172Y-34694D02*
X49591Y-34694D01*
X52790Y-34694D02*
X52814Y-34694D01*
X53466Y-34694D02*
X54918Y-34694D01*
X58796Y-34694D02*
X58830Y-34694D01*
X44288Y-34774D02*
X44518Y-34774D01*
X46186Y-34774D02*
X46388Y-34774D01*
X48092Y-34774D02*
X49591Y-34774D01*
X52790Y-34774D02*
X52814Y-34774D01*
X53466Y-34774D02*
X54812Y-34774D01*
X58796Y-34774D02*
X58830Y-34774D01*
X44288Y-34854D02*
X44584Y-34854D01*
X46186Y-34854D02*
X46388Y-34854D01*
X48012Y-34854D02*
X49599Y-34854D01*
X51030Y-34854D02*
X51138Y-34854D01*
X52790Y-34854D02*
X52814Y-34854D01*
X53466Y-34854D02*
X54757Y-34854D01*
X58787Y-34854D02*
X58830Y-34854D01*
X44288Y-34934D02*
X44685Y-34934D01*
X46186Y-34934D02*
X46388Y-34934D01*
X47932Y-34934D02*
X48792Y-34934D01*
X49263Y-34934D02*
X49349Y-34934D01*
X50993Y-34934D02*
X51138Y-34934D01*
X52790Y-34934D02*
X52814Y-34934D01*
X53466Y-34934D02*
X54724Y-34934D01*
X58781Y-34934D02*
X58830Y-34934D01*
X44288Y-35014D02*
X45088Y-35014D01*
X46185Y-35014D02*
X46388Y-35014D01*
X48655Y-35014D02*
X48712Y-35014D01*
X49294Y-35014D02*
X49318Y-35014D01*
X50887Y-35014D02*
X51157Y-35014D01*
X52790Y-35014D02*
X52814Y-35014D01*
X53455Y-35014D02*
X54721Y-35014D01*
X58796Y-35014D02*
X58830Y-35014D01*
X44288Y-35094D02*
X45122Y-35094D01*
X46152Y-35094D02*
X46422Y-35094D01*
X49294Y-35094D02*
X49318Y-35094D01*
X49944Y-35094D02*
X51211Y-35094D01*
X52790Y-35094D02*
X52814Y-35094D01*
X53422Y-35094D02*
X54721Y-35094D01*
X58796Y-35094D02*
X58830Y-35094D01*
X44288Y-35174D02*
X45087Y-35174D01*
X46166Y-35174D02*
X46387Y-35174D01*
X49294Y-35174D02*
X49318Y-35174D01*
X49970Y-35174D02*
X52249Y-35174D01*
X52790Y-35174D02*
X52814Y-35174D01*
X53354Y-35174D02*
X54721Y-35174D01*
X58796Y-35174D02*
X58830Y-35174D01*
X44288Y-35254D02*
X44675Y-35254D01*
X46175Y-35254D02*
X46377Y-35254D01*
X49294Y-35254D02*
X49318Y-35254D01*
X49970Y-35254D02*
X52386Y-35254D01*
X52717Y-35254D02*
X52887Y-35254D01*
X53217Y-35254D02*
X54749Y-35254D01*
X58796Y-35254D02*
X58830Y-35254D01*
X44288Y-35334D02*
X44573Y-35334D01*
X46175Y-35334D02*
X46377Y-35334D01*
X49294Y-35334D02*
X49318Y-35334D01*
X49971Y-35334D02*
X55667Y-35334D01*
X58796Y-35334D02*
X58830Y-35334D01*
X44288Y-35414D02*
X44508Y-35414D01*
X46175Y-35414D02*
X46377Y-35414D01*
X49294Y-35414D02*
X49318Y-35414D01*
X49971Y-35414D02*
X54729Y-35414D01*
X55413Y-35414D02*
X55437Y-35414D01*
X58796Y-35414D02*
X58830Y-35414D01*
X44288Y-35494D02*
X44475Y-35494D01*
X46175Y-35494D02*
X46377Y-35494D01*
X49294Y-35494D02*
X49318Y-35494D01*
X49961Y-35494D02*
X54720Y-35494D01*
X55413Y-35494D02*
X55437Y-35494D01*
X58796Y-35494D02*
X58830Y-35494D01*
X44288Y-35574D02*
X44453Y-35574D01*
X46175Y-35574D02*
X46377Y-35574D01*
X47608Y-35574D02*
X47642Y-35574D01*
X48770Y-35574D02*
X54720Y-35574D01*
X55413Y-35574D02*
X55437Y-35574D01*
X58796Y-35574D02*
X58830Y-35574D01*
X44288Y-35654D02*
X44453Y-35654D01*
X46175Y-35654D02*
X46377Y-35654D01*
X47528Y-35654D02*
X47642Y-35654D01*
X49294Y-35654D02*
X49318Y-35654D01*
X49943Y-35654D02*
X54720Y-35654D01*
X55413Y-35654D02*
X55437Y-35654D01*
X58766Y-35654D02*
X58830Y-35654D01*
X44288Y-35734D02*
X44461Y-35734D01*
X46175Y-35734D02*
X46377Y-35734D01*
X47475Y-35734D02*
X47642Y-35734D01*
X49294Y-35734D02*
X49318Y-35734D01*
X49970Y-35734D02*
X54731Y-35734D01*
X55413Y-35734D02*
X55437Y-35734D01*
X58698Y-35734D02*
X58830Y-35734D01*
X44288Y-35814D02*
X44494Y-35814D01*
X46175Y-35814D02*
X46377Y-35814D01*
X47475Y-35814D02*
X47642Y-35814D01*
X49294Y-35814D02*
X49318Y-35814D01*
X49970Y-35814D02*
X54764Y-35814D01*
X55413Y-35814D02*
X55437Y-35814D01*
X58577Y-35814D02*
X58830Y-35814D01*
X44288Y-35894D02*
X44541Y-35894D01*
X46175Y-35894D02*
X46377Y-35894D01*
X47475Y-35894D02*
X47642Y-35894D01*
X49294Y-35894D02*
X49318Y-35894D01*
X49970Y-35894D02*
X54831Y-35894D01*
X58565Y-35894D02*
X58830Y-35894D01*
X44288Y-35974D02*
X44621Y-35974D01*
X46175Y-35974D02*
X46377Y-35974D01*
X47475Y-35974D02*
X47642Y-35974D01*
X49294Y-35974D02*
X49318Y-35974D01*
X49970Y-35974D02*
X54857Y-35974D01*
X58542Y-35974D02*
X58830Y-35974D01*
X44288Y-36054D02*
X44790Y-36054D01*
X44964Y-36054D02*
X45077Y-36054D01*
X46175Y-36054D02*
X46377Y-36054D01*
X47475Y-36054D02*
X47669Y-36054D01*
X49294Y-36054D02*
X49318Y-36054D01*
X49950Y-36054D02*
X54824Y-36054D01*
X58489Y-36054D02*
X58830Y-36054D01*
X44288Y-36134D02*
X45093Y-36134D01*
X46159Y-36134D02*
X46393Y-36134D01*
X47459Y-36134D02*
X47735Y-36134D01*
X48676Y-36134D02*
X48694Y-36134D01*
X49294Y-36134D02*
X49318Y-36134D01*
X49917Y-36134D02*
X54821Y-36134D01*
X58413Y-36134D02*
X58830Y-36134D01*
X44288Y-36214D02*
X45142Y-36214D01*
X46110Y-36214D02*
X46442Y-36214D01*
X47410Y-36214D02*
X48773Y-36214D01*
X49281Y-36214D02*
X49331Y-36214D01*
X49838Y-36214D02*
X54821Y-36214D01*
X58257Y-36214D02*
X58830Y-36214D01*
X44288Y-36294D02*
X45273Y-36294D01*
X45977Y-36294D02*
X46573Y-36294D01*
X47277Y-36294D02*
X54821Y-36294D01*
X57742Y-36294D02*
X58830Y-36294D01*
X44288Y-36374D02*
X54741Y-36374D01*
X57701Y-36374D02*
X58830Y-36374D01*
X44288Y-36454D02*
X54661Y-36454D01*
X57586Y-36454D02*
X58830Y-36454D01*
X44288Y-36534D02*
X54581Y-36534D01*
X56692Y-36534D02*
X58830Y-36534D01*
X44288Y-36614D02*
X53810Y-36614D01*
X56106Y-36614D02*
X58830Y-36614D01*
X44288Y-36694D02*
X53720Y-36694D01*
X56029Y-36694D02*
X58830Y-36694D01*
X44288Y-36774D02*
X50208Y-36774D01*
X51056Y-36774D02*
X51978Y-36774D01*
X52826Y-36774D02*
X53640Y-36774D01*
X56029Y-36774D02*
X58830Y-36774D01*
X44288Y-36854D02*
X45990Y-36854D01*
X46279Y-36854D02*
X50014Y-36854D01*
X51248Y-36854D02*
X51784Y-36854D01*
X53018Y-36854D02*
X53560Y-36854D01*
X56001Y-36854D02*
X58830Y-36854D01*
X44288Y-36934D02*
X45780Y-36934D01*
X46675Y-36934D02*
X47612Y-36934D01*
X48641Y-36934D02*
X48815Y-36934D01*
X49825Y-36934D02*
X49934Y-36934D01*
X51329Y-36934D02*
X51704Y-36934D01*
X55937Y-36934D02*
X58830Y-36934D01*
X44288Y-37014D02*
X45569Y-37014D01*
X46853Y-37014D02*
X47516Y-37014D01*
X51403Y-37014D02*
X51630Y-37014D01*
X55241Y-37014D02*
X58830Y-37014D01*
X44288Y-37094D02*
X45465Y-37094D01*
X46984Y-37094D02*
X47483Y-37094D01*
X51436Y-37094D02*
X51597Y-37094D01*
X55265Y-37094D02*
X56075Y-37094D01*
X44288Y-37174D02*
X45426Y-37174D01*
X47023Y-37174D02*
X47477Y-37174D01*
X51469Y-37174D02*
X51564Y-37174D01*
X55265Y-37174D02*
X55988Y-37174D01*
X44288Y-37254D02*
X45387Y-37254D01*
X47062Y-37254D02*
X47477Y-37254D01*
X51480Y-37254D02*
X51552Y-37254D01*
X54589Y-37254D02*
X54613Y-37254D01*
X55266Y-37254D02*
X55908Y-37254D01*
X44288Y-37334D02*
X45247Y-37334D01*
X45427Y-37334D02*
X45461Y-37334D01*
X46987Y-37334D02*
X47021Y-37334D01*
X47202Y-37334D02*
X47477Y-37334D01*
X51480Y-37334D02*
X51552Y-37334D01*
X54589Y-37334D02*
X54613Y-37334D01*
X55266Y-37334D02*
X55828Y-37334D01*
X44288Y-37414D02*
X45157Y-37414D01*
X45507Y-37414D02*
X45541Y-37414D01*
X46907Y-37414D02*
X46941Y-37414D01*
X47302Y-37414D02*
X47477Y-37414D01*
X51480Y-37414D02*
X51552Y-37414D01*
X54589Y-37414D02*
X54613Y-37414D01*
X55249Y-37414D02*
X55748Y-37414D01*
X44288Y-37494D02*
X45121Y-37494D01*
X45587Y-37494D02*
X45621Y-37494D01*
X46827Y-37494D02*
X46861Y-37494D01*
X47338Y-37494D02*
X47477Y-37494D01*
X51447Y-37494D02*
X51584Y-37494D01*
X54065Y-37494D02*
X55668Y-37494D01*
X44288Y-37574D02*
X45085Y-37574D01*
X45667Y-37574D02*
X45701Y-37574D01*
X46747Y-37574D02*
X46781Y-37574D01*
X47368Y-37574D02*
X47477Y-37574D01*
X51413Y-37574D02*
X51617Y-37574D01*
X54589Y-37574D02*
X54613Y-37574D01*
X55245Y-37574D02*
X55588Y-37574D01*
X44288Y-37654D02*
X45049Y-37654D01*
X45747Y-37654D02*
X45781Y-37654D01*
X46667Y-37654D02*
X46701Y-37654D01*
X47399Y-37654D02*
X47477Y-37654D01*
X54589Y-37654D02*
X54613Y-37654D01*
X55265Y-37654D02*
X55508Y-37654D01*
X44288Y-37734D02*
X45013Y-37734D01*
X45827Y-37734D02*
X45861Y-37734D01*
X46587Y-37734D02*
X46621Y-37734D01*
X47429Y-37734D02*
X47477Y-37734D01*
X54589Y-37734D02*
X54613Y-37734D01*
X55265Y-37734D02*
X55428Y-37734D01*
X44288Y-37814D02*
X44977Y-37814D01*
X45907Y-37814D02*
X45941Y-37814D01*
X46507Y-37814D02*
X46541Y-37814D01*
X47459Y-37814D02*
X47480Y-37814D01*
X49966Y-37814D02*
X50138Y-37814D01*
X51838Y-37814D02*
X51909Y-37814D01*
X54589Y-37814D02*
X54613Y-37814D01*
X55265Y-37814D02*
X55348Y-37814D01*
X44288Y-37894D02*
X44969Y-37894D01*
X45987Y-37894D02*
X46021Y-37894D01*
X46427Y-37894D02*
X46461Y-37894D01*
X47490Y-37894D02*
X47513Y-37894D01*
X49932Y-37894D02*
X50750Y-37894D01*
X51848Y-37894D02*
X52050Y-37894D01*
X54589Y-37894D02*
X54613Y-37894D01*
X55265Y-37894D02*
X55268Y-37894D01*
X44288Y-37974D02*
X44967Y-37974D01*
X46067Y-37974D02*
X46101Y-37974D01*
X46347Y-37974D02*
X46381Y-37974D01*
X47489Y-37974D02*
X47601Y-37974D01*
X49852Y-37974D02*
X50750Y-37974D01*
X51848Y-37974D02*
X52050Y-37974D01*
X54589Y-37974D02*
X54613Y-37974D01*
X44288Y-38054D02*
X44965Y-38054D01*
X46147Y-38054D02*
X46181Y-38054D01*
X46267Y-38054D02*
X46301Y-38054D01*
X47487Y-38054D02*
X48121Y-38054D01*
X49558Y-38054D02*
X50750Y-38054D01*
X51848Y-38054D02*
X52050Y-38054D01*
X53964Y-38054D02*
X53995Y-38054D01*
X54589Y-38054D02*
X54613Y-38054D01*
X44333Y-38134D02*
X44962Y-38134D01*
X46187Y-38134D02*
X46221Y-38134D01*
X46227Y-38134D02*
X46261Y-38134D01*
X47485Y-38134D02*
X48027Y-38134D01*
X49496Y-38134D02*
X50750Y-38134D01*
X51848Y-38134D02*
X52050Y-38134D01*
X53663Y-38134D02*
X54075Y-38134D01*
X54569Y-38134D02*
X54633Y-38134D01*
X44413Y-38214D02*
X44960Y-38214D01*
X46107Y-38214D02*
X46141Y-38214D01*
X46307Y-38214D02*
X46341Y-38214D01*
X47482Y-38214D02*
X47661Y-38214D01*
X49777Y-38214D02*
X50750Y-38214D01*
X51848Y-38214D02*
X52050Y-38214D01*
X53583Y-38214D02*
X54949Y-38214D01*
X44493Y-38294D02*
X44957Y-38294D01*
X46027Y-38294D02*
X46061Y-38294D01*
X46387Y-38294D02*
X46421Y-38294D01*
X47480Y-38294D02*
X47536Y-38294D01*
X49905Y-38294D02*
X50750Y-38294D01*
X51848Y-38294D02*
X52050Y-38294D01*
X53503Y-38294D02*
X54869Y-38294D01*
X44573Y-38374D02*
X44973Y-38374D01*
X45947Y-38374D02*
X45981Y-38374D01*
X46467Y-38374D02*
X46501Y-38374D01*
X47477Y-38374D02*
X47491Y-38374D01*
X49953Y-38374D02*
X50750Y-38374D01*
X51848Y-38374D02*
X52050Y-38374D01*
X53424Y-38374D02*
X54789Y-38374D01*
X44653Y-38454D02*
X45004Y-38454D01*
X45867Y-38454D02*
X45901Y-38454D01*
X46547Y-38454D02*
X46581Y-38454D01*
X47453Y-38454D02*
X47477Y-38454D01*
X49968Y-38454D02*
X50750Y-38454D01*
X51848Y-38454D02*
X52050Y-38454D01*
X53344Y-38454D02*
X54709Y-38454D01*
X44733Y-38534D02*
X45034Y-38534D01*
X45787Y-38534D02*
X45821Y-38534D01*
X46627Y-38534D02*
X46661Y-38534D01*
X47417Y-38534D02*
X47477Y-38534D01*
X49968Y-38534D02*
X50750Y-38534D01*
X51848Y-38534D02*
X52050Y-38534D01*
X53256Y-38534D02*
X54629Y-38534D01*
X44813Y-38614D02*
X45064Y-38614D01*
X45707Y-38614D02*
X45741Y-38614D01*
X46707Y-38614D02*
X46741Y-38614D01*
X47381Y-38614D02*
X47477Y-38614D01*
X49968Y-38614D02*
X50750Y-38614D01*
X51848Y-38614D02*
X52050Y-38614D01*
X53148Y-38614D02*
X54549Y-38614D01*
X44893Y-38694D02*
X45095Y-38694D01*
X45627Y-38694D02*
X45661Y-38694D01*
X46787Y-38694D02*
X46821Y-38694D01*
X47345Y-38694D02*
X47477Y-38694D01*
X49968Y-38694D02*
X50750Y-38694D01*
X51848Y-38694D02*
X52050Y-38694D01*
X53148Y-38694D02*
X54469Y-38694D01*
X44973Y-38774D02*
X45125Y-38774D01*
X45547Y-38774D02*
X45581Y-38774D01*
X46867Y-38774D02*
X46901Y-38774D01*
X47309Y-38774D02*
X47477Y-38774D01*
X49968Y-38774D02*
X50765Y-38774D01*
X51832Y-38774D02*
X52065Y-38774D01*
X53132Y-38774D02*
X54389Y-38774D01*
X45053Y-38854D02*
X45172Y-38854D01*
X45467Y-38854D02*
X45501Y-38854D01*
X46947Y-38854D02*
X46981Y-38854D01*
X47273Y-38854D02*
X47477Y-38854D01*
X49968Y-38854D02*
X50814Y-38854D01*
X51784Y-38854D02*
X52114Y-38854D01*
X53084Y-38854D02*
X54309Y-38854D01*
X45133Y-38934D02*
X45328Y-38934D01*
X45387Y-38934D02*
X45421Y-38934D01*
X47027Y-38934D02*
X47061Y-38934D01*
X47119Y-38934D02*
X47477Y-38934D01*
X49968Y-38934D02*
X50944Y-38934D01*
X51652Y-38934D02*
X52244Y-38934D01*
X52952Y-38934D02*
X54229Y-38934D01*
X45213Y-39014D02*
X45406Y-39014D01*
X47041Y-39014D02*
X47477Y-39014D01*
X49968Y-39014D02*
X54149Y-39014D01*
X45293Y-39094D02*
X45445Y-39094D01*
X47002Y-39094D02*
X47477Y-39094D01*
X49968Y-39094D02*
X54069Y-39094D01*
X45373Y-39174D02*
X45506Y-39174D01*
X46950Y-39174D02*
X47505Y-39174D01*
X49941Y-39174D02*
X53989Y-39174D01*
X45453Y-39254D02*
X45684Y-39254D01*
X46774Y-39254D02*
X47572Y-39254D01*
X48679Y-39254D02*
X48761Y-39254D01*
X49877Y-39254D02*
X50119Y-39254D01*
X50619Y-39254D02*
X50643Y-39254D01*
X51144Y-39254D02*
X53909Y-39254D01*
X45533Y-39334D02*
X45862Y-39334D01*
X46563Y-39334D02*
X49949Y-39334D01*
X50619Y-39334D02*
X50643Y-39334D01*
X51314Y-39334D02*
X51973Y-39334D01*
X52831Y-39334D02*
X53829Y-39334D01*
X45613Y-39414D02*
X49871Y-39414D01*
X50619Y-39414D02*
X50643Y-39414D01*
X51392Y-39414D02*
X51782Y-39414D01*
X53020Y-39414D02*
X53749Y-39414D01*
X45693Y-39494D02*
X49792Y-39494D01*
X50619Y-39494D02*
X50643Y-39494D01*
X51471Y-39494D02*
X51702Y-39494D01*
X53100Y-39494D02*
X53669Y-39494D01*
X45773Y-39574D02*
X49759Y-39574D01*
X50619Y-39574D02*
X50643Y-39574D01*
X51504Y-39574D02*
X51629Y-39574D01*
X53174Y-39574D02*
X53589Y-39574D01*
X45853Y-39654D02*
X49732Y-39654D01*
X50619Y-39654D02*
X50643Y-39654D01*
X51531Y-39654D02*
X51596Y-39654D01*
X53207Y-39654D02*
X53509Y-39654D01*
X45933Y-39734D02*
X49706Y-39734D01*
X50619Y-39734D02*
X50643Y-39734D01*
X51557Y-39734D02*
X51562Y-39734D01*
X53240Y-39734D02*
X53429Y-39734D01*
X46013Y-39814D02*
X49745Y-39814D01*
X50619Y-39814D02*
X50643Y-39814D01*
X53250Y-39814D02*
X53349Y-39814D01*
X46093Y-39894D02*
X49764Y-39894D01*
X53250Y-39894D02*
X53269Y-39894D01*
X46173Y-39974D02*
X49703Y-39974D01*
X56283Y-34829D02*
X56307Y-34829D01*
X56283Y-34909D02*
X56307Y-34909D01*
X56283Y-34989D02*
X56307Y-34989D01*
X56283Y-35069D02*
X56307Y-35069D01*
X56283Y-35149D02*
X56307Y-35149D01*
X56283Y-35229D02*
X56307Y-35229D01*
X57137Y-34792D02*
X57161Y-34792D01*
X44288Y-26887D02*
X45040Y-26887D01*
X44288Y-26967D02*
X45072Y-26967D01*
X46305Y-26967D02*
X46339Y-26967D01*
X44625Y-27047D02*
X44705Y-27047D01*
X46233Y-27047D02*
X46419Y-27047D01*
X44653Y-27127D02*
X44677Y-27127D01*
X45347Y-27127D02*
X46499Y-27127D01*
X44653Y-27207D02*
X44677Y-27207D01*
X45389Y-27207D02*
X46579Y-27207D01*
X44653Y-27287D02*
X44677Y-27287D01*
X45414Y-27287D02*
X46659Y-27287D01*
X44653Y-27367D02*
X44677Y-27367D01*
X46269Y-27367D02*
X46764Y-27367D01*
X44653Y-27447D02*
X44677Y-27447D01*
X46321Y-27447D02*
X48196Y-27447D01*
X44653Y-27527D02*
X44677Y-27527D01*
X46338Y-27527D02*
X48196Y-27527D01*
X44653Y-27607D02*
X44677Y-27607D01*
X46338Y-27607D02*
X48196Y-27607D01*
X44653Y-27687D02*
X44677Y-27687D01*
X46338Y-27687D02*
X48196Y-27687D01*
X44653Y-27767D02*
X44677Y-27767D01*
X46338Y-27767D02*
X48196Y-27767D01*
X44653Y-27847D02*
X44677Y-27847D01*
X46338Y-27847D02*
X48196Y-27847D01*
X44653Y-27927D02*
X44677Y-27927D01*
X46338Y-27927D02*
X48196Y-27927D01*
X44653Y-28007D02*
X44677Y-28007D01*
X46338Y-28007D02*
X48196Y-28007D01*
X44653Y-28087D02*
X44677Y-28087D01*
X46338Y-28087D02*
X48196Y-28087D01*
X44653Y-28167D02*
X44677Y-28167D01*
X46338Y-28167D02*
X48196Y-28167D01*
X44653Y-28247D02*
X44677Y-28247D01*
X46313Y-28247D02*
X47330Y-28247D01*
X44653Y-28327D02*
X44677Y-28327D01*
X46253Y-28327D02*
X47258Y-28327D01*
X44653Y-28407D02*
X44677Y-28407D01*
X45385Y-28407D02*
X47225Y-28407D01*
X44653Y-28487D02*
X47225Y-28487D01*
X44653Y-28567D02*
X44677Y-28567D01*
X45407Y-28567D02*
X47225Y-28567D01*
X44653Y-28647D02*
X44677Y-28647D01*
X45414Y-28647D02*
X47225Y-28647D01*
X44653Y-28727D02*
X44677Y-28727D01*
X45414Y-28727D02*
X47225Y-28727D01*
X44653Y-28807D02*
X44677Y-28807D01*
X45414Y-28807D02*
X47225Y-28807D01*
X44653Y-28887D02*
X44677Y-28887D01*
X45396Y-28887D02*
X47225Y-28887D01*
X44653Y-28967D02*
X44677Y-28967D01*
X45363Y-28967D02*
X47225Y-28967D01*
X44645Y-29047D02*
X44685Y-29047D01*
X45287Y-29047D02*
X47225Y-29047D01*
X44288Y-29127D02*
X47234Y-29127D01*
X44288Y-29207D02*
X47274Y-29207D01*
X45229Y-29287D02*
X47383Y-29287D01*
X45290Y-29367D02*
X48196Y-29367D01*
X45314Y-29447D02*
X48196Y-29447D01*
X45314Y-29527D02*
X47375Y-29527D01*
X45314Y-29607D02*
X47270Y-29607D01*
X45314Y-29687D02*
X46641Y-29687D01*
X46641Y-29687D02*
X46839Y-29687D01*
X46839Y-29687D02*
X47233Y-29687D01*
X45314Y-29767D02*
X46162Y-29767D01*
X46721Y-29767D02*
X46759Y-29767D01*
X45314Y-29847D02*
X46087Y-29847D01*
X46728Y-29847D02*
X46752Y-29847D01*
X45314Y-29927D02*
X46053Y-29927D01*
X46728Y-29927D02*
X46752Y-29927D01*
X45314Y-30007D02*
X46036Y-30007D01*
X46728Y-30007D02*
X46752Y-30007D01*
X45314Y-30087D02*
X46036Y-30087D01*
X46728Y-30087D02*
X46752Y-30087D01*
X45357Y-30167D02*
X46036Y-30167D01*
X46728Y-30167D02*
X46752Y-30167D01*
X45400Y-30247D02*
X46036Y-30247D01*
X46728Y-30247D02*
X46752Y-30247D01*
X45411Y-30327D02*
X46109Y-30327D01*
X46728Y-30327D02*
X46752Y-30327D01*
X45411Y-30407D02*
X46079Y-30407D01*
X45411Y-30487D02*
X46035Y-30487D01*
X45411Y-30567D02*
X46035Y-30567D01*
X45411Y-30647D02*
X46035Y-30647D01*
X45411Y-30727D02*
X46035Y-30727D01*
X45411Y-30807D02*
X46065Y-30807D01*
X45489Y-30887D02*
X46111Y-30887D01*
X56307Y-35290D02*
X56307Y-34853D01*
X56307Y-34829D01*
X56283Y-34829D01*
X56283Y-34853D01*
X56283Y-35290D01*
X56307Y-35290D01*
X47939Y-24134D02*
X48142Y-24134D01*
X48899Y-24134D02*
X49736Y-24134D01*
X47998Y-24214D02*
X48134Y-24214D01*
X48908Y-24214D02*
X49710Y-24214D01*
X48180Y-24294D02*
X48214Y-24294D01*
X48828Y-24294D02*
X48862Y-24294D01*
X49078Y-24294D02*
X49735Y-24294D01*
X53250Y-24294D02*
X53284Y-24294D01*
X48260Y-24374D02*
X48294Y-24374D01*
X48748Y-24374D02*
X48782Y-24374D01*
X49109Y-24374D02*
X49774Y-24374D01*
X50619Y-24374D02*
X50643Y-24374D01*
X53250Y-24374D02*
X53364Y-24374D01*
X48340Y-24454D02*
X48374Y-24454D01*
X48668Y-24454D02*
X48702Y-24454D01*
X49140Y-24454D02*
X49180Y-24454D01*
X49559Y-24454D02*
X49713Y-24454D01*
X50619Y-24454D02*
X50643Y-24454D01*
X53250Y-24454D02*
X53444Y-24454D01*
X48420Y-24534D02*
X48454Y-24534D01*
X48588Y-24534D02*
X48622Y-24534D01*
X49630Y-24534D02*
X49654Y-24534D01*
X50619Y-24534D02*
X50643Y-24534D01*
X51541Y-24534D02*
X51580Y-24534D01*
X53221Y-24534D02*
X53524Y-24534D01*
X48500Y-24614D02*
X48542Y-24614D01*
X49630Y-24614D02*
X49654Y-24614D01*
X50619Y-24614D02*
X50643Y-24614D01*
X51515Y-24614D02*
X51613Y-24614D01*
X53188Y-24614D02*
X53604Y-24614D01*
X48428Y-24694D02*
X48462Y-24694D01*
X48580Y-24694D02*
X48614Y-24694D01*
X49630Y-24694D02*
X49654Y-24694D01*
X50619Y-24694D02*
X50643Y-24694D01*
X51489Y-24694D02*
X51665Y-24694D01*
X53137Y-24694D02*
X53684Y-24694D01*
X48348Y-24774D02*
X48382Y-24774D01*
X48660Y-24774D02*
X48694Y-24774D01*
X49630Y-24774D02*
X49654Y-24774D01*
X50619Y-24774D02*
X50643Y-24774D01*
X51428Y-24774D02*
X51745Y-24774D01*
X53057Y-24774D02*
X53764Y-24774D01*
X48268Y-24854D02*
X48302Y-24854D01*
X48740Y-24854D02*
X48774Y-24854D01*
X49630Y-24854D02*
X49654Y-24854D01*
X50619Y-24854D02*
X50643Y-24854D01*
X51349Y-24854D02*
X51882Y-24854D01*
X52919Y-24854D02*
X53844Y-24854D01*
X48188Y-24934D02*
X48222Y-24934D01*
X48820Y-24934D02*
X48854Y-24934D01*
X49630Y-24934D02*
X49654Y-24934D01*
X50619Y-24934D02*
X50643Y-24934D01*
X51230Y-24934D02*
X53924Y-24934D01*
X48000Y-25014D02*
X48142Y-25014D01*
X48900Y-25014D02*
X48947Y-25014D01*
X49630Y-25014D02*
X49654Y-25014D01*
X50336Y-25014D02*
X54004Y-25014D01*
X47947Y-25094D02*
X48141Y-25094D01*
X48900Y-25094D02*
X50365Y-25094D01*
X51327Y-25094D02*
X51665Y-25094D01*
X52627Y-25094D02*
X54084Y-25094D01*
X47853Y-25174D02*
X48139Y-25174D01*
X48846Y-25174D02*
X48965Y-25174D01*
X51378Y-25174D02*
X51615Y-25174D01*
X52678Y-25174D02*
X54164Y-25174D01*
X47933Y-25254D02*
X48059Y-25254D01*
X48883Y-25254D02*
X48937Y-25254D01*
X51395Y-25254D02*
X51597Y-25254D01*
X52695Y-25254D02*
X54244Y-25254D01*
X51395Y-25334D02*
X51597Y-25334D01*
X52695Y-25334D02*
X54324Y-25334D01*
X51395Y-25414D02*
X51597Y-25414D01*
X52695Y-25414D02*
X54404Y-25414D01*
X51395Y-25494D02*
X51597Y-25494D01*
X52695Y-25494D02*
X54484Y-25494D01*
X51395Y-25574D02*
X51597Y-25574D01*
X52695Y-25574D02*
X54564Y-25574D01*
X51395Y-25654D02*
X51597Y-25654D01*
X52695Y-25654D02*
X54644Y-25654D01*
X51395Y-25734D02*
X51597Y-25734D01*
X52768Y-25734D02*
X54724Y-25734D01*
X51395Y-25814D02*
X51597Y-25814D01*
X52848Y-25814D02*
X54804Y-25814D01*
X51395Y-25894D02*
X51597Y-25894D01*
X52928Y-25894D02*
X54884Y-25894D01*
X51395Y-25974D02*
X51597Y-25974D01*
X53008Y-25974D02*
X54964Y-25974D01*
X51395Y-26054D02*
X51597Y-26054D01*
X53088Y-26054D02*
X55044Y-26054D01*
X51387Y-26134D02*
X51605Y-26134D01*
X53168Y-26134D02*
X55124Y-26134D01*
X51349Y-26214D02*
X51643Y-26214D01*
X53248Y-26214D02*
X55204Y-26214D01*
X51243Y-26294D02*
X51748Y-26294D01*
X53328Y-26294D02*
X55284Y-26294D01*
X50944Y-26374D02*
X52488Y-26374D01*
X53408Y-26374D02*
X55364Y-26374D01*
X51227Y-26454D02*
X51805Y-26454D01*
X53488Y-26454D02*
X55444Y-26454D01*
X51319Y-26534D02*
X51713Y-26534D01*
X53568Y-26534D02*
X55524Y-26534D01*
X51399Y-26614D02*
X51634Y-26614D01*
X53648Y-26614D02*
X55604Y-26614D01*
X51432Y-26694D02*
X51601Y-26694D01*
X53728Y-26694D02*
X55684Y-26694D01*
X51465Y-26774D02*
X51567Y-26774D01*
X53808Y-26774D02*
X55764Y-26774D01*
X51480Y-26854D02*
X51552Y-26854D01*
X53888Y-26854D02*
X55844Y-26854D01*
X49771Y-26934D02*
X49782Y-26934D01*
X51480Y-26934D02*
X51552Y-26934D01*
X53968Y-26934D02*
X54297Y-26934D01*
X55213Y-26934D02*
X55597Y-26934D01*
X49691Y-27014D02*
X49782Y-27014D01*
X51480Y-27014D02*
X51552Y-27014D01*
X54048Y-27014D02*
X54233Y-27014D01*
X55278Y-27014D02*
X55533Y-27014D01*
X49611Y-27094D02*
X49811Y-27094D01*
X51450Y-27094D02*
X51581Y-27094D01*
X54128Y-27094D02*
X54206Y-27094D01*
X55304Y-27094D02*
X55506Y-27094D01*
X49531Y-27174D02*
X49844Y-27174D01*
X51417Y-27174D02*
X51614Y-27174D01*
X53187Y-27174D02*
X53289Y-27174D01*
X55304Y-27174D02*
X55506Y-27174D01*
X57505Y-27174D02*
X57707Y-27174D01*
X49451Y-27254D02*
X49897Y-27254D01*
X51365Y-27254D02*
X51667Y-27254D01*
X53135Y-27254D02*
X53369Y-27254D01*
X55304Y-27254D02*
X55506Y-27254D01*
X57505Y-27254D02*
X57707Y-27254D01*
X49371Y-27334D02*
X49977Y-27334D01*
X51285Y-27334D02*
X51747Y-27334D01*
X53055Y-27334D02*
X53449Y-27334D01*
X55304Y-27334D02*
X55506Y-27334D01*
X57505Y-27334D02*
X57707Y-27334D01*
X49337Y-27414D02*
X50117Y-27414D01*
X51144Y-27414D02*
X51887Y-27414D01*
X52914Y-27414D02*
X53529Y-27414D01*
X55304Y-27414D02*
X55506Y-27414D01*
X57505Y-27414D02*
X57707Y-27414D01*
X49337Y-27494D02*
X53609Y-27494D01*
X55304Y-27494D02*
X55506Y-27494D01*
X57505Y-27494D02*
X57707Y-27494D01*
X49337Y-27574D02*
X53689Y-27574D01*
X55304Y-27574D02*
X55506Y-27574D01*
X57505Y-27574D02*
X57707Y-27574D01*
X49337Y-27654D02*
X53769Y-27654D01*
X55304Y-27654D02*
X55506Y-27654D01*
X57505Y-27654D02*
X57707Y-27654D01*
X49337Y-27734D02*
X53849Y-27734D01*
X55304Y-27734D02*
X55506Y-27734D01*
X57505Y-27734D02*
X57707Y-27734D01*
X49337Y-27814D02*
X53956Y-27814D01*
X55304Y-27814D02*
X55506Y-27814D01*
X57505Y-27814D02*
X57707Y-27814D01*
X49337Y-27894D02*
X54206Y-27894D01*
X55304Y-27894D02*
X55506Y-27894D01*
X57505Y-27894D02*
X57707Y-27894D01*
X49695Y-27974D02*
X49803Y-27974D01*
X50240Y-27974D02*
X54206Y-27974D01*
X55304Y-27974D02*
X55506Y-27974D01*
X57505Y-27974D02*
X57623Y-27974D01*
X49737Y-28054D02*
X49761Y-28054D01*
X50333Y-28054D02*
X50427Y-28054D01*
X51272Y-28054D02*
X54237Y-28054D01*
X55272Y-28054D02*
X55537Y-28054D01*
X57471Y-28054D02*
X57559Y-28054D01*
X49737Y-28134D02*
X49761Y-28134D01*
X51371Y-28134D02*
X54309Y-28134D01*
X55201Y-28134D02*
X55609Y-28134D01*
X56500Y-28134D02*
X56514Y-28134D01*
X57398Y-28134D02*
X57526Y-28134D01*
X49737Y-28214D02*
X49761Y-28214D01*
X51407Y-28214D02*
X57516Y-28214D01*
X49737Y-28294D02*
X49761Y-28294D01*
X51413Y-28294D02*
X57516Y-28294D01*
X49737Y-28374D02*
X49761Y-28374D01*
X51413Y-28374D02*
X57516Y-28374D01*
X49737Y-28454D02*
X49761Y-28454D01*
X51413Y-28454D02*
X57528Y-28454D01*
X49737Y-28534D02*
X49761Y-28534D01*
X51413Y-28534D02*
X58232Y-28534D01*
X49737Y-28614D02*
X49761Y-28614D01*
X51413Y-28614D02*
X57540Y-28614D01*
X51413Y-28694D02*
X57515Y-28694D01*
X51413Y-28774D02*
X57515Y-28774D01*
X51413Y-28854D02*
X57515Y-28854D01*
X51413Y-28934D02*
X57520Y-28934D01*
X51413Y-29014D02*
X53059Y-29014D01*
X54012Y-29014D02*
X57553Y-29014D01*
X54102Y-29094D02*
X57610Y-29094D01*
X54135Y-29174D02*
X57664Y-29174D01*
X54139Y-29254D02*
X57625Y-29254D01*
X54139Y-29334D02*
X57616Y-29334D01*
X54139Y-29414D02*
X57616Y-29414D01*
X54139Y-29494D02*
X57616Y-29494D01*
X54139Y-29574D02*
X57616Y-29574D01*
X54139Y-29654D02*
X57616Y-29654D01*
X49450Y-29734D02*
X52761Y-29734D01*
X54139Y-29734D02*
X57616Y-29734D01*
X49501Y-29814D02*
X52860Y-29814D01*
X54139Y-29814D02*
X57616Y-29814D01*
X49696Y-29894D02*
X52931Y-29894D01*
X54139Y-29894D02*
X57616Y-29894D01*
X49776Y-29974D02*
X52956Y-29974D01*
X54113Y-29974D02*
X57616Y-29974D01*
X49821Y-30054D02*
X52966Y-30054D01*
X54105Y-30054D02*
X57636Y-30054D01*
X49855Y-30134D02*
X52886Y-30134D01*
X54185Y-30134D02*
X57692Y-30134D01*
X48626Y-30214D02*
X48686Y-30214D01*
X49855Y-30214D02*
X52852Y-30214D01*
X54219Y-30214D02*
X58306Y-30214D01*
X48543Y-30294D02*
X48686Y-30294D01*
X49853Y-30294D02*
X52831Y-30294D01*
X54240Y-30294D02*
X58226Y-30294D01*
X48523Y-30374D02*
X48686Y-30374D01*
X49819Y-30374D02*
X52831Y-30374D01*
X54240Y-30374D02*
X58146Y-30374D01*
X48502Y-30454D02*
X48686Y-30454D01*
X49773Y-30454D02*
X52831Y-30454D01*
X54240Y-30454D02*
X58066Y-30454D01*
X48447Y-30534D02*
X48686Y-30534D01*
X49693Y-30534D02*
X52831Y-30534D01*
X54240Y-30534D02*
X57999Y-30534D01*
X58954Y-30534D02*
X58985Y-30534D01*
X48234Y-30614D02*
X48686Y-30614D01*
X49570Y-30614D02*
X52895Y-30614D01*
X54175Y-30614D02*
X57950Y-30614D01*
X58825Y-30614D02*
X58985Y-30614D01*
X48234Y-30694D02*
X48686Y-30694D01*
X49570Y-30694D02*
X52883Y-30694D01*
X53523Y-30694D02*
X53547Y-30694D01*
X54187Y-30694D02*
X57934Y-30694D01*
X58745Y-30694D02*
X58985Y-30694D01*
X48234Y-30774D02*
X48686Y-30774D01*
X49570Y-30774D02*
X52830Y-30774D01*
X53523Y-30774D02*
X53547Y-30774D01*
X54239Y-30774D02*
X57927Y-30774D01*
X58665Y-30774D02*
X58985Y-30774D01*
X48229Y-30854D02*
X48686Y-30854D01*
X49570Y-30854D02*
X52388Y-30854D01*
X52711Y-30854D02*
X52830Y-30854D01*
X53523Y-30854D02*
X53547Y-30854D01*
X54239Y-30854D02*
X57927Y-30854D01*
X58585Y-30854D02*
X58985Y-30854D01*
X48213Y-30934D02*
X48686Y-30934D01*
X49570Y-30934D02*
X52248Y-30934D01*
X52786Y-30934D02*
X52810Y-30934D01*
X53523Y-30934D02*
X53547Y-30934D01*
X54239Y-30934D02*
X57927Y-30934D01*
X58577Y-30934D02*
X58985Y-30934D01*
X48170Y-31014D02*
X48686Y-31014D01*
X49570Y-31014D02*
X51209Y-31014D01*
X52786Y-31014D02*
X52810Y-31014D01*
X53523Y-31014D02*
X53547Y-31014D01*
X54239Y-31014D02*
X57142Y-31014D01*
X57615Y-31014D02*
X57927Y-31014D01*
X58577Y-31014D02*
X58985Y-31014D01*
X48106Y-31094D02*
X48686Y-31094D01*
X49570Y-31094D02*
X49679Y-31094D01*
X50951Y-31094D02*
X51155Y-31094D01*
X52786Y-31094D02*
X52810Y-31094D01*
X53523Y-31094D02*
X53547Y-31094D01*
X54213Y-31094D02*
X57062Y-31094D01*
X57695Y-31094D02*
X57927Y-31094D01*
X58577Y-31094D02*
X58985Y-31094D01*
X48026Y-31174D02*
X48686Y-31174D01*
X49570Y-31174D02*
X49617Y-31174D01*
X51014Y-31174D02*
X51134Y-31174D01*
X52786Y-31174D02*
X52810Y-31174D01*
X53523Y-31174D02*
X53547Y-31174D01*
X54172Y-31174D02*
X57023Y-31174D01*
X57735Y-31174D02*
X57927Y-31174D01*
X58577Y-31174D02*
X58985Y-31174D01*
X47946Y-31254D02*
X48686Y-31254D01*
X49570Y-31254D02*
X49591Y-31254D01*
X51039Y-31254D02*
X51134Y-31254D01*
X52786Y-31254D02*
X52810Y-31254D01*
X53494Y-31254D02*
X53575Y-31254D01*
X54092Y-31254D02*
X56992Y-31254D01*
X57764Y-31254D02*
X57927Y-31254D01*
X58577Y-31254D02*
X58985Y-31254D01*
X47866Y-31334D02*
X48686Y-31334D01*
X49570Y-31334D02*
X49591Y-31334D01*
X52786Y-31334D02*
X52810Y-31334D01*
X53463Y-31334D02*
X56992Y-31334D01*
X57764Y-31334D02*
X57927Y-31334D01*
X58577Y-31334D02*
X58985Y-31334D01*
X47786Y-31414D02*
X48686Y-31414D01*
X49570Y-31414D02*
X49591Y-31414D01*
X52786Y-31414D02*
X52810Y-31414D01*
X53463Y-31414D02*
X56997Y-31414D01*
X57758Y-31414D02*
X57927Y-31414D01*
X58577Y-31414D02*
X58985Y-31414D01*
X47706Y-31494D02*
X48686Y-31494D01*
X49570Y-31494D02*
X49591Y-31494D01*
X52786Y-31494D02*
X52810Y-31494D01*
X53417Y-31494D02*
X57031Y-31494D01*
X57724Y-31494D02*
X57927Y-31494D01*
X58577Y-31494D02*
X58985Y-31494D01*
X47626Y-31574D02*
X48686Y-31574D01*
X49570Y-31574D02*
X49591Y-31574D01*
X52786Y-31574D02*
X52810Y-31574D01*
X53391Y-31574D02*
X57053Y-31574D01*
X57703Y-31574D02*
X57927Y-31574D01*
X58577Y-31574D02*
X58985Y-31574D01*
X47546Y-31654D02*
X48686Y-31654D01*
X49570Y-31654D02*
X49591Y-31654D01*
X52786Y-31654D02*
X52810Y-31654D01*
X53462Y-31654D02*
X57053Y-31654D01*
X57703Y-31654D02*
X57927Y-31654D01*
X58577Y-31654D02*
X58985Y-31654D01*
X47439Y-31734D02*
X48686Y-31734D01*
X49570Y-31734D02*
X49591Y-31734D01*
X52786Y-31734D02*
X52810Y-31734D01*
X53462Y-31734D02*
X57053Y-31734D01*
X57703Y-31734D02*
X57927Y-31734D01*
X58577Y-31734D02*
X58985Y-31734D01*
X47344Y-31814D02*
X48638Y-31814D01*
X49570Y-31814D02*
X49591Y-31814D01*
X52786Y-31814D02*
X52810Y-31814D01*
X53462Y-31814D02*
X57053Y-31814D01*
X57703Y-31814D02*
X57927Y-31814D01*
X58577Y-31814D02*
X58985Y-31814D01*
X47344Y-31894D02*
X48558Y-31894D01*
X49570Y-31894D02*
X49591Y-31894D01*
X51039Y-31894D02*
X51134Y-31894D01*
X52786Y-31894D02*
X52810Y-31894D01*
X53462Y-31894D02*
X57053Y-31894D01*
X57703Y-31894D02*
X57927Y-31894D01*
X58577Y-31894D02*
X58985Y-31894D01*
X47344Y-31974D02*
X48197Y-31974D01*
X49570Y-31974D02*
X49591Y-31974D01*
X51039Y-31974D02*
X51143Y-31974D01*
X52786Y-31974D02*
X52810Y-31974D01*
X53461Y-31974D02*
X57053Y-31974D01*
X57703Y-31974D02*
X57927Y-31974D01*
X58577Y-31974D02*
X58985Y-31974D01*
X47344Y-32054D02*
X48000Y-32054D01*
X49565Y-32054D02*
X49591Y-32054D01*
X51039Y-32054D02*
X51183Y-32054D01*
X52786Y-32054D02*
X52810Y-32054D01*
X53428Y-32054D02*
X57053Y-32054D01*
X57703Y-32054D02*
X57927Y-32054D01*
X58577Y-32054D02*
X58985Y-32054D01*
X47344Y-32134D02*
X47917Y-32134D01*
X49549Y-32134D02*
X49591Y-32134D01*
X51039Y-32134D02*
X51292Y-32134D01*
X52103Y-32134D02*
X52221Y-32134D01*
X52786Y-32134D02*
X52810Y-32134D01*
X53374Y-32134D02*
X56317Y-32134D01*
X56605Y-32134D02*
X57008Y-32134D01*
X57703Y-32134D02*
X57927Y-32134D01*
X58577Y-32134D02*
X58985Y-32134D01*
X47344Y-32214D02*
X47837Y-32214D01*
X49499Y-32214D02*
X49591Y-32214D01*
X51039Y-32214D02*
X52324Y-32214D01*
X52737Y-32214D02*
X52859Y-32214D01*
X53271Y-32214D02*
X56194Y-32214D01*
X57703Y-32214D02*
X57927Y-32214D01*
X58577Y-32214D02*
X58985Y-32214D01*
X47344Y-32294D02*
X47770Y-32294D01*
X49427Y-32294D02*
X49591Y-32294D01*
X51039Y-32294D02*
X56126Y-32294D01*
X57688Y-32294D02*
X57927Y-32294D01*
X58577Y-32294D02*
X58985Y-32294D01*
X47344Y-32374D02*
X47728Y-32374D01*
X49347Y-32374D02*
X49591Y-32374D01*
X51039Y-32374D02*
X56093Y-32374D01*
X57660Y-32374D02*
X57927Y-32374D01*
X58577Y-32374D02*
X58985Y-32374D01*
X47344Y-32454D02*
X47712Y-32454D01*
X49267Y-32454D02*
X49591Y-32454D01*
X51039Y-32454D02*
X56075Y-32454D01*
X57608Y-32454D02*
X57927Y-32454D01*
X58577Y-32454D02*
X58985Y-32454D01*
X47344Y-32534D02*
X47710Y-32534D01*
X49187Y-32534D02*
X49591Y-32534D01*
X51039Y-32534D02*
X56075Y-32534D01*
X57528Y-32534D02*
X57927Y-32534D01*
X58577Y-32534D02*
X58985Y-32534D01*
X47344Y-32614D02*
X47710Y-32614D01*
X49107Y-32614D02*
X49603Y-32614D01*
X51026Y-32614D02*
X56093Y-32614D01*
X57448Y-32614D02*
X57927Y-32614D01*
X58577Y-32614D02*
X58985Y-32614D01*
X47313Y-32694D02*
X47710Y-32694D01*
X49027Y-32694D02*
X49647Y-32694D01*
X50983Y-32694D02*
X56126Y-32694D01*
X57368Y-32694D02*
X57927Y-32694D01*
X58577Y-32694D02*
X58985Y-32694D01*
X47321Y-32774D02*
X47710Y-32774D01*
X48932Y-32774D02*
X49766Y-32774D01*
X50863Y-32774D02*
X56197Y-32774D01*
X57261Y-32774D02*
X57927Y-32774D01*
X58577Y-32774D02*
X58985Y-32774D01*
X46728Y-32854D02*
X46752Y-32854D01*
X47395Y-32854D02*
X47710Y-32854D01*
X48510Y-32854D02*
X56326Y-32854D01*
X56595Y-32854D02*
X57927Y-32854D01*
X58577Y-32854D02*
X58985Y-32854D01*
X46728Y-32934D02*
X46752Y-32934D01*
X47428Y-32934D02*
X47710Y-32934D01*
X48510Y-32934D02*
X57927Y-32934D01*
X58577Y-32934D02*
X58985Y-32934D01*
X46728Y-33014D02*
X46752Y-33014D01*
X47445Y-33014D02*
X47710Y-33014D01*
X48510Y-33014D02*
X57927Y-33014D01*
X58577Y-33014D02*
X58985Y-33014D01*
X46728Y-33094D02*
X46752Y-33094D01*
X47445Y-33094D02*
X47710Y-33094D01*
X48510Y-33094D02*
X57927Y-33094D01*
X58577Y-33094D02*
X58985Y-33094D01*
X46728Y-33174D02*
X46752Y-33174D01*
X47445Y-33174D02*
X47710Y-33174D01*
X48510Y-33174D02*
X57927Y-33174D01*
X58577Y-33174D02*
X58985Y-33174D01*
X46728Y-33254D02*
X46752Y-33254D01*
X47445Y-33254D02*
X47710Y-33254D01*
X48510Y-33254D02*
X57927Y-33254D01*
X58577Y-33254D02*
X58985Y-33254D01*
X45567Y-33334D02*
X46111Y-33334D01*
X46728Y-33334D02*
X46752Y-33334D01*
X47369Y-33334D02*
X47710Y-33334D01*
X48510Y-33334D02*
X49689Y-33334D01*
X50941Y-33334D02*
X57927Y-33334D01*
X58577Y-33334D02*
X58985Y-33334D01*
X45487Y-33414D02*
X46077Y-33414D01*
X47403Y-33414D02*
X47710Y-33414D01*
X48510Y-33414D02*
X49621Y-33414D01*
X51010Y-33414D02*
X57927Y-33414D01*
X58577Y-33414D02*
X58985Y-33414D01*
X45407Y-33494D02*
X46035Y-33494D01*
X47444Y-33494D02*
X47710Y-33494D01*
X48510Y-33494D02*
X49591Y-33494D01*
X51039Y-33494D02*
X57927Y-33494D01*
X58577Y-33494D02*
X58985Y-33494D01*
X45407Y-33574D02*
X46035Y-33574D01*
X47444Y-33574D02*
X47710Y-33574D01*
X48510Y-33574D02*
X49591Y-33574D01*
X51039Y-33574D02*
X57927Y-33574D01*
X58577Y-33574D02*
X58985Y-33574D01*
X45407Y-33654D02*
X46035Y-33654D01*
X47444Y-33654D02*
X47710Y-33654D01*
X48510Y-33654D02*
X49591Y-33654D01*
X51039Y-33654D02*
X55230Y-33654D01*
X55408Y-33654D02*
X55986Y-33654D01*
X56164Y-33654D02*
X57927Y-33654D01*
X58577Y-33654D02*
X58985Y-33654D01*
X45407Y-33734D02*
X46035Y-33734D01*
X47444Y-33734D02*
X47710Y-33734D01*
X48510Y-33734D02*
X49591Y-33734D01*
X51039Y-33734D02*
X55075Y-33734D01*
X55564Y-33734D02*
X55831Y-33734D01*
X57592Y-33734D02*
X57927Y-33734D01*
X58577Y-33734D02*
X58985Y-33734D01*
X45407Y-33814D02*
X46066Y-33814D01*
X47413Y-33814D02*
X47705Y-33814D01*
X48510Y-33814D02*
X49591Y-33814D01*
X51039Y-33814D02*
X54995Y-33814D01*
X55644Y-33814D02*
X55751Y-33814D01*
X57708Y-33814D02*
X57927Y-33814D01*
X58577Y-33814D02*
X58985Y-33814D01*
X45407Y-33894D02*
X46113Y-33894D01*
X47366Y-33894D02*
X47625Y-33894D01*
X48510Y-33894D02*
X49591Y-33894D01*
X51039Y-33894D02*
X52334Y-33894D01*
X52739Y-33894D02*
X52865Y-33894D01*
X53271Y-33894D02*
X54960Y-33894D01*
X55679Y-33894D02*
X55716Y-33894D01*
X57787Y-33894D02*
X57927Y-33894D01*
X58577Y-33894D02*
X58985Y-33894D01*
X46100Y-33974D02*
X46201Y-33974D01*
X47400Y-33974D02*
X47545Y-33974D01*
X48510Y-33974D02*
X49591Y-33974D01*
X51039Y-33974D02*
X51302Y-33974D01*
X52103Y-33974D02*
X52228Y-33974D01*
X52790Y-33974D02*
X52814Y-33974D01*
X53377Y-33974D02*
X54933Y-33974D01*
X57867Y-33974D02*
X57927Y-33974D01*
X58577Y-33974D02*
X58967Y-33974D01*
X46162Y-34054D02*
X46413Y-34054D01*
X47462Y-34054D02*
X47465Y-34054D01*
X48510Y-34054D02*
X49591Y-34054D01*
X51039Y-34054D02*
X51189Y-34054D01*
X52790Y-34054D02*
X52814Y-34054D01*
X53432Y-34054D02*
X54933Y-34054D01*
X58674Y-34054D02*
X58868Y-34054D01*
X46186Y-34134D02*
X46388Y-34134D01*
X48510Y-34134D02*
X49591Y-34134D01*
X51039Y-34134D02*
X51149Y-34134D01*
X52790Y-34134D02*
X52814Y-34134D01*
X53465Y-34134D02*
X54942Y-34134D01*
X58760Y-34134D02*
X58837Y-34134D01*
X44288Y-34214D02*
X44634Y-34214D01*
X46186Y-34214D02*
X46388Y-34214D01*
X48510Y-34214D02*
X49591Y-34214D01*
X51039Y-34214D02*
X51138Y-34214D01*
X52790Y-34214D02*
X52814Y-34214D01*
X53466Y-34214D02*
X54975Y-34214D01*
X58793Y-34214D02*
X58830Y-34214D01*
X44288Y-34294D02*
X44554Y-34294D01*
X46186Y-34294D02*
X46388Y-34294D01*
X48498Y-34294D02*
X49591Y-34294D01*
X52790Y-34294D02*
X52814Y-34294D01*
X53467Y-34294D02*
X55029Y-34294D01*
X58796Y-34294D02*
X58830Y-34294D01*
X44288Y-34374D02*
X44507Y-34374D01*
X46186Y-34374D02*
X46388Y-34374D01*
X48469Y-34374D02*
X49591Y-34374D01*
X52790Y-34374D02*
X52814Y-34374D01*
X53467Y-34374D02*
X54979Y-34374D01*
X58796Y-34374D02*
X58830Y-34374D01*
X44288Y-34454D02*
X44474Y-34454D01*
X46186Y-34454D02*
X46388Y-34454D01*
X48412Y-34454D02*
X49591Y-34454D01*
X52790Y-34454D02*
X52814Y-34454D01*
X53467Y-34454D02*
X54945Y-34454D01*
X58796Y-34454D02*
X58830Y-34454D01*
X44288Y-34534D02*
X44465Y-34534D01*
X46186Y-34534D02*
X46388Y-34534D01*
X48332Y-34534D02*
X49591Y-34534D01*
X52790Y-34534D02*
X52814Y-34534D01*
X53397Y-34534D02*
X54933Y-34534D01*
X58796Y-34534D02*
X58830Y-34534D01*
X44288Y-34614D02*
X44465Y-34614D01*
X46186Y-34614D02*
X46388Y-34614D01*
X48252Y-34614D02*
X49591Y-34614D01*
X52790Y-34614D02*
X52814Y-34614D01*
X53419Y-34614D02*
X54933Y-34614D01*
X58796Y-34614D02*
X58830Y-34614D01*
X44288Y-34694D02*
X44485Y-34694D01*
X46186Y-34694D02*
X46388Y-34694D01*
X48172Y-34694D02*
X49591Y-34694D01*
X52790Y-34694D02*
X52814Y-34694D01*
X53466Y-34694D02*
X54918Y-34694D01*
X58796Y-34694D02*
X58830Y-34694D01*
X44288Y-34774D02*
X44518Y-34774D01*
X46186Y-34774D02*
X46388Y-34774D01*
X48092Y-34774D02*
X49591Y-34774D01*
X52790Y-34774D02*
X52814Y-34774D01*
X53466Y-34774D02*
X54812Y-34774D01*
X58796Y-34774D02*
X58830Y-34774D01*
X44288Y-34854D02*
X44584Y-34854D01*
X46186Y-34854D02*
X46388Y-34854D01*
X48012Y-34854D02*
X49599Y-34854D01*
X51030Y-34854D02*
X51138Y-34854D01*
X52790Y-34854D02*
X52814Y-34854D01*
X53466Y-34854D02*
X54757Y-34854D01*
X58787Y-34854D02*
X58830Y-34854D01*
X44288Y-34934D02*
X44685Y-34934D01*
X46186Y-34934D02*
X46388Y-34934D01*
X47932Y-34934D02*
X48792Y-34934D01*
X49263Y-34934D02*
X49349Y-34934D01*
X50993Y-34934D02*
X51138Y-34934D01*
X52790Y-34934D02*
X52814Y-34934D01*
X53466Y-34934D02*
X54724Y-34934D01*
X58781Y-34934D02*
X58830Y-34934D01*
X44288Y-35014D02*
X45088Y-35014D01*
X46185Y-35014D02*
X46388Y-35014D01*
X48655Y-35014D02*
X48712Y-35014D01*
X49294Y-35014D02*
X49318Y-35014D01*
X50887Y-35014D02*
X51157Y-35014D01*
X52790Y-35014D02*
X52814Y-35014D01*
X53455Y-35014D02*
X54721Y-35014D01*
X58796Y-35014D02*
X58830Y-35014D01*
X44288Y-35094D02*
X45122Y-35094D01*
X46152Y-35094D02*
X46422Y-35094D01*
X49294Y-35094D02*
X49318Y-35094D01*
X49944Y-35094D02*
X51211Y-35094D01*
X52790Y-35094D02*
X52814Y-35094D01*
X53422Y-35094D02*
X54721Y-35094D01*
X58796Y-35094D02*
X58830Y-35094D01*
X44288Y-35174D02*
X45087Y-35174D01*
X46166Y-35174D02*
X46387Y-35174D01*
X49294Y-35174D02*
X49318Y-35174D01*
X49970Y-35174D02*
X52249Y-35174D01*
X52790Y-35174D02*
X52814Y-35174D01*
X53354Y-35174D02*
X54721Y-35174D01*
X58796Y-35174D02*
X58830Y-35174D01*
X44288Y-35254D02*
X44675Y-35254D01*
X46175Y-35254D02*
X46377Y-35254D01*
X49294Y-35254D02*
X49318Y-35254D01*
X49970Y-35254D02*
X52386Y-35254D01*
X52717Y-35254D02*
X52887Y-35254D01*
X53217Y-35254D02*
X54749Y-35254D01*
X58796Y-35254D02*
X58830Y-35254D01*
X44288Y-35334D02*
X44573Y-35334D01*
X46175Y-35334D02*
X46377Y-35334D01*
X49294Y-35334D02*
X49318Y-35334D01*
X49971Y-35334D02*
X55667Y-35334D01*
X58796Y-35334D02*
X58830Y-35334D01*
X44288Y-35414D02*
X44508Y-35414D01*
X46175Y-35414D02*
X46377Y-35414D01*
X49294Y-35414D02*
X49318Y-35414D01*
X49971Y-35414D02*
X54729Y-35414D01*
X55413Y-35414D02*
X55437Y-35414D01*
X58796Y-35414D02*
X58830Y-35414D01*
X44288Y-35494D02*
X44475Y-35494D01*
X46175Y-35494D02*
X46377Y-35494D01*
X49294Y-35494D02*
X49318Y-35494D01*
X49961Y-35494D02*
X54720Y-35494D01*
X55413Y-35494D02*
X55437Y-35494D01*
X58796Y-35494D02*
X58830Y-35494D01*
X44288Y-35574D02*
X44453Y-35574D01*
X46175Y-35574D02*
X46377Y-35574D01*
X47608Y-35574D02*
X47642Y-35574D01*
X48770Y-35574D02*
X54720Y-35574D01*
X55413Y-35574D02*
X55437Y-35574D01*
X58796Y-35574D02*
X58830Y-35574D01*
X44288Y-35654D02*
X44453Y-35654D01*
X46175Y-35654D02*
X46377Y-35654D01*
X47528Y-35654D02*
X47642Y-35654D01*
X49294Y-35654D02*
X49318Y-35654D01*
X49943Y-35654D02*
X54720Y-35654D01*
X55413Y-35654D02*
X55437Y-35654D01*
X58766Y-35654D02*
X58830Y-35654D01*
X44288Y-35734D02*
X44461Y-35734D01*
X46175Y-35734D02*
X46377Y-35734D01*
X47475Y-35734D02*
X47642Y-35734D01*
X49294Y-35734D02*
X49318Y-35734D01*
X49970Y-35734D02*
X54731Y-35734D01*
X55413Y-35734D02*
X55437Y-35734D01*
X58698Y-35734D02*
X58830Y-35734D01*
X44288Y-35814D02*
X44494Y-35814D01*
X46175Y-35814D02*
X46377Y-35814D01*
X47475Y-35814D02*
X47642Y-35814D01*
X49294Y-35814D02*
X49318Y-35814D01*
X49970Y-35814D02*
X54764Y-35814D01*
X55413Y-35814D02*
X55437Y-35814D01*
X58577Y-35814D02*
X58830Y-35814D01*
X44288Y-35894D02*
X44541Y-35894D01*
X46175Y-35894D02*
X46377Y-35894D01*
X47475Y-35894D02*
X47642Y-35894D01*
X49294Y-35894D02*
X49318Y-35894D01*
X49970Y-35894D02*
X54831Y-35894D01*
X58565Y-35894D02*
X58830Y-35894D01*
X44288Y-35974D02*
X44621Y-35974D01*
X46175Y-35974D02*
X46377Y-35974D01*
X47475Y-35974D02*
X47642Y-35974D01*
X49294Y-35974D02*
X49318Y-35974D01*
X49970Y-35974D02*
X54857Y-35974D01*
X58542Y-35974D02*
X58830Y-35974D01*
X44288Y-36054D02*
X44790Y-36054D01*
X44964Y-36054D02*
X45077Y-36054D01*
X46175Y-36054D02*
X46377Y-36054D01*
X47475Y-36054D02*
X47669Y-36054D01*
X49294Y-36054D02*
X49318Y-36054D01*
X49950Y-36054D02*
X54824Y-36054D01*
X58489Y-36054D02*
X58830Y-36054D01*
X44288Y-36134D02*
X45093Y-36134D01*
X46159Y-36134D02*
X46393Y-36134D01*
X47459Y-36134D02*
X47735Y-36134D01*
X48676Y-36134D02*
X48694Y-36134D01*
X49294Y-36134D02*
X49318Y-36134D01*
X49917Y-36134D02*
X54821Y-36134D01*
X58413Y-36134D02*
X58830Y-36134D01*
X44288Y-36214D02*
X45142Y-36214D01*
X46110Y-36214D02*
X46442Y-36214D01*
X47410Y-36214D02*
X48773Y-36214D01*
X49281Y-36214D02*
X49331Y-36214D01*
X49838Y-36214D02*
X54821Y-36214D01*
X58257Y-36214D02*
X58830Y-36214D01*
X44288Y-36294D02*
X45273Y-36294D01*
X45977Y-36294D02*
X46573Y-36294D01*
X47277Y-36294D02*
X54821Y-36294D01*
X57742Y-36294D02*
X58830Y-36294D01*
X44288Y-36374D02*
X54741Y-36374D01*
X57701Y-36374D02*
X58830Y-36374D01*
X44288Y-36454D02*
X54661Y-36454D01*
X57586Y-36454D02*
X58830Y-36454D01*
X44288Y-36534D02*
X54581Y-36534D01*
X56692Y-36534D02*
X58830Y-36534D01*
X44288Y-36614D02*
X53810Y-36614D01*
X56106Y-36614D02*
X58830Y-36614D01*
X44288Y-36694D02*
X53720Y-36694D01*
X56029Y-36694D02*
X58830Y-36694D01*
X44288Y-36774D02*
X50208Y-36774D01*
X51056Y-36774D02*
X51978Y-36774D01*
X52826Y-36774D02*
X53640Y-36774D01*
X56029Y-36774D02*
X58830Y-36774D01*
X44288Y-36854D02*
X45990Y-36854D01*
X46279Y-36854D02*
X50014Y-36854D01*
X51248Y-36854D02*
X51784Y-36854D01*
X53018Y-36854D02*
X53560Y-36854D01*
X56001Y-36854D02*
X58830Y-36854D01*
X44288Y-36934D02*
X45780Y-36934D01*
X46675Y-36934D02*
X47612Y-36934D01*
X48641Y-36934D02*
X48815Y-36934D01*
X49825Y-36934D02*
X49934Y-36934D01*
X51329Y-36934D02*
X51704Y-36934D01*
X55937Y-36934D02*
X58830Y-36934D01*
X44288Y-37014D02*
X45569Y-37014D01*
X46853Y-37014D02*
X47516Y-37014D01*
X51403Y-37014D02*
X51630Y-37014D01*
X55241Y-37014D02*
X58830Y-37014D01*
X44288Y-37094D02*
X45465Y-37094D01*
X46984Y-37094D02*
X47483Y-37094D01*
X51436Y-37094D02*
X51597Y-37094D01*
X55265Y-37094D02*
X56075Y-37094D01*
X44288Y-37174D02*
X45426Y-37174D01*
X47023Y-37174D02*
X47477Y-37174D01*
X51469Y-37174D02*
X51564Y-37174D01*
X55265Y-37174D02*
X55988Y-37174D01*
X44288Y-37254D02*
X45387Y-37254D01*
X47062Y-37254D02*
X47477Y-37254D01*
X51480Y-37254D02*
X51552Y-37254D01*
X54589Y-37254D02*
X54613Y-37254D01*
X55266Y-37254D02*
X55908Y-37254D01*
X44288Y-37334D02*
X45247Y-37334D01*
X45427Y-37334D02*
X45461Y-37334D01*
X46987Y-37334D02*
X47021Y-37334D01*
X47202Y-37334D02*
X47477Y-37334D01*
X51480Y-37334D02*
X51552Y-37334D01*
X54589Y-37334D02*
X54613Y-37334D01*
X55266Y-37334D02*
X55828Y-37334D01*
X44288Y-37414D02*
X45157Y-37414D01*
X45507Y-37414D02*
X45541Y-37414D01*
X46907Y-37414D02*
X46941Y-37414D01*
X47302Y-37414D02*
X47477Y-37414D01*
X51480Y-37414D02*
X51552Y-37414D01*
X54589Y-37414D02*
X54613Y-37414D01*
X55249Y-37414D02*
X55748Y-37414D01*
X44288Y-37494D02*
X45121Y-37494D01*
X45587Y-37494D02*
X45621Y-37494D01*
X46827Y-37494D02*
X46861Y-37494D01*
X47338Y-37494D02*
X47477Y-37494D01*
X51447Y-37494D02*
X51584Y-37494D01*
X54065Y-37494D02*
X55668Y-37494D01*
X44288Y-37574D02*
X45085Y-37574D01*
X45667Y-37574D02*
X45701Y-37574D01*
X46747Y-37574D02*
X46781Y-37574D01*
X47368Y-37574D02*
X47477Y-37574D01*
X51413Y-37574D02*
X51617Y-37574D01*
X54589Y-37574D02*
X54613Y-37574D01*
X55245Y-37574D02*
X55588Y-37574D01*
X44288Y-37654D02*
X45049Y-37654D01*
X45747Y-37654D02*
X45781Y-37654D01*
X46667Y-37654D02*
X46701Y-37654D01*
X47399Y-37654D02*
X47477Y-37654D01*
X54589Y-37654D02*
X54613Y-37654D01*
X55265Y-37654D02*
X55508Y-37654D01*
X44288Y-37734D02*
X45013Y-37734D01*
X45827Y-37734D02*
X45861Y-37734D01*
X46587Y-37734D02*
X46621Y-37734D01*
X47429Y-37734D02*
X47477Y-37734D01*
X54589Y-37734D02*
X54613Y-37734D01*
X55265Y-37734D02*
X55428Y-37734D01*
X44288Y-37814D02*
X44977Y-37814D01*
X45907Y-37814D02*
X45941Y-37814D01*
X46507Y-37814D02*
X46541Y-37814D01*
X47459Y-37814D02*
X47480Y-37814D01*
X49966Y-37814D02*
X50138Y-37814D01*
X51838Y-37814D02*
X51909Y-37814D01*
X54589Y-37814D02*
X54613Y-37814D01*
X55265Y-37814D02*
X55348Y-37814D01*
X44288Y-37894D02*
X44969Y-37894D01*
X45987Y-37894D02*
X46021Y-37894D01*
X46427Y-37894D02*
X46461Y-37894D01*
X47490Y-37894D02*
X47513Y-37894D01*
X49932Y-37894D02*
X50750Y-37894D01*
X51848Y-37894D02*
X52050Y-37894D01*
X54589Y-37894D02*
X54613Y-37894D01*
X55265Y-37894D02*
X55268Y-37894D01*
X44288Y-37974D02*
X44967Y-37974D01*
X46067Y-37974D02*
X46101Y-37974D01*
X46347Y-37974D02*
X46381Y-37974D01*
X47489Y-37974D02*
X47601Y-37974D01*
X49852Y-37974D02*
X50750Y-37974D01*
X51848Y-37974D02*
X52050Y-37974D01*
X54589Y-37974D02*
X54613Y-37974D01*
X44288Y-38054D02*
X44965Y-38054D01*
X46147Y-38054D02*
X46181Y-38054D01*
X46267Y-38054D02*
X46301Y-38054D01*
X47487Y-38054D02*
X48121Y-38054D01*
X49558Y-38054D02*
X50750Y-38054D01*
X51848Y-38054D02*
X52050Y-38054D01*
X53964Y-38054D02*
X53995Y-38054D01*
X54589Y-38054D02*
X54613Y-38054D01*
X44333Y-38134D02*
X44962Y-38134D01*
X46187Y-38134D02*
X46221Y-38134D01*
X46227Y-38134D02*
X46261Y-38134D01*
X47485Y-38134D02*
X48027Y-38134D01*
X49496Y-38134D02*
X50750Y-38134D01*
X51848Y-38134D02*
X52050Y-38134D01*
X53663Y-38134D02*
X54075Y-38134D01*
X54569Y-38134D02*
X54633Y-38134D01*
X44413Y-38214D02*
X44960Y-38214D01*
X46107Y-38214D02*
X46141Y-38214D01*
X46307Y-38214D02*
X46341Y-38214D01*
X47482Y-38214D02*
X47661Y-38214D01*
X49777Y-38214D02*
X50750Y-38214D01*
X51848Y-38214D02*
X52050Y-38214D01*
X53583Y-38214D02*
X54949Y-38214D01*
X44493Y-38294D02*
X44957Y-38294D01*
X46027Y-38294D02*
X46061Y-38294D01*
X46387Y-38294D02*
X46421Y-38294D01*
X47480Y-38294D02*
X47536Y-38294D01*
X49905Y-38294D02*
X50750Y-38294D01*
X51848Y-38294D02*
X52050Y-38294D01*
X53503Y-38294D02*
X54869Y-38294D01*
X44573Y-38374D02*
X44973Y-38374D01*
X45947Y-38374D02*
X45981Y-38374D01*
X46467Y-38374D02*
X46501Y-38374D01*
X47477Y-38374D02*
X47491Y-38374D01*
X49953Y-38374D02*
X50750Y-38374D01*
X51848Y-38374D02*
X52050Y-38374D01*
X53424Y-38374D02*
X54789Y-38374D01*
X44653Y-38454D02*
X45004Y-38454D01*
X45867Y-38454D02*
X45901Y-38454D01*
X46547Y-38454D02*
X46581Y-38454D01*
X47453Y-38454D02*
X47477Y-38454D01*
X49968Y-38454D02*
X50750Y-38454D01*
X51848Y-38454D02*
X52050Y-38454D01*
X53344Y-38454D02*
X54709Y-38454D01*
X44733Y-38534D02*
X45034Y-38534D01*
X45787Y-38534D02*
X45821Y-38534D01*
X46627Y-38534D02*
X46661Y-38534D01*
X47417Y-38534D02*
X47477Y-38534D01*
X49968Y-38534D02*
X50750Y-38534D01*
X51848Y-38534D02*
X52050Y-38534D01*
X53256Y-38534D02*
X54629Y-38534D01*
X44813Y-38614D02*
X45064Y-38614D01*
X45707Y-38614D02*
X45741Y-38614D01*
X46707Y-38614D02*
X46741Y-38614D01*
X47381Y-38614D02*
X47477Y-38614D01*
X49968Y-38614D02*
X50750Y-38614D01*
X51848Y-38614D02*
X52050Y-38614D01*
X53148Y-38614D02*
X54549Y-38614D01*
X44893Y-38694D02*
X45095Y-38694D01*
X45627Y-38694D02*
X45661Y-38694D01*
X46787Y-38694D02*
X46821Y-38694D01*
X47345Y-38694D02*
X47477Y-38694D01*
X49968Y-38694D02*
X50750Y-38694D01*
X51848Y-38694D02*
X52050Y-38694D01*
X53148Y-38694D02*
X54469Y-38694D01*
X44973Y-38774D02*
X45125Y-38774D01*
X45547Y-38774D02*
X45581Y-38774D01*
X46867Y-38774D02*
X46901Y-38774D01*
X47309Y-38774D02*
X47477Y-38774D01*
X49968Y-38774D02*
X50765Y-38774D01*
X51832Y-38774D02*
X52065Y-38774D01*
X53132Y-38774D02*
X54389Y-38774D01*
X45053Y-38854D02*
X45172Y-38854D01*
X45467Y-38854D02*
X45501Y-38854D01*
X46947Y-38854D02*
X46981Y-38854D01*
X47273Y-38854D02*
X47477Y-38854D01*
X49968Y-38854D02*
X50814Y-38854D01*
X51784Y-38854D02*
X52114Y-38854D01*
X53084Y-38854D02*
X54309Y-38854D01*
X45133Y-38934D02*
X45328Y-38934D01*
X45387Y-38934D02*
X45421Y-38934D01*
X47027Y-38934D02*
X47061Y-38934D01*
X47119Y-38934D02*
X47477Y-38934D01*
X49968Y-38934D02*
X50944Y-38934D01*
X51652Y-38934D02*
X52244Y-38934D01*
X52952Y-38934D02*
X54229Y-38934D01*
X45213Y-39014D02*
X45406Y-39014D01*
X47041Y-39014D02*
X47477Y-39014D01*
X49968Y-39014D02*
X54149Y-39014D01*
X45293Y-39094D02*
X45445Y-39094D01*
X47002Y-39094D02*
X47477Y-39094D01*
X49968Y-39094D02*
X54069Y-39094D01*
X45373Y-39174D02*
X45506Y-39174D01*
X46950Y-39174D02*
X47505Y-39174D01*
X49941Y-39174D02*
X53989Y-39174D01*
X45453Y-39254D02*
X45684Y-39254D01*
X46774Y-39254D02*
X47572Y-39254D01*
X48679Y-39254D02*
X48761Y-39254D01*
X49877Y-39254D02*
X50119Y-39254D01*
X50619Y-39254D02*
X50643Y-39254D01*
X51144Y-39254D02*
X53909Y-39254D01*
X45533Y-39334D02*
X45862Y-39334D01*
X46563Y-39334D02*
X49949Y-39334D01*
X50619Y-39334D02*
X50643Y-39334D01*
X51314Y-39334D02*
X51973Y-39334D01*
X52831Y-39334D02*
X53829Y-39334D01*
X45613Y-39414D02*
X49871Y-39414D01*
X50619Y-39414D02*
X50643Y-39414D01*
X51392Y-39414D02*
X51782Y-39414D01*
X53020Y-39414D02*
X53749Y-39414D01*
X45693Y-39494D02*
X49792Y-39494D01*
X50619Y-39494D02*
X50643Y-39494D01*
X51471Y-39494D02*
X51702Y-39494D01*
X53100Y-39494D02*
X53669Y-39494D01*
X45773Y-39574D02*
X49759Y-39574D01*
X50619Y-39574D02*
X50643Y-39574D01*
X51504Y-39574D02*
X51629Y-39574D01*
X53174Y-39574D02*
X53589Y-39574D01*
X45853Y-39654D02*
X49732Y-39654D01*
X50619Y-39654D02*
X50643Y-39654D01*
X51531Y-39654D02*
X51596Y-39654D01*
X53207Y-39654D02*
X53509Y-39654D01*
X45933Y-39734D02*
X49706Y-39734D01*
X50619Y-39734D02*
X50643Y-39734D01*
X51557Y-39734D02*
X51562Y-39734D01*
X53240Y-39734D02*
X53429Y-39734D01*
X46013Y-39814D02*
X49745Y-39814D01*
X50619Y-39814D02*
X50643Y-39814D01*
X53250Y-39814D02*
X53349Y-39814D01*
X46093Y-39894D02*
X49764Y-39894D01*
X53250Y-39894D02*
X53269Y-39894D01*
X46173Y-39974D02*
X49703Y-39974D01*
X56283Y-34829D02*
X56307Y-34829D01*
X56283Y-34909D02*
X56307Y-34909D01*
X56283Y-34989D02*
X56307Y-34989D01*
X56283Y-35069D02*
X56307Y-35069D01*
X56283Y-35149D02*
X56307Y-35149D01*
X56283Y-35229D02*
X56307Y-35229D01*
X57137Y-34792D02*
X57161Y-34792D01*
X44288Y-26887D02*
X45040Y-26887D01*
X44288Y-26967D02*
X45072Y-26967D01*
X46305Y-26967D02*
X46339Y-26967D01*
X44625Y-27047D02*
X44705Y-27047D01*
X46233Y-27047D02*
X46419Y-27047D01*
X44653Y-27127D02*
X44677Y-27127D01*
X45347Y-27127D02*
X46499Y-27127D01*
X44653Y-27207D02*
X44677Y-27207D01*
X45389Y-27207D02*
X46579Y-27207D01*
X44653Y-27287D02*
X44677Y-27287D01*
X45414Y-27287D02*
X46659Y-27287D01*
X44653Y-27367D02*
X44677Y-27367D01*
X46269Y-27367D02*
X46764Y-27367D01*
X44653Y-27447D02*
X44677Y-27447D01*
X46321Y-27447D02*
X48196Y-27447D01*
X44653Y-27527D02*
X44677Y-27527D01*
X46338Y-27527D02*
X48196Y-27527D01*
X44653Y-27607D02*
X44677Y-27607D01*
X46338Y-27607D02*
X48196Y-27607D01*
X44653Y-27687D02*
X44677Y-27687D01*
X46338Y-27687D02*
X48196Y-27687D01*
X44653Y-27767D02*
X44677Y-27767D01*
X46338Y-27767D02*
X48196Y-27767D01*
X44653Y-27847D02*
X44677Y-27847D01*
X46338Y-27847D02*
X48196Y-27847D01*
X44653Y-27927D02*
X44677Y-27927D01*
X46338Y-27927D02*
X48196Y-27927D01*
X44653Y-28007D02*
X44677Y-28007D01*
X46338Y-28007D02*
X48196Y-28007D01*
X44653Y-28087D02*
X44677Y-28087D01*
X46338Y-28087D02*
X48196Y-28087D01*
X44653Y-28167D02*
X44677Y-28167D01*
X46338Y-28167D02*
X48196Y-28167D01*
X44653Y-28247D02*
X44677Y-28247D01*
X46313Y-28247D02*
X47330Y-28247D01*
X44653Y-28327D02*
X44677Y-28327D01*
X46253Y-28327D02*
X47258Y-28327D01*
X44653Y-28407D02*
X44677Y-28407D01*
X45385Y-28407D02*
X47225Y-28407D01*
X44653Y-28487D02*
X47225Y-28487D01*
X44653Y-28567D02*
X44677Y-28567D01*
X45407Y-28567D02*
X47225Y-28567D01*
X44653Y-28647D02*
X44677Y-28647D01*
X45414Y-28647D02*
X47225Y-28647D01*
X44653Y-28727D02*
X44677Y-28727D01*
X45414Y-28727D02*
X47225Y-28727D01*
X44653Y-28807D02*
X44677Y-28807D01*
X45414Y-28807D02*
X47225Y-28807D01*
X44653Y-28887D02*
X44677Y-28887D01*
X45396Y-28887D02*
X47225Y-28887D01*
X44653Y-28967D02*
X44677Y-28967D01*
X45363Y-28967D02*
X47225Y-28967D01*
X44645Y-29047D02*
X44685Y-29047D01*
X45287Y-29047D02*
X47225Y-29047D01*
X44288Y-29127D02*
X47234Y-29127D01*
X44288Y-29207D02*
X47274Y-29207D01*
X45229Y-29287D02*
X47383Y-29287D01*
X45290Y-29367D02*
X48196Y-29367D01*
X45314Y-29447D02*
X48196Y-29447D01*
X45314Y-29527D02*
X47375Y-29527D01*
X45314Y-29607D02*
X47270Y-29607D01*
X45314Y-29687D02*
X46641Y-29687D01*
X46641Y-29687D02*
X46839Y-29687D01*
X46839Y-29687D02*
X47233Y-29687D01*
X45314Y-29767D02*
X46162Y-29767D01*
X46721Y-29767D02*
X46759Y-29767D01*
X45314Y-29847D02*
X46087Y-29847D01*
X46728Y-29847D02*
X46752Y-29847D01*
X45314Y-29927D02*
X46053Y-29927D01*
X46728Y-29927D02*
X46752Y-29927D01*
X45314Y-30007D02*
X46036Y-30007D01*
X46728Y-30007D02*
X46752Y-30007D01*
X45314Y-30087D02*
X46036Y-30087D01*
X46728Y-30087D02*
X46752Y-30087D01*
X45357Y-30167D02*
X46036Y-30167D01*
X46728Y-30167D02*
X46752Y-30167D01*
X45400Y-30247D02*
X46036Y-30247D01*
X46728Y-30247D02*
X46752Y-30247D01*
X45411Y-30327D02*
X46109Y-30327D01*
X46728Y-30327D02*
X46752Y-30327D01*
X45411Y-30407D02*
X46079Y-30407D01*
X45411Y-30487D02*
X46035Y-30487D01*
X45411Y-30567D02*
X46035Y-30567D01*
X45411Y-30647D02*
X46035Y-30647D01*
X45411Y-30727D02*
X46035Y-30727D01*
X45411Y-30807D02*
X46065Y-30807D01*
X45489Y-30887D02*
X46111Y-30887D01*
X57161Y-34816D02*
X57161Y-34792D01*
X57137Y-34792D01*
X57137Y-34816D01*
X57161Y-34816D01*
X47939Y-24134D02*
X48142Y-24134D01*
X48899Y-24134D02*
X49736Y-24134D01*
X47998Y-24214D02*
X48134Y-24214D01*
X48908Y-24214D02*
X49710Y-24214D01*
X48180Y-24294D02*
X48214Y-24294D01*
X48828Y-24294D02*
X48862Y-24294D01*
X49078Y-24294D02*
X49735Y-24294D01*
X53250Y-24294D02*
X53284Y-24294D01*
X48260Y-24374D02*
X48294Y-24374D01*
X48748Y-24374D02*
X48782Y-24374D01*
X49109Y-24374D02*
X49774Y-24374D01*
X50619Y-24374D02*
X50643Y-24374D01*
X53250Y-24374D02*
X53364Y-24374D01*
X48340Y-24454D02*
X48374Y-24454D01*
X48668Y-24454D02*
X48702Y-24454D01*
X49140Y-24454D02*
X49180Y-24454D01*
X49559Y-24454D02*
X49713Y-24454D01*
X50619Y-24454D02*
X50643Y-24454D01*
X53250Y-24454D02*
X53444Y-24454D01*
X48420Y-24534D02*
X48454Y-24534D01*
X48588Y-24534D02*
X48622Y-24534D01*
X49630Y-24534D02*
X49654Y-24534D01*
X50619Y-24534D02*
X50643Y-24534D01*
X51541Y-24534D02*
X51580Y-24534D01*
X53221Y-24534D02*
X53524Y-24534D01*
X48500Y-24614D02*
X48542Y-24614D01*
X49630Y-24614D02*
X49654Y-24614D01*
X50619Y-24614D02*
X50643Y-24614D01*
X51515Y-24614D02*
X51613Y-24614D01*
X53188Y-24614D02*
X53604Y-24614D01*
X48428Y-24694D02*
X48462Y-24694D01*
X48580Y-24694D02*
X48614Y-24694D01*
X49630Y-24694D02*
X49654Y-24694D01*
X50619Y-24694D02*
X50643Y-24694D01*
X51489Y-24694D02*
X51665Y-24694D01*
X53137Y-24694D02*
X53684Y-24694D01*
X48348Y-24774D02*
X48382Y-24774D01*
X48660Y-24774D02*
X48694Y-24774D01*
X49630Y-24774D02*
X49654Y-24774D01*
X50619Y-24774D02*
X50643Y-24774D01*
X51428Y-24774D02*
X51745Y-24774D01*
X53057Y-24774D02*
X53764Y-24774D01*
X48268Y-24854D02*
X48302Y-24854D01*
X48740Y-24854D02*
X48774Y-24854D01*
X49630Y-24854D02*
X49654Y-24854D01*
X50619Y-24854D02*
X50643Y-24854D01*
X51349Y-24854D02*
X51882Y-24854D01*
X52919Y-24854D02*
X53844Y-24854D01*
X48188Y-24934D02*
X48222Y-24934D01*
X48820Y-24934D02*
X48854Y-24934D01*
X49630Y-24934D02*
X49654Y-24934D01*
X50619Y-24934D02*
X50643Y-24934D01*
X51230Y-24934D02*
X53924Y-24934D01*
X48000Y-25014D02*
X48142Y-25014D01*
X48900Y-25014D02*
X48947Y-25014D01*
X49630Y-25014D02*
X49654Y-25014D01*
X50336Y-25014D02*
X54004Y-25014D01*
X47947Y-25094D02*
X48141Y-25094D01*
X48900Y-25094D02*
X50365Y-25094D01*
X51327Y-25094D02*
X51665Y-25094D01*
X52627Y-25094D02*
X54084Y-25094D01*
X47853Y-25174D02*
X48139Y-25174D01*
X48846Y-25174D02*
X48965Y-25174D01*
X51378Y-25174D02*
X51615Y-25174D01*
X52678Y-25174D02*
X54164Y-25174D01*
X47933Y-25254D02*
X48059Y-25254D01*
X48883Y-25254D02*
X48937Y-25254D01*
X51395Y-25254D02*
X51597Y-25254D01*
X52695Y-25254D02*
X54244Y-25254D01*
X51395Y-25334D02*
X51597Y-25334D01*
X52695Y-25334D02*
X54324Y-25334D01*
X51395Y-25414D02*
X51597Y-25414D01*
X52695Y-25414D02*
X54404Y-25414D01*
X51395Y-25494D02*
X51597Y-25494D01*
X52695Y-25494D02*
X54484Y-25494D01*
X51395Y-25574D02*
X51597Y-25574D01*
X52695Y-25574D02*
X54564Y-25574D01*
X51395Y-25654D02*
X51597Y-25654D01*
X52695Y-25654D02*
X54644Y-25654D01*
X51395Y-25734D02*
X51597Y-25734D01*
X52768Y-25734D02*
X54724Y-25734D01*
X51395Y-25814D02*
X51597Y-25814D01*
X52848Y-25814D02*
X54804Y-25814D01*
X51395Y-25894D02*
X51597Y-25894D01*
X52928Y-25894D02*
X54884Y-25894D01*
X51395Y-25974D02*
X51597Y-25974D01*
X53008Y-25974D02*
X54964Y-25974D01*
X51395Y-26054D02*
X51597Y-26054D01*
X53088Y-26054D02*
X55044Y-26054D01*
X51387Y-26134D02*
X51605Y-26134D01*
X53168Y-26134D02*
X55124Y-26134D01*
X51349Y-26214D02*
X51643Y-26214D01*
X53248Y-26214D02*
X55204Y-26214D01*
X51243Y-26294D02*
X51748Y-26294D01*
X53328Y-26294D02*
X55284Y-26294D01*
X50944Y-26374D02*
X52488Y-26374D01*
X53408Y-26374D02*
X55364Y-26374D01*
X51227Y-26454D02*
X51805Y-26454D01*
X53488Y-26454D02*
X55444Y-26454D01*
X51319Y-26534D02*
X51713Y-26534D01*
X53568Y-26534D02*
X55524Y-26534D01*
X51399Y-26614D02*
X51634Y-26614D01*
X53648Y-26614D02*
X55604Y-26614D01*
X51432Y-26694D02*
X51601Y-26694D01*
X53728Y-26694D02*
X55684Y-26694D01*
X51465Y-26774D02*
X51567Y-26774D01*
X53808Y-26774D02*
X55764Y-26774D01*
X51480Y-26854D02*
X51552Y-26854D01*
X53888Y-26854D02*
X55844Y-26854D01*
X49771Y-26934D02*
X49782Y-26934D01*
X51480Y-26934D02*
X51552Y-26934D01*
X53968Y-26934D02*
X54297Y-26934D01*
X55213Y-26934D02*
X55597Y-26934D01*
X49691Y-27014D02*
X49782Y-27014D01*
X51480Y-27014D02*
X51552Y-27014D01*
X54048Y-27014D02*
X54233Y-27014D01*
X55278Y-27014D02*
X55533Y-27014D01*
X49611Y-27094D02*
X49811Y-27094D01*
X51450Y-27094D02*
X51581Y-27094D01*
X54128Y-27094D02*
X54206Y-27094D01*
X55304Y-27094D02*
X55506Y-27094D01*
X49531Y-27174D02*
X49844Y-27174D01*
X51417Y-27174D02*
X51614Y-27174D01*
X53187Y-27174D02*
X53289Y-27174D01*
X55304Y-27174D02*
X55506Y-27174D01*
X57505Y-27174D02*
X57707Y-27174D01*
X49451Y-27254D02*
X49897Y-27254D01*
X51365Y-27254D02*
X51667Y-27254D01*
X53135Y-27254D02*
X53369Y-27254D01*
X55304Y-27254D02*
X55506Y-27254D01*
X57505Y-27254D02*
X57707Y-27254D01*
X49371Y-27334D02*
X49977Y-27334D01*
X51285Y-27334D02*
X51747Y-27334D01*
X53055Y-27334D02*
X53449Y-27334D01*
X55304Y-27334D02*
X55506Y-27334D01*
X57505Y-27334D02*
X57707Y-27334D01*
X49337Y-27414D02*
X50117Y-27414D01*
X51144Y-27414D02*
X51887Y-27414D01*
X52914Y-27414D02*
X53529Y-27414D01*
X55304Y-27414D02*
X55506Y-27414D01*
X57505Y-27414D02*
X57707Y-27414D01*
X49337Y-27494D02*
X53609Y-27494D01*
X55304Y-27494D02*
X55506Y-27494D01*
X57505Y-27494D02*
X57707Y-27494D01*
X49337Y-27574D02*
X53689Y-27574D01*
X55304Y-27574D02*
X55506Y-27574D01*
X57505Y-27574D02*
X57707Y-27574D01*
X49337Y-27654D02*
X53769Y-27654D01*
X55304Y-27654D02*
X55506Y-27654D01*
X57505Y-27654D02*
X57707Y-27654D01*
X49337Y-27734D02*
X53849Y-27734D01*
X55304Y-27734D02*
X55506Y-27734D01*
X57505Y-27734D02*
X57707Y-27734D01*
X49337Y-27814D02*
X53956Y-27814D01*
X55304Y-27814D02*
X55506Y-27814D01*
X57505Y-27814D02*
X57707Y-27814D01*
X49337Y-27894D02*
X54206Y-27894D01*
X55304Y-27894D02*
X55506Y-27894D01*
X57505Y-27894D02*
X57707Y-27894D01*
X49695Y-27974D02*
X49803Y-27974D01*
X50240Y-27974D02*
X54206Y-27974D01*
X55304Y-27974D02*
X55506Y-27974D01*
X57505Y-27974D02*
X57623Y-27974D01*
X49737Y-28054D02*
X49761Y-28054D01*
X50333Y-28054D02*
X50427Y-28054D01*
X51272Y-28054D02*
X54237Y-28054D01*
X55272Y-28054D02*
X55537Y-28054D01*
X57471Y-28054D02*
X57559Y-28054D01*
X49737Y-28134D02*
X49761Y-28134D01*
X51371Y-28134D02*
X54309Y-28134D01*
X55201Y-28134D02*
X55609Y-28134D01*
X56500Y-28134D02*
X56514Y-28134D01*
X57398Y-28134D02*
X57526Y-28134D01*
X49737Y-28214D02*
X49761Y-28214D01*
X51407Y-28214D02*
X57516Y-28214D01*
X49737Y-28294D02*
X49761Y-28294D01*
X51413Y-28294D02*
X57516Y-28294D01*
X49737Y-28374D02*
X49761Y-28374D01*
X51413Y-28374D02*
X57516Y-28374D01*
X49737Y-28454D02*
X49761Y-28454D01*
X51413Y-28454D02*
X57528Y-28454D01*
X49737Y-28534D02*
X49761Y-28534D01*
X51413Y-28534D02*
X58232Y-28534D01*
X49737Y-28614D02*
X49761Y-28614D01*
X51413Y-28614D02*
X57540Y-28614D01*
X51413Y-28694D02*
X57515Y-28694D01*
X51413Y-28774D02*
X57515Y-28774D01*
X51413Y-28854D02*
X57515Y-28854D01*
X51413Y-28934D02*
X57520Y-28934D01*
X51413Y-29014D02*
X53059Y-29014D01*
X54012Y-29014D02*
X57553Y-29014D01*
X54102Y-29094D02*
X57610Y-29094D01*
X54135Y-29174D02*
X57664Y-29174D01*
X54139Y-29254D02*
X57625Y-29254D01*
X54139Y-29334D02*
X57616Y-29334D01*
X54139Y-29414D02*
X57616Y-29414D01*
X54139Y-29494D02*
X57616Y-29494D01*
X54139Y-29574D02*
X57616Y-29574D01*
X54139Y-29654D02*
X57616Y-29654D01*
X49450Y-29734D02*
X52761Y-29734D01*
X54139Y-29734D02*
X57616Y-29734D01*
X49501Y-29814D02*
X52860Y-29814D01*
X54139Y-29814D02*
X57616Y-29814D01*
X49696Y-29894D02*
X52931Y-29894D01*
X54139Y-29894D02*
X57616Y-29894D01*
X49776Y-29974D02*
X52956Y-29974D01*
X54113Y-29974D02*
X57616Y-29974D01*
X49821Y-30054D02*
X52966Y-30054D01*
X54105Y-30054D02*
X57636Y-30054D01*
X49855Y-30134D02*
X52886Y-30134D01*
X54185Y-30134D02*
X57692Y-30134D01*
X48626Y-30214D02*
X48686Y-30214D01*
X49855Y-30214D02*
X52852Y-30214D01*
X54219Y-30214D02*
X58306Y-30214D01*
X48543Y-30294D02*
X48686Y-30294D01*
X49853Y-30294D02*
X52831Y-30294D01*
X54240Y-30294D02*
X58226Y-30294D01*
X48523Y-30374D02*
X48686Y-30374D01*
X49819Y-30374D02*
X52831Y-30374D01*
X54240Y-30374D02*
X58146Y-30374D01*
X48502Y-30454D02*
X48686Y-30454D01*
X49773Y-30454D02*
X52831Y-30454D01*
X54240Y-30454D02*
X58066Y-30454D01*
X48447Y-30534D02*
X48686Y-30534D01*
X49693Y-30534D02*
X52831Y-30534D01*
X54240Y-30534D02*
X57999Y-30534D01*
X58954Y-30534D02*
X58985Y-30534D01*
X48234Y-30614D02*
X48686Y-30614D01*
X49570Y-30614D02*
X52895Y-30614D01*
X54175Y-30614D02*
X57950Y-30614D01*
X58825Y-30614D02*
X58985Y-30614D01*
X48234Y-30694D02*
X48686Y-30694D01*
X49570Y-30694D02*
X52883Y-30694D01*
X53523Y-30694D02*
X53547Y-30694D01*
X54187Y-30694D02*
X57934Y-30694D01*
X58745Y-30694D02*
X58985Y-30694D01*
X48234Y-30774D02*
X48686Y-30774D01*
X49570Y-30774D02*
X52830Y-30774D01*
X53523Y-30774D02*
X53547Y-30774D01*
X54239Y-30774D02*
X57927Y-30774D01*
X58665Y-30774D02*
X58985Y-30774D01*
X48229Y-30854D02*
X48686Y-30854D01*
X49570Y-30854D02*
X52388Y-30854D01*
X52711Y-30854D02*
X52830Y-30854D01*
X53523Y-30854D02*
X53547Y-30854D01*
X54239Y-30854D02*
X57927Y-30854D01*
X58585Y-30854D02*
X58985Y-30854D01*
X48213Y-30934D02*
X48686Y-30934D01*
X49570Y-30934D02*
X52248Y-30934D01*
X52786Y-30934D02*
X52810Y-30934D01*
X53523Y-30934D02*
X53547Y-30934D01*
X54239Y-30934D02*
X57927Y-30934D01*
X58577Y-30934D02*
X58985Y-30934D01*
X48170Y-31014D02*
X48686Y-31014D01*
X49570Y-31014D02*
X51209Y-31014D01*
X52786Y-31014D02*
X52810Y-31014D01*
X53523Y-31014D02*
X53547Y-31014D01*
X54239Y-31014D02*
X57142Y-31014D01*
X57615Y-31014D02*
X57927Y-31014D01*
X58577Y-31014D02*
X58985Y-31014D01*
X48106Y-31094D02*
X48686Y-31094D01*
X49570Y-31094D02*
X49679Y-31094D01*
X50951Y-31094D02*
X51155Y-31094D01*
X52786Y-31094D02*
X52810Y-31094D01*
X53523Y-31094D02*
X53547Y-31094D01*
X54213Y-31094D02*
X57062Y-31094D01*
X57695Y-31094D02*
X57927Y-31094D01*
X58577Y-31094D02*
X58985Y-31094D01*
X48026Y-31174D02*
X48686Y-31174D01*
X49570Y-31174D02*
X49617Y-31174D01*
X51014Y-31174D02*
X51134Y-31174D01*
X52786Y-31174D02*
X52810Y-31174D01*
X53523Y-31174D02*
X53547Y-31174D01*
X54172Y-31174D02*
X57023Y-31174D01*
X57735Y-31174D02*
X57927Y-31174D01*
X58577Y-31174D02*
X58985Y-31174D01*
X47946Y-31254D02*
X48686Y-31254D01*
X49570Y-31254D02*
X49591Y-31254D01*
X51039Y-31254D02*
X51134Y-31254D01*
X52786Y-31254D02*
X52810Y-31254D01*
X53494Y-31254D02*
X53575Y-31254D01*
X54092Y-31254D02*
X56992Y-31254D01*
X57764Y-31254D02*
X57927Y-31254D01*
X58577Y-31254D02*
X58985Y-31254D01*
X47866Y-31334D02*
X48686Y-31334D01*
X49570Y-31334D02*
X49591Y-31334D01*
X52786Y-31334D02*
X52810Y-31334D01*
X53463Y-31334D02*
X56992Y-31334D01*
X57764Y-31334D02*
X57927Y-31334D01*
X58577Y-31334D02*
X58985Y-31334D01*
X47786Y-31414D02*
X48686Y-31414D01*
X49570Y-31414D02*
X49591Y-31414D01*
X52786Y-31414D02*
X52810Y-31414D01*
X53463Y-31414D02*
X56997Y-31414D01*
X57758Y-31414D02*
X57927Y-31414D01*
X58577Y-31414D02*
X58985Y-31414D01*
X47706Y-31494D02*
X48686Y-31494D01*
X49570Y-31494D02*
X49591Y-31494D01*
X52786Y-31494D02*
X52810Y-31494D01*
X53417Y-31494D02*
X57031Y-31494D01*
X57724Y-31494D02*
X57927Y-31494D01*
X58577Y-31494D02*
X58985Y-31494D01*
X47626Y-31574D02*
X48686Y-31574D01*
X49570Y-31574D02*
X49591Y-31574D01*
X52786Y-31574D02*
X52810Y-31574D01*
X53391Y-31574D02*
X57053Y-31574D01*
X57703Y-31574D02*
X57927Y-31574D01*
X58577Y-31574D02*
X58985Y-31574D01*
X47546Y-31654D02*
X48686Y-31654D01*
X49570Y-31654D02*
X49591Y-31654D01*
X52786Y-31654D02*
X52810Y-31654D01*
X53462Y-31654D02*
X57053Y-31654D01*
X57703Y-31654D02*
X57927Y-31654D01*
X58577Y-31654D02*
X58985Y-31654D01*
X47439Y-31734D02*
X48686Y-31734D01*
X49570Y-31734D02*
X49591Y-31734D01*
X52786Y-31734D02*
X52810Y-31734D01*
X53462Y-31734D02*
X57053Y-31734D01*
X57703Y-31734D02*
X57927Y-31734D01*
X58577Y-31734D02*
X58985Y-31734D01*
X47344Y-31814D02*
X48638Y-31814D01*
X49570Y-31814D02*
X49591Y-31814D01*
X52786Y-31814D02*
X52810Y-31814D01*
X53462Y-31814D02*
X57053Y-31814D01*
X57703Y-31814D02*
X57927Y-31814D01*
X58577Y-31814D02*
X58985Y-31814D01*
X47344Y-31894D02*
X48558Y-31894D01*
X49570Y-31894D02*
X49591Y-31894D01*
X51039Y-31894D02*
X51134Y-31894D01*
X52786Y-31894D02*
X52810Y-31894D01*
X53462Y-31894D02*
X57053Y-31894D01*
X57703Y-31894D02*
X57927Y-31894D01*
X58577Y-31894D02*
X58985Y-31894D01*
X47344Y-31974D02*
X48197Y-31974D01*
X49570Y-31974D02*
X49591Y-31974D01*
X51039Y-31974D02*
X51143Y-31974D01*
X52786Y-31974D02*
X52810Y-31974D01*
X53461Y-31974D02*
X57053Y-31974D01*
X57703Y-31974D02*
X57927Y-31974D01*
X58577Y-31974D02*
X58985Y-31974D01*
X47344Y-32054D02*
X48000Y-32054D01*
X49565Y-32054D02*
X49591Y-32054D01*
X51039Y-32054D02*
X51183Y-32054D01*
X52786Y-32054D02*
X52810Y-32054D01*
X53428Y-32054D02*
X57053Y-32054D01*
X57703Y-32054D02*
X57927Y-32054D01*
X58577Y-32054D02*
X58985Y-32054D01*
X47344Y-32134D02*
X47917Y-32134D01*
X49549Y-32134D02*
X49591Y-32134D01*
X51039Y-32134D02*
X51292Y-32134D01*
X52103Y-32134D02*
X52221Y-32134D01*
X52786Y-32134D02*
X52810Y-32134D01*
X53374Y-32134D02*
X56317Y-32134D01*
X56605Y-32134D02*
X57008Y-32134D01*
X57703Y-32134D02*
X57927Y-32134D01*
X58577Y-32134D02*
X58985Y-32134D01*
X47344Y-32214D02*
X47837Y-32214D01*
X49499Y-32214D02*
X49591Y-32214D01*
X51039Y-32214D02*
X52324Y-32214D01*
X52737Y-32214D02*
X52859Y-32214D01*
X53271Y-32214D02*
X56194Y-32214D01*
X57703Y-32214D02*
X57927Y-32214D01*
X58577Y-32214D02*
X58985Y-32214D01*
X47344Y-32294D02*
X47770Y-32294D01*
X49427Y-32294D02*
X49591Y-32294D01*
X51039Y-32294D02*
X56126Y-32294D01*
X57688Y-32294D02*
X57927Y-32294D01*
X58577Y-32294D02*
X58985Y-32294D01*
X47344Y-32374D02*
X47728Y-32374D01*
X49347Y-32374D02*
X49591Y-32374D01*
X51039Y-32374D02*
X56093Y-32374D01*
X57660Y-32374D02*
X57927Y-32374D01*
X58577Y-32374D02*
X58985Y-32374D01*
X47344Y-32454D02*
X47712Y-32454D01*
X49267Y-32454D02*
X49591Y-32454D01*
X51039Y-32454D02*
X56075Y-32454D01*
X57608Y-32454D02*
X57927Y-32454D01*
X58577Y-32454D02*
X58985Y-32454D01*
X47344Y-32534D02*
X47710Y-32534D01*
X49187Y-32534D02*
X49591Y-32534D01*
X51039Y-32534D02*
X56075Y-32534D01*
X57528Y-32534D02*
X57927Y-32534D01*
X58577Y-32534D02*
X58985Y-32534D01*
X47344Y-32614D02*
X47710Y-32614D01*
X49107Y-32614D02*
X49603Y-32614D01*
X51026Y-32614D02*
X56093Y-32614D01*
X57448Y-32614D02*
X57927Y-32614D01*
X58577Y-32614D02*
X58985Y-32614D01*
X47313Y-32694D02*
X47710Y-32694D01*
X49027Y-32694D02*
X49647Y-32694D01*
X50983Y-32694D02*
X56126Y-32694D01*
X57368Y-32694D02*
X57927Y-32694D01*
X58577Y-32694D02*
X58985Y-32694D01*
X47321Y-32774D02*
X47710Y-32774D01*
X48932Y-32774D02*
X49766Y-32774D01*
X50863Y-32774D02*
X56197Y-32774D01*
X57261Y-32774D02*
X57927Y-32774D01*
X58577Y-32774D02*
X58985Y-32774D01*
X46728Y-32854D02*
X46752Y-32854D01*
X47395Y-32854D02*
X47710Y-32854D01*
X48510Y-32854D02*
X56326Y-32854D01*
X56595Y-32854D02*
X57927Y-32854D01*
X58577Y-32854D02*
X58985Y-32854D01*
X46728Y-32934D02*
X46752Y-32934D01*
X47428Y-32934D02*
X47710Y-32934D01*
X48510Y-32934D02*
X57927Y-32934D01*
X58577Y-32934D02*
X58985Y-32934D01*
X46728Y-33014D02*
X46752Y-33014D01*
X47445Y-33014D02*
X47710Y-33014D01*
X48510Y-33014D02*
X57927Y-33014D01*
X58577Y-33014D02*
X58985Y-33014D01*
X46728Y-33094D02*
X46752Y-33094D01*
X47445Y-33094D02*
X47710Y-33094D01*
X48510Y-33094D02*
X57927Y-33094D01*
X58577Y-33094D02*
X58985Y-33094D01*
X46728Y-33174D02*
X46752Y-33174D01*
X47445Y-33174D02*
X47710Y-33174D01*
X48510Y-33174D02*
X57927Y-33174D01*
X58577Y-33174D02*
X58985Y-33174D01*
X46728Y-33254D02*
X46752Y-33254D01*
X47445Y-33254D02*
X47710Y-33254D01*
X48510Y-33254D02*
X57927Y-33254D01*
X58577Y-33254D02*
X58985Y-33254D01*
X45567Y-33334D02*
X46111Y-33334D01*
X46728Y-33334D02*
X46752Y-33334D01*
X47369Y-33334D02*
X47710Y-33334D01*
X48510Y-33334D02*
X49689Y-33334D01*
X50941Y-33334D02*
X57927Y-33334D01*
X58577Y-33334D02*
X58985Y-33334D01*
X45487Y-33414D02*
X46077Y-33414D01*
X47403Y-33414D02*
X47710Y-33414D01*
X48510Y-33414D02*
X49621Y-33414D01*
X51010Y-33414D02*
X57927Y-33414D01*
X58577Y-33414D02*
X58985Y-33414D01*
X45407Y-33494D02*
X46035Y-33494D01*
X47444Y-33494D02*
X47710Y-33494D01*
X48510Y-33494D02*
X49591Y-33494D01*
X51039Y-33494D02*
X57927Y-33494D01*
X58577Y-33494D02*
X58985Y-33494D01*
X45407Y-33574D02*
X46035Y-33574D01*
X47444Y-33574D02*
X47710Y-33574D01*
X48510Y-33574D02*
X49591Y-33574D01*
X51039Y-33574D02*
X57927Y-33574D01*
X58577Y-33574D02*
X58985Y-33574D01*
X45407Y-33654D02*
X46035Y-33654D01*
X47444Y-33654D02*
X47710Y-33654D01*
X48510Y-33654D02*
X49591Y-33654D01*
X51039Y-33654D02*
X55230Y-33654D01*
X55408Y-33654D02*
X55986Y-33654D01*
X56164Y-33654D02*
X57927Y-33654D01*
X58577Y-33654D02*
X58985Y-33654D01*
X45407Y-33734D02*
X46035Y-33734D01*
X47444Y-33734D02*
X47710Y-33734D01*
X48510Y-33734D02*
X49591Y-33734D01*
X51039Y-33734D02*
X55075Y-33734D01*
X55564Y-33734D02*
X55831Y-33734D01*
X57592Y-33734D02*
X57927Y-33734D01*
X58577Y-33734D02*
X58985Y-33734D01*
X45407Y-33814D02*
X46066Y-33814D01*
X47413Y-33814D02*
X47705Y-33814D01*
X48510Y-33814D02*
X49591Y-33814D01*
X51039Y-33814D02*
X54995Y-33814D01*
X55644Y-33814D02*
X55751Y-33814D01*
X57708Y-33814D02*
X57927Y-33814D01*
X58577Y-33814D02*
X58985Y-33814D01*
X45407Y-33894D02*
X46113Y-33894D01*
X47366Y-33894D02*
X47625Y-33894D01*
X48510Y-33894D02*
X49591Y-33894D01*
X51039Y-33894D02*
X52334Y-33894D01*
X52739Y-33894D02*
X52865Y-33894D01*
X53271Y-33894D02*
X54960Y-33894D01*
X55679Y-33894D02*
X55716Y-33894D01*
X57787Y-33894D02*
X57927Y-33894D01*
X58577Y-33894D02*
X58985Y-33894D01*
X46100Y-33974D02*
X46201Y-33974D01*
X47400Y-33974D02*
X47545Y-33974D01*
X48510Y-33974D02*
X49591Y-33974D01*
X51039Y-33974D02*
X51302Y-33974D01*
X52103Y-33974D02*
X52228Y-33974D01*
X52790Y-33974D02*
X52814Y-33974D01*
X53377Y-33974D02*
X54933Y-33974D01*
X57867Y-33974D02*
X57927Y-33974D01*
X58577Y-33974D02*
X58967Y-33974D01*
X46162Y-34054D02*
X46413Y-34054D01*
X47462Y-34054D02*
X47465Y-34054D01*
X48510Y-34054D02*
X49591Y-34054D01*
X51039Y-34054D02*
X51189Y-34054D01*
X52790Y-34054D02*
X52814Y-34054D01*
X53432Y-34054D02*
X54933Y-34054D01*
X58674Y-34054D02*
X58868Y-34054D01*
X46186Y-34134D02*
X46388Y-34134D01*
X48510Y-34134D02*
X49591Y-34134D01*
X51039Y-34134D02*
X51149Y-34134D01*
X52790Y-34134D02*
X52814Y-34134D01*
X53465Y-34134D02*
X54942Y-34134D01*
X58760Y-34134D02*
X58837Y-34134D01*
X44288Y-34214D02*
X44634Y-34214D01*
X46186Y-34214D02*
X46388Y-34214D01*
X48510Y-34214D02*
X49591Y-34214D01*
X51039Y-34214D02*
X51138Y-34214D01*
X52790Y-34214D02*
X52814Y-34214D01*
X53466Y-34214D02*
X54975Y-34214D01*
X58793Y-34214D02*
X58830Y-34214D01*
X44288Y-34294D02*
X44554Y-34294D01*
X46186Y-34294D02*
X46388Y-34294D01*
X48498Y-34294D02*
X49591Y-34294D01*
X52790Y-34294D02*
X52814Y-34294D01*
X53467Y-34294D02*
X55029Y-34294D01*
X58796Y-34294D02*
X58830Y-34294D01*
X44288Y-34374D02*
X44507Y-34374D01*
X46186Y-34374D02*
X46388Y-34374D01*
X48469Y-34374D02*
X49591Y-34374D01*
X52790Y-34374D02*
X52814Y-34374D01*
X53467Y-34374D02*
X54979Y-34374D01*
X58796Y-34374D02*
X58830Y-34374D01*
X44288Y-34454D02*
X44474Y-34454D01*
X46186Y-34454D02*
X46388Y-34454D01*
X48412Y-34454D02*
X49591Y-34454D01*
X52790Y-34454D02*
X52814Y-34454D01*
X53467Y-34454D02*
X54945Y-34454D01*
X58796Y-34454D02*
X58830Y-34454D01*
X44288Y-34534D02*
X44465Y-34534D01*
X46186Y-34534D02*
X46388Y-34534D01*
X48332Y-34534D02*
X49591Y-34534D01*
X52790Y-34534D02*
X52814Y-34534D01*
X53397Y-34534D02*
X54933Y-34534D01*
X58796Y-34534D02*
X58830Y-34534D01*
X44288Y-34614D02*
X44465Y-34614D01*
X46186Y-34614D02*
X46388Y-34614D01*
X48252Y-34614D02*
X49591Y-34614D01*
X52790Y-34614D02*
X52814Y-34614D01*
X53419Y-34614D02*
X54933Y-34614D01*
X58796Y-34614D02*
X58830Y-34614D01*
X44288Y-34694D02*
X44485Y-34694D01*
X46186Y-34694D02*
X46388Y-34694D01*
X48172Y-34694D02*
X49591Y-34694D01*
X52790Y-34694D02*
X52814Y-34694D01*
X53466Y-34694D02*
X54918Y-34694D01*
X58796Y-34694D02*
X58830Y-34694D01*
X44288Y-34774D02*
X44518Y-34774D01*
X46186Y-34774D02*
X46388Y-34774D01*
X48092Y-34774D02*
X49591Y-34774D01*
X52790Y-34774D02*
X52814Y-34774D01*
X53466Y-34774D02*
X54812Y-34774D01*
X58796Y-34774D02*
X58830Y-34774D01*
X44288Y-34854D02*
X44584Y-34854D01*
X46186Y-34854D02*
X46388Y-34854D01*
X48012Y-34854D02*
X49599Y-34854D01*
X51030Y-34854D02*
X51138Y-34854D01*
X52790Y-34854D02*
X52814Y-34854D01*
X53466Y-34854D02*
X54757Y-34854D01*
X58787Y-34854D02*
X58830Y-34854D01*
X44288Y-34934D02*
X44685Y-34934D01*
X46186Y-34934D02*
X46388Y-34934D01*
X47932Y-34934D02*
X48792Y-34934D01*
X49263Y-34934D02*
X49349Y-34934D01*
X50993Y-34934D02*
X51138Y-34934D01*
X52790Y-34934D02*
X52814Y-34934D01*
X53466Y-34934D02*
X54724Y-34934D01*
X58781Y-34934D02*
X58830Y-34934D01*
X44288Y-35014D02*
X45088Y-35014D01*
X46185Y-35014D02*
X46388Y-35014D01*
X48655Y-35014D02*
X48712Y-35014D01*
X49294Y-35014D02*
X49318Y-35014D01*
X50887Y-35014D02*
X51157Y-35014D01*
X52790Y-35014D02*
X52814Y-35014D01*
X53455Y-35014D02*
X54721Y-35014D01*
X58796Y-35014D02*
X58830Y-35014D01*
X44288Y-35094D02*
X45122Y-35094D01*
X46152Y-35094D02*
X46422Y-35094D01*
X49294Y-35094D02*
X49318Y-35094D01*
X49944Y-35094D02*
X51211Y-35094D01*
X52790Y-35094D02*
X52814Y-35094D01*
X53422Y-35094D02*
X54721Y-35094D01*
X58796Y-35094D02*
X58830Y-35094D01*
X44288Y-35174D02*
X45087Y-35174D01*
X46166Y-35174D02*
X46387Y-35174D01*
X49294Y-35174D02*
X49318Y-35174D01*
X49970Y-35174D02*
X52249Y-35174D01*
X52790Y-35174D02*
X52814Y-35174D01*
X53354Y-35174D02*
X54721Y-35174D01*
X58796Y-35174D02*
X58830Y-35174D01*
X44288Y-35254D02*
X44675Y-35254D01*
X46175Y-35254D02*
X46377Y-35254D01*
X49294Y-35254D02*
X49318Y-35254D01*
X49970Y-35254D02*
X52386Y-35254D01*
X52717Y-35254D02*
X52887Y-35254D01*
X53217Y-35254D02*
X54749Y-35254D01*
X58796Y-35254D02*
X58830Y-35254D01*
X44288Y-35334D02*
X44573Y-35334D01*
X46175Y-35334D02*
X46377Y-35334D01*
X49294Y-35334D02*
X49318Y-35334D01*
X49971Y-35334D02*
X55667Y-35334D01*
X58796Y-35334D02*
X58830Y-35334D01*
X44288Y-35414D02*
X44508Y-35414D01*
X46175Y-35414D02*
X46377Y-35414D01*
X49294Y-35414D02*
X49318Y-35414D01*
X49971Y-35414D02*
X54729Y-35414D01*
X55413Y-35414D02*
X55437Y-35414D01*
X58796Y-35414D02*
X58830Y-35414D01*
X44288Y-35494D02*
X44475Y-35494D01*
X46175Y-35494D02*
X46377Y-35494D01*
X49294Y-35494D02*
X49318Y-35494D01*
X49961Y-35494D02*
X54720Y-35494D01*
X55413Y-35494D02*
X55437Y-35494D01*
X58796Y-35494D02*
X58830Y-35494D01*
X44288Y-35574D02*
X44453Y-35574D01*
X46175Y-35574D02*
X46377Y-35574D01*
X47608Y-35574D02*
X47642Y-35574D01*
X48770Y-35574D02*
X54720Y-35574D01*
X55413Y-35574D02*
X55437Y-35574D01*
X58796Y-35574D02*
X58830Y-35574D01*
X44288Y-35654D02*
X44453Y-35654D01*
X46175Y-35654D02*
X46377Y-35654D01*
X47528Y-35654D02*
X47642Y-35654D01*
X49294Y-35654D02*
X49318Y-35654D01*
X49943Y-35654D02*
X54720Y-35654D01*
X55413Y-35654D02*
X55437Y-35654D01*
X58766Y-35654D02*
X58830Y-35654D01*
X44288Y-35734D02*
X44461Y-35734D01*
X46175Y-35734D02*
X46377Y-35734D01*
X47475Y-35734D02*
X47642Y-35734D01*
X49294Y-35734D02*
X49318Y-35734D01*
X49970Y-35734D02*
X54731Y-35734D01*
X55413Y-35734D02*
X55437Y-35734D01*
X58698Y-35734D02*
X58830Y-35734D01*
X44288Y-35814D02*
X44494Y-35814D01*
X46175Y-35814D02*
X46377Y-35814D01*
X47475Y-35814D02*
X47642Y-35814D01*
X49294Y-35814D02*
X49318Y-35814D01*
X49970Y-35814D02*
X54764Y-35814D01*
X55413Y-35814D02*
X55437Y-35814D01*
X58577Y-35814D02*
X58830Y-35814D01*
X44288Y-35894D02*
X44541Y-35894D01*
X46175Y-35894D02*
X46377Y-35894D01*
X47475Y-35894D02*
X47642Y-35894D01*
X49294Y-35894D02*
X49318Y-35894D01*
X49970Y-35894D02*
X54831Y-35894D01*
X58565Y-35894D02*
X58830Y-35894D01*
X44288Y-35974D02*
X44621Y-35974D01*
X46175Y-35974D02*
X46377Y-35974D01*
X47475Y-35974D02*
X47642Y-35974D01*
X49294Y-35974D02*
X49318Y-35974D01*
X49970Y-35974D02*
X54857Y-35974D01*
X58542Y-35974D02*
X58830Y-35974D01*
X44288Y-36054D02*
X44790Y-36054D01*
X44964Y-36054D02*
X45077Y-36054D01*
X46175Y-36054D02*
X46377Y-36054D01*
X47475Y-36054D02*
X47669Y-36054D01*
X49294Y-36054D02*
X49318Y-36054D01*
X49950Y-36054D02*
X54824Y-36054D01*
X58489Y-36054D02*
X58830Y-36054D01*
X44288Y-36134D02*
X45093Y-36134D01*
X46159Y-36134D02*
X46393Y-36134D01*
X47459Y-36134D02*
X47735Y-36134D01*
X48676Y-36134D02*
X48694Y-36134D01*
X49294Y-36134D02*
X49318Y-36134D01*
X49917Y-36134D02*
X54821Y-36134D01*
X58413Y-36134D02*
X58830Y-36134D01*
X44288Y-36214D02*
X45142Y-36214D01*
X46110Y-36214D02*
X46442Y-36214D01*
X47410Y-36214D02*
X48773Y-36214D01*
X49281Y-36214D02*
X49331Y-36214D01*
X49838Y-36214D02*
X54821Y-36214D01*
X58257Y-36214D02*
X58830Y-36214D01*
X44288Y-36294D02*
X45273Y-36294D01*
X45977Y-36294D02*
X46573Y-36294D01*
X47277Y-36294D02*
X54821Y-36294D01*
X57742Y-36294D02*
X58830Y-36294D01*
X44288Y-36374D02*
X54741Y-36374D01*
X57701Y-36374D02*
X58830Y-36374D01*
X44288Y-36454D02*
X54661Y-36454D01*
X57586Y-36454D02*
X58830Y-36454D01*
X44288Y-36534D02*
X54581Y-36534D01*
X56692Y-36534D02*
X58830Y-36534D01*
X44288Y-36614D02*
X53810Y-36614D01*
X56106Y-36614D02*
X58830Y-36614D01*
X44288Y-36694D02*
X53720Y-36694D01*
X56029Y-36694D02*
X58830Y-36694D01*
X44288Y-36774D02*
X50208Y-36774D01*
X51056Y-36774D02*
X51978Y-36774D01*
X52826Y-36774D02*
X53640Y-36774D01*
X56029Y-36774D02*
X58830Y-36774D01*
X44288Y-36854D02*
X45990Y-36854D01*
X46279Y-36854D02*
X50014Y-36854D01*
X51248Y-36854D02*
X51784Y-36854D01*
X53018Y-36854D02*
X53560Y-36854D01*
X56001Y-36854D02*
X58830Y-36854D01*
X44288Y-36934D02*
X45780Y-36934D01*
X46675Y-36934D02*
X47612Y-36934D01*
X48641Y-36934D02*
X48815Y-36934D01*
X49825Y-36934D02*
X49934Y-36934D01*
X51329Y-36934D02*
X51704Y-36934D01*
X55937Y-36934D02*
X58830Y-36934D01*
X44288Y-37014D02*
X45569Y-37014D01*
X46853Y-37014D02*
X47516Y-37014D01*
X51403Y-37014D02*
X51630Y-37014D01*
X55241Y-37014D02*
X58830Y-37014D01*
X44288Y-37094D02*
X45465Y-37094D01*
X46984Y-37094D02*
X47483Y-37094D01*
X51436Y-37094D02*
X51597Y-37094D01*
X55265Y-37094D02*
X56075Y-37094D01*
X44288Y-37174D02*
X45426Y-37174D01*
X47023Y-37174D02*
X47477Y-37174D01*
X51469Y-37174D02*
X51564Y-37174D01*
X55265Y-37174D02*
X55988Y-37174D01*
X44288Y-37254D02*
X45387Y-37254D01*
X47062Y-37254D02*
X47477Y-37254D01*
X51480Y-37254D02*
X51552Y-37254D01*
X54589Y-37254D02*
X54613Y-37254D01*
X55266Y-37254D02*
X55908Y-37254D01*
X44288Y-37334D02*
X45247Y-37334D01*
X45427Y-37334D02*
X45461Y-37334D01*
X46987Y-37334D02*
X47021Y-37334D01*
X47202Y-37334D02*
X47477Y-37334D01*
X51480Y-37334D02*
X51552Y-37334D01*
X54589Y-37334D02*
X54613Y-37334D01*
X55266Y-37334D02*
X55828Y-37334D01*
X44288Y-37414D02*
X45157Y-37414D01*
X45507Y-37414D02*
X45541Y-37414D01*
X46907Y-37414D02*
X46941Y-37414D01*
X47302Y-37414D02*
X47477Y-37414D01*
X51480Y-37414D02*
X51552Y-37414D01*
X54589Y-37414D02*
X54613Y-37414D01*
X55249Y-37414D02*
X55748Y-37414D01*
X44288Y-37494D02*
X45121Y-37494D01*
X45587Y-37494D02*
X45621Y-37494D01*
X46827Y-37494D02*
X46861Y-37494D01*
X47338Y-37494D02*
X47477Y-37494D01*
X51447Y-37494D02*
X51584Y-37494D01*
X54065Y-37494D02*
X55668Y-37494D01*
X44288Y-37574D02*
X45085Y-37574D01*
X45667Y-37574D02*
X45701Y-37574D01*
X46747Y-37574D02*
X46781Y-37574D01*
X47368Y-37574D02*
X47477Y-37574D01*
X51413Y-37574D02*
X51617Y-37574D01*
X54589Y-37574D02*
X54613Y-37574D01*
X55245Y-37574D02*
X55588Y-37574D01*
X44288Y-37654D02*
X45049Y-37654D01*
X45747Y-37654D02*
X45781Y-37654D01*
X46667Y-37654D02*
X46701Y-37654D01*
X47399Y-37654D02*
X47477Y-37654D01*
X54589Y-37654D02*
X54613Y-37654D01*
X55265Y-37654D02*
X55508Y-37654D01*
X44288Y-37734D02*
X45013Y-37734D01*
X45827Y-37734D02*
X45861Y-37734D01*
X46587Y-37734D02*
X46621Y-37734D01*
X47429Y-37734D02*
X47477Y-37734D01*
X54589Y-37734D02*
X54613Y-37734D01*
X55265Y-37734D02*
X55428Y-37734D01*
X44288Y-37814D02*
X44977Y-37814D01*
X45907Y-37814D02*
X45941Y-37814D01*
X46507Y-37814D02*
X46541Y-37814D01*
X47459Y-37814D02*
X47480Y-37814D01*
X49966Y-37814D02*
X50138Y-37814D01*
X51838Y-37814D02*
X51909Y-37814D01*
X54589Y-37814D02*
X54613Y-37814D01*
X55265Y-37814D02*
X55348Y-37814D01*
X44288Y-37894D02*
X44969Y-37894D01*
X45987Y-37894D02*
X46021Y-37894D01*
X46427Y-37894D02*
X46461Y-37894D01*
X47490Y-37894D02*
X47513Y-37894D01*
X49932Y-37894D02*
X50750Y-37894D01*
X51848Y-37894D02*
X52050Y-37894D01*
X54589Y-37894D02*
X54613Y-37894D01*
X55265Y-37894D02*
X55268Y-37894D01*
X44288Y-37974D02*
X44967Y-37974D01*
X46067Y-37974D02*
X46101Y-37974D01*
X46347Y-37974D02*
X46381Y-37974D01*
X47489Y-37974D02*
X47601Y-37974D01*
X49852Y-37974D02*
X50750Y-37974D01*
X51848Y-37974D02*
X52050Y-37974D01*
X54589Y-37974D02*
X54613Y-37974D01*
X44288Y-38054D02*
X44965Y-38054D01*
X46147Y-38054D02*
X46181Y-38054D01*
X46267Y-38054D02*
X46301Y-38054D01*
X47487Y-38054D02*
X48121Y-38054D01*
X49558Y-38054D02*
X50750Y-38054D01*
X51848Y-38054D02*
X52050Y-38054D01*
X53964Y-38054D02*
X53995Y-38054D01*
X54589Y-38054D02*
X54613Y-38054D01*
X44333Y-38134D02*
X44962Y-38134D01*
X46187Y-38134D02*
X46221Y-38134D01*
X46227Y-38134D02*
X46261Y-38134D01*
X47485Y-38134D02*
X48027Y-38134D01*
X49496Y-38134D02*
X50750Y-38134D01*
X51848Y-38134D02*
X52050Y-38134D01*
X53663Y-38134D02*
X54075Y-38134D01*
X54569Y-38134D02*
X54633Y-38134D01*
X44413Y-38214D02*
X44960Y-38214D01*
X46107Y-38214D02*
X46141Y-38214D01*
X46307Y-38214D02*
X46341Y-38214D01*
X47482Y-38214D02*
X47661Y-38214D01*
X49777Y-38214D02*
X50750Y-38214D01*
X51848Y-38214D02*
X52050Y-38214D01*
X53583Y-38214D02*
X54949Y-38214D01*
X44493Y-38294D02*
X44957Y-38294D01*
X46027Y-38294D02*
X46061Y-38294D01*
X46387Y-38294D02*
X46421Y-38294D01*
X47480Y-38294D02*
X47536Y-38294D01*
X49905Y-38294D02*
X50750Y-38294D01*
X51848Y-38294D02*
X52050Y-38294D01*
X53503Y-38294D02*
X54869Y-38294D01*
X44573Y-38374D02*
X44973Y-38374D01*
X45947Y-38374D02*
X45981Y-38374D01*
X46467Y-38374D02*
X46501Y-38374D01*
X47477Y-38374D02*
X47491Y-38374D01*
X49953Y-38374D02*
X50750Y-38374D01*
X51848Y-38374D02*
X52050Y-38374D01*
X53424Y-38374D02*
X54789Y-38374D01*
X44653Y-38454D02*
X45004Y-38454D01*
X45867Y-38454D02*
X45901Y-38454D01*
X46547Y-38454D02*
X46581Y-38454D01*
X47453Y-38454D02*
X47477Y-38454D01*
X49968Y-38454D02*
X50750Y-38454D01*
X51848Y-38454D02*
X52050Y-38454D01*
X53344Y-38454D02*
X54709Y-38454D01*
X44733Y-38534D02*
X45034Y-38534D01*
X45787Y-38534D02*
X45821Y-38534D01*
X46627Y-38534D02*
X46661Y-38534D01*
X47417Y-38534D02*
X47477Y-38534D01*
X49968Y-38534D02*
X50750Y-38534D01*
X51848Y-38534D02*
X52050Y-38534D01*
X53256Y-38534D02*
X54629Y-38534D01*
X44813Y-38614D02*
X45064Y-38614D01*
X45707Y-38614D02*
X45741Y-38614D01*
X46707Y-38614D02*
X46741Y-38614D01*
X47381Y-38614D02*
X47477Y-38614D01*
X49968Y-38614D02*
X50750Y-38614D01*
X51848Y-38614D02*
X52050Y-38614D01*
X53148Y-38614D02*
X54549Y-38614D01*
X44893Y-38694D02*
X45095Y-38694D01*
X45627Y-38694D02*
X45661Y-38694D01*
X46787Y-38694D02*
X46821Y-38694D01*
X47345Y-38694D02*
X47477Y-38694D01*
X49968Y-38694D02*
X50750Y-38694D01*
X51848Y-38694D02*
X52050Y-38694D01*
X53148Y-38694D02*
X54469Y-38694D01*
X44973Y-38774D02*
X45125Y-38774D01*
X45547Y-38774D02*
X45581Y-38774D01*
X46867Y-38774D02*
X46901Y-38774D01*
X47309Y-38774D02*
X47477Y-38774D01*
X49968Y-38774D02*
X50765Y-38774D01*
X51832Y-38774D02*
X52065Y-38774D01*
X53132Y-38774D02*
X54389Y-38774D01*
X45053Y-38854D02*
X45172Y-38854D01*
X45467Y-38854D02*
X45501Y-38854D01*
X46947Y-38854D02*
X46981Y-38854D01*
X47273Y-38854D02*
X47477Y-38854D01*
X49968Y-38854D02*
X50814Y-38854D01*
X51784Y-38854D02*
X52114Y-38854D01*
X53084Y-38854D02*
X54309Y-38854D01*
X45133Y-38934D02*
X45328Y-38934D01*
X45387Y-38934D02*
X45421Y-38934D01*
X47027Y-38934D02*
X47061Y-38934D01*
X47119Y-38934D02*
X47477Y-38934D01*
X49968Y-38934D02*
X50944Y-38934D01*
X51652Y-38934D02*
X52244Y-38934D01*
X52952Y-38934D02*
X54229Y-38934D01*
X45213Y-39014D02*
X45406Y-39014D01*
X47041Y-39014D02*
X47477Y-39014D01*
X49968Y-39014D02*
X54149Y-39014D01*
X45293Y-39094D02*
X45445Y-39094D01*
X47002Y-39094D02*
X47477Y-39094D01*
X49968Y-39094D02*
X54069Y-39094D01*
X45373Y-39174D02*
X45506Y-39174D01*
X46950Y-39174D02*
X47505Y-39174D01*
X49941Y-39174D02*
X53989Y-39174D01*
X45453Y-39254D02*
X45684Y-39254D01*
X46774Y-39254D02*
X47572Y-39254D01*
X48679Y-39254D02*
X48761Y-39254D01*
X49877Y-39254D02*
X50119Y-39254D01*
X50619Y-39254D02*
X50643Y-39254D01*
X51144Y-39254D02*
X53909Y-39254D01*
X45533Y-39334D02*
X45862Y-39334D01*
X46563Y-39334D02*
X49949Y-39334D01*
X50619Y-39334D02*
X50643Y-39334D01*
X51314Y-39334D02*
X51973Y-39334D01*
X52831Y-39334D02*
X53829Y-39334D01*
X45613Y-39414D02*
X49871Y-39414D01*
X50619Y-39414D02*
X50643Y-39414D01*
X51392Y-39414D02*
X51782Y-39414D01*
X53020Y-39414D02*
X53749Y-39414D01*
X45693Y-39494D02*
X49792Y-39494D01*
X50619Y-39494D02*
X50643Y-39494D01*
X51471Y-39494D02*
X51702Y-39494D01*
X53100Y-39494D02*
X53669Y-39494D01*
X45773Y-39574D02*
X49759Y-39574D01*
X50619Y-39574D02*
X50643Y-39574D01*
X51504Y-39574D02*
X51629Y-39574D01*
X53174Y-39574D02*
X53589Y-39574D01*
X45853Y-39654D02*
X49732Y-39654D01*
X50619Y-39654D02*
X50643Y-39654D01*
X51531Y-39654D02*
X51596Y-39654D01*
X53207Y-39654D02*
X53509Y-39654D01*
X45933Y-39734D02*
X49706Y-39734D01*
X50619Y-39734D02*
X50643Y-39734D01*
X51557Y-39734D02*
X51562Y-39734D01*
X53240Y-39734D02*
X53429Y-39734D01*
X46013Y-39814D02*
X49745Y-39814D01*
X50619Y-39814D02*
X50643Y-39814D01*
X53250Y-39814D02*
X53349Y-39814D01*
X46093Y-39894D02*
X49764Y-39894D01*
X53250Y-39894D02*
X53269Y-39894D01*
X46173Y-39974D02*
X49703Y-39974D01*
X56283Y-34829D02*
X56307Y-34829D01*
X56283Y-34909D02*
X56307Y-34909D01*
X56283Y-34989D02*
X56307Y-34989D01*
X56283Y-35069D02*
X56307Y-35069D01*
X56283Y-35149D02*
X56307Y-35149D01*
X56283Y-35229D02*
X56307Y-35229D01*
X57137Y-34792D02*
X57161Y-34792D01*
X44288Y-26887D02*
X45040Y-26887D01*
X44288Y-26967D02*
X45072Y-26967D01*
X46305Y-26967D02*
X46339Y-26967D01*
X44625Y-27047D02*
X44705Y-27047D01*
X46233Y-27047D02*
X46419Y-27047D01*
X44653Y-27127D02*
X44677Y-27127D01*
X45347Y-27127D02*
X46499Y-27127D01*
X44653Y-27207D02*
X44677Y-27207D01*
X45389Y-27207D02*
X46579Y-27207D01*
X44653Y-27287D02*
X44677Y-27287D01*
X45414Y-27287D02*
X46659Y-27287D01*
X44653Y-27367D02*
X44677Y-27367D01*
X46269Y-27367D02*
X46764Y-27367D01*
X44653Y-27447D02*
X44677Y-27447D01*
X46321Y-27447D02*
X48196Y-27447D01*
X44653Y-27527D02*
X44677Y-27527D01*
X46338Y-27527D02*
X48196Y-27527D01*
X44653Y-27607D02*
X44677Y-27607D01*
X46338Y-27607D02*
X48196Y-27607D01*
X44653Y-27687D02*
X44677Y-27687D01*
X46338Y-27687D02*
X48196Y-27687D01*
X44653Y-27767D02*
X44677Y-27767D01*
X46338Y-27767D02*
X48196Y-27767D01*
X44653Y-27847D02*
X44677Y-27847D01*
X46338Y-27847D02*
X48196Y-27847D01*
X44653Y-27927D02*
X44677Y-27927D01*
X46338Y-27927D02*
X48196Y-27927D01*
X44653Y-28007D02*
X44677Y-28007D01*
X46338Y-28007D02*
X48196Y-28007D01*
X44653Y-28087D02*
X44677Y-28087D01*
X46338Y-28087D02*
X48196Y-28087D01*
X44653Y-28167D02*
X44677Y-28167D01*
X46338Y-28167D02*
X48196Y-28167D01*
X44653Y-28247D02*
X44677Y-28247D01*
X46313Y-28247D02*
X47330Y-28247D01*
X44653Y-28327D02*
X44677Y-28327D01*
X46253Y-28327D02*
X47258Y-28327D01*
X44653Y-28407D02*
X44677Y-28407D01*
X45385Y-28407D02*
X47225Y-28407D01*
X44653Y-28487D02*
X47225Y-28487D01*
X44653Y-28567D02*
X44677Y-28567D01*
X45407Y-28567D02*
X47225Y-28567D01*
X44653Y-28647D02*
X44677Y-28647D01*
X45414Y-28647D02*
X47225Y-28647D01*
X44653Y-28727D02*
X44677Y-28727D01*
X45414Y-28727D02*
X47225Y-28727D01*
X44653Y-28807D02*
X44677Y-28807D01*
X45414Y-28807D02*
X47225Y-28807D01*
X44653Y-28887D02*
X44677Y-28887D01*
X45396Y-28887D02*
X47225Y-28887D01*
X44653Y-28967D02*
X44677Y-28967D01*
X45363Y-28967D02*
X47225Y-28967D01*
X44645Y-29047D02*
X44685Y-29047D01*
X45287Y-29047D02*
X47225Y-29047D01*
X44288Y-29127D02*
X47234Y-29127D01*
X44288Y-29207D02*
X47274Y-29207D01*
X45229Y-29287D02*
X47383Y-29287D01*
X45290Y-29367D02*
X48196Y-29367D01*
X45314Y-29447D02*
X48196Y-29447D01*
X45314Y-29527D02*
X47375Y-29527D01*
X45314Y-29607D02*
X47270Y-29607D01*
X45314Y-29687D02*
X46641Y-29687D01*
X46641Y-29687D02*
X46839Y-29687D01*
X46839Y-29687D02*
X47233Y-29687D01*
X45314Y-29767D02*
X46162Y-29767D01*
X46721Y-29767D02*
X46759Y-29767D01*
X45314Y-29847D02*
X46087Y-29847D01*
X46728Y-29847D02*
X46752Y-29847D01*
X45314Y-29927D02*
X46053Y-29927D01*
X46728Y-29927D02*
X46752Y-29927D01*
X45314Y-30007D02*
X46036Y-30007D01*
X46728Y-30007D02*
X46752Y-30007D01*
X45314Y-30087D02*
X46036Y-30087D01*
X46728Y-30087D02*
X46752Y-30087D01*
X45357Y-30167D02*
X46036Y-30167D01*
X46728Y-30167D02*
X46752Y-30167D01*
X45400Y-30247D02*
X46036Y-30247D01*
X46728Y-30247D02*
X46752Y-30247D01*
X45411Y-30327D02*
X46109Y-30327D01*
X46728Y-30327D02*
X46752Y-30327D01*
X45411Y-30407D02*
X46079Y-30407D01*
X45411Y-30487D02*
X46035Y-30487D01*
X45411Y-30567D02*
X46035Y-30567D01*
X45411Y-30647D02*
X46035Y-30647D01*
X45411Y-30727D02*
X46035Y-30727D01*
X45411Y-30807D02*
X46065Y-30807D01*
X45489Y-30887D02*
X46111Y-30887D01*
X46155Y-30931D02*
X46089Y-30864D01*
X46036Y-30736D01*
X46035Y-30451D01*
X46122Y-30364D01*
X46122Y-30340D01*
X46035Y-30253D01*
X46036Y-29968D01*
X46089Y-29840D01*
X46187Y-29741D01*
X46315Y-29688D01*
X46454Y-29688D01*
X46641Y-29687D01*
X46728Y-29774D01*
X46728Y-30340D01*
X46122Y-30340D01*
X46122Y-30364D01*
X46728Y-30364D01*
X46752Y-30364D01*
X46752Y-30340D01*
X46752Y-29774D01*
X46839Y-29687D01*
X47026Y-29688D01*
X47165Y-29688D01*
X47225Y-29712D01*
X47225Y-29705D01*
X47263Y-29614D01*
X47333Y-29544D01*
X47425Y-29506D01*
X48196Y-29506D01*
X48196Y-29304D01*
X47424Y-29304D01*
X47333Y-29266D01*
X47263Y-29196D01*
X47225Y-29104D01*
X47225Y-28405D01*
X47263Y-28314D01*
X47333Y-28244D01*
X47425Y-28206D01*
X48196Y-28206D01*
X48196Y-27411D01*
X46917Y-27411D01*
X46793Y-27386D01*
X46687Y-27316D01*
X46685Y-27313D01*
X46315Y-26943D01*
X46300Y-26980D01*
X46230Y-27050D01*
X46138Y-27088D01*
X45308Y-27088D01*
X45361Y-27141D01*
X45414Y-27269D01*
X45414Y-27290D01*
X46139Y-27290D01*
X46230Y-27328D01*
X46300Y-27398D01*
X46338Y-27490D01*
X46338Y-28189D01*
X46300Y-28280D01*
X46230Y-28350D01*
X46138Y-28388D01*
X45404Y-28388D01*
X45328Y-28464D01*
X44677Y-28464D01*
X44677Y-27650D01*
X44677Y-27626D01*
X44677Y-27075D01*
X44764Y-26988D01*
X44996Y-26989D01*
X45087Y-26989D01*
X45078Y-26980D01*
X45040Y-26888D01*
X45040Y-26887D01*
X44288Y-26887D01*
X44288Y-26989D01*
X44334Y-26989D01*
X44566Y-26988D01*
X44653Y-27075D01*
X44653Y-27626D01*
X44653Y-27650D01*
X44653Y-28464D01*
X44653Y-28488D01*
X44653Y-29039D01*
X44566Y-29126D01*
X44334Y-29125D01*
X44288Y-29125D01*
X44288Y-29227D01*
X44764Y-29227D01*
X44764Y-29126D01*
X44677Y-29039D01*
X44677Y-28488D01*
X45328Y-28488D01*
X45415Y-28575D01*
X45414Y-28845D01*
X45361Y-28973D01*
X45263Y-29072D01*
X45239Y-29081D01*
X45135Y-29125D01*
X44996Y-29125D01*
X44764Y-29126D01*
X44764Y-29227D01*
X45115Y-29227D01*
X45206Y-29265D01*
X45239Y-29297D01*
X45276Y-29335D01*
X45314Y-29427D01*
X45314Y-30124D01*
X45373Y-30183D01*
X45411Y-30275D01*
X45411Y-30809D01*
X45532Y-30931D01*
X46155Y-30931D01*
M02*
