M48
;DRILL file {Pcbnew (22-Jun-2014 BZR 4027)-stable} date Sat 19 May 2018 03:07:39 PM EDT
;FORMAT={-:-/ absolute / inch / decimal}
FMAT,2
INCH,TZ
T1C0.020
T2C0.020
T3C0.022
T4C0.032
T5C0.034
T6C0.039
T7C0.039
T8C0.049
T9C0.051
T10C0.063
T11C0.098
%
G90
G05
M72
T2
X4.2488Y-3.5925
X4.2571Y-2.9394
X4.3016Y-3.1634
X4.3335Y-3.1177
X4.3583Y-3.7067
X4.3815Y-3.0201
X4.389Y-3.3496
X4.4882Y-3.9039
X4.5213Y-3.7165
X4.5276Y-3.7815
X4.5315Y-3.172
X4.5339Y-3.0587
X4.5346Y-3.3756
X4.5354Y-3.2236
X4.5409Y-2.8504
X4.5909Y-2.9039
X4.6535Y-3.2516
X4.6626Y-3.9055
X4.6642Y-2.8504
X4.6969Y-3.426
X4.724Y-3.5685
X4.7539Y-3.2236
X4.7567Y-3.3457
X4.7866Y-3.5657
X4.8764Y-2.8862
X4.8764Y-3.276
X4.9339Y-3.0402
X4.9374Y-2.8862
X5.Y-3.4374
X5.0476Y-3.4587
X5.048Y-3.2961
X5.0594Y-3.5252
X5.1961Y-3.3657
X5.213Y-3.861
X5.2382Y-3.0831
X5.2398Y-2.9268
X5.2811Y-3.5925
X5.3811Y-3.7559
X5.3811Y-4.128
X5.3902Y-3.9469
X5.4728Y-3.7752
X5.478Y-3.878
X5.5071Y-2.7827
X5.5256Y-3.4646
X5.526Y-3.3905
X5.5909Y-3.635
X5.5968Y-2.8524
X5.6047Y-3.7189
X5.6067Y-3.2047
X5.6067Y-3.3964
X5.6295Y-3.4841
X5.6909Y-2.8433
X5.7012Y-3.4705
X5.722Y-2.6516
X5.7264Y-3.8228
X5.7366Y-3.026
X5.7468Y-3.4102
X5.7823Y-2.7815
X5.7878Y-2.9098
X5.8165Y-2.9862
X5.8661Y-3.1587
X5.8874Y-2.6768
X5.8882Y-3.289
T4
X4.294Y-2.585
X4.294Y-2.785
X4.299Y-2.685
X4.3579Y-2.324
X4.3579Y-2.424
X4.394Y-2.685
X4.399Y-2.585
X4.399Y-2.785
X4.4579Y-2.324
X4.4579Y-2.424
X4.5579Y-2.324
X4.5579Y-2.424
X4.6579Y-2.324
X4.6579Y-2.424
X4.8343Y-2.324
X4.8343Y-2.424
X4.9343Y-2.324
X4.9343Y-2.424
X5.0343Y-2.324
X5.0343Y-2.424
X5.1343Y-2.324
X5.1343Y-2.424
X5.2882Y-2.6142
X5.3882Y-2.6142
X5.4882Y-2.6142
X5.5882Y-2.6142
T5
X4.3579Y-3.9894
X4.4579Y-3.9894
X4.5579Y-3.9894
X4.6579Y-3.9894
X4.8343Y-3.9894
X4.8343Y-4.0894
X4.9343Y-3.9894
X4.9343Y-4.0894
X5.0343Y-3.9894
X5.0343Y-4.0894
X5.1343Y-3.9894
X5.1343Y-4.0894
X5.4252Y-2.8791
X5.4252Y-2.9791
T6
X5.2776Y-2.2879
X5.2776Y-2.4649
X5.2776Y-3.9469
X5.2776Y-4.1239
X5.5334Y-2.2879
X5.5334Y-2.4649
X5.5334Y-3.9469
X5.5334Y-4.1239
T7
X5.9602Y-3.0693
X5.9602Y-3.1677
X5.9602Y-3.2465
X5.9602Y-3.3449
T9
X6.0441Y-3.1165
X6.0441Y-3.2977
T10
X4.248Y-2.4185
X4.248Y-3.9933
X5.6063Y-2.4185
X5.6063Y-3.9933
T11
X6.0835Y-2.8134
X6.0835Y-3.6008
T1
X5.7033Y-2.3833G85X5.6852Y-2.4014
G05
X5.8982Y-2.5782G85X5.8801Y-2.5963
G05
T3
X5.6512Y-2.4995G85X5.6428Y-2.4912
G05
X5.7903Y-2.6387G85X5.782Y-2.6303
G05
T8
X6.0057Y-2.9768G85X6.0825Y-2.9768
G05
X6.0057Y-3.4374G85X6.0825Y-3.4374
G05
T0
M30
