G04 #@! TF.FileFunction,Legend,Bot*
%FSLAX46Y46*%
G04 Gerber Fmt 4.6, Leading zero omitted, Abs format (unit mm)*
G04 Created by KiCad (PCBNEW 4.0.2+dfsg1-stable) date Fri 18 May 2018 22:31:55 NZST*
%MOMM*%
G01*
G04 APERTURE LIST*
%ADD10C,0.150000*%
%ADD11C,0.127000*%
%ADD12C,0.177800*%
%ADD13C,0.152400*%
%ADD14C,0.228600*%
%ADD15C,0.241300*%
%ADD16C,0.420000*%
%ADD17C,0.254000*%
%ADD18C,0.381000*%
G04 APERTURE END LIST*
D10*
D11*
X145153810Y-76074262D02*
X144790953Y-76074262D01*
X144972381Y-76709262D02*
X144972381Y-76074262D01*
X144639762Y-76074262D02*
X144216428Y-76709262D01*
X144216428Y-76074262D02*
X144639762Y-76709262D01*
X146045833Y-77090262D02*
X145924881Y-77090262D01*
X145864405Y-77120500D01*
X145803928Y-77180976D01*
X145773690Y-77301929D01*
X145773690Y-77513595D01*
X145803928Y-77634548D01*
X145864405Y-77695024D01*
X145924881Y-77725262D01*
X146045833Y-77725262D01*
X146106309Y-77695024D01*
X146166786Y-77634548D01*
X146197024Y-77513595D01*
X146197024Y-77301929D01*
X146166786Y-77180976D01*
X146106309Y-77120500D01*
X146045833Y-77090262D01*
X145501548Y-77301929D02*
X145501548Y-77725262D01*
X145501548Y-77362405D02*
X145471309Y-77332167D01*
X145410833Y-77301929D01*
X145320119Y-77301929D01*
X145259643Y-77332167D01*
X145229405Y-77392643D01*
X145229405Y-77725262D01*
X144473452Y-77060024D02*
X145017738Y-77876452D01*
X144140833Y-77090262D02*
X144019881Y-77090262D01*
X143959405Y-77120500D01*
X143898928Y-77180976D01*
X143868690Y-77301929D01*
X143868690Y-77513595D01*
X143898928Y-77634548D01*
X143959405Y-77695024D01*
X144019881Y-77725262D01*
X144140833Y-77725262D01*
X144201309Y-77695024D01*
X144261786Y-77634548D01*
X144292024Y-77513595D01*
X144292024Y-77301929D01*
X144261786Y-77180976D01*
X144201309Y-77120500D01*
X144140833Y-77090262D01*
X143687262Y-77301929D02*
X143445357Y-77301929D01*
X143596548Y-77725262D02*
X143596548Y-77180976D01*
X143566309Y-77120500D01*
X143505833Y-77090262D01*
X143445357Y-77090262D01*
X143324405Y-77301929D02*
X143082500Y-77301929D01*
X143233691Y-77725262D02*
X143233691Y-77180976D01*
X143203452Y-77120500D01*
X143142976Y-77090262D01*
X143082500Y-77090262D01*
X140215833Y-76709262D02*
X140427500Y-76406881D01*
X140578691Y-76709262D02*
X140578691Y-76074262D01*
X140336786Y-76074262D01*
X140276310Y-76104500D01*
X140246071Y-76134738D01*
X140215833Y-76195214D01*
X140215833Y-76285929D01*
X140246071Y-76346405D01*
X140276310Y-76376643D01*
X140336786Y-76406881D01*
X140578691Y-76406881D01*
X140004167Y-76074262D02*
X139580833Y-76709262D01*
X139580833Y-76074262D02*
X140004167Y-76709262D01*
X141485833Y-77090262D02*
X141364881Y-77090262D01*
X141304405Y-77120500D01*
X141243928Y-77180976D01*
X141213690Y-77301929D01*
X141213690Y-77513595D01*
X141243928Y-77634548D01*
X141304405Y-77695024D01*
X141364881Y-77725262D01*
X141485833Y-77725262D01*
X141546309Y-77695024D01*
X141606786Y-77634548D01*
X141637024Y-77513595D01*
X141637024Y-77301929D01*
X141606786Y-77180976D01*
X141546309Y-77120500D01*
X141485833Y-77090262D01*
X140941548Y-77301929D02*
X140941548Y-77725262D01*
X140941548Y-77362405D02*
X140911309Y-77332167D01*
X140850833Y-77301929D01*
X140760119Y-77301929D01*
X140699643Y-77332167D01*
X140669405Y-77392643D01*
X140669405Y-77725262D01*
X139913452Y-77060024D02*
X140457738Y-77876452D01*
X139580833Y-77090262D02*
X139459881Y-77090262D01*
X139399405Y-77120500D01*
X139338928Y-77180976D01*
X139308690Y-77301929D01*
X139308690Y-77513595D01*
X139338928Y-77634548D01*
X139399405Y-77695024D01*
X139459881Y-77725262D01*
X139580833Y-77725262D01*
X139641309Y-77695024D01*
X139701786Y-77634548D01*
X139732024Y-77513595D01*
X139732024Y-77301929D01*
X139701786Y-77180976D01*
X139641309Y-77120500D01*
X139580833Y-77090262D01*
X139127262Y-77301929D02*
X138885357Y-77301929D01*
X139036548Y-77725262D02*
X139036548Y-77180976D01*
X139006309Y-77120500D01*
X138945833Y-77090262D01*
X138885357Y-77090262D01*
X138764405Y-77301929D02*
X138522500Y-77301929D01*
X138673691Y-77725262D02*
X138673691Y-77180976D01*
X138643452Y-77120500D01*
X138582976Y-77090262D01*
X138522500Y-77090262D01*
X142393786Y-95427262D02*
X142424024Y-95397024D01*
X142454262Y-95306309D01*
X142454262Y-95245833D01*
X142424024Y-95155119D01*
X142363548Y-95094643D01*
X142303071Y-95064404D01*
X142182119Y-95034166D01*
X142091405Y-95034166D01*
X141970452Y-95064404D01*
X141909976Y-95094643D01*
X141849500Y-95155119D01*
X141819262Y-95245833D01*
X141819262Y-95306309D01*
X141849500Y-95397024D01*
X141879738Y-95427262D01*
X142121643Y-95699404D02*
X142121643Y-95911071D01*
X142454262Y-96001785D02*
X142454262Y-95699404D01*
X141819262Y-95699404D01*
X141819262Y-96001785D01*
X142454262Y-96576309D02*
X142454262Y-96273928D01*
X141819262Y-96273928D01*
X142835262Y-94399167D02*
X142835262Y-94520119D01*
X142865500Y-94580595D01*
X142925976Y-94641072D01*
X143046929Y-94671310D01*
X143258595Y-94671310D01*
X143379548Y-94641072D01*
X143440024Y-94580595D01*
X143470262Y-94520119D01*
X143470262Y-94399167D01*
X143440024Y-94338691D01*
X143379548Y-94278214D01*
X143258595Y-94247976D01*
X143046929Y-94247976D01*
X142925976Y-94278214D01*
X142865500Y-94338691D01*
X142835262Y-94399167D01*
X143046929Y-94943452D02*
X143470262Y-94943452D01*
X143107405Y-94943452D02*
X143077167Y-94973691D01*
X143046929Y-95034167D01*
X143046929Y-95124881D01*
X143077167Y-95185357D01*
X143137643Y-95215595D01*
X143470262Y-95215595D01*
X142805024Y-95971548D02*
X143621452Y-95427262D01*
X142835262Y-96304167D02*
X142835262Y-96425119D01*
X142865500Y-96485595D01*
X142925976Y-96546072D01*
X143046929Y-96576310D01*
X143258595Y-96576310D01*
X143379548Y-96546072D01*
X143440024Y-96485595D01*
X143470262Y-96425119D01*
X143470262Y-96304167D01*
X143440024Y-96243691D01*
X143379548Y-96183214D01*
X143258595Y-96152976D01*
X143046929Y-96152976D01*
X142925976Y-96183214D01*
X142865500Y-96243691D01*
X142835262Y-96304167D01*
X143046929Y-96757738D02*
X143046929Y-96999643D01*
X143470262Y-96848452D02*
X142925976Y-96848452D01*
X142865500Y-96878691D01*
X142835262Y-96939167D01*
X142835262Y-96999643D01*
X143046929Y-97120595D02*
X143046929Y-97362500D01*
X143470262Y-97211309D02*
X142925976Y-97211309D01*
X142865500Y-97241548D01*
X142835262Y-97302024D01*
X142835262Y-97362500D01*
X141896548Y-87864262D02*
X141533691Y-87864262D01*
X141715119Y-88499262D02*
X141715119Y-87864262D01*
X141322024Y-88499262D02*
X141322024Y-88075929D01*
X141322024Y-87864262D02*
X141352262Y-87894500D01*
X141322024Y-87924738D01*
X141291785Y-87894500D01*
X141322024Y-87864262D01*
X141322024Y-87924738D01*
X140777738Y-88469024D02*
X140838214Y-88499262D01*
X140959166Y-88499262D01*
X141019643Y-88469024D01*
X141049881Y-88408548D01*
X141049881Y-88166643D01*
X141019643Y-88106167D01*
X140959166Y-88075929D01*
X140838214Y-88075929D01*
X140777738Y-88106167D01*
X140747500Y-88166643D01*
X140747500Y-88227119D01*
X141049881Y-88287595D01*
X139991547Y-87864262D02*
X139991547Y-88378310D01*
X139961308Y-88438786D01*
X139931070Y-88469024D01*
X139870594Y-88499262D01*
X139749642Y-88499262D01*
X139689166Y-88469024D01*
X139658927Y-88438786D01*
X139628689Y-88378310D01*
X139628689Y-87864262D01*
X139356547Y-88469024D02*
X139265832Y-88499262D01*
X139114642Y-88499262D01*
X139054166Y-88469024D01*
X139023928Y-88438786D01*
X138993689Y-88378310D01*
X138993689Y-88317833D01*
X139023928Y-88257357D01*
X139054166Y-88227119D01*
X139114642Y-88196881D01*
X139235594Y-88166643D01*
X139296070Y-88136405D01*
X139326309Y-88106167D01*
X139356547Y-88045690D01*
X139356547Y-87985214D01*
X139326309Y-87924738D01*
X139296070Y-87894500D01*
X139235594Y-87864262D01*
X139084404Y-87864262D01*
X138993689Y-87894500D01*
X138509880Y-88166643D02*
X138419166Y-88196881D01*
X138388927Y-88227119D01*
X138358689Y-88287595D01*
X138358689Y-88378310D01*
X138388927Y-88438786D01*
X138419166Y-88469024D01*
X138479642Y-88499262D01*
X138721547Y-88499262D01*
X138721547Y-87864262D01*
X138509880Y-87864262D01*
X138449404Y-87894500D01*
X138419166Y-87924738D01*
X138388927Y-87985214D01*
X138388927Y-88045690D01*
X138419166Y-88106167D01*
X138449404Y-88136405D01*
X138509880Y-88166643D01*
X138721547Y-88166643D01*
X138086547Y-88257357D02*
X137602737Y-88257357D01*
X136997976Y-87864262D02*
X137300357Y-87864262D01*
X137330595Y-88166643D01*
X137300357Y-88136405D01*
X137239880Y-88106167D01*
X137088690Y-88106167D01*
X137028214Y-88136405D01*
X136997976Y-88166643D01*
X136967737Y-88227119D01*
X136967737Y-88378310D01*
X136997976Y-88438786D01*
X137028214Y-88469024D01*
X137088690Y-88499262D01*
X137239880Y-88499262D01*
X137300357Y-88469024D01*
X137330595Y-88438786D01*
X136756071Y-88075929D02*
X136604880Y-88499262D01*
X136453690Y-88075929D01*
X141715119Y-89091929D02*
X141473214Y-89091929D01*
X141624405Y-88880262D02*
X141624405Y-89424548D01*
X141594166Y-89485024D01*
X141533690Y-89515262D01*
X141473214Y-89515262D01*
X141170833Y-89515262D02*
X141231309Y-89485024D01*
X141261548Y-89454786D01*
X141291786Y-89394310D01*
X141291786Y-89212881D01*
X141261548Y-89152405D01*
X141231309Y-89122167D01*
X141170833Y-89091929D01*
X141080119Y-89091929D01*
X141019643Y-89122167D01*
X140989405Y-89152405D01*
X140959167Y-89212881D01*
X140959167Y-89394310D01*
X140989405Y-89454786D01*
X141019643Y-89485024D01*
X141080119Y-89515262D01*
X141170833Y-89515262D01*
X139840356Y-89454786D02*
X139870594Y-89485024D01*
X139961309Y-89515262D01*
X140021785Y-89515262D01*
X140112499Y-89485024D01*
X140172975Y-89424548D01*
X140203214Y-89364071D01*
X140233452Y-89243119D01*
X140233452Y-89152405D01*
X140203214Y-89031452D01*
X140172975Y-88970976D01*
X140112499Y-88910500D01*
X140021785Y-88880262D01*
X139961309Y-88880262D01*
X139870594Y-88910500D01*
X139840356Y-88940738D01*
X139568214Y-89515262D02*
X139568214Y-88880262D01*
X139326309Y-88880262D01*
X139265833Y-88910500D01*
X139235594Y-88940738D01*
X139205356Y-89001214D01*
X139205356Y-89091929D01*
X139235594Y-89152405D01*
X139265833Y-89182643D01*
X139326309Y-89212881D01*
X139568214Y-89212881D01*
X138933214Y-88880262D02*
X138933214Y-89394310D01*
X138902975Y-89454786D01*
X138872737Y-89485024D01*
X138812261Y-89515262D01*
X138691309Y-89515262D01*
X138630833Y-89485024D01*
X138600594Y-89454786D01*
X138570356Y-89394310D01*
X138570356Y-88880262D01*
X138267976Y-89273357D02*
X137784166Y-89273357D01*
X137179405Y-88880262D02*
X137481786Y-88880262D01*
X137512024Y-89182643D01*
X137481786Y-89152405D01*
X137421309Y-89122167D01*
X137270119Y-89122167D01*
X137209643Y-89152405D01*
X137179405Y-89182643D01*
X137149166Y-89243119D01*
X137149166Y-89394310D01*
X137179405Y-89454786D01*
X137209643Y-89485024D01*
X137270119Y-89515262D01*
X137421309Y-89515262D01*
X137481786Y-89485024D01*
X137512024Y-89454786D01*
X136937500Y-89091929D02*
X136786309Y-89515262D01*
X136635119Y-89091929D01*
D12*
X129534761Y-73949619D02*
X129534761Y-72933619D01*
X129534761Y-73320667D02*
X129437999Y-73272286D01*
X129244476Y-73272286D01*
X129147714Y-73320667D01*
X129099333Y-73369048D01*
X129050952Y-73465810D01*
X129050952Y-73756095D01*
X129099333Y-73852857D01*
X129147714Y-73901238D01*
X129244476Y-73949619D01*
X129437999Y-73949619D01*
X129534761Y-73901238D01*
X128712285Y-73272286D02*
X128470380Y-73949619D01*
X128228476Y-73272286D02*
X128470380Y-73949619D01*
X128567142Y-74191524D01*
X128615523Y-74239905D01*
X128712285Y-74288286D01*
D13*
X132126330Y-70990893D02*
X132126330Y-70038393D01*
X131745330Y-70990893D02*
X131745330Y-70491964D01*
X131787664Y-70401250D01*
X131872330Y-70355893D01*
X131999330Y-70355893D01*
X132083997Y-70401250D01*
X132126330Y-70446607D01*
X131448997Y-70355893D02*
X131110331Y-70355893D01*
X131321997Y-70038393D02*
X131321997Y-70854821D01*
X131279664Y-70945536D01*
X131194997Y-70990893D01*
X131110331Y-70990893D01*
X130940997Y-70355893D02*
X130602331Y-70355893D01*
X130813997Y-70038393D02*
X130813997Y-70854821D01*
X130771664Y-70945536D01*
X130686997Y-70990893D01*
X130602331Y-70990893D01*
X130305997Y-70355893D02*
X130305997Y-71308393D01*
X130305997Y-70401250D02*
X130221331Y-70355893D01*
X130051997Y-70355893D01*
X129967331Y-70401250D01*
X129924997Y-70446607D01*
X129882664Y-70537321D01*
X129882664Y-70809464D01*
X129924997Y-70900179D01*
X129967331Y-70945536D01*
X130051997Y-70990893D01*
X130221331Y-70990893D01*
X130305997Y-70945536D01*
X129501664Y-70900179D02*
X129459331Y-70945536D01*
X129501664Y-70990893D01*
X129543998Y-70945536D01*
X129501664Y-70900179D01*
X129501664Y-70990893D01*
X129501664Y-70401250D02*
X129459331Y-70446607D01*
X129501664Y-70491964D01*
X129543998Y-70446607D01*
X129501664Y-70401250D01*
X129501664Y-70491964D01*
X128443331Y-69993036D02*
X129205331Y-71217679D01*
X127511998Y-69993036D02*
X128273998Y-71217679D01*
X127300332Y-70355893D02*
X127130999Y-70990893D01*
X126961665Y-70537321D01*
X126792332Y-70990893D01*
X126622999Y-70355893D01*
X126368999Y-70355893D02*
X126199666Y-70990893D01*
X126030332Y-70537321D01*
X125860999Y-70990893D01*
X125691666Y-70355893D01*
X125437666Y-70355893D02*
X125268333Y-70990893D01*
X125098999Y-70537321D01*
X124929666Y-70990893D01*
X124760333Y-70355893D01*
X124421666Y-70900179D02*
X124379333Y-70945536D01*
X124421666Y-70990893D01*
X124464000Y-70945536D01*
X124421666Y-70900179D01*
X124421666Y-70990893D01*
X123490333Y-70900179D02*
X123532667Y-70945536D01*
X123659667Y-70990893D01*
X123744333Y-70990893D01*
X123871333Y-70945536D01*
X123956000Y-70854821D01*
X123998333Y-70764107D01*
X124040667Y-70582679D01*
X124040667Y-70446607D01*
X123998333Y-70265179D01*
X123956000Y-70174464D01*
X123871333Y-70083750D01*
X123744333Y-70038393D01*
X123659667Y-70038393D01*
X123532667Y-70083750D01*
X123490333Y-70129107D01*
X122982333Y-70990893D02*
X123067000Y-70945536D01*
X123109333Y-70900179D01*
X123151667Y-70809464D01*
X123151667Y-70537321D01*
X123109333Y-70446607D01*
X123067000Y-70401250D01*
X122982333Y-70355893D01*
X122855333Y-70355893D01*
X122770667Y-70401250D01*
X122728333Y-70446607D01*
X122686000Y-70537321D01*
X122686000Y-70809464D01*
X122728333Y-70900179D01*
X122770667Y-70945536D01*
X122855333Y-70990893D01*
X122982333Y-70990893D01*
X122178000Y-70990893D02*
X122262667Y-70945536D01*
X122305000Y-70900179D01*
X122347334Y-70809464D01*
X122347334Y-70537321D01*
X122305000Y-70446607D01*
X122262667Y-70401250D01*
X122178000Y-70355893D01*
X122051000Y-70355893D01*
X121966334Y-70401250D01*
X121924000Y-70446607D01*
X121881667Y-70537321D01*
X121881667Y-70809464D01*
X121924000Y-70900179D01*
X121966334Y-70945536D01*
X122051000Y-70990893D01*
X122178000Y-70990893D01*
X121373667Y-70990893D02*
X121458334Y-70945536D01*
X121500667Y-70854821D01*
X121500667Y-70038393D01*
X121035000Y-70491964D02*
X120738667Y-70491964D01*
X120611667Y-70990893D02*
X121035000Y-70990893D01*
X121035000Y-70038393D01*
X120611667Y-70038393D01*
X119934334Y-70491964D02*
X120230667Y-70491964D01*
X120230667Y-70990893D02*
X120230667Y-70038393D01*
X119807334Y-70038393D01*
X119468667Y-70990893D02*
X119468667Y-70038393D01*
X119045334Y-70900179D02*
X119003001Y-70945536D01*
X119045334Y-70990893D01*
X119087668Y-70945536D01*
X119045334Y-70900179D01*
X119045334Y-70990893D01*
X118241001Y-70945536D02*
X118325668Y-70990893D01*
X118495001Y-70990893D01*
X118579668Y-70945536D01*
X118622001Y-70900179D01*
X118664335Y-70809464D01*
X118664335Y-70537321D01*
X118622001Y-70446607D01*
X118579668Y-70401250D01*
X118495001Y-70355893D01*
X118325668Y-70355893D01*
X118241001Y-70401250D01*
X117733001Y-70990893D02*
X117817668Y-70945536D01*
X117860001Y-70900179D01*
X117902335Y-70809464D01*
X117902335Y-70537321D01*
X117860001Y-70446607D01*
X117817668Y-70401250D01*
X117733001Y-70355893D01*
X117606001Y-70355893D01*
X117521335Y-70401250D01*
X117479001Y-70446607D01*
X117436668Y-70537321D01*
X117436668Y-70809464D01*
X117479001Y-70900179D01*
X117521335Y-70945536D01*
X117606001Y-70990893D01*
X117733001Y-70990893D01*
X117055668Y-70990893D02*
X117055668Y-70355893D01*
X117055668Y-70446607D02*
X117013335Y-70401250D01*
X116928668Y-70355893D01*
X116801668Y-70355893D01*
X116717002Y-70401250D01*
X116674668Y-70491964D01*
X116674668Y-70990893D01*
X116674668Y-70491964D02*
X116632335Y-70401250D01*
X116547668Y-70355893D01*
X116420668Y-70355893D01*
X116336002Y-70401250D01*
X116293668Y-70491964D01*
X116293668Y-70990893D01*
D12*
X148816905Y-83503347D02*
X148520572Y-84392347D01*
X148224239Y-83503347D01*
X147589239Y-84350013D02*
X147673905Y-84392347D01*
X147843239Y-84392347D01*
X147927905Y-84350013D01*
X147970239Y-84265347D01*
X147970239Y-83926680D01*
X147927905Y-83842013D01*
X147843239Y-83799680D01*
X147673905Y-83799680D01*
X147589239Y-83842013D01*
X147546905Y-83926680D01*
X147546905Y-84011347D01*
X147970239Y-84096013D01*
X147165905Y-84392347D02*
X147165905Y-83799680D01*
X147165905Y-83969013D02*
X147123572Y-83884347D01*
X147081239Y-83842013D01*
X146996572Y-83799680D01*
X146911905Y-83799680D01*
X146657906Y-84350013D02*
X146573239Y-84392347D01*
X146403906Y-84392347D01*
X146319239Y-84350013D01*
X146276906Y-84265347D01*
X146276906Y-84223013D01*
X146319239Y-84138347D01*
X146403906Y-84096013D01*
X146530906Y-84096013D01*
X146615572Y-84053680D01*
X146657906Y-83969013D01*
X146657906Y-83926680D01*
X146615572Y-83842013D01*
X146530906Y-83799680D01*
X146403906Y-83799680D01*
X146319239Y-83842013D01*
X145895905Y-84392347D02*
X145895905Y-83799680D01*
X145895905Y-83503347D02*
X145938239Y-83545680D01*
X145895905Y-83588013D01*
X145853572Y-83545680D01*
X145895905Y-83503347D01*
X145895905Y-83588013D01*
X145345572Y-84392347D02*
X145430239Y-84350013D01*
X145472572Y-84307680D01*
X145514906Y-84223013D01*
X145514906Y-83969013D01*
X145472572Y-83884347D01*
X145430239Y-83842013D01*
X145345572Y-83799680D01*
X145218572Y-83799680D01*
X145133906Y-83842013D01*
X145091572Y-83884347D01*
X145049239Y-83969013D01*
X145049239Y-84223013D01*
X145091572Y-84307680D01*
X145133906Y-84350013D01*
X145218572Y-84392347D01*
X145345572Y-84392347D01*
X144668239Y-83799680D02*
X144668239Y-84392347D01*
X144668239Y-83884347D02*
X144625906Y-83842013D01*
X144541239Y-83799680D01*
X144414239Y-83799680D01*
X144329573Y-83842013D01*
X144287239Y-83926680D01*
X144287239Y-84392347D01*
X143017240Y-83503347D02*
X142932573Y-83503347D01*
X142847907Y-83545680D01*
X142805573Y-83588013D01*
X142763240Y-83672680D01*
X142720907Y-83842013D01*
X142720907Y-84053680D01*
X142763240Y-84223013D01*
X142805573Y-84307680D01*
X142847907Y-84350013D01*
X142932573Y-84392347D01*
X143017240Y-84392347D01*
X143101907Y-84350013D01*
X143144240Y-84307680D01*
X143186573Y-84223013D01*
X143228907Y-84053680D01*
X143228907Y-83842013D01*
X143186573Y-83672680D01*
X143144240Y-83588013D01*
X143101907Y-83545680D01*
X143017240Y-83503347D01*
X142339906Y-84307680D02*
X142297573Y-84350013D01*
X142339906Y-84392347D01*
X142382240Y-84350013D01*
X142339906Y-84307680D01*
X142339906Y-84392347D01*
X141535573Y-83799680D02*
X141535573Y-84392347D01*
X141747240Y-83461013D02*
X141958907Y-84096013D01*
X141408573Y-84096013D01*
X141069906Y-84053680D02*
X140392573Y-84053680D01*
X139588239Y-84392347D02*
X139588239Y-83926680D01*
X139630573Y-83842013D01*
X139715239Y-83799680D01*
X139884573Y-83799680D01*
X139969239Y-83842013D01*
X139588239Y-84350013D02*
X139672906Y-84392347D01*
X139884573Y-84392347D01*
X139969239Y-84350013D01*
X140011573Y-84265347D01*
X140011573Y-84180680D01*
X139969239Y-84096013D01*
X139884573Y-84053680D01*
X139672906Y-84053680D01*
X139588239Y-84011347D01*
X139037906Y-84392347D02*
X139122573Y-84350013D01*
X139164906Y-84265347D01*
X139164906Y-83503347D01*
X138699239Y-83799680D02*
X138699239Y-84688680D01*
X138699239Y-83842013D02*
X138614573Y-83799680D01*
X138445239Y-83799680D01*
X138360573Y-83842013D01*
X138318239Y-83884347D01*
X138275906Y-83969013D01*
X138275906Y-84223013D01*
X138318239Y-84307680D01*
X138360573Y-84350013D01*
X138445239Y-84392347D01*
X138614573Y-84392347D01*
X138699239Y-84350013D01*
X137894906Y-84392347D02*
X137894906Y-83503347D01*
X137513906Y-84392347D02*
X137513906Y-83926680D01*
X137556240Y-83842013D01*
X137640906Y-83799680D01*
X137767906Y-83799680D01*
X137852573Y-83842013D01*
X137894906Y-83884347D01*
X136709573Y-84392347D02*
X136709573Y-83926680D01*
X136751907Y-83842013D01*
X136836573Y-83799680D01*
X137005907Y-83799680D01*
X137090573Y-83842013D01*
X136709573Y-84350013D02*
X136794240Y-84392347D01*
X137005907Y-84392347D01*
X137090573Y-84350013D01*
X137132907Y-84265347D01*
X137132907Y-84180680D01*
X137090573Y-84096013D01*
X137005907Y-84053680D01*
X136794240Y-84053680D01*
X136709573Y-84011347D01*
D11*
X126515571Y-93089000D02*
X126588142Y-93052714D01*
X126696999Y-93052714D01*
X126805856Y-93089000D01*
X126878428Y-93161571D01*
X126914713Y-93234143D01*
X126950999Y-93379286D01*
X126950999Y-93488143D01*
X126914713Y-93633286D01*
X126878428Y-93705857D01*
X126805856Y-93778429D01*
X126696999Y-93814714D01*
X126624428Y-93814714D01*
X126515571Y-93778429D01*
X126479285Y-93742143D01*
X126479285Y-93488143D01*
X126624428Y-93488143D01*
X126152713Y-93814714D02*
X126152713Y-93306714D01*
X126152713Y-93052714D02*
X126188999Y-93089000D01*
X126152713Y-93125286D01*
X126116428Y-93089000D01*
X126152713Y-93052714D01*
X126152713Y-93125286D01*
X125898714Y-93306714D02*
X125608428Y-93306714D01*
X125789856Y-93052714D02*
X125789856Y-93705857D01*
X125753571Y-93778429D01*
X125680999Y-93814714D01*
X125608428Y-93814714D01*
X125354427Y-93742143D02*
X125318142Y-93778429D01*
X125354427Y-93814714D01*
X125390713Y-93778429D01*
X125354427Y-93742143D01*
X125354427Y-93814714D01*
X125354427Y-93343000D02*
X125318142Y-93379286D01*
X125354427Y-93415571D01*
X125390713Y-93379286D01*
X125354427Y-93343000D01*
X125354427Y-93415571D01*
X124483571Y-93814714D02*
X124084428Y-93306714D01*
X124483571Y-93306714D02*
X124084428Y-93814714D01*
X123866714Y-93814714D02*
X123467571Y-93306714D01*
X123866714Y-93306714D02*
X123467571Y-93814714D01*
X123249857Y-93814714D02*
X122850714Y-93306714D01*
X123249857Y-93306714D02*
X122850714Y-93814714D01*
X122633000Y-93814714D02*
X122233857Y-93306714D01*
X122633000Y-93306714D02*
X122233857Y-93814714D01*
X122016143Y-93814714D02*
X121617000Y-93306714D01*
X122016143Y-93306714D02*
X121617000Y-93814714D01*
X121399286Y-93814714D02*
X121000143Y-93306714D01*
X121399286Y-93306714D02*
X121000143Y-93814714D01*
X120782429Y-93814714D02*
X120383286Y-93306714D01*
X120782429Y-93306714D02*
X120383286Y-93814714D01*
X120165572Y-93814714D02*
X119766429Y-93306714D01*
X120165572Y-93306714D02*
X119766429Y-93814714D01*
X119548715Y-93814714D02*
X119149572Y-93306714D01*
X119548715Y-93306714D02*
X119149572Y-93814714D01*
X118931858Y-93814714D02*
X118532715Y-93306714D01*
X118931858Y-93306714D02*
X118532715Y-93814714D01*
D12*
X148833142Y-85672143D02*
X148869428Y-85708429D01*
X148978285Y-85744714D01*
X149050856Y-85744714D01*
X149159713Y-85708429D01*
X149232285Y-85635857D01*
X149268570Y-85563286D01*
X149304856Y-85418143D01*
X149304856Y-85309286D01*
X149268570Y-85164143D01*
X149232285Y-85091571D01*
X149159713Y-85019000D01*
X149050856Y-84982714D01*
X148978285Y-84982714D01*
X148869428Y-85019000D01*
X148833142Y-85055286D01*
X148397713Y-85744714D02*
X148470285Y-85708429D01*
X148506570Y-85672143D01*
X148542856Y-85599571D01*
X148542856Y-85381857D01*
X148506570Y-85309286D01*
X148470285Y-85273000D01*
X148397713Y-85236714D01*
X148288856Y-85236714D01*
X148216285Y-85273000D01*
X148179999Y-85309286D01*
X148143713Y-85381857D01*
X148143713Y-85599571D01*
X148179999Y-85672143D01*
X148216285Y-85708429D01*
X148288856Y-85744714D01*
X148397713Y-85744714D01*
X147817141Y-85236714D02*
X147817141Y-85998714D01*
X147817141Y-85273000D02*
X147744570Y-85236714D01*
X147599427Y-85236714D01*
X147526856Y-85273000D01*
X147490570Y-85309286D01*
X147454284Y-85381857D01*
X147454284Y-85599571D01*
X147490570Y-85672143D01*
X147526856Y-85708429D01*
X147599427Y-85744714D01*
X147744570Y-85744714D01*
X147817141Y-85708429D01*
X147200284Y-85236714D02*
X147018855Y-85744714D01*
X146837427Y-85236714D02*
X147018855Y-85744714D01*
X147091427Y-85926143D01*
X147127712Y-85962429D01*
X147200284Y-85998714D01*
X146547141Y-85744714D02*
X146547141Y-85236714D01*
X146547141Y-85381857D02*
X146510856Y-85309286D01*
X146474570Y-85273000D01*
X146401999Y-85236714D01*
X146329427Y-85236714D01*
X146075427Y-85744714D02*
X146075427Y-85236714D01*
X146075427Y-84982714D02*
X146111713Y-85019000D01*
X146075427Y-85055286D01*
X146039142Y-85019000D01*
X146075427Y-84982714D01*
X146075427Y-85055286D01*
X145385999Y-85236714D02*
X145385999Y-85853571D01*
X145422285Y-85926143D01*
X145458570Y-85962429D01*
X145531142Y-85998714D01*
X145639999Y-85998714D01*
X145712570Y-85962429D01*
X145385999Y-85708429D02*
X145458570Y-85744714D01*
X145603713Y-85744714D01*
X145676285Y-85708429D01*
X145712570Y-85672143D01*
X145748856Y-85599571D01*
X145748856Y-85381857D01*
X145712570Y-85309286D01*
X145676285Y-85273000D01*
X145603713Y-85236714D01*
X145458570Y-85236714D01*
X145385999Y-85273000D01*
X145023141Y-85744714D02*
X145023141Y-84982714D01*
X144696570Y-85744714D02*
X144696570Y-85345571D01*
X144732856Y-85273000D01*
X144805427Y-85236714D01*
X144914284Y-85236714D01*
X144986856Y-85273000D01*
X145023141Y-85309286D01*
X144442570Y-85236714D02*
X144152284Y-85236714D01*
X144333712Y-84982714D02*
X144333712Y-85635857D01*
X144297427Y-85708429D01*
X144224855Y-85744714D01*
X144152284Y-85744714D01*
X143353998Y-85055286D02*
X143317712Y-85019000D01*
X143245141Y-84982714D01*
X143063712Y-84982714D01*
X142991141Y-85019000D01*
X142954855Y-85055286D01*
X142918570Y-85127857D01*
X142918570Y-85200429D01*
X142954855Y-85309286D01*
X143390284Y-85744714D01*
X142918570Y-85744714D01*
X142446856Y-84982714D02*
X142374284Y-84982714D01*
X142301713Y-85019000D01*
X142265427Y-85055286D01*
X142229141Y-85127857D01*
X142192856Y-85273000D01*
X142192856Y-85454429D01*
X142229141Y-85599571D01*
X142265427Y-85672143D01*
X142301713Y-85708429D01*
X142374284Y-85744714D01*
X142446856Y-85744714D01*
X142519427Y-85708429D01*
X142555713Y-85672143D01*
X142591998Y-85599571D01*
X142628284Y-85454429D01*
X142628284Y-85273000D01*
X142591998Y-85127857D01*
X142555713Y-85055286D01*
X142519427Y-85019000D01*
X142446856Y-84982714D01*
X141467142Y-85744714D02*
X141902570Y-85744714D01*
X141684856Y-85744714D02*
X141684856Y-84982714D01*
X141757427Y-85091571D01*
X141829999Y-85164143D01*
X141902570Y-85200429D01*
X141176856Y-85055286D02*
X141140570Y-85019000D01*
X141067999Y-84982714D01*
X140886570Y-84982714D01*
X140813999Y-85019000D01*
X140777713Y-85055286D01*
X140741428Y-85127857D01*
X140741428Y-85200429D01*
X140777713Y-85309286D01*
X141213142Y-85744714D01*
X140741428Y-85744714D01*
X140414856Y-85454429D02*
X139834285Y-85454429D01*
X139507713Y-85055286D02*
X139471427Y-85019000D01*
X139398856Y-84982714D01*
X139217427Y-84982714D01*
X139144856Y-85019000D01*
X139108570Y-85055286D01*
X139072285Y-85127857D01*
X139072285Y-85200429D01*
X139108570Y-85309286D01*
X139543999Y-85744714D01*
X139072285Y-85744714D01*
X138600571Y-84982714D02*
X138527999Y-84982714D01*
X138455428Y-85019000D01*
X138419142Y-85055286D01*
X138382856Y-85127857D01*
X138346571Y-85273000D01*
X138346571Y-85454429D01*
X138382856Y-85599571D01*
X138419142Y-85672143D01*
X138455428Y-85708429D01*
X138527999Y-85744714D01*
X138600571Y-85744714D01*
X138673142Y-85708429D01*
X138709428Y-85672143D01*
X138745713Y-85599571D01*
X138781999Y-85454429D01*
X138781999Y-85273000D01*
X138745713Y-85127857D01*
X138709428Y-85055286D01*
X138673142Y-85019000D01*
X138600571Y-84982714D01*
X137620857Y-85744714D02*
X138056285Y-85744714D01*
X137838571Y-85744714D02*
X137838571Y-84982714D01*
X137911142Y-85091571D01*
X137983714Y-85164143D01*
X138056285Y-85200429D01*
X136967714Y-84982714D02*
X137112857Y-84982714D01*
X137185428Y-85019000D01*
X137221714Y-85055286D01*
X137294285Y-85164143D01*
X137330571Y-85309286D01*
X137330571Y-85599571D01*
X137294285Y-85672143D01*
X137258000Y-85708429D01*
X137185428Y-85744714D01*
X137040285Y-85744714D01*
X136967714Y-85708429D01*
X136931428Y-85672143D01*
X136895143Y-85599571D01*
X136895143Y-85418143D01*
X136931428Y-85345571D01*
X136967714Y-85309286D01*
X137040285Y-85273000D01*
X137185428Y-85273000D01*
X137258000Y-85309286D01*
X137294285Y-85345571D01*
X137330571Y-85418143D01*
D14*
X129693832Y-75751083D02*
X129119309Y-75751083D01*
X129808737Y-76095798D02*
X129406571Y-74889298D01*
X129004404Y-76095798D01*
X128602237Y-75291464D02*
X128602237Y-76095798D01*
X128602237Y-75406369D02*
X128544785Y-75348917D01*
X128429880Y-75291464D01*
X128257523Y-75291464D01*
X128142618Y-75348917D01*
X128085166Y-75463821D01*
X128085166Y-76095798D01*
X126993571Y-76095798D02*
X126993571Y-74889298D01*
X126993571Y-76038345D02*
X127108475Y-76095798D01*
X127338285Y-76095798D01*
X127453190Y-76038345D01*
X127510642Y-75980893D01*
X127568094Y-75865988D01*
X127568094Y-75521274D01*
X127510642Y-75406369D01*
X127453190Y-75348917D01*
X127338285Y-75291464D01*
X127108475Y-75291464D01*
X126993571Y-75348917D01*
X126533952Y-75291464D02*
X126246690Y-76095798D01*
X125959428Y-75291464D02*
X126246690Y-76095798D01*
X126361595Y-76383060D01*
X126419047Y-76440512D01*
X126533952Y-76497964D01*
X123948595Y-74946750D02*
X124063500Y-74889298D01*
X124235857Y-74889298D01*
X124408214Y-74946750D01*
X124523119Y-75061655D01*
X124580571Y-75176560D01*
X124638023Y-75406369D01*
X124638023Y-75578726D01*
X124580571Y-75808536D01*
X124523119Y-75923440D01*
X124408214Y-76038345D01*
X124235857Y-76095798D01*
X124120952Y-76095798D01*
X123948595Y-76038345D01*
X123891143Y-75980893D01*
X123891143Y-75578726D01*
X124120952Y-75578726D01*
X123201714Y-76095798D02*
X123316619Y-76038345D01*
X123374071Y-75980893D01*
X123431523Y-75865988D01*
X123431523Y-75521274D01*
X123374071Y-75406369D01*
X123316619Y-75348917D01*
X123201714Y-75291464D01*
X123029357Y-75291464D01*
X122914452Y-75348917D01*
X122857000Y-75406369D01*
X122799547Y-75521274D01*
X122799547Y-75865988D01*
X122857000Y-75980893D01*
X122914452Y-76038345D01*
X123029357Y-76095798D01*
X123201714Y-76095798D01*
X122339928Y-76038345D02*
X122225024Y-76095798D01*
X121995214Y-76095798D01*
X121880309Y-76038345D01*
X121822857Y-75923440D01*
X121822857Y-75865988D01*
X121880309Y-75751083D01*
X121995214Y-75693631D01*
X122167571Y-75693631D01*
X122282476Y-75636179D01*
X122339928Y-75521274D01*
X122339928Y-75463821D01*
X122282476Y-75348917D01*
X122167571Y-75291464D01*
X121995214Y-75291464D01*
X121880309Y-75348917D01*
X121363238Y-76038345D02*
X121248334Y-76095798D01*
X121018524Y-76095798D01*
X120903619Y-76038345D01*
X120846167Y-75923440D01*
X120846167Y-75865988D01*
X120903619Y-75751083D01*
X121018524Y-75693631D01*
X121190881Y-75693631D01*
X121305786Y-75636179D01*
X121363238Y-75521274D01*
X121363238Y-75463821D01*
X121305786Y-75348917D01*
X121190881Y-75291464D01*
X121018524Y-75291464D01*
X120903619Y-75348917D01*
D15*
X148787517Y-82972910D02*
X148787517Y-81639410D01*
X148473041Y-81639410D01*
X148284355Y-81702910D01*
X148158564Y-81829910D01*
X148095669Y-81956910D01*
X148032774Y-82210910D01*
X148032774Y-82401410D01*
X148095669Y-82655410D01*
X148158564Y-82782410D01*
X148284355Y-82909410D01*
X148473041Y-82972910D01*
X148787517Y-82972910D01*
X146963555Y-82909410D02*
X147089345Y-82972910D01*
X147340926Y-82972910D01*
X147466717Y-82909410D01*
X147529612Y-82782410D01*
X147529612Y-82274410D01*
X147466717Y-82147410D01*
X147340926Y-82083910D01*
X147089345Y-82083910D01*
X146963555Y-82147410D01*
X146900660Y-82274410D01*
X146900660Y-82401410D01*
X147529612Y-82528410D01*
X146460393Y-82083910D02*
X146145917Y-82972910D01*
X145831441Y-82083910D01*
X144825117Y-82909410D02*
X144950907Y-82972910D01*
X145202488Y-82972910D01*
X145328279Y-82909410D01*
X145391174Y-82782410D01*
X145391174Y-82274410D01*
X145328279Y-82147410D01*
X145202488Y-82083910D01*
X144950907Y-82083910D01*
X144825117Y-82147410D01*
X144762222Y-82274410D01*
X144762222Y-82401410D01*
X145391174Y-82528410D01*
X144007479Y-82972910D02*
X144133270Y-82909410D01*
X144196165Y-82782410D01*
X144196165Y-81639410D01*
X143315631Y-82972910D02*
X143441422Y-82909410D01*
X143504317Y-82845910D01*
X143567212Y-82718910D01*
X143567212Y-82337910D01*
X143504317Y-82210910D01*
X143441422Y-82147410D01*
X143315631Y-82083910D01*
X143126945Y-82083910D01*
X143001155Y-82147410D01*
X142938260Y-82210910D01*
X142875364Y-82337910D01*
X142875364Y-82718910D01*
X142938260Y-82845910D01*
X143001155Y-82909410D01*
X143126945Y-82972910D01*
X143315631Y-82972910D01*
X142309307Y-82083910D02*
X142309307Y-83417410D01*
X142309307Y-82147410D02*
X142183516Y-82083910D01*
X141931935Y-82083910D01*
X141806145Y-82147410D01*
X141743250Y-82210910D01*
X141680354Y-82337910D01*
X141680354Y-82718910D01*
X141743250Y-82845910D01*
X141806145Y-82909410D01*
X141931935Y-82972910D01*
X142183516Y-82972910D01*
X142309307Y-82909410D01*
X141114297Y-82972910D02*
X141114297Y-82083910D01*
X141114297Y-82210910D02*
X141051402Y-82147410D01*
X140925611Y-82083910D01*
X140736925Y-82083910D01*
X140611135Y-82147410D01*
X140548240Y-82274410D01*
X140548240Y-82972910D01*
X140548240Y-82274410D02*
X140485344Y-82147410D01*
X140359554Y-82083910D01*
X140170868Y-82083910D01*
X140045078Y-82147410D01*
X139982183Y-82274410D01*
X139982183Y-82972910D01*
X138850068Y-82909410D02*
X138975858Y-82972910D01*
X139227439Y-82972910D01*
X139353230Y-82909410D01*
X139416125Y-82782410D01*
X139416125Y-82274410D01*
X139353230Y-82147410D01*
X139227439Y-82083910D01*
X138975858Y-82083910D01*
X138850068Y-82147410D01*
X138787173Y-82274410D01*
X138787173Y-82401410D01*
X139416125Y-82528410D01*
X138221116Y-82083910D02*
X138221116Y-82972910D01*
X138221116Y-82210910D02*
X138158221Y-82147410D01*
X138032430Y-82083910D01*
X137843744Y-82083910D01*
X137717954Y-82147410D01*
X137655059Y-82274410D01*
X137655059Y-82972910D01*
X137214792Y-82083910D02*
X136711630Y-82083910D01*
X137026106Y-81639410D02*
X137026106Y-82782410D01*
X136963211Y-82909410D01*
X136837420Y-82972910D01*
X136711630Y-82972910D01*
X134824772Y-82274410D02*
X134636086Y-82337910D01*
X134573191Y-82401410D01*
X134510296Y-82528410D01*
X134510296Y-82718910D01*
X134573191Y-82845910D01*
X134636086Y-82909410D01*
X134761877Y-82972910D01*
X135265039Y-82972910D01*
X135265039Y-81639410D01*
X134824772Y-81639410D01*
X134698982Y-81702910D01*
X134636086Y-81766410D01*
X134573191Y-81893410D01*
X134573191Y-82020410D01*
X134636086Y-82147410D01*
X134698982Y-82210910D01*
X134824772Y-82274410D01*
X135265039Y-82274410D01*
X133755553Y-82972910D02*
X133881344Y-82909410D01*
X133944239Y-82845910D01*
X134007134Y-82718910D01*
X134007134Y-82337910D01*
X133944239Y-82210910D01*
X133881344Y-82147410D01*
X133755553Y-82083910D01*
X133566867Y-82083910D01*
X133441077Y-82147410D01*
X133378182Y-82210910D01*
X133315286Y-82337910D01*
X133315286Y-82718910D01*
X133378182Y-82845910D01*
X133441077Y-82909410D01*
X133566867Y-82972910D01*
X133755553Y-82972910D01*
X132183172Y-82972910D02*
X132183172Y-82274410D01*
X132246067Y-82147410D01*
X132371857Y-82083910D01*
X132623438Y-82083910D01*
X132749229Y-82147410D01*
X132183172Y-82909410D02*
X132308962Y-82972910D01*
X132623438Y-82972910D01*
X132749229Y-82909410D01*
X132812124Y-82782410D01*
X132812124Y-82655410D01*
X132749229Y-82528410D01*
X132623438Y-82464910D01*
X132308962Y-82464910D01*
X132183172Y-82401410D01*
X131554219Y-82972910D02*
X131554219Y-82083910D01*
X131554219Y-82337910D02*
X131491324Y-82210910D01*
X131428428Y-82147410D01*
X131302638Y-82083910D01*
X131176847Y-82083910D01*
X130170524Y-82972910D02*
X130170524Y-81639410D01*
X130170524Y-82909410D02*
X130296314Y-82972910D01*
X130547895Y-82972910D01*
X130673686Y-82909410D01*
X130736581Y-82845910D01*
X130799476Y-82718910D01*
X130799476Y-82337910D01*
X130736581Y-82210910D01*
X130673686Y-82147410D01*
X130547895Y-82083910D01*
X130296314Y-82083910D01*
X130170524Y-82147410D01*
D16*
X146756967Y-80896823D02*
X146877919Y-81017775D01*
X147240776Y-81138728D01*
X147482681Y-81138728D01*
X147845538Y-81017775D01*
X148087443Y-80775870D01*
X148208395Y-80533966D01*
X148329347Y-80050156D01*
X148329347Y-79687299D01*
X148208395Y-79203490D01*
X148087443Y-78961585D01*
X147845538Y-78719680D01*
X147482681Y-78598728D01*
X147240776Y-78598728D01*
X146877919Y-78719680D01*
X146756967Y-78840632D01*
X145668395Y-81138728D02*
X145668395Y-79445394D01*
X145668395Y-79929204D02*
X145547443Y-79687299D01*
X145426490Y-79566347D01*
X145184586Y-79445394D01*
X144942681Y-79445394D01*
X143007443Y-79445394D02*
X143007443Y-81138728D01*
X144096014Y-79445394D02*
X144096014Y-80775870D01*
X143975062Y-81017775D01*
X143733157Y-81138728D01*
X143370300Y-81138728D01*
X143128395Y-81017775D01*
X143007443Y-80896823D01*
X141797919Y-81138728D02*
X141797919Y-79445394D01*
X141797919Y-78598728D02*
X141918871Y-78719680D01*
X141797919Y-78840632D01*
X141676967Y-78719680D01*
X141797919Y-78598728D01*
X141797919Y-78840632D01*
X140709347Y-81017775D02*
X140467443Y-81138728D01*
X139983633Y-81138728D01*
X139741728Y-81017775D01*
X139620776Y-80775870D01*
X139620776Y-80654918D01*
X139741728Y-80413013D01*
X139983633Y-80292061D01*
X140346490Y-80292061D01*
X140588395Y-80171109D01*
X140709347Y-79929204D01*
X140709347Y-79808251D01*
X140588395Y-79566347D01*
X140346490Y-79445394D01*
X139983633Y-79445394D01*
X139741728Y-79566347D01*
X137564586Y-81017775D02*
X137806491Y-81138728D01*
X138290300Y-81138728D01*
X138532205Y-81017775D01*
X138653157Y-80775870D01*
X138653157Y-79808251D01*
X138532205Y-79566347D01*
X138290300Y-79445394D01*
X137806491Y-79445394D01*
X137564586Y-79566347D01*
X137443634Y-79808251D01*
X137443634Y-80050156D01*
X138653157Y-80292061D01*
X136355062Y-81138728D02*
X136355062Y-79445394D01*
X136355062Y-79929204D02*
X136234110Y-79687299D01*
X136113157Y-79566347D01*
X135871253Y-79445394D01*
X135629348Y-79445394D01*
D11*
X107107200Y-87357000D02*
X108732800Y-87357000D01*
X108732800Y-89643000D02*
X107107200Y-89643000D01*
X108732800Y-90100200D02*
X107107200Y-90100200D01*
X107107200Y-90100200D02*
X107107200Y-86899800D01*
X107107200Y-86899800D02*
X108732800Y-86899800D01*
X108732800Y-86899800D02*
X108732800Y-90100200D01*
X124387200Y-84607000D02*
X126012800Y-84607000D01*
X126012800Y-86893000D02*
X124387200Y-86893000D01*
X126012800Y-87350200D02*
X124387200Y-87350200D01*
X124387200Y-87350200D02*
X124387200Y-84149800D01*
X124387200Y-84149800D02*
X126012800Y-84149800D01*
X126012800Y-84149800D02*
X126012800Y-87350200D01*
X121903000Y-89127200D02*
X121903000Y-90752800D01*
X119617000Y-90752800D02*
X119617000Y-89127200D01*
X119159800Y-90752800D02*
X119159800Y-89127200D01*
X119159800Y-89127200D02*
X122360200Y-89127200D01*
X122360200Y-89127200D02*
X122360200Y-90752800D01*
X122360200Y-90752800D02*
X119159800Y-90752800D01*
X131747200Y-85187000D02*
X133372800Y-85187000D01*
X133372800Y-87473000D02*
X131747200Y-87473000D01*
X133372800Y-87930200D02*
X131747200Y-87930200D01*
X131747200Y-87930200D02*
X131747200Y-84729800D01*
X131747200Y-84729800D02*
X133372800Y-84729800D01*
X133372800Y-84729800D02*
X133372800Y-87930200D01*
X116632800Y-84883000D02*
X115007200Y-84883000D01*
X115007200Y-82597000D02*
X116632800Y-82597000D01*
X115007200Y-82139800D02*
X116632800Y-82139800D01*
X116632800Y-82139800D02*
X116632800Y-85340200D01*
X116632800Y-85340200D02*
X115007200Y-85340200D01*
X115007200Y-85340200D02*
X115007200Y-82139800D01*
X130862800Y-87473000D02*
X129237200Y-87473000D01*
X129237200Y-85187000D02*
X130862800Y-85187000D01*
X129237200Y-84729800D02*
X130862800Y-84729800D01*
X130862800Y-84729800D02*
X130862800Y-87930200D01*
X130862800Y-87930200D02*
X129237200Y-87930200D01*
X129237200Y-87930200D02*
X129237200Y-84729800D01*
X115007200Y-77397000D02*
X116632800Y-77397000D01*
X116632800Y-79683000D02*
X115007200Y-79683000D01*
X116632800Y-80140200D02*
X115007200Y-80140200D01*
X115007200Y-80140200D02*
X115007200Y-76939800D01*
X115007200Y-76939800D02*
X116632800Y-76939800D01*
X116632800Y-76939800D02*
X116632800Y-80140200D01*
X131577200Y-75167000D02*
X133202800Y-75167000D01*
X133202800Y-77453000D02*
X131577200Y-77453000D01*
X133202800Y-77910200D02*
X131577200Y-77910200D01*
X131577200Y-77910200D02*
X131577200Y-74709800D01*
X131577200Y-74709800D02*
X133202800Y-74709800D01*
X133202800Y-74709800D02*
X133202800Y-77910200D01*
X123477000Y-74122800D02*
X123477000Y-72497200D01*
X125763000Y-72497200D02*
X125763000Y-74122800D01*
X126220200Y-72497200D02*
X126220200Y-74122800D01*
X126220200Y-74122800D02*
X123019800Y-74122800D01*
X123019800Y-74122800D02*
X123019800Y-72497200D01*
X123019800Y-72497200D02*
X126220200Y-72497200D01*
X148691600Y-75031600D02*
X147066000Y-75031600D01*
X147066000Y-72745600D02*
X148691600Y-72745600D01*
X147066000Y-72288400D02*
X148691600Y-72288400D01*
X148691600Y-72288400D02*
X148691600Y-75488800D01*
X148691600Y-75488800D02*
X147066000Y-75488800D01*
X147066000Y-75488800D02*
X147066000Y-72288400D01*
X145971260Y-90942160D02*
X144345660Y-90942160D01*
X144345660Y-88656160D02*
X145971260Y-88656160D01*
X144345660Y-88198960D02*
X145971260Y-88198960D01*
X145971260Y-88198960D02*
X145971260Y-91399360D01*
X145971260Y-91399360D02*
X144345660Y-91399360D01*
X144345660Y-91399360D02*
X144345660Y-88198960D01*
X136862800Y-61503000D02*
X135237200Y-61503000D01*
X135237200Y-59217000D02*
X136862800Y-59217000D01*
X135237200Y-58759800D02*
X136862800Y-58759800D01*
X136862800Y-58759800D02*
X136862800Y-61960200D01*
X136862800Y-61960200D02*
X135237200Y-61960200D01*
X135237200Y-61960200D02*
X135237200Y-58759800D01*
D17*
X148859240Y-68767960D02*
X148859240Y-71053960D01*
X148859240Y-71053960D02*
X147208240Y-71053960D01*
X145430240Y-68767960D02*
X143779240Y-68767960D01*
X143779240Y-68767960D02*
X143779240Y-71053960D01*
X143779240Y-71053960D02*
X145430240Y-71053960D01*
X147208240Y-68767960D02*
X148859240Y-68767960D01*
X143268700Y-68778120D02*
X143268700Y-71064120D01*
X143268700Y-71064120D02*
X141617700Y-71064120D01*
X139839700Y-68778120D02*
X138188700Y-68778120D01*
X138188700Y-68778120D02*
X138188700Y-71064120D01*
X138188700Y-71064120D02*
X139839700Y-71064120D01*
X141617700Y-68778120D02*
X143268700Y-68778120D01*
X109577000Y-88660000D02*
X111863000Y-88660000D01*
X111863000Y-88660000D02*
X111863000Y-90311000D01*
X109577000Y-92089000D02*
X109577000Y-93740000D01*
X109577000Y-93740000D02*
X111863000Y-93740000D01*
X111863000Y-93740000D02*
X111863000Y-92089000D01*
X109577000Y-90311000D02*
X109577000Y-88660000D01*
X116843000Y-94720000D02*
X114557000Y-94720000D01*
X114557000Y-94720000D02*
X114557000Y-93069000D01*
X116843000Y-91291000D02*
X116843000Y-89640000D01*
X116843000Y-89640000D02*
X114557000Y-89640000D01*
X114557000Y-89640000D02*
X114557000Y-91291000D01*
X116843000Y-93069000D02*
X116843000Y-94720000D01*
X120990000Y-96117000D02*
X120990000Y-98403000D01*
X120990000Y-98403000D02*
X119339000Y-98403000D01*
X117561000Y-96117000D02*
X115910000Y-96117000D01*
X115910000Y-96117000D02*
X115910000Y-98403000D01*
X115910000Y-98403000D02*
X117561000Y-98403000D01*
X119339000Y-96117000D02*
X120990000Y-96117000D01*
X109263000Y-83740000D02*
X106977000Y-83740000D01*
X106977000Y-83740000D02*
X106977000Y-82089000D01*
X109263000Y-80311000D02*
X109263000Y-78660000D01*
X109263000Y-78660000D02*
X106977000Y-78660000D01*
X106977000Y-78660000D02*
X106977000Y-80311000D01*
X109263000Y-82089000D02*
X109263000Y-83740000D01*
X106977000Y-72660000D02*
X109263000Y-72660000D01*
X109263000Y-72660000D02*
X109263000Y-74311000D01*
X106977000Y-76089000D02*
X106977000Y-77740000D01*
X106977000Y-77740000D02*
X109263000Y-77740000D01*
X109263000Y-77740000D02*
X109263000Y-76089000D01*
X106977000Y-74311000D02*
X106977000Y-72660000D01*
X113643000Y-77840000D02*
X111357000Y-77840000D01*
X111357000Y-77840000D02*
X111357000Y-76189000D01*
X113643000Y-74411000D02*
X113643000Y-72760000D01*
X113643000Y-72760000D02*
X111357000Y-72760000D01*
X111357000Y-72760000D02*
X111357000Y-74411000D01*
X113643000Y-76189000D02*
X113643000Y-77840000D01*
X139603000Y-65170000D02*
X137317000Y-65170000D01*
X137317000Y-65170000D02*
X137317000Y-63519000D01*
X139603000Y-61741000D02*
X139603000Y-60090000D01*
X139603000Y-60090000D02*
X137317000Y-60090000D01*
X137317000Y-60090000D02*
X137317000Y-61741000D01*
X139603000Y-63519000D02*
X139603000Y-65170000D01*
X117327000Y-72100000D02*
X119613000Y-72100000D01*
X119613000Y-72100000D02*
X119613000Y-73751000D01*
X117327000Y-75529000D02*
X117327000Y-77180000D01*
X117327000Y-77180000D02*
X119613000Y-77180000D01*
X119613000Y-77180000D02*
X119613000Y-75529000D01*
X117327000Y-73751000D02*
X117327000Y-72100000D01*
D11*
X126012800Y-81793000D02*
X124387200Y-81793000D01*
X124387200Y-79507000D02*
X126012800Y-79507000D01*
X124387200Y-79049800D02*
X126012800Y-79049800D01*
X126012800Y-79049800D02*
X126012800Y-82250200D01*
X126012800Y-82250200D02*
X124387200Y-82250200D01*
X124387200Y-82250200D02*
X124387200Y-79049800D01*
X108732800Y-95143000D02*
X107107200Y-95143000D01*
X107107200Y-92857000D02*
X108732800Y-92857000D01*
X107107200Y-92399800D02*
X108732800Y-92399800D01*
X108732800Y-92399800D02*
X108732800Y-95600200D01*
X108732800Y-95600200D02*
X107107200Y-95600200D01*
X107107200Y-95600200D02*
X107107200Y-92399800D01*
X143802100Y-91013280D02*
X142176500Y-91013280D01*
X142176500Y-88270080D02*
X143802100Y-88270080D01*
X143802100Y-88270080D02*
X143802100Y-91470480D01*
X143802100Y-91470480D02*
X142176500Y-91470480D01*
X142176500Y-91470480D02*
X142176500Y-88270080D01*
D18*
X123067000Y-78724500D02*
X120273000Y-78724500D01*
X120273000Y-78724500D02*
X120273000Y-87995500D01*
X120273000Y-87995500D02*
X123067000Y-87995500D01*
X123067000Y-87995500D02*
X123067000Y-78788000D01*
D11*
X148595080Y-88016080D02*
X147325080Y-88016080D01*
X148595080Y-89286080D02*
X147350480Y-89286080D01*
X148595080Y-89667080D02*
X148595080Y-87635080D01*
X148595080Y-87635080D02*
X147325080Y-87635080D01*
X147325080Y-87635080D02*
X147325080Y-89667080D01*
X147325080Y-89667080D02*
X148595080Y-89667080D01*
X150246080Y-88953340D02*
X164343080Y-88953340D01*
X164343080Y-73967340D02*
X150246080Y-73967340D01*
X150246080Y-88953340D02*
X150246080Y-73967340D01*
X164343080Y-88953340D02*
X164343080Y-73967340D01*
X108388214Y-85836786D02*
X108418452Y-85867024D01*
X108509167Y-85897262D01*
X108569643Y-85897262D01*
X108660357Y-85867024D01*
X108720833Y-85806548D01*
X108751072Y-85746071D01*
X108781310Y-85625119D01*
X108781310Y-85534405D01*
X108751072Y-85413452D01*
X108720833Y-85352976D01*
X108660357Y-85292500D01*
X108569643Y-85262262D01*
X108509167Y-85262262D01*
X108418452Y-85292500D01*
X108388214Y-85322738D01*
X107783452Y-85897262D02*
X108146310Y-85897262D01*
X107964881Y-85897262D02*
X107964881Y-85262262D01*
X108025357Y-85352976D01*
X108085833Y-85413452D01*
X108146310Y-85443690D01*
X107239167Y-85473929D02*
X107239167Y-85897262D01*
X107390357Y-85232024D02*
X107541548Y-85685595D01*
X107148452Y-85685595D01*
X127126786Y-85321786D02*
X127157024Y-85291548D01*
X127187262Y-85200833D01*
X127187262Y-85140357D01*
X127157024Y-85049643D01*
X127096548Y-84989167D01*
X127036071Y-84958928D01*
X126915119Y-84928690D01*
X126824405Y-84928690D01*
X126703452Y-84958928D01*
X126642976Y-84989167D01*
X126582500Y-85049643D01*
X126552262Y-85140357D01*
X126552262Y-85200833D01*
X126582500Y-85291548D01*
X126612738Y-85321786D01*
X127187262Y-85926548D02*
X127187262Y-85563690D01*
X127187262Y-85745119D02*
X126552262Y-85745119D01*
X126642976Y-85684643D01*
X126703452Y-85624167D01*
X126733690Y-85563690D01*
X126552262Y-86138214D02*
X126552262Y-86531310D01*
X126794167Y-86319643D01*
X126794167Y-86410357D01*
X126824405Y-86470833D01*
X126854643Y-86501071D01*
X126915119Y-86531310D01*
X127066310Y-86531310D01*
X127126786Y-86501071D01*
X127157024Y-86470833D01*
X127187262Y-86410357D01*
X127187262Y-86228929D01*
X127157024Y-86168452D01*
X127126786Y-86138214D01*
X118066786Y-89531786D02*
X118097024Y-89501548D01*
X118127262Y-89410833D01*
X118127262Y-89350357D01*
X118097024Y-89259643D01*
X118036548Y-89199167D01*
X117976071Y-89168928D01*
X117855119Y-89138690D01*
X117764405Y-89138690D01*
X117643452Y-89168928D01*
X117582976Y-89199167D01*
X117522500Y-89259643D01*
X117492262Y-89350357D01*
X117492262Y-89410833D01*
X117522500Y-89501548D01*
X117552738Y-89531786D01*
X118127262Y-90136548D02*
X118127262Y-89773690D01*
X118127262Y-89955119D02*
X117492262Y-89955119D01*
X117582976Y-89894643D01*
X117643452Y-89834167D01*
X117673690Y-89773690D01*
X117492262Y-90529643D02*
X117492262Y-90590119D01*
X117522500Y-90650595D01*
X117552738Y-90680833D01*
X117613214Y-90711071D01*
X117734167Y-90741310D01*
X117885357Y-90741310D01*
X118006310Y-90711071D01*
X118066786Y-90680833D01*
X118097024Y-90650595D01*
X118127262Y-90590119D01*
X118127262Y-90529643D01*
X118097024Y-90469167D01*
X118066786Y-90438929D01*
X118006310Y-90408690D01*
X117885357Y-90378452D01*
X117734167Y-90378452D01*
X117613214Y-90408690D01*
X117552738Y-90438929D01*
X117522500Y-90469167D01*
X117492262Y-90529643D01*
X134546786Y-86204167D02*
X134577024Y-86173929D01*
X134607262Y-86083214D01*
X134607262Y-86022738D01*
X134577024Y-85932024D01*
X134516548Y-85871548D01*
X134456071Y-85841309D01*
X134335119Y-85811071D01*
X134244405Y-85811071D01*
X134123452Y-85841309D01*
X134062976Y-85871548D01*
X134002500Y-85932024D01*
X133972262Y-86022738D01*
X133972262Y-86083214D01*
X134002500Y-86173929D01*
X134032738Y-86204167D01*
X134607262Y-86506548D02*
X134607262Y-86627500D01*
X134577024Y-86687976D01*
X134546786Y-86718214D01*
X134456071Y-86778690D01*
X134335119Y-86808929D01*
X134093214Y-86808929D01*
X134032738Y-86778690D01*
X134002500Y-86748452D01*
X133972262Y-86687976D01*
X133972262Y-86567024D01*
X134002500Y-86506548D01*
X134032738Y-86476309D01*
X134093214Y-86446071D01*
X134244405Y-86446071D01*
X134304881Y-86476309D01*
X134335119Y-86506548D01*
X134365357Y-86567024D01*
X134365357Y-86687976D01*
X134335119Y-86748452D01*
X134304881Y-86778690D01*
X134244405Y-86808929D01*
X117735886Y-83545267D02*
X117766124Y-83515029D01*
X117796362Y-83424314D01*
X117796362Y-83363838D01*
X117766124Y-83273124D01*
X117705648Y-83212648D01*
X117645171Y-83182409D01*
X117524219Y-83152171D01*
X117433505Y-83152171D01*
X117312552Y-83182409D01*
X117252076Y-83212648D01*
X117191600Y-83273124D01*
X117161362Y-83363838D01*
X117161362Y-83424314D01*
X117191600Y-83515029D01*
X117221838Y-83545267D01*
X117433505Y-83908124D02*
X117403267Y-83847648D01*
X117373029Y-83817409D01*
X117312552Y-83787171D01*
X117282314Y-83787171D01*
X117221838Y-83817409D01*
X117191600Y-83847648D01*
X117161362Y-83908124D01*
X117161362Y-84029076D01*
X117191600Y-84089552D01*
X117221838Y-84119790D01*
X117282314Y-84150029D01*
X117312552Y-84150029D01*
X117373029Y-84119790D01*
X117403267Y-84089552D01*
X117433505Y-84029076D01*
X117433505Y-83908124D01*
X117463743Y-83847648D01*
X117493981Y-83817409D01*
X117554457Y-83787171D01*
X117675410Y-83787171D01*
X117735886Y-83817409D01*
X117766124Y-83847648D01*
X117796362Y-83908124D01*
X117796362Y-84029076D01*
X117766124Y-84089552D01*
X117735886Y-84119790D01*
X117675410Y-84150029D01*
X117554457Y-84150029D01*
X117493981Y-84119790D01*
X117463743Y-84089552D01*
X117433505Y-84029076D01*
X128646786Y-86254167D02*
X128677024Y-86223929D01*
X128707262Y-86133214D01*
X128707262Y-86072738D01*
X128677024Y-85982024D01*
X128616548Y-85921548D01*
X128556071Y-85891309D01*
X128435119Y-85861071D01*
X128344405Y-85861071D01*
X128223452Y-85891309D01*
X128162976Y-85921548D01*
X128102500Y-85982024D01*
X128072262Y-86072738D01*
X128072262Y-86133214D01*
X128102500Y-86223929D01*
X128132738Y-86254167D01*
X128072262Y-86465833D02*
X128072262Y-86889167D01*
X128707262Y-86617024D01*
X115847093Y-75815306D02*
X115877331Y-75845544D01*
X115968046Y-75875782D01*
X116028522Y-75875782D01*
X116119236Y-75845544D01*
X116179712Y-75785068D01*
X116209951Y-75724591D01*
X116240189Y-75603639D01*
X116240189Y-75512925D01*
X116209951Y-75391972D01*
X116179712Y-75331496D01*
X116119236Y-75271020D01*
X116028522Y-75240782D01*
X115968046Y-75240782D01*
X115877331Y-75271020D01*
X115847093Y-75301258D01*
X115302808Y-75240782D02*
X115423760Y-75240782D01*
X115484236Y-75271020D01*
X115514474Y-75301258D01*
X115574951Y-75391972D01*
X115605189Y-75512925D01*
X115605189Y-75754830D01*
X115574951Y-75815306D01*
X115544712Y-75845544D01*
X115484236Y-75875782D01*
X115363284Y-75875782D01*
X115302808Y-75845544D01*
X115272570Y-75815306D01*
X115242331Y-75754830D01*
X115242331Y-75603639D01*
X115272570Y-75543163D01*
X115302808Y-75512925D01*
X115363284Y-75482687D01*
X115484236Y-75482687D01*
X115544712Y-75512925D01*
X115574951Y-75543163D01*
X115605189Y-75603639D01*
X132437413Y-73547206D02*
X132467651Y-73577444D01*
X132558366Y-73607682D01*
X132618842Y-73607682D01*
X132709556Y-73577444D01*
X132770032Y-73516968D01*
X132800271Y-73456491D01*
X132830509Y-73335539D01*
X132830509Y-73244825D01*
X132800271Y-73123872D01*
X132770032Y-73063396D01*
X132709556Y-73002920D01*
X132618842Y-72972682D01*
X132558366Y-72972682D01*
X132467651Y-73002920D01*
X132437413Y-73033158D01*
X131862890Y-72972682D02*
X132165271Y-72972682D01*
X132195509Y-73275063D01*
X132165271Y-73244825D01*
X132104794Y-73214587D01*
X131953604Y-73214587D01*
X131893128Y-73244825D01*
X131862890Y-73275063D01*
X131832651Y-73335539D01*
X131832651Y-73486730D01*
X131862890Y-73547206D01*
X131893128Y-73577444D01*
X131953604Y-73607682D01*
X132104794Y-73607682D01*
X132165271Y-73577444D01*
X132195509Y-73547206D01*
X124796953Y-72096606D02*
X124827191Y-72126844D01*
X124917906Y-72157082D01*
X124978382Y-72157082D01*
X125069096Y-72126844D01*
X125129572Y-72066368D01*
X125159811Y-72005891D01*
X125190049Y-71884939D01*
X125190049Y-71794225D01*
X125159811Y-71673272D01*
X125129572Y-71612796D01*
X125069096Y-71552320D01*
X124978382Y-71522082D01*
X124917906Y-71522082D01*
X124827191Y-71552320D01*
X124796953Y-71582558D01*
X124252668Y-71733749D02*
X124252668Y-72157082D01*
X124403858Y-71491844D02*
X124555049Y-71945415D01*
X124161953Y-71945415D01*
X149688006Y-73792927D02*
X149718244Y-73762689D01*
X149748482Y-73671974D01*
X149748482Y-73611498D01*
X149718244Y-73520784D01*
X149657768Y-73460308D01*
X149597291Y-73430069D01*
X149476339Y-73399831D01*
X149385625Y-73399831D01*
X149264672Y-73430069D01*
X149204196Y-73460308D01*
X149143720Y-73520784D01*
X149113482Y-73611498D01*
X149113482Y-73671974D01*
X149143720Y-73762689D01*
X149173958Y-73792927D01*
X149113482Y-74004593D02*
X149113482Y-74397689D01*
X149355387Y-74186022D01*
X149355387Y-74276736D01*
X149385625Y-74337212D01*
X149415863Y-74367450D01*
X149476339Y-74397689D01*
X149627530Y-74397689D01*
X149688006Y-74367450D01*
X149718244Y-74337212D01*
X149748482Y-74276736D01*
X149748482Y-74095308D01*
X149718244Y-74034831D01*
X149688006Y-74004593D01*
X145236353Y-93025686D02*
X145266591Y-93055924D01*
X145357306Y-93086162D01*
X145417782Y-93086162D01*
X145508496Y-93055924D01*
X145568972Y-92995448D01*
X145599211Y-92934971D01*
X145629449Y-92814019D01*
X145629449Y-92723305D01*
X145599211Y-92602352D01*
X145568972Y-92541876D01*
X145508496Y-92481400D01*
X145417782Y-92451162D01*
X145357306Y-92451162D01*
X145266591Y-92481400D01*
X145236353Y-92511638D01*
X144994449Y-92511638D02*
X144964211Y-92481400D01*
X144903734Y-92451162D01*
X144752544Y-92451162D01*
X144692068Y-92481400D01*
X144661830Y-92511638D01*
X144631591Y-92572114D01*
X144631591Y-92632590D01*
X144661830Y-92723305D01*
X145024687Y-93086162D01*
X144631591Y-93086162D01*
X136165833Y-57646786D02*
X136196071Y-57677024D01*
X136286786Y-57707262D01*
X136347262Y-57707262D01*
X136437976Y-57677024D01*
X136498452Y-57616548D01*
X136528691Y-57556071D01*
X136558929Y-57435119D01*
X136558929Y-57344405D01*
X136528691Y-57223452D01*
X136498452Y-57162976D01*
X136437976Y-57102500D01*
X136347262Y-57072262D01*
X136286786Y-57072262D01*
X136196071Y-57102500D01*
X136165833Y-57132738D01*
X135561071Y-57707262D02*
X135923929Y-57707262D01*
X135742500Y-57707262D02*
X135742500Y-57072262D01*
X135802976Y-57162976D01*
X135863452Y-57223452D01*
X135923929Y-57253690D01*
X149766262Y-69540846D02*
X149463881Y-69329179D01*
X149766262Y-69177988D02*
X149131262Y-69177988D01*
X149131262Y-69419893D01*
X149161500Y-69480369D01*
X149191738Y-69510608D01*
X149252214Y-69540846D01*
X149342929Y-69540846D01*
X149403405Y-69510608D01*
X149433643Y-69480369D01*
X149463881Y-69419893D01*
X149463881Y-69177988D01*
X149766262Y-70145608D02*
X149766262Y-69782750D01*
X149766262Y-69964179D02*
X149131262Y-69964179D01*
X149221976Y-69903703D01*
X149282452Y-69843227D01*
X149312690Y-69782750D01*
X149191738Y-70387512D02*
X149161500Y-70417750D01*
X149131262Y-70478227D01*
X149131262Y-70629417D01*
X149161500Y-70689893D01*
X149191738Y-70720131D01*
X149252214Y-70750370D01*
X149312690Y-70750370D01*
X149403405Y-70720131D01*
X149766262Y-70357274D01*
X149766262Y-70750370D01*
X140868214Y-68387262D02*
X141079881Y-68084881D01*
X141231072Y-68387262D02*
X141231072Y-67752262D01*
X140989167Y-67752262D01*
X140928691Y-67782500D01*
X140898452Y-67812738D01*
X140868214Y-67873214D01*
X140868214Y-67963929D01*
X140898452Y-68024405D01*
X140928691Y-68054643D01*
X140989167Y-68084881D01*
X141231072Y-68084881D01*
X140263452Y-68387262D02*
X140626310Y-68387262D01*
X140444881Y-68387262D02*
X140444881Y-67752262D01*
X140505357Y-67842976D01*
X140565833Y-67903452D01*
X140626310Y-67933690D01*
X139658690Y-68387262D02*
X140021548Y-68387262D01*
X139840119Y-68387262D02*
X139840119Y-67752262D01*
X139900595Y-67842976D01*
X139961071Y-67903452D01*
X140021548Y-67933690D01*
X111078214Y-88257262D02*
X111289881Y-87954881D01*
X111441072Y-88257262D02*
X111441072Y-87622262D01*
X111199167Y-87622262D01*
X111138691Y-87652500D01*
X111108452Y-87682738D01*
X111078214Y-87743214D01*
X111078214Y-87833929D01*
X111108452Y-87894405D01*
X111138691Y-87924643D01*
X111199167Y-87954881D01*
X111441072Y-87954881D01*
X110473452Y-88257262D02*
X110836310Y-88257262D01*
X110654881Y-88257262D02*
X110654881Y-87622262D01*
X110715357Y-87712976D01*
X110775833Y-87773452D01*
X110836310Y-87803690D01*
X110080357Y-87622262D02*
X110019881Y-87622262D01*
X109959405Y-87652500D01*
X109929167Y-87682738D01*
X109898929Y-87743214D01*
X109868690Y-87864167D01*
X109868690Y-88015357D01*
X109898929Y-88136310D01*
X109929167Y-88196786D01*
X109959405Y-88227024D01*
X110019881Y-88257262D01*
X110080357Y-88257262D01*
X110140833Y-88227024D01*
X110171071Y-88196786D01*
X110201310Y-88136310D01*
X110231548Y-88015357D01*
X110231548Y-87864167D01*
X110201310Y-87743214D01*
X110171071Y-87682738D01*
X110140833Y-87652500D01*
X110080357Y-87622262D01*
X115655973Y-89147482D02*
X115867640Y-88845101D01*
X116018831Y-89147482D02*
X116018831Y-88512482D01*
X115776926Y-88512482D01*
X115716450Y-88542720D01*
X115686211Y-88572958D01*
X115655973Y-88633434D01*
X115655973Y-88724149D01*
X115686211Y-88784625D01*
X115716450Y-88814863D01*
X115776926Y-88845101D01*
X116018831Y-88845101D01*
X115444307Y-88512482D02*
X115020973Y-88512482D01*
X115293116Y-89147482D01*
X118525833Y-95737262D02*
X118737500Y-95434881D01*
X118888691Y-95737262D02*
X118888691Y-95102262D01*
X118646786Y-95102262D01*
X118586310Y-95132500D01*
X118556071Y-95162738D01*
X118525833Y-95223214D01*
X118525833Y-95313929D01*
X118556071Y-95374405D01*
X118586310Y-95404643D01*
X118646786Y-95434881D01*
X118888691Y-95434881D01*
X117981548Y-95102262D02*
X118102500Y-95102262D01*
X118162976Y-95132500D01*
X118193214Y-95162738D01*
X118253691Y-95253452D01*
X118283929Y-95374405D01*
X118283929Y-95616310D01*
X118253691Y-95676786D01*
X118223452Y-95707024D01*
X118162976Y-95737262D01*
X118042024Y-95737262D01*
X117981548Y-95707024D01*
X117951310Y-95676786D01*
X117921071Y-95616310D01*
X117921071Y-95465119D01*
X117951310Y-95404643D01*
X117981548Y-95374405D01*
X118042024Y-95344167D01*
X118162976Y-95344167D01*
X118223452Y-95374405D01*
X118253691Y-95404643D01*
X118283929Y-95465119D01*
X108175833Y-84787262D02*
X108387500Y-84484881D01*
X108538691Y-84787262D02*
X108538691Y-84152262D01*
X108296786Y-84152262D01*
X108236310Y-84182500D01*
X108206071Y-84212738D01*
X108175833Y-84273214D01*
X108175833Y-84363929D01*
X108206071Y-84424405D01*
X108236310Y-84454643D01*
X108296786Y-84484881D01*
X108538691Y-84484881D01*
X107601310Y-84152262D02*
X107903691Y-84152262D01*
X107933929Y-84454643D01*
X107903691Y-84424405D01*
X107843214Y-84394167D01*
X107692024Y-84394167D01*
X107631548Y-84424405D01*
X107601310Y-84454643D01*
X107571071Y-84515119D01*
X107571071Y-84666310D01*
X107601310Y-84726786D01*
X107631548Y-84757024D01*
X107692024Y-84787262D01*
X107843214Y-84787262D01*
X107903691Y-84757024D01*
X107933929Y-84726786D01*
X107765833Y-72237262D02*
X107977500Y-71934881D01*
X108128691Y-72237262D02*
X108128691Y-71602262D01*
X107886786Y-71602262D01*
X107826310Y-71632500D01*
X107796071Y-71662738D01*
X107765833Y-71723214D01*
X107765833Y-71813929D01*
X107796071Y-71874405D01*
X107826310Y-71904643D01*
X107886786Y-71934881D01*
X108128691Y-71934881D01*
X107221548Y-71813929D02*
X107221548Y-72237262D01*
X107372738Y-71572024D02*
X107523929Y-72025595D01*
X107130833Y-72025595D01*
X113345833Y-72357262D02*
X113557500Y-72054881D01*
X113708691Y-72357262D02*
X113708691Y-71722262D01*
X113466786Y-71722262D01*
X113406310Y-71752500D01*
X113376071Y-71782738D01*
X113345833Y-71843214D01*
X113345833Y-71933929D01*
X113376071Y-71994405D01*
X113406310Y-72024643D01*
X113466786Y-72054881D01*
X113708691Y-72054881D01*
X113134167Y-71722262D02*
X112741071Y-71722262D01*
X112952738Y-71964167D01*
X112862024Y-71964167D01*
X112801548Y-71994405D01*
X112771310Y-72024643D01*
X112741071Y-72085119D01*
X112741071Y-72236310D01*
X112771310Y-72296786D01*
X112801548Y-72327024D01*
X112862024Y-72357262D01*
X113043452Y-72357262D01*
X113103929Y-72327024D01*
X113134167Y-72296786D01*
X138545833Y-59667262D02*
X138757500Y-59364881D01*
X138908691Y-59667262D02*
X138908691Y-59032262D01*
X138666786Y-59032262D01*
X138606310Y-59062500D01*
X138576071Y-59092738D01*
X138545833Y-59153214D01*
X138545833Y-59243929D01*
X138576071Y-59304405D01*
X138606310Y-59334643D01*
X138666786Y-59364881D01*
X138908691Y-59364881D01*
X138303929Y-59092738D02*
X138273691Y-59062500D01*
X138213214Y-59032262D01*
X138062024Y-59032262D01*
X138001548Y-59062500D01*
X137971310Y-59092738D01*
X137941071Y-59153214D01*
X137941071Y-59213690D01*
X137971310Y-59304405D01*
X138334167Y-59667262D01*
X137941071Y-59667262D01*
X118525033Y-78308002D02*
X118736700Y-78005621D01*
X118887891Y-78308002D02*
X118887891Y-77673002D01*
X118645986Y-77673002D01*
X118585510Y-77703240D01*
X118555271Y-77733478D01*
X118525033Y-77793954D01*
X118525033Y-77884669D01*
X118555271Y-77945145D01*
X118585510Y-77975383D01*
X118645986Y-78005621D01*
X118887891Y-78005621D01*
X117920271Y-78308002D02*
X118283129Y-78308002D01*
X118101700Y-78308002D02*
X118101700Y-77673002D01*
X118162176Y-77763716D01*
X118222652Y-77824192D01*
X118283129Y-77854430D01*
X127126786Y-80291786D02*
X127157024Y-80261548D01*
X127187262Y-80170833D01*
X127187262Y-80110357D01*
X127157024Y-80019643D01*
X127096548Y-79959167D01*
X127036071Y-79928928D01*
X126915119Y-79898690D01*
X126824405Y-79898690D01*
X126703452Y-79928928D01*
X126642976Y-79959167D01*
X126582500Y-80019643D01*
X126552262Y-80110357D01*
X126552262Y-80170833D01*
X126582500Y-80261548D01*
X126612738Y-80291786D01*
X127187262Y-80896548D02*
X127187262Y-80533690D01*
X127187262Y-80715119D02*
X126552262Y-80715119D01*
X126642976Y-80654643D01*
X126703452Y-80594167D01*
X126733690Y-80533690D01*
X126612738Y-81138452D02*
X126582500Y-81168690D01*
X126552262Y-81229167D01*
X126552262Y-81380357D01*
X126582500Y-81440833D01*
X126612738Y-81471071D01*
X126673214Y-81501310D01*
X126733690Y-81501310D01*
X126824405Y-81471071D01*
X127187262Y-81108214D01*
X127187262Y-81501310D01*
X108328214Y-97326786D02*
X108358452Y-97357024D01*
X108449167Y-97387262D01*
X108509643Y-97387262D01*
X108600357Y-97357024D01*
X108660833Y-97296548D01*
X108691072Y-97236071D01*
X108721310Y-97115119D01*
X108721310Y-97024405D01*
X108691072Y-96903452D01*
X108660833Y-96842976D01*
X108600357Y-96782500D01*
X108509643Y-96752262D01*
X108449167Y-96752262D01*
X108358452Y-96782500D01*
X108328214Y-96812738D01*
X107723452Y-97387262D02*
X108086310Y-97387262D01*
X107904881Y-97387262D02*
X107904881Y-96752262D01*
X107965357Y-96842976D01*
X108025833Y-96903452D01*
X108086310Y-96933690D01*
X107148929Y-96752262D02*
X107451310Y-96752262D01*
X107481548Y-97054643D01*
X107451310Y-97024405D01*
X107390833Y-96994167D01*
X107239643Y-96994167D01*
X107179167Y-97024405D01*
X107148929Y-97054643D01*
X107118690Y-97115119D01*
X107118690Y-97266310D01*
X107148929Y-97326786D01*
X107179167Y-97357024D01*
X107239643Y-97387262D01*
X107390833Y-97387262D01*
X107451310Y-97357024D01*
X107481548Y-97326786D01*
X143458214Y-93201786D02*
X143488452Y-93232024D01*
X143579167Y-93262262D01*
X143639643Y-93262262D01*
X143730357Y-93232024D01*
X143790833Y-93171548D01*
X143821072Y-93111071D01*
X143851310Y-92990119D01*
X143851310Y-92899405D01*
X143821072Y-92778452D01*
X143790833Y-92717976D01*
X143730357Y-92657500D01*
X143639643Y-92627262D01*
X143579167Y-92627262D01*
X143488452Y-92657500D01*
X143458214Y-92687738D01*
X142853452Y-93262262D02*
X143216310Y-93262262D01*
X143034881Y-93262262D02*
X143034881Y-92627262D01*
X143095357Y-92717976D01*
X143155833Y-92778452D01*
X143216310Y-92808690D01*
X142248690Y-93262262D02*
X142611548Y-93262262D01*
X142430119Y-93262262D02*
X142430119Y-92627262D01*
X142490595Y-92717976D01*
X142551071Y-92778452D01*
X142611548Y-92808690D01*
X118932122Y-82937392D02*
X119567122Y-83360726D01*
X118932122Y-83360726D02*
X119567122Y-82937392D01*
X119567122Y-83935250D02*
X119567122Y-83572392D01*
X119567122Y-83753821D02*
X118932122Y-83753821D01*
X119022836Y-83693345D01*
X119083312Y-83632869D01*
X119113550Y-83572392D01*
X148025274Y-91447862D02*
X148327655Y-91447862D01*
X148327655Y-90812862D01*
X147480987Y-91447862D02*
X147843845Y-91447862D01*
X147662416Y-91447862D02*
X147662416Y-90812862D01*
X147722892Y-90903576D01*
X147783368Y-90964052D01*
X147843845Y-90994290D01*
X147607024Y-94853333D02*
X147637262Y-94944048D01*
X147637262Y-95095238D01*
X147607024Y-95155714D01*
X147576786Y-95185952D01*
X147516310Y-95216191D01*
X147455833Y-95216191D01*
X147395357Y-95185952D01*
X147365119Y-95155714D01*
X147334881Y-95095238D01*
X147304643Y-94974286D01*
X147274405Y-94913810D01*
X147244167Y-94883571D01*
X147183690Y-94853333D01*
X147123214Y-94853333D01*
X147062738Y-94883571D01*
X147032500Y-94913810D01*
X147002262Y-94974286D01*
X147002262Y-95125476D01*
X147032500Y-95216191D01*
X147002262Y-95427857D02*
X147637262Y-95579048D01*
X147183690Y-95700000D01*
X147637262Y-95820953D01*
X147002262Y-95972143D01*
X147002262Y-96516428D02*
X147002262Y-96214047D01*
X147304643Y-96183809D01*
X147274405Y-96214047D01*
X147244167Y-96274524D01*
X147244167Y-96425714D01*
X147274405Y-96486190D01*
X147304643Y-96516428D01*
X147365119Y-96546667D01*
X147516310Y-96546667D01*
X147576786Y-96516428D01*
X147607024Y-96486190D01*
X147637262Y-96425714D01*
X147637262Y-96274524D01*
X147607024Y-96214047D01*
X147576786Y-96183809D01*
X137217024Y-90613333D02*
X137247262Y-90704048D01*
X137247262Y-90855238D01*
X137217024Y-90915714D01*
X137186786Y-90945952D01*
X137126310Y-90976191D01*
X137065833Y-90976191D01*
X137005357Y-90945952D01*
X136975119Y-90915714D01*
X136944881Y-90855238D01*
X136914643Y-90734286D01*
X136884405Y-90673810D01*
X136854167Y-90643571D01*
X136793690Y-90613333D01*
X136733214Y-90613333D01*
X136672738Y-90643571D01*
X136642500Y-90673810D01*
X136612262Y-90734286D01*
X136612262Y-90885476D01*
X136642500Y-90976191D01*
X136612262Y-91187857D02*
X137247262Y-91339048D01*
X136793690Y-91460000D01*
X137247262Y-91580953D01*
X136612262Y-91732143D01*
X136612262Y-91913571D02*
X136612262Y-92336905D01*
X137247262Y-92064762D01*
M02*
