G04 (created by PCBNEW-RS274X (2010-03-14)-final) date Tue 02 Apr 2013 08:10:29 PM EDT*
G01*
G70*
G90*
%MOIN*%
G04 Gerber Fmt 3.4, Leading zero omitted, Abs format*
%FSLAX34Y34*%
G04 APERTURE LIST*
%ADD10C,0.002000*%
%ADD11C,0.001000*%
%ADD12O,0.138700X0.079300*%
%ADD13R,0.091000X0.083000*%
%ADD14R,0.083000X0.091000*%
%ADD15R,0.072000X0.092000*%
%ADD16R,0.092000X0.072000*%
%ADD17R,0.079100X0.096800*%
%ADD18C,0.157000*%
%ADD19R,0.107000X0.137000*%
%ADD20R,0.072000X0.072000*%
%ADD21C,0.072000*%
%ADD22R,0.079000X0.071200*%
%ADD23C,0.080000*%
%ADD24C,0.085600*%
%ADD25C,0.084800*%
%ADD26C,0.074000*%
%ADD27O,0.157000X0.087000*%
%ADD28C,0.086000*%
G04 APERTURE END LIST*
G54D10*
G54D11*
X59035Y-35027D02*
X59035Y-37118D01*
X59035Y-29122D02*
X59035Y-27055D01*
X61579Y-29709D02*
X61579Y-29122D01*
X61579Y-35024D02*
X61579Y-29709D01*
X59035Y-35024D02*
X59035Y-35027D01*
X61579Y-35024D02*
X59035Y-35024D01*
X61579Y-29122D02*
X59035Y-29122D01*
X46153Y-23929D02*
X50299Y-23929D01*
X44083Y-38173D02*
X44083Y-26000D01*
X44083Y-38174D02*
X44083Y-38173D01*
X46153Y-40244D02*
X44083Y-38174D01*
X47543Y-40244D02*
X46153Y-40244D01*
X44083Y-25999D02*
X44083Y-26000D01*
X46153Y-23929D02*
X44083Y-25999D01*
X53209Y-40244D02*
X47543Y-40244D01*
X56201Y-37252D02*
X53209Y-40244D01*
X58898Y-37252D02*
X56201Y-37252D01*
X58901Y-37252D02*
X58898Y-37252D01*
X59035Y-37118D02*
X58901Y-37252D01*
X58901Y-38346D02*
X58898Y-38346D01*
X58901Y-26921D02*
X58677Y-26921D01*
X59035Y-27055D02*
X58901Y-26921D01*
X59035Y-30016D02*
X59035Y-30020D01*
X56201Y-26921D02*
X58677Y-26921D01*
X53209Y-23929D02*
X56201Y-26921D01*
X50295Y-23929D02*
X53209Y-23929D01*
G54D12*
X52401Y-37308D03*
X52401Y-39866D03*
X50631Y-37308D03*
X50631Y-39866D03*
X50631Y-26917D03*
X50631Y-24359D03*
X52401Y-26917D03*
X52401Y-24359D03*
G54D13*
X44807Y-30040D03*
X44807Y-31140D03*
G54D14*
X52802Y-34563D03*
X51702Y-34563D03*
X49530Y-35484D03*
X48430Y-35484D03*
G54D13*
X54461Y-37534D03*
X54461Y-36434D03*
X46740Y-33357D03*
X46740Y-32257D03*
X55425Y-36424D03*
X55425Y-35324D03*
X46740Y-30352D03*
X46740Y-31452D03*
X53535Y-29548D03*
X53535Y-30648D03*
G54D14*
X49588Y-28807D03*
X50688Y-28807D03*
G54D13*
X58220Y-29640D03*
X58220Y-28540D03*
X57149Y-35904D03*
X57149Y-34804D03*
X49642Y-26203D03*
X49642Y-25103D03*
G54D15*
X58256Y-27524D03*
X56956Y-27524D03*
X56055Y-27528D03*
X54755Y-27528D03*
G54D16*
X45775Y-31480D03*
X45775Y-32780D03*
X49319Y-37460D03*
X49319Y-38760D03*
X48126Y-37456D03*
X48126Y-38756D03*
G54D15*
X51299Y-38287D03*
X52599Y-38287D03*
G54D16*
X45413Y-25803D03*
X45413Y-27103D03*
X44776Y-29193D03*
X44776Y-27893D03*
X46421Y-27819D03*
X46421Y-26519D03*
G54D15*
X52146Y-25665D03*
X50846Y-25665D03*
G54D16*
X47874Y-28755D03*
X47874Y-30055D03*
G54D14*
X52798Y-31547D03*
X51698Y-31547D03*
G54D13*
X44807Y-33101D03*
X44807Y-32001D03*
G54D17*
X56295Y-35923D03*
X56295Y-34841D03*
G54D18*
X46602Y-38976D03*
G54D19*
X50315Y-31910D03*
X50315Y-34160D03*
G54D20*
X47471Y-24618D03*
G54D21*
X48521Y-24618D03*
X47521Y-25618D03*
X48471Y-25618D03*
X47471Y-26618D03*
X48521Y-26618D03*
G54D15*
X46922Y-34496D03*
X45622Y-34496D03*
X46922Y-35496D03*
X45622Y-35496D03*
G54D22*
X58252Y-34527D03*
X58252Y-35277D03*
G54D15*
X46922Y-37500D03*
X45622Y-37500D03*
X46922Y-36496D03*
X45622Y-36496D03*
G54D20*
X44865Y-38189D03*
G54D21*
X44805Y-37189D03*
X44865Y-36189D03*
X44805Y-35189D03*
G54D23*
X44865Y-34189D03*
G54D24*
X45791Y-24913D03*
G54D25*
X54209Y-25551D03*
X58362Y-36653D03*
G54D10*
G36*
X53996Y-36673D02*
X53296Y-36873D01*
X53296Y-35773D01*
X53996Y-35973D01*
X53996Y-36673D01*
X53996Y-36673D01*
G37*
G36*
X52666Y-35973D02*
X53366Y-35773D01*
X53366Y-36873D01*
X52666Y-36673D01*
X52666Y-35973D01*
X52666Y-35973D01*
G37*
G36*
X56622Y-30082D02*
X56422Y-29382D01*
X57522Y-29382D01*
X57322Y-30082D01*
X56622Y-30082D01*
X56622Y-30082D01*
G37*
G36*
X57322Y-28752D02*
X57522Y-29452D01*
X56422Y-29452D01*
X56622Y-28752D01*
X57322Y-28752D01*
X57322Y-28752D01*
G37*
G36*
X55535Y-28748D02*
X55735Y-29448D01*
X54635Y-29448D01*
X54835Y-28748D01*
X55535Y-28748D01*
X55535Y-28748D01*
G37*
G36*
X54835Y-30078D02*
X54635Y-29378D01*
X55735Y-29378D01*
X55535Y-30078D01*
X54835Y-30078D01*
X54835Y-30078D01*
G37*
G54D26*
X59602Y-33449D03*
X59602Y-32465D03*
X59602Y-31677D03*
X59602Y-30693D03*
G54D27*
X60441Y-34374D03*
X60441Y-29768D03*
G54D28*
X60441Y-31165D03*
X60441Y-32977D03*
M02*
