M48
INCH,TZ
T1C0.020
T2C0.034
T3C0.039
T4C0.039
T5C0.049
T6C0.051
T7C0.063
T8C0.125
%
G05
T1
X44583Y-32209
X44598Y-32933
X44854Y-29354
X45087Y-25772
X46157Y-28016
X46598Y-32283
X46665Y-31531
X46685Y-30398
X47354Y-33677
X47681Y-31665
X47953Y-28689
X48134Y-37362
X48405Y-35551
X48838Y-28866
X49154Y-29984
X49346Y-38748
X49469Y-30213
X49555Y-30642
X49562Y-35567
X49583Y-28886
X50197Y-30677
X50291Y-34295
X50350Y-28965
X50374Y-31886
X52823Y-34693
X53303Y-37740
X53449Y-29646
X53476Y-30567
X53673Y-37118
X54303Y-37606
X54783Y-27465
X55256Y-34646
X55260Y-33905
X55362Y-35323
X55909Y-36350
X55968Y-28524
X56067Y-33964
X56295Y-34841
X56909Y-28433
X57012Y-34705
X57366Y-30260
X57468Y-34102
X58201Y-28472
X58256Y-27618
X58307Y-29713
X58661Y-31587
X58815Y-30185
X58882Y-32890
T2
X44805Y-35189
X44805Y-37189
X44865Y-34189
X44865Y-36189
X44865Y-38189
T3
X50631Y-24359
X50631Y-26917
X50631Y-37308
X50631Y-39866
X52401Y-24359
X52401Y-26917
X52401Y-37308
X52401Y-39866
T4
X47471Y-24618
X47471Y-26618
X47521Y-25618
X48471Y-25618
X48521Y-24618
X48521Y-26618
X59602Y-30693
X59602Y-31677
X59602Y-32465
X59602Y-33449
T6
X60441Y-31165
X60441Y-32977
T7
X45791Y-24913
X54209Y-25551
X58362Y-36653
T8
X46602Y-38976
T5
X60057Y-29768G85X60825Y-29768
G05
X60057Y-34374G85X60825Y-34374
G05
T0
M30
