M48
INCH,TZ
T1C0.020
T2C0.039
T3C0.039
T4C0.150
%
G05
T1
X44571Y-32417
X44579Y-26358
X44760Y-33642
X44850Y-29866
X44878Y-35630
X44890Y-34559
X45685Y-27874
X46598Y-32283
X46665Y-31531
X46685Y-30398
X46763Y-33532
X47681Y-31665
X47953Y-28689
X48134Y-37362
X48256Y-35551
X48838Y-28866
X49154Y-29984
X49224Y-35567
X49346Y-38748
X49469Y-30213
X49803Y-28626
X50291Y-34295
X50374Y-31886
X50748Y-28827
X52823Y-34693
X53449Y-29646
X53476Y-30567
X53500Y-37405
X54665Y-37437
X54783Y-27465
X55319Y-34035
X55319Y-34559
X55362Y-35323
X56075Y-34035
X56079Y-27650
X56461Y-32492
X56941Y-27642
X57012Y-34705
X57378Y-31323
X58201Y-28472
X58256Y-27618
X58307Y-29713
X58799Y-30181
T2
X50631Y-24359
X50631Y-26917
X50631Y-37308
X50631Y-39866
X52401Y-24359
X52401Y-26917
X52401Y-37308
X52401Y-39866
T3
X47471Y-24618
X47471Y-26618
X47521Y-25618
X48471Y-25618
X48521Y-24618
X48521Y-26618
T4
X46224Y-38114
T0
M30
