G04 (created by PCBNEW (22-Jun-2014 BZR 4027)-stable) date Sat 19 May 2018 03:07:35 PM EDT*
%MOIN*%
G04 Gerber Fmt 3.4, Leading zero omitted, Abs format*
%FSLAX34Y34*%
G01*
G70*
G90*
G04 APERTURE LIST*
%ADD10C,0.00590551*%
%ADD11C,0.001*%
%ADD12R,0.08X0.08*%
%ADD13C,0.08*%
%ADD14C,0.0495*%
%ADD15C,0.0476*%
%ADD16C,0.0856*%
%ADD17O,0.0793X0.102677*%
%ADD18R,0.091X0.083*%
%ADD19R,0.083X0.091*%
%ADD20R,0.072X0.092*%
%ADD21R,0.092X0.072*%
%ADD22R,0.0791X0.0968*%
%ADD23R,0.107X0.137*%
%ADD24R,0.072X0.072*%
%ADD25C,0.072*%
%ADD26R,0.079X0.0712*%
%ADD27C,0.0848*%
%ADD28C,0.074*%
%ADD29O,0.157X0.087*%
%ADD30C,0.086*%
%ADD31C,0.110425*%
G04 APERTURE END LIST*
G54D10*
G54D11*
X43318Y-22224D02*
X43511Y-22224D01*
X41893Y-23649D02*
X43318Y-22224D01*
X41893Y-23842D02*
X41893Y-23649D01*
X61578Y-36374D02*
X61578Y-35023D01*
X59035Y-38917D02*
X61578Y-36374D01*
X56043Y-41909D02*
X59035Y-38917D01*
X43511Y-41909D02*
X56043Y-41909D01*
X41893Y-40291D02*
X43511Y-41909D01*
X41893Y-38625D02*
X41893Y-40291D01*
X41893Y-23842D02*
X41893Y-25547D01*
X61578Y-27755D02*
X61578Y-29122D01*
X56047Y-22224D02*
X61578Y-27755D01*
X43511Y-22224D02*
X56047Y-22224D01*
X41893Y-38625D02*
X41893Y-25547D01*
X61579Y-29709D02*
X61579Y-29122D01*
X61579Y-35024D02*
X61579Y-29709D01*
X59035Y-30016D02*
X59035Y-30020D01*
G54D12*
X54251Y-28791D03*
G54D13*
X54251Y-29791D03*
G54D14*
X57931Y-26414D02*
X57791Y-26275D01*
X56539Y-25023D02*
X56400Y-24883D01*
G54D15*
X59009Y-25753D02*
X58773Y-25990D01*
X57061Y-23805D02*
X56824Y-24041D01*
G54D16*
X42480Y-39933D03*
G54D17*
X55334Y-41239D03*
X52776Y-41239D03*
X55334Y-39469D03*
X52776Y-39469D03*
X52776Y-22878D03*
X55334Y-22878D03*
X52776Y-24648D03*
X55334Y-24648D03*
G54D18*
X42488Y-34292D03*
X42488Y-35392D03*
X49291Y-33209D03*
X49291Y-34309D03*
G54D19*
X48093Y-35409D03*
X46993Y-35409D03*
G54D18*
X52188Y-33438D03*
X52188Y-34538D03*
X45598Y-33518D03*
X45598Y-32418D03*
X51200Y-34538D03*
X51200Y-33438D03*
X45598Y-30371D03*
X45598Y-31471D03*
X52122Y-29493D03*
X52122Y-30593D03*
G54D19*
X48512Y-28862D03*
X49612Y-28862D03*
G54D18*
X58220Y-29640D03*
X58220Y-28540D03*
X57149Y-35904D03*
X57149Y-34804D03*
X53562Y-24313D03*
X53562Y-23213D03*
G54D20*
X58256Y-27524D03*
X56956Y-27524D03*
X56055Y-27528D03*
X54755Y-27528D03*
G54D21*
X43590Y-35255D03*
X43590Y-36555D03*
X45551Y-36941D03*
X45551Y-35641D03*
G54D20*
X47283Y-38291D03*
X45983Y-38291D03*
G54D21*
X42566Y-32618D03*
X42566Y-31318D03*
X42566Y-28956D03*
X42566Y-30256D03*
X44291Y-30295D03*
X44291Y-28995D03*
X54511Y-25307D03*
X54511Y-24007D03*
X46641Y-28735D03*
X46641Y-30035D03*
G54D18*
X49291Y-32301D03*
X49291Y-31201D03*
X42488Y-37557D03*
X42488Y-36457D03*
G54D22*
X56295Y-35923D03*
X56295Y-34841D03*
G54D23*
X47901Y-31693D03*
X47901Y-33943D03*
G54D24*
X42939Y-25850D03*
G54D25*
X43989Y-25850D03*
X42989Y-26850D03*
X43939Y-26850D03*
X42939Y-27850D03*
X43989Y-27850D03*
G54D26*
X58252Y-34527D03*
X58252Y-35277D03*
G54D16*
X42480Y-24185D03*
G54D27*
X56062Y-24185D03*
X56062Y-39933D03*
G54D10*
G36*
X57613Y-37081D02*
X57813Y-37781D01*
X56713Y-37781D01*
X56913Y-37081D01*
X57613Y-37081D01*
X57613Y-37081D01*
G37*
G36*
X56913Y-38411D02*
X56713Y-37711D01*
X57813Y-37711D01*
X57613Y-38411D01*
X56913Y-38411D01*
X56913Y-38411D01*
G37*
G36*
X56622Y-30082D02*
X56422Y-29382D01*
X57522Y-29382D01*
X57322Y-30082D01*
X56622Y-30082D01*
X56622Y-30082D01*
G37*
G36*
X57322Y-28752D02*
X57522Y-29452D01*
X56422Y-29452D01*
X56622Y-28752D01*
X57322Y-28752D01*
X57322Y-28752D01*
G37*
G36*
X55535Y-28748D02*
X55735Y-29448D01*
X54635Y-29448D01*
X54835Y-28748D01*
X55535Y-28748D01*
X55535Y-28748D01*
G37*
G36*
X54835Y-30078D02*
X54635Y-29378D01*
X55735Y-29378D01*
X55535Y-30078D01*
X54835Y-30078D01*
X54835Y-30078D01*
G37*
G54D28*
X59602Y-33449D03*
X59602Y-32465D03*
X59602Y-31677D03*
X59602Y-30693D03*
G54D29*
X60441Y-34374D03*
X60441Y-29768D03*
G54D30*
X60441Y-31165D03*
X60441Y-32977D03*
G54D12*
X48342Y-40893D03*
G54D13*
X48342Y-39893D03*
X49342Y-40893D03*
X49342Y-39893D03*
X50342Y-40893D03*
X50342Y-39893D03*
X51342Y-40893D03*
X51342Y-39893D03*
G54D10*
G36*
X55409Y-36350D02*
X54709Y-36550D01*
X54709Y-35450D01*
X55409Y-35650D01*
X55409Y-36350D01*
X55409Y-36350D01*
G37*
G36*
X54079Y-35650D02*
X54779Y-35450D01*
X54779Y-36550D01*
X54079Y-36350D01*
X54079Y-35650D01*
X54079Y-35650D01*
G37*
G54D12*
X51342Y-23240D03*
G54D13*
X51342Y-24240D03*
X50342Y-23240D03*
X50342Y-24240D03*
X49342Y-23240D03*
X49342Y-24240D03*
X48342Y-23240D03*
X48342Y-24240D03*
G54D12*
X43578Y-39893D03*
G54D13*
X44578Y-39893D03*
X45578Y-39893D03*
X46578Y-39893D03*
G54D12*
X52881Y-26141D03*
G54D13*
X53881Y-26141D03*
X54881Y-26141D03*
X55881Y-26141D03*
G54D12*
X46578Y-23240D03*
G54D13*
X46578Y-24240D03*
X45578Y-23240D03*
X45578Y-24240D03*
X44578Y-23240D03*
X44578Y-24240D03*
X43578Y-23240D03*
X43578Y-24240D03*
G54D31*
X60834Y-28133D03*
X60834Y-36007D03*
M02*
