M48
INCH,TZ
T1C0.020
T2C0.039
T3C0.039
T4C0.125
%
G05
T1
X44484Y-34976
X44571Y-32417
X44579Y-26358
X44760Y-33642
X44850Y-29866
X44882Y-37500
X44890Y-35496
X44890Y-36496
X44894Y-34496
X45256Y-38594
X45685Y-27874
X46598Y-32283
X46665Y-31531
X46685Y-30398
X46763Y-33532
X46941Y-29209
X47539Y-38102
X47681Y-31665
X47953Y-28689
X48134Y-37362
X48405Y-35551
X48838Y-28866
X49142Y-39709
X49154Y-29984
X49346Y-38748
X49390Y-24299
X49469Y-30213
X49555Y-30642
X49562Y-35567
X49583Y-28886
X50039Y-38153
X50197Y-30677
X50291Y-34295
X50374Y-31886
X50681Y-28913
X51504Y-26394
X52114Y-33051
X52453Y-30346
X52823Y-34693
X52850Y-28728
X53358Y-25114
X53449Y-29646
X53476Y-30567
X53500Y-37405
X54461Y-36315
X54461Y-38405
X54665Y-37437
X54783Y-27465
X55319Y-34035
X55319Y-34559
X55342Y-26736
X55362Y-35323
X55653Y-31866
X56075Y-34035
X56079Y-27650
X56252Y-36776
X56295Y-34841
X56461Y-32492
X56941Y-27642
X57012Y-34705
X57378Y-31323
X57649Y-32791
X58201Y-28472
X58220Y-36677
X58256Y-27618
X58307Y-29713
X58594Y-31543
X58815Y-30185
X59382Y-31669
T2
X50631Y-24359
X50631Y-26917
X50631Y-37308
X50631Y-39866
X52401Y-24359
X52401Y-26917
X52401Y-37308
X52401Y-39866
T3
X47471Y-24618
X47471Y-26618
X47521Y-25618
X48471Y-25618
X48521Y-24618
X48521Y-26618
T4
X46602Y-38976
T0
M30
